<?xml version="1.0" encoding="utf-8"?>
<!-- Generator: Adobe Illustrator 20.1.0, SVG Export Plug-In . SVG Version: 6.00 Build 0)  -->
<svg version="1.1" id="Layer_1" xmlns="http://www.w3.org/2000/svg" xmlns:xlink="http://www.w3.org/1999/xlink" x="0px" y="0px"
	 viewBox="0 0 48 48" style="enable-background:new 0 0 48 48;" xml:space="preserve">
<path d="M47,18h-2h-5v-2h3c0.6,0,1-0.4,1-1s-0.4-1-1-1h-4H29v-2.6l3.7-3.7c0.4-0.4,0.4-1,0-1.4L28.4,2H47c0.6,0,1-0.4,1-1
	s-0.4-1-1-1H1C0.4,0,0,0.4,0,1s0.4,1,1,1h18.6l-4.3,4.3c-0.4,0.4-0.4,1,0,1.4l3.7,3.7V14H9H5c-0.6,0-1,0.4-1,1s0.4,1,1,1h3v2H3H1
	c-0.6,0-1,0.4-1,1s0.4,1,1,1h1v14h12V20h20v14h12V20h1c0.6,0,1-0.4,1-1S47.6,18,47,18z M20.4,10l-3-3l5-5h3.2l5,5l-3,3H20.4z M47,40
	c0.6,0,1-0.4,1-1s-0.4-1-1-1h-1v-2H34v2h-5H19h-5v-2H2v2H1c-0.6,0-1,0.4-1,1s0.4,1,1,1h2h4c-0.6,0.8-1,1.9-1,3c0,1.1,0.4,2.2,1,3H1
	c-0.6,0-1,0.4-1,1s0.4,1,1,1h46c0.6,0,1-0.4,1-1s-0.4-1-1-1h-6c0.6-0.8,1-1.9,1-3c0-1.1-0.4-2.2-1-3h4H47z M11,44h2.8
	c-0.4,1.2-1.5,2-2.8,2c-1.7,0-3-1.3-3-3c0-1.7,1.3-3,3-3c1.3,0,2.4,0.8,2.8,2H11c-0.6,0-1,0.4-1,1S10.4,44,11,44z M18,40v2h-2.1
	c-0.2-0.7-0.5-1.4-0.9-2H18z M15,46c0.4-0.6,0.8-1.3,0.9-2H19h10h3.1c0.2,0.7,0.5,1.4,0.9,2H15z M32.1,42H30v-2h3
	C32.6,40.6,32.3,41.3,32.1,42z M37,46c-1.3,0-2.4-0.8-2.8-2H37c0.6,0,1-0.4,1-1s-0.4-1-1-1h-2.8c0.4-1.2,1.5-2,2.8-2
	c1.7,0,3,1.3,3,3C40,44.7,38.7,46,37,46z M17,32c-0.6,0-1-0.4-1-1v-8c0-0.6,0.4-1,1-1h14c0.6,0,1,0.4,1,1v8c0,0.6-0.4,1-1,1H17z"/>
</svg>
