<?xml version="1.0" encoding="utf-8"?>
<!-- Generator: Adobe Illustrator 17.0.0, SVG Export Plug-In . SVG Version: 6.00 Build 0)  -->
<!DOCTYPE svg PUBLIC "-//W3C//DTD SVG 1.1//EN" "http://www.w3.org/Graphics/SVG/1.1/DTD/svg11.dtd">
<svg version="1.1" id="Layer_1" xmlns="http://www.w3.org/2000/svg" xmlns:xlink="http://www.w3.org/1999/xlink" x="0px" y="0px"
	 width="48px" height="48px" viewBox="0 0 48 48" enable-background="new 0 0 48 48" xml:space="preserve">
<path d="M11,44h25v3c0,0.6-0.4,1-1,1H7c-0.6,0-1-0.4-1-1V7c0-0.6,0.4-1,1-1h3v37C10,43.6,10.4,44,11,44z M42,13v28c0,0.6-0.4,1-1,1
	H13h-1v-1V1c0-0.6,0.4-1,1-1h16c0.3,0,0.5,0.1,0.7,0.3l12,12C41.9,12.5,42,12.7,42,13z M40,14L28,2v12H40z"/>
</svg>
