<?xml version="1.0" encoding="utf-8"?>
<!-- Generator: Adobe Illustrator 17.0.0, SVG Export Plug-In . SVG Version: 6.00 Build 0)  -->
<!DOCTYPE svg PUBLIC "-//W3C//DTD SVG 1.1//EN" "http://www.w3.org/Graphics/SVG/1.1/DTD/svg11.dtd">
<svg version="1.1" id="Layer_1" xmlns="http://www.w3.org/2000/svg" xmlns:xlink="http://www.w3.org/1999/xlink" x="0px" y="0px"
	 width="48px" height="48px" viewBox="0 0 48 48" enable-background="new 0 0 48 48" xml:space="preserve">
<path d="M45.4,2.3C45.2,2.1,44.9,2,44.6,2C43.2,2.2,10.8,5.9,3.5,21.5c-2.4,5-1.8,10.7,1.6,16.9l-1.5,1.5C3,40.4,2.7,41.2,2.7,42
	s0.3,1.6,0.9,2.1S4.9,45,5.7,45c0.8,0,1.6-0.3,2.1-0.9l1.5-1.5c3.7,2,7.2,3,10.4,3c8.8,0,16.1-7.4,21.1-21.5
	c3.7-10.4,4.9-21,4.9-21.1C45.7,2.8,45.6,2.5,45.4,2.3z M32.7,19h-2.6l-6,6h4.6c0.6,0,1,0.4,1,1c0,0.6-0.4,1-1,1h-6.6l-5.5,6h7.6
	c0.6,0,1,0.4,1,1c0,0.6-0.4,1-1,1h-9.6h0l-8.2,7.7c0,0,0,0,0,0c-0.4,0.4-1,0.4-1.4,0c0,0,0,0,0,0c-0.4-0.4-0.2-1,0.2-1.4l7.8-7.7v0
	V24c0-0.6,0.4-1,1-1c0.6,0,1,0.4,1,1v7.6l6-6V19c0-0.6,0.4-1,1-1c0.6,0,1,0.4,1,1v4.6v0l6-6V15c0-0.6,0.4-1,1-1c0.6,0,1,0.4,1,1v2
	h1.7c0.6,0,1,0.4,1,1C33.7,18.6,33.2,19,32.7,19z"/>
</svg>
