<?xml version="1.0" encoding="utf-8"?>
<!-- Generator: Adobe Illustrator 17.0.0, SVG Export Plug-In . SVG Version: 6.00 Build 0)  -->
<!DOCTYPE svg PUBLIC "-//W3C//DTD SVG 1.1//EN" "http://www.w3.org/Graphics/SVG/1.1/DTD/svg11.dtd">
<svg version="1.1" id="Layer_1" xmlns="http://www.w3.org/2000/svg" xmlns:xlink="http://www.w3.org/1999/xlink" x="0px" y="0px"
	 width="48px" height="48px" viewBox="0 0 48 48" enable-background="new 0 0 48 48" xml:space="preserve">
<path d="M40,13.4V1c0-0.6-0.6-1-1.2-1H26c-0.3,0-0.5,0.1-0.7,0.3l-25,25.1c-0.4,0.4-0.4,1,0,1.4l12.8,12.8c0.2,0.2,0.5,0.3,0.7,0.3
	c0,0,0,0,0,0c0.3,0,0.5-0.1,0.7-0.3l25.1-25.5C39.8,14,40,13.7,40,13.4z M31.6,11.4c-1.7,0-3.1-1.4-3.1-3.1s1.4-3.1,3.1-3.1
	c1.7,0,3.1,1.4,3.1,3.1S33.3,11.4,31.6,11.4z M47.6,34.6l-5.5,4.6l2.8,7.5c0.2,0.4,0,0.9-0.3,1.2C44.4,47.9,44.2,48,44,48
	c-0.2,0-0.4-0.1-0.6-0.2l-6.6-4.7l-6.6,4.7c-0.4,0.3-0.9,0.3-1.2,0c-0.4-0.3-0.5-0.7-0.3-1.2l2.8-7.5l-5.6-4.6
	c-0.3-0.3-0.5-0.6-0.3-1c0.1-0.4,0.5-0.5,1-0.5H33l2.8-6.5c0.2-0.4,0.5-0.5,0.9-0.5h0c0.4,0,0.8,0.2,0.9,0.5l2.7,6.5H47
	c0.4,0,0.8,0.1,1,0.5C48.1,33.9,48,34.3,47.6,34.6z"/>
</svg>
