<?xml version="1.0" encoding="utf-8"?>
<!-- Generator: Adobe Illustrator 17.0.0, SVG Export Plug-In . SVG Version: 6.00 Build 0)  -->
<!DOCTYPE svg PUBLIC "-//W3C//DTD SVG 1.1//EN" "http://www.w3.org/Graphics/SVG/1.1/DTD/svg11.dtd">
<svg version="1.1" id="Layer_1" xmlns="http://www.w3.org/2000/svg" xmlns:xlink="http://www.w3.org/1999/xlink" x="0px" y="0px"
	 width="48px" height="48px" viewBox="0 0 48 48" enable-background="new 0 0 48 48" xml:space="preserve">
<path d="M48,34v9c0,0.6-0.4,1-1,1H34V34c0-1.1-0.4-2.4-3.7-4.4c0.2-0.1,0.5-0.2,0.7-0.3v-1.7c-0.7-0.5-1.8-1.6-2-4
	c-0.7-0.6-1-1.7-1-2.9c0-0.4,0.1-1.1,0.3-1.7c0.1-0.2,0.3-0.4,0.4-0.6c-0.4-1.1-0.9-2.7-0.2-3.7c0.3-0.4,0.8-0.9,1.9-0.8
	c1.1-1.6,3.6-2.2,5.6-2.2c2.3,0,5.2,0.8,5.9,2.9c0.5,1.6-0.1,3-0.6,3.9c0.1,0.1,0.2,0.3,0.3,0.5c0.3,0.6,0.3,1.2,0.3,1.7
	c0,1.1-0.3,2.3-1,2.9c-0.2,2.4-1.2,3.5-2,4v1.7c0.9,0.4,1.9,0.7,2.9,1.1C46.2,31.9,48,32.6,48,34z M21,27.3c0-1.1,0-2,0-2.8
	c1.4-1.1,1.9-3.1,2-4.9c0.9-0.6,1.3-1.9,1.3-3c0-0.9-0.3-1.7-0.9-2.3c1.1-2.5,0.9-4.4,0.3-5.5c-1.1-2.2-4.2-3-6.7-3
	c-2.4,0-5.5,0.8-6.6,2.9c-0.9,0-1.7,0.2-2.2,0.9c-0.8,1.2-0.1,3.2,0.5,4.6c-0.7,0.5-1,1.4-1,2.3c0,1.1,0.4,2.4,1.3,3
	C9.1,20.8,9.3,22,9.8,23c0,0,0,0,0,0c0.4,0.8,0.8,1.2,1.2,1.5c0,0.1,0,0.3,0,0.4c0,1.3,0,1.8,0,1.9c0,0.2,0,0.3,0,0.5
	c-3.5,1.4-10,4.3-10.9,6.3c0,0,0,0,0,0C0,33.8,0,33.9,0,34v9c0,0.6,0.4,1,1,1c17.9,0,31,0,31,0v-1v-9C32,31.8,23.1,28.2,21,27.3z"/>
</svg>
