<?xml version="1.0" encoding="utf-8"?>
<!-- Generator: Adobe Illustrator 20.1.0, SVG Export Plug-In . SVG Version: 6.00 Build 0)  -->
<svg version="1.1" id="Layer_1" xmlns="http://www.w3.org/2000/svg" xmlns:xlink="http://www.w3.org/1999/xlink" x="0px" y="0px"
	 viewBox="0 0 48 48" style="enable-background:new 0 0 48 48;" xml:space="preserve">
<path d="M14.3,1.7C14,1.4,13.9,1,14.1,0.6C14.2,0.2,14.6,0,15,0h8c0.3,0,0.5,0.1,0.7,0.3L31.4,8H20.6L14.3,1.7z M43,10H13.4L9.7,6.3
	C9.5,6.1,9.3,6,9,6H1C0.7,6,0.3,6.2,0.1,6.5C0,6.8,0,7.1,0.1,7.4l6,12C6.3,19.8,6.6,20,7,20h13.6L10.3,30.3
	c-0.3,0.3-0.4,0.7-0.2,1.1c0.2,0.4,0.5,0.6,0.9,0.6h10c0.3,0,0.5-0.1,0.7-0.3L33.4,20H43c2.8,0,5-2.2,5-5C48,12.2,45.8,10,43,10z
	 M39,26h-8.8l-7.1,7.1C22.6,33.7,21.8,34,21,34H11c-1.2,0-2.3-0.7-2.8-1.9C7.8,31,8,29.7,8.9,28.9l3.7-3.7l-2.9-2.9
	C9.5,22.1,9.3,22,9,22H7H1c-0.3,0-0.7,0.2-0.9,0.5c-0.2,0.3-0.2,0.7,0,1l6,12C6.3,35.8,6.6,36,7,36h8.6L5.3,46.3
	C5,46.6,4.9,47,5.1,47.4C5.2,47.8,5.6,48,6,48h10c0.3,0,0.5-0.1,0.7-0.3L28.4,36H39c2.8,0,5-2.2,5-5C44,28.2,41.8,26,39,26z"/>
</svg>
