<?xml version="1.0" encoding="utf-8"?>
<!-- Generator: Adobe Illustrator 20.1.0, SVG Export Plug-In . SVG Version: 6.00 Build 0)  -->
<svg version="1.1" id="Layer_1" xmlns="http://www.w3.org/2000/svg" xmlns:xlink="http://www.w3.org/1999/xlink" x="0px" y="0px"
	 viewBox="0 0 48 48" style="enable-background:new 0 0 48 48;" xml:space="preserve">
<path d="M47.1,32c-0.3,0.2-0.7,0.3-1.1,0.3c-0.6,0-1.3-0.3-1.7-0.9l-2-3.1c-1.4,7.2-6.9,13.3-14.5,15.1c-1.5,0.3-2.9,0.5-4.4,0.5
	c-4.9,0-9.7-1.9-13.3-5.5c-0.8-0.8-0.8-2,0-2.8c0.8-0.8,2-0.8,2.8,0c3.7,3.7,8.9,5.1,14,3.9c5.9-1.4,10.3-6.3,11.5-12L35.6,31
	c-0.7,0.8-2,1-2.8,0.3c-0.8-0.7-1-2-0.3-2.8l6.4-7.7c0.4-0.5,1-0.8,1.6-0.7c0.6,0,1.2,0.4,1.6,0.9l5.6,8.3
	C48.3,30.1,48,31.4,47.1,32z M15.3,18.8c-0.8-0.7-2.1-0.6-2.8,0.3L9,23.2c0.1-2.6,0.8-5.1,2.2-7.4c2.2-3.7,5.8-6.4,9.9-7.4
	c5.4-1.3,11,0.5,14.7,4.7c0.7,0.8,2,0.9,2.8,0.2c0.8-0.7,0.9-2,0.2-2.8C34.2,5.1,27,2.9,20.2,4.5c-5.1,1.2-9.7,4.6-12.4,9.2
	c-1.3,2.2-2.2,4.7-2.6,7.2l-1.5-2.3C3,17.7,1.8,17.4,0.9,18c-0.9,0.6-1.2,1.9-0.5,2.8l5.6,8.3C6.3,29.6,6.8,30,7.5,30
	c0,0,0.1,0,0.1,0c0.4,0,0.8-0.2,1.2-0.4c0,0,0.1,0,0.1-0.1c0.1-0.1,0.2-0.1,0.3-0.2l6.4-7.7C16.2,20.8,16.1,19.5,15.3,18.8z
	 M35,18.7L29.3,13L17.5,25.1l5.7,5.7L35,18.7z M15,33.3l6.6-1.3l-5.3-5.3L15,33.3z"/>
</svg>
