<?xml version="1.0" encoding="utf-8"?>
<!-- Generator: Adobe Illustrator 17.0.0, SVG Export Plug-In . SVG Version: 6.00 Build 0)  -->
<!DOCTYPE svg PUBLIC "-//W3C//DTD SVG 1.1//EN" "http://www.w3.org/Graphics/SVG/1.1/DTD/svg11.dtd">
<svg version="1.1" id="Layer_1" xmlns="http://www.w3.org/2000/svg" xmlns:xlink="http://www.w3.org/1999/xlink" x="0px" y="0px"
	 width="48px" height="48px" viewBox="0 0 48 48" enable-background="new 0 0 48 48" xml:space="preserve">
<path d="M0,24c0,13.2,10.8,24,24,24s24-10.8,24-24S37.2,0,24,0C10.8,0,0,10.8,0,24z M37.5,33.5l-23-23c3.1-2.1,6-3.5,10.2-3.5
	c9,0,16.3,7.3,16.3,16.3C41,28.4,38.9,31.5,37.5,33.5z M7.1,24.7c0-5.1,2.1-8.2,3.5-10.2l23,23c-3.1,2.1-5.9,3.5-10.2,3.5
	C14.4,41,7,33.6,7.1,24.7z"/>
</svg>
