<?xml version="1.0" encoding="utf-8"?>
<!-- Generator: Adobe Illustrator 17.0.0, SVG Export Plug-In . SVG Version: 6.00 Build 0)  -->
<!DOCTYPE svg PUBLIC "-//W3C//DTD SVG 1.1//EN" "http://www.w3.org/Graphics/SVG/1.1/DTD/svg11.dtd">
<svg version="1.1" id="Layer_1" xmlns="http://www.w3.org/2000/svg" xmlns:xlink="http://www.w3.org/1999/xlink" x="0px" y="0px"
	 width="48px" height="48px" viewBox="0 0 48 48" enable-background="new 0 0 48 48" xml:space="preserve">
<path d="M48,35.4v3.8c0,4.1-3.3,8.7-7.7,8.7H7.7C3.3,48,0,43.4,0,39.3v-3.8c0-1.1,0.9-2,2-2c1.1,0,2,0.9,2,2v3.8
	C4,41.3,5.8,44,7.7,44h32.5c2,0,3.7-2.7,3.7-4.7v-3.8c0-1.1,0.9-2,2-2C47.1,33.4,48,34.3,48,35.4z M11.4,17.4L22,6.8v28.4
	c0,1.1,0.9,2,2,2c1.1,0,2-0.9,2-2V6.8l10.6,10.6C37,17.8,37.5,18,38,18s1-0.2,1.4-0.6c0.8-0.8,0.8-2,0-2.8l-14-14
	c-0.8-0.8-2.1-0.7-2.8,0l-14,14c-0.8,0.8-0.8,2,0,2.8C9.4,18.2,10.6,18.2,11.4,17.4z"/>
</svg>
