<?xml version="1.0" encoding="utf-8"?>
<!-- Generator: Adobe Illustrator 20.1.0, SVG Export Plug-In . SVG Version: 6.00 Build 0)  -->
<svg version="1.1" id="Layer_1" xmlns="http://www.w3.org/2000/svg" xmlns:xlink="http://www.w3.org/1999/xlink" x="0px" y="0px"
	 viewBox="0 0 48 48" style="enable-background:new 0 0 48 48;" xml:space="preserve">
<style type="text/css">
	.st0{fill:#010101;}
</style>
<path class="st0" d="M47,2H1C0.4,2,0,2.4,0,3v32c0,0.6,0.4,1,1,1h13v7c0,0.4,0.2,0.8,0.6,0.9C14.7,44,14.9,44,15,44
	c0.3,0,0.5-0.1,0.7-0.3l7.7-7.7H47c0.6,0,1-0.4,1-1V3C48,2.4,47.6,2,47,2z M34.5,17.2l-4.8,4l2.5,7.4c0,0,0,0,0,0
	c0.2,0.6,0,0.9-0.4,1.4c-0.5,0-0.8,0.1-1.3-0.2L24,25.2l-6.6,4.5C17,30,16.7,30,16.2,30c-0.4-0.5-0.7-0.8-0.5-1.5c0,0,0,0,0,0
	l2.5-7.4l-4.8-4c-0.4-0.3-0.5-0.9-0.4-1.2c0.1-0.4,0.6-0.7,1.1-0.7h5.5l3.3-6.5C23.2,8.3,23.6,8,24,8s0.8,0.3,1,0.7l3.3,6.5h0h5.5
	c0.5,0,1,0.3,1.1,0.7C35,16.3,34.9,16.8,34.5,17.2z"/>
</svg>
