<?xml version="1.0" encoding="utf-8"?>
<!-- Generator: Adobe Illustrator 20.1.0, SVG Export Plug-In . SVG Version: 6.00 Build 0)  -->
<svg version="1.1" id="Layer_1" xmlns="http://www.w3.org/2000/svg" xmlns:xlink="http://www.w3.org/1999/xlink" x="0px" y="0px"
	 viewBox="0 0 48 48" style="enable-background:new 0 0 48 48;" xml:space="preserve">
<path d="M46.4,2.1L17.3,29.3L0.6,22.8C0.3,22.7,0,22.3,0,21.9c0-0.4,0.2-0.8,0.6-0.9L46.4,2.1z M18,31.3L18,31.3l0,13.6
	c0,0.5,0.4,1,1,1c0.3,0,0.7-0.2,0.9-0.5l6.6-11.3l12.1,6.7c0.3,0.2,0.6,0.2,0.9,0c0.3-0.1,0.5-0.4,0.6-0.7l8-36.8L18,31.3z"/>
</svg>
