<?xml version="1.0" encoding="utf-8"?>
<!-- Generator: Adobe Illustrator 20.1.0, SVG Export Plug-In . SVG Version: 6.00 Build 0)  -->
<svg version="1.1" id="Layer_1" xmlns="http://www.w3.org/2000/svg" xmlns:xlink="http://www.w3.org/1999/xlink" x="0px" y="0px"
	 viewBox="0 0 48 48" style="enable-background:new 0 0 48 48;" xml:space="preserve">
<path d="M48,6v36c0,3.3-2.7,6-6,6H6c-3.3,0-6-2.7-6-6V6c0-3.3,2.7-6,6-6h6c1.1,0,2,0.9,2,2s-0.9,2-2,2H6C4.9,4,4,4.9,4,6v36
	c0,1.1,0.9,2,2,2h36c1.1,0,2-0.9,2-2V6c0-1.1-0.9-2-2-2H26v22.3l4.4-5.5c0.7-0.9,1.9-1,2.8-0.3c0.9,0.7,1,1.9,0.3,2.8l-8,10
	c0,0-0.1,0-0.1,0.1c-0.1,0.1-0.3,0.3-0.5,0.4c-0.1,0-0.1,0.1-0.2,0.1C24.6,33.9,24.3,34,24,34s-0.6-0.1-0.8-0.2
	c-0.1,0-0.1-0.1-0.2-0.1c-0.2-0.1-0.3-0.2-0.5-0.4c0,0-0.1,0-0.1-0.1l-8-10c-0.7-0.9-0.6-2.1,0.3-2.8c0.9-0.7,2.1-0.6,2.8,0.3
	l4.4,5.5V2c0-1.1,0.9-2,2-2h18C45.3,0,48,2.7,48,6z"/>
</svg>
