<?xml version="1.0" encoding="utf-8"?>
<!-- Generator: Adobe Illustrator 17.0.0, SVG Export Plug-In . SVG Version: 6.00 Build 0)  -->
<!DOCTYPE svg PUBLIC "-//W3C//DTD SVG 1.1//EN" "http://www.w3.org/Graphics/SVG/1.1/DTD/svg11.dtd">
<svg version="1.1" id="Layer_1" xmlns="http://www.w3.org/2000/svg" xmlns:xlink="http://www.w3.org/1999/xlink" x="0px" y="0px"
	 width="48px" height="48px" viewBox="0 0 48 48" enable-background="new 0 0 48 48" xml:space="preserve">
<path d="M30.2,22H36v10H20.2L30.2,22z M47.9,1.4C48,1.3,48,1.1,48,1c0-0.1,0-0.3-0.1-0.4c0-0.1-0.1-0.2-0.2-0.3
	c-0.1-0.1-0.2-0.2-0.3-0.2C47.3,0,47.1,0,47,0c-0.1,0-0.3,0-0.4,0.1c-0.1,0-0.2,0.1-0.3,0.2l-46,46c-0.9,0.9,0.4,2.4,1.4,1.4
	c0,0,0,0,0,0l46-46C47.8,1.6,47.9,1.5,47.9,1.4z M6,23v8c0,0.6,0.5,1,1,1h4.8l10-10H7C6.5,22,6,22.5,6,23z M47,22h-9v10h9
	c0.6,0,1-0.4,1-1v-8C48,22.5,47.6,22,47,22z M2,23v8c0,0.6,0.4,1,1,1s1-0.4,1-1v-8c0-0.6-0.4-1-1-1S2,22.5,2,23z M1,18
	c0.6,0,1-0.4,1-1v-4c0-2.8,2.2-5,5-5c3.9,0,7-3.1,7-7c0-0.6-0.4-1-1-1s-1,0.4-1,1c0,2.8-2.2,5-5,5c-3.9,0-7,3.1-7,7v4
	C0,17.6,0.4,18,1,18z M4,17c0,0.6,0.4,1,1,1s1-0.4,1-1c0-2.8,2.2-5,5-5c3.9,0,7-3.1,7-7c0-0.6-0.4-1-1-1c-0.6,0-1,0.4-1,1
	c0,2.8-2.2,5-5,5C7.1,10,4,13.2,4,17z"/>
</svg>
