<?xml version="1.0" encoding="utf-8"?>
<!-- Generator: Adobe Illustrator 17.0.0, SVG Export Plug-In . SVG Version: 6.00 Build 0)  -->
<!DOCTYPE svg PUBLIC "-//W3C//DTD SVG 1.1//EN" "http://www.w3.org/Graphics/SVG/1.1/DTD/svg11.dtd">
<svg version="1.1" id="Layer_1" xmlns="http://www.w3.org/2000/svg" xmlns:xlink="http://www.w3.org/1999/xlink" x="0px" y="0px"
	 width="48px" height="48px" viewBox="0 0 48 48" enable-background="new 0 0 48 48" xml:space="preserve">
<path d="M48,18c0,0.3-0.1,0.5-0.3,0.7l-29,29C18.5,47.9,18.2,48,18,48c-0.3,0-0.5-0.1-0.7-0.3l-17-17C0.1,30.5,0,30.3,0,30
	s0.1-0.5,0.3-0.7l29-29C29.5,0.1,29.8,0,30,0l17,0l0,0c0.3,0,0.5,0.1,0.7,0.3C47.9,0.5,48,0.7,48,1L48,18z M32,11c0,2.8,2.2,5,5,5
	c2.8,0,5-2.2,5-5c0-2.8-2.2-5-5-5C34.2,6,32,8.2,32,11z"/>
</svg>
