<?xml version="1.0" encoding="utf-8"?>
<!-- Generator: Adobe Illustrator 20.1.0, SVG Export Plug-In . SVG Version: 6.00 Build 0)  -->
<svg version="1.1" id="Layer_1" xmlns="http://www.w3.org/2000/svg" xmlns:xlink="http://www.w3.org/1999/xlink" x="0px" y="0px"
	 viewBox="0 0 48 48" style="enable-background:new 0 0 48 48;" xml:space="preserve">
<path d="M43,10H5c-2.8,0-5,2.2-5,5v20c0,2.8,2.2,5,5,5h38c2.8,0,5-2.2,5-5V15C48,12.2,45.8,10,43,10z M6,34H4V16h2V34z M10,34H8v-2
	h2V34z M10,30H8V16h2V30z M14,34h-2v-2h2V34z M14,30h-2V16h2V30z M20,34h-2v-2h2V34z M20,30h-2V16h2V30z M24,34h-2v-2h2V34z M24,30
	h-2V16h2V30z M32,34h-2v-2h2V34z M32,30h-2V16h2V30z M36,34h-2v-2h2V34z M36,30h-2V16h2V30z M40,34h-2v-2h2V34z M40,30h-2V16h2V30z
	 M44,34h-2V16h2V34z"/>
</svg>
