<?xml version="1.0" encoding="utf-8"?>
<!-- Generator: Adobe Illustrator 20.1.0, SVG Export Plug-In . SVG Version: 6.00 Build 0)  -->
<svg version="1.1" id="Layer_1" xmlns="http://www.w3.org/2000/svg" xmlns:xlink="http://www.w3.org/1999/xlink" x="0px" y="0px"
	 viewBox="0 0 48 48" style="enable-background:new 0 0 48 48;" xml:space="preserve">
<path d="M24.7,37.7L21.4,41H24c0.4,0,0.8,0.2,0.9,0.6c0.2,0.4,0.1,0.8-0.2,1.1l-5,5C19.5,47.9,19.3,48,19,48c-0.3,0-0.5-0.1-0.7-0.3
	c-0.4-0.4-0.4-1,0-1.4l3.3-3.3H19c-0.4,0-0.8-0.2-0.9-0.6c-0.2-0.4-0.1-0.8,0.2-1.1l5-5c0.4-0.4,1-0.4,1.4,0
	C25.1,36.7,25.1,37.3,24.7,37.7z M35.3,36.3l-10,10c-0.4,0.4-0.4,1,0,1.4c0.2,0.2,0.5,0.3,0.7,0.3s0.5-0.1,0.7-0.3l10-10
	c0.4-0.4,0.4-1,0-1.4C36.3,35.9,35.7,35.9,35.3,36.3z M15.3,36.3l-10,10c-0.4,0.4-0.4,1,0,1.4C5.5,47.9,5.7,48,6,48
	c0.3,0,0.5-0.1,0.7-0.3l10-10c0.4-0.4,0.4-1,0-1.4C16.3,35.9,15.7,35.9,15.3,36.3z M42.7,16c0.6-2,0.3-4.1-0.8-5.9
	C40.6,8.2,38.4,7,36,7c0,0-0.1,0-0.1,0C34,2.8,29.7,0,25,0c-5.9,0-11,4.4-11.9,10.2C7.9,11,4,15.6,4,21c0,6.1,4.9,11,11,11h22
	c5,0,9-4,9-9C46,20.3,44.8,17.7,42.7,16z"/>
</svg>
