<?xml version="1.0" encoding="utf-8"?>
<!-- Generator: Adobe Illustrator 17.0.0, SVG Export Plug-In . SVG Version: 6.00 Build 0)  -->
<!DOCTYPE svg PUBLIC "-//W3C//DTD SVG 1.1//EN" "http://www.w3.org/Graphics/SVG/1.1/DTD/svg11.dtd">
<svg version="1.1" id="Layer_1" xmlns="http://www.w3.org/2000/svg" xmlns:xlink="http://www.w3.org/1999/xlink" x="0px" y="0px"
	 width="48px" height="48px" viewBox="0 0 48 48" enable-background="new 0 0 48 48" xml:space="preserve">
<path d="M0,25c0-0.6,0.4-1,1-1h43.3l-23-20.2c-0.4-0.4-0.5-1-0.1-1.4C21.4,2.1,21.7,2,22,2c0.2,0,0.5,0.1,0.7,0.2l25,22l0,0
	c0.1,0.1,0.1,0.2,0.2,0.2c0,0,0,0.1,0.1,0.1c0,0.2,0,0.4,0,0.5s0,0.3-0.1,0.4c0,0,0,0.1-0.1,0.1c0,0.1-0.1,0.2-0.2,0.2l0,0l-25,22
	c-0.4,0.4-1,0.3-1.4-0.1c-0.4-0.4-0.3-1,0.1-1.4l23-20.2H1C0.4,26,0,25.6,0,25z"/>
</svg>
