<?xml version="1.0" encoding="utf-8"?>
<!-- Generator: Adobe Illustrator 17.0.0, SVG Export Plug-In . SVG Version: 6.00 Build 0)  -->
<!DOCTYPE svg PUBLIC "-//W3C//DTD SVG 1.1//EN" "http://www.w3.org/Graphics/SVG/1.1/DTD/svg11.dtd">
<svg version="1.1" id="Layer_1" xmlns="http://www.w3.org/2000/svg" xmlns:xlink="http://www.w3.org/1999/xlink" x="0px" y="0px"
	 width="48px" height="48px" viewBox="0 0 48 48" enable-background="new 0 0 48 48" xml:space="preserve">
<path d="M11.7,34.7c-0.4,0.4-1,0.4-1.4,0l-10-10c-0.1-0.1-0.2-0.2-0.2-0.3C0,24.3,0,24.1,0,24c0-0.1,0-0.3,0.1-0.4
	c0.1-0.1,0.1-0.2,0.2-0.3l10-10c0.4-0.4,1-0.4,1.4,0s0.4,1,0,1.4L3.4,23h41.2l-8.3-8.3c-0.4-0.4-0.4-1,0-1.4s1-0.4,1.4,0l10,10
	c0.1,0.1,0.2,0.2,0.2,0.3c0.1,0.2,0.1,0.5,0,0.8c-0.1,0.1-0.1,0.2-0.2,0.3l-10,10c-0.4,0.4-1,0.4-1.4,0C36.1,34.5,36,34.3,36,34
	s0.1-0.5,0.3-0.7l8.3-8.3H3.4l8.3,8.3C12.1,33.7,12.1,34.3,11.7,34.7z"/>
</svg>
