<?xml version="1.0" encoding="utf-8"?>
<!-- Generator: Adobe Illustrator 17.0.0, SVG Export Plug-In . SVG Version: 6.00 Build 0)  -->
<!DOCTYPE svg PUBLIC "-//W3C//DTD SVG 1.1//EN" "http://www.w3.org/Graphics/SVG/1.1/DTD/svg11.dtd">
<svg version="1.1" id="Layer_1" xmlns="http://www.w3.org/2000/svg" xmlns:xlink="http://www.w3.org/1999/xlink" x="0px" y="0px"
	 width="48px" height="48px" viewBox="0 0 48 48" enable-background="new 0 0 48 48" xml:space="preserve">
<path d="M47,4h-7V1c0-0.6-0.4-1-1-1h-6c-0.6,0-1,0.4-1,1v3H16V1c0-0.6-0.4-1-1-1H9C8.4,0,8,0.4,8,1v3H1C0.4,4,0,4.4,0,5v42
	c0,0.6,0.4,1,1,1h46c0.6,0,1-0.4,1-1V5C48,4.4,47.6,4,47,4z M34,2h4v6h-4V2z M10,2h4v6h-4V2z M8,6v3c0,0.6,0.4,1,1,1h6
	c0.6,0,1-0.4,1-1V6h16v3c0,0.6,0.4,1,1,1h6c0.6,0,1-0.4,1-1V6h6v8H2V6H8z M2,46V16h44v30H2z"/>
</svg>
