<?xml version="1.0" encoding="utf-8"?>
<!-- Generator: Adobe Illustrator 20.1.0, SVG Export Plug-In . SVG Version: 6.00 Build 0)  -->
<svg version="1.1" id="Layer_1" xmlns="http://www.w3.org/2000/svg" xmlns:xlink="http://www.w3.org/1999/xlink" x="0px" y="0px"
	 viewBox="0 0 48 48" style="enable-background:new 0 0 48 48;" xml:space="preserve">
<path d="M47,0H11H1C0.4,0,0,0.4,0,1v10v36c0,0.6,0.4,1,1,1h10h36c0.6,0,1-0.4,1-1V11V1C48,0.4,47.6,0,47,0z M46,10h-4V4h-2v6h-6V6
	h-2v4h-6V6h-2v4h-6V4h-2v6h-4V2h34V10z M2,2h8v8H2V2z M2,12h8v4H4v2h6v6H6v2h4v6H6v2h4v6H4v2h6v4H2V12z M46,46H12V12h34V46z"/>
</svg>
