<?xml version="1.0" encoding="utf-8"?>
<!-- Generator: Adobe Illustrator 17.0.0, SVG Export Plug-In . SVG Version: 6.00 Build 0)  -->
<!DOCTYPE svg PUBLIC "-//W3C//DTD SVG 1.1//EN" "http://www.w3.org/Graphics/SVG/1.1/DTD/svg11.dtd">
<svg version="1.1" id="Layer_1" xmlns="http://www.w3.org/2000/svg" xmlns:xlink="http://www.w3.org/1999/xlink" x="0px" y="0px"
	 width="48px" height="48px" viewBox="0 0 48 48" enable-background="new 0 0 48 48" xml:space="preserve">
<path d="M41.9,12.6c-0.1-0.1-0.1-0.2-0.2-0.3l-12-12c-0.1-0.1-0.2-0.2-0.3-0.2C29.3,0,29.1,0,29,0H7C6.4,0,6,0.4,6,1v46
	c0,0.6,0.4,1,1,1h34c0.6,0,1-0.4,1-1V13C42,12.9,42,12.7,41.9,12.6z M30,3.4l8.6,8.6H30V3.4z M8,46V2h20v11c0,0.6,0.4,1,1,1h11v32H8
	z M14,15c0-0.6,0.4-1,1-1h9c0.6,0,1,0.4,1,1s-0.4,1-1,1h-9C14.4,16,14,15.6,14,15z M34,21c0,0.6-0.4,1-1,1H15c-0.6,0-1-0.4-1-1
	s0.4-1,1-1h18C33.6,20,34,20.4,34,21z M34,27c0,0.6-0.4,1-1,1H15c-0.6,0-1-0.4-1-1s0.4-1,1-1h18C33.6,26,34,26.4,34,27z M34,33
	c0,0.6-0.4,1-1,1H15c-0.6,0-1-0.4-1-1s0.4-1,1-1h18C33.6,32,34,32.4,34,33z M34,39c0,0.6-0.4,1-1,1H15c-0.6,0-1-0.4-1-1s0.4-1,1-1
	h18C33.6,38,34,38.4,34,39z"/>
</svg>
