<?xml version="1.0" encoding="utf-8"?>
<!-- Generator: Adobe Illustrator 17.0.0, SVG Export Plug-In . SVG Version: 6.00 Build 0)  -->
<!DOCTYPE svg PUBLIC "-//W3C//DTD SVG 1.1//EN" "http://www.w3.org/Graphics/SVG/1.1/DTD/svg11.dtd">
<svg version="1.1" id="Layer_1" xmlns="http://www.w3.org/2000/svg" xmlns:xlink="http://www.w3.org/1999/xlink" x="0px" y="0px"
	 width="48px" height="48px" viewBox="0 0 48 48" enable-background="new 0 0 48 48" xml:space="preserve">
<path d="M45,2H21c-1.7,0-3,1.3-3,3v11H3c-1.7,0-3,1.3-3,3v24c0,1.7,1.3,3,3,3h24c1.7,0,3-1.3,3-3V32h15c1.7,0,3-1.3,3-3V5
	C48,3.3,46.7,2,45,2z M28,43c0,0.6-0.4,1-1,1H3c-0.6,0-1-0.4-1-1V19c0-0.6,0.4-1,1-1h24c0.6,0,1,0.4,1,1V43z M46,29c0,0.6-0.4,1-1,1
	H30V19c0-1.7-1.3-3-3-3h-7V5c0-0.6,0.4-1,1-1h24c0.6,0,1,0.4,1,1V29z M30,10c0,1.1-0.9,2-2,2s-2-0.9-2-2s0.9-2,2-2S30,8.9,30,10z
	 M40,10c0,1.1-0.9,2-2,2s-2-0.9-2-2s0.9-2,2-2S40,8.9,40,10z M40,24c0,1.1-0.9,2-2,2s-2-0.9-2-2c0-1.1,0.9-2,2-2S40,22.9,40,24z
	 M24,26c0,1.1-0.9,2-2,2s-2-0.9-2-2c0-1.1,0.9-2,2-2S24,24.9,24,26z M24,36c0,1.1-0.9,2-2,2s-2-0.9-2-2s0.9-2,2-2S24,34.9,24,36z
	 M17,36c0,1.1-0.9,2-2,2s-2-0.9-2-2s0.9-2,2-2S17,34.9,17,36z M17,26c0,1.1-0.9,2-2,2s-2-0.9-2-2c0-1.1,0.9-2,2-2S17,24.9,17,26z
	 M10,26c0,1.1-0.9,2-2,2s-2-0.9-2-2c0-1.1,0.9-2,2-2S10,24.9,10,26z M10,36c0,1.1-0.9,2-2,2s-2-0.9-2-2s0.9-2,2-2S10,34.9,10,36z"/>
</svg>
