<?xml version="1.0" encoding="utf-8"?>
<!-- Generator: Adobe Illustrator 17.0.0, SVG Export Plug-In . SVG Version: 6.00 Build 0)  -->
<!DOCTYPE svg PUBLIC "-//W3C//DTD SVG 1.1//EN" "http://www.w3.org/Graphics/SVG/1.1/DTD/svg11.dtd">
<svg version="1.1" id="Layer_1" xmlns="http://www.w3.org/2000/svg" xmlns:xlink="http://www.w3.org/1999/xlink" x="0px" y="0px"
	 width="48px" height="48px" viewBox="0 0 48 48" enable-background="new 0 0 48 48" xml:space="preserve">
<path d="M24.5,0C13.4,0,4,9.2,4,20c0,14.4,19.1,27.3,19.9,27.8c0.2,0.1,0.4,0.2,0.6,0.2c0.2,0,0.4-0.1,0.6-0.2
	C25.8,47.3,44,34.4,44,20C44,8.8,35.4,0,24.5,0z M24.5,45.8C21.3,43.5,6,32,6,20c0-9.8,8.5-18,18.5-18C34.3,2,42,9.9,42,20
	C42,32,27.5,43.5,24.5,45.8z"/>
</svg>
