<?xml version="1.0" encoding="utf-8"?>
<!-- Generator: Adobe Illustrator 20.1.0, SVG Export Plug-In . SVG Version: 6.00 Build 0)  -->
<svg version="1.1" id="Layer_1" xmlns="http://www.w3.org/2000/svg" xmlns:xlink="http://www.w3.org/1999/xlink" x="0px" y="0px"
	 viewBox="0 0 48 48" style="enable-background:new 0 0 48 48;" xml:space="preserve">
<path d="M43.8,23.8c0.6-2.4,0-4.9-1.5-6.8c-1.5-1.9-3.8-3-6.3-3c0,0,0,0,0,0c-2-4.8-6.7-8-12-8c-6.8,0-12.5,5.3-13,12
	C4.9,18.5,0,23.7,0,30c0,6.6,5.4,12,12,12h26c5.5,0,10-4.5,10-10C48,28.8,46.4,25.7,43.8,23.8z M38,40H12C6.5,40,2,35.5,2,30
	s4.5-10,10-10c0.6,0,1-0.4,1-1c0-6.1,4.9-11,11-11c4.7,0,8.8,3,10.4,7.4c0.2,0.4,0.6,0.7,1,0.7c2-0.2,4,0.6,5.3,2.3
	c1.3,1.6,1.6,3.7,1,5.7c-0.2,0.4,0,0.9,0.4,1.2c2.4,1.4,3.9,4.1,3.9,6.9C46,36.4,42.4,40,38,40z"/>
</svg>
