<?xml version="1.0" encoding="utf-8"?>
<!-- Generator: Adobe Illustrator 20.1.0, SVG Export Plug-In . SVG Version: 6.00 Build 0)  -->
<svg version="1.1" id="Layer_1" xmlns="http://www.w3.org/2000/svg" xmlns:xlink="http://www.w3.org/1999/xlink" x="0px" y="0px"
	 viewBox="0 0 48 48" style="enable-background:new 0 0 48 48;" xml:space="preserve">
<path d="M42,33c0,2.8-1.2,5.3-3.4,7c-0.4,0.3-1.1,0.3-1.4-0.2c-0.3-0.4-0.3-1.1,0.2-1.4C39,37.1,40,35.1,40,33
	c0-2.3-1.1-4.5-3.1-5.8c-0.4-0.3-0.5-0.8-0.4-1.2c0.7-1.7,0.5-3.5-0.6-5c-1.1-1.5-2.8-2.2-4.6-2c-0.4,0.1-0.9-0.2-1.1-0.6
	C28.8,14.5,25.2,12,21,12c-5.1,0-9.5,4-10,9.1c0,0.5-0.4,0.9-0.9,0.9C5.5,22.5,2,26.3,2,31c0,3.2,1.7,6.1,4.4,7.7
	C6.9,39,7,39.6,6.8,40.1c-0.2,0.3-0.5,0.5-0.9,0.5c-0.2,0-0.3,0-0.5-0.1C2.1,38.5,0,34.9,0,31c0-5.4,3.9-10,9.1-10.8
	C10,14.4,15.1,10,21,10c4.7,0,9,2.8,10.9,7c2.3,0,4.3,1,5.7,2.8c1.4,1.8,1.8,4.1,1.1,6.2C40.8,27.7,42,30.3,42,33z M14.7,36.3
	c-0.4-0.4-1-0.4-1.4,0l-10,10c-0.4,0.4-0.4,1,0,1.4C3.5,47.9,3.7,48,4,48s0.5-0.1,0.7-0.3l10-10C15.1,37.3,15.1,36.7,14.7,36.3z
	 M24.7,36.3c-0.4-0.4-1-0.4-1.4,0l-10,10c-0.4,0.4-0.4,1,0,1.4c0.2,0.2,0.5,0.3,0.7,0.3s0.5-0.1,0.7-0.3l10-10
	C25.1,37.3,25.1,36.7,24.7,36.3z M33.3,36.3l-10,10c-0.4,0.4-0.4,1,0,1.4c0.2,0.2,0.5,0.3,0.7,0.3s0.5-0.1,0.7-0.3l10-10
	c0.4-0.4,0.4-1,0-1.4S33.7,35.9,33.3,36.3z M47.4,22.2c-3.7-1.8-6.1-5.5-6.1-9.6s2.4-7.8,6.1-9.6C47.8,2.9,48,2.5,48,2.1
	s-0.2-0.7-0.6-0.9C45.7,0.4,43.9,0,42,0c-6,0-11,4.1-12.3,9.9c-0.1,0.5,0.2,1.1,0.8,1.2c0.5,0.1,1.1-0.2,1.2-0.8C32.8,5.4,37,2,42,2
	c0.9,0,1.8,0.1,2.7,0.3c-3.3,2.3-5.3,6.2-5.3,10.3s2,7.9,5.3,10.3c-0.1,0-0.2,0.1-0.4,0.1c-0.5,0.1-0.9,0.7-0.8,1.2
	c0.1,0.5,0.5,0.8,1,0.8c0.1,0,0.1,0,0.2,0c0.9-0.2,1.8-0.5,2.7-0.9c0.3-0.2,0.6-0.5,0.6-0.9C48,22.7,47.8,22.4,47.4,22.2z"/>
</svg>
