<?xml version="1.0" encoding="utf-8"?>
<!-- Generator: Adobe Illustrator 20.1.0, SVG Export Plug-In . SVG Version: 6.00 Build 0)  -->
<svg version="1.1" id="Layer_1" xmlns="http://www.w3.org/2000/svg" xmlns:xlink="http://www.w3.org/1999/xlink" x="0px" y="0px"
	 viewBox="0 0 48 48" style="enable-background:new 0 0 48 48;" xml:space="preserve">
<path d="M24.7,37.7L21.4,41H24c0.4,0,0.8,0.2,0.9,0.6c0.2,0.4,0.1,0.8-0.2,1.1l-5,5C19.5,47.9,19.3,48,19,48c-0.3,0-0.5-0.1-0.7-0.3
	c-0.4-0.4-0.4-1,0-1.4l3.3-3.3H19c-0.4,0-0.8-0.2-0.9-0.6c-0.2-0.4-0.1-0.8,0.2-1.1l5-5c0.4-0.4,1-0.4,1.4,0S25.1,37.3,24.7,37.7z
	 M35.3,36.3l-10,10c-0.4,0.4-0.4,1,0,1.4c0.2,0.2,0.5,0.3,0.7,0.3s0.5-0.1,0.7-0.3l10-10c0.4-0.4,0.4-1,0-1.4S35.7,35.9,35.3,36.3z
	 M15.3,36.3l-10,10c-0.4,0.4-0.4,1,0,1.4C5.5,47.9,5.7,48,6,48s0.5-0.1,0.7-0.3l10-10c0.4-0.4,0.4-1,0-1.4S15.7,35.9,15.3,36.3z
	 M46,23c0,5-4,9-9,9H15C8.9,32,4,27.1,4,21c0-5.4,3.9-10,9.2-10.8C14,4.4,19.1,0,25,0c4.7,0,9,2.8,10.9,7c2.2,0,4.3,1,5.7,2.8
	c1.4,1.8,1.8,4.1,1.1,6.2C44.8,17.8,46,20.3,46,23z M44,23c0-2.3-1.1-4.5-3.1-5.8c-0.4-0.3-0.5-0.8-0.4-1.2c0.7-1.7,0.5-3.5-0.6-5
	c-1.1-1.5-2.8-2.2-4.6-2c-0.4,0.1-0.9-0.2-1.1-0.6C32.9,4.6,29.1,2,25,2c-5.1,0-9.5,4-10,9.1c0,0.5-0.4,0.9-0.9,0.9
	C9.5,12.5,6,16.3,6,21c0,5,4,9,9,9h22C40.9,30,44,26.9,44,23z"/>
</svg>
