<?xml version="1.0" encoding="utf-8"?>
<!-- Generator: Adobe Illustrator 17.0.0, SVG Export Plug-In . SVG Version: 6.00 Build 0)  -->
<!DOCTYPE svg PUBLIC "-//W3C//DTD SVG 1.1//EN" "http://www.w3.org/Graphics/SVG/1.1/DTD/svg11.dtd">
<svg version="1.1" id="Layer_1" xmlns="http://www.w3.org/2000/svg" xmlns:xlink="http://www.w3.org/1999/xlink" x="0px" y="0px"
	 width="48px" height="48px" viewBox="0 0 48 48" enable-background="new 0 0 48 48" xml:space="preserve">
<path d="M47.6,11.9C46.8,10,45,8.8,42.9,8.8c-0.7,0-1.3,0.1-1.9,0.4l-8.6,3.7L19.5,7.6c-0.2-0.1-0.5-0.1-0.8,0l-7.4,3.1
	c-0.4,0.2-0.6,0.5-0.6,0.9c0,0.4,0.2,0.8,0.6,0.9l11.3,4.7l-8.5,3.7l-5.6-2.8c-0.3-0.1-0.6-0.1-0.8,0l-7,3c-0.3,0.1-0.5,0.4-0.6,0.7
	c-0.1,0.3,0,0.7,0.3,0.9l9,9c0.3,0.3,0.7,0.4,1.1,0.2l12.9-5.2l-5.2,13.9c-0.1,0.4,0,0.8,0.3,1.1c0.2,0.2,0.4,0.3,0.7,0.3
	c0.2,0,0.3,0,0.4-0.1l8-4c0.2-0.1,0.4-0.3,0.4-0.4l7.8-15.6l9.1-3.4c1.2-0.5,2.2-1.5,2.7-2.7C48.1,14.5,48.1,13.1,47.6,11.9z
	 M14.3,11.6l4.8-2L29.8,14l-4.7,2L14.3,11.6z M45.7,15c-0.3,0.7-0.9,1.3-1.6,1.6l-9.4,3.5c-0.2,0.1-0.4,0.3-0.5,0.5l-7.8,15.7
	L20.9,39L26,25.4c0.1-0.4,0-0.8-0.2-1.1c-0.2-0.2-0.4-0.3-0.7-0.3c-0.1,0-0.3,0-0.4,0.1l-14.4,5.8l-7.5-7.5L8,20.1l5.6,2.8
	c0.3,0.1,0.6,0.1,0.8,0L41.8,11c0.4-0.2,0.8-0.2,1.1-0.2c1.2,0,2.3,0.7,2.8,1.9C46,13.4,46,14.2,45.7,15z"/>
</svg>
