<?xml version="1.0" encoding="utf-8"?>
<!-- Generator: Adobe Illustrator 20.1.0, SVG Export Plug-In . SVG Version: 6.00 Build 0)  -->
<svg version="1.1" id="Layer_1" xmlns="http://www.w3.org/2000/svg" xmlns:xlink="http://www.w3.org/1999/xlink" x="0px" y="0px"
	 viewBox="0 0 48 48" style="enable-background:new 0 0 48 48;" xml:space="preserve">
<path d="M43,10h-9.6l-9.7-9.7C23.5,0.1,23.3,0,23,0h-8c-0.4,0-0.8,0.2-0.9,0.6C13.9,1,14,1.4,14.3,1.7l8.3,8.3h-9.2L9.7,6.3
	C9.5,6.1,9.3,6,9,6H1C0.7,6,0.3,6.2,0.1,6.5C0,6.8,0,7.1,0.1,7.4l6,12C6.3,19.8,6.6,20,7,20h13.6L10.3,30.3
	c-0.3,0.3-0.4,0.7-0.2,1.1S10.6,32,11,32h10c0.3,0,0.5-0.1,0.7-0.3L33.4,20H43c2.8,0,5-2.2,5-5S45.8,10,43,10z M17.4,2h5.2l8,8h-5.2
	L17.4,2z M43,18H33c-0.3,0-0.5,0.1-0.7,0.3L20.6,30h-7.2l10.3-10.3c0.3-0.3,0.4-0.7,0.2-1.1C23.8,18.2,23.4,18,23,18H7.6l-5-10h6
	l3.7,3.7c0.2,0.2,0.4,0.3,0.7,0.3h30c1.7,0,3,1.3,3,3S44.7,18,43,18z M17,48H7c-0.4,0-0.8-0.2-0.9-0.6S6,46.6,6.3,46.3L16.6,36H7
	c-0.4,0-0.7-0.2-0.9-0.6l-6-12c-0.2-0.3-0.1-0.7,0-1C0.3,22.2,0.7,22,1,22h8c0.3,0,0.5,0.1,0.7,0.3l1,1c0.4,0.4,0.4,1,0,1.4
	s-1,0.4-1.4,0L8.6,24h-6l5,10H19c0.4,0,0.8,0.2,0.9,0.6s0.1,0.8-0.2,1.1L9.4,46h7.2l11.7-11.7c0.2-0.2,0.4-0.3,0.7-0.3h10
	c1.7,0,3-1.3,3-3s-1.3-3-3-3h-7c-0.6,0-1-0.4-1-1s0.4-1,1-1h7c2.8,0,5,2.2,5,5s-2.2,5-5,5h-9.6L17.7,47.7C17.5,47.9,17.3,48,17,48z
	 M25,25 M33,25"/>
</svg>
