<?xml version="1.0" encoding="utf-8"?>
<!-- Generator: Adobe Illustrator 17.0.0, SVG Export Plug-In . SVG Version: 6.00 Build 0)  -->
<!DOCTYPE svg PUBLIC "-//W3C//DTD SVG 1.1//EN" "http://www.w3.org/Graphics/SVG/1.1/DTD/svg11.dtd">
<svg version="1.1" id="Layer_1" xmlns="http://www.w3.org/2000/svg" xmlns:xlink="http://www.w3.org/1999/xlink" x="0px" y="0px"
	 width="48px" height="48px" viewBox="0 0 48 48" enable-background="new 0 0 48 48" xml:space="preserve">
<path d="M23,17.3c0.6,0,1,0.4,1,1v15.3c0,0.6-0.4,1-1,1s-1-0.4-1-1V18.3C22,17.8,22.4,17.3,23,17.3z M46,47c0,0.6-0.4,1-1,1
	c0,0,0,0,0,0H1c-0.3,0-0.7-0.2-0.9-0.5s-0.2-0.7,0-1l22-44c0.3-0.7,1.5-0.7,1.8,0l21.9,43.8C45.9,46.6,46,46.8,46,47z M43.4,46
	L23,5.2L2.6,46H43.4z M21,40c0,1.1,0.9,2,2,2s2-0.9,2-2s-0.9-2-2-2S21,38.9,21,40z"/>
</svg>
