<?xml version="1.0" encoding="utf-8"?>
<!-- Generator: Adobe Illustrator 17.0.0, SVG Export Plug-In . SVG Version: 6.00 Build 0)  -->
<!DOCTYPE svg PUBLIC "-//W3C//DTD SVG 1.1//EN" "http://www.w3.org/Graphics/SVG/1.1/DTD/svg11.dtd">
<svg version="1.1" id="Layer_1" xmlns="http://www.w3.org/2000/svg" xmlns:xlink="http://www.w3.org/1999/xlink" x="0px" y="0px"
	 width="48px" height="48px" viewBox="0 0 48 48" enable-background="new 0 0 48 48" xml:space="preserve">
<path d="M48,41c0,0.6-0.4,1-1,1H9c-0.6,0-1-0.4-1-1s0.4-1,1-1h38C47.6,40,48,40.4,48,41z M47,34H15c-0.6,0-1,0.4-1,1s0.4,1,1,1h32
	c0.6,0,1-0.4,1-1S47.6,34,47,34z M47,46H1c-0.6,0-1,0.4-1,1s0.4,1,1,1h46c0.6,0,1-0.4,1-1S47.6,46,47,46z M9,6h38c0.6,0,1-0.4,1-1
	s-0.4-1-1-1H9C8.4,4,8,4.4,8,5S8.4,6,9,6z M47,28H9c-0.6,0-1,0.4-1,1s0.4,1,1,1h38c0.6,0,1-0.4,1-1S47.6,28,47,28z M47,22H1
	c-0.6,0-1,0.4-1,1s0.4,1,1,1h46c0.6,0,1-0.4,1-1S47.6,22,47,22z M47,10H15c-0.6,0-1,0.4-1,1s0.4,1,1,1h32c0.6,0,1-0.4,1-1
	S47.6,10,47,10z M47,16H9c-0.6,0-1,0.4-1,1s0.4,1,1,1h38c0.6,0,1-0.4,1-1S47.6,16,47,16z"/>
</svg>
