<?xml version="1.0" encoding="utf-8"?>
<!-- Generator: Adobe Illustrator 17.0.0, SVG Export Plug-In . SVG Version: 6.00 Build 0)  -->
<!DOCTYPE svg PUBLIC "-//W3C//DTD SVG 1.1//EN" "http://www.w3.org/Graphics/SVG/1.1/DTD/svg11.dtd">
<svg version="1.1" id="Layer_1" xmlns="http://www.w3.org/2000/svg" xmlns:xlink="http://www.w3.org/1999/xlink" x="0px" y="0px"
	 width="48px" height="48px" viewBox="0 0 48 48" enable-background="new 0 0 48 48" xml:space="preserve">
<path d="M0,17c0-0.6,0.4-1,1-1h36c0.6,0,1,0.4,1,1s-0.4,1-1,1H1C0.4,18,0,17.6,0,17z M1,12h32c0.6,0,1-0.4,1-1s-0.4-1-1-1H1
	c-0.6,0-1,0.4-1,1S0.4,12,1,12z M1,24h46c0.6,0,1-0.4,1-1s-0.4-1-1-1H1c-0.6,0-1,0.4-1,1S0.4,24,1,24z M1,6h40c0.6,0,1-0.4,1-1
	s-0.4-1-1-1H1C0.4,4,0,4.4,0,5S0.4,6,1,6z M1,42h38c0.6,0,1-0.4,1-1s-0.4-1-1-1H1c-0.6,0-1,0.4-1,1S0.4,42,1,42z M1,30h38
	c0.6,0,1-0.4,1-1s-0.4-1-1-1H1c-0.6,0-1,0.4-1,1S0.4,30,1,30z M47,46H1c-0.6,0-1,0.4-1,1s0.4,1,1,1h46c0.6,0,1-0.4,1-1
	S47.6,46,47,46z M1,36h32c0.6,0,1-0.4,1-1s-0.4-1-1-1H1c-0.6,0-1,0.4-1,1S0.4,36,1,36z"/>
</svg>
