<?xml version="1.0" encoding="utf-8"?>
<!-- Generator: Adobe Illustrator 17.0.0, SVG Export Plug-In . SVG Version: 6.00 Build 0)  -->
<!DOCTYPE svg PUBLIC "-//W3C//DTD SVG 1.1//EN" "http://www.w3.org/Graphics/SVG/1.1/DTD/svg11.dtd">
<svg version="1.1" id="Layer_1" xmlns="http://www.w3.org/2000/svg" xmlns:xlink="http://www.w3.org/1999/xlink" x="0px" y="0px"
	 width="48px" height="48px" viewBox="0 0 48 48" enable-background="new 0 0 48 48" xml:space="preserve">
<path d="M44,16V5c0-0.3-0.2-0.7-0.5-0.8c-0.3-0.2-0.6-0.2-1-0.1l-1.9,0.8C32.8,8.6,25.4,12,9,12H7c-3.9,0-7,3.1-7,7v4
	c0,3.9,3.1,7,7,7h2c1.8,0,3.4,0,5,0.1c0,5.9,3.3,11.1,8.6,13.8C22.7,44,22.8,44,23,44c0.4,0,0.7-0.2,0.9-0.6c0.2-0.5,0-1.1-0.4-1.3
	c-4.5-2.3-7.4-6.8-7.4-11.9c11.7,0.8,18.1,3.8,24.7,6.8l1.8,0.8C42.7,38,42.9,38,43,38c0.2,0,0.4-0.1,0.5-0.2
	c0.3-0.2,0.5-0.5,0.5-0.8V26c2.2,0,4-1.8,4-4v-2C48,17.8,46.2,16,44,16z M7,28c-2.8,0-5-2.2-5-5v-4c0-2.8,2.2-5,5-5h2
	c1.8,0,3.4,0,5-0.1v14.2C12.4,28,10.8,28,9,28H7z M42,35.4l-0.4-0.2c-6.9-3.2-13.5-6.2-25.6-7V13.8c12.1-0.8,18.7-3.8,25.6-7L42,6.6
	V17v8V35.4z M46,22c0,1.1-0.9,2-2,2v-6c1.1,0,2,0.9,2,2V22z"/>
</svg>
