<?xml version="1.0" encoding="utf-8"?>
<!-- Generator: Adobe Illustrator 17.0.0, SVG Export Plug-In . SVG Version: 6.00 Build 0)  -->
<!DOCTYPE svg PUBLIC "-//W3C//DTD SVG 1.1//EN" "http://www.w3.org/Graphics/SVG/1.1/DTD/svg11.dtd">
<svg version="1.1" id="Layer_1" xmlns="http://www.w3.org/2000/svg" xmlns:xlink="http://www.w3.org/1999/xlink" x="0px" y="0px"
	 width="48px" height="48px" viewBox="0 0 48 48" enable-background="new 0 0 48 48" xml:space="preserve">
<path d="M32,12c-4.1,0-5.6,0.9-6.7,1.5c-0.1,0.1-0.2,0.1-0.3,0.2V11c0-2.8-2.2-5-5-5h-4c-0.6,0-1,0.4-1,1s0.4,1,1,1h4
	c1.7,0,3,1.3,3,3v2.7c-0.1,0-0.2-0.1-0.3-0.2C21.6,12.9,20.1,12,16,12C9.3,12,4,18.6,4,27c0,7.9,6.1,21,13,21c3.6,0,4.7-0.7,5.6-1.5
	C23,46.2,23.1,46,24,46s1,0.2,1.4,0.5c0.9,0.8,2,1.5,5.6,1.5c6.9,0,13-13.1,13-21C44,18.6,38.7,12,32,12z M31,46
	c-3.1,0-3.7-0.5-4.3-1c-0.6-0.6-1.2-1-2.7-1c-1.5,0-2.1,0.4-2.7,1c-0.5,0.5-1.1,1-4.3,1C11.8,46,6,34.7,6,27c0-7.3,4.4-13,10-13
	c3.5,0,4.7,0.7,5.7,1.3C22.3,15.6,23,16,24,16s1.7-0.4,2.3-0.7c1-0.6,2.2-1.3,5.7-1.3c5.6,0,10,5.7,10,13C42,34.7,36.2,46,31,46z
	 M28,11c5.5,0,10-4.5,10-10c0-0.6-0.4-1-1-1c-5.5,0-10,4.5-10,10C27,10.6,27.4,11,28,11z M35.9,2.1c-0.5,3.6-3.3,6.4-6.9,6.9
	C29.5,5.4,32.4,2.5,35.9,2.1z"/>
</svg>
