<?xml version="1.0" encoding="utf-8"?>
<!-- Generator: Adobe Illustrator 17.0.0, SVG Export Plug-In . SVG Version: 6.00 Build 0)  -->
<!DOCTYPE svg PUBLIC "-//W3C//DTD SVG 1.1//EN" "http://www.w3.org/Graphics/SVG/1.1/DTD/svg11.dtd">
<svg version="1.1" id="Layer_1" xmlns="http://www.w3.org/2000/svg" xmlns:xlink="http://www.w3.org/1999/xlink" x="0px" y="0px"
	 width="48px" height="48px" viewBox="0 0 48 48" enable-background="new 0 0 48 48" xml:space="preserve">
<path d="M2.3,21.2C2.5,21.1,2.8,21,3,21c0.3,0,0.6,0.1,0.8,0.3l20.2,23V1c0-0.6,0.4-1,1-1s1,0.4,1,1v43.3l20.2-23
	c0.4-0.4,1-0.5,1.4-0.1s0.5,1,0.1,1.4l-22,25l0,0C25.5,47.9,25.3,48,25,48s-0.5-0.1-0.7-0.3l0,0l-22-25C1.9,22.2,1.9,21.6,2.3,21.2z
	"/>
</svg>
