<?xml version="1.0" encoding="utf-8"?>
<!-- Generator: Adobe Illustrator 20.1.0, SVG Export Plug-In . SVG Version: 6.00 Build 0)  -->
<svg version="1.1" id="Layer_1" xmlns="http://www.w3.org/2000/svg" xmlns:xlink="http://www.w3.org/1999/xlink" x="0px" y="0px"
	 viewBox="0 0 48 48" style="enable-background:new 0 0 48 48;" xml:space="preserve">
<path d="M45,40c-0.4,0-0.7-0.2-0.9-0.5C37.4,26.9,24.3,29,21,29.8V37c0,0.4-0.2,0.7-0.6,0.9c-0.3,0.2-0.8,0.1-1.1-0.1l-17-14
	C2.1,23.6,2,23.3,2,23s0.1-0.6,0.4-0.8l17-14c0.3-0.2,0.7-0.3,1.1-0.1C20.8,8.3,21,8.6,21,9v6.9c3.1-0.2,11.9-0.1,18.2,5.6
	c4.5,4,6.8,9.9,6.8,17.5c0,0.5-0.3,0.9-0.8,1C45.2,40,45.1,40,45,40z M26.4,27.2c5.2,0,12.3,1.4,17.4,8c-0.6-5.2-2.6-9.4-5.9-12.3
	c-7-6.2-17.7-5-17.8-5c-0.3,0-0.6-0.1-0.8-0.2C19.1,17.6,19,17.3,19,17v-5.9L4.6,23L19,34.9V29c0-0.4,0.3-0.8,0.7-1
	C19.8,28,22.6,27.2,26.4,27.2z"/>
</svg>
