<?xml version="1.0" encoding="utf-8"?>
<!-- Generator: Adobe Illustrator 17.0.0, SVG Export Plug-In . SVG Version: 6.00 Build 0)  -->
<!DOCTYPE svg PUBLIC "-//W3C//DTD SVG 1.1//EN" "http://www.w3.org/Graphics/SVG/1.1/DTD/svg11.dtd">
<svg version="1.1" id="Layer_1" xmlns="http://www.w3.org/2000/svg" xmlns:xlink="http://www.w3.org/1999/xlink" x="0px" y="0px"
	 width="48px" height="48px" viewBox="0 0 48 48" enable-background="new 0 0 48 48" xml:space="preserve">
<path d="M48,25c0,0.6-0.4,1-1,1H3.7l23,20.2c0.4,0.4,0.5,1,0.1,1.4C26.6,47.9,26.3,48,26,48c-0.2,0-0.5-0.1-0.7-0.2l-25-22
	c0,0,0,0,0,0c-0.1-0.1-0.1-0.2-0.2-0.2c0,0,0-0.1-0.1-0.1C0,25.3,0,25.1,0,25c0-0.1,0-0.3,0.1-0.4c0,0,0-0.1,0.1-0.1
	c0-0.1,0.1-0.2,0.2-0.2c0,0,0,0,0,0l25-22c0.4-0.4,1-0.3,1.4,0.1c0.4,0.4,0.3,1-0.1,1.4L3.7,24H47C47.6,24,48,24.4,48,25z"/>
</svg>
