<?xml version="1.0" encoding="utf-8"?>
<!-- Generator: Adobe Illustrator 20.1.0, SVG Export Plug-In . SVG Version: 6.00 Build 0)  -->
<svg version="1.1" id="Layer_1" xmlns="http://www.w3.org/2000/svg" xmlns:xlink="http://www.w3.org/1999/xlink" x="0px" y="0px"
	 viewBox="0 0 48 48" style="enable-background:new 0 0 48 48;" xml:space="preserve">
<path d="M14.6,22l-6.4,7.7C8,29.9,7.7,30,7.4,30c0,0,0,0-0.1,0c-0.3,0-0.6-0.2-0.8-0.4L1,21.3c-0.3-0.5-0.2-1.1,0.3-1.4
	c0.5-0.3,1.1-0.2,1.4,0.3l3.2,4.8c-0.1-3.3,0.8-6.7,2.6-9.7c2.6-4.4,6.9-7.6,11.8-8.8c6.5-1.5,13.2,0.6,17.6,5.6
	c0.4,0.4,0.3,1-0.1,1.4c-0.4,0.4-1,0.3-1.4-0.1c-3.9-4.4-9.9-6.3-15.7-5c-4.4,1-8.2,3.9-10.6,7.8C8.3,19.5,7.5,23.1,8,26.7l5-6
	c0.4-0.4,1-0.5,1.4-0.1C14.9,20.9,15,21.6,14.6,22z M47.8,28.8l-5.6-8.3c-0.2-0.3-0.5-0.4-0.8-0.4c-0.3,0-0.6,0.1-0.8,0.4l-0.1,0.1
	c0,0,0,0,0,0L34.3,28c-0.4,0.4-0.3,1.1,0.1,1.4c0.4,0.4,1.1,0.3,1.4-0.1l4.8-5.8c0.2,7.2-5.1,14.3-12.5,16c-5.4,1.3-11-0.3-14.9-4.2
	c-0.4-0.4-1-0.4-1.4,0c-0.4,0.4-0.4,1,0,1.4c3.4,3.4,7.9,5.2,12.6,5.2c1.4,0,2.8-0.2,4.2-0.5c8.1-1.9,13.8-9.1,14-16.9l3.6,5.3
	c0.2,0.3,0.5,0.4,0.8,0.4c0.2,0,0.4-0.1,0.6-0.2C48,29.8,48.1,29.2,47.8,28.8z"/>
</svg>
