<?xml version="1.0" encoding="utf-8"?>
<!-- Generator: Adobe Illustrator 20.1.0, SVG Export Plug-In . SVG Version: 6.00 Build 0)  -->
<svg version="1.1" id="Layer_1" xmlns="http://www.w3.org/2000/svg" xmlns:xlink="http://www.w3.org/1999/xlink" x="0px" y="0px"
	 viewBox="0 0 48 48" style="enable-background:new 0 0 48 48;" xml:space="preserve">
<path d="M39,48c-0.2,0-0.4-0.1-0.6-0.2L24,37.2L9.6,47.8c-0.3,0.2-0.7,0.3-1,0.1C8.2,47.7,8,47.4,8,47V1c0-0.6,0.4-1,1-1h30
	c0.6,0,1,0.4,1,1v46c0,0.4-0.2,0.7-0.5,0.9C39.3,48,39.2,48,39,48z M24,35c0.2,0,0.4,0.1,0.6,0.2L38,45V2H10v43l13.4-9.8
	C23.6,35.1,23.8,35,24,35z"/>
</svg>
