<?xml version="1.0" encoding="utf-8"?>
<!-- Generator: Adobe Illustrator 20.1.0, SVG Export Plug-In . SVG Version: 6.00 Build 0)  -->
<svg version="1.1" id="Layer_1" xmlns="http://www.w3.org/2000/svg" xmlns:xlink="http://www.w3.org/1999/xlink" x="0px" y="0px"
	 viewBox="0 0 48 48" style="enable-background:new 0 0 48 48;" xml:space="preserve">
<path d="M46,20h1c0.6,0,1-0.4,1-1s-0.4-1-1-1h-7v-2h3c0.6,0,1-0.4,1-1s-0.4-1-1-1H29v-2.6l3.7-3.7C32.9,7.5,33,7.3,33,7
	s-0.1-0.5-0.3-0.7L28.3,2H47c0.6,0,1-0.4,1-1s-0.4-1-1-1H1C0.4,0,0,0.4,0,1s0.4,1,1,1h18.7l-4.4,4.3C15.1,6.5,15,6.7,15,7
	s0.1,0.5,0.3,0.7l3.7,3.7V14H5c-0.6,0-1,0.4-1,1s0.4,1,1,1h3v2H1c-0.6,0-1,0.4-1,1s0.4,1,1,1h1v18H1c-0.6,0-1,0.4-1,1s0.4,1,1,1h6
	c-0.6,0.8-1,1.9-1,3c0,1.1,0.4,2.1,1,2.9H1c-0.6,0-1,0.4-1,1s0.4,1,1,1h9.4c0.2,0,0.4,0.1,0.6,0.1s0.4,0,0.6-0.1h24.8
	c0.2,0,0.4,0.1,0.6,0.1s0.4,0,0.6-0.1H47c0.6,0,1-0.4,1-1s-0.4-1-1-1h-6c0.6-0.8,1-1.8,1-2.9c0-1.1-0.4-2.2-1-3h6c0.6,0,1-0.4,1-1
	s-0.4-1-1-1h-1V20z M44,34h-8V20h8V34z M28,42h-8v-2h8V42z M18,42h-2.1c-0.2-0.7-0.5-1.4-0.9-2h3V42z M19,44h10h3.1
	c0.1,0.7,0.5,1.4,0.9,1.9H15c0.4-0.6,0.7-1.2,0.9-1.9H19z M30,42v-2h3c-0.4,0.6-0.8,1.3-0.9,2H30z M29,38H19h-5V20h20v18H29z
	 M22.6,2h2.8l5.2,5l-3,3h-7.2l-3-3L22.6,2z M21,12h6v2h-6V12z M10,16h10h8h10v2H10V16z M12,20v14H4V20H12z M4,36h8v2H4V36z M8,43
	c0-1.7,1.3-3,3-3c1.3,0,2.4,0.8,2.8,2H11c-0.6,0-1,0.4-1,1s0.4,1,1,1h2.8c-0.3,1-1.2,1.7-2.2,1.9h-1.2C9,45.7,8,44.4,8,43z M40,43
	c0,1.4-1,2.7-2.4,2.9h-1.2c-1-0.2-1.9-1-2.2-1.9H37c0.6,0,1-0.4,1-1s-0.4-1-1-1h-2.8c0.4-1.2,1.5-2,2.8-2C38.7,40,40,41.3,40,43z
	 M36,38v-2h8v2H36z M31,22H17c-0.6,0-1,0.4-1,1v8c0,0.6,0.4,1,1,1h14c0.6,0,1-0.4,1-1v-8C32,22.4,31.6,22,31,22z M30,30H18v-6h12V30
	z"/>
</svg>
