<?xml version="1.0" encoding="utf-8"?>
<!-- Generator: Adobe Illustrator 17.0.0, SVG Export Plug-In . SVG Version: 6.00 Build 0)  -->
<!DOCTYPE svg PUBLIC "-//W3C//DTD SVG 1.1//EN" "http://www.w3.org/Graphics/SVG/1.1/DTD/svg11.dtd">
<svg version="1.1" id="Layer_1" xmlns="http://www.w3.org/2000/svg" xmlns:xlink="http://www.w3.org/1999/xlink" x="0px" y="0px"
	 width="48px" height="48px" viewBox="0 0 48 48" enable-background="new 0 0 48 48" xml:space="preserve">
<path d="M42.9,12h-3.3l-1.7-3.4c0,0,0-0.1-0.1-0.1C36.8,6.9,35.4,6,34,6H24c-1.4,0-2.8,0.9-3.8,2.4L17.5,12H12v-1c0-1.6-1.5-3-3.1-3
	H7c-1.6,0-2.9,1.4-2.9,3l0,1.1c-3.3,0.4-4,2.5-4,4.4v20.8c0,3,1.9,4.8,5.1,4.8h37.8c3.2,0,5.1-1.7,5.1-4.8V16.4
	C48,14.4,47.1,12,42.9,12z M7,10h1.9c0.6,0,1.1,0.5,1.1,1v1H6l0-1C6.1,10.5,6.5,10,7,10z M46,37.2c0,1.9-1,2.8-3.1,2.8H5.1
	C3,40,2,39.1,2,37.2V16.4C2,15,2.5,14,5,14h13c0.3,0,0.6-0.1,0.8-0.4l3-4C22.2,9,23,8,24,8h10c1,0,1.7,0.9,2.1,1.5l2,3.9
	c0.2,0.3,0.5,0.6,0.9,0.6h3.9c2.9,0,3.1,1.2,3.1,2.4V37.2z M29,14c-6.6,0-12,5.4-12,12c0,6.6,5.4,12,12,12c6.6,0,12-5.4,12-12
	C41,19.4,35.6,14,29,14z M29,36c-5.5,0-10-4.5-10-10c0-5.5,4.5-10,10-10c5.5,0,10,4.5,10,10C39,31.5,34.5,36,29,36z M29,19
	c-3.9,0-7,3.1-7,7c0,3.9,3.1,7,7,7s7-3.1,7-7C36,22.1,32.9,19,29,19z M29,31c-2.8,0-5-2.2-5-5s2.2-5,5-5s5,2.2,5,5S31.8,31,29,31z
	 M8,16c-2.2,0-4,1.8-4,4s1.8,4,4,4s4-1.8,4-4S10.2,16,8,16z M8,22c-1.1,0-2-0.9-2-2s0.9-2,2-2s2,0.9,2,2S9.1,22,8,22z"/>
</svg>
