<?xml version="1.0" encoding="utf-8"?>
<!-- Generator: Adobe Illustrator 17.0.0, SVG Export Plug-In . SVG Version: 6.00 Build 0)  -->
<!DOCTYPE svg PUBLIC "-//W3C//DTD SVG 1.1//EN" "http://www.w3.org/Graphics/SVG/1.1/DTD/svg11.dtd">
<svg version="1.1" id="Layer_1" xmlns="http://www.w3.org/2000/svg" xmlns:xlink="http://www.w3.org/1999/xlink" x="0px" y="0px"
	 width="48px" height="48px" viewBox="0 0 48 48" enable-background="new 0 0 48 48" xml:space="preserve">
<path d="M35.7,30.3c-0.1-0.1-0.2-0.2-0.3-0.2C35.3,30,35.1,30,35,30H6.5l3.2-8h8.2c0.6,0,1-0.4,1-1s-0.4-1-1-1H9
	c-0.4,0-0.8,0.2-0.9,0.6l-3.9,9.8l-3.9,3.9C0.1,34.5,0,34.7,0,35v8c0,0.6,0.4,1,1,1h1v3c0,0.6,0.4,1,1,1h6c0.6,0,1-0.4,1-1v-3h20v3
	c0,0.6,0.4,1,1,1h6c0.6,0,1-0.4,1-1v-3h1c0.6,0,1-0.4,1-1v-8c0-0.3-0.1-0.5-0.3-0.7L35.7,30.3z M8,46H4v-2h4V46z M36,46h-4v-2h4V46z
	 M37,42h-6H9H3H2v-2h8c0.6,0,1-0.4,1-1s-0.4-1-1-1H2v-2.6L5.4,32h29.2l3.4,3.4V38h-8c-0.6,0-1,0.4-1,1s0.4,1,1,1h8v2H37z M34,0
	c-7.7,0-14,6.3-14,14s6.3,14,14,14s14-6.3,14-14S41.7,0,34,0z M34,26c-6.6,0-12-5.4-12-12S27.4,2,34,2s12,5.4,12,12S40.6,26,34,26z
	 M35,6h-4c-0.6,0-1,0.4-1,1v14c0,0.6,0.4,1,1,1s1-0.4,1-1v-5h3c2.8,0,5-2.2,5-5S37.8,6,35,6z M35,14h-3V8h3c1.7,0,3,1.3,3,3
	S36.7,14,35,14z"/>
</svg>
