<?xml version="1.0" encoding="utf-8"?>
<!-- Generator: Adobe Illustrator 17.0.0, SVG Export Plug-In . SVG Version: 6.00 Build 0)  -->
<!DOCTYPE svg PUBLIC "-//W3C//DTD SVG 1.1//EN" "http://www.w3.org/Graphics/SVG/1.1/DTD/svg11.dtd">
<svg version="1.1" id="Layer_1" xmlns="http://www.w3.org/2000/svg" xmlns:xlink="http://www.w3.org/1999/xlink" x="0px" y="0px"
	 width="48px" height="48px" viewBox="0 0 48 48" enable-background="new 0 0 48 48" xml:space="preserve">
<path d="M24,0C10.8,0,0,10.8,0,24s10.8,24,24,24s24-10.8,24-24S37.2,0,24,0z M24,46C11.9,46,2,36.1,2,24S11.9,2,24,2s22,9.9,22,22
	S36.1,46,24,46z M35.7,34.3c0.4,0.4,0.4,1,0.1,1.4C35.5,35.9,35.3,36,35,36c-0.2,0-0.5-0.1-0.7-0.3l-12-11C22.1,24.5,22,24.3,22,24
	V13c0-0.6,0.4-1,1-1s1,0.4,1,1v10.6L35.7,34.3z"/>
</svg>
