<?xml version="1.0" encoding="utf-8"?>
<!-- Generator: Adobe Illustrator 17.0.0, SVG Export Plug-In . SVG Version: 6.00 Build 0)  -->
<!DOCTYPE svg PUBLIC "-//W3C//DTD SVG 1.1//EN" "http://www.w3.org/Graphics/SVG/1.1/DTD/svg11.dtd">
<svg version="1.1" id="Layer_1" xmlns="http://www.w3.org/2000/svg" xmlns:xlink="http://www.w3.org/1999/xlink" x="0px" y="0px"
	 width="48px" height="48px" viewBox="0 0 48 48" enable-background="new 0 0 48 48" xml:space="preserve">
<path d="M41,2c-3.9,0-7,3.1-7,7c0,0.3,0,0.7,0.1,1H15.5L8.8,2.3C8.6,2.1,8.3,2,8,2H0v2h7.5l5.2,6H9c-0.4,0-0.8,0.2-0.9,0.6
	C7.9,11,8,11.4,8.3,11.7L24,27.4V44h-7c-0.6,0-1,0.4-1,1s0.4,1,1,1h16c0.6,0,1-0.4,1-1s-0.4-1-1-1h-7V27.4l12.1-12.1
	C39,15.8,40,16,41,16c3.9,0,7-3.1,7-7S44.9,2,41,2z M38.6,12L25,25.6L11.4,12H38.6z M41,14c-0.5,0-0.9-0.1-1.4-0.2l2.1-2.1
	c0.3-0.3,0.4-0.7,0.2-1.1C41.8,10.2,41.4,10,41,10h-4.9C36,9.7,36,9.3,36,9c0-2.8,2.2-5,5-5s5,2.2,5,5S43.8,14,41,14z"/>
</svg>
