<?xml version="1.0" encoding="utf-8"?>
<!-- Generator: Adobe Illustrator 20.1.0, SVG Export Plug-In . SVG Version: 6.00 Build 0)  -->
<svg version="1.1" id="Layer_1" xmlns="http://www.w3.org/2000/svg" xmlns:xlink="http://www.w3.org/1999/xlink" x="0px" y="0px"
	 viewBox="0 0 48 48" style="enable-background:new 0 0 48 48;" xml:space="preserve">
<path d="M23,26H5c-1.7,0-3-1.3-3-3V10h32v5c0,0.6,0.4,1,1,1s1-0.4,1-1V7c0-2.8-2.2-5-5-5H5C2.2,2,0,4.2,0,7v16c0,2.8,2.2,5,5,5h18
	c0.6,0,1-0.4,1-1S23.5,26,23,26z M5,4h26c1.7,0,3,1.3,3,3v1H2V7C2,5.3,3.3,4,5,4z M17,14H7c-0.6,0-1-0.4-1-1s0.4-1,1-1h10
	c0.6,0,1,0.4,1,1S17.5,14,17,14z M31,14h-4c-0.6,0-1-0.4-1-1s0.4-1,1-1h4c0.6,0,1,0.4,1,1S31.5,14,31,14z M13,16c0.6,0,1,0.4,1,1
	s-0.4,1-1,1H7c-0.6,0-1-0.4-1-1s0.4-1,1-1H13z M48,28.1v5c0,0.6-0.4,1-1,1h-5c-0.6,0-1-0.4-1-1s0.4-1,1-1h3.3c-1.5-2.4-4.3-4-7.3-4
	c-3.4,0-6.4,2.1-7.5,5.3c-0.1,0.4-0.5,0.7-0.9,0.7c-0.1,0-0.2,0-0.3-0.1c-0.5-0.2-0.8-0.8-0.6-1.3c1.4-4,5.2-6.7,9.4-6.7
	c3.1,0,6,1.4,8,3.6v-1.6c0-0.6,0.4-1,1-1S48,27.5,48,28.1z M47.4,39.4c-1.4,4-5.2,6.7-9.4,6.7c-3.1,0-6-1.4-8-3.5v0.5
	c0,0.6-0.4,1-1,1s-1-0.4-1-1v-4c0-0.6,0.4-1,1-1h4c0.6,0,1,0.4,1,1s-0.4,1-1,1h-2.4c1.5,2.4,4.3,4,7.4,4c3.4,0,6.4-2.1,7.5-5.3
	c0.2-0.5,0.8-0.8,1.3-0.6C47.3,38.3,47.6,38.9,47.4,39.4z"/>
</svg>
