<?xml version="1.0" encoding="utf-8"?>
<!-- Generator: Adobe Illustrator 17.0.0, SVG Export Plug-In . SVG Version: 6.00 Build 0)  -->
<!DOCTYPE svg PUBLIC "-//W3C//DTD SVG 1.1//EN" "http://www.w3.org/Graphics/SVG/1.1/DTD/svg11.dtd">
<svg version="1.1" id="Layer_1" xmlns="http://www.w3.org/2000/svg" xmlns:xlink="http://www.w3.org/1999/xlink" x="0px" y="0px"
	 width="48px" height="48px" viewBox="0 0 48 48" enable-background="new 0 0 48 48" xml:space="preserve">
<path fill="#010101" d="M43,10H5c-2.8,0-5,2.2-5,5v20c0,2.8,2.2,5,5,5h38c2.8,0,5-2.2,5-5V15C48,12.2,45.8,10,43,10z M5,12h38
	c1.7,0,3,1.3,3,3v3H2v-3C2,13.3,3.3,12,5,12z M43,38H5c-1.7,0-3-1.3-3-3V20h44v15C46,36.7,44.7,38,43,38z M42,25c0,0.6-0.4,1-1,1h-6
	c-0.6,0-1-0.4-1-1s0.4-1,1-1h6C41.6,24,42,24.4,42,25z M24,25c0,0.6-0.4,1-1,1H7c-0.6,0-1-0.4-1-1s0.4-1,1-1h16
	C23.6,24,24,24.4,24,25z M14,29c0,0.6-0.4,1-1,1H7c-0.6,0-1-0.4-1-1s0.4-1,1-1h6C13.6,28,14,28.4,14,29z"/>
</svg>
