<?xml version="1.0" encoding="utf-8"?>
<!-- Generator: Adobe Illustrator 17.0.0, SVG Export Plug-In . SVG Version: 6.00 Build 0)  -->
<!DOCTYPE svg PUBLIC "-//W3C//DTD SVG 1.1//EN" "http://www.w3.org/Graphics/SVG/1.1/DTD/svg11.dtd">
<svg version="1.1" id="Layer_1" xmlns="http://www.w3.org/2000/svg" xmlns:xlink="http://www.w3.org/1999/xlink" x="0px" y="0px"
	 width="48px" height="48px" viewBox="0 0 48 48" enable-background="new 0 0 48 48" xml:space="preserve">
<path d="M44,29c2.2,0,4-1.8,4-4c0-2.2-1.8-4-4-4s-4,1.8-4,4c0,0.4,0.1,0.7,0.2,1.1l-7.1,4.1c-0.7-0.7-1.7-1.2-2.8-1.2
	c-1.9,0-3.4,1.3-3.9,3h-7.1c-0.4-1.7-2-3-3.9-3c-2.2,0-4,1.8-4,4c0,0.4,0.1,0.8,0.2,1.1L2,40.5v-16l12.2-7.4
	c0.7,0.7,1.7,1.1,2.8,1.1c1.4,0,2.7-0.7,3.4-1.9l7.9,2.5c0,0,0,0.1,0,0.1c0,2.2,1.8,4,4,4s4-1.8,4-4c0-0.9-0.3-1.8-0.8-2.4l6.8-8.6
	c0.5,0.3,1.1,0.4,1.8,0.4c2.2,0,4-1.8,4-4s-1.8-4-4-4s-4,1.8-4,4c0,0.8,0.3,1.6,0.7,2.2l-6.9,8.7c-0.5-0.2-1-0.3-1.6-0.3
	c-1.5,0-2.7,0.8-3.4,2L21,14.5c0-0.1,0-0.2,0-0.2c0-2.2-1.8-4-4-4s-4,1.8-4,4c0,0.4,0.1,0.8,0.2,1.1L2,22.2V2c0-0.6-0.4-1-1-1
	S0,1.4,0,2v45c0,0.6,0.4,1,1,1h45c0.6,0,1-0.4,1-1s-0.4-1-1-1H2v-3.1l10.7-7c0.7,0.7,1.7,1.1,2.8,1.1c1.9,0,3.4-1.3,3.9-3h7.1
	c0.4,1.7,2,3,3.9,3c2.2,0,4-1.8,4-4c0-0.4-0.1-0.7-0.2-1.1l7.1-4.1C41.9,28.5,42.9,29,44,29z M44,2.4c1.1,0,2,0.9,2,2s-0.9,2-2,2
	s-2-0.9-2-2S42.9,2.4,44,2.4z M32.3,17c1.1,0,2,0.9,2,2s-0.9,2-2,2s-2-0.9-2-2S31.1,17,32.3,17z M17,12.2c1.1,0,2,0.9,2,2
	s-0.9,2-2,2s-2-0.9-2-2S15.9,12.2,17,12.2z M15.4,35c-1.1,0-2-0.9-2-2s0.9-2,2-2s2,0.9,2,2S16.5,35,15.4,35z M30.3,35
	c-1.1,0-2-0.9-2-2s0.9-2,2-2s2,0.9,2,2S31.4,35,30.3,35z M44,23c1.1,0,2,0.9,2,2c0,1.1-0.9,2-2,2s-2-0.9-2-2C42,23.9,42.9,23,44,23z
	"/>
</svg>
