<?xml version="1.0" encoding="utf-8"?>
<!-- Generator: Adobe Illustrator 17.0.0, SVG Export Plug-In . SVG Version: 6.00 Build 0)  -->
<!DOCTYPE svg PUBLIC "-//W3C//DTD SVG 1.1//EN" "http://www.w3.org/Graphics/SVG/1.1/DTD/svg11.dtd">
<svg version="1.1" id="Layer_1" xmlns="http://www.w3.org/2000/svg" xmlns:xlink="http://www.w3.org/1999/xlink" x="0px" y="0px"
	 width="48px" height="48px" viewBox="0 0 48 48" enable-background="new 0 0 48 48" xml:space="preserve">
<path d="M48,20V4.4c0-0.4-0.3-0.8-0.6-0.9c-0.4-0.1-0.8,0-1.1,0.3L33.8,18l-14.5-4.7c-0.3-0.1-0.5-0.1-0.8,0.1L2,22.3V2
	c0-0.6-0.4-1-1-1S0,1.4,0,2v21.9c0,0,0,0,0,0v23c0,0.6,0.4,1,1,1h46c0.6,0,1-0.4,1-1V20C48,20,48,20,48,20z M2,36.7L17.4,28h12.8
	c0.1,0,0.3,0,0.4-0.1L46,21.5v9.7l-15.8,3.5l-13-0.7c-0.2,0-0.4,0-0.6,0.2L2,44.2V36.7z M19.1,15.3l14.7,4.8c0.4,0.1,0.8,0,1.1-0.3
	L46,7v12.3L30.1,26H17.2c-0.2,0-0.3,0-0.5,0.1L2,34.4v-9.9L19.1,15.3z M2.9,46l14.6-10l12.8,0.7c0.1,0,0.2,0,0.3,0L46,33.2V46H2.9z"
	/>
</svg>
