<?xml version="1.0" encoding="utf-8"?>
<!-- Generator: Adobe Illustrator 20.1.0, SVG Export Plug-In . SVG Version: 6.00 Build 0)  -->
<svg version="1.1" id="Layer_1" xmlns="http://www.w3.org/2000/svg" xmlns:xlink="http://www.w3.org/1999/xlink" x="0px" y="0px"
	 viewBox="0 0 48 48" style="enable-background:new 0 0 48 48;" xml:space="preserve">
<path d="M41.7,8.3l-8-8C33.5,0.1,33.3,0,33,0H7C6.4,0,6,0.4,6,1v46c0,0.6,0.4,1,1,1h34c0.6,0,1-0.4,1-1V9C42,8.7,41.9,8.5,41.7,8.3z
	 M40,46H8V2h14v3c0,0.6,0.4,1,1,1h1v8h-4v-2h2v-2h-2V5c0-0.6-0.4-1-1-1s-1,0.4-1,1v10c0,0.6,0.4,1,1,1h6c0.6,0,1-0.4,1-1V5
	c0-0.6-0.4-1-1-1h-1V2h8.6L40,9.4V46z M23,20h-2c-0.6,0-1-0.4-1-1s0.4-1,1-1h2c0.6,0,1,0.4,1,1S23.6,20,23,20z M21,22h2
	c0.6,0,1,0.4,1,1s-0.4,1-1,1h-2c-0.6,0-1-0.4-1-1S20.4,22,21,22z M21,26h2c0.6,0,1,0.4,1,1s-0.4,1-1,1h-2c-0.6,0-1-0.4-1-1
	S20.4,26,21,26z M21,30h2c0.6,0,1,0.4,1,1s-0.4,1-1,1h-2c-0.6,0-1-0.4-1-1S20.4,30,21,30z M21,34h2c0.6,0,1,0.4,1,1s-0.4,1-1,1h-2
	c-0.6,0-1-0.4-1-1S20.4,34,21,34z M21,38h2c0.6,0,1,0.4,1,1s-0.4,1-1,1h-2c-0.6,0-1-0.4-1-1S20.4,38,21,38z M21,42h2
	c0.6,0,1,0.4,1,1s-0.4,1-1,1h-2c-0.6,0-1-0.4-1-1S20.4,42,21,42z M25,22h-2c-0.6,0-1-0.4-1-1s0.4-1,1-1h2c0.6,0,1,0.4,1,1
	S25.6,22,25,22z M23,24h2c0.6,0,1,0.4,1,1c0,0.6-0.4,1-1,1h-2c-0.6,0-1-0.4-1-1C22,24.4,22.4,24,23,24z M23,28h2c0.6,0,1,0.4,1,1
	s-0.4,1-1,1h-2c-0.6,0-1-0.4-1-1S22.4,28,23,28z M23,32h2c0.6,0,1,0.4,1,1s-0.4,1-1,1h-2c-0.6,0-1-0.4-1-1S22.4,32,23,32z M23,36h2
	c0.6,0,1,0.4,1,1s-0.4,1-1,1h-2c-0.6,0-1-0.4-1-1S22.4,36,23,36z M23,40h2c0.6,0,1,0.4,1,1s-0.4,1-1,1h-2c-0.6,0-1-0.4-1-1
	S22.4,40,23,40z"/>
</svg>
