<?xml version="1.0" encoding="utf-8"?>
<!-- Generator: Adobe Illustrator 20.1.0, SVG Export Plug-In . SVG Version: 6.00 Build 0)  -->
<svg version="1.1" id="Layer_1" xmlns="http://www.w3.org/2000/svg" xmlns:xlink="http://www.w3.org/1999/xlink" x="0px" y="0px"
	 viewBox="0 0 48 48" style="enable-background:new 0 0 48 48;" xml:space="preserve">
<path d="M42,8v11c0,0.6,0.4,1,1,1s1-0.4,1-1V8c0-2.2-1.8-4-4-4H4C1.8,4,0,5.8,0,8v22c0,2.2,1.8,4,4,4h16c0.6,0,1-0.4,1-1s-0.4-1-1-1
	H4c-1.1,0-2-0.9-2-2V8c0-0.2,0-0.4,0.1-0.6l19.3,15.4c0.2,0.1,0.4,0.2,0.6,0.2s0.4-0.1,0.6-0.2L41.9,7.4C42,7.6,42,7.8,42,8z
	 M22,20.7L3.6,6C3.8,6,3.9,6,4,6h36c0.1,0,0.2,0,0.4,0L22,20.7z M47.7,44.3l-6.3-6.3c1.2-1.5,1.9-3.3,1.9-5.3c0-4.7-3.9-8.6-8.6-8.6
	c-4.7,0-8.6,3.9-8.6,8.6s3.9,8.6,8.6,8.6c2,0,3.9-0.7,5.3-1.9l6.3,6.3c0.2,0.2,0.5,0.3,0.7,0.3s0.5-0.1,0.7-0.3
	C48.1,45.3,48.1,44.7,47.7,44.3z M28,32.6c0-3.6,3-6.6,6.6-6.6c3.6,0,6.6,3,6.6,6.6c0,3.6-3,6.6-6.6,6.6C31,39.2,28,36.3,28,32.6z"
	/>
</svg>
