<?xml version="1.0" encoding="utf-8"?>
<!-- Generator: Adobe Illustrator 17.0.0, SVG Export Plug-In . SVG Version: 6.00 Build 0)  -->
<!DOCTYPE svg PUBLIC "-//W3C//DTD SVG 1.1//EN" "http://www.w3.org/Graphics/SVG/1.1/DTD/svg11.dtd">
<svg version="1.1" id="Layer_1" xmlns="http://www.w3.org/2000/svg" xmlns:xlink="http://www.w3.org/1999/xlink" x="0px" y="0px"
	 width="48px" height="48px" viewBox="0 0 48 48" enable-background="new 0 0 48 48" xml:space="preserve">
<path d="M47,35.4v3.8c0,3.7-3,6.7-6.7,6.7H7.7C4,46,1,43,1,39.3v-3.8c0-0.6,0.4-1,1-1s1,0.4,1,1v3.8C3,41.9,5.1,44,7.7,44h32.5
	c2.6,0,4.7-2.1,4.7-4.7v-3.8c0-0.6,0.4-1,1-1S47,34.9,47,35.4z M10.7,15.7L23,3.4v31.8c0,0.6,0.4,1,1,1s1-0.4,1-1V3.4l12.3,12.3
	c0.2,0.2,0.5,0.3,0.7,0.3s0.5-0.1,0.7-0.3c0.4-0.4,0.4-1,0-1.4l-14-14c-0.1-0.1-0.2-0.2-0.3-0.2c-0.2-0.1-0.5-0.1-0.8,0
	c-0.1,0.1-0.2,0.1-0.3,0.2l-14,14c-0.4,0.4-0.4,1,0,1.4S10.3,16.1,10.7,15.7z"/>
</svg>
