<?xml version="1.0" encoding="utf-8"?>
<!-- Generator: Adobe Illustrator 17.0.0, SVG Export Plug-In . SVG Version: 6.00 Build 0)  -->
<!DOCTYPE svg PUBLIC "-//W3C//DTD SVG 1.1//EN" "http://www.w3.org/Graphics/SVG/1.1/DTD/svg11.dtd">
<svg version="1.1" id="Layer_1" xmlns="http://www.w3.org/2000/svg" xmlns:xlink="http://www.w3.org/1999/xlink" x="0px" y="0px"
	 width="48px" height="48px" viewBox="0 0 48 48" enable-background="new 0 0 48 48" xml:space="preserve">
<path d="M47,22h-3c0-11-9-20-20-20V1c0-0.6-0.4-1-1-1s-1,0.4-1,1v1.1C12,3.1,4,11.6,4,22H1.1c-0.6,0-1,0.4-1,1s0.4,1,1,1H5h4.9
	c-0.2,0.1-0.4,0.3-0.6,0.4c-0.6,0.6-0.6,1.6,0,2.2c3.4,3.8,2.7,10.6,2.5,12l-7,7.7c-0.3,0.3-0.3,0.7-0.2,1.1C4.8,47.8,5.2,48,5.6,48
	h13.1c0.3,0,0.5-0.1,0.7-0.3L22,45c0,0,0,0,0,0l17.2-17.2c0.5-0.5,0.7-1.3,0.3-2.1c-0.3-0.7-1-1.4-2.2-1.8h5.5H47c0.6,0,1-0.4,1-1
	S47.5,22,47,22z M18.3,46H7.8l5.1-5.6l0.7,0.4l6.1,3.7L18.3,46z M37.7,26.6L21.2,43.1l-7.4-4.5c0.3-2.1,0.7-8.7-2.8-12.9
	c0.1,0,0.2-0.1,0.3-0.1c1,0,3.6,1.4,6.5,6.7c0.7,1.2,1.8,1.9,3.2,1.9c0.9,0,1.9-0.3,2.8-0.8c1.4-0.8,3-2.2,4.6-3.4
	c2.1-1.7,4.2-3.5,5.8-3.9c0.5-0.1,1.1-0.2,1.5-0.2C37.1,25.8,37.6,26.3,37.7,26.6z M33.8,24c-2,0.5-4.2,2.4-6.6,4.3
	c-1.5,1.2-3,2.5-4.3,3.2c-0.6,0.4-1.3,0.6-1.8,0.6c-0.7,0-1.1-0.3-1.4-0.8c-2.1-3.8-4.4-6.4-6.5-7.3h20.7C33.9,24,33.8,24,33.8,24z
	 M6,22C6,12.1,14,4,24,4s18,8.1,18,18H6z M25,8c0,0.6-0.4,1-1,1c-5.8,0-10.9,3.7-12.6,9.2c-0.1,0.4-0.5,0.7-1,0.7
	c-0.1,0-0.2,0-0.3,0c-0.5-0.2-0.8-0.7-0.6-1.3C11.5,11.3,17.3,7,24,7C24.5,7,25,7.4,25,8z"/>
</svg>
