<?xml version="1.0" encoding="utf-8"?>
<!-- Generator: Adobe Illustrator 20.1.0, SVG Export Plug-In . SVG Version: 6.00 Build 0)  -->
<svg version="1.1" id="Layer_1" xmlns="http://www.w3.org/2000/svg" xmlns:xlink="http://www.w3.org/1999/xlink" x="0px" y="0px"
	 viewBox="0 0 48 48" style="enable-background:new 0 0 48 48;" xml:space="preserve">
<path d="M47,24.1h-8c-0.6,0-1,0.4-1,1v1h-2v-21c0-0.6-0.4-1-1-1H7c-0.6,0-1,0.4-1,1V30c-2-0.2-3.8,0.5-5.7,2.5C0.1,32.7,0,33,0,33.3
	c0.1,0.3,0.3,0.6,0.5,0.7c4.1,2,7.3,3.7,9.8,5.1c6.2,3.3,9,4.8,12.3,4.8c2.7,0,5.6-1,10.8-2.8c1.3-0.5,2.8-1,4.5-1.6v1.5
	c0,0.6,0.4,1,1,1h8c0.6,0,1-0.4,1-1v-16C48,24.5,47.6,24.1,47,24.1z M16,6.1h10V19l-4.4-3.6c-0.4-0.3-0.9-0.3-1.3,0L16,19V6.1z
	 M14,6.1v15c0,0.4,0.2,0.7,0.6,0.9c0.3,0.2,0.8,0.1,1.1-0.1l5.4-4.4l5.4,4.4c0.2,0.1,0.4,0.2,0.6,0.2c0.1,0,0.3,0,0.4-0.1
	c0.3-0.2,0.6-0.5,0.6-0.9v-15h6v20h-1c-3.5,0-6.3,2-8,3.2c-0.4,0.3-0.9,0.7-1.1,0.8H17c-1.3,0-2.3,1-2.5,2.5L8,30.5V6.1H14z
	 M32.8,39.2C21.9,43,21.9,43,11.3,37.4C9,36.2,6.2,34.7,2.8,33c1.5-1.2,2.6-1.2,3.9-0.8l8.2,2.6c0.4,0.8,1.2,1.3,2.1,1.3h11
	c0.6,0,1-0.4,1-1s-0.4-1-1-1H17c-0.3,0-0.5-0.6-0.5-1s0.2-1,0.5-1h7c0.6,0,1.2-0.4,2.2-1.1c1.6-1.1,3.9-2.9,6.8-2.9h5v9.4
	C36,38.1,34.3,38.7,32.8,39.2z M46,40.1h-6v-14h6V40.1z"/>
</svg>
