<?xml version="1.0" encoding="utf-8"?>
<!-- Generator: Adobe Illustrator 17.0.0, SVG Export Plug-In . SVG Version: 6.00 Build 0)  -->
<!DOCTYPE svg PUBLIC "-//W3C//DTD SVG 1.1//EN" "http://www.w3.org/Graphics/SVG/1.1/DTD/svg11.dtd">
<svg version="1.1" id="Layer_1" xmlns="http://www.w3.org/2000/svg" xmlns:xlink="http://www.w3.org/1999/xlink" x="0px" y="0px"
	 width="48px" height="48px" viewBox="0 0 48 48" enable-background="new 0 0 48 48" xml:space="preserve">
<path d="M42.9,41.7c-0.2-0.5-0.7-0.8-1.3-0.6c-1,0.3-2.4,0.7-3.2,0.9c-0.2-0.7-0.6-2.1-0.8-3.3c-1-4.8-1.8-7.7-3.7-7.7
	c-1.8,0-12.5,2.1-16.1,2.8l-1.1-8.2L27.2,23c0.5-0.1,0.9-0.7,0.7-1.2c-0.1-0.5-0.7-0.9-1.2-0.7l-10.2,2.6l-1.4-10.9
	c2.8-0.7,4.8-3.2,4.8-6.2C19.9,2.9,17,0,13.5,0C9.9,0,7,2.9,7,6.5c0,3.4,2.7,6.3,6.1,6.4l1.5,11.2c0,0,0,0-0.1,0
	C9.3,25.1,5,30.4,5,36c0,6.6,5.3,12,11.8,12C23.4,48,29,42.5,29,36v-2.3c2.3-0.4,4.2-0.7,4.9-0.7c0.7,0.7,1.5,4.3,1.8,6.1
	c0.8,3.6,1.1,4.9,2.3,4.9c1.1,0,3.8-0.9,4.3-1.1C42.8,42.8,43.1,42.2,42.9,41.7z M9,6.5C9,4,11,2,13.5,2c2.5,0,4.5,2,4.5,4.5
	s-2,4.5-4.5,4.5C11,10.9,9,8.9,9,6.5z M27,36c0,5.3-4.8,10-10.2,10C11.4,46,7,41.5,7,36c0-5.1,4-9.2,7.8-9.9l1.2,9
	c0,0.3,0.2,0.5,0.4,0.7c0.2,0.2,0.5,0.2,0.8,0.2c2.9-0.6,6.6-1.3,9.8-1.9V36z"/>
</svg>
