<?xml version="1.0" encoding="utf-8"?>
<!-- Generator: Adobe Illustrator 17.0.0, SVG Export Plug-In . SVG Version: 6.00 Build 0)  -->
<!DOCTYPE svg PUBLIC "-//W3C//DTD SVG 1.1//EN" "http://www.w3.org/Graphics/SVG/1.1/DTD/svg11.dtd">
<svg version="1.1" id="Layer_1" xmlns="http://www.w3.org/2000/svg" xmlns:xlink="http://www.w3.org/1999/xlink" x="0px" y="0px"
	 width="48px" height="48px" viewBox="0 0 48 48" enable-background="new 0 0 48 48" xml:space="preserve">
<path d="M45,2H3C1.3,2,0,3.3,0,5v36c0,1.7,1.3,3,3,3h2v1c0,0.6,0.4,1,1,1h3c0.6,0,1-0.4,1-1v-1h28v1c0,0.6,0.4,1,1,1h3
	c0.6,0,1-0.4,1-1v-1h2c1.7,0,3-1.3,3-3V5C48,3.3,46.7,2,45,2z M46,41c0,0.6-0.4,1-1,1H3c-0.6,0-1-0.4-1-1V5c0-0.6,0.4-1,1-1h42
	c0.6,0,1,0.4,1,1V41z M33,12c-3,0-5.4,2.5-5.4,5.5c0,3,2.4,5.5,5.4,5.5c2.9,0,5.4-2.5,5.4-5.5C38.4,14.5,36,12,33,12z M33,21
	c-1.8,0-3.4-1.6-3.4-3.5c0-1.9,1.5-3.5,3.4-3.5c1.9,0,3.4,1.6,3.4,3.5C36.4,19.4,34.9,21,33,21z M34.5,17.5c0,0.8-0.7,1.5-1.5,1.5
	c-0.8,0-1.5-0.7-1.5-1.5c0-0.8,0.7-1.5,1.5-1.5C33.8,16,34.5,16.7,34.5,17.5z M28,24h2v2h-2V24z M32,24h2v2h-2V24z M36,24h2v2h-2V24
	z M28,28h2v2h-2V28z M32,28h2v2h-2V28z M36,28h2v2h-2V28z M28,32h2v2h-2V32z M32,32h2v2h-2V32z M36,32h2v2h-2V32z M41,8H9
	c-1.7,0-3,1.3-3,3v3H5c-0.6,0-1,0.4-1,1v2c0,0.6,0.4,1,1,1h1v10H5c-0.6,0-1,0.4-1,1v2c0,0.6,0.4,1,1,1h1v3c0,1.7,1.3,3,3,3h32
	c1.7,0,3-1.3,3-3V11C44,9.3,42.7,8,41,8z M42,35c0,0.6-0.4,1-1,1H9c-0.6,0-1-0.4-1-1v-3h1c0.6,0,1-0.4,1-1v-2c0-0.6-0.4-1-1-1H8V18
	h1c0.6,0,1-0.4,1-1v-2c0-0.6-0.4-1-1-1H8v-3c0-0.6,0.4-1,1-1h32c0.6,0,1,0.4,1,1V35z"/>
</svg>
