<?xml version="1.0" encoding="utf-8"?>
<!-- Generator: Adobe Illustrator 17.0.0, SVG Export Plug-In . SVG Version: 6.00 Build 0)  -->
<!DOCTYPE svg PUBLIC "-//W3C//DTD SVG 1.1//EN" "http://www.w3.org/Graphics/SVG/1.1/DTD/svg11.dtd">
<svg version="1.1" id="Layer_1" xmlns="http://www.w3.org/2000/svg" xmlns:xlink="http://www.w3.org/1999/xlink" x="0px" y="0px"
	 width="48px" height="48px" viewBox="0 0 48 48" enable-background="new 0 0 48 48" xml:space="preserve">
<path d="M28,0c-6.6,0-12,5.4-12,12v0.1c-4.5,0.5-8,4.3-8,8.9v2c0,0.6,0.4,1,1,1h16c0.6,0,1-0.4,1-1v-2c0-4.6-3.5-8.4-8-8.9V12
	c0-5.5,4.5-10,10-10c5.5,0,10,4.5,10,10v36h2V12C40,5.4,34.6,0,28,0z M24,21v1H10v-1c0-3.9,3.1-7,7-7S24,17.1,24,21z M18,30v4
	c0,0.6-0.4,1-1,1s-1-0.4-1-1v-4c0-0.6,0.4-1,1-1S18,29.4,18,30z M18,42v4c0,0.6-0.4,1-1,1s-1-0.4-1-1v-4c0-0.6,0.4-1,1-1
	S18,41.4,18,42z M24.5,35c-0.1,0-0.1,0-0.2,0c-0.5,0-0.9-0.4-1-0.8l-0.6-4c-0.1-0.5,0.3-1.1,0.8-1.1c0.6-0.1,1.1,0.3,1.1,0.8l0.6,4
	C25.4,34.4,25.1,35,24.5,35z M26.6,41.8l0.6,4c0.1,0.5-0.3,1.1-0.8,1.1c-0.1,0-0.1,0-0.2,0c-0.5,0-0.9-0.4-1-0.8l-0.6-4
	c-0.1-0.5,0.3-1.1,0.8-1.1C26,40.9,26.5,41.2,26.6,41.8z M11.1,30.3l-0.6,4c-0.1,0.5-0.5,0.8-1,0.8c-0.1,0-0.1,0-0.2,0
	c-0.5-0.1-0.9-0.6-0.8-1.1l0.6-4c0.1-0.5,0.6-0.9,1.1-0.8C10.8,29.2,11.2,29.7,11.1,30.3z M9.2,42.1l-0.6,4c-0.1,0.5-0.5,0.8-1,0.8
	c-0.1,0-0.1,0-0.2,0c-0.5-0.1-0.9-0.6-0.8-1.1l0.6-4c0.1-0.5,0.6-0.9,1.1-0.8C8.9,41.1,9.3,41.6,9.2,42.1z"/>
</svg>
