<?xml version="1.0" encoding="utf-8"?>
<!-- Generator: Adobe Illustrator 17.0.0, SVG Export Plug-In . SVG Version: 6.00 Build 0)  -->
<!DOCTYPE svg PUBLIC "-//W3C//DTD SVG 1.1//EN" "http://www.w3.org/Graphics/SVG/1.1/DTD/svg11.dtd">
<svg version="1.1" id="Layer_1" xmlns="http://www.w3.org/2000/svg" xmlns:xlink="http://www.w3.org/1999/xlink" x="0px" y="0px"
	 width="48px" height="48px" viewBox="0 0 48 48" enable-background="new 0 0 48 48" xml:space="preserve">
<path d="M26,44H4c-1.1,0-2-0.9-2-2v-8h21c0.6,0,1-0.4,1-1s-0.4-1-1-1H2.2l2.3-14h39l1.9,11.2c0.1,0.5,0.5,0.8,1,0.8
	c0.1,0,0.1,0,0.2,0c0.5-0.1,0.9-0.6,0.8-1.2L44,8.9V4c0-2.2-1.8-4-4-4H8C5.8,0,4,1.8,4,4v4.9L0,32.8c0,0,0,0.1,0,0.1
	c0,0,0,0.1,0,0.1v9c0,2.2,1.8,4,4,4h2v1c0,0.6,0.4,1,1,1s1-0.4,1-1v-1h18c0.6,0,1-0.4,1-1S26.6,44,26,44z M4.8,16l1-6h2.6L8,12.9
	c0,0.3,0,0.6,0.2,0.8S8.7,14,9,14h12.1c0.5,0,1-0.5,1-1.1l0.1-2.9h4.2l0.1,2.9c0,0.5,0.5,1.1,1,1.1h12.1c0.3,0,0.6-0.1,0.8-0.3
	c0.2-0.2,0.3-0.5,0.2-0.8L40.1,10h2.1l1,6H4.8z M10.7,8h9.5l-0.1,4h-10L10.7,8z M38.4,12h-10l-0.1-4h9.5L38.4,12z M8,2h32
	c1.1,0,2,0.9,2,2v4h-2.2l-0.2-1.1c-0.1-0.5-0.5-0.9-1-0.9H27.3c-0.3,0-0.5,0.1-0.7,0.3c-0.2,0.2-0.3,0.3-0.3,0.6l0,1.1h-4.1l0-1.1
	c0-0.3-0.1-0.5-0.3-0.7S21.5,6,21.2,6H9.8c-0.5,0-0.9,0.4-1,0.9L8.7,8H6V4C6,2.9,6.9,2,8,2z M47.9,32.6C47.8,32.2,47.4,32,47,32
	h-6.4l-2.7-5.4C37.7,26.2,37.4,26,37,26c0,0,0,0,0,0c-0.4,0-0.7,0.2-0.9,0.6L33.4,32H27c-0.4,0-0.8,0.2-0.9,0.6
	c-0.2,0.4-0.1,0.8,0.2,1.1l5.5,5.5l-2.8,7.4c-0.2,0.4,0,0.9,0.3,1.1s0.8,0.3,1.2,0l6.4-4.6l6.4,4.6c0.2,0.1,0.4,0.2,0.6,0.2
	c0.2,0,0.4-0.1,0.6-0.2c0.3-0.3,0.5-0.7,0.3-1.1l-2.8-7.4l5.5-5.5C48,33.4,48.1,33,47.9,32.6z M40.3,38.3c-0.3,0.3-0.4,0.7-0.2,1.1
	l1.9,4.9l-4.3-3.1C37.4,41.1,37.2,41,37,41s-0.4,0.1-0.6,0.2l-4.3,3.1l1.9-4.9c0.1-0.4,0-0.8-0.2-1.1L29.4,34H34
	c0.4,0,0.7-0.2,0.9-0.6l2.1-4.2l2.1,4.2c0.2,0.3,0.5,0.6,0.9,0.6h4.6L40.3,38.3z"/>
</svg>
