<?xml version="1.0" encoding="utf-8"?>
<!-- Generator: Adobe Illustrator 20.1.0, SVG Export Plug-In . SVG Version: 6.00 Build 0)  -->
<svg version="1.1" id="Layer_1" xmlns="http://www.w3.org/2000/svg" xmlns:xlink="http://www.w3.org/1999/xlink" x="0px" y="0px"
	 viewBox="0 0 48 48" style="enable-background:new 0 0 48 48;" xml:space="preserve">
<path d="M27.1,45.9C19.1,42.1,14,33.5,14,24c0-9.5,5.1-18.1,13.1-21.9c0.4-0.2,0.6-0.6,0.6-1.1c-0.1-0.4-0.4-0.8-0.9-0.8
	C25.8,0.1,24.9,0,24,0C10.8,0,0,10.8,0,24s10.8,24,24,24c0.9,0,1.8-0.1,2.8-0.2c0.4-0.1,0.8-0.4,0.9-0.8
	C27.7,46.6,27.5,46.1,27.1,45.9z M2,24C2,12.1,11.4,2.4,23.2,2C16.3,6.7,12,15,12,24c0,9,4.3,17.3,11.2,22C11.4,45.6,2,35.9,2,24z
	 M45,36c-4.8-0.1-7-2.3-7-7c0-0.6-0.4-1-1-1c0,0,0,0,0,0c-0.6,0-1,0.4-1,1v0c0,0,0,0,0,0c0,4.7-2.2,6.9-7,7c-0.5,0-1,0.5-1,1
	s0.5,1,1,1c0,0,0,0,0,0c4.8,0,6.9,2.2,7,7c0,0.5,0.4,1,1,1c0,0,0,0,0,0c0.5,0,1-0.4,1-1c0.2-4.8,2.4-7,6.9-7c0,0,0,0,0.1,0
	c0.5,0,1-0.4,1-1C46,36.5,45.6,36,45,36z M37.1,40.3c-0.7-1.5-1.8-2.6-3.2-3.3c1.4-0.7,2.5-1.8,3.2-3.1c0.7,1.4,1.8,2.5,3.3,3.2
	C38.9,37.7,37.8,38.8,37.1,40.3z M32,22C32,22,32,22,32,22c0.6,0,1-0.4,1-1c0-0.5-0.4-1-1-1c-2.8-0.1-4-1.3-4-4v0c0-0.6-0.4-1-1-1
	c0,0,0,0,0,0c-0.6,0-1,0.4-1,1c0,0,0,0,0,0c0,2.7-1.2,4-4,4c-0.5,0-1,0.5-1,1c0,0.5,0.5,1,1,1c0,0,0,0,0,0c2.8,0,4,1.2,4,4
	c0,0.5,0.4,1,1,1c0,0,0,0,0,0c0.5,0,1-0.4,1-1C28.1,23.2,29.4,22,32,22z M27.1,22.3c-0.3-0.5-0.8-1-1.3-1.3c0.5-0.3,0.9-0.7,1.2-1.2
	c0.3,0.5,0.8,0.9,1.3,1.3C27.8,21.4,27.4,21.8,27.1,22.3z M47,8c-3.5-0.1-5-1.6-5-5c0-0.6-0.4-1-1-1c0,0,0,0,0,0c-0.6,0-1,0.4-1,1
	c0,0,0,0,0,0c0,0,0,0,0,0c0,3.4-1.6,5-5,5c-0.5,0-1,0.5-1,1c0,0.5,0.5,1,1,1h0c0,0,0,0,0,0c3.4,0,5,1.5,5,5c0,0.5,0.4,1,1,1
	c0,0,0,0,0,0c0.5,0,1-0.4,1-1c0.2-3.5,1.7-5,5-5c0,0,0,0,0,0c0.5,0,1-0.4,1-1C48,8.5,47.6,8,47,8z M41.1,10.9
	C40.6,10.1,40,9.5,39.2,9c0.8-0.5,1.4-1.1,1.8-1.8c0.5,0.8,1.1,1.4,1.9,1.8C42.1,9.5,41.5,10.1,41.1,10.9z"/>
</svg>
