<?xml version="1.0" encoding="utf-8"?>
<!-- Generator: Adobe Illustrator 17.0.0, SVG Export Plug-In . SVG Version: 6.00 Build 0)  -->
<!DOCTYPE svg PUBLIC "-//W3C//DTD SVG 1.1//EN" "http://www.w3.org/Graphics/SVG/1.1/DTD/svg11.dtd">
<svg version="1.1" id="Layer_1" xmlns="http://www.w3.org/2000/svg" xmlns:xlink="http://www.w3.org/1999/xlink" x="0px" y="0px"
	 width="48px" height="48px" viewBox="0 0 48 48" enable-background="new 0 0 48 48" xml:space="preserve">
<path d="M23,2C10.3,2,0,12.3,0,25c0,12.7,10.3,23,23,23c12.7,0,23-10.3,23-23C46,12.3,35.7,2,23,2z M23,46C11.4,46,2,36.6,2,25
	C2,13.4,11.4,4,23,4c11.6,0,21,9.4,21,21C44,36.6,34.6,46,23,46z M30,39c0,0.6-0.4,1-1,1H17c-0.6,0-1-0.4-1-1s0.4-1,1-1h5V22h-3
	c-0.6,0-1-0.4-1-1s0.4-1,1-1h4c0.6,0,1,0.4,1,1v17h5C29.6,38,30,38.4,30,39z M20,13c0-1.1,0.9-2,2-2s2,0.9,2,2s-0.9,2-2,2
	S20,14.1,20,13z"/>
</svg>
