<?xml version="1.0" encoding="utf-8"?>
<!-- Generator: Adobe Illustrator 17.0.0, SVG Export Plug-In . SVG Version: 6.00 Build 0)  -->
<!DOCTYPE svg PUBLIC "-//W3C//DTD SVG 1.1//EN" "http://www.w3.org/Graphics/SVG/1.1/DTD/svg11.dtd">
<svg version="1.1" id="Layer_1" xmlns="http://www.w3.org/2000/svg" xmlns:xlink="http://www.w3.org/1999/xlink" x="0px" y="0px"
	 width="48px" height="48px" viewBox="0 0 48 48" enable-background="new 0 0 48 48" xml:space="preserve">
<path d="M12,39.9c-3.3,0-6-2.7-6-6s2.7-6,6-6s6,2.7,6,6S15.3,39.9,12,39.9z M12,29.9c-2.2,0-4,1.8-4,4s1.8,4,4,4s4-1.8,4-4
	S14.2,29.9,12,29.9z M12,45.9c-6.6,0-12-5.4-12-12s5.4-12,12-12c1.8,0,3.7,0.4,5.3,1.3l22-22c1.4-1.4,4-1.4,5.4,0
	c0.7,0.7,1.1,1.7,1.1,2.7c0,1-0.4,2-1.1,2.7l-2.3,2.3l4.3,4.3c0.4,0.4,0.4,1,0,1.4l-3,3c-0.4,0.4-1,0.4-1.4,0L38,13.3l-1.6,1.6
	l3.3,3.3c0.4,0.4,0.4,1,0,1.4l-3,3c-0.4,0.4-1,0.4-1.4,0L32,19.3l-9.3,9.3c0.8,1.7,1.3,3.5,1.3,5.3C24,40.5,18.6,45.9,12,45.9z
	 M12,23.9c-5.5,0-10,4.5-10,10s4.5,10,10,10s10-4.5,10-10c0-1.7-0.5-3.5-1.4-5c-0.2-0.4-0.2-0.9,0.2-1.2l10.5-10.5
	c0.4-0.4,1-0.4,1.4,0l3.3,3.3l1.6-1.6l-3.3-3.3c-0.4-0.4-0.4-1,0-1.4l3-3c0.4-0.4,1-0.4,1.4,0l4.3,4.3l1.6-1.6l-4.3-4.3
	c-0.4-0.4-0.4-1,0-1.4l3-3c0.3-0.3,0.5-0.8,0.5-1.3c0-0.5-0.2-0.9-0.5-1.3c-0.7-0.7-1.9-0.7-2.6,0L18.2,25.1
	c-0.3,0.3-0.8,0.4-1.2,0.2C15.5,24.4,13.7,23.9,12,23.9z"/>
</svg>
