<?xml version="1.0" encoding="utf-8"?>
<!-- Generator: Adobe Illustrator 17.0.0, SVG Export Plug-In . SVG Version: 6.00 Build 0)  -->
<!DOCTYPE svg PUBLIC "-//W3C//DTD SVG 1.1//EN" "http://www.w3.org/Graphics/SVG/1.1/DTD/svg11.dtd">
<svg version="1.1" id="Layer_1" xmlns="http://www.w3.org/2000/svg" xmlns:xlink="http://www.w3.org/1999/xlink" x="0px" y="0px"
	 width="48px" height="48px" viewBox="0 0 48 48" enable-background="new 0 0 48 48" xml:space="preserve">
<path d="M45.5,2.5c-0.2-0.2-0.5-0.3-0.8-0.3C43.4,2.3,11,6.1,3.6,21.6C1,27.1,1.9,33.4,6.2,40.3l-1.1,1.1c-0.4,0.4-0.4,1,0,1.4
	c0.2,0.2,0.5,0.3,0.7,0.3s0.5-0.1,0.7-0.3l1.1-1.1c4.3,2.7,8.4,4.1,12.2,4.1c21.1,0,25.8-40.8,26-42.6C45.9,3,45.8,2.7,45.5,2.5z
	 M19.9,43.8c-3.3,0-6.9-1.2-10.7-3.5l5.1-5.1h9.6c0.6,0,1-0.4,1-1s-0.4-1-1-1h-7.6l6-6h6.6c0.6,0,1-0.4,1-1s-0.4-1-1-1h-4.6l6-6h2.6
	c0.6,0,1-0.4,1-1s-0.4-1-1-1h-2v-2c0-0.6-0.4-1-1-1s-1,0.4-1,1v2.6l-6,6v-4.6c0-0.6-0.4-1-1-1s-1,0.4-1,1v6.6l-6,6v-7.6
	c0-0.6-0.4-1-1-1s-1,0.4-1,1v9.6l-5.1,5.1C4,32.8,3.2,27.2,5.4,22.5C11.5,9.6,37.6,5.2,43.7,4.3C42.7,11.2,37.2,43.8,19.9,43.8z"/>
</svg>
