<?xml version="1.0" encoding="utf-8"?>
<!-- Generator: Adobe Illustrator 17.0.0, SVG Export Plug-In . SVG Version: 6.00 Build 0)  -->
<!DOCTYPE svg PUBLIC "-//W3C//DTD SVG 1.1//EN" "http://www.w3.org/Graphics/SVG/1.1/DTD/svg11.dtd">
<svg version="1.1" id="Layer_1" xmlns="http://www.w3.org/2000/svg" xmlns:xlink="http://www.w3.org/1999/xlink" x="0px" y="0px"
	 width="48px" height="48px" viewBox="0 0 48 48" enable-background="new 0 0 48 48" xml:space="preserve">
<path d="M14.6,42.7c-1.9,0-3.6-0.7-5-2.1l-1.4-1.4c-1.3-1.3-2-3.1-2-4.9c0-1.9,0.7-3.6,2-4.9l9.2-9.2c2.7-2.7,7.2-2.7,9.9,0l1.4,1.4
	c0.4,0.4,0.4,1,0,1.4c-0.4,0.4-1,0.4-1.4,0l-1.4-1.4c-2-1.9-5.1-2-7.1,0l-9.2,9.2c-0.9,0.9-1.5,2.2-1.5,3.5c0,1.3,0.5,2.6,1.5,3.5
	l1.4,1.4c0.9,0.9,2.2,1.5,3.5,1.5s2.6-0.5,3.5-1.5l6.4-6.4c0.4-0.4,1-0.4,1.4,0s0.4,1,0,1.4l-6.4,6.4C18.2,42,16.5,42.7,14.6,42.7z
	 M31.6,28.6l9.2-9.2c1.3-1.3,2.1-3.1,2.1-4.9s-0.7-3.6-2.1-4.9l-1.4-1.4c-2.7-2.7-7.2-2.7-9.9,0l-6.4,6.4c-0.4,0.4-0.4,1,0,1.4
	c0.4,0.4,1,0.4,1.4,0l6.4-6.4c1.9-1.9,5.1-1.9,7.1,0l1.4,1.4c0.9,0.9,1.5,2.2,1.5,3.5s-0.5,2.6-1.5,3.5l-9.2,9.2
	c-0.9,0.9-2.2,1.5-3.5,1.5h0c-1.3,0-2.6-0.5-3.5-1.5c-0.4-0.4-1-0.4-1.4,0c-0.4,0.4-0.4,1,0,1.4c1.3,1.3,3.1,2.1,4.9,2.1
	c0,0,0,0,0,0C28.5,30.7,30.2,29.9,31.6,28.6z"/>
</svg>
