<?xml version="1.0" encoding="utf-8"?>
<!-- Generator: Adobe Illustrator 20.1.0, SVG Export Plug-In . SVG Version: 6.00 Build 0)  -->
<svg version="1.1" id="Layer_1" xmlns="http://www.w3.org/2000/svg" xmlns:xlink="http://www.w3.org/1999/xlink" x="0px" y="0px"
	 viewBox="0 0 48 48" style="enable-background:new 0 0 48 48;" xml:space="preserve">
<path d="M24,0C13,0,4,9,4,20c0,14.4,18.6,27.3,19.4,27.8c0.2,0.1,0.4,0.2,0.6,0.2s0.4-0.1,0.6-0.2C25.4,47.3,44,34.4,44,20
	C44,9,35,0,24,0z M24,45.8C20.9,43.5,6,32,6,20c0-9.9,8.1-18,18-18c9.9,0,18,8.1,18,18C42,32,27.1,43.5,24,45.8z M24,8
	c-6.6,0-12,5.4-12,12c0,6.6,5.4,12,12,12c6.6,0,12-5.4,12-12C36,13.4,30.6,8,24,8z M14,20c0-2.4,0.9-4.6,2.3-6.3l14.1,14.1
	C28.6,29.1,26.4,30,24,30C18.5,30,14,25.5,14,20z M31.7,26.3L17.7,12.3c1.7-1.4,3.9-2.3,6.3-2.3c5.5,0,10,4.5,10,10
	C34,22.4,33.2,24.6,31.7,26.3z"/>
</svg>
