<?xml version="1.0" encoding="utf-8"?>
<!-- Generator: Adobe Illustrator 17.0.0, SVG Export Plug-In . SVG Version: 6.00 Build 0)  -->
<!DOCTYPE svg PUBLIC "-//W3C//DTD SVG 1.1//EN" "http://www.w3.org/Graphics/SVG/1.1/DTD/svg11.dtd">
<svg version="1.1" id="Layer_1" xmlns="http://www.w3.org/2000/svg" xmlns:xlink="http://www.w3.org/1999/xlink" x="0px" y="0px"
	 width="48px" height="48px" viewBox="0 0 48 48" enable-background="new 0 0 48 48" xml:space="preserve">
<path d="M29,27c0,0.6-0.4,1-1,1h-8c-0.6,0-1-0.4-1-1s0.4-1,1-1h3V16h-3c-0.6,0-1-0.4-1-1s0.4-1,1-1h4c0.6,0,1,0.4,1,1v11h3
	C28.6,26,29,26.4,29,27z M44,20c0,14.4-18.6,27.3-19.4,27.8C24.4,47.9,24.2,48,24,48s-0.4-0.1-0.6-0.2C22.6,47.3,4,34.4,4,20
	C4,9,13,0,24,0C35,0,44,9,44,20z M42,20c0-9.9-8.1-18-18-18C14.1,2,6,10.1,6,20c0,12,14.9,23.5,18,25.8C27.1,43.5,42,32,42,20z
	 M23,11c1.1,0,2-0.9,2-2s-0.9-2-2-2s-2,0.9-2,2S21.9,11,23,11z"/>
</svg>
