<?xml version="1.0" encoding="utf-8"?>
<!-- Generator: Adobe Illustrator 17.0.0, SVG Export Plug-In . SVG Version: 6.00 Build 0)  -->
<!DOCTYPE svg PUBLIC "-//W3C//DTD SVG 1.1//EN" "http://www.w3.org/Graphics/SVG/1.1/DTD/svg11.dtd">
<svg version="1.1" id="Layer_1" xmlns="http://www.w3.org/2000/svg" xmlns:xlink="http://www.w3.org/1999/xlink" x="0px" y="0px"
	 width="48px" height="48px" viewBox="0 0 48 48" enable-background="new 0 0 48 48" xml:space="preserve">
<path d="M24,0C15.2,0,8,7.2,8,16c0,8.5,14.5,30.6,15.2,31.6c0.2,0.3,0.5,0.4,0.8,0.4s0.6-0.2,0.8-0.4C25.5,46.6,40,24.5,40,16
	C40,7.2,32.8,0,24,0z M24,45.2C20.9,40.3,10,22.8,10,16c0-7.7,6.3-14,14-14s14,6.3,14,14C38,22.8,27.1,40.3,24,45.2z M24,9
	c-3.9,0-7,3.1-7,7s3.1,7,7,7c3.9,0,7-3.1,7-7S27.9,9,24,9z M24,21c-2.8,0-5-2.2-5-5s2.2-5,5-5s5,2.2,5,5S26.8,21,24,21z"/>
</svg>
