<?xml version="1.0" encoding="utf-8"?>
<!-- Generator: Adobe Illustrator 20.1.0, SVG Export Plug-In . SVG Version: 6.00 Build 0)  -->
<svg version="1.1" id="Layer_1" xmlns="http://www.w3.org/2000/svg" xmlns:xlink="http://www.w3.org/1999/xlink" x="0px" y="0px"
	 viewBox="0 0 48 48" style="enable-background:new 0 0 48 48;" xml:space="preserve">
<path d="M24,0C13,0,4,9,4,20c0,14.4,18.6,27.3,19.4,27.8c0.2,0.1,0.4,0.2,0.6,0.2s0.4-0.1,0.6-0.2C25.4,47.3,44,34.4,44,20
	C44,9,35,0,24,0z M24,45.8C20.9,43.5,6,32,6,20c0-9.9,8.1-18,18-18c9.9,0,18,8.1,18,18C42,32,27.1,43.5,24,45.8z M34,15h-6.8
	l-2.3-6.3C24.8,8.3,24.4,8,24,8s-0.8,0.3-0.9,0.7L20.8,15H14c-0.4,0-0.8,0.3-0.9,0.7c-0.1,0.4,0,0.8,0.3,1.1l5.5,4.6L17,28.8
	c-0.1,0.4,0.1,0.9,0.4,1.1s0.8,0.2,1.2-0.1l5.4-4.5l5.4,4.5c0.2,0.2,0.4,0.2,0.6,0.2c0.2,0,0.4-0.1,0.5-0.2c0.4-0.2,0.5-0.7,0.4-1.1
	l-1.8-7.4l5.5-4.6c0.3-0.3,0.4-0.7,0.3-1.1S34.4,15,34,15z M27.4,20.2c-0.3,0.2-0.4,0.6-0.3,1l1.3,5l-3.6-3C24.5,23.1,24.2,23,24,23
	s-0.5,0.1-0.6,0.2l-3.6,3l1.3-5c0.1-0.4,0-0.8-0.3-1L16.8,17h4.7c0.4,0,0.8-0.3,0.9-0.7L24,12l1.6,4.4c0.1,0.4,0.5,0.7,0.9,0.7h4.7
	L27.4,20.2z"/>
</svg>
