<?xml version="1.0" encoding="utf-8"?>
<!-- Generator: Adobe Illustrator 17.0.0, SVG Export Plug-In . SVG Version: 6.00 Build 0)  -->
<!DOCTYPE svg PUBLIC "-//W3C//DTD SVG 1.1//EN" "http://www.w3.org/Graphics/SVG/1.1/DTD/svg11.dtd">
<svg version="1.1" id="Layer_1" xmlns="http://www.w3.org/2000/svg" xmlns:xlink="http://www.w3.org/1999/xlink" x="0px" y="0px"
	 width="48px" height="48px" viewBox="0 0 48 48" enable-background="new 0 0 48 48" xml:space="preserve">
<path d="M24.2,16c2.7,0,4.8-2.2,4.8-4.8c0-2.7-2.2-4.8-4.8-4.8c-2.7,0-4.8,2.2-4.8,4.8C19.4,13.8,21.5,16,24.2,16z M24.2,8.4
	c1.6,0,2.8,1.3,2.8,2.8c0,1.6-1.3,2.8-2.8,2.8s-2.8-1.3-2.8-2.8C21.4,9.6,22.6,8.4,24.2,8.4z M41,8.9C40.9,8.4,40.5,8,40,8h-5.1
	c-1.4-4.6-5.7-8-10.7-8c-5.1,0-9.3,3.4-10.7,8H8C7.5,8,7.1,8.4,7,8.9l-4,38c0,0.3,0.1,0.6,0.3,0.8S3.7,48,4,48h40
	c0.3,0,0.6-0.1,0.7-0.3s0.3-0.5,0.3-0.8L41,8.9z M15.8,34l0.8-12h1.1c2.6,4,5.4,7.4,5.6,7.6c0.2,0.2,0.5,0.4,0.8,0.4
	s0.6-0.1,0.8-0.4c0.2-0.3,3-3.6,5.6-7.6h1.1l0.8,12H15.8z M32.6,36l0.6,10H15.1l0.6-10H32.6z M7.6,22h7l-0.8,12H6.4L7.6,22z
	 M33.7,22h6.6l1.3,12h-7.1L33.7,22z M39.1,10l1.1,10h-6.5l-0.2-2.8c1.1-2.2,1.9-4.4,1.9-6c0-0.4,0-0.8-0.1-1.2H39.1z M24.2,2
	c5.1,0,9.2,4.1,9.2,9.2c0,4-6,12.3-9.2,16.2C21,23.5,15,15.1,15,11.2C15,6.1,19.1,2,24.2,2z M8.9,10h4.2c0,0.4-0.1,0.8-0.1,1.2
	c0,1.7,0.8,3.8,1.9,6L14.7,20H7.8L8.9,10z M6.2,36h7.5l-0.6,10h-8L6.2,36z M35.3,46l-0.6-10h7.2l1.1,10H35.3z"/>
</svg>
