<?xml version="1.0" encoding="utf-8"?>
<!-- Generator: Adobe Illustrator 17.0.0, SVG Export Plug-In . SVG Version: 6.00 Build 0)  -->
<!DOCTYPE svg PUBLIC "-//W3C//DTD SVG 1.1//EN" "http://www.w3.org/Graphics/SVG/1.1/DTD/svg11.dtd">
<svg version="1.1" id="Layer_1" xmlns="http://www.w3.org/2000/svg" xmlns:xlink="http://www.w3.org/1999/xlink" x="0px" y="0px"
	 width="48px" height="48px" viewBox="0 0 48 48" enable-background="new 0 0 48 48" xml:space="preserve">
<path d="M6,18c-3.3,0-6,2.7-6,6s2.7,6,6,6s6-2.7,6-6S9.3,18,6,18z M6,28c-2.2,0-4-1.8-4-4c0-2.2,1.8-4,4-4s4,1.8,4,4
	C10,26.2,8.2,28,6,28z M24,18c-3.3,0-6,2.7-6,6s2.7,6,6,6s6-2.7,6-6S27.3,18,24,18z M24,28c-2.2,0-4-1.8-4-4c0-2.2,1.8-4,4-4
	c2.2,0,4,1.8,4,4C28,26.2,26.2,28,24,28z M42,18c-3.3,0-6,2.7-6,6s2.7,6,6,6s6-2.7,6-6S45.3,18,42,18z M42,28c-2.2,0-4-1.8-4-4
	c0-2.2,1.8-4,4-4s4,1.8,4,4C46,26.2,44.2,28,42,28z"/>
</svg>
