<?xml version="1.0" encoding="utf-8"?>
<!-- Generator: Adobe Illustrator 20.1.0, SVG Export Plug-In . SVG Version: 6.00 Build 0)  -->
<svg version="1.1" id="Layer_1" xmlns="http://www.w3.org/2000/svg" xmlns:xlink="http://www.w3.org/1999/xlink" x="0px" y="0px"
	 viewBox="0 0 48 48" style="enable-background:new 0 0 48 48;" xml:space="preserve">
<path d="M48,23C48,23,48,23,48,23c0,0.1,0,0.2-0.1,0.3c0,0,0,0.1,0,0.1c0,0,0,0.1-0.1,0.1l-4,6C43.6,29.8,43.3,30,43,30
	c-0.2,0-0.4-0.1-0.6-0.2c-0.5-0.3-0.6-0.9-0.3-1.4l3-4.4H23c-4.5,0-6.2,2.6-8.2,5.6c-2,3-4.3,6.4-9.8,6.4H1c-0.6,0-1-0.4-1-1
	s0.4-1,1-1h4c4.5,0,6.2-2.6,8.2-5.6c1.3-2,2.8-4.2,5.3-5.4c-2.5-1.2-3.9-3.4-5.3-5.4c-2-3-3.7-5.6-8.2-5.6H1c-0.6,0-1-0.4-1-1
	s0.4-1,1-1h4c5.5,0,7.8,3.4,9.8,6.4c2,3,3.7,5.6,8.2,5.6h22.1l-3-4.4c-0.3-0.5-0.2-1.1,0.3-1.4c0.5-0.3,1.1-0.2,1.4,0.3l4,6
	c0,0,0,0.1,0.1,0.1c0,0,0,0.1,0,0.1C48,22.8,48,22.9,48,23C48,23,48,23,48,23z"/>
</svg>
