<?xml version="1.0" encoding="utf-8"?>
<!-- Generator: Adobe Illustrator 17.0.0, SVG Export Plug-In . SVG Version: 6.00 Build 0)  -->
<!DOCTYPE svg PUBLIC "-//W3C//DTD SVG 1.1//EN" "http://www.w3.org/Graphics/SVG/1.1/DTD/svg11.dtd">
<svg version="1.1" id="Layer_1" xmlns="http://www.w3.org/2000/svg" xmlns:xlink="http://www.w3.org/1999/xlink" x="0px" y="0px"
	 width="48px" height="48px" viewBox="0 0 48 48" enable-background="new 0 0 48 48" xml:space="preserve">
<path d="M47,2H1C0.4,2,0,2.4,0,3v32c0,0.6,0.4,1,1,1h13v7c0,0.4,0.2,0.8,0.6,0.9C14.7,44,14.9,44,15,44c0.3,0,0.5-0.1,0.7-0.3
	l7.7-7.7H47c0.6,0,1-0.4,1-1V3C48,2.4,47.6,2,47,2z M46,34H23c-0.3,0-0.5,0.1-0.7,0.3L16,40.6V35c0-0.6-0.4-1-1-1H2V4h44V34z
	 M13.6,20.4c0.2,0.3,0.5,0.6,0.9,0.6h7l-5.3,5.3c-0.3,0.3-0.4,0.7-0.2,1.1s0.5,0.6,0.9,0.6h5.9c0.3,0,0.5-0.1,0.7-0.3l6.8-6.7h5.5
	c1.8,0,3.4-1.7,3.4-3.5c0-1.8-1.5-3.5-3.4-3.5h-5.5l-5.8-5.8C24.3,8,24,8,23.8,8h-4.7c-0.4,0-0.8,0.2-0.9,0.6
	c-0.2,0.4-0.1,0.7,0.2,1l4.4,4.4h-4.3l-2.1-1.9C16.2,11.9,16,12,15.7,12H11c-0.3,0-0.7,0.1-0.9,0.4c-0.2,0.3-0.2,0.6,0,1L13.6,20.4z
	 M21.4,10h1.9l4.1,4h-1.9L21.4,10z M15.3,14l2.1,1.9c0.2,0.2,0.4,0.1,0.7,0.1h7c0,0,0,0,0,0h10.6c0.7,0,1.4,0.8,1.4,1.5
	S36.4,19,35.7,19h-5.9c-0.3,0-0.5,0.1-0.7,0.3L22.3,26h-3.1l5.3-5.3c0.3-0.3,0.4-0.7,0.2-1.1c-0.2-0.4-0.5-0.6-0.9-0.6h-8.8l-2.5-5
	H15.3z"/>
</svg>
