<?xml version="1.0" encoding="utf-8"?>
<!-- Generator: Adobe Illustrator 20.1.0, SVG Export Plug-In . SVG Version: 6.00 Build 0)  -->
<svg version="1.1" id="Layer_1" xmlns="http://www.w3.org/2000/svg" xmlns:xlink="http://www.w3.org/1999/xlink" x="0px" y="0px"
	 viewBox="0 0 48 48" style="enable-background:new 0 0 48 48;" xml:space="preserve">
<path d="M47,2H1C0.4,2,0,2.4,0,3v32c0,0.6,0.4,1,1,1h13v7c0,0.4,0.2,0.8,0.6,0.9C14.7,44,14.9,44,15,44c0.3,0,0.5-0.1,0.7-0.3
	l7.7-7.7H47c0.6,0,1-0.4,1-1V3C48,2.4,47.6,2,47,2z M46,34H23c-0.3,0-0.5,0.1-0.7,0.3L16,40.6V35c0-0.6-0.4-1-1-1H2V4h44V34z
	 M17.8,20.3l-2.8,8.4c-0.1,0.4,0,0.9,0.3,1.1s0.8,0.3,1.2,0l7.4-5.1l7.4,5.1c0.2,0.1,0.4,0.2,0.6,0.2c0.2,0,0.4-0.1,0.6-0.2
	c0.3-0.3,0.5-0.7,0.3-1.1l-2.8-8.4l5.5-4.6c0.3-0.3,0.4-0.7,0.3-1.1S35.4,14,35,14h-6.4l-3.7-7.4C24.7,6.2,24.4,6,24,6c0,0,0,0,0,0
	c-0.4,0-0.7,0.2-0.9,0.6L19.4,14H13c-0.4,0-0.8,0.3-0.9,0.7c-0.1,0.4,0,0.8,0.3,1.1L17.8,20.3z M20,16c0.4,0,0.7-0.2,0.9-0.6L24,9.2
	l3.1,6.2c0.2,0.3,0.5,0.6,0.9,0.6h4.2l-3.9,3.2c-0.3,0.3-0.4,0.7-0.3,1.1l2.1,6.2l-5.5-3.8c-0.2-0.1-0.4-0.2-0.6-0.2
	s-0.4,0.1-0.6,0.2l-5.5,3.8l2.1-6.2c0.1-0.4,0-0.8-0.3-1.1L15.8,16H20z"/>
</svg>
