<?xml version="1.0" encoding="utf-8"?>
<!-- Generator: Adobe Illustrator 20.1.0, SVG Export Plug-In . SVG Version: 6.00 Build 0)  -->
<svg version="1.1" id="Layer_1" xmlns="http://www.w3.org/2000/svg" xmlns:xlink="http://www.w3.org/1999/xlink" x="0px" y="0px"
	 viewBox="0 0 48 48" style="enable-background:new 0 0 48 48;" xml:space="preserve">
<path d="M39,20c-0.6,0-1,0.4-1,1v3h-2V13c0-7.2-5.8-13-13-13S10,5.8,10,13v11H8v-3c0-0.6-0.4-1-1-1c-0.6,0-1,0.4-1,1v4
	c0,9.2,7,16.4,16,17v5c0,0.6,0.4,1,1,1s1-0.4,1-1v-5c9-0.5,16-7.8,16-17v-4C40,20.4,39.6,20,39,20z M12,13c0-6.1,4.9-11,11-11
	s11,4.9,11,11v11H12V13z M33.9,26c-0.5,5.6-5.2,10-10.9,10s-10.4-4.4-10.9-10H33.9z M23,40c-8.1,0-14.4-6.1-15-14h2
	c0.5,6.7,6.1,12,12.9,12s12.4-5.3,12.9-12h2C37.4,33.9,31.1,40,23,40z"/>
</svg>
