<?xml version="1.0" encoding="utf-8"?>
<!-- Generator: Adobe Illustrator 20.1.0, SVG Export Plug-In . SVG Version: 6.00 Build 0)  -->
<svg version="1.1" id="Layer_1" xmlns="http://www.w3.org/2000/svg" xmlns:xlink="http://www.w3.org/1999/xlink" x="0px" y="0px"
	 viewBox="0 0 48 48" style="enable-background:new 0 0 48 48;" xml:space="preserve">
<path d="M22,1v46c0,0.6-0.4,1-1,1s-1-0.4-1-1V26H3.4l4.3,4.3c0.4,0.4,0.4,1,0,1.4C7.5,31.9,7.3,32,7,32s-0.5-0.1-0.7-0.3l-6-6
	c-0.1-0.1-0.2-0.2-0.2-0.3c-0.1-0.2-0.1-0.5,0-0.8c0.1-0.1,0.1-0.2,0.2-0.3l6-6c0.4-0.4,1-0.4,1.4,0s0.4,1,0,1.4L3.4,24H20V1
	c0-0.6,0.4-1,1-1S22,0.4,22,1z M47.9,25.4c0.1-0.2,0.1-0.5,0-0.8c-0.1-0.1-0.1-0.2-0.2-0.3l-6-6c-0.4-0.4-1-0.4-1.4,0s-0.4,1,0,1.4
	l4.3,4.3H30V1c0-0.6-0.4-1-1-1s-1,0.4-1,1v46c0,0.6,0.4,1,1,1s1-0.4,1-1V26h14.6l-4.3,4.3c-0.4,0.4-0.4,1,0,1.4
	c0.2,0.2,0.5,0.3,0.7,0.3s0.5-0.1,0.7-0.3l6-6C47.8,25.6,47.9,25.5,47.9,25.4z"/>
</svg>
