<?xml version="1.0" encoding="utf-8"?>
<!-- Generator: Adobe Illustrator 20.1.0, SVG Export Plug-In . SVG Version: 6.00 Build 0)  -->
<svg version="1.1" id="Layer_1" xmlns="http://www.w3.org/2000/svg" xmlns:xlink="http://www.w3.org/1999/xlink" x="0px" y="0px"
	 viewBox="0 0 48 48" style="enable-background:new 0 0 48 48;" xml:space="preserve">
<path d="M48,29c0,0.6-0.4,1-1,1H24v14.6l4.3-4.3c0.4-0.4,1-0.4,1.4,0s0.4,1,0,1.4l-6,6c-0.1,0.1-0.2,0.2-0.3,0.2
	C23.3,48,23.1,48,23,48s-0.3,0-0.4-0.1c-0.1-0.1-0.2-0.1-0.3-0.2l-6-6c-0.4-0.4-0.4-1,0-1.4s1-0.4,1.4,0l4.3,4.3V30H1
	c-0.6,0-1-0.4-1-1s0.4-1,1-1h46C47.6,28,48,28.4,48,29z M1,22h46c0.6,0,1-0.4,1-1s-0.4-1-1-1H24V3.4l4.3,4.3C28.5,7.9,28.7,8,29,8
	s0.5-0.1,0.7-0.3c0.4-0.4,0.4-1,0-1.4l-6-6c-0.4-0.4-1-0.4-1.4,0l-6,6c-0.4,0.4-0.4,1,0,1.4s1,0.4,1.4,0L22,3.4V20H1
	c-0.6,0-1,0.4-1,1S0.4,22,1,22z"/>
</svg>
