<?xml version="1.0" encoding="utf-8"?>
<!-- Generator: Adobe Illustrator 20.1.0, SVG Export Plug-In . SVG Version: 6.00 Build 0)  -->
<svg version="1.1" id="Layer_1" xmlns="http://www.w3.org/2000/svg" xmlns:xlink="http://www.w3.org/1999/xlink" x="0px" y="0px"
	 viewBox="0 0 48 48" style="enable-background:new 0 0 48 48;" xml:space="preserve">
<path d="M39,0H9C4,0,0,4,0,9s4,9,9,9c1.9,0,3.6-0.8,4.9-2H14v31c0,0.6,0.4,1,1,1s1-0.4,1-1V16h4v31c0,0.6,0.4,1,1,1s1-0.4,1-1V16h4
	v31c0,0.6,0.4,1,1,1s1-0.4,1-1V16h4v31c0,0.6,0.4,1,1,1s1-0.4,1-1V16h0.1c1.3,1.2,3,2,4.9,2c5,0,9-4,9-9S44,0,39,0z M32.1,12
	c0.1,0.7,0.3,1.4,0.6,2H15.3c0.3-0.6,0.5-1.3,0.6-2H32.1z M39,16c-2.8,0-5-2.2-5-5c0-1.7,1.3-3,3-3c0.6,0,1,0.4,1,1c0,0.6,0.4,1,1,1
	s1-0.4,1-1c0-1.7-1.3-3-3-3c-2.4,0-4.4,1.7-4.9,4H15.9c-0.5-2.3-2.5-4-4.9-4C9.3,6,8,7.3,8,9c0,0.6,0.4,1,1,1s1-0.4,1-1
	c0-0.6,0.4-1,1-1c1.7,0,3,1.3,3,3c0,2.8-2.2,5-5,5c-3.9,0-7-3.1-7-7s3.1-7,7-7h30c3.9,0,7,3.1,7,7S42.9,16,39,16z"/>
</svg>
