<?xml version="1.0" encoding="utf-8"?>
<!-- Generator: Adobe Illustrator 17.0.0, SVG Export Plug-In . SVG Version: 6.00 Build 0)  -->
<!DOCTYPE svg PUBLIC "-//W3C//DTD SVG 1.1//EN" "http://www.w3.org/Graphics/SVG/1.1/DTD/svg11.dtd">
<svg version="1.1" id="Layer_1" xmlns="http://www.w3.org/2000/svg" xmlns:xlink="http://www.w3.org/1999/xlink" x="0px" y="0px"
	 width="48px" height="48px" viewBox="0 0 48 48" enable-background="new 0 0 48 48" xml:space="preserve">
<path fill="#010101" d="M36,27.4V41c0,0.6-0.2,1-0.8,1H7c-0.6,0-1-0.5-1-1V12.8C6,12.2,6.4,12,7,12h13.6c0.6,0,1,0.4,1,1s-0.4,1-1,1
	H8v26h26V27.4c0-0.6,0.4-1,1-1S36,26.9,36,27.4z M41.9,6.6c-0.1-0.2-0.3-0.4-0.5-0.5C41.3,6,41.1,6,41,6H27.4c-0.6,0-1,0.4-1,1
	s0.4,1,1,1h11.2L13.1,33.5c-0.4,0.4-0.4,1,0,1.4c0.2,0.2,0.5,0.3,0.7,0.3s0.5-0.1,0.7-0.3L40,9.4v11.2c0,0.6,0.4,1,1,1s1-0.4,1-1V7
	C42,6.9,42,6.8,41.9,6.6z"/>
</svg>
