<?xml version="1.0" encoding="utf-8"?>
<!-- Generator: Adobe Illustrator 17.0.0, SVG Export Plug-In . SVG Version: 6.00 Build 0)  -->
<!DOCTYPE svg PUBLIC "-//W3C//DTD SVG 1.1//EN" "http://www.w3.org/Graphics/SVG/1.1/DTD/svg11.dtd">
<svg version="1.1" id="Layer_1" xmlns="http://www.w3.org/2000/svg" xmlns:xlink="http://www.w3.org/1999/xlink" x="0px" y="0px"
	 width="48px" height="48px" viewBox="0 0 48 48" enable-background="new 0 0 48 48" xml:space="preserve">
<path d="M47.8,24.6C47.4,25.2,37,38,24,38c-2.1,0-4.2-0.3-6.3-1c-0.5-0.2-0.8-0.7-0.7-1.2c0.2-0.5,0.7-0.8,1.2-0.7
	c1.9,0.6,3.9,0.9,5.7,0.9c10.5,0,19.5-9.5,21.7-12c-1.1-1.2-3.7-4-7.2-6.6c-0.4-0.3-0.5-0.9-0.2-1.4c0.3-0.4,0.9-0.5,1.4-0.2
	c4.9,3.6,8,7.4,8.2,7.6C48.1,23.7,48.1,24.3,47.8,24.6z M8.9,32.4c0.3,0,0.6-0.1,0.8-0.4c0.3-0.4,0.2-1.1-0.2-1.4
	C6,28,3.4,25.2,2.3,24C4.5,21.5,13.5,12,24,12c1.6,0,3.2,0.2,4.8,0.6c0.5,0.1,1.1-0.2,1.2-0.7c0.1-0.5-0.2-1.1-0.7-1.2
	C27.5,10.2,25.7,10,24,10C11,10,0.6,22.8,0.2,23.4c-0.3,0.4-0.3,0.9,0,1.2c0.1,0.2,3.2,4,8.1,7.6C8.5,32.3,8.7,32.4,8.9,32.4z
	 M15,24c0,0.6,0.4,1,1,1s1-0.4,1-1c0-3.9,3.1-7,7-7c0.6,0,1-0.4,1-1s-0.4-1-1-1C19,15,15,19,15,24z M31,24c0,3.9-3.1,7-7,7
	c-0.6,0-1,0.4-1,1s0.4,1,1,1c5,0,9-4,9-9c0-0.6-0.4-1-1-1S31,23.4,31,24z M44.2,3.8c-0.4-0.4-1-0.4-1.4,0l-39,39
	c-0.4,0.4-0.4,1,0,1.4c0.2,0.2,0.5,0.3,0.7,0.3s0.5-0.1,0.7-0.3l39-39C44.6,4.8,44.6,4.2,44.2,3.8z"/>
</svg>
