<?xml version="1.0" encoding="utf-8"?>
<!-- Generator: Adobe Illustrator 17.0.0, SVG Export Plug-In . SVG Version: 6.00 Build 0)  -->
<!DOCTYPE svg PUBLIC "-//W3C//DTD SVG 1.1//EN" "http://www.w3.org/Graphics/SVG/1.1/DTD/svg11.dtd">
<svg version="1.1" id="Layer_1" xmlns="http://www.w3.org/2000/svg" xmlns:xlink="http://www.w3.org/1999/xlink" x="0px" y="0px"
	 width="48px" height="48px" viewBox="0 0 48 48" enable-background="new 0 0 48 48" xml:space="preserve">
<path d="M46.3,5.9l-4.2-4.2c-0.9-0.9-2.2-1.5-3.5-1.5S36,0.7,35,1.7l-1.4,1.4c0,0,0,0,0,0s0,0,0,0l-2.8,2.8c0,0,0,0,0,0s0,0,0,0
	L4.3,32.4c0,0,0,0,0,0s0,0,0,0l-0.5,0.5c-0.1,0.1-0.2,0.3-0.3,0.5l-3,12.9c-0.1,0.3,0,0.7,0.3,0.9c0.2,0.2,0.4,0.3,0.7,0.3
	c0.1,0,0.2,0,0.2,0l12.9-3c0.2,0,0.3-0.1,0.5-0.3l0.5-0.5c0,0,0,0,0,0s0,0,0,0L42,17.3c0,0,0,0,0,0c0,0,0,0,0,0l2.8-2.8c0,0,0,0,0,0
	s0,0,0,0l1.4-1.4C48.3,11,48.3,7.9,46.3,5.9z M41.4,15.1l-8.5-8.5l1.4-1.4l8.5,8.5L41.4,15.1z M14.9,41.6l-8.5-8.5l25-25l8.5,8.5
	L14.9,41.6z M5.3,34.7l8,8L2.8,45.2L5.3,34.7z M44.9,11.6l-0.7,0.7l-8.5-8.5l0.7-0.7c1.1-1.1,3.1-1.1,4.2,0l4.2,4.2
	C46.1,8.5,46.1,10.4,44.9,11.6z"/>
</svg>
