<?xml version="1.0" encoding="utf-8"?>
<!-- Generator: Adobe Illustrator 17.0.0, SVG Export Plug-In . SVG Version: 6.00 Build 0)  -->
<!DOCTYPE svg PUBLIC "-//W3C//DTD SVG 1.1//EN" "http://www.w3.org/Graphics/SVG/1.1/DTD/svg11.dtd">
<svg version="1.1" id="Layer_1" xmlns="http://www.w3.org/2000/svg" xmlns:xlink="http://www.w3.org/1999/xlink" x="0px" y="0px"
	 width="48px" height="48px" viewBox="0 0 48 48" enable-background="new 0 0 48 48" xml:space="preserve">
<path d="M34.3,32.3c-0.9-0.9-2.2-1.5-3.5-1.5s-2.6,0.5-3.5,1.5l-0.8,0.8c-4.1-3.5-8.1-7.4-11.6-11.6l0.8-0.8c1.9-1.9,1.9-5.1,0-7.1
	l-4.2-4.2C10.5,8.5,9.2,8,7.9,8C6.6,8,5.3,8.5,4.4,9.4L2,11.7c-2.3,2.3-2.7,6-0.9,8.8C8,30.9,17.1,40,27.4,46.8
	c1.2,0.8,2.5,1.2,3.9,1.2c1.9,0,3.6-0.7,4.9-2l2.3-2.3c0.9-0.9,1.5-2.2,1.5-3.5s-0.5-2.6-1.5-3.5L34.3,32.3z M37.2,42.2l-2.3,2.3
	c-0.9,0.9-2.2,1.5-3.5,1.5c-1,0-1.9-0.3-2.8-0.8c-10.1-6.7-19-15.6-25.7-25.7c-1.3-2-1-4.6,0.6-6.3l2.3-2.3C6.4,10.3,7.1,10,7.9,10
	s1.6,0.3,2.1,0.9l4.2,4.2c1.2,1.2,1.2,3.1,0,4.2l-1.4,1.4c-0.4,0.4-0.4,0.9-0.1,1.3c3.9,4.7,8.4,9.3,13.1,13.1
	c0.4,0.3,1,0.3,1.3-0.1l1.4-1.4c1.1-1.1,3.1-1.1,4.2,0l4.2,4.2c0.6,0.6,0.9,1.3,0.9,2.1C38.1,40.9,37.7,41.6,37.2,42.2z M47.7,1.7
	L29.4,20H40c0.6,0,1,0.4,1,1s-0.4,1-1,1H27c0,0,0,0,0,0c-0.3,0-0.5-0.1-0.7-0.3C26.1,21.5,26,21.2,26,21V8c0-0.6,0.4-1,1-1
	s1,0.4,1,1v10.6L46.3,0.3c0.4-0.4,1-0.4,1.4,0S48.1,1.3,47.7,1.7z"/>
</svg>
