<?xml version="1.0" encoding="utf-8"?>
<!-- Generator: Adobe Illustrator 17.0.0, SVG Export Plug-In . SVG Version: 6.00 Build 0)  -->
<!DOCTYPE svg PUBLIC "-//W3C//DTD SVG 1.1//EN" "http://www.w3.org/Graphics/SVG/1.1/DTD/svg11.dtd">
<svg version="1.1" id="Layer_1" xmlns="http://www.w3.org/2000/svg" xmlns:xlink="http://www.w3.org/1999/xlink" x="0px" y="0px"
	 width="48px" height="48px" viewBox="0 0 48 48" enable-background="new 0 0 48 48" xml:space="preserve">
<path d="M38,37V3c0-0.6-0.4-1-1-1H3C2.4,2,2,2.4,2,3v34c0,0.6,0.4,1,1,1h34C37.6,38,38,37.6,38,37z M36,4v26h-4.3l-5.7-14.4
	C25.8,15.3,25.4,15,25,15c-0.4,0-0.8,0.2-0.9,0.6l-4.3,9.6l-4-4.8c-0.2-0.2-0.5-0.4-0.8-0.4c-0.3,0-0.6,0.2-0.8,0.5L8.4,30H4V4H36z
	 M29.5,30H10.8l4.4-7.3l4.1,4.9c0.2,0.3,0.6,0.4,0.9,0.4c0.3,0,0.6-0.3,0.8-0.6l4-8.9L29.5,30z M4,36v-4h32v4H4z M46,15.2l-2.7,29.9
	c0,0.3-0.2,0.5-0.4,0.7c-0.2,0.2-0.4,0.2-0.6,0.2c0,0-0.1,0-0.1,0l-29.9-2.7c-0.6-0.1-1-0.5-0.9-1.1c0.1-0.5,0.5-1,1.1-0.9l28.9,2.6
	L43.9,16l-3-0.3c-0.6-0.1-1-0.5-0.9-1.1s0.5-0.9,1.1-0.9l4,0.4c0.3,0,0.5,0.2,0.7,0.4S46,14.9,46,15.2z M12,16c2.2,0,4-1.8,4-4
	s-1.8-4-4-4s-4,1.8-4,4S9.8,16,12,16z M12,10c1.1,0,2,0.9,2,2s-0.9,2-2,2s-2-0.9-2-2S10.9,10,12,10z"/>
</svg>
