<?xml version="1.0" encoding="utf-8"?>
<!-- Generator: Adobe Illustrator 17.0.0, SVG Export Plug-In . SVG Version: 6.00 Build 0)  -->
<!DOCTYPE svg PUBLIC "-//W3C//DTD SVG 1.1//EN" "http://www.w3.org/Graphics/SVG/1.1/DTD/svg11.dtd">
<svg version="1.1" id="Layer_1" xmlns="http://www.w3.org/2000/svg" xmlns:xlink="http://www.w3.org/1999/xlink" x="0px" y="0px"
	 width="48px" height="48px" viewBox="0 0 48 48" enable-background="new 0 0 48 48" xml:space="preserve">
<path d="M47,0H1C0.4,0,0,0.4,0,1v46c0,0.6,0.4,1,1,1h46c0.6,0,1-0.4,1-1V1C48,0.4,47.6,0,47,0z M46,2v32h-1.4l-6.8-13.6
	c-0.7-1.5-2.2-2.4-3.9-2.4c-1.5,0-3,0.8-3.8,2.2l-5.3,9C23.3,27.3,20,24,16,24c-4.9,0-8.6,7.6-9.7,10H2V2H46z M42.4,34H8.5
	c1.5-3.1,4.4-8,7.5-8c4.4,0,8.1,5.5,8.2,5.6c0.2,0.3,0.5,0.4,0.9,0.4c0.3,0,0.7-0.2,0.8-0.5l6-10.3c0.4-0.7,1.2-1.2,2-1.2
	c0.9,0,1.7,0.5,2.1,1.3L42.4,34z M2,46V36h44v10H2z M13,18h6c3.3,0,6-2.7,6-6s-2.7-6-6-6c-2.6,0-4.8,1.6-5.6,4C11,9.8,9,11.7,9,14
	C9,16.2,10.8,18,13,18z M13,12c0.2,0,0.5,0,0.7,0.1c0.3,0.1,0.6,0.1,0.9-0.1c0.3-0.2,0.4-0.4,0.5-0.7C15.4,9.4,17,8,19,8
	c2.2,0,4,1.8,4,4s-1.8,4-4,4h-6c-1.1,0-2-0.9-2-2S11.9,12,13,12z"/>
</svg>
