<?xml version="1.0" encoding="utf-8"?>
<!-- Generator: Adobe Illustrator 17.0.0, SVG Export Plug-In . SVG Version: 6.00 Build 0)  -->
<!DOCTYPE svg PUBLIC "-//W3C//DTD SVG 1.1//EN" "http://www.w3.org/Graphics/SVG/1.1/DTD/svg11.dtd">
<svg version="1.1" id="Layer_1" xmlns="http://www.w3.org/2000/svg" xmlns:xlink="http://www.w3.org/1999/xlink" x="0px" y="0px"
	 width="48px" height="48px" viewBox="0 0 48 48" enable-background="new 0 0 48 48" xml:space="preserve">
<path d="M38,26c0,7.7-6.3,14-14,14s-14-6.3-14-14c0-5.6,3.4-10.7,8.6-12.9c0.5-0.2,1.1,0,1.3,0.5c0.2,0.5,0,1.1-0.5,1.3
	C14.9,16.8,12,21.2,12,26c0,6.6,5.4,12,12,12c6.6,0,12-5.4,12-12c0-4.9-2.9-9.2-7.4-11.1c-0.5-0.2-0.8-0.8-0.5-1.3
	c0.2-0.5,0.8-0.8,1.3-0.5C34.6,15.3,38,20.3,38,26z M24,24c0.6,0,1-0.4,1-1V10c0-0.6-0.4-1-1-1s-1,0.4-1,1v13C23,23.6,23.4,24,24,24
	z"/>
</svg>
