<?xml version="1.0" encoding="utf-8"?>
<!-- Generator: Adobe Illustrator 17.0.0, SVG Export Plug-In . SVG Version: 6.00 Build 0)  -->
<!DOCTYPE svg PUBLIC "-//W3C//DTD SVG 1.1//EN" "http://www.w3.org/Graphics/SVG/1.1/DTD/svg11.dtd">
<svg version="1.1" id="Layer_1" xmlns="http://www.w3.org/2000/svg" xmlns:xlink="http://www.w3.org/1999/xlink" x="0px" y="0px"
	 width="48px" height="48px" viewBox="0 0 48 48" enable-background="new 0 0 48 48" xml:space="preserve">
<path d="M43,14H5c-2.8,0-5,2.2-5,5v12c0,2.8,2.2,5,5,5h5v9c0,0.6,0.4,1,1,1h26c0.6,0,1-0.4,1-1v-9h5c2.8,0,5-2.2,5-5V19
	C48,16.2,45.8,14,43,14z M36,44H12V30h24V44z M46,31c0,1.7-1.3,3-3,3h-5v-5c0-0.6-0.4-1-1-1H11c-0.6,0-1,0.4-1,1v5H5
	c-1.7,0-3-1.3-3-3V19c0-1.7,1.3-3,3-3h38c1.7,0,3,1.3,3,3V31z M11,12c0.6,0,1-0.4,1-1V4h18v5c0,0.6,0.4,1,1,1h5v1c0,0.6,0.4,1,1,1
	s1-0.4,1-1V9c0-0.1,0-0.3-0.1-0.4c-0.1-0.1-0.1-0.2-0.2-0.3l-6-6c-0.1-0.1-0.2-0.2-0.3-0.2C31.3,2,31.1,2,31,2H11c-0.6,0-1,0.4-1,1
	v8C10,11.6,10.4,12,11,12z M32,5.4L34.6,8H32V5.4z M7,18c-1.7,0-3,1.3-3,3s1.3,3,3,3s3-1.3,3-3S8.7,18,7,18z M7,22c-0.6,0-1-0.4-1-1
	s0.4-1,1-1s1,0.4,1,1S7.6,22,7,22z M34,33c0,0.6-0.4,1-1,1H15c-0.6,0-1-0.4-1-1s0.4-1,1-1h18C33.6,32,34,32.4,34,33z M34,37
	c0,0.6-0.4,1-1,1H15c-0.6,0-1-0.4-1-1s0.4-1,1-1h18C33.6,36,34,36.4,34,37z M34,41c0,0.6-0.4,1-1,1H15c-0.6,0-1-0.4-1-1s0.4-1,1-1
	h18C33.6,40,34,40.4,34,41z"/>
</svg>
