<?xml version="1.0" encoding="utf-8"?>
<!-- Generator: Adobe Illustrator 17.0.0, SVG Export Plug-In . SVG Version: 6.00 Build 0)  -->
<!DOCTYPE svg PUBLIC "-//W3C//DTD SVG 1.1//EN" "http://www.w3.org/Graphics/SVG/1.1/DTD/svg11.dtd">
<svg version="1.1" id="Layer_1" xmlns="http://www.w3.org/2000/svg" xmlns:xlink="http://www.w3.org/1999/xlink" x="0px" y="0px"
	 width="48px" height="48px" viewBox="0 0 48 48" enable-background="new 0 0 48 48" xml:space="preserve">
<path d="M45.8,18.6l-6,9c0,0-0.1,0.1-0.1,0.1c0,0-0.1,0.1-0.1,0.1c-0.1,0-0.1,0.1-0.2,0.1c-0.1,0-0.1,0.1-0.2,0.1c0,0-0.1,0-0.1,0
	c0,0,0,0-0.1,0c0,0,0,0,0,0c0,0,0,0,0,0c-0.1,0-0.2,0-0.2-0.1c0,0-0.1,0-0.1,0c-0.1-0.1-0.3-0.2-0.4-0.3l-7-8
	c-0.4-0.4-0.3-1,0.1-1.4c0.4-0.4,1-0.3,1.4,0.1l5.3,6c-0.2-4.8-1.8-9.2-4.7-12.5C30.1,8.3,25.6,6.2,20.7,6
	c-4.8-0.2-9.4,1.5-12.9,4.8C4.2,14.1,2.2,18.5,2,23.3c-0.2,4.8,1.5,9.4,4.8,12.9c3.3,3.5,7.7,5.6,12.5,5.7c0.6,0,1,0.5,1,1
	c0,0.5-0.5,1-1,1c0,0,0,0,0,0C13.9,44,9,41.5,5.3,37.6c-3.6-3.9-5.5-9-5.3-14.4C0.2,17.9,2.5,13,6.4,9.4c3.9-3.6,9-5.5,14.3-5.3
	c5.5,0.2,10.5,2.5,14.1,6.6c3.1,3.5,4.9,8.1,5.2,13.1l4.2-6.3c0.3-0.5,0.9-0.6,1.4-0.3C46,17.5,46.1,18.1,45.8,18.6z"/>
</svg>
