<?xml version="1.0" encoding="utf-8"?>
<!-- Generator: Adobe Illustrator 20.1.0, SVG Export Plug-In . SVG Version: 6.00 Build 0)  -->
<svg version="1.1" id="Layer_1" xmlns="http://www.w3.org/2000/svg" xmlns:xlink="http://www.w3.org/1999/xlink" x="0px" y="0px"
	 viewBox="0 0 48 48" style="enable-background:new 0 0 48 48;" xml:space="preserve">
<path d="M46,7v36c0,2.8-2.2,5-5,5H5c-2.8,0-5-2.2-5-5V7c0-2.8,2.2-5,5-5h6c0.6,0,1,0.4,1,1s-0.4,1-1,1H5C3.3,4,2,5.3,2,7v36
	c0,1.7,1.3,3,3,3h36c1.7,0,3-1.3,3-3V7c0-1.7-1.3-3-3-3H24v26.1l6.2-7.8c0.3-0.4,1-0.5,1.4-0.2c0.4,0.3,0.5,1,0.2,1.4l-8,10
	c0,0,0,0,0,0c-0.1,0.1-0.1,0.1-0.2,0.2c0,0-0.1,0.1-0.1,0.1C23.3,34,23.1,34,23,34s-0.3,0-0.4-0.1c0,0-0.1,0-0.1-0.1
	c-0.1-0.1-0.2-0.1-0.2-0.2c0,0,0,0,0,0l-8-10c-0.3-0.4-0.3-1.1,0.2-1.4c0.4-0.3,1.1-0.3,1.4,0.2l6.2,7.8V3c0-0.6,0.4-1,1-1h18
	C43.8,2,46,4.2,46,7z"/>
</svg>
