<?xml version="1.0" encoding="utf-8"?>
<!-- Generator: Adobe Illustrator 17.0.0, SVG Export Plug-In . SVG Version: 6.00 Build 0)  -->
<!DOCTYPE svg PUBLIC "-//W3C//DTD SVG 1.1//EN" "http://www.w3.org/Graphics/SVG/1.1/DTD/svg11.dtd">
<svg version="1.1" id="Layer_1" xmlns="http://www.w3.org/2000/svg" xmlns:xlink="http://www.w3.org/1999/xlink" x="0px" y="0px"
	 width="48px" height="48px" viewBox="0 0 48 48" enable-background="new 0 0 48 48" xml:space="preserve">
<path d="M39,30c-3.1,0-5.9,1.6-7.5,4.1l-14-7c0.4-1,0.6-2,0.6-3.1c0-1.1-0.2-2.1-0.6-3.1l14-7c1.7,2.6,4.5,4.1,7.5,4.1c5,0,9-4,9-9
	s-4-9-9-9s-9,4-9,9c0,1.1,0.2,2.1,0.6,3.1l-14,7C14.9,16.6,12.1,15,9,15c-5,0-9,4-9,9c0,5,4,9,9,9c3.1,0,5.9-1.6,7.5-4.1l14,7
	c-1,2.6-0.7,5.4,0.8,7.8C33,46.4,35.9,48,39,48c5,0,9-4,9-9S44,30,39,30z M39,2c3.9,0,7,3.1,7,7s-3.1,7-7,7c-2.7,0-5.1-1.5-6.3-3.9
	l0,0c-0.5-1-0.7-2-0.7-3.1C32,5.1,35.1,2,39,2z M8.9,31c-3.9,0-6.9-3.1-6.9-7c0-3.9,3.2-6.9,7-6.9c2.7,0,4.9,0.9,6.1,3.9H15
	c0,0,0-0.1,0-0.1c1,1,0.7,2,0.7,3.1c0,1.1,0.3,2.1-0.7,3.1c0,0,0,0,0,0C14,29.5,11.5,31,8.9,31z M39,46c-2.4,0-4.7-1.2-5.9-3.3
	c-1.3-2.1-1.4-4.6-0.3-6.8c1.2-2.4,3.6-3.9,6.3-3.9c3.9,0,7,3.1,7,7S42.9,46,39,46z"/>
</svg>
