<?xml version="1.0" encoding="utf-8"?>
<!-- Generator: Adobe Illustrator 17.0.0, SVG Export Plug-In . SVG Version: 6.00 Build 0)  -->
<!DOCTYPE svg PUBLIC "-//W3C//DTD SVG 1.1//EN" "http://www.w3.org/Graphics/SVG/1.1/DTD/svg11.dtd">
<svg version="1.1" id="Layer_1" xmlns="http://www.w3.org/2000/svg" xmlns:xlink="http://www.w3.org/1999/xlink" x="0px" y="0px"
	 width="48px" height="48px" viewBox="0 0 48 48" enable-background="new 0 0 48 48" xml:space="preserve">
<path d="M45,0H3C1.3,0,0,1.3,0,3v40c0,1.7,1.3,3,3,3h42c1.7,0,3-1.3,3-3V3C48,1.3,46.7,0,45,0z M46,43c0,0.6-0.4,1-1,1H3
	c-0.6,0-1-0.4-1-1V3c0-0.6,0.4-1,1-1h42c0.6,0,1,0.4,1,1V43z M41,10H28.9c-0.5-2.3-2.5-4-4.9-4s-4.4,1.7-4.9,4H7c-0.6,0-1,0.4-1,1
	s0.4,1,1,1h12.1c0.5,2.3,2.5,4,4.9,4s4.4-1.7,4.9-4H41c0.6,0,1-0.4,1-1S41.6,10,41,10z M24,14c-1.7,0-3-1.3-3-3s1.3-3,3-3
	c1.6,0,3,1.3,3,3c0,0,0,0,0,0s0,0,0,0C27,12.7,25.6,14,24,14z M41,22H20.9c-0.5-2.3-2.5-4-4.9-4s-4.4,1.7-4.9,4H7c-0.6,0-1,0.4-1,1
	s0.4,1,1,1h4.1c0.5,2.3,2.5,4,4.9,4s4.4-1.7,4.9-4H41c0.6,0,1-0.4,1-1S41.6,22,41,22z M16,26c-1.7,0-3-1.3-3-3s1.3-3,3-3
	c1.6,0,3,1.3,3,3c0,0,0,0,0,0s0,0,0,0C19,24.7,17.6,26,16,26z M41,34H24.9c-0.5-2.3-2.5-4-4.9-4s-4.4,1.7-4.9,4H7c-0.6,0-1,0.4-1,1
	s0.4,1,1,1h8.1c0.5,2.3,2.5,4,4.9,4s4.4-1.7,4.9-4H41c0.6,0,1-0.4,1-1S41.6,34,41,34z M20,38c-1.7,0-3-1.3-3-3s1.3-3,3-3
	c1.6,0,3,1.3,3,3c0,0,0,0,0,0s0,0,0,0C23,36.7,21.6,38,20,38z"/>
</svg>
