<?xml version="1.0" encoding="utf-8"?>
<!-- Generator: Adobe Illustrator 17.0.0, SVG Export Plug-In . SVG Version: 6.00 Build 0)  -->
<!DOCTYPE svg PUBLIC "-//W3C//DTD SVG 1.1//EN" "http://www.w3.org/Graphics/SVG/1.1/DTD/svg11.dtd">
<svg version="1.1" id="Layer_1" xmlns="http://www.w3.org/2000/svg" xmlns:xlink="http://www.w3.org/1999/xlink" x="0px" y="0px"
	 width="48px" height="48px" viewBox="0 0 48 48" enable-background="new 0 0 48 48" xml:space="preserve">
<path d="M7,22h12c0.6,0,1,0.4,1,1s-0.4,1-1,1H8v6h3c0.6,0,1,0.4,1,1s-0.4,1-1,1H7c-0.6,0-1-0.4-1-1v-8C6,22.4,6.4,22,7,22z M48,23v8
	c0,0.6-0.4,1-1,1H23c-0.6,0-1-0.4-1-1s0.4-1,1-1h13v-6h-5c-0.6,0-1-0.4-1-1s0.4-1,1-1h16C47.6,22,48,22.4,48,23z M46,24h-8v6h8V24z
	 M2,23v8c0,0.6,0.4,1,1,1s1-0.4,1-1v-8c0-0.6-0.4-1-1-1S2,22.4,2,23z M1,18c0.6,0,1-0.4,1-1v-4c0-2.8,2.2-5,5-5c3.9,0,7-3.1,7-7
	c0-0.6-0.4-1-1-1s-1,0.4-1,1c0,2.8-2.2,5-5,5c-3.9,0-7,3.1-7,7v4C0,17.6,0.4,18,1,18z M4,17c0,0.6,0.4,1,1,1s1-0.4,1-1
	c0-2.8,2.2-5,5-5c3.9,0,7-3.1,7-7c0-0.6-0.4-1-1-1s-1,0.4-1,1c0,2.8-2.2,5-5,5C7.1,10,4,13.1,4,17z M47.7,0.3c-0.4-0.4-1-0.4-1.4,0
	l-46,46c-0.4,0.4-0.4,1,0,1.4C0.5,47.9,0.7,48,1,48s0.5-0.1,0.7-0.3l46-46C48.1,1.3,48.1,0.7,47.7,0.3z"/>
</svg>
