<?xml version="1.0" encoding="utf-8"?>
<!-- Generator: Adobe Illustrator 17.0.0, SVG Export Plug-In . SVG Version: 6.00 Build 0)  -->
<!DOCTYPE svg PUBLIC "-//W3C//DTD SVG 1.1//EN" "http://www.w3.org/Graphics/SVG/1.1/DTD/svg11.dtd">
<svg version="1.1" id="Layer_1" xmlns="http://www.w3.org/2000/svg" xmlns:xlink="http://www.w3.org/1999/xlink" x="0px" y="0px"
	 width="48px" height="48px" viewBox="0 0 48 48" enable-background="new 0 0 48 48" xml:space="preserve">
<path d="M18.1,29.3C17.2,29,16.2,29,15.2,29h-0.1c-4.8,0-8.8,2.8-8.8,6.2c0,3.7,3.6,6.5,8.1,6.5c7.4,0,8.9-3.5,8.9-6.4
	c0-0.4-0.1-0.9-0.2-1.3c-0.4-1.8-1.9-2.8-4-4.2c-0.3-0.2-0.5-0.3-0.8-0.5C18.3,29.3,18.2,29.3,18.1,29.3z M21.2,34.4
	c0.1,0.3,0.1,0.6,0.1,0.8c0,1.1,0,4.4-6.9,4.4c-3.4,0-6.1-1.8-6.1-4.4c0-2.3,3.2-4.2,6.8-4.2h0.1c0.8,0,1.5-0.1,2.2,0.1
	c0.2,0.2,0.5,0.2,0.7,0.4C19.9,32.8,21,33.4,21.2,34.4z M27.4,2H15.2c-1.4,0-2.9,0.3-4.3,0.8C6,4.5,2.6,8.7,2.6,13
	c0,5.7,4.1,10.1,9.8,10.8c0,0.1,0,0.3,0,0.4c0,0.5,0.1,1,0.2,1.5c-5.3,0.4-9.9,3.2-11.8,7.2C0.3,34,0,35.2,0,36.4
	c0,1.2,0.3,2.3,0.9,3.4c1.3,2.3,4,4.1,7.7,5.1c1.8,0.5,3.8,0.7,5.8,0.7c1.9,0,3.6-0.2,5.3-0.7c5.3-1.5,8.7-5.5,8.7-10
	c0-4.3-1.4-6.9-5.1-9.5c-1.2-0.9-2.2-2-2.4-2.3c0-0.4,0.2-0.7,1.6-1.8c2.7-2.1,4.2-4.9,4.2-7.9c0-1.9-0.4-3.7-1.2-5.3
	c0.1-0.1,0.3-0.1,0.4-0.2l2.7-2c0.7-0.5,1-1.5,0.7-2.3C29,2.6,28.3,2,27.4,2z M24.7,6h-1c-0.4,0-0.7,0.3-0.9,0.6
	c-0.2,0.4-0.1,0.8,0.1,1.1c1.1,1.4,1.8,3.3,1.8,5.5c0,2.4-1.2,4.6-3.4,6.3c-1.9,1.5-2.4,2.2-2.4,3.6c0.1,1.2,2.2,3,3.2,3.8
	c3.1,2.2,4.2,4.3,4.2,7.9c0,3.7-2.8,6.8-7.2,8.1c-1.5,0.4-3,0.6-4.7,0.6c-1.9,0-3.7-0.2-5.4-0.6c-3.1-0.8-5.4-2.2-6.5-4.1
	C2.2,38,2,37.2,2,36.4c0-0.9,0.2-1.6,0.6-2.5C4.3,30.2,8.9,28,13.9,28h0.2c0.4,0,0.7-0.4,0.9-0.7c0.2-0.3,0.2-0.8,0-1.1
	c-0.4-0.6-0.5-1.3-0.5-2c0-0.3,0-0.7,0.1-1.1c0.1-0.3,0-0.6-0.2-0.9c-0.2-0.2-0.5-0.4-0.8-0.4c-5.2-0.1-9-3.8-9-8.8
	c0-3.5,2.8-6.9,6.9-8.3c1.2-0.4,2.5-0.6,3.7-0.6l12.2-0.1L24.7,6z M13.6,6C13.6,6,13.6,6,13.6,6c-1.2,0-2.4,0.4-3.2,1.4
	c-1.2,1.4-1.7,3.4-1.4,5.7c0.5,4.1,3.6,7.6,6.8,7.7c1.3,0,2.4-0.5,3.2-1.5c1.2-1.4,1.7-3.5,1.4-5.8C19.9,9.3,16.9,6,13.7,6H13.6z
	 M18.4,13.7c0.2,1.7-0.1,3.3-1,4.3c-0.5,0.5-1,0.8-1.7,0.8c-2.1-0.1-4.4-2.9-4.8-6c-0.2-1.7,0.1-3.2,0.9-4.1c0.5-0.5,1-0.7,1.7-0.7
	h0.1C15.8,8,18,10.6,18.4,13.7z M47,18h-5v-4.8c0-0.6-0.4-1.2-1-1.2h-4c-0.6,0-1,0.6-1,1.2V18h-5c-0.6,0-1,0.6-1,1.2v4
	c0,0.6,0.4,0.8,1,0.8h5v5.2c0,0.6,0.4,0.8,1,0.8h4c0.6,0,1-0.3,1-0.8V24h5c0.6,0,1-0.3,1-0.8v-4C48,18.6,47.6,18,47,18z M46,22h-5
	c-0.6,0-1,0.6-1,1.2V28h-2v-4.8c0-0.6-0.4-1.2-1-1.2h-5v-2h5c0.6,0,1-0.3,1-0.8V14h2v5.2c0,0.6,0.4,0.8,1,0.8h5V22z"/>
</svg>
