<?xml version="1.0" encoding="utf-8"?>
<!-- Generator: Adobe Illustrator 17.0.0, SVG Export Plug-In . SVG Version: 6.00 Build 0)  -->
<!DOCTYPE svg PUBLIC "-//W3C//DTD SVG 1.1//EN" "http://www.w3.org/Graphics/SVG/1.1/DTD/svg11.dtd">
<svg version="1.1" id="Layer_1" xmlns="http://www.w3.org/2000/svg" xmlns:xlink="http://www.w3.org/1999/xlink" x="0px" y="0px"
	 width="48px" height="48px" viewBox="0 0 48 48" enable-background="new 0 0 48 48" xml:space="preserve">
<path d="M46.7,9c-0.3-0.3-0.8-0.5-1.2-0.3c-0.7,0.3-1.3,0.5-1.9,0.5c0.6-0.8,0.9-1.6,1.2-2.7L45,6c0.1-0.4,0-0.8-0.3-1.1
	c-0.3-0.3-0.8-0.3-1.1-0.1c-1.5,0.9-3.2,1.6-4.9,2C36.8,5,34.3,4,31.7,4c-5.6,0-10.1,4.5-10.1,10.1c0,0.3,0,0.7,0,1
	C15.1,14.4,9,11.2,4.9,6C4.7,5.8,4.3,5.6,4,5.7c-0.3,0-0.6,0.2-0.8,0.5c-0.9,1.5-1.4,3.3-1.4,5.1c0,2.1,0.6,4.1,1.8,5.8
	c-0.1-0.1-0.3-0.1-0.4-0.2c-0.3-0.2-0.7-0.2-1,0C2,17,1.8,17.3,1.8,17.6l0,0.2c0,3.3,1.6,6.2,4,8.1c-0.2,0-0.5,0.1-0.6,0.3
	c-0.2,0.3-0.3,0.6-0.2,1c1,3.2,3.6,5.7,6.8,6.6c-3.2,1.8-6.9,2.6-10.7,2.2c-0.5-0.1-0.9,0.2-1.1,0.7c-0.2,0.4,0,0.9,0.4,1.2
	C4.8,40.5,9.8,42,14.9,42c16.8,0,26.9-13.7,26.9-26.9c0-0.2,0-0.4,0-0.7c0.2-0.2,0.5-0.3,0.7-0.5c1.6-1.1,3.2-2.2,4.2-3.8
	C47,9.9,46.9,9.4,46.7,9z M41.3,12.3c-0.4,0.3-0.8,0.5-1.2,0.8c-0.3,0.2-0.4,0.5-0.4,0.9c0,0.4,0,0.8,0,1.1
	c0,12.2-9.3,24.9-24.9,24.9c-3.4,0-6.8-0.7-9.9-2c3.7-0.4,7.1-1.7,10-4c0.3-0.3,0.5-0.7,0.3-1.1s-0.5-0.7-0.9-0.7
	c-2.9-0.1-5.5-1.7-6.9-4.1c0.9,0,1.9-0.1,2.8-0.4c0.4-0.1,0.8-0.5,0.7-1c0-0.5-0.3-0.9-0.8-0.9c-3.3-0.7-5.7-3.2-6.3-6.4
	c0.9,0.3,1.9,0.5,2.9,0.5c0.5,0,0.8-0.3,1-0.7s0-0.9-0.4-1.1c-2.3-1.5-3.6-4-3.6-6.7c0-0.9,0.2-1.9,0.5-2.8
	c4.8,5.2,11.4,8.3,18.4,8.7c0.3,0,0.6-0.1,0.8-0.4c0.2-0.2,0.3-0.6,0.2-0.9c-0.1-0.6-0.2-1.2-0.2-1.8c0-4.5,3.6-8.1,8.1-8.1
	c2.2,0,4.4,0.9,5.9,2.6c0.2,0.3,0.6,0.4,0.9,0.3c1.3-0.3,2.5-0.6,3.8-1.1c-0.3,0.4-0.6,0.7-1.3,1.1c-0.3,0.2-0.5,0.5-0.5,0.9
	s0.2,0.7,0.6,0.9c0.7,0.3,1.3,0.5,2,0.6C42.4,11.6,41.9,12,41.3,12.3z"/>
</svg>
