<?xml version="1.0" encoding="utf-8"?>
<!-- Generator: Adobe Illustrator 17.0.0, SVG Export Plug-In . SVG Version: 6.00 Build 0)  -->
<!DOCTYPE svg PUBLIC "-//W3C//DTD SVG 1.1//EN" "http://www.w3.org/Graphics/SVG/1.1/DTD/svg11.dtd">
<svg version="1.1" id="Layer_1" xmlns="http://www.w3.org/2000/svg" xmlns:xlink="http://www.w3.org/1999/xlink" x="0px" y="0px"
	 width="48px" height="48px" viewBox="0 0 48 48" enable-background="new 0 0 48 48" xml:space="preserve">
<path d="M48,9c0-5-4-9-9-9H9C4,0,0,4,0,9v30c0,5,4,9,9,9h30c5,0,9-4,9-9V9z M46,9v7H32.9c-2.2-2.4-5.4-4-8.9-4s-6.7,1.6-8.9,4H14V2
	h25C42.8,2,46,5.1,46,9z M24,14c5.5,0,10,4.5,10,10c0,5.5-4.5,10-10,10s-10-4.5-10-10C14,18.5,18.5,14,24,14z M6,2.7
	c1-0.3,1-0.5,2-0.6V16H6V2.7z M10,2h2v14h-2V2z M4,4.1V16H2V9C2,7.1,3,5.4,4,4.1z M39,46H9c-3.9,0-7-3.1-7-7V18h11.6
	c-1,1.8-1.6,3.8-1.6,6c0,6.6,5.4,12,12,12s12-5.4,12-12c0-2.2-0.6-4.2-1.6-6H46v21C46,42.9,42.8,46,39,46z M44,7c0-0.6-0.4-1-1-1h-6
	c-0.6,0-1,0.4-1,1v6c0,0.6,0.4,1,1,1h6c0.6,0,1-0.4,1-1V7z M38,8h4v4h-4V8z"/>
</svg>
