<?xml version="1.0" encoding="utf-8"?>
<!-- Generator: Adobe Illustrator 17.0.0, SVG Export Plug-In . SVG Version: 6.00 Build 0)  -->
<!DOCTYPE svg PUBLIC "-//W3C//DTD SVG 1.1//EN" "http://www.w3.org/Graphics/SVG/1.1/DTD/svg11.dtd">
<svg version="1.1" id="Layer_1" xmlns="http://www.w3.org/2000/svg" xmlns:xlink="http://www.w3.org/1999/xlink" x="0px" y="0px"
	 width="48px" height="48px" viewBox="0 0 48 48" enable-background="new 0 0 48 48" xml:space="preserve">
<path d="M27,48H17c-0.6,0-1-0.4-1-1V24h-5c-0.6,0-1-0.4-1-1v-8c0-0.6,0.4-1,1-1h5v-3.3C16,8.2,16.7,0,26.3,0l8.7,0c0.6,0,1,0.4,1,1
	v7.9c0,0.6-0.4,1-1,1h-6c-0.9,0-1,0.6-1,1.2V14h7.5c0.3,0,0.6,0.1,0.7,0.3s0.3,0.5,0.3,0.8l-0.8,8c-0.1,0.5-0.5,0.9-1,0.9H28v23
	C28,47.5,27.6,48,27,48z M18,46h8V23c0-0.6,0.4-1,1-1h6.8l0.6-6H27c-0.6,0-1-0.4-1-1v-3.8c0-2.4,1.6-3.2,3-3.2h5V2.1l-7.7,0
	C19.1,2,18,7.4,18,10.7V15c0,0.6-0.4,1-1,1h-5v6h5c0.6,0,1,0.4,1,1V46z"/>
</svg>
