<?xml version="1.0" encoding="utf-8"?>
<!-- Generator: Adobe Illustrator 20.1.0, SVG Export Plug-In . SVG Version: 6.00 Build 0)  -->
<svg version="1.1" id="Layer_1" xmlns="http://www.w3.org/2000/svg" xmlns:xlink="http://www.w3.org/1999/xlink" x="0px" y="0px"
	 viewBox="0 0 48 48" style="enable-background:new 0 0 48 48;" xml:space="preserve">
<path d="M12.4,12c0.6,0.5,0.8,1.2,0.6,1.9c-0.1,0.6-0.6,1.2-1.3,1.4c-0.2,0.1-0.4,0.1-0.7,0.1c-0.5,0-0.9-0.2-1.2-0.5
	c-0.5-0.4-0.8-1.1-0.7-1.9c0.1-0.8,0.6-1.4,1.3-1.6C11,11.3,11.8,11.5,12.4,12z M17.6,26c-0.2,1.6-0.1,3.2,0.4,4.7
	c0.1,0.3,0.1,0.6-0.1,0.9c-0.2,0.3-0.5,0.4-0.8,0.4c-2.1,0.1-4.2-0.2-6.3-0.8L9.3,32c-1.1,0.6-2.2,1.2-3.3,1.7
	c-0.1,0.1-0.3,0.1-0.5,0.1c-0.2,0-0.5-0.1-0.6-0.2c-0.3-0.3-0.4-0.7-0.3-1.1C5,31.3,5.4,30,5.8,28.7c-2.8-2.1-4.8-4.9-5.5-7.9
	c-0.8-3.1-0.2-6.5,1.5-9.4C3.6,8.6,6.5,6.4,10,5.1c5-1.8,10.8-1.4,15.3,1.2c3.7,2.1,6.4,5.6,7.2,9.4c0.1,0.3,0,0.6-0.2,0.9
	c-0.2,0.2-0.5,0.4-0.8,0.3c-4.1-0.3-8,1-10.6,3.5C19.1,21.9,18,23.9,17.6,26z M19.5,18.9c2.7-2.6,6.6-4,10.7-4
	c-0.9-2.8-3.1-5.2-5.8-6.8c0,0,0,0,0,0c-2.4-1.4-5.2-2.1-8-2.1c-1.9,0-3.9,0.3-5.7,1c-3,1.1-5.6,3.1-7.1,5.6
	c-1.5,2.4-1.9,5.3-1.3,7.8c0.7,2.8,2.5,5.3,5.3,7.1C8,27.8,8.1,28.3,8,28.7c-0.2,0.7-0.5,1.4-0.7,2.1c0.4-0.2,0.7-0.4,1.1-0.6l1.9-1
	c0.2-0.1,0.5-0.2,0.8-0.1c1.6,0.5,3.2,0.8,4.8,0.9c-0.3-1.4-0.3-2.9-0.1-4.3C16.1,23.1,17.4,20.7,19.5,18.9z M21.6,15.4
	c0.3,0,0.6-0.1,0.8-0.2c0.7-0.3,1.2-1,1.2-1.7c0-0.6-0.3-1.3-0.8-1.7c-0.6-0.4-1.3-0.5-1.8-0.3c-0.7,0.2-1.2,0.8-1.3,1.6
	c-0.1,0.7,0.2,1.4,0.7,1.9C20.7,15.3,21.1,15.4,21.6,15.4z M46.8,36.3c-0.7,1.5-2,3-3.6,4.2c0.3,1,0.6,2,1,3c0.1,0.4,0,0.8-0.3,1
	c-0.2,0.2-0.4,0.2-0.6,0.2c-0.1,0-0.3,0-0.4-0.1c-0.6-0.3-1.2-0.6-1.8-0.9c-0.7-0.4-1.4-0.8-2.1-1.1c-2.8,0.8-5.4,0.9-7.7,0.4
	c-4-0.7-7.5-3-9.4-6.1c-1.4-2.4-1.9-5.2-1.3-7.7c0.7-3.3,3.1-6.2,6.4-7.9c4.4-2.3,9.8-2.3,14.3-0.1c2.7,1.4,4.8,3.5,5.9,6
	C48.4,30.2,48.3,33.5,46.8,36.3z M45.3,28.1C45.3,28.1,45.3,28.1,45.3,28.1c-0.9-2.1-2.7-3.9-5-5c-3.8-2-8.6-1.9-12.4,0
	c-2.8,1.4-4.8,3.9-5.4,6.6c-0.5,2-0.1,4.3,1.1,6.2c1.6,2.6,4.6,4.6,8,5.2c2.2,0.4,4.5,0.3,7.1-0.5c0.1,0,0.2,0,0.3,0
	c0.1,0,0.2,0,0.4,0.1c0.8,0.3,1.5,0.7,2.2,1.1c-0.1-0.4-0.3-0.9-0.4-1.3c-0.1-0.4,0-0.9,0.4-1.1c1.7-1.2,2.9-2.5,3.6-4
	C46.2,33.2,46.3,30.4,45.3,28.1z M29.6,26.2c-0.6,0.2-1.1,0.8-1.3,1.4c-0.2,0.7,0.1,1.4,0.5,1.8c0.4,0.4,0.9,0.6,1.4,0.6
	c0.1,0,0.3,0,0.4,0c0.7-0.2,1.2-0.6,1.4-1.2c0.3-0.7,0.1-1.5-0.5-2.1C31.1,26.1,30.3,25.9,29.6,26.2z M38.6,26.1
	c-0.9,0-1.6,0.7-1.9,1.7c0,0.2,0,0.4,0,0.6l0,0.1c0.1,0.3,0.2,0.7,0.5,1c0.4,0.4,0.9,0.6,1.4,0.6c0.1,0,0.2,0,0.4,0
	c0.6-0.1,1.1-0.5,1.4-1c0.3-0.6,0.3-1.4-0.1-2C39.9,26.3,39.2,26,38.6,26.1z"/>
</svg>
