<?xml version="1.0" encoding="utf-8"?>
<!-- Generator: Adobe Illustrator 20.1.0, SVG Export Plug-In . SVG Version: 6.00 Build 0)  -->
<svg version="1.1" id="Layer_1" xmlns="http://www.w3.org/2000/svg" xmlns:xlink="http://www.w3.org/1999/xlink" x="0px" y="0px"
	 viewBox="0 0 48 48" style="enable-background:new 0 0 48 48;" xml:space="preserve">
<path d="M39,13V1c0-0.3-0.1-0.5-0.3-0.7S38.3,0,38,0h0L25.5,0c-0.3,0-0.5,0.1-0.7,0.3L0.3,24.8c-0.4,0.4-0.4,1,0,1.4l12.5,12.5
	c0.2,0.2,0.4,0.3,0.7,0.3c0.3,0,0.5-0.1,0.7-0.3l24.5-25C38.9,13.5,39,13.3,39,13z M37,12.6l-23.5,24L2.4,25.5L25.9,2L37,2V12.6z
	 M31,12c2.2,0,4-1.8,4-4s-1.8-4-4-4s-4,1.8-4,4S28.8,12,31,12z M31,6c1.1,0,2,0.9,2,2s-0.9,2-2,2s-2-0.9-2-2S29.9,6,31,6z
	 M46.9,46.6l-10-20c-0.3-0.7-1.4-0.7-1.8,0l-10,20c-0.2,0.3-0.1,0.7,0,1S25.7,48,26,48h20c0.3,0,0.7-0.2,0.9-0.5S47,46.9,46.9,46.6z
	 M27.6,46L36,29.2L44.4,46H27.6z M36,34.2c0.6,0,1,0.4,1,1v5.5c0,0.6-0.4,1-1,1s-1-0.4-1-1v-5.5C35,34.6,35.4,34.2,36,34.2z
	 M36.9,43.4c0,0.5-0.4,0.9-0.9,0.9s-0.9-0.4-0.9-0.9c0-0.5,0.4-0.9,0.9-0.9S36.9,42.9,36.9,43.4z"/>
</svg>
