<?xml version="1.0" encoding="utf-8"?>
<!-- Generator: Adobe Illustrator 17.0.0, SVG Export Plug-In . SVG Version: 6.00 Build 0)  -->
<!DOCTYPE svg PUBLIC "-//W3C//DTD SVG 1.1//EN" "http://www.w3.org/Graphics/SVG/1.1/DTD/svg11.dtd">
<svg version="1.1" id="Layer_1" xmlns="http://www.w3.org/2000/svg" xmlns:xlink="http://www.w3.org/1999/xlink" x="0px" y="0px"
	 width="48px" height="48px" viewBox="0 0 48 48" enable-background="new 0 0 48 48" xml:space="preserve">
<path d="M39,13.1V1c0-0.6-0.4-1-1-1H25.5c-0.3,0-0.5,0.1-0.7,0.3L0.3,24.9c-0.4,0.4-0.4,1,0,1.4l12.5,12.5C13,39,13.2,39,13.5,39
	c0,0,0,0,0,0c0.3,0,0.5,0,0.7-0.2l24.5-25C38.9,13.6,39,13.4,39,13.1z M37,12.7l-23.5,24L2.4,25.6L25.9,2H37V12.7z M31,12.1
	c2.2,0,4-1.8,4-4s-1.8-4-4-4c-2.2,0-4,1.8-4,4S28.8,12.1,31,12.1z M31,6.1c1.1,0,2,0.9,2,2c0,1.1-0.9,2-2,2s-2-0.9-2-2
	C29,7,29.9,6.1,31,6.1z M47,32.6C46.8,32.2,46.4,32,46,32h-6.4l-2.7-5.4C36.8,26.2,36.4,26,36,26c-0.4,0-0.7,0.2-0.9,0.6L32.4,32H26
	c-0.4,0-0.8,0.2-0.9,0.6C25,33,25,33.4,25.3,33.7l5.5,5.5l-2.8,7.4c-0.2,0.4,0,0.9,0.3,1.1s0.8,0.3,1.2,0l6.4-4.6l6.4,4.6
	c0.2,0.1,0.4,0.2,0.6,0.2c0.2,0,0.4-0.1,0.6-0.2c0.3-0.3,0.5-0.7,0.3-1.1l-2.8-7.4l5.5-5.5C47,33.4,47.1,33,47,32.6z M39.3,38.3
	C39,38.6,39,39,39.1,39.3l1.8,4.9l-4.3-3.1C36.4,41.1,36.2,41,36,41s-0.4,0.1-0.6,0.2l-4.3,3.1l1.8-4.9c0.1-0.4,0-0.8-0.2-1.1
	L28.4,34H33c0.4,0,0.7-0.2,0.9-0.6l2.1-4.2l2.1,4.2c0.2,0.3,0.5,0.6,0.9,0.6h4.6L39.3,38.3z"/>
</svg>
