<?xml version="1.0" encoding="utf-8"?>
<!-- Generator: Adobe Illustrator 19.2.1, SVG Export Plug-In . SVG Version: 6.00 Build 0)  -->
<!DOCTYPE svg PUBLIC "-//W3C//DTD SVG 1.1//EN" "http://www.w3.org/Graphics/SVG/1.1/DTD/svg11.dtd">
<svg version="1.1" id="Layer_1" xmlns="http://www.w3.org/2000/svg" xmlns:xlink="http://www.w3.org/1999/xlink" x="0px" y="0px"
	 viewBox="0 0 48 48" enable-background="new 0 0 48 48" xml:space="preserve">
<path d="M43,6H5c-2.8,0-5,2.2-5,5v28c0,2.8,2.2,5,5,5h38c2.8,0,5-2.2,5-5V11C48,8.2,45.8,6,43,6z M5,8h38c1.7,0,3,1.3,3,3v5H2v-5
	C2,9.3,3.3,8,5,8z M43,42H5c-1.7,0-3-1.3-3-3V18h44v21C46,40.7,44.7,42,43,42z M8,14c1.1,0,2-0.9,2-2s-0.9-2-2-2s-2,0.9-2,2
	S6.9,14,8,14z M14,14c1.1,0,2-0.9,2-2s-0.9-2-2-2s-2,0.9-2,2S12.9,14,14,14z M20,14c1.1,0,2-0.9,2-2s-0.9-2-2-2s-2,0.9-2,2
	S18.9,14,20,14z M11.7,24.3c-0.4-0.4-1-0.4-1.4,0s-0.4,1,0,1.4l4.3,4.3l-4.3,4.3c-0.4,0.4-0.4,1,0,1.4c0.2,0.2,0.5,0.3,0.7,0.3
	s0.5-0.1,0.7-0.3l5-5c0.4-0.4,0.4-1,0-1.4L11.7,24.3z M31,30h-8c-0.6,0-1,0.4-1,1s0.4,1,1,1h8c0.6,0,1-0.4,1-1S31.6,30,31,30z"/>
</svg>
