<?xml version="1.0" encoding="utf-8"?>
<!-- Generator: Adobe Illustrator 17.0.0, SVG Export Plug-In . SVG Version: 6.00 Build 0)  -->
<!DOCTYPE svg PUBLIC "-//W3C//DTD SVG 1.1//EN" "http://www.w3.org/Graphics/SVG/1.1/DTD/svg11.dtd">
<svg version="1.1" id="Layer_1" xmlns="http://www.w3.org/2000/svg" xmlns:xlink="http://www.w3.org/1999/xlink" x="0px" y="0px"
	 width="48px" height="48px" viewBox="0 0 48 48" enable-background="new 0 0 48 48" xml:space="preserve">
<path d="M33,20c0.4,0,0.7-0.2,0.9-0.6l4-8c0.2-0.3,0.1-0.7,0-1C37.7,10.2,37.3,10,37,10H11c-0.3,0-0.7,0.2-0.9,0.5
	c-0.2,0.3-0.2,0.7,0,1l4,8c0.2,0.3,0.5,0.6,0.9,0.6H33z M12.6,12h22.8l-3,6H15.6L12.6,12z M47.9,46.6l-8.2-20.3c1.3-3.2,2-6.7,2-10
	c0-4.6-1.4-8.6-4.1-11.4C34.6,1.7,30,0,24,0c-6,0-10.6,1.7-13.7,4.9c-2.7,2.8-4.1,6.8-4.1,11.4c0,3.2,0.7,6.7,2,9.9L0.1,46.6
	c-0.2,0.5,0,1.1,0.6,1.3C0.8,48,0.9,48,1,48c0.4,0,0.8-0.2,0.9-0.6L3.3,44h41.4l1.4,3.4c0.2,0.4,0.5,0.6,0.9,0.6
	c0.1,0,0.3,0,0.4-0.1C47.9,47.7,48.1,47.1,47.9,46.6z M40.7,34h-5.5c1.3-1.5,2.5-3.3,3.4-5.2L40.7,34z M30,36c-4,2.6-8,2.6-12,0
	c-0.7-1-1-2-1-3c0-3.3,3.1-6,7-6c3.9,0,7,2.7,7,6C31,34.1,30.7,35.1,30,36z M11.8,6.3C14.5,3.4,18.6,2,24,2s9.5,1.4,12.2,4.3
	c2.3,2.4,3.6,5.9,3.6,10c0,6-2.7,12.8-6.8,17.1c0-0.2,0-0.3,0-0.5c0-4.4-4-8-9-8c-5,0-9,3.6-9,8c0,0.2,0,0.3,0,0.5
	C11,29.1,8.2,22.3,8.2,16.3C8.2,12.2,9.4,8.8,11.8,6.3z M12.8,34H7.2l2.1-5.3C10.3,30.7,11.5,32.4,12.8,34z M4.1,42l2.4-6h8.3
	c2.7,2.5,5.9,4,9.3,4c3.4,0,6.6-1.5,9.3-4h8.2l2.4,6H4.1z"/>
</svg>
