<?xml version="1.0" encoding="utf-8"?>
<!-- Generator: Adobe Illustrator 20.1.0, SVG Export Plug-In . SVG Version: 6.00 Build 0)  -->
<svg version="1.1" id="Layer_1" xmlns="http://www.w3.org/2000/svg" xmlns:xlink="http://www.w3.org/1999/xlink" x="0px" y="0px"
	 viewBox="0 0 48 48" style="enable-background:new 0 0 48 48;" xml:space="preserve">
<path d="M43,10H5c-2.8,0-5,2.2-5,5v20c0,2.8,2.2,5,5,5h38c2.8,0,5-2.2,5-5V15C48,12.2,45.8,10,43,10z M46,35c0,1.7-1.3,3-3,3H5
	c-1.7,0-3-1.3-3-3V15c0-1.7,1.3-3,3-3h38c1.7,0,3,1.3,3,3V35z M4,16h2v18H4V16z M8,16h2v14H8V16z M12,16h2v14h-2V16z M18,16h2v14h-2
	V16z M22,16h2v14h-2V16z M30,16h2v14h-2V16z M34,16h2v14h-2V16z M38,16h2v14h-2V16z M42,16h2v18h-2V16z M8,32h2v2H8V32z M12,32h2v2
	h-2V32z M18,32h2v2h-2V32z M22,32h2v2h-2V32z M30,32h2v2h-2V32z M34,32h2v2h-2V32z M38,32h2v2h-2V32z"/>
</svg>
