<?xml version="1.0" encoding="utf-8"?>
<!-- Generator: Adobe Illustrator 20.1.0, SVG Export Plug-In . SVG Version: 6.00 Build 0)  -->
<svg version="1.1" id="Layer_1" xmlns="http://www.w3.org/2000/svg" xmlns:xlink="http://www.w3.org/1999/xlink" x="0px" y="0px"
	 viewBox="0 0 48 48" style="enable-background:new 0 0 48 48;" xml:space="preserve">
<path d="M28.6,27.6c-0.4-0.1-1-0.3-1.5-0.5c-1.4-0.4-2.8-0.8-3.7-1.4c-0.3-0.2-0.5-0.5-0.5-0.8v-5c0-0.4,0.2-0.8,0.6-0.9
	c0.1,0,2.4-1.1,2.4-5.1c0-0.4,0.2-0.8,0.6-0.9c0.2-0.5,0.2-1.8,0-2.3c-0.4-0.2-0.6-0.5-0.6-0.9c0-0.3,0.1-0.6,0.3-1
	c0.3-1,1-2.9,0.6-4.6c-0.3-1.2-2.7-2.1-5.5-2.1c-2.8,0-5.2,0.9-5.5,2.1c-0.1,0.5-0.6,0.8-1.2,0.7C14,4.8,13.6,4.8,13.4,5
	c-0.6,0.6,0.1,3.1,0.4,3.9C13.9,9.4,14,9.7,14,9.9c0,0.6-0.4,1-1,1c-0.1,0-0.2,0-0.3,0.2c-0.1,0.2-0.2,0.5-0.2,0.8
	c0,0.4,0.2,1,0.5,1c0.6,0,1,0.4,1,1c0,4,2.3,5,2.4,5.1c0.4,0.2,0.6,0.5,0.6,0.9v5c0,0.4-0.3,0.8-0.7,0.9c-1.4,0.5-2.7,0.9-4.1,1.3
	c-3.8,1.2-8,2.6-8.5,4c-0.6,1.9-1.3,5-1.6,6.7H23v2H1c-0.3,0-0.6-0.1-0.8-0.4C0,39.4,0,39.1,0,38.8c0-0.2,0.9-5.3,1.8-8.1
	c0.8-2.4,4.8-3.7,9.8-5.3c1.1-0.4,2.2-0.7,3.3-1.1v-3.7c-1-0.6-2.7-2.3-3-5.8c-0.9-0.4-1.5-1.5-1.5-2.8c0-0.7,0.2-1.4,0.5-1.9
	c0.2-0.3,0.5-0.6,0.7-0.7c-0.5-1.5-1.2-4.2,0.1-5.6c0.6-0.6,1.4-0.9,2.4-0.8c1.2-2,4.4-2.8,7.1-2.8c3,0,6.8,0.9,7.4,3.6
	c0.6,2.3-0.2,4.5-0.6,5.7c0.4,0.5,0.6,1.4,0.6,2.5c0,1.2-0.3,2.2-0.8,2.7c-0.2,3.6-2,5.3-3,6v3.8c0.7,0.3,1.7,0.6,2.7,0.9
	c0.6,0.2,1.1,0.3,1.6,0.5L28.6,27.6z M47.7,47.6c-0.2,0.2-0.5,0.3-0.7,0.3s-0.5-0.1-0.7-0.3l-5.4-5.4c-1.4,1.1-3.1,1.7-4.9,1.7
	c-4.4,0-8-3.6-8-8s3.6-8,8-8s8,3.6,8,8c0,1.8-0.6,3.5-1.7,4.9l5.4,5.4C48.1,46.6,48.1,47.2,47.7,47.6z M36,41.9
	c1.6,0,3.1-0.6,4.2-1.7c0,0,0-0.1,0.1-0.1s0.1,0,0.1-0.1c1-1.1,1.7-2.5,1.7-4.2c0-3.3-2.7-6-6-6s-6,2.7-6,6S32.7,41.9,36,41.9z"/>
</svg>
