<?xml version="1.0" encoding="utf-8"?>
<!-- Generator: Adobe Illustrator 20.1.0, SVG Export Plug-In . SVG Version: 6.00 Build 0)  -->
<svg version="1.1" id="Layer_1" xmlns="http://www.w3.org/2000/svg" xmlns:xlink="http://www.w3.org/1999/xlink" x="0px" y="0px"
	 viewBox="0 0 48 48" style="enable-background:new 0 0 48 48;" xml:space="preserve">
<path d="M37,26c-6.1,0-11,4.9-11,11s4.9,11,11,11s11-4.9,11-11S43.1,26,37,26z M46,37c0,2.1-0.7,4.1-2,5.6L31.4,30
	c1.5-1.2,3.5-2,5.6-2C42,28,46,32,46,37z M28,37c0-2.1,0.7-4.1,2-5.6L42.6,44c-1.5,1.2-3.5,2-5.6,2C32,46,28,42,28,37z M27.4,27.6
	c-1.5-0.5-3.1-1-4.7-1.6C22.3,25.8,22,25.4,22,25v-5c0-0.4,0.2-0.8,0.6-0.9C22.7,19,25,18,25,14c0-0.5,0.4-1,0.9-1
	c0.1-0.1,0.2-0.5,0.2-1.1s-0.2-1-0.2-1.1c-0.5,0-0.9-0.5-0.9-1c0-0.3,0.1-0.6,0.3-1.1c0.4-1,1.1-2.8,0.7-4.5
	c-0.3-1.2-2.7-2.1-5.5-2.1S15.3,3,15,4.2c-0.1,0.5-0.6,0.8-1.2,0.7c-0.7-0.1-1.2-0.1-1.4,0.1c-0.6,0.7,0.1,3.1,0.3,3.9
	c0.1,0.5,0.2,0.8,0.2,1c0,0.6-0.4,1-1,1c0,0-0.2,0.4-0.2,1s0.2,1,0.3,1c0.6,0,0.9,0.4,0.9,1c0,4,2.4,5.1,2.4,5.1
	c0.4,0.2,0.6,0.5,0.6,0.9v5c0,0.4-0.3,0.8-0.6,0.9c-1.5,0.6-3,1.1-4.5,1.6c-3.5,1.2-7.5,2.5-7.9,3.8C2.3,33.3,2.1,36.4,2,38h20v2H1
	c-0.3,0-0.5-0.1-0.7-0.3C0.1,39.5,0,39.3,0,39c0-0.2,0.1-5.3,1.1-8.3c0.8-2.3,4.5-3.5,9.2-5.1c1.2-0.4,2.5-0.8,3.8-1.3v-3.7
	c-1-0.7-2.8-2.3-3-5.9c-0.7-0.5-1.2-1.5-1.2-2.7c0-0.7,0.1-1.3,0.4-1.8c0.2-0.3,0.4-0.6,0.6-0.7C10.4,7.9,9.6,5.2,11,3.7
	c0.6-0.6,1.4-0.9,2.4-0.8c1.2-2,4.4-2.8,7.1-2.8c3,0,6.8,0.9,7.5,3.6c0.5,2.2-0.2,4.3-0.7,5.6c0.6,0.5,0.9,1.4,0.9,2.6
	c0,1.3-0.5,2.3-1.2,2.8c-0.2,3.5-2,5.2-3,5.9v3.7c1.4,0.5,2.7,0.9,4,1.4l0.3,0.1l-0.6,1.9L27.4,27.6z"/>
</svg>
