<?xml version="1.0" encoding="utf-8"?>
<!-- Generator: Adobe Illustrator 17.0.0, SVG Export Plug-In . SVG Version: 6.00 Build 0)  -->
<!DOCTYPE svg PUBLIC "-//W3C//DTD SVG 1.1//EN" "http://www.w3.org/Graphics/SVG/1.1/DTD/svg11.dtd">
<svg version="1.1" id="Layer_1" xmlns="http://www.w3.org/2000/svg" xmlns:xlink="http://www.w3.org/1999/xlink" x="0px" y="0px"
	 width="48px" height="48px" viewBox="0 0 48 48" enable-background="new 0 0 48 48" xml:space="preserve">
<path fill="#010101" d="M20,24c0,0.3,0.1,0.6,0.3,0.7l26,23c0.3,0.3,0.7,0.3,1.1,0.2c0.4-0.2,0.6-0.5,0.6-0.9V1
	c0-0.4-0.2-0.8-0.6-0.9C47.3,0,47.1,0,47,0c-0.2,0-0.5,0.1-0.7,0.3l-26,23C20.1,23.4,20,23.7,20,24z M46,3.2v41.6L22.5,24L46,3.2z
	 M0,24c0-0.3,0.1-0.6,0.3-0.7l26-23C26.5,0.1,26.8,0,27,0c0.1,0,0.3,0,0.4,0.1C27.8,0.2,28,0.6,28,1v9c0,0.6-0.4,1-1,1s-1-0.4-1-1
	V3.2L2.5,24L26,44.8V38c0-0.6,0.4-1,1-1s1,0.4,1,1v9c0,0.4-0.2,0.8-0.6,0.9c-0.4,0.2-0.8,0.1-1.1-0.2l-26-23C0.1,24.6,0,24.3,0,24z"
	/>
</svg>
