<?xml version="1.0" encoding="utf-8"?>
<!-- Generator: Adobe Illustrator 20.1.0, SVG Export Plug-In . SVG Version: 6.00 Build 0)  -->
<svg version="1.1" id="Layer_1" xmlns="http://www.w3.org/2000/svg" xmlns:xlink="http://www.w3.org/1999/xlink" x="0px" y="0px"
	 viewBox="0 0 48 48" style="enable-background:new 0 0 48 48;" xml:space="preserve">
<path d="M47,2H17c-0.6,0-1,0.4-1,1v10c0,0.6,0.4,1,1,1h30c0.6,0,1-0.4,1-1V3C48,2.4,47.6,2,47,2z M46,12H18V4h28V12z M47,18H17
	c-0.6,0-1,0.4-1,1v10c0,0.6,0.4,1,1,1h30c0.6,0,1-0.4,1-1V19C48,18.4,47.6,18,47,18z M46,28H18v-8h28V28z M47,34H17
	c-0.6,0-1,0.4-1,1v10c0,0.6,0.4,1,1,1h30c0.6,0,1-0.4,1-1V35C48,34.4,47.6,34,47,34z M46,44H18v-8h28V44z M11,2H1C0.4,2,0,2.4,0,3
	v10c0,0.6,0.4,1,1,1h10c0.6,0,1-0.4,1-1V3C12,2.4,11.6,2,11,2z M10,12H2V4h8V12z M11,18H1c-0.6,0-1,0.4-1,1v10c0,0.6,0.4,1,1,1h10
	c0.6,0,1-0.4,1-1V19C12,18.4,11.6,18,11,18z M10,28H2v-8h8V28z M11,34H1c-0.6,0-1,0.4-1,1v10c0,0.6,0.4,1,1,1h10c0.6,0,1-0.4,1-1V35
	C12,34.4,11.6,34,11,34z M10,44H2v-8h8V44z"/>
</svg>
