<?xml version="1.0" encoding="utf-8"?>
<!-- Generator: Adobe Illustrator 20.1.0, SVG Export Plug-In . SVG Version: 6.00 Build 0)  -->
<svg version="1.1" id="Layer_1" xmlns="http://www.w3.org/2000/svg" xmlns:xlink="http://www.w3.org/1999/xlink" x="0px" y="0px"
	 viewBox="0 0 48 48" style="enable-background:new 0 0 48 48;" xml:space="preserve">
<path d="M29,16H17c-0.6,0-1-0.4-1-1V3c0-0.6,0.4-1,1-1h12c0.6,0,1,0.4,1,1v12C30,15.6,29.6,16,29,16z M18,14h10V4H18V14z M13,16H1
	c-0.6,0-1-0.4-1-1V3c0-0.6,0.4-1,1-1h12c0.6,0,1,0.4,1,1v12C14,15.6,13.6,16,13,16z M2,14h10V4H2V14z M45,16H33c-0.6,0-1-0.4-1-1V3
	c0-0.6,0.4-1,1-1h12c0.6,0,1,0.4,1,1v12C46,15.6,45.6,16,45,16z M34,14h10V4H34V14z M29,32H17c-0.6,0-1-0.4-1-1V19c0-0.6,0.4-1,1-1
	h12c0.6,0,1,0.4,1,1v12C30,31.6,29.6,32,29,32z M18,30h10V20H18V30z M13,32H1c-0.6,0-1-0.4-1-1V19c0-0.6,0.4-1,1-1h12
	c0.6,0,1,0.4,1,1v12C14,31.6,13.6,32,13,32z M2,30h10V20H2V30z M45,32H33c-0.6,0-1-0.4-1-1V19c0-0.6,0.4-1,1-1h12c0.6,0,1,0.4,1,1
	v12C46,31.6,45.6,32,45,32z M34,30h10V20H34V30z M29,48H17c-0.6,0-1-0.4-1-1V35c0-0.6,0.4-1,1-1h12c0.6,0,1,0.4,1,1v12
	C30,47.6,29.6,48,29,48z M18,46h10V36H18V46z M13,48H1c-0.6,0-1-0.4-1-1V35c0-0.6,0.4-1,1-1h12c0.6,0,1,0.4,1,1v12
	C14,47.6,13.6,48,13,48z M2,46h10V36H2V46z M45,48H33c-0.6,0-1-0.4-1-1V35c0-0.6,0.4-1,1-1h12c0.6,0,1,0.4,1,1v12
	C46,47.6,45.6,48,45,48z M34,46h10V36H34V46z"/>
</svg>
