<?xml version="1.0" encoding="utf-8"?>
<!-- Generator: Adobe Illustrator 20.1.0, SVG Export Plug-In . SVG Version: 6.00 Build 0)  -->
<svg version="1.1" id="Layer_1" xmlns="http://www.w3.org/2000/svg" xmlns:xlink="http://www.w3.org/1999/xlink" x="0px" y="0px"
	 viewBox="0 0 48 48" style="enable-background:new 0 0 48 48;" xml:space="preserve">
<g>
	<path d="M21,0H1C0.4,0,0,0.4,0,1v20c0,0.6,0.4,1,1,1h20c0.6,0,1-0.4,1-1V1C22,0.4,21.6,0,21,0z M20,20H2V2h18V20z"/>
	<path d="M47,0H27c-0.6,0-1,0.4-1,1v20c0,0.6,0.4,1,1,1h20c0.6,0,1-0.4,1-1V1C48,0.4,47.6,0,47,0z M46,20H28V2h18V20z"/>
	<path d="M21,26H1c-0.6,0-1,0.4-1,1v20c0,0.6,0.4,1,1,1h20c0.6,0,1-0.4,1-1V27C22,26.4,21.6,26,21,26z M20,46H2V28h18V46z"/>
	<path d="M47,26H27c-0.6,0-1,0.4-1,1v20c0,0.6,0.4,1,1,1h20c0.6,0,1-0.4,1-1V27C48,26.4,47.6,26,47,26z M46,46H28V28h18V46z"/>
</g>
</svg>
