<?xml version="1.0" encoding="utf-8"?>
<!-- Generator: Adobe Illustrator 20.1.0, SVG Export Plug-In . SVG Version: 6.00 Build 0)  -->
<svg version="1.1" id="Layer_1" xmlns="http://www.w3.org/2000/svg" xmlns:xlink="http://www.w3.org/1999/xlink" x="0px" y="0px"
	 viewBox="0 0 48 48" style="enable-background:new 0 0 48 48;" xml:space="preserve">
<path d="M30,37c0,0.6-0.4,1-1,1s-1-0.4-1-1s0.4-1,1-1S30,36.4,30,37z M41,39c-0.6,0-1,0.4-1,1s0.4,1,1,1c0.6,0,1-0.4,1-1
	S41.6,39,41,39z M41,45c-0.6,0-1,0.4-1,1s0.4,1,1,1c0.6,0,1-0.4,1-1S41.6,45,41,45z M29,42c-0.6,0-1,0.4-1,1s0.4,1,1,1s1-0.4,1-1
	S29.6,42,29,42z M37,42c-0.6,0-1,0.4-1,1s0.4,1,1,1c0.6,0,1-0.4,1-1S37.6,42,37,42z M33,45c-0.6,0-1,0.4-1,1s0.4,1,1,1
	c0.6,0,1-0.4,1-1S33.6,45,33,45z M37,36c-0.6,0-1,0.4-1,1s0.4,1,1,1c0.6,0,1-0.4,1-1S37.6,36,37,36z M33,39c-0.6,0-1,0.4-1,1
	s0.4,1,1,1c0.6,0,1-0.4,1-1S33.6,39,33,39z M25,39c-0.6,0-1,0.4-1,1s0.4,1,1,1s1-0.4,1-1S25.6,39,25,39z M25,45c-0.6,0-1,0.4-1,1
	s0.4,1,1,1s1-0.4,1-1S25.6,45,25,45z M21,42c-0.6,0-1,0.4-1,1s0.4,1,1,1s1-0.4,1-1S21.6,42,21,42z M17,45c-0.6,0-1,0.4-1,1
	s0.4,1,1,1s1-0.4,1-1S17.6,45,17,45z M21,36c-0.6,0-1,0.4-1,1s0.4,1,1,1s1-0.4,1-1S21.6,36,21,36z M17,39c-0.6,0-1,0.4-1,1
	s0.4,1,1,1s1-0.4,1-1S17.6,39,17,39z M6.4,4.9L4.8,3.4C4.4,3,3.8,3,3.4,3.4s-0.4,1,0,1.4L5,6.3c0.2,0.2,0.5,0.3,0.7,0.3
	c0.3,0,0.5-0.1,0.7-0.3C6.8,5.9,6.8,5.3,6.4,4.9z M24.3,6.6c0.3,0,0.5-0.1,0.7-0.3l1.6-1.6c0.4-0.4,0.4-1,0-1.4
	c-0.4-0.4-1-0.4-1.4,0l-1.6,1.6c-0.4,0.4-0.4,1,0,1.4C23.8,6.5,24.1,6.6,24.3,6.6z M44.7,26c0.7-2.1,0.3-4.4-1.1-6.2
	C42.2,18,40.2,17,37.9,17c-1.9-4.2-6.2-7-10.9-7c-5.9,0-11,4.4-11.9,10.2C9.9,21,6,25.6,6,31c0,3.9,2.1,7.5,5.4,9.5
	c0.2,0.1,0.3,0.1,0.5,0.1c0.3,0,0.7-0.2,0.9-0.5c0.3-0.5,0.1-1.1-0.3-1.4C9.7,37.1,8,34.2,8,31c0-4.7,3.5-8.5,8.1-9
	c0.5,0,0.9-0.4,0.9-0.9C17.5,16,21.9,12,27,12c4.2,0,7.8,2.5,9.3,6.4c0.2,0.4,0.6,0.7,1.1,0.6c1.8-0.2,3.5,0.5,4.6,2
	c1.1,1.5,1.3,3.3,0.6,5c-0.2,0.4,0,1,0.4,1.2c1.9,1.3,3.1,3.5,3.1,5.8c0,2.1-1,4.1-2.6,5.5c-0.4,0.3-0.5,1-0.2,1.4
	c0.3,0.4,1,0.5,1.4,0.2c2.2-1.7,3.4-4.3,3.4-7C48,30.3,46.8,27.7,44.7,26z M7.5,20c0.2,0.3,0.5,0.4,0.8,0.4c0.2,0,0.4-0.1,0.6-0.2
	c0.5-0.3,0.6-0.9,0.3-1.4C8.4,17.7,8,16.4,8,15c0-3.9,3.1-7,7-7c1.6,0,3.2,0.5,4.4,1.6c0.4,0.3,1.1,0.3,1.4-0.1
	C21.2,9,21.1,8.4,20.7,8c-1.6-1.3-3.6-2-5.7-2c-5,0-9,4-9,9C6,16.8,6.5,18.5,7.5,20z M3,12H1c-0.6,0-1,0.4-1,1s0.4,1,1,1h2
	c0.6,0,1-0.4,1-1S3.6,12,3,12z M15,4c0.6,0,1-0.4,1-1V1c0-0.6-0.4-1-1-1s-1,0.4-1,1v2C14,3.6,14.4,4,15,4z"/>
</svg>
