<?xml version="1.0" encoding="utf-8"?>
<!-- Generator: Adobe Illustrator 20.1.0, SVG Export Plug-In . SVG Version: 6.00 Build 0)  -->
<svg version="1.1" id="Layer_1" xmlns="http://www.w3.org/2000/svg" xmlns:xlink="http://www.w3.org/1999/xlink" x="0px" y="0px"
	 viewBox="0 0 48 48" style="enable-background:new 0 0 48 48;" xml:space="preserve">
<path d="M38.7,32c0.7-2.1,0.3-4.4-1.1-6.2C36.2,24,34.1,23,31.9,23c-1.9-4.2-6.2-7-10.9-7c-5.9,0-11,4.4-11.9,10.2
	C3.9,27,0,31.6,0,37c0,6.1,4.9,11,11,11h22c5,0,9-4,9-9C42,36.3,40.8,33.7,38.7,32z M33,46H11c-5,0-9-4-9-9c0-4.7,3.5-8.5,8.1-9
	c0.5,0,0.9-0.4,0.9-0.9C11.5,22,15.9,18,21,18c4.1,0,7.8,2.6,9.3,6.4c0.2,0.4,0.6,0.7,1.1,0.6c1.8-0.2,3.5,0.5,4.6,2
	c1.1,1.5,1.3,3.3,0.6,5c-0.2,0.4,0,1,0.4,1.2c1.9,1.3,3.1,3.5,3.1,5.8C40,42.9,36.9,46,33,46z M48,23c0,2.7-1.2,5.3-3.3,7
	c-0.2,0.2-0.4,0.2-0.6,0.2c-0.3,0-0.6-0.1-0.8-0.4c-0.3-0.4-0.3-1.1,0.1-1.4c1.6-1.3,2.6-3.3,2.6-5.4c0-2.3-1.1-4.5-3.1-5.8
	c-0.4-0.3-0.5-0.8-0.4-1.2c0.7-1.7,0.5-3.5-0.6-5c-1.1-1.5-2.8-2.2-4.6-2c-0.4,0.1-0.9-0.2-1.1-0.6C34.8,4.5,31.2,2,27,2
	c-5.1,0-9.5,4-10,9.1c0,0.5-0.4,0.9-0.9,0.9C11.5,12.5,8,16.3,8,21c0,0.6-0.4,1-1,1s-1-0.4-1-1c0-5.4,3.9-10,9.1-10.8
	C16,4.4,21.1,0,27,0c4.7,0,9,2.8,10.9,7c2.2,0,4.3,1,5.7,2.8c1.4,1.8,1.8,4.1,1.1,6.2C46.8,17.7,48,20.3,48,23z"/>
</svg>
