<?xml version="1.0" encoding="utf-8"?>
<!-- Generator: Adobe Illustrator 20.1.0, SVG Export Plug-In . SVG Version: 6.00 Build 0)  -->
<svg version="1.1" id="Layer_1" xmlns="http://www.w3.org/2000/svg" xmlns:xlink="http://www.w3.org/1999/xlink" x="0px" y="0px"
	 viewBox="0 0 48 48" style="enable-background:new 0 0 48 48;" xml:space="preserve">
<path d="M15.7,36.7l-10,10C5.5,46.9,5.3,47,5,47s-0.5-0.1-0.7-0.3c-0.4-0.4-0.4-1,0-1.4l10-10c0.4-0.4,1-0.4,1.4,0
	S16.1,36.3,15.7,36.7z M25.7,35.4c-0.4-0.4-1-0.4-1.4,0l-10,10c-0.4,0.4-0.4,1,0,1.4c0.2,0.2,0.5,0.3,0.7,0.3s0.5-0.1,0.7-0.3l10-10
	C26.1,36.5,26.1,35.8,25.7,35.4z M34.3,35.4l-10,10c-0.4,0.4-0.4,1,0,1.4c0.2,0.2,0.5,0.3,0.7,0.3s0.5-0.1,0.7-0.3l10-10
	c0.4-0.4,0.4-1,0-1.4S34.7,35,34.3,35.4z M46,23c0,5-4,9-9,9H15C8.9,32,4,27.1,4,21c0-5.4,3.9-10,9.1-10.8C14,4.4,19.1,0,25,0
	c4.7,0,9,2.8,10.9,7c2.3,0,4.3,1,5.7,2.8c1.4,1.8,1.8,4.1,1.1,6.2C44.8,17.7,46,20.3,46,23z M44,23c0-2.3-1.1-4.5-3.1-5.8
	c-0.4-0.3-0.5-0.8-0.4-1.2c0.7-1.7,0.5-3.5-0.6-5c-1.1-1.5-2.8-2.2-4.6-2c-0.4,0.1-0.9-0.2-1.1-0.6C32.8,4.5,29.2,2,25,2
	c-5.1,0-9.5,4-10,9.1c0,0.5-0.4,0.9-0.9,0.9C9.5,12.5,6,16.3,6,21c0,5,4,9,9,9h22C40.9,30,44,26.9,44,23z"/>
</svg>
