<?xml version="1.0" encoding="utf-8"?>
<!-- Generator: Adobe Illustrator 20.1.0, SVG Export Plug-In . SVG Version: 6.00 Build 0)  -->
<svg version="1.1" id="Layer_1" xmlns="http://www.w3.org/2000/svg" xmlns:xlink="http://www.w3.org/1999/xlink" x="0px" y="0px"
	 viewBox="0 0 48 48" style="enable-background:new 0 0 48 48;" xml:space="preserve">
<path d="M42.7,16c0.7-2.1,0.3-4.4-1.1-6.2C40.2,8,38.2,7,35.9,7C34,2.8,29.7,0,25,0c-5.9,0-11,4.4-11.9,10.2C7.9,11,4,15.6,4,21
	c0,6.1,4.9,11,11,11h22c5,0,9-4,9-9C46,20.3,44.8,17.7,42.7,16z M37,30H15c-5,0-9-4-9-9c0-4.7,3.5-8.5,8.1-9c0.5,0,0.9-0.4,0.9-0.9
	C15.5,6,19.9,2,25,2c4.2,0,7.8,2.5,9.3,6.4c0.2,0.4,0.6,0.7,1.1,0.6c1.8-0.2,3.5,0.5,4.6,2s1.3,3.3,0.6,5c-0.2,0.4,0,1,0.4,1.2
	c1.9,1.3,3.1,3.5,3.1,5.8C44,26.9,40.9,30,37,30z M26,37c0,0.6-0.4,1-1,1s-1-0.4-1-1s0.4-1,1-1S26,36.4,26,37z M38,40
	c0,0.6-0.4,1-1,1s-1-0.4-1-1s0.4-1,1-1S38,39.4,38,40z M38,46c0,0.6-0.4,1-1,1s-1-0.4-1-1s0.4-1,1-1S38,45.4,38,46z M26,43
	c0,0.6-0.4,1-1,1s-1-0.4-1-1s0.4-1,1-1S26,42.4,26,43z M34,43c0,0.6-0.4,1-1,1s-1-0.4-1-1s0.4-1,1-1S34,42.4,34,43z M30,46
	c0,0.6-0.4,1-1,1s-1-0.4-1-1s0.4-1,1-1S30,45.4,30,46z M34,37c0,0.6-0.4,1-1,1s-1-0.4-1-1s0.4-1,1-1S34,36.4,34,37z M30,40
	c0,0.6-0.4,1-1,1s-1-0.4-1-1s0.4-1,1-1S30,39.4,30,40z M22,40c0,0.6-0.4,1-1,1s-1-0.4-1-1s0.4-1,1-1S22,39.4,22,40z M22,46
	c0,0.6-0.4,1-1,1s-1-0.4-1-1s0.4-1,1-1S22,45.4,22,46z M18,43c0,0.6-0.4,1-1,1s-1-0.4-1-1s0.4-1,1-1S18,42.4,18,43z M14,46
	c0,0.6-0.4,1-1,1s-1-0.4-1-1s0.4-1,1-1S14,45.4,14,46z M18,37c0,0.6-0.4,1-1,1s-1-0.4-1-1s0.4-1,1-1S18,36.4,18,37z M14,40
	c0,0.6-0.4,1-1,1s-1-0.4-1-1s0.4-1,1-1S14,39.4,14,40z"/>
</svg>
