<?xml version="1.0" encoding="utf-8"?>
<!-- Generator: Adobe Illustrator 20.1.0, SVG Export Plug-In . SVG Version: 6.00 Build 0)  -->
<svg version="1.1" id="Layer_1" xmlns="http://www.w3.org/2000/svg" xmlns:xlink="http://www.w3.org/1999/xlink" x="0px" y="0px"
	 viewBox="0 0 48 48" style="enable-background:new 0 0 48 48;" xml:space="preserve">
<path d="M22.9,41.6c0.2,0.4,0.1,0.8-0.2,1.1l-5,5C17.5,47.9,17.3,48,17,48c-0.3,0-0.5-0.1-0.7-0.3c-0.4-0.4-0.4-1,0-1.4l3.3-3.3H17
	c-0.4,0-0.8-0.2-0.9-0.6c-0.2-0.4-0.1-0.8,0.2-1.1l5-5c0.4-0.4,1-0.4,1.4,0c0.4,0.4,0.4,1,0,1.4L19.4,41H22
	C22.4,41,22.8,41.3,22.9,41.6z M33.3,36.2l-10,10c-0.4,0.4-0.4,1,0,1.4c0.2,0.2,0.5,0.3,0.7,0.3s0.5-0.1,0.7-0.3l10-10
	c0.4-0.4,0.4-1,0-1.4S33.7,35.9,33.3,36.2z M13.3,36.2l-10,10c-0.4,0.4-0.4,1,0,1.4C3.5,47.9,3.7,48,4,48s0.5-0.1,0.7-0.3l10-10
	c0.4-0.4,0.4-1,0-1.4S13.7,35.9,13.3,36.2z M38.7,26.1c0.7-2.1,0.3-4.4-1.1-6.2C36.2,18,34.2,17,31.9,17c-1.9-4.2-6.2-7-10.9-7
	c-5.9,0-11,4.4-11.9,10.2C3.9,21.1,0,25.6,0,31c0,3.9,2.1,7.5,5.4,9.5c0.2,0.1,0.3,0.1,0.5,0.1c0.3,0,0.7-0.2,0.9-0.5
	C7,39.7,6.9,39,6.4,38.8C3.7,37.1,2,34.2,2,31c0-4.7,3.5-8.5,8.1-9c0.5,0,0.9-0.4,0.9-0.9C11.5,16,15.9,12,21,12
	c4.2,0,7.8,2.5,9.3,6.4c0.2,0.4,0.6,0.7,1.1,0.6c1.8-0.2,3.5,0.5,4.6,2c1.1,1.5,1.3,3.3,0.6,5c-0.2,0.4,0,1,0.4,1.2
	c1.9,1.3,3.1,3.5,3.1,5.8c0,2.1-1,4.1-2.6,5.5c-0.4,0.3-0.5,1-0.2,1.4c0.3,0.4,1,0.5,1.4,0.2c2.2-1.7,3.4-4.3,3.4-7
	C42,30.3,40.8,27.8,38.7,26.1z M47.4,22.2c-3.7-1.8-6.1-5.5-6.1-9.6c0-4.1,2.4-7.8,6.1-9.6C47.8,2.9,48,2.5,48,2.1
	c0-0.4-0.2-0.7-0.6-0.9C45.7,0.4,43.9,0,42,0c-6,0-11,4.1-12.3,9.9c-0.1,0.5,0.2,1.1,0.8,1.2c0.5,0.1,1.1-0.2,1.2-0.8
	C32.8,5.4,37,2,42,2c0.9,0,1.8,0.1,2.7,0.3c-3.3,2.3-5.3,6.2-5.3,10.3c0,4.1,2,7.9,5.3,10.3c-0.1,0-0.2,0.1-0.4,0.1
	c-0.5,0.1-0.9,0.7-0.8,1.2c0.1,0.5,0.5,0.8,1,0.8c0.1,0,0.1,0,0.2,0c0.9-0.2,1.8-0.5,2.7-0.9c0.3-0.2,0.6-0.5,0.6-0.9
	C48,22.7,47.8,22.4,47.4,22.2z"/>
</svg>
