<?xml version="1.0" encoding="utf-8"?>
<!-- Generator: Adobe Illustrator 20.1.0, SVG Export Plug-In . SVG Version: 6.00 Build 0)  -->
<svg version="1.1" id="Layer_1" xmlns="http://www.w3.org/2000/svg" xmlns:xlink="http://www.w3.org/1999/xlink" x="0px" y="0px"
	 viewBox="0 0 48 48" style="enable-background:new 0 0 48 48;" xml:space="preserve">
<path d="M23,8C14.7,8,8,14.7,8,23c0,8.3,6.7,15,15,15c8.3,0,15-6.7,15-15C38,14.7,31.3,8,23,8z M23,36c-7.2,0-13-5.8-13-13
	c0-7.2,5.8-13,13-13c7.2,0,13,5.8,13,13C36,30.2,30.2,36,23,36z M24,41v4c0,0.6-0.4,1-1,1s-1-0.4-1-1v-4c0-0.6,0.4-1,1-1
	S24,40.4,24,41z M39.7,38.3c0.4,0.4,0.4,1,0,1.4C39.5,39.9,39.3,40,39,40s-0.5-0.1-0.7-0.3l-3-3c-0.4-0.4-0.4-1,0-1.4s1-0.4,1.4,0
	L39.7,38.3z M46,23c0,0.6-0.4,1-1,1h-4c-0.6,0-1-0.4-1-1s0.4-1,1-1h4C45.6,22,46,22.4,46,23z M35.3,10.7c-0.4-0.4-0.4-1,0-1.4l3-3
	c0.4-0.4,1-0.4,1.4,0s0.4,1,0,1.4l-3,3C36.5,10.9,36.3,11,36,11S35.5,10.9,35.3,10.7z M22,5V1c0-0.6,0.4-1,1-1s1,0.4,1,1v4
	c0,0.6-0.4,1-1,1S22,5.6,22,5z M6.3,7.7c-0.4-0.4-0.4-1,0-1.4s1-0.4,1.4,0l3,3c0.4,0.4,0.4,1,0,1.4C10.5,10.9,10.3,11,10,11
	s-0.5-0.1-0.7-0.3L6.3,7.7z M6,23c0,0.6-0.4,1-1,1H1c-0.6,0-1-0.4-1-1s0.4-1,1-1h4C5.6,22,6,22.4,6,23z M10.7,35.3
	c0.4,0.4,0.4,1,0,1.4l-3,3C7.5,39.9,7.3,40,7,40s-0.5-0.1-0.7-0.3c-0.4-0.4-0.4-1,0-1.4l3-3C9.7,34.9,10.3,34.9,10.7,35.3z"/>
</svg>
