<?xml version="1.0" encoding="utf-8"?>
<!-- Generator: Adobe Illustrator 20.1.0, SVG Export Plug-In . SVG Version: 6.00 Build 0)  -->
<svg version="1.1" id="Layer_1" xmlns="http://www.w3.org/2000/svg" xmlns:xlink="http://www.w3.org/1999/xlink" x="0px" y="0px"
	 viewBox="0 0 48 48" style="enable-background:new 0 0 48 48;" xml:space="preserve">
<path d="M18,3V1c0-0.6,0.4-1,1-1s1,0.4,1,1v2c0,0.6-0.4,1-1,1S18,3.6,18,3z M7,7.9c0.3,0,0.5-0.1,0.7-0.3c0.4-0.4,0.4-1,0-1.4l-2-2
	c-0.4-0.4-1-0.4-1.4,0s-0.4,1,0,1.4l2,2C6.5,7.8,6.7,7.9,7,7.9z M31,7.9c0.3,0,0.5-0.1,0.7-0.3l2-2c0.4-0.4,0.4-1,0-1.4
	s-1-0.4-1.4,0l-2,2c-0.4,0.4-0.4,1,0,1.4C30.5,7.8,30.7,7.9,31,7.9z M3,18H1c-0.6,0-1,0.4-1,1s0.4,1,1,1h2c0.6,0,1-0.4,1-1
	S3.6,18,3,18z M48,39c0,5-4,9-9,9H17c-6.1,0-11-4.9-11-11c0-5.4,3.9-10,9.1-10.9c0.9-5.8,6-10.2,11.9-10.2c4.7,0,9,2.8,10.9,7
	c0,0,0.1,0,0.1,0c2.2,0,4.2,1,5.6,2.8c1.4,1.8,1.8,4.1,1.1,6.2C46.8,33.7,48,36.2,48,39z M46,39c0-2.3-1.1-4.5-3.1-5.8
	c-0.4-0.3-0.5-0.8-0.4-1.2c0.7-1.7,0.5-3.5-0.6-5c-1.1-1.5-2.8-2.2-4.6-2c-0.4,0.1-0.9-0.2-1.1-0.6c-1.5-3.8-5.2-6.4-9.3-6.4
	c-5.1,0-9.5,4-10,9.1c0,0.5-0.4,0.9-0.9,0.9C11.6,28.4,8,32.4,8,37c0,5,4,9,9,9h22C42.9,46,46,42.8,46,39z M6.7,23.2
	c0.1,0.4,0.5,0.7,0.9,0.7c0.1,0,0.2,0,0.3-0.1c0.5-0.2,0.8-0.8,0.6-1.3C8.2,21.4,8,20.2,8,18.9c0-6.1,4.9-11,11-11
	c3.1,0,6.1,1.4,8.2,3.7c0.4,0.4,1,0.5,1.4,0.1c0.4-0.4,0.5-1,0.1-1.4c-2.5-2.8-6-4.4-9.7-4.4c-7.2,0-13,5.8-13,13
	C6,20.4,6.2,21.8,6.7,23.2z"/>
</svg>
