<?xml version="1.0" standalone="no"?>
<!DOCTYPE svg PUBLIC "-//W3C//DTD SVG 1.1//EN" "http://www.w3.org/Graphics/SVG/1.1/DTD/svg11.dtd" >
<!--
2018-3-1: Created with FontForge (http://fontforge.org)
-->
<svg xmlns="http://www.w3.org/2000/svg" xmlns:xlink="http://www.w3.org/1999/xlink" version="1.1">
<metadata>
Created by FontForge 20170925 at Thu Mar  1 10:26:43 2018
 By Jimbo, Duncan

</metadata>
<defs>
<font id="spark-icon-fill" horiz-adv-x="512" >
  <font-face 
    font-family="spark-icon-fill"
    font-weight="400"
    font-stretch="normal"
    units-per-em="512"
    panose-1="2 0 5 9 0 0 0 0 0 0"
    ascent="448"
    descent="-64"
    bbox="-0.533203 -65.0664 513.066 449.066"
    underline-thickness="25.6"
    underline-position="-51.2"
    unicode-range="U+F101-F1F3"
  />
    <missing-glyph />
    <glyph glyph-name="airplane-arrive" unicode="&#xf101;" 
d="M192 347.733c-1.06641 4.2666 0 8.5332 2.13379 11.7334c3.19922 3.2002 7.46582 4.2666 11.7324 2.13281l74.667 -32c2.13379 -1.06641 4.2666 -3.19922 5.33301 -5.33301l45.8672 -113.066l-103.467 40.5332zM465.066 118.4
c5.33398 -12.8008 5.33398 -27.7334 0 -40.5342c-10.666 -26.666 -41.5996 -40.5332 -69.333 -28.7998l-98.1338 36.2666l-178.133 -52.2666h-3.2002c-2.13281 0 -3.2002 1.06738 -4.2666 1.06738l-85.333 32c-3.2002 1.06641 -6.40039 5.33301 -6.40039 9.59961
s2.13379 7.4668 6.40039 9.59961l137.6 64l-136.533 54.4004c-4.2666 1.06641 -6.40039 5.33301 -6.40039 9.59961v138.667c0 3.2002 1.06738 6.40039 4.2666 8.5332c3.2002 2.13379 6.40039 3.2002 8.53418 2.13379l74.666 -32
c3.2002 -1.06738 5.33398 -3.2002 6.40039 -6.40039l20.2666 -59.7334l300.8 -117.333c12.7998 -5.33398 23.4668 -16 28.7998 -28.7998z" />
    <glyph glyph-name="airplane-depart" unicode="&#xf102;" 
d="M114.134 318.934c0 4.2666 2.13281 8.5332 6.39941 9.59961l78.9336 33.0664c3.2002 1.06738 5.33301 1.06738 8.5332 0l110.934 -45.8662l-104.533 -45.8672l-93.8672 39.4668c-4.2666 2.13379 -6.39941 5.33398 -6.39941 9.60059zM507.733 315.733
c10.667 -26.667 -2.13379 -57.5996 -28.7998 -70.4004l-97.0674 -36.2666l-83.1992 -166.399c0 -1.06738 -2.13379 -3.2002 -4.2666 -4.2666l-85.334 -42.667c-1.06641 -1.06641 -2.13281 -1.06641 -4.2666 -1.06641c-3.2002 0 -5.33301 1.06641 -7.4668 3.19922
c-3.19922 3.2002 -4.2666 7.4668 -3.19922 11.7334l55.4658 148.267l-137.6 -55.4658c-4.2666 -2.13379 -8.5332 -1.06738 -11.7334 2.13281l-96 96c-3.2002 2.13379 -4.2666 6.40039 -3.2002 9.60059c1.06738 3.19922 3.2002 6.39941 6.40039 7.46582l74.667 32
c2.13281 1.06738 5.33301 1.06738 8.5332 0l59.7334 -29.8662l288 124.8c26.666 11.7334 58.666 -2.13281 69.333 -28.7998z" />
    <glyph glyph-name="airplane" unicode="&#xf103;" 
d="M152.533 344.533c-3.2002 3.2002 -4.2666 7.4668 -2.13281 11.7334c1.06641 4.2666 5.33301 6.40039 9.59961 6.40039h85.333c3.2002 0 5.33398 -1.06738 7.4668 -3.2002l82.1338 -82.1338h-115.2zM458.667 256c29.8662 0 53.333 -23.4668 53.333 -53.333
c0 -29.8672 -23.4668 -53.334 -53.333 -53.334h-102.4l-124.8 -124.8c-2.13379 -2.13281 -4.2666 -3.2002 -7.4668 -3.2002h-106.667c-4.2666 0 -7.4668 2.13379 -9.59961 6.40039c-2.13379 4.2666 -1.06641 8.5332 2.13281 11.7334l109.867 109.866h-145.066
c-4.2666 0 -7.4668 2.13379 -9.60059 5.33398l-64 128c-2.13281 3.19922 -2.13281 7.4668 0 10.666c2.13379 3.2002 6.40039 5.33398 9.60059 5.33398h85.333c3.2002 0 5.33301 -1.06738 7.4668 -3.2002l39.4668 -39.4668h315.733z" />
    <glyph glyph-name="airplanes" unicode="&#xf1b5;" 
d="M152.533 429.866c-3.2002 3.2002 -4.2666 7.4668 -2.13281 11.7334c1.06641 4.2666 5.33301 6.40039 9.59961 6.40039h85.333c3.2002 0 5.33398 -1.06641 7.4668 -3.2002l82.1338 -82.1328h-115.2zM458.667 341.333c29.8662 0 53.333 -23.4668 53.333 -53.333
s-23.4668 -53.333 -53.333 -53.333h-102.4l-124.8 -124.801c-2.13379 -2.13281 -4.2666 -3.19922 -7.4668 -3.19922h-106.667c-4.2666 0 -7.4668 2.13281 -9.59961 6.39941c-2.13379 4.2666 -1.06641 8.5332 2.13281 11.7334l109.867 109.867h-145.066
c-4.2666 0 -7.4668 2.13281 -9.60059 6.39941l-64 128c-1.06641 3.2002 -1.06641 6.40039 0 9.60059c2.13379 3.19922 6.40039 5.33301 9.60059 5.33301h85.333c3.2002 0 5.33301 -1.06641 7.4668 -3.2002l39.4668 -39.4668h315.733zM416 170.667
c29.8662 0 53.333 -23.4668 53.333 -53.334c0 -29.8662 -23.4668 -53.333 -53.333 -53.333h-113.066l-124.8 -124.8c-2.13379 -2.13379 -4.26758 -3.2002 -7.4668 -3.2002h-106.667c-4.2666 0 -8.5332 2.13379 -9.59961 6.40039
c-2.13379 4.2666 -1.06738 8.5332 2.13281 11.7334l109.867 109.866h-91.7334c-4.2666 0 -7.4668 2.13379 -9.60059 5.33301l-64 128c-2.13281 3.2002 -2.13281 7.4668 0 10.667c2.13379 3.2002 6.40039 5.33301 9.60059 5.33301h64h21.333
c3.2002 0 5.33301 -1.06641 7.4668 -3.19922l30.9336 -30.9336l-39.4668 -39.4668c-9.60059 -8.5332 -11.7334 -22.4004 -7.4668 -34.1338c5.33301 -12.7998 17.0664 -20.2666 29.8662 -20.2666h106.667c8.5332 0 17.0664 3.2002 22.4004 9.60059l75.7334 75.7334h93.8662z
" />
    <glyph glyph-name="alert-triangle" unicode="&#xf104;" 
d="M488.533 -46.9336c1.06641 -2.13281 2.13379 -4.2666 2.13379 -6.39941c0 -6.40039 -4.2666 -10.667 -10.667 -10.667v0h-469.333c-3.2002 0 -7.4668 2.13379 -9.60059 4.2666c-1.06641 3.2002 -2.13281 7.4668 0 10.667l234.667 469.333
c3.2002 7.4668 16 7.4668 19.2002 0zM234.667 252.8v-163.2c0 -6.39941 4.2666 -10.666 10.666 -10.666c6.40039 0 10.667 4.2666 10.667 10.666v163.2c0 6.40039 -4.2666 10.667 -10.667 10.667c-6.39941 0 -10.666 -4.2666 -10.666 -10.667zM245.333 -2.13379
c11.7334 0 20.2666 8.53418 20.2666 20.2676c0 10.666 -8.5332 20.2666 -20.2666 20.2666c-10.666 0 -20.2666 -8.53418 -20.2666 -20.2666c0 -10.667 8.5332 -20.2676 20.2666 -20.2676z" />
    <glyph glyph-name="align-center" unicode="&#xf105;" 
d="M512 -42.667c0 -11.7334 -9.59961 -21.333 -21.333 -21.333h-469.334c-11.7334 0 -21.333 9.59961 -21.333 21.333s9.59961 21.334 21.333 21.334h469.334c11.7334 0 21.333 -9.60059 21.333 -21.334zM64 384c-11.7334 0 -21.333 9.59961 -21.333 21.333
s9.59961 21.334 21.333 21.334h384c11.7334 0 21.333 -9.60059 21.333 -21.334s-9.59961 -21.333 -21.333 -21.333h-384zM373.333 320h-234.666c-11.7334 0 -21.334 9.59961 -21.334 21.333s9.60059 21.334 21.334 21.334h234.666c11.7334 0 21.334 -9.60059 21.334 -21.334
s-9.60059 -21.333 -21.334 -21.333zM64 277.333c0 11.7334 9.59961 21.334 21.333 21.334h341.334c11.7334 0 21.333 -9.60059 21.333 -21.334s-9.59961 -21.333 -21.333 -21.333h-341.334c-11.7334 0 -21.333 9.59961 -21.333 21.333zM21.333 192
c-11.7334 0 -21.333 9.59961 -21.333 21.333s9.59961 21.334 21.333 21.334h469.334c11.7334 0 21.333 -9.60059 21.333 -21.334s-9.59961 -21.333 -21.333 -21.333h-469.334zM405.333 170.667c11.7334 0 21.334 -9.60059 21.334 -21.334s-9.60059 -21.333 -21.334 -21.333
h-298.666c-11.7334 0 -21.334 9.59961 -21.334 21.333s9.60059 21.334 21.334 21.334h298.666zM352 64h-192c-11.7334 0 -21.333 9.59961 -21.333 21.333s9.59961 21.334 21.333 21.334h192c11.7334 0 21.333 -9.60059 21.333 -21.334s-9.59961 -21.333 -21.333 -21.333z
M85.333 21.333c0 11.7334 9.60059 21.334 21.334 21.334h298.666c11.7334 0 21.334 -9.60059 21.334 -21.334s-9.60059 -21.333 -21.334 -21.333h-298.666c-11.7334 0 -21.334 9.59961 -21.334 21.333z" />
    <glyph glyph-name="align-justify" unicode="&#xf106;" 
d="M394.667 -42.667c0 -11.7334 -9.60059 -21.333 -21.334 -21.333h-352c-11.7334 0 -21.333 9.59961 -21.333 21.333s9.59961 21.334 21.333 21.334h352c11.7334 0 21.334 -9.60059 21.334 -21.334zM21.333 384c-11.7334 0 -21.333 9.59961 -21.333 21.333
s9.59961 21.334 21.333 21.334h469.334c11.7334 0 21.333 -9.60059 21.333 -21.334s-9.59961 -21.333 -21.333 -21.333h-469.334zM490.667 362.667c11.7334 0 21.333 -9.60059 21.333 -21.334s-9.59961 -21.333 -21.333 -21.333h-469.334
c-11.7334 0 -21.333 9.59961 -21.333 21.333s9.59961 21.334 21.333 21.334h469.334zM490.667 298.667c11.7334 0 21.333 -9.60059 21.333 -21.334s-9.59961 -21.333 -21.333 -21.333h-469.334c-11.7334 0 -21.333 9.59961 -21.333 21.333s9.59961 21.334 21.333 21.334
h469.334zM490.667 234.667c11.7334 0 21.333 -9.60059 21.333 -21.334s-9.59961 -21.333 -21.333 -21.333h-469.334c-11.7334 0 -21.333 9.59961 -21.333 21.333s9.59961 21.334 21.333 21.334h469.334zM490.667 170.667c11.7334 0 21.333 -9.60059 21.333 -21.334
s-9.59961 -21.333 -21.333 -21.333h-469.334c-11.7334 0 -21.333 9.59961 -21.333 21.333s9.59961 21.334 21.333 21.334h469.334zM490.667 106.667c11.7334 0 21.333 -9.60059 21.333 -21.334s-9.59961 -21.333 -21.333 -21.333h-469.334
c-11.7334 0 -21.333 9.59961 -21.333 21.333s9.59961 21.334 21.333 21.334h469.334zM490.667 42.667c11.7334 0 21.333 -9.60059 21.333 -21.334s-9.59961 -21.333 -21.333 -21.333h-469.334c-11.7334 0 -21.333 9.59961 -21.333 21.333s9.59961 21.334 21.333 21.334
h469.334z" />
    <glyph glyph-name="align-left" unicode="&#xf107;" 
d="M512 -42.667c0 -11.7334 -9.59961 -21.333 -21.333 -21.333h-469.334c-11.7334 0 -21.333 9.59961 -21.333 21.333s9.59961 21.334 21.333 21.334h469.334c11.7334 0 21.333 -9.60059 21.333 -21.334zM21.333 384c-11.7334 0 -21.333 9.59961 -21.333 21.333
s9.59961 21.334 21.333 21.334h405.334c11.7334 0 21.333 -9.60059 21.333 -21.334s-9.59961 -21.333 -21.333 -21.333h-405.334zM21.333 320c-11.7334 0 -21.333 9.59961 -21.333 21.333s9.59961 21.334 21.333 21.334h320c11.7334 0 21.334 -9.60059 21.334 -21.334
s-9.60059 -21.333 -21.334 -21.333h-320zM21.333 256c-11.7334 0 -21.333 9.59961 -21.333 21.333s9.59961 21.334 21.333 21.334h362.667c11.7334 0 21.333 -9.60059 21.333 -21.334s-9.59961 -21.333 -21.333 -21.333h-362.667zM21.333 192
c-11.7334 0 -21.333 9.59961 -21.333 21.333s9.59961 21.334 21.333 21.334h469.334c11.7334 0 21.333 -9.60059 21.333 -21.334s-9.59961 -21.333 -21.333 -21.333h-469.334zM21.333 128c-11.7334 0 -21.333 9.59961 -21.333 21.333s9.59961 21.334 21.333 21.334h384
c11.7334 0 21.334 -9.60059 21.334 -21.334s-9.60059 -21.333 -21.334 -21.333h-384zM21.333 64c-11.7334 0 -21.333 9.59961 -21.333 21.333s9.59961 21.334 21.333 21.334h320c11.7334 0 21.334 -9.60059 21.334 -21.334s-9.60059 -21.333 -21.334 -21.333h-320zM21.333 0
c-11.7334 0 -21.333 9.59961 -21.333 21.333s9.59961 21.334 21.333 21.334h384c11.7334 0 21.334 -9.60059 21.334 -21.334s-9.60059 -21.333 -21.334 -21.333h-384z" />
    <glyph glyph-name="align-right" unicode="&#xf108;" 
d="M512 -42.667c0 -11.7334 -9.59961 -21.333 -21.333 -21.333h-469.334c-11.7334 0 -21.333 9.59961 -21.333 21.333s9.59961 21.334 21.333 21.334h469.334c11.7334 0 21.333 -9.60059 21.333 -21.334zM106.667 384c-11.7334 0 -21.334 9.59961 -21.334 21.333
s9.60059 21.334 21.334 21.334h384c11.7334 0 21.333 -9.60059 21.333 -21.334s-9.59961 -21.333 -21.333 -21.333h-384zM490.667 362.667c11.7334 0 21.333 -9.60059 21.333 -21.334s-9.59961 -21.333 -21.333 -21.333h-320c-11.7334 0 -21.334 9.59961 -21.334 21.333
s9.60059 21.334 21.334 21.334h320zM490.667 298.667c11.7334 0 21.333 -9.60059 21.333 -21.334s-9.59961 -21.333 -21.333 -21.333h-384c-11.7334 0 -21.334 9.59961 -21.334 21.333s9.60059 21.334 21.334 21.334h384zM490.667 234.667
c11.7334 0 21.333 -9.60059 21.333 -21.334s-9.59961 -21.333 -21.333 -21.333h-469.334c-11.7334 0 -21.333 9.59961 -21.333 21.333s9.59961 21.334 21.333 21.334h469.334zM490.667 170.667c11.7334 0 21.333 -9.60059 21.333 -21.334s-9.59961 -21.333 -21.333 -21.333
h-384c-11.7334 0 -21.334 9.59961 -21.334 21.333s9.60059 21.334 21.334 21.334h384zM490.667 106.667c11.7334 0 21.333 -9.60059 21.333 -21.334s-9.59961 -21.333 -21.333 -21.333h-320c-11.7334 0 -21.334 9.59961 -21.334 21.333s9.60059 21.334 21.334 21.334h320z
M490.667 42.667c11.7334 0 21.333 -9.60059 21.333 -21.334s-9.59961 -21.333 -21.333 -21.333h-384c-11.7334 0 -21.334 9.59961 -21.334 21.333s9.60059 21.334 21.334 21.334h384z" />
    <glyph glyph-name="announce" unicode="&#xf109;" 
d="M469.333 277.333c21.334 0 42.667 -19.1992 41.6006 -42.666v-21.334c0 -23.4668 -21.334 -42.666 -42.667 -42.666v-117.334c0 -3.19922 -1.06641 -6.39941 -4.2666 -8.5332c-1.06641 -1.06641 -3.2002 -2.13281 -5.33301 -2.13281
c-4.2666 0 -20.2666 7.4668 -24.5332 9.59961c-66.1338 30.9336 -135.467 60.7998 -242.134 71.4668v200.533c106.667 10.667 176 40.5332 243.2 71.4668l19.2002 8.5332c3.19922 1.06641 7.46582 1.06641 10.666 -1.06641c2.13379 -1.06641 4.2666 -5.33398 4.2666 -8.5332
v-117.334zM490.667 213.333v21.334c0 11.7334 -9.60059 21.333 -21.334 21.333v-64c11.7334 0 21.334 9.59961 21.334 21.333zM96 320h32v-192h-32h-21.333c-41.6006 0 -74.667 33.0664 -74.667 74.667v42.666c0 41.6006 33.0664 74.667 74.667 74.667h21.333z
M252.8 -18.1338c0 -1.06641 -1.06641 -1.06641 0 0c-3.2002 -3.19922 -8.5332 -3.19922 -11.7334 -2.13281c-17.0664 8.5332 -33.0664 20.2666 -45.8662 34.1328c-7.4668 8.53418 -14.9336 17.0674 -20.2666 26.667c-2.13379 4.2666 -5.33398 8.5332 -7.4668 12.7998
c-10.667 22.4004 -17.0664 48 -17.0664 73.6006v203.733c0 6.39941 5.33301 10.666 10.666 10.666c6.40039 0 10.667 -4.2666 10.667 -10.666v-202.667c0 -3.2002 0 -8.5332 1.06641 -10.667c3.2002 -43.7334 25.6006 -82.1328 60.7998 -107.733
c5.33398 -4.2666 11.7334 -7.46582 18.1338 -10.666c5.33301 -3.2002 6.40039 -12.7998 1.06641 -17.0674z" />
    <glyph glyph-name="apple" unicode="&#xf10a;" 
d="M469.333 160c0 -84.2666 -65.0664 -224 -138.666 -224c-38.4004 0 -50.1338 7.4668 -59.7334 16c-4.2666 3.2002 -5.33398 5.33301 -14.9336 5.33301s-10.667 -2.13281 -14.9336 -5.33301c-9.59961 -8.5332 -21.333 -16 -59.7334 -16
c-73.5996 0 -138.666 139.733 -138.666 224c0 89.5996 56.5332 160 128 160c40.5332 0 54.3994 -6.40039 74.666 -18.1338v28.8008c0 18.1328 -13.8662 32 -32 32h-42.666c-6.40039 0 -10.667 4.2666 -10.667 10.666c0 6.40039 4.2666 10.667 10.667 10.667h42.666
c29.8672 0 53.334 -23.4668 53.334 -53.333v-28.8008c20.2666 11.7334 34.1328 18.1338 74.666 18.1338c71.4668 0 128 -70.4004 128 -160zM298.667 330.667c-6.40039 0 -10.667 4.2666 -10.667 10.666c0 58.667 48 106.667 106.667 106.667
c6.39941 0 10.666 -4.2666 10.666 -10.667c0 -58.666 -48 -106.666 -106.666 -106.666z" />
    <glyph glyph-name="arrow-basic-down" unicode="&#xf10b;" 
d="M256 -64h-4.2666h-1.06641c-1.06738 0 -2.13379 1.06641 -3.2002 1.06641c0 0 -1.06641 0 -1.06641 1.06738c-1.06738 0 -2.13379 1.06641 -2.13379 1.06641l-1.06641 1.06641l-2.13379 2.13379v0l-234.666 256c-4.2666 4.2666 -6.40039 9.59961 -6.40039 14.9326
c0 5.33398 2.13379 11.7334 6.40039 16c8.5332 7.4668 22.3994 7.4668 29.8662 -1.06641l198.4 -216.533v414.934c0 11.7334 9.59961 21.333 21.333 21.333s21.333 -9.59961 21.333 -21.333v-414.934l197.334 215.467c7.4668 8.5332 21.333 9.59961 29.8662 1.06641
c8.5332 -7.4668 9.60059 -21.333 1.06641 -29.8662l-234.666 -256v0l-2.13379 -2.13379l-1.06641 -1.06641c-1.06641 -1.06641 -2.13379 -1.06641 -2.13379 -1.06641s-1.06641 0 -1.06641 -1.06738c-1.06641 0 -2.13281 -1.06641 -3.2002 -1.06641h-1.06641h-4.2666z" />
    <glyph glyph-name="arrow-basic-left" unicode="&#xf10c;" 
d="M0 192v4.2666v1.06641c0 1.06738 1.06641 2.13379 1.06641 3.2002c0 0 0 1.06641 1.06738 1.06641c0 1.06738 1.06641 2.13379 1.06641 2.13379l1.06641 1.06641l2.13379 2.13379v0l256 234.666c4.2666 4.2666 9.59961 6.40039 14.9326 6.40039
c5.33398 0 11.7334 -2.13379 16 -6.40039c7.4668 -8.5332 7.4668 -22.3994 -1.06641 -29.8662l-216.533 -198.4h414.934c11.7334 0 21.333 -9.59961 21.333 -21.333s-9.59961 -21.333 -21.333 -21.333h-414.934l215.467 -197.334
c8.5332 -7.4668 9.59961 -21.333 1.06641 -29.8662c-7.4668 -8.5332 -21.333 -9.60059 -29.8662 -1.06641l-256 234.666v0l-2.13379 2.13379l-1.06641 1.06641c-1.06641 1.06641 -1.06641 2.13379 -1.06641 2.13379s0 1.06641 -1.06738 1.06641
c0 1.06641 -1.06641 2.13281 -1.06641 3.2002v1.06641v4.2666z" />
    <glyph glyph-name="arrow-basic-right" unicode="&#xf10d;" 
d="M512 192v-4.2666v-1.06641c0 -1.06738 -1.06641 -2.13379 -1.06641 -3.2002c0 0 0 -1.06641 -1.06738 -1.06641c0 -1.06738 -1.06641 -2.13379 -1.06641 -2.13379l-1.06641 -1.06641l-2.13379 -2.13379v0l-256 -234.666
c-4.2666 -4.2666 -9.59961 -6.40039 -14.9326 -6.40039c-5.33398 0 -11.7334 2.13379 -16 6.40039c-7.4668 8.5332 -7.4668 22.3994 1.06641 29.8662l216.533 198.4h-414.934c-11.7334 0 -21.333 9.59961 -21.333 21.333s9.59961 21.333 21.333 21.333h414.934
l-216.533 197.334c-8.5332 7.4668 -9.59961 21.333 -1.06641 29.8662c7.4668 8.5332 21.333 9.60059 29.8662 1.06641l256 -234.666v0c1.06641 -1.06738 1.06641 -1.06738 2.13379 -2.13379l1.06641 -1.06641c1.06641 -1.06641 1.06641 -2.13379 1.06641 -2.13379
s0 -1.06641 1.06641 -1.06641c0 -1.06641 1.06738 -2.13281 1.06738 -3.2002v-1.06641c1.06641 -1.06641 1.06641 -3.2002 1.06641 -4.2666z" />
    <glyph glyph-name="arrow-basic-up" unicode="&#xf10e;" 
d="M256 448h4.2666h1.06641c1.06738 0 2.13379 -1.06641 3.2002 -1.06641c0 0 1.06641 0 1.06641 -1.06738c1.06738 0 2.13379 -1.06641 2.13379 -1.06641l1.06641 -1.06641l2.13379 -2.13379v0l234.666 -256c4.2666 -4.2666 6.40039 -9.59961 6.40039 -14.9326
c0 -5.33398 -2.13379 -11.7334 -6.40039 -16c-8.5332 -7.4668 -22.3994 -7.4668 -29.8662 1.06641l-198.4 216.533v-414.934c0 -11.7334 -9.59961 -21.333 -21.333 -21.333s-21.333 9.59961 -21.333 21.333v414.934l-197.334 -216.533
c-7.4668 -8.5332 -21.333 -9.59961 -29.8662 -1.06641c-8.5332 7.4668 -9.60059 21.333 -1.06641 29.8662l234.666 256v0c1.06738 1.06641 1.06738 1.06641 2.13379 2.13379l1.06641 1.06641c1.06641 1.06641 2.13379 1.06641 2.13379 1.06641s1.06641 0 1.06641 1.06641
c1.06641 0 2.13281 1.06738 3.2002 1.06738h1.06641c1.06641 1.06641 3.2002 1.06641 4.2666 1.06641z" />
    <glyph glyph-name="arrow-chevron-down" unicode="&#xf10f;" 
d="M231.467 106.667l-160 138.666c-5.33301 4.2666 -7.4668 10.667 -7.4668 16c0 5.33398 2.13379 9.60059 5.33301 13.8672c7.4668 8.5332 21.334 9.59961 29.8672 2.13281l146.133 -126.933l146.134 126.933c8.5332 7.4668 22.3994 6.40039 29.8662 -2.13281
s6.40039 -22.4004 -2.13281 -29.8672l-160 -138.666c-7.4668 -7.4668 -20.2666 -7.4668 -27.7334 0z" />
    <glyph glyph-name="arrow-chevron-left" unicode="&#xf110;" 
d="M170.667 195.2l138.666 160c4.2666 5.33301 10.667 7.4668 16 7.4668c5.33398 0 9.60059 -2.13379 13.8672 -5.33398c8.5332 -7.4668 9.59961 -21.333 2.13281 -29.8662l-126.933 -146.134l126.933 -146.133c7.4668 -8.5332 6.40039 -22.4004 -2.13281 -29.8672
s-22.4004 -6.39941 -29.8672 2.13379l-138.666 160c-7.4668 7.4668 -7.4668 20.2666 0 27.7334z" />
    <glyph glyph-name="arrow-chevron-right" unicode="&#xf111;" 
d="M341.333 167.467l-138.666 -160c-4.2666 -5.33301 -10.667 -7.4668 -16 -7.4668c-5.33398 0 -9.60059 2.13379 -13.8672 5.33301c-8.5332 7.4668 -9.59961 21.334 -2.13281 29.8672l126.933 146.133l-126.933 146.134c-7.4668 8.5332 -6.40039 22.3994 2.13281 29.8662
s22.4004 6.40039 29.8672 -2.13281l138.666 -160c7.4668 -7.4668 7.4668 -20.2666 0 -27.7334z" />
    <glyph glyph-name="arrow-chevron-up" unicode="&#xf112;" 
d="M259.2 277.333l160 -138.666c5.33301 -4.2666 7.4668 -10.667 7.4668 -16c0 -5.33398 -2.13379 -9.60059 -5.33398 -13.8672c-7.4668 -8.5332 -21.333 -9.59961 -29.8662 -2.13281l-146.134 126.933l-146.133 -126.933
c-8.5332 -7.4668 -22.4004 -6.40039 -29.8672 2.13281s-6.39941 22.4004 2.13379 29.8672l160 138.666c7.4668 7.4668 20.2666 7.4668 27.7334 0z" />
    <glyph glyph-name="arrow-curve-left" unicode="&#xf1e5;" 
d="M490.667 32c0 -5.33301 -3.2002 -9.59961 -8.5332 -10.667h-2.13379c-4.2666 0 -7.4668 2.13379 -9.59961 5.33398c-48 90.666 -129.067 109.866 -187.733 109.866c-26.667 0 -48 -4.2666 -58.667 -6.39941v-76.8008c0 -4.2666 -2.13379 -7.4668 -6.40039 -9.59961
c-3.19922 -2.13379 -8.5332 -1.06641 -11.7334 1.06641l-181.333 149.334c-2.13281 2.13281 -3.2002 5.33301 -3.2002 8.5332c0 3.19922 1.06738 6.39941 4.2666 8.5332l181.334 149.333c3.2002 2.13379 7.4668 3.2002 11.7334 1.06641
c3.19922 -2.13281 5.33301 -5.33301 5.33301 -9.59961v-73.5996h14.9336c59.7334 0 251.733 -18.1338 251.733 -246.4z" />
    <glyph glyph-name="arrow-curve-right" unicode="&#xf113;" 
d="M490.667 202.667c0 -3.2002 -2.13379 -6.40039 -4.2666 -8.5332l-182.4 -149.334c-3.2002 -2.13281 -6.40039 -3.2002 -10.667 -1.06641c-2.13281 2.13281 -5.33301 5.33301 -5.33301 9.59961v76.8008c-10.667 2.13281 -32 6.39941 -58.667 6.39941
c-58.666 0 -137.6 -19.2002 -186.666 -109.866c-2.13379 -3.2002 -6.40039 -5.33398 -10.667 -5.33398h-3.2002c-4.2666 1.06738 -7.4668 5.33398 -7.4668 10.667c0 228.267 193.067 246.4 251.733 246.4h14.9336v73.5996c0 4.2666 3.2002 7.4668 6.40039 9.59961
c4.2666 2.13379 9.59961 1.06738 12.7998 -1.06641l180.267 -149.333c3.2002 -2.13379 3.2002 -5.33398 3.2002 -8.5332z" />
    <glyph glyph-name="arrow-double-horizontal" unicode="&#xf114;" 
d="M509.866 183.467c-1.06641 -2.13379 -2.13281 -5.33301 -4.2666 -7.4668l-64 -64c-4.2666 -3.2002 -9.59961 -5.33301 -14.9326 -5.33301c-5.33398 0 -10.667 2.13281 -14.9336 6.39941c-8.5332 8.5332 -8.5332 21.334 0 29.8672l27.7334 27.7334h-366.934
l27.7334 -27.7334c8.5332 -8.5332 8.5332 -21.334 0 -29.8672c-4.2666 -4.2666 -9.59961 -6.39941 -14.9336 -6.39941c-5.33301 0 -10.666 2.13281 -14.9326 6.39941l-64 64c-2.13379 2.13379 -3.2002 4.2666 -4.2666 7.4668c-2.13379 5.33301 -2.13379 10.667 0 16
c1.06641 2.13379 2.13281 5.33301 4.2666 7.4668l64 64c8.5332 8.5332 21.333 8.5332 29.8662 0s8.5332 -21.333 0 -29.8662l-27.7334 -28.8008h365.867l-27.7334 27.7334c-8.5332 8.5332 -8.5332 21.334 0 29.8672s21.333 8.5332 29.8662 0l64 -64
c2.13379 -2.13379 3.2002 -4.2666 4.2666 -7.4668c4.2666 -4.2666 4.2666 -10.667 1.06641 -16z" />
    <glyph glyph-name="arrow-double-vertical" unicode="&#xf115;" 
d="M247.467 -61.8662c-2.13379 1.06641 -5.33301 2.13281 -7.4668 4.2666l-64 64c-3.2002 4.2666 -5.33301 9.59961 -5.33301 14.9326c0 5.33398 2.13281 10.667 6.39941 14.9336c8.5332 8.5332 21.334 8.5332 29.8672 0l27.7334 -27.7334v366.934l-27.7334 -27.7334
c-8.5332 -8.5332 -21.334 -8.5332 -29.8672 0c-4.2666 4.2666 -6.39941 9.59961 -6.39941 14.9336c0 5.33301 2.13281 10.666 6.39941 14.9326l64 64c2.13379 2.13379 4.2666 3.2002 7.4668 4.2666c5.33301 2.13379 10.667 2.13379 16 0
c2.13379 -1.06641 5.33301 -2.13281 7.4668 -4.2666l64 -64c8.5332 -8.5332 8.5332 -21.333 0 -29.8662s-21.333 -8.5332 -29.8662 0l-28.8008 27.7334v-365.867l27.7334 27.7334c8.5332 8.5332 21.334 8.5332 29.8672 0s8.5332 -21.333 0 -29.8662l-64 -64
c-2.13379 -2.13379 -4.2666 -3.2002 -7.4668 -4.2666c-4.2666 -4.2666 -10.667 -4.2666 -16 -1.06641z" />
    <glyph glyph-name="arrow-triangle-down" unicode="&#xf116;" 
d="M445.866 281.6l-181.333 -213.333c-2.13281 -3.2002 -5.33301 -4.2666 -8.5332 -4.2666s-6.40039 1.06641 -8.5332 4.2666l-181.333 213.333c-3.2002 3.2002 -3.2002 7.4668 -1.06738 11.7334c2.13379 3.2002 5.33398 5.33398 9.60059 5.33398h362.666
c4.2666 0 7.4668 -2.13379 9.60059 -6.40039c2.13281 -3.2002 1.06641 -8.5332 -1.06738 -10.667z" />
    <glyph glyph-name="arrow-triangle-left" unicode="&#xf117;" 
d="M345.6 2.13379l-213.333 181.333c-3.2002 2.13281 -4.2666 5.33301 -4.2666 8.5332s1.06641 6.40039 4.2666 8.5332l213.333 181.333c3.2002 3.2002 7.4668 3.2002 11.7334 1.06738c3.2002 -2.13379 5.33398 -5.33398 5.33398 -9.60059v-362.666
c0 -4.2666 -2.13379 -7.4668 -6.40039 -9.60059c-3.2002 -2.13281 -8.5332 -1.06641 -10.667 1.06738z" />
    <glyph glyph-name="arrow-triangle-right" unicode="&#xf118;" 
d="M166.4 381.866l213.333 -181.333c2.13281 -2.13281 4.2666 -5.33301 4.2666 -8.5332s-1.06641 -6.40039 -4.2666 -8.5332l-213.333 -181.333c-3.2002 -3.2002 -7.4668 -3.2002 -11.7334 -1.06738c-3.2002 2.13379 -5.33398 5.33398 -5.33398 9.60059v362.666
c0 4.2666 2.13379 7.4668 6.40039 9.60059c3.2002 2.13281 8.5332 1.06641 10.667 -1.06738z" />
    <glyph glyph-name="arrow-triangle-up" unicode="&#xf119;" 
d="M66.1338 102.4l181.333 213.333c2.13281 2.13281 5.33301 4.2666 8.5332 4.2666s6.40039 -1.06641 8.5332 -4.2666l181.333 -213.333c3.2002 -3.2002 3.2002 -7.4668 1.06738 -11.7334c-2.13379 -3.2002 -5.33398 -5.33398 -9.60059 -5.33398h-362.666
c-4.2666 0 -7.4668 2.13379 -9.60059 6.40039c-2.13281 3.2002 -1.06641 8.5332 1.06738 10.667z" />
    <glyph glyph-name="arrows-cross" unicode="&#xf1a8;" 
d="M425.6 332.8l-366.933 -368c-4.2666 -4.2666 -9.60059 -6.39941 -14.9336 -6.39941s-10.667 2.13281 -14.9336 6.39941c-8.5332 8.5332 -8.5332 21.334 0 29.8672l366.934 368h-75.7334c-11.7334 0 -21.333 9.59961 -21.333 21.333s9.59961 21.333 21.333 21.333h126.934
h1.06641c2.13379 0 5.33301 0 7.4668 -1.06641c5.33301 -2.13281 9.59961 -6.40039 11.7334 -11.7334c1.06641 -2.13281 2.13281 -5.33301 2.13281 -8.5332v-128c0 -11.7334 -9.59961 -21.333 -21.333 -21.333s-21.333 9.59961 -21.333 21.333v76.7998h-1.06738z
M448 126.934c11.7334 0 21.333 -9.60059 21.333 -21.334v-126.933v0c0 -5.33398 -2.13281 -10.667 -6.39941 -14.9336s-9.60059 -6.40039 -14.9336 -6.40039h-1.06641h-126.934c-11.7334 0 -21.333 9.60059 -21.333 21.334s9.59961 21.333 21.333 21.333h75.7334
l-122.667 123.733c-8.5332 8.5332 -8.5332 21.333 0 29.8662c8.5332 8.53418 21.334 8.53418 29.8672 0l123.733 -123.733v75.7334c0 11.7334 9.59961 21.334 21.333 21.334zM187.733 208l-158.934 160c-8.5332 8.5332 -8.5332 21.333 0 29.8662
c8.5332 8.53418 21.334 8.53418 29.8672 0l158.933 -158.933c8.53418 -8.5332 8.53418 -21.334 0 -29.8672c-4.2666 -4.2666 -9.59961 -6.39941 -14.9326 -6.39941c-5.33398 0 -10.667 2.13281 -14.9336 5.33301z" />
    <glyph glyph-name="arrows-left-right" unicode="&#xf1a9;" 
d="M145.066 -5.33301l-85.333 85.333l-3.2002 3.2002l-1.06641 1.06641c0 1.06641 -1.06641 1.06641 -1.06641 2.13379c0 1.06641 0 1.06641 -1.06738 2.13281c0 1.06641 0 1.06641 -1.06641 2.13379v4.2666v4.2666s0 1.06641 1.06641 2.13281
c0 1.06738 0 1.06738 1.06738 2.13379c0 1.06641 1.06641 1.06641 1.06641 2.13281c0 0 0 1.06738 1.06641 1.06738c1.06641 1.06641 2.13379 2.13281 3.2002 3.19922l85.333 85.334c8.5332 8.5332 21.334 8.5332 29.8672 0s8.5332 -21.334 0 -29.8672l-49.0674 -49.0664
h311.467c11.7334 0 21.334 -9.59961 21.334 -21.333s-9.60059 -21.334 -21.334 -21.334h-311.467l49.0674 -49.0664c8.5332 -8.5332 8.5332 -21.333 0 -29.8662s-21.334 -8.5332 -29.8672 0zM330.667 201.6c0 5.33398 2.13281 10.667 6.39941 16l49.0674 49.0674h-311.467
c-11.7334 0 -21.334 9.59961 -21.334 21.333s9.60059 21.333 21.334 21.333h311.467l-49.0674 49.0674c-8.5332 8.5332 -8.5332 21.333 0 29.8662s21.334 8.5332 29.8672 0l85.333 -85.333c1.06641 -1.06738 2.13379 -2.13379 3.2002 -3.2002
c0 -1.06641 1.06641 -1.06641 1.06641 -2.13379c0 -1.06641 1.06641 -1.06641 1.06641 -2.13281c1.06738 -1.06641 1.06738 -1.06641 1.06738 -2.13379v-2.13281v-7.4668v-2.13379c-1.06738 -1.06641 -1.06738 -1.06641 -1.06738 -2.13281
s-1.06641 -1.06641 -1.06641 -2.13379c0 -1.06641 -1.06641 -1.06641 -1.06641 -2.13281l-3.2002 -3.2002l-85.333 -85.333c-8.5332 -8.5332 -21.334 -8.5332 -29.8672 0c-4.2666 4.2666 -6.39941 9.59961 -6.39941 14.9326z" />
    <glyph glyph-name="arrows-up-down" unicode="&#xf175;" 
d="M452.267 81.0664l-85.333 -85.333c-1.06738 -1.06641 -2.13379 -2.13379 -3.2002 -3.2002l-1.06641 -1.06641c-1.06738 0 -1.06738 -1.06641 -2.13379 -1.06641s-1.06641 0 -2.13281 -1.06738c-1.06738 0 -1.06738 0 -2.13379 -1.06641h-4.2666h-4.2666
s-1.06641 0 -2.13379 1.06641c-1.06641 0 -1.06641 0 -2.13281 1.06738c-1.06641 0 -1.06641 1.06641 -2.13379 1.06641c0 0 -1.06641 0 -1.06641 1.06641c-1.06641 1.06641 -2.13281 2.13379 -3.2002 3.2002l-85.333 85.333c-8.5332 8.5332 -8.5332 21.334 0 29.8672
s21.333 8.5332 29.8662 0l49.0674 -49.0674v311.467c0 11.7334 9.59961 21.334 21.333 21.334s21.333 -9.60059 21.333 -21.334v-311.467l49.0674 49.0674c8.5332 8.5332 21.333 8.5332 29.8662 0s8.5332 -21.334 0 -29.8672zM245.333 266.667
c-5.33301 0 -10.666 2.13281 -16 6.39941l-49.0664 49.0674v-311.467c0 -11.7334 -9.59961 -21.334 -21.333 -21.334s-21.334 9.60059 -21.334 21.334v311.467l-49.0664 -49.0674c-8.5332 -8.5332 -21.333 -8.5332 -29.8662 0s-8.5332 21.334 0 29.8672l85.333 85.333
l3.2002 3.2002c1.06641 0 1.06641 1.06641 2.13281 1.06641c1.06738 0 1.06738 1.06641 2.13379 1.06641c1.06641 1.06738 1.06641 1.06738 2.13281 1.06738h2.13379h7.4668h2.13281c1.06738 -1.06738 1.06738 -1.06738 2.13379 -1.06738s1.06641 -1.06641 2.13281 -1.06641
c1.06738 0 1.06738 -1.06641 2.13379 -1.06641c1.06641 -1.06641 2.13281 -2.13379 3.2002 -3.2002l85.333 -85.333c8.5332 -8.5332 8.5332 -21.334 0 -29.8672c-4.2666 -4.2666 -9.59961 -6.39941 -14.9336 -6.39941z" />
    <glyph glyph-name="arrows-update-alert" unicode="&#xf1aa;" 
d="M502.4 106.667c-3.2002 -2.13379 -7.4668 -3.2002 -11.7334 -3.2002c-6.40039 0 -13.8672 3.2002 -18.1338 9.59961l-21.333 33.0674c-14.9336 -76.8008 -73.6006 -141.867 -154.667 -161.067c-16 -3.2002 -30.9336 -5.33301 -46.9336 -5.33301
c-52.2666 0 -103.466 20.2666 -141.866 58.667c-8.5332 8.5332 -8.5332 21.333 0 29.8662s21.333 8.5332 29.8662 0c39.4668 -39.4668 94.9336 -54.4004 149.334 -41.5996c62.9326 14.9326 109.866 67.1992 122.666 128l-29.8662 -37.334
c-7.4668 -8.5332 -21.333 -10.666 -29.8672 -3.19922c-8.5332 7.46582 -10.666 21.333 -3.19922 29.8662l68.2666 82.1338c4.2666 5.33301 10.666 8.5332 17.0664 7.46582c6.40039 0 12.7998 -4.2666 17.0664 -9.59961l59.7334 -88.5332
c6.40039 -8.5332 3.2002 -22.4004 -6.39941 -28.7998zM163.2 247.467c8.5332 -7.4668 9.59961 -21.333 3.2002 -29.8672l-68.2666 -82.1328c-1.06738 -1.06641 -2.13379 -1.06641 -3.2002 -2.13379c0 -1.06641 -1.06738 -1.06641 -1.06738 -1.06641
c-4.2666 -2.13281 -8.5332 -4.2666 -12.7998 -4.2666h-1.06641c-7.4668 0 -12.7998 4.2666 -16 9.59961l-59.7334 88.5342c-7.4668 9.59961 -4.2666 23.4658 5.33301 29.8662c9.60059 6.40039 22.4004 3.2002 29.8672 -6.40039l16 -24.5332
c4.2666 26.667 13.8662 53.334 27.7334 76.7998c28.7998 49.0674 77.8662 85.334 132.267 98.1338c72.5332 17.0664 149.333 -6.40039 198.399 -64c7.4668 -8.5332 6.40039 -22.4004 -2.13281 -29.8662c-8.5332 -7.4668 -22.4004 -6.40039 -29.8672 2.13281
c-39.4658 44.7998 -99.1992 64 -156.8 50.1338c-43.7334 -10.667 -82.1328 -39.4668 -105.6 -78.9336c-14.9336 -24.5332 -22.4004 -51.2002 -23.4668 -78.9336l37.333 43.7334c7.4668 9.59961 21.334 10.667 29.8672 3.2002zM277.333 298.667v-149.334
c0 -11.7334 -9.59961 -21.333 -21.333 -21.333s-21.333 9.59961 -21.333 21.333v149.334c0 11.7334 9.59961 21.333 21.333 21.333s21.333 -9.59961 21.333 -21.333zM256 117.333c11.7334 0 21.333 -9.59961 21.333 -21.333s-9.59961 -21.333 -21.333 -21.333
s-21.333 9.59961 -21.333 21.333s9.59961 21.333 21.333 21.333z" />
    <glyph glyph-name="arrows-update-pencil" unicode="&#xf1ab;" 
d="M502.4 106.667c-3.2002 -2.13379 -7.4668 -3.2002 -11.7334 -3.2002c-6.40039 0 -13.8672 3.2002 -18.1338 9.59961l-21.333 33.0674c-14.9336 -76.8008 -73.6006 -141.867 -154.667 -161.067c-16 -3.2002 -30.9336 -5.33301 -46.9336 -5.33301
c-52.2666 0 -103.466 20.2666 -141.866 58.667c-8.5332 8.5332 -8.5332 21.333 0 29.8662s21.333 8.5332 29.8662 0c39.4668 -39.4668 94.9336 -54.4004 149.334 -41.5996c62.9326 14.9326 109.866 67.1992 122.666 128l-29.8662 -37.334
c-7.4668 -8.5332 -21.333 -10.666 -29.8672 -3.19922c-8.5332 7.46582 -10.666 21.333 -3.19922 29.8662l68.2666 82.1338c4.2666 5.33301 10.666 8.5332 17.0664 7.46582c6.40039 0 12.7998 -4.2666 17.0664 -9.59961l59.7334 -88.5332
c6.40039 -8.5332 3.2002 -22.4004 -6.39941 -28.7998zM163.2 247.467c8.5332 -7.4668 9.59961 -21.333 3.2002 -29.8672l-68.2666 -82.1328c-1.06738 -1.06641 -2.13379 -1.06641 -3.2002 -2.13379c0 -1.06641 -1.06738 -1.06641 -1.06738 -1.06641
c-4.2666 -2.13281 -8.5332 -4.2666 -12.7998 -4.2666h-1.06641c-7.4668 0 -12.7998 4.2666 -16 9.59961l-59.7334 88.5342c-7.4668 9.59961 -4.2666 23.4658 5.33301 29.8662c9.60059 6.40039 22.4004 3.2002 29.8672 -6.40039l16 -24.5332
c4.2666 26.667 13.8662 53.334 27.7334 76.7998c28.7998 49.0674 77.8662 85.334 132.267 98.1338c72.5332 17.0664 149.333 -6.40039 198.399 -64c7.4668 -8.5332 6.40039 -22.4004 -2.13281 -29.8662c-8.5332 -7.4668 -22.4004 -6.40039 -29.8672 2.13281
c-39.4658 44.7998 -99.1992 64 -156.8 50.1338c-43.7334 -10.667 -82.1328 -39.4668 -105.6 -78.9336c-14.9336 -24.5332 -22.4004 -51.2002 -23.4668 -78.9336l37.333 43.7334c7.4668 9.59961 21.334 10.667 29.8672 3.2002zM373.333 248.533l-125.866 -129.066
l-60.7998 60.7998l125.866 129.066zM160 92.7998l13.8662 70.4004l56.5342 -56.5332z" />
    <glyph glyph-name="arrows-update" unicode="&#xf1ac;" 
d="M502.4 106.667c-3.2002 -2.13379 -7.4668 -3.2002 -11.7334 -3.2002c-6.40039 0 -13.8672 3.2002 -18.1338 9.59961l-21.333 33.0674c-14.9336 -76.8008 -73.6006 -141.867 -154.667 -161.067c-16 -3.2002 -30.9336 -5.33301 -46.9336 -5.33301
c-52.2666 0 -103.466 20.2666 -141.866 58.667c-8.5332 8.5332 -8.5332 21.333 0 29.8662s21.333 8.5332 29.8662 0c39.4668 -39.4668 94.9336 -54.4004 149.334 -41.5996c62.9326 14.9326 109.866 67.1992 122.666 128l-29.8662 -37.334
c-7.4668 -8.5332 -21.333 -10.666 -29.8672 -3.19922c-8.5332 7.46582 -10.666 21.333 -3.19922 29.8662l68.2666 82.1338c4.2666 5.33301 10.666 8.5332 17.0664 7.46582c6.40039 0 12.7998 -4.2666 17.0664 -9.59961l59.7334 -88.5332
c6.40039 -8.5332 3.2002 -22.4004 -6.39941 -28.7998zM163.2 247.467c8.5332 -7.4668 9.59961 -21.333 3.2002 -29.8672l-68.2666 -82.1328c-1.06738 -1.06641 -2.13379 -1.06641 -3.2002 -2.13379c0 -1.06641 -1.06738 -1.06641 -1.06738 -1.06641
c-4.2666 -2.13281 -8.5332 -4.2666 -12.7998 -4.2666h-1.06641c-7.4668 0 -12.7998 4.2666 -16 9.59961l-59.7334 88.5342c-7.4668 9.59961 -4.2666 23.4658 5.33301 29.8662c9.60059 6.40039 22.4004 3.2002 29.8672 -6.40039l16 -24.5332
c4.2666 26.667 13.8662 53.334 27.7334 76.7998c28.7998 49.0674 77.8662 85.334 132.267 98.1338c72.5332 17.0664 149.333 -6.40039 198.399 -64c7.4668 -8.5332 6.40039 -22.4004 -2.13281 -29.8662c-8.5332 -7.4668 -22.4004 -6.40039 -29.8672 2.13281
c-39.4658 44.7998 -99.1992 64 -156.8 50.1338c-43.7334 -10.667 -82.1328 -39.4668 -105.6 -78.9336c-14.9336 -24.5332 -22.4004 -51.2002 -23.4668 -78.9336l37.333 43.7334c7.4668 9.59961 21.334 10.667 29.8672 3.2002z" />
    <glyph glyph-name="art-cup" unicode="&#xf191;" 
d="M384 192c41.5996 0 74.667 -33.0664 74.667 -74.667c0 -41.5996 -33.0674 -74.666 -74.667 -74.666h-10.667v-53.334c0 -29.8662 -23.4668 -53.333 -53.333 -53.333h-192c-29.8662 0 -53.333 23.4668 -53.333 53.333v213.334c0 6.39941 4.2666 10.666 10.666 10.666
h277.334c6.39941 0 10.666 -4.2666 10.666 -10.666v-10.667h10.667zM384 64c29.8662 0 53.333 23.4668 53.333 53.333c0 29.8672 -23.4668 53.334 -53.333 53.334h-10.667v-106.667h10.667zM298.667 234.667c-4.2666 0 -7.4668 2.13281 -11.7334 6.39941
c-1.06738 3.2002 -1.06738 7.4668 1.06641 10.667l5.33301 7.4668c1.06738 1.06641 1.06738 3.2002 2.13379 4.2666l42.667 59.7334c-3.2002 4.2666 -6.40039 8.5332 -8.53418 12.7998c-4.2666 10.667 -4.2666 23.4668 1.06738 35.2002
c3.19922 5.33301 7.4668 11.7334 11.7334 17.0664c11.7334 14.9336 19.1992 25.5996 7.46582 42.667c-2.13281 3.2002 -2.13281 8.5332 0 11.7334c3.2002 3.19922 7.4668 5.33301 11.7334 4.2666c48 -11.7334 66.1338 -54.4004 61.8672 -89.6006
c-3.2002 -27.7334 -19.2002 -46.9326 -40.5332 -50.1328l-32 -66.1338c-2.13379 -4.2666 -5.33398 -6.39941 -9.60059 -6.39941h-42.666zM352 361.6c-3.2002 -6.39941 -3.2002 -12.7998 -1.06641 -18.1328c2.13281 -4.2666 5.33301 -7.4668 8.5332 -9.60059
l18.1328 -6.39941v0c16 0 23.4668 17.0664 25.6006 32c3.2002 20.2666 -4.2666 43.7334 -24.5332 57.5996c1.06641 -18.1328 -9.60059 -32 -18.1338 -42.666c-3.2002 -5.33398 -7.4668 -9.60059 -8.5332 -12.8008zM115.2 333.866l-51.2002 -42.666l-10.667 58.666
c-1.06641 4.26758 1.06738 8.53418 4.2666 10.667c3.2002 2.13379 7.4668 2.13379 11.7334 0zM98.1338 238.934l-24.5342 33.0664l57.6006 48l46.9336 -66.1338c2.13281 -2.13281 3.19922 -4.2666 3.19922 -6.39941v189.866c0 6.40039 4.2666 10.667 10.667 10.667h85.333
c6.40039 0 10.667 -4.2666 10.667 -10.667v-32h-53.333c-6.40039 0 -10.667 -4.2666 -10.667 -10.666c0 -6.40039 4.2666 -10.667 10.667 -10.667h53.333v-21.333h-26.667c-6.39941 0 -10.666 -4.2666 -10.666 -10.667s4.2666 -10.667 10.666 -10.667h26.667v-21.333
h-53.333c-6.40039 0 -10.667 -4.2666 -10.667 -10.667c0 -6.39941 4.2666 -10.666 10.667 -10.666h53.333v-21.334h-26.667c-6.39941 0 -10.666 -4.2666 -10.666 -10.666c0 -6.40039 4.2666 -10.667 10.666 -10.667h26.667v-10.667
c0 -6.39941 -4.2666 -10.666 -10.667 -10.666h-85.333c-5.33301 0 -10.667 4.2666 -10.667 10.666c0 -5.33301 -5.33301 -10.666 -10.666 -10.666v0h-64c-3.2002 0 -6.40039 1.06641 -8.5332 4.2666z" />
    <glyph glyph-name="ban" unicode="&#xf11a;" 
d="M0 192c0 140.8 115.2 256 256 256s256 -115.2 256 -256s-115.2 -256 -256 -256s-256 115.2 -256 256zM400 90.667c14.9336 21.333 37.333 54.3994 37.333 108.8c0 96 -77.8662 173.866 -173.866 173.866c-44.7998 0 -75.7334 -14.9326 -108.8 -37.333zM75.7334 184.533
c-1.06641 -94.9336 77.8662 -173.866 173.866 -173.866c45.8672 0 75.7334 14.9326 108.801 37.333l-245.334 245.333c-14.9326 -21.333 -37.333 -54.3994 -37.333 -108.8z" />
    <glyph glyph-name="bell" unicode="&#xf176;" 
d="M512 53.333c0 -6.39941 -4.2666 -10.666 -10.667 -10.666h-490.666c-6.40039 0 -10.667 4.2666 -10.667 10.666c0 6.40039 4.2666 10.667 10.667 10.667c29.8662 0 53.333 23.4668 53.333 53.333v96c0 77.8672 48 148.267 119.467 178.134
c8.5332 32 38.3994 56.5332 72.5332 56.5332c35.2002 0 64 -23.4668 72.5332 -56.5332c71.4668 -29.8672 119.467 -100.267 119.467 -178.134v-96c0 -29.8662 23.4668 -53.333 53.333 -53.333c6.40039 0 10.667 -4.2666 10.667 -10.667zM320 21.333
c6.40039 0 10.667 -4.2666 10.667 -10.666c0 -41.6006 -33.0674 -74.667 -74.667 -74.667s-74.667 33.0664 -74.667 74.667c0 6.39941 4.2666 10.666 10.667 10.666h128z" />
    <glyph glyph-name="bookmark" unicode="&#xf1e6;" 
d="M426.667 437.333v-490.666c0 -4.2666 -2.13379 -7.4668 -5.33398 -9.60059c-2.13281 -1.06641 -3.19922 -1.06641 -5.33301 -1.06641s-4.2666 1.06641 -6.40039 2.13379l-153.6 113.066l-153.6 -113.066c-3.2002 -2.13379 -7.4668 -3.2002 -10.667 -1.06738
c-4.2666 2.13379 -6.40039 5.33398 -6.40039 9.60059v490.666c0 6.40039 4.2666 10.667 10.667 10.667h320c6.40039 0 10.667 -4.2666 10.667 -10.667z" />
    <glyph glyph-name="briefcase" unicode="&#xf11b;" 
d="M480 298.667c6.40039 0 10.667 -4.2666 10.667 -10.667v-96h-192v21.333c0 6.40039 -4.2666 10.667 -10.667 10.667h-64c-6.40039 0 -10.667 -4.2666 -10.667 -10.667v-21.333h-192v96c0 6.40039 4.2666 10.667 10.667 10.667h129.066
c5.33398 48 45.8672 85.333 94.9336 85.333s89.5996 -37.333 94.9336 -85.333h129.066zM182.4 298.667h147.199c-5.33301 36.2666 -36.2666 64 -73.5996 64s-68.2666 -27.7334 -73.5996 -64zM298.667 170.667h192v-181.334c0 -6.39941 -4.2666 -10.666 -10.667 -10.666h-448
c-6.40039 0 -10.667 4.2666 -10.667 10.666v181.334h192v-42.667c0 -6.40039 4.2666 -10.667 10.667 -10.667h64c6.40039 0 10.667 4.2666 10.667 10.667v42.667z" />
    <glyph glyph-name="bus" unicode="&#xf11c;" 
d="M501.333 298.667c6.40039 0 10.667 -4.2666 10.667 -10.667v-149.333c0 -6.40039 -4.2666 -10.667 -10.667 -10.667h-42.666c-6.40039 0 -10.667 4.2666 -10.667 10.667v138.666h-21.333v-160v-128c0 -13.8662 -8.5332 -25.5996 -21.334 -29.8662v-12.7998
c0 -6.40039 -4.2666 -10.667 -10.666 -10.667h-42.667c-6.40039 0 -10.667 4.2666 -10.667 10.667v10.666h-170.666v-10.666c0 -6.40039 -4.2666 -10.667 -10.667 -10.667h-42.667c-6.39941 0 -10.666 4.2666 -10.666 10.667v12.7998
c-12.8008 4.2666 -21.334 16 -21.334 29.8662v128v160h-21.333v-138.666c0 -6.40039 -4.2666 -10.667 -10.667 -10.667h-42.666c-6.40039 0 -10.667 4.2666 -10.667 10.667v149.333c0 6.40039 4.2666 10.667 10.667 10.667h42.666h32v10.666v53.334
c0 46.9326 38.4004 85.333 85.334 85.333h170.666c46.9336 0 85.334 -38.4004 85.334 -85.333v-53.334v-10.666h32h42.666zM181.333 394.667v-42.667c0 -6.40039 4.2666 -10.667 10.667 -10.667h128c6.40039 0 10.667 4.2666 10.667 10.667v42.667
c0 6.39941 -4.2666 10.666 -10.667 10.666h-128c-6.40039 0 -10.667 -4.2666 -10.667 -10.666zM202.667 21.333c6.39941 0 10.666 4.2666 10.666 10.667s-4.2666 10.667 -10.666 10.667h-64c-6.40039 0 -10.667 -4.2666 -10.667 -10.667s4.2666 -10.667 10.667 -10.667h64z
M373.333 21.333c6.40039 0 10.667 4.2666 10.667 10.667s-4.2666 10.667 -10.667 10.667h-64c-6.39941 0 -10.666 -4.2666 -10.666 -10.667s4.2666 -10.667 10.666 -10.667h64zM405.333 128v170.667h-298.666v-170.667h298.666z" />
    <glyph glyph-name="cable-car" unicode="&#xf1c3;" 
d="M501.333 256c6.40039 0 10.667 -4.2666 10.667 -10.667c0 -6.39941 -4.2666 -10.666 -10.667 -10.666h-10.666v-149.334h-128v149.334h-213.334v-149.334h-128v149.334h-10.666c-6.40039 0 -10.667 4.2666 -10.667 10.666c0 6.40039 4.2666 10.667 10.667 10.667h21.333
h53.333v21.333h-32c-6.39941 0 -10.666 4.2666 -10.666 10.667s4.2666 10.667 10.666 10.667h42.667h106.667v27.7334l-39.4668 39.4658c-4.2666 4.26758 -4.2666 10.667 0 14.9336l45.8662 45.8672h-198.399c-6.40039 0 -10.667 4.2666 -10.667 10.666
c0 6.40039 4.2666 10.667 10.667 10.667h490.666c6.40039 0 10.667 -4.2666 10.667 -10.667c0 -6.39941 -4.2666 -10.666 -10.667 -10.666h-198.399l45.8662 -45.8672c4.2666 -4.2666 4.2666 -10.666 0 -14.9336l-39.4668 -39.4658v-27.7334h106.667h42.667
c6.39941 0 10.666 -4.2666 10.666 -10.667s-4.2666 -10.667 -10.666 -10.667h-32v-21.333h53.333h21.333zM217.6 341.333h76.8008l32 32l-53.334 53.334h-34.1328l-53.334 -53.334zM501.333 21.333h-21.333h-42.667c6.40039 -8.5332 10.667 -20.2666 10.667 -32
s-4.2666 -23.4668 -10.667 -32h64c6.40039 0 10.667 -4.2666 10.667 -10.666c0 -6.40039 -4.2666 -10.667 -10.667 -10.667h-490.666c-6.40039 0 -10.667 4.2666 -10.667 10.667c0 6.39941 4.2666 10.666 10.667 10.666h64c-6.40039 8.5332 -10.667 20.2666 -10.667 32
s4.2666 23.4668 10.667 32h-42.667h-21.333c-6.40039 0 -10.667 4.2666 -10.667 10.667s4.2666 10.667 10.667 10.667h10.666v21.333h128v-21.333h53.334h106.666h53.334v21.333h128v-21.333h10.666c6.40039 0 10.667 -4.2666 10.667 -10.667
s-4.2666 -10.667 -10.667 -10.667zM117.333 -21.333c-6.39941 0 -10.666 4.2666 -10.666 10.666c0 6.40039 4.2666 10.667 10.666 10.667h29.8672c-4.2666 12.7998 -16 21.333 -29.8672 21.333c-18.1328 0 -32 -13.8662 -32 -32c0 -18.1328 13.8672 -32 32 -32
c13.8672 0 25.6006 8.5332 29.8672 21.334h-29.8672zM192 21.333h-32c4.2666 -6.39941 7.4668 -13.8662 9.59961 -21.333h22.4004v21.333zM160 -42.667h192c-4.2666 6.40039 -7.4668 13.8672 -9.59961 21.334h-33.0674h-106.666h-33.0674
c-1.06641 -7.4668 -5.33301 -14.9336 -9.59961 -21.334zM342.4 0c2.13281 7.4668 5.33301 14.9336 9.59961 21.333h-32v-21.333h22.4004zM394.667 -42.667c18.1328 0 32 13.8672 32 32c0 18.1338 -13.8672 32 -32 32c-13.8672 0 -25.6006 -8.5332 -29.8672 -21.333h29.8672
c6.39941 0 10.666 -4.2666 10.666 -10.667c0 -6.39941 -4.2666 -10.666 -10.666 -10.666h-29.8672c4.2666 -12.8008 16 -21.334 29.8672 -21.334zM181.333 106.667c-6.39941 0 -10.666 4.2666 -10.666 10.666v85.334c0 6.39941 4.2666 10.666 10.666 10.666h149.334
c6.39941 0 10.666 -4.2666 10.666 -10.666v-85.334c0 -6.39941 -4.2666 -10.666 -10.666 -10.666h-149.334z" />
    <glyph glyph-name="calendar-empty" unicode="&#xf11d;" 
d="M0 277.333h512v-330.666c0 -6.40039 -4.2666 -10.667 -10.667 -10.667h-490.666c-6.40039 0 -10.667 4.2666 -10.667 10.667v330.666zM512 394.667v-96h-512v96c0 6.39941 4.2666 10.666 10.667 10.666h74.666v32c0 6.40039 4.2666 10.667 10.667 10.667h64
c6.40039 0 10.667 -4.2666 10.667 -10.667v-32h170.666v32c0 6.40039 4.2666 10.667 10.667 10.667h64c6.40039 0 10.667 -4.2666 10.667 -10.667v-32h74.666c6.40039 0 10.667 -4.2666 10.667 -10.666zM149.333 426.667h-42.666v-64h42.666v64zM405.333 426.667h-42.666
v-64h42.666v64z" />
    <glyph glyph-name="calendar" unicode="&#xf11e;" 
d="M341.333 42.667h-85.333v64h85.333v-64zM234.667 106.667v-64h-85.334v64h85.334zM341.333 192v-64h-85.333v64h85.333zM234.667 192v-64h-85.334v64h85.334zM0 277.333h512v-330.666c0 -6.40039 -4.2666 -10.667 -10.667 -10.667h-490.666
c-6.40039 0 -10.667 4.2666 -10.667 10.667v330.666zM128 106.667v-64h-74.667c-6.39941 0 -10.666 -4.2666 -10.666 -10.667s4.2666 -10.667 10.666 -10.667h74.667v-32c0 -6.39941 4.2666 -10.666 10.667 -10.666c6.39941 0 10.666 4.2666 10.666 10.666v32h85.334v-32
c0 -6.39941 4.2666 -10.666 10.666 -10.666c6.40039 0 10.667 4.2666 10.667 10.666v32h85.333v-32c0 -6.39941 4.2666 -10.666 10.667 -10.666s10.667 4.2666 10.667 10.666v32h96c6.39941 0 10.666 4.2666 10.666 10.667s-4.2666 10.667 -10.666 10.667h-96v64h96
c6.39941 0 10.666 4.2666 10.666 10.666c0 6.40039 -4.2666 10.667 -10.666 10.667h-96v64h96c6.39941 0 10.666 4.2666 10.666 10.667c0 6.39941 -4.2666 10.666 -10.666 10.666h-96v32c0 6.40039 -4.2666 10.667 -10.667 10.667s-10.667 -4.2666 -10.667 -10.667v-32
h-85.333v32c0 6.40039 -4.2666 10.667 -10.667 10.667c-6.39941 0 -10.666 -4.2666 -10.666 -10.667v-32h-85.334v32c0 6.40039 -4.2666 10.667 -10.666 10.667c-6.40039 0 -10.667 -4.2666 -10.667 -10.667v-32h-74.667c-6.39941 0 -10.666 -4.2666 -10.666 -10.666
c0 -6.40039 4.2666 -10.667 10.666 -10.667h74.667v-64h-74.667c-6.39941 0 -10.666 -4.2666 -10.666 -10.667c0 -6.39941 4.2666 -10.666 10.666 -10.666h74.667zM512 394.667v-96h-512v96c0 6.39941 4.2666 10.666 10.667 10.666h74.666v32
c0 6.40039 4.2666 10.667 10.667 10.667h64c6.40039 0 10.667 -4.2666 10.667 -10.667v-32h170.666v32c0 6.40039 4.2666 10.667 10.667 10.667h64c6.40039 0 10.667 -4.2666 10.667 -10.667v-32h74.666c6.40039 0 10.667 -4.2666 10.667 -10.666zM149.333 426.667h-42.666
v-64h42.666v64zM405.333 426.667h-42.666v-64h42.666v64z" />
    <glyph glyph-name="camera" unicode="&#xf11f;" 
d="M106.667 234.667c0 -11.7334 -9.60059 -21.334 -21.334 -21.334s-21.333 9.60059 -21.333 21.334s9.59961 21.333 21.333 21.333s21.334 -9.59961 21.334 -21.333zM416 170.667c0 -58.667 -48 -106.667 -106.667 -106.667c-58.666 0 -106.666 48 -106.666 106.667
c0 58.666 48 106.666 106.666 106.666c58.667 0 106.667 -48 106.667 -106.666zM384 170.667c0 41.5996 -33.0664 74.666 -74.667 74.666c-41.5996 0 -74.666 -33.0664 -74.666 -74.666c0 -41.6006 33.0664 -74.667 74.666 -74.667c41.6006 0 74.667 33.0664 74.667 74.667z
M512 273.066v-221.866c0 -32 -20.2666 -51.2002 -54.4004 -51.2002h-403.199c-34.1338 0 -54.4004 18.1338 -54.4004 51.2002v221.866c0 20.2666 7.4668 42.667 42.667 46.9336v11.7334c0 17.0664 14.9326 32 30.9326 32h20.2666c18.1338 0 33.0674 -14.9336 33.0674 -32
v-10.667h58.666l28.8008 38.4004c11.7334 14.9336 26.666 24.5332 41.5996 24.5332h106.667c14.9326 0 29.8662 -9.59961 40.5332 -25.5996l1.06641 -1.06738l18.1338 -36.2666h35.1992c44.8008 -1.06641 54.4004 -26.666 54.4004 -48zM128 234.667
c0 23.4668 -19.2002 42.666 -42.667 42.666s-42.666 -19.1992 -42.666 -42.666s19.1992 -42.667 42.666 -42.667s42.667 19.2002 42.667 42.667zM437.333 170.667c0 70.3994 -57.5996 128 -128 128c-70.3994 0 -128 -57.6006 -128 -128c0 -70.4004 57.6006 -128 128 -128
c70.4004 0 128 57.5996 128 128z" />
    <glyph glyph-name="car-parking" unicode="&#xf177;" 
d="M423.467 82.1338c2.13281 -2.13379 3.2002 -4.26758 3.2002 -7.4668v-32h-106.667c-6.40039 0 -10.667 -4.2666 -10.667 -10.667s4.2666 -10.667 10.667 -10.667h106.667v-32c0 -6.39941 -4.2666 -10.666 -10.667 -10.666h-10.667v-32
c0 -6.40039 -4.2666 -10.667 -10.666 -10.667h-64c-6.40039 0 -10.667 4.2666 -10.667 10.667v32h-213.333v-32c0 -6.40039 -4.2666 -10.667 -10.667 -10.667h-64c-6.40039 0 -10.667 4.2666 -10.667 10.667v32h-10.666c-6.40039 0 -10.667 4.2666 -10.667 10.666v32
h106.667c6.39941 0 10.666 4.2666 10.666 10.667s-4.2666 10.667 -10.666 10.667h-106.667v32c0 3.19922 1.06641 5.33301 3.2002 7.4668l41.5996 41.5996l41.6006 104.533c1.06641 4.2666 5.33301 6.40039 9.59961 6.40039h108.8
c3.2002 -7.4668 6.40039 -14.9336 10.667 -21.334h-112l-34.1338 -85.333h288s12.8008 1.06641 24.5332 -4.2666zM373.333 362.667c18.1338 0 32 -13.8672 32 -32c0 -18.1338 -13.8662 -32 -32 -32h-32v64h32zM512 298.667c0 -82.1338 -67.2002 -149.334 -149.333 -149.334
c-82.1338 0 -149.334 67.2002 -149.334 149.334c0 82.1328 67.2002 149.333 149.334 149.333c82.1328 0 149.333 -67.2002 149.333 -149.333zM426.667 330.667c0 29.8662 -23.4668 53.333 -53.334 53.333h-42.666c-6.40039 0 -10.667 -4.2666 -10.667 -10.667v-149.333
c0 -6.40039 4.2666 -10.667 10.667 -10.667c6.39941 0 10.666 4.2666 10.666 10.667v53.333h32c29.8672 0 53.334 23.4668 53.334 53.334z" />
    <glyph glyph-name="car-rental" unicode="&#xf120;" 
d="M469.333 384c18.1338 0 32 -13.8662 32 -32c0 -17.0664 -13.8662 -32 -32 -32h-32v-32c0 -5.33301 -4.2666 -10.667 -10.666 -10.667h-42.667c-6.40039 0 -10.667 4.2666 -10.667 10.667v32h-21.333v-32c0 -5.33301 -4.2666 -10.667 -10.667 -10.667h-42.666
c-6.40039 0 -10.667 4.2666 -10.667 10.667v32h-101.333c-13.8672 -42.667 -50.1338 -64 -90.667 -64c-53.333 0 -96 42.667 -96 96s42.667 96 96 96c41.5996 0 77.8662 -25.5996 90.667 -64h282.666zM96 309.333c23.4668 0 42.667 19.2002 42.667 42.667
s-19.2002 42.667 -42.667 42.667s-42.667 -19.2002 -42.667 -42.667s19.2002 -42.667 42.667 -42.667zM455.467 82.1338c2.13281 -2.13379 3.2002 -4.26758 3.2002 -7.4668v-32h-106.667c-6.40039 0 -10.667 -4.2666 -10.667 -10.667s4.2666 -10.667 10.667 -10.667h106.667
v-32c0 -6.39941 -4.2666 -10.666 -10.667 -10.666h-10.667v-32c0 -6.40039 -4.2666 -10.667 -10.666 -10.667h-64c-6.40039 0 -10.667 4.2666 -10.667 10.667v32h-213.333v-32c0 -6.40039 -4.2666 -10.667 -10.667 -10.667h-64c-6.40039 0 -10.667 4.2666 -10.667 10.667v32
h-10.666c-6.40039 0 -10.667 4.2666 -10.667 10.666v32h106.667c6.39941 0 10.666 4.2666 10.666 10.667s-4.2666 10.667 -10.666 10.667h-106.667v32c0 3.19922 1.06641 5.33301 3.2002 7.4668l24.5332 24.5332h371.2zM372.267 228.267l39.4668 -100.267h-333.867
l39.4668 100.267c2.13379 4.2666 5.33398 6.40039 9.60059 6.40039h234.666c5.33398 0 9.60059 -2.13379 10.667 -6.40039z" />
    <glyph glyph-name="check-circle" unicode="&#xf178;" 
d="M245.333 426.667c135.467 0 245.334 -109.867 245.334 -245.334s-109.867 -245.333 -245.334 -245.333s-245.333 109.866 -245.333 245.333s109.866 245.334 245.333 245.334zM354.134 245.333c4.2666 4.2666 4.2666 10.667 1.06641 16
c-4.2666 3.2002 -10.667 4.2666 -14.9336 0l-146.133 -136.533l-43.7334 43.7334c-4.2666 4.2666 -10.667 4.2666 -14.9336 0s-4.2666 -10.667 0 -14.9336l51.2002 -51.1992c2.13281 -2.13379 5.33301 -3.2002 7.4668 -3.2002c3.19922 0 5.33301 1.06641 7.46582 3.2002z
" />
    <glyph glyph-name="check" unicode="&#xf121;" 
d="M507.733 413.866l-330.667 -469.333c-4.2666 -5.33301 -10.666 -8.5332 -17.0664 -8.5332c-5.33301 0 -10.667 2.13379 -14.9336 6.40039l-138.666 138.666c-8.53418 8.5332 -8.53418 21.334 0 29.8672c8.5332 8.5332 21.333 8.5332 29.8662 0l120.533 -120.533
l316.8 449.066c6.40039 9.59961 20.2666 11.7334 29.8672 5.33301c9.59961 -7.4668 11.7334 -20.2666 4.2666 -30.9336z" />
    <glyph glyph-name="child-baby" unicode="&#xf1e7;" 
d="M277.333 245.333c0 -11.7334 -9.59961 -21.333 -21.333 -21.333s-21.333 9.59961 -21.333 21.333s9.59961 21.334 21.333 21.334s21.333 -9.60059 21.333 -21.334zM245.333 308.267c0 -5.33301 -4.2666 -10.667 -10.666 -10.667
c-6.40039 0 -10.667 4.2666 -10.667 10.667s-4.2666 11.7334 -10.667 11.7334c-6.39941 0 -10.666 -5.33301 -10.666 -11.7334s-4.2666 -10.667 -10.667 -10.667s-10.667 4.2666 -10.667 10.667c0 18.1338 13.8672 33.0664 32 33.0664c18.1338 0 32 -14.9326 32 -33.0664z
M298.667 341.333c18.1328 0 32 -14.9326 32 -33.0664c0 -6.40039 -4.2666 -10.667 -10.667 -10.667s-10.667 4.2666 -10.667 10.667s-4.2666 11.7334 -10.666 11.7334c-6.40039 0 -10.667 -5.33301 -10.667 -11.7334s-4.2666 -10.667 -10.667 -10.667
c-6.39941 0 -10.666 4.2666 -10.666 10.667c0 18.1338 13.8662 33.0664 32 33.0664zM412.8 277.333l-6.39941 -71.4668l-211.2 -90.666l-85.334 28.7998l-10.666 133.333c-4.2666 43.7334 10.666 87.4668 40.5332 119.467c29.8662 32 72.5332 51.2002 116.267 51.2002
s86.4004 -18.1338 116.267 -51.2002c29.8672 -32 44.7998 -75.7334 40.5332 -119.467zM374.4 284.8c0 66.1338 -52.2666 120.533 -117.334 120.533c-65.0664 0 -117.333 -53.333 -117.333 -120.533c0 -65.0664 50.1328 -114.133 117.333 -114.133
s117.334 49.0664 117.334 114.133zM392.533 48l-166.399 57.5996l179.199 76.8008l-10.666 -119.467c0 -5.33398 -1.06738 -10.667 -2.13379 -14.9336zM118.4 62.9336l-6.40039 58.666l274.134 -93.8662c-19.2002 -54.4004 -70.4004 -91.7334 -130.134 -91.7334
c-72.5332 0 -132.267 54.4004 -137.6 126.934z" />
    <glyph glyph-name="child" unicode="&#xf1e8;" 
d="M424.533 -59.7334c-2.13281 -2.13281 -5.33301 -4.2666 -8.5332 -4.2666h-320c-3.2002 0 -6.40039 2.13379 -8.5332 4.2666c-2.13379 2.13379 -2.13379 6.40039 -1.06641 9.59961c1.06641 2.13379 16 40.5342 33.0664 66.1338
c21.333 33.0664 44.7998 44.7998 83.2002 65.0664v7.4668c-10.667 5.33301 -30.9336 20.2666 -40.5332 51.2002c-10.667 4.2666 -18.1338 17.0664 -21.334 35.2002c-3.2002 20.2666 1.06641 43.7334 18.1338 54.3994c0 1.06738 0 2.13379 -1.06738 3.2002
c-2.13281 11.7334 -6.39941 29.8672 3.2002 49.0664c7.4668 14.9336 21.334 17.0674 32 17.0674c4.2666 17.0664 20.2666 19.1992 30.9336 21.333c2.13379 0 4.2666 1.06641 6.40039 1.06641c1.06641 1.06738 3.19922 3.2002 5.33301 5.33398
c9.59961 10.666 22.4004 25.5996 41.5996 25.5996c6.40039 0 10.667 -3.2002 12.8008 -5.33301c6.39941 -6.40039 5.33301 -16 4.2666 -24.5332v-3.2002c35.1992 -3.2002 51.1992 -26.667 56.5332 -37.334c9.59961 -19.1992 5.33301 -37.333 3.2002 -49.0664
c0 -1.06641 0 -2.13281 -1.06738 -3.2002c17.0674 -10.666 21.334 -34.1328 18.1338 -54.3994c-3.2002 -18.1338 -10.667 -30.9336 -21.334 -35.2002c-9.59961 -30.9336 -29.8662 -45.8672 -40.5332 -51.2002v-7.4668c39.4668 -19.2002 61.8672 -32 83.2002 -65.0664
c17.0664 -25.5996 32 -64 33.0664 -66.1338c2.13379 -2.13281 1.06738 -6.39941 -1.06641 -9.59961z" />
    <glyph glyph-name="clock" unicode="&#xf122;" 
d="M256 448c140.8 0 256 -115.2 256 -256s-115.2 -256 -256 -256s-256 115.2 -256 256s115.2 256 256 256zM380.8 67.2002c4.2666 4.2666 4.2666 11.7334 0 14.9336l-124.8 114.133v113.066c0 6.40039 -4.2666 10.667 -10.667 10.667
c-6.39941 0 -10.666 -4.2666 -10.666 -10.667v-117.333c0 -3.2002 1.06641 -5.33301 3.19922 -8.5332l128 -117.333c4.26758 -3.2002 10.667 -3.2002 14.9336 1.06641z" />
    <glyph glyph-name="close-circle" unicode="&#xf1ad;" 
d="M245.333 426.667c135.467 0 245.334 -110.934 245.334 -245.334c0 -135.467 -109.867 -245.333 -245.334 -245.333v0c-66.1328 0 -128 25.5996 -173.866 71.4668c-45.8672 46.9336 -71.4668 108.8 -71.4668 173.866c0 135.467 109.866 245.334 245.333 245.334z
M343.467 98.1338l-83.2002 83.1992l83.2002 83.2002c4.2666 4.2666 4.2666 10.667 0 14.9336s-10.667 4.2666 -14.9336 0l-83.2002 -83.2002l-83.1992 83.2002c-4.26758 4.2666 -10.667 4.2666 -14.9336 0s-4.2666 -10.667 0 -14.9336l83.2002 -83.2002l-83.2002 -83.1992
c-4.2666 -4.26758 -4.2666 -10.667 0 -14.9336c2.13281 -2.13379 4.2666 -3.2002 7.4668 -3.2002c2.13281 0 5.33301 1.06641 7.4668 3.2002l83.1992 83.2002l83.2002 -83.2002c2.13379 -2.13379 4.2666 -3.2002 7.4668 -3.2002s5.33301 1.06641 7.4668 3.2002
c4.2666 4.2666 4.2666 10.666 0 14.9336z" />
    <glyph glyph-name="close" unicode="&#xf123;" 
d="M505.6 -27.7334c8.53418 -8.5332 8.53418 -21.333 0 -29.8662c-4.2666 -4.2666 -9.59961 -6.40039 -14.9326 -6.40039c-5.33398 0 -10.667 2.13379 -14.9336 6.40039l-219.733 219.733l-219.733 -219.733c-4.2666 -4.2666 -9.59961 -6.40039 -14.9336 -6.40039
c-5.33301 0 -10.666 2.13379 -14.9326 6.40039c-8.53418 8.5332 -8.53418 21.333 0 29.8662l219.733 219.733l-219.733 219.733c-8.53418 8.5332 -8.53418 21.333 0 29.8662c8.5332 8.53418 21.333 8.53418 29.8662 0l219.733 -219.733l219.733 219.733
c8.5332 8.53418 21.333 8.53418 29.8662 0c8.53418 -8.5332 8.53418 -21.333 0 -29.8662l-219.733 -219.733z" />
    <glyph glyph-name="cocktail" unicode="&#xf124;" 
d="M437.333 426.667c41.6006 0 74.667 -33.0674 74.667 -74.667s-33.0664 -74.667 -74.667 -74.667c-10.666 0 -21.333 2.13379 -30.9326 7.4668l-129.067 -129.066v-177.066h74.667c6.40039 0 10.667 -4.2666 10.667 -10.667s-4.2666 -10.667 -10.667 -10.667h-170.667
c-6.39941 0 -10.666 4.2666 -10.666 10.667s4.2666 10.667 10.666 10.667h74.667v177.066l-167.467 167.467c-3.2002 3.2002 -4.2666 7.4668 -2.13281 11.7334c1.06641 4.2666 5.33301 6.39941 9.59961 6.39941h40.5332l-56.5332 64h-80v21.334h90.667l74.666 -85.334h198.4
c-1.06641 3.2002 -1.06641 7.4668 -1.06641 10.667c0 41.5996 33.0664 74.667 74.666 74.667zM437.333 298.667c29.8672 0 53.334 23.4668 53.334 53.333s-23.4668 53.333 -53.334 53.333c-29.8662 0 -53.333 -23.4668 -53.333 -53.333c0 -3.2002 0 -7.4668 1.06641 -10.667
h52.2666c4.2666 0 8.5332 -2.13281 9.60059 -6.39941c2.13281 -4.2666 1.06641 -8.5332 -2.13379 -11.7334l-22.3994 -22.4004c5.33301 -1.06641 9.59961 -2.13281 14.9326 -2.13281z" />
    <glyph glyph-name="coffee" unicode="&#xf179;" 
d="M501.333 21.333c6.40039 0 10.667 -4.2666 10.667 -10.666c0 -6.40039 -4.2666 -10.667 -10.667 -10.667h-490.666c-6.40039 0 -10.667 4.2666 -10.667 10.667c0 6.39941 4.2666 10.666 10.667 10.666h120.533c-53.334 28.8008 -88.5332 85.334 -88.5332 149.334v181.333
c0 6.40039 4.2666 10.667 10.666 10.667h320c6.40039 0 10.667 -4.2666 10.667 -10.667v-10.667h42.667c42.666 0 74.666 -36.2666 74.666 -85.333s-32 -85.333 -74.666 -85.333h-42.667c0 -64 -36.2666 -120.533 -88.5332 -149.334h205.866zM384 320v-128h42.667
c34.1328 0 53.333 33.0664 53.333 64s-19.2002 64 -53.333 64h-42.667z" />
    <glyph glyph-name="cog" unicode="&#xf125;" 
d="M501.333 234.667c6.40039 0 10.667 -4.2666 10.667 -9.60059v-64c0 -6.39941 -4.2666 -10.666 -10.667 -10.666h-58.666c-4.2666 -17.0674 -10.667 -36.2666 -17.0674 -50.1338l43.7334 -43.7334c4.2666 -4.2666 4.2666 -10.667 0 -14.9336l-60.7998 -60.7998
c-4.2666 -4.2666 -10.667 -4.2666 -14.9336 0l-43.7334 43.7334c-14.9326 -7.4668 -33.0664 -12.7998 -50.1328 -17.0664v-60.7998c0 -6.40039 -4.2666 -10.667 -10.667 -10.667h-64c-6.39941 0 -10.666 4.2666 -10.666 10.667v58.666
c-17.0674 4.2666 -36.2666 10.667 -50.1338 17.0674l-43.7334 -43.7334c-4.2666 -4.2666 -10.667 -4.2666 -14.9336 0l-60.7998 60.7998c-2.13281 2.13281 -3.2002 4.2666 -3.2002 7.4668s1.06738 5.33301 3.2002 7.4668l43.7334 43.7334
c-7.4668 14.9326 -12.7998 33.0664 -17.0664 50.1328h-60.7998c-6.40039 0 -10.667 4.2666 -10.667 10.667v64c0 6.39941 4.2666 10.666 10.667 10.666h60.7998c4.2666 17.0674 10.667 36.2666 17.0664 50.1338l-43.7334 43.7334c-4.2666 4.2666 -4.2666 10.667 0 14.9336
l58.667 60.7998c4.2666 4.2666 10.667 4.2666 14.9336 0l43.7334 -43.7334c14.9326 7.4668 33.0664 12.7998 50.1328 17.0664v60.7998c0 6.40039 4.2666 10.667 10.667 10.667h64c6.39941 0 10.666 -4.2666 10.666 -10.667v-59.7334
c17.0674 -4.2666 36.2666 -10.666 50.1338 -17.0664l43.7334 43.7334c4.2666 4.2666 10.667 4.2666 14.9336 0l60.7998 -60.7998c2.13281 -2.13379 3.2002 -4.2666 3.2002 -7.4668s-1.06738 -5.33301 -3.2002 -7.4668l-43.7334 -43.7334
c7.4668 -14.9336 12.7998 -33.0664 17.0664 -50.1328h60.7998zM256 106.667c46.9336 0 85.333 38.3994 85.333 85.333s-38.3994 85.333 -85.333 85.333s-85.333 -38.3994 -85.333 -85.333s38.3994 -85.333 85.333 -85.333z" />
    <glyph glyph-name="coupon" unicode="&#xf17a;" 
d="M325.333 338.134l76.8008 -76.8008c12.7998 -12.7998 12.7998 -33.0664 0 -45.8662l-168.534 -168.533c-11.7334 -11.7334 -34.1328 -11.7334 -45.8662 0l-76.7998 76.7998c-12.7998 12.7998 -12.7998 33.0664 0 45.8662l167.467 168.534
c6.39941 6.39941 14.9326 9.59961 23.4658 9.59961c9.60059 0 17.0674 -3.2002 23.4668 -9.59961zM171.733 138.667l137.6 137.6c4.2666 4.2666 4.2666 10.667 0 14.9336s-10.666 4.2666 -14.9326 0l-137.601 -137.601c-4.2666 -4.2666 -4.2666 -10.666 0 -14.9326
c2.13379 -2.13379 4.2666 -3.2002 7.4668 -3.2002c2.13379 0 5.33301 1.06641 7.4668 3.2002zM316.8 192c4.2666 4.2666 4.2666 10.667 0 14.9336s-10.666 4.2666 -14.9336 0l-60.7998 -60.7998c-4.2666 -4.26758 -4.2666 -10.667 0 -14.9336
c2.13379 -2.13379 4.2666 -3.2002 7.4668 -3.2002c2.13379 0 5.33301 1.06641 7.4668 3.2002zM508.8 291.2c-21.333 -20.2666 -21.333 -55.4668 -1.06641 -76.7998c4.2666 -4.2666 4.2666 -10.667 0 -14.9336l-260.267 -260.267
c-2.13379 -2.13379 -4.2666 -3.2002 -7.4668 -3.2002s-5.33301 1.06641 -7.4668 3.2002c-10.667 10.666 -23.4668 16 -38.3994 16c-14.9336 0 -27.7334 -5.33398 -38.4004 -16c-4.2666 -4.2666 -10.667 -4.2666 -14.9336 0l-137.6 137.6
c-2.13379 2.13379 -3.2002 4.2666 -3.2002 7.4668s1.06641 6.40039 3.2002 8.5332c10.666 10.667 16 23.4668 16 38.4004s-5.33398 27.7334 -16 38.3994c-2.13379 2.13379 -3.2002 4.2666 -3.2002 7.4668c0 2.13379 1.06641 5.33398 3.2002 7.4668l261.333 260.267
c3.2002 4.2666 10.667 4.2666 14.9336 0c10.667 -10.666 23.4668 -16 38.3994 -16c14.9336 0 27.7334 5.33398 38.4004 16c3.2002 4.2666 10.667 4.2666 14.9336 0l137.6 -138.666c4.2666 -4.26758 4.2666 -10.667 0 -14.9336zM417.066 199.467
c21.334 21.333 21.334 55.4668 0 76.7998l-76.7998 76.7998c-10.667 10.667 -23.4668 16 -38.4004 16c-14.9326 0 -27.7324 -5.33301 -38.3994 -16l-168.533 -168.533c-21.334 -21.333 -21.334 -55.4668 0 -76.7998l76.7998 -76.7998
c10.667 -10.667 23.4668 -16 38.4004 -16c14.9326 0 27.7324 5.33301 38.3994 16z" />
    <glyph glyph-name="credit-card-update" unicode="&#xf1b6;" 
d="M384 384h-384v10.667c0 29.8662 23.4668 53.333 53.333 53.333v0h277.334v0c29.8662 0 53.333 -23.4668 53.333 -53.333v-10.667zM245.333 170.667h-106.666h-85.334c-29.8662 0 -53.333 23.4668 -53.333 53.333v138.667h384v-128h-10.667
c-52.2666 0 -98.1328 -25.6006 -128 -64v0zM277.333 330.667c0 -6.40039 4.2666 -10.667 10.667 -10.667h42.667c6.39941 0 10.666 4.2666 10.666 10.667c0 6.39941 -4.2666 10.666 -10.666 10.666h-42.667c-6.40039 0 -10.667 -4.2666 -10.667 -10.666zM149.333 288
c0 6.40039 -4.2666 10.667 -10.666 10.667h-64c-6.40039 0 -10.667 -4.2666 -10.667 -10.667s4.2666 -10.667 10.667 -10.667h64c5.33301 0 10.666 4.2666 10.666 10.667zM192 330.667c0 6.39941 -4.2666 10.666 -10.667 10.666h-106.666
c-6.40039 0 -10.667 -4.2666 -10.667 -10.666c0 -6.40039 4.2666 -10.667 10.667 -10.667h106.666c5.33398 0 10.667 4.2666 10.667 10.667zM512 74.667c0 -76.8008 -61.8662 -138.667 -138.667 -138.667c-76.7998 0 -138.666 61.8662 -138.666 138.667
c0 76.7998 61.8662 138.666 138.666 138.666c76.8008 0 138.667 -61.8662 138.667 -138.666zM451.2 52.2666c-5.33398 2.13379 -11.7334 -1.06641 -13.8672 -6.40039c-8.5332 -25.5996 -33.0664 -42.666 -60.7998 -42.666c-22.3994 0 -43.7334 11.7334 -56.5332 28.7998
h23.4668c6.39941 0 10.667 4.2666 10.667 10.667c0 6.39941 -4.26758 10.666 -10.667 10.666h-41.6006c-6.39941 0 -10.666 -4.2666 -10.666 -10.666v-41.6006c0 -6.39941 4.2666 -10.666 10.666 -10.666c6.40039 0 10.667 4.2666 10.667 10.666v7.4668
c17.0664 -16 39.4668 -26.667 64 -26.667c36.2666 0 68.2666 22.4004 80 56.5342c3.2002 6.39941 1.06641 12.7998 -5.33301 13.8662zM458.667 137.6c0 6.40039 -4.2666 10.667 -10.667 10.667s-10.667 -4.2666 -10.667 -10.667v-7.46582
c-17.0664 16 -39.4668 26.666 -64 26.666c-36.2666 0 -68.2666 -22.3994 -80 -56.5332c-2.13281 -5.33301 1.06738 -11.7334 6.40039 -13.8662c1.06641 0 2.13281 -1.06738 3.2002 -1.06738c4.2666 0 8.5332 3.2002 9.59961 7.4668
c8.5332 25.6006 33.0664 42.667 60.7998 42.667c22.4004 0 43.7334 -11.7334 56.5332 -28.7998h-23.4658c-6.40039 0 -10.667 -4.2666 -10.667 -10.667s4.2666 -10.667 10.667 -10.667h41.5996c6.40039 0 10.667 4.2666 10.667 10.667v41.5996z" />
    <glyph glyph-name="credit-card" unicode="&#xf126;" 
d="M512 288v-32h-512v32c0 29.8662 23.4668 53.333 53.333 53.333h405.334c29.8662 0 53.333 -23.4668 53.333 -53.333zM0 234.667h512v-160c0 -29.8672 -23.4668 -53.334 -53.333 -53.334h-405.334c-29.8662 0 -53.333 23.4668 -53.333 53.334v160zM362.667 181.333
c0 -6.39941 4.2666 -10.666 10.666 -10.666h64c6.40039 0 10.667 4.2666 10.667 10.666c0 6.40039 -4.2666 10.667 -10.667 10.667h-64c-6.39941 0 -10.666 -4.2666 -10.666 -10.667zM64 181.333c0 -6.39941 4.2666 -10.666 10.667 -10.666h170.666
c6.40039 0 10.667 4.2666 10.667 10.666c0 6.40039 -4.2666 10.667 -10.667 10.667h-170.666c-6.40039 0 -10.667 -4.2666 -10.667 -10.667zM64 138.667c0 -6.40039 4.2666 -10.667 10.667 -10.667h64c6.39941 0 10.666 4.2666 10.666 10.667
c0 6.39941 -4.2666 10.666 -10.666 10.666h-64c-6.40039 0 -10.667 -4.2666 -10.667 -10.666z" />
    <glyph glyph-name="cruise" unicode="&#xf127;" 
d="M309.333 405.333h-106.666v32c0 6.40039 4.2666 10.667 10.666 10.667h85.334c6.39941 0 10.666 -4.2666 10.666 -10.667v-32zM320 288c0 -5.33301 -5.33301 -10.667 -10.667 -10.667h-106.666c-6.40039 0 -10.667 4.2666 -10.667 10.667s4.2666 10.667 10.667 10.667
h106.666c6.40039 0 10.667 -4.2666 10.667 -10.667zM88.5332 197.333l-11.7334 -2.13281c-5.33301 -2.13379 -11.7334 2.13281 -12.7998 7.4668c-1.06641 5.33301 2.13379 11.7334 8.5332 12.7998l44.7998 10.667v61.8662c0 29.8662 23.4668 53.333 53.334 53.333h32v42.667
h106.666v-42.667h32c29.8672 0 53.334 -23.4668 53.334 -53.333v-61.8662l44.7998 -10.667c5.33301 -1.06641 8.5332 -7.4668 7.4668 -12.7998c-1.06738 -5.33398 -5.33398 -8.5332 -10.667 -8.5332h-2.13281l-10.667 2.13281l-13.8672 -55.4668l-142.933 50.1338v65.0664v0
l106.666 -24.5332v56.5332c0 17.0664 -13.8662 32 -32 32h-170.666c-18.1338 0 -32 -13.8662 -32 -32v-57.5996l106.666 25.5996v0v-65.0664l-142.933 -49.0674zM445.866 -41.5996c3.2002 -5.33398 2.13379 -11.7334 -2.13281 -17.0674
c-12.7998 -7.4668 -29.8672 -8.5332 -42.667 -1.06641c-10.666 6.40039 -17.0664 17.0664 -17.0664 28.7998c0 4.2666 -1.06641 7.4668 -4.2666 9.60059c-3.2002 2.13281 -7.4668 3.19922 -11.7334 3.19922c-2.13379 0 -16 0 -16 -12.7998
c0 -22.3994 -19.2002 -34.1328 -37.333 -34.1328c-8.5332 0 -18.1338 3.2002 -24.5332 8.5332c-8.53418 6.39941 -12.8008 16 -12.8008 26.667c0 4.2666 -1.06641 7.46582 -4.2666 9.59961c-3.2002 2.13281 -7.4668 3.2002 -11.7334 3.2002c-2.13281 0 -16 0 -16 -12.7998
c0 -34.1338 -42.666 -41.6006 -62.9326 -26.667c-8.53418 6.39941 -12.8008 16 -12.8008 26.667c0 4.2666 -1.06641 7.46582 -4.2666 9.59961c-3.19922 2.13281 -7.4668 3.2002 -11.7334 3.2002c-2.13281 0 -16 0 -16 -12.7998
c0 -12.8008 -6.39941 -22.4004 -17.0664 -28.8008c-12.7998 -6.39941 -29.8662 -6.39941 -41.5996 1.06738c-5.33398 3.19922 -6.40039 9.59961 -3.2002 14.9326c3.2002 5.33398 9.59961 6.40039 14.9336 3.2002c5.33301 -3.2002 13.8662 -3.2002 20.2666 0
c4.2666 2.13379 6.39941 5.33301 6.39941 9.60059c0 16 8.5332 25.5996 20.2666 30.9326l-29.8662 119.467l137.6 48v-125.866c0 -6.40039 4.2666 -10.667 10.667 -10.667s10.667 4.2666 10.667 10.667v125.866l137.6 -49.0664l-28.7998 -116.267
c16 -2.13379 29.8662 -13.8672 29.8662 -33.0664c0 -1.06738 0 -5.33398 5.33398 -8.53418c5.33301 -4.2666 14.9326 -3.19922 20.2666 0c5.33301 3.2002 11.7334 2.13379 14.9326 -3.19922z" />
    <glyph glyph-name="currency-convert" unicode="&#xf17b;" 
d="M340.267 85.333c-10.667 -84.2666 -82.1328 -149.333 -169.6 -149.333c-93.8672 0 -170.667 76.7998 -170.667 170.667c0 86.3994 65.0664 158.933 149.333 169.6c0 -33.0664 9.60059 -65.0664 24.5332 -91.7334c-27.7324 -6.39941 -50.1328 -25.5996 -60.7998 -51.2002
h-17.0664c-6.40039 0 -10.667 -4.2666 -10.667 -10.666c0 -6.40039 4.2666 -10.667 10.667 -10.667h11.7334c0 -3.2002 -1.06641 -7.4668 -1.06641 -10.667c0 -3.19922 1.06641 -7.4668 1.06641 -10.666h-11.7334c-6.40039 0 -10.667 -4.2666 -10.667 -10.667
s4.2666 -10.667 10.667 -10.667h17.0664c12.7998 -30.9326 43.7334 -53.333 78.9336 -53.333c6.40039 0 10.667 4.2666 10.667 10.667c0 6.39941 -4.2666 10.666 -10.667 10.666c-23.4668 0 -43.7334 12.8008 -55.4668 32h44.7998c6.40039 0 10.667 4.2666 10.667 10.667
s-4.2666 10.667 -10.667 10.667h-52.2666c-1.06641 3.19922 -1.06641 7.4668 -1.06641 10.666c0 3.2002 0 7.4668 1.06641 10.667h52.2666c6.40039 0 10.667 4.2666 10.667 10.667c0 6.39941 -4.2666 10.666 -10.667 10.666h-44.7998
c10.667 17.0674 28.7998 29.8672 50.1338 30.9336c35.1992 -46.9336 90.666 -77.8662 153.6 -78.9336zM55.4668 291.2l-41.6006 41.5996c-4.2666 4.2666 -4.2666 10.667 0 14.9336c3.2002 4.2666 10.667 4.2666 14.9336 0l24.5332 -24.5332
c1.06738 29.8662 12.8008 57.5996 34.1338 78.9336c21.333 22.3994 51.2002 35.1992 82.1328 35.1992v0c6.40039 0 10.667 -4.2666 10.667 -10.666c0 -5.33398 -4.2666 -10.667 -10.667 -10.667c-51.1992 0 -92.7998 -40.5332 -94.9326 -91.7334l23.4668 24.5332
c4.2666 4.2666 10.666 4.2666 14.9326 0s4.2666 -10.666 0 -14.9336l-42.666 -42.666c-4.2666 -4.2666 -10.667 -4.2666 -14.9336 0zM455.467 93.8662l42.667 -42.666c4.2666 -4.2666 4.2666 -10.667 0 -14.9336c-4.26758 -4.2666 -10.667 -4.2666 -14.9336 0
l-24.5332 24.5332c-2.13379 -62.9336 -53.334 -114.133 -117.334 -113.066v0c-6.39941 0 -10.666 4.2666 -10.666 10.667c0 5.33301 4.2666 10.666 10.666 10.666c51.2002 0 92.8008 41.6006 94.9336 91.7334l-23.4668 -24.5332
c-2.13281 -2.13281 -4.2666 -3.2002 -7.4668 -3.2002c-3.19922 0 -5.33301 1.06738 -7.4668 3.2002c-4.2666 4.2666 -4.2666 10.667 0 14.9336l42.667 42.666c4.2666 4.26758 10.667 4.26758 14.9336 0v0v0zM170.667 277.333c0 93.8672 76.7998 170.667 170.666 170.667
c93.8672 0 170.667 -76.7998 170.667 -170.667c0 -93.8662 -76.7998 -170.666 -170.667 -170.666c-93.8662 0 -170.666 76.7998 -170.666 170.666zM362.667 245.333c0 -11.7334 -9.60059 -21.333 -21.334 -21.333s-21.333 9.59961 -21.333 21.333
c0 6.40039 -4.2666 10.667 -10.667 10.667c-6.39941 0 -10.666 -4.2666 -10.666 -10.667c0 -20.2666 13.8662 -36.2666 32 -41.5996v-11.7334c0 -6.40039 4.2666 -10.667 10.666 -10.667c6.40039 0 10.667 4.2666 10.667 10.667v11.7334
c18.1338 4.2666 32 21.333 32 41.5996c0 23.4668 -19.2002 42.667 -42.667 42.667c-11.7334 0 -21.333 9.59961 -21.333 21.333s9.59961 21.334 21.333 21.334s21.334 -9.60059 21.334 -21.334c0 -6.39941 4.2666 -10.666 10.666 -10.666
c6.40039 0 10.667 4.2666 10.667 10.666c0 20.2666 -13.8662 36.2666 -32 41.6006v11.7334c0 6.39941 -4.2666 10.666 -10.667 10.666c-6.39941 0 -10.666 -4.2666 -10.666 -10.666v-11.7334c-18.1338 -4.2666 -32 -21.334 -32 -41.6006
c0 -23.4668 19.1992 -42.666 42.666 -42.666c11.7334 0 21.334 -9.60059 21.334 -21.334z" />
    <glyph glyph-name="data-area" unicode="&#xf128;" 
d="M505.6 411.733c3.2002 -2.13379 6.40039 -6.40039 6.40039 -10.667v-166.399v0v-286.934c0 -6.40039 -4.2666 -10.667 -10.667 -10.667h-490.666c-6.40039 0 -10.667 4.2666 -10.667 10.667v245.333v0v233.601c0 6.39941 4.2666 10.666 10.667 10.666
c6.39941 0 10.666 -4.2666 10.666 -10.666v-216.533l176 94.9326c3.2002 2.13379 5.33398 2.13379 8.5332 1.06738l154.667 -50.1338l133.333 152.533c3.2002 3.2002 7.4668 4.2666 11.7334 3.2002zM490.667 -42.667v136.533l-164.267 -37.333h-3.2002l-136.533 7.4668
l-155.733 -106.667h459.733zM490.667 115.2v103.467l-164.267 -68.2666c-1.06738 -1.06738 -3.2002 -1.06738 -4.2666 -1.06738h-136.534l-164.267 -92.7998v-80l155.733 106.667c2.13379 2.13281 4.2666 2.13281 6.40039 2.13281l138.667 -7.4668zM490.667 242.134v131.199
l-118.4 -136.533c-3.2002 -3.2002 -7.4668 -4.2666 -11.7334 -3.2002l-156.8 51.2002l-182.4 -98.1328v-105.601l156.801 88.5332c2.13281 1.06738 3.19922 1.06738 5.33301 1.06738h137.6z" />
    <glyph glyph-name="data-bars" unicode="&#xf129;" 
d="M512 -53.333c0 -6.40039 -4.2666 -10.667 -10.667 -10.667h-490.666c-6.40039 0 -10.667 4.2666 -10.667 10.667c0 6.39941 4.2666 10.666 10.667 10.666h10.666v96c0 6.40039 4.2666 10.667 10.667 10.667h64c6.40039 0 10.667 -4.2666 10.667 -10.667v-96h42.666
v202.667c0 6.40039 4.2666 10.667 10.667 10.667h64c6.40039 0 10.667 -4.2666 10.667 -10.667v-202.667h42.666v160c0 6.40039 4.2666 10.667 10.667 10.667h64c6.40039 0 10.667 -4.2666 10.667 -10.667v-160h42.666v309.334c0 6.39941 4.2666 10.666 10.667 10.666h64
c6.40039 0 10.667 -4.2666 10.667 -10.666v-309.334h10.666c6.40039 0 10.667 -4.2666 10.667 -10.666z" />
    <glyph glyph-name="data-line" unicode="&#xf12a;" 
d="M439.467 151.467l-75.7334 -43.7334c1.06641 -3.2002 2.13281 -7.4668 2.13281 -11.7334c0 -23.4668 -19.1992 -42.667 -42.666 -42.667c-20.2666 0 -36.2666 13.8672 -41.6006 32h-75.7334c-4.2666 -18.1328 -21.333 -32 -41.5996 -32
c-11.7334 0 -22.4004 4.2666 -29.8662 11.7334l-113.067 -74.666v-33.0674h469.334c6.39941 0 10.666 -4.2666 10.666 -10.666c0 -6.40039 -4.2666 -10.667 -10.666 -10.667h-480c-6.40039 0 -10.667 4.2666 -10.667 10.667v480c0 6.39941 4.2666 10.666 10.667 10.666
c6.39941 0 10.666 -4.2666 10.666 -10.666v-215.467l119.467 72.5332c-1.06641 4.2666 -2.13281 8.5332 -2.13281 12.7998c0 23.4668 19.1992 42.667 42.666 42.667s42.667 -19.2002 42.667 -42.667v-2.13281l83.2002 -26.667c7.4668 12.7998 21.333 21.333 36.2666 21.333
c6.39941 0 11.7334 -1.06641 17.0664 -3.2002l73.6006 92.8008c-4.26758 5.33301 -7.4668 13.8662 -7.4668 22.3994c0 23.4668 19.1992 42.667 42.666 42.667s42.667 -19.2002 42.667 -42.667s-19.2002 -42.666 -42.667 -42.666
c-6.39941 0 -13.8662 2.13281 -19.1992 4.2666l-72.5342 -91.7334c5.33398 -7.4668 8.53418 -16 8.53418 -25.6006c0 -23.4668 -19.2002 -42.666 -42.667 -42.666s-42.667 19.1992 -42.667 42.666v1.06738l-84.2666 26.666
c-7.4668 -11.7334 -21.333 -20.2666 -36.2666 -20.2666c-11.7334 0 -22.4004 4.2666 -29.8662 11.7334l-129.067 -77.8662v-170.667l102.4 67.2002c-1.06641 4.2666 -2.13379 7.4668 -2.13379 11.7334c0 23.4668 19.2002 42.666 42.667 42.666
c20.2666 0 36.2666 -13.8662 41.5996 -32h75.7334c4.2666 18.1338 21.334 32 41.6006 32c11.7334 0 22.3994 -5.33301 29.8662 -12.7998l75.7334 43.7334c-1.06641 5.33301 -2.13281 8.5332 -2.13281 12.7998c0 23.4668 19.1992 42.667 42.666 42.667
s42.667 -19.2002 42.667 -42.667s-19.2002 -42.666 -42.667 -42.666c-11.7334 0 -22.3994 5.33301 -29.8662 12.7998z" />
    <glyph glyph-name="data-pie-chart" unicode="&#xf12b;" 
d="M277.333 224v213.333c0 6.40039 4.2666 10.667 10.667 10.667c123.733 0 224 -100.267 224 -224c0 -6.40039 -4.2666 -10.667 -10.667 -10.667h-213.333c-6.40039 0 -10.667 4.2666 -10.667 10.667zM501.333 192c6.40039 0 10.667 -4.2666 10.667 -10.667
c0 -59.7334 -23.4668 -115.199 -66.1338 -157.866c-2.13281 -2.13379 -5.33301 -3.2002 -7.46582 -3.2002c-2.13379 0 -5.33398 1.06641 -7.4668 3.2002l-150.4 150.399c-3.2002 3.2002 -4.2666 7.4668 -2.13281 11.7334c1.06641 4.2666 5.33301 6.40039 9.59961 6.40039
h213.333zM234.667 164.267l147.199 -147.2c4.26758 -4.2666 4.26758 -10.666 0 -14.9326c-41.5996 -42.667 -98.1328 -66.1338 -157.866 -66.1338c-123.733 0 -224 100.267 -224 224s100.267 224 224 224c6.40039 0 10.667 -4.2666 10.667 -10.667v-209.066z" />
    <glyph glyph-name="design-dropper" unicode="&#xf1ae;" 
d="M362.667 245.333c0 -6.39941 -4.2666 -10.666 -10.667 -10.666h-32v-149.334c0 -25.5996 -13.8662 -44.7998 -21.333 -53.333v-42.667c0 -6.39941 -4.2666 -10.666 -10.667 -10.666h-64c-6.40039 0 -10.667 4.2666 -10.667 10.666v42.667
c-7.4668 8.5332 -21.333 27.7334 -21.333 53.333v149.334h-32c-6.40039 0 -10.667 4.2666 -10.667 10.666c0 6.40039 4.2666 10.667 10.667 10.667h192c6.40039 0 10.667 -4.2666 10.667 -10.667zM320 320v-42.667h-128v42.667c0 35.2002 28.7998 64 64 64
s64 -28.7998 64 -64z" />
    <glyph glyph-name="design-palette" unicode="&#xf1af;" 
d="M437.333 357.333c99.2002 -100.267 99.2002 -262.399 -1.06641 -362.666c-24.5332 -24.5332 -56.5332 -37.334 -90.667 -37.334c-34.1328 0 -66.1328 12.8008 -90.666 37.334l-90.667 90.666c-4.2666 4.2666 -10.667 4.2666 -14.9336 0s-4.2666 -10.666 0 -14.9326
c20.2666 -21.334 20.2666 -54.4004 0 -75.7334c-9.59961 -10.667 -23.4668 -16 -37.333 -16s-27.7334 6.39941 -37.333 16c-100.267 100.267 -100.267 262.399 0 362.666c49.0664 48 113.066 74.667 181.333 74.667s133.333 -26.667 181.333 -74.667zM241.066 281.6
c12.7998 12.8008 12.7998 33.0674 0 44.8008c-11.7334 12.7998 -32 12.7998 -44.7998 0c-12.7998 -11.7334 -12.7998 -32 0 -44.8008c11.7334 -12.7998 32 -12.7998 44.7998 0zM324.267 304c-12.7998 -11.7334 -12.7998 -33.0664 0 -44.7998
c11.7334 -12.7998 32 -12.7998 44.7998 0c12.7998 11.7334 12.7998 32 0 44.7998c-11.7334 12.7998 -32 12.7998 -44.7998 0zM376.533 40.5332c17.0664 16 17.0664 43.7334 0 60.7998c-17.0664 17.0674 -43.7334 17.0674 -60.7998 0
c-17.0664 -17.0664 -17.0664 -43.7334 0 -60.7998s43.7334 -17.0664 60.7998 0zM420.267 161.066c8.5332 8.5332 8.5332 21.334 0 29.8672s-21.333 8.5332 -29.8662 0c-8.53418 -8.5332 -8.53418 -21.334 0 -29.8672c8.5332 -8.5332 21.333 -8.5332 29.8662 0z" />
    <glyph glyph-name="design-ruler-corner" unicode="&#xf1b0;" 
d="M0 320h106.667v-42.667h-53.334c-6.39941 0 -10.666 -4.2666 -10.666 -10.666c0 -6.40039 4.2666 -10.667 10.666 -10.667h53.334v-64h-32c-6.40039 0 -10.667 -4.2666 -10.667 -10.667c0 -6.39941 4.2666 -10.666 10.667 -10.666h32v-64h-32
c-6.40039 0 -10.667 -4.2666 -10.667 -10.667s4.2666 -10.667 10.667 -10.667h32v-64h-53.334c-6.39941 0 -10.666 -4.2666 -10.666 -10.666c0 -6.40039 4.2666 -10.667 10.666 -10.667h53.334v-64h-96c-6.40039 0 -10.667 4.2666 -10.667 10.667v373.333zM501.333 448
c6.40039 0 10.667 -4.2666 10.667 -10.667v-96h-64v53.334c0 6.39941 -4.2666 10.666 -10.667 10.666c-6.39941 0 -10.666 -4.2666 -10.666 -10.666v-53.334h-64v32c0 6.40039 -4.2666 10.667 -10.667 10.667s-10.667 -4.2666 -10.667 -10.667v-32h-64v32
c0 6.40039 -4.2666 10.667 -10.666 10.667c-6.40039 0 -10.667 -4.2666 -10.667 -10.667v-32h-64v53.334c0 6.39941 -4.2666 10.666 -10.667 10.666c-6.39941 0 -10.666 -4.2666 -10.666 -10.666v-53.334h-42.667v106.667h373.333zM0 437.333
c0 6.40039 4.2666 10.667 10.667 10.667h96v-106.667h-106.667v96zM128 -64v384h384v-373.333c0 -6.40039 -4.2666 -10.667 -10.667 -10.667h-373.333z" />
    <glyph glyph-name="diamond" unicode="&#xf1f1;" 
d="M177.066 295.467l78.9336 131.2l78.9336 -131.2h-157.867zM172.8 274.134h166.4l-83.2002 -307.2zM270.934 -61.8662l91.7334 336h149.333zM0 274.134h149.333l91.7334 -336zM99.2002 435.2l43.7334 -139.733h-142.934zM396.8 448l-45.8662 -137.6l-82.1338 137.6h128z
M243.2 448l-82.1338 -136.533l-42.666 136.533h124.8zM512 295.467h-142.934l45.8672 136.533z" />
    <glyph glyph-name="document-cancel" unicode="&#xf17c;" 
d="M362.667 233.6c-83.2002 -5.33301 -149.334 -74.666 -149.334 -158.933c0 -36.2666 11.7334 -69.334 32 -96h-234.666c-6.40039 0 -10.667 4.2666 -10.667 10.666v448c0 6.40039 4.2666 10.667 10.667 10.667h234.666c3.2002 0 5.33398 -1.06641 7.4668 -3.2002
l106.667 -106.666c2.13281 -2.13379 3.2002 -4.26758 3.2002 -7.4668v-97.0674zM234.667 426.667v-106.667h106.666zM74.667 320c-6.40039 0 -10.667 -4.2666 -10.667 -10.667c0 -6.39941 4.2666 -10.666 10.667 -10.666h96c6.39941 0 10.666 4.2666 10.666 10.666
c0 6.40039 -4.2666 10.667 -10.666 10.667h-96zM74.667 256c-6.40039 0 -10.667 -4.2666 -10.667 -10.667c0 -6.39941 4.2666 -10.666 10.667 -10.666h170.666c6.40039 0 10.667 4.2666 10.667 10.666c0 6.40039 -4.2666 10.667 -10.667 10.667h-170.666zM181.333 106.667
c6.40039 0 10.667 4.2666 10.667 10.666c0 6.40039 -4.2666 10.667 -10.667 10.667h-106.666c-6.40039 0 -10.667 -4.2666 -10.667 -10.667c0 -6.39941 4.2666 -10.666 10.667 -10.666h106.666zM202.667 170.667c6.39941 0 10.666 4.2666 10.666 10.666
c0 6.40039 -4.2666 10.667 -10.666 10.667h-128c-6.40039 0 -10.667 -4.2666 -10.667 -10.667c0 -6.39941 4.2666 -10.666 10.667 -10.666h128zM373.333 213.333c76.8008 0 138.667 -61.8662 138.667 -138.666c0 -76.8008 -61.8662 -138.667 -138.667 -138.667
c-76.7998 0 -138.666 61.8662 -138.666 138.667c0 76.7998 61.8662 138.666 138.666 138.666zM438.4 24.5332l-50.1338 50.1338l50.1338 50.1328c4.2666 4.2666 4.2666 10.667 0 14.9336s-10.667 4.2666 -14.9336 0l-50.1338 -50.1338l-50.1328 50.1338
c-4.2666 4.2666 -10.667 4.2666 -14.9336 0s-4.2666 -10.667 0 -14.9336l50.1338 -50.1328l-50.1338 -50.1338c-4.2666 -4.2666 -4.2666 -10.667 0 -14.9336c2.13379 -2.13281 5.33301 -3.19922 7.4668 -3.19922c2.13281 0 5.33301 1.06641 7.4668 3.19922l50.1328 50.1338
l50.1338 -50.1338c2.13281 -2.13281 4.2666 -3.19922 7.4668 -3.19922c2.13281 0 5.33301 1.06641 7.4668 3.19922c4.2666 4.2666 4.2666 10.667 0 14.9336z" />
    <glyph glyph-name="document-check" unicode="&#xf17d;" 
d="M362.667 233.6c-83.2002 -5.33301 -149.334 -74.666 -149.334 -158.933c0 -36.2666 11.7334 -69.334 32 -96h-234.666c-6.40039 0 -10.667 4.2666 -10.667 10.666v448c0 6.40039 4.2666 10.667 10.667 10.667h234.666c3.2002 0 5.33398 -1.06641 7.4668 -3.2002
l106.667 -106.666c2.13281 -2.13379 3.2002 -4.26758 3.2002 -7.4668v-97.0674zM234.667 426.667v-106.667h106.666zM74.667 320c-6.40039 0 -10.667 -4.2666 -10.667 -10.667c0 -6.39941 4.2666 -10.666 10.667 -10.666h96c6.39941 0 10.666 4.2666 10.666 10.666
c0 6.40039 -4.2666 10.667 -10.666 10.667h-96zM74.667 256c-6.40039 0 -10.667 -4.2666 -10.667 -10.667c0 -6.39941 4.2666 -10.666 10.667 -10.666h170.666c6.40039 0 10.667 4.2666 10.667 10.666c0 6.40039 -4.2666 10.667 -10.667 10.667h-170.666zM181.333 106.667
c6.40039 0 10.667 4.2666 10.667 10.666c0 6.40039 -4.2666 10.667 -10.667 10.667h-106.666c-6.40039 0 -10.667 -4.2666 -10.667 -10.667c0 -6.39941 4.2666 -10.666 10.667 -10.666h106.666zM202.667 170.667c6.39941 0 10.666 4.2666 10.666 10.666
c0 6.40039 -4.2666 10.667 -10.666 10.667h-128c-6.40039 0 -10.667 -4.2666 -10.667 -10.667c0 -6.39941 4.2666 -10.666 10.667 -10.666h128zM373.333 213.333c76.8008 0 138.667 -61.8662 138.667 -138.666c0 -76.8008 -61.8662 -138.667 -138.667 -138.667
c-76.7998 0 -138.666 61.8662 -138.666 138.667c0 76.7998 61.8662 138.666 138.666 138.666zM451.2 102.4c4.2666 4.2666 3.2002 10.666 -1.06641 14.9326c-4.26758 3.2002 -10.667 3.2002 -14.9336 -1.06641l-73.6006 -81.0664l-50.1328 50.1328
c-4.2666 4.2666 -10.667 4.2666 -14.9336 0s-4.2666 -10.666 0 -14.9326l58.667 -57.6006c2.13281 -1.06641 4.2666 -2.13281 7.4668 -2.13281v0c3.19922 0 5.33301 1.06641 7.4668 3.19922z" />
    <glyph glyph-name="document-checklist" unicode="&#xf1a0;" 
d="M444.8 316.8c2.13379 -2.13281 3.2002 -4.2666 3.2002 -7.4668v-362.666c0 -6.40039 -4.2666 -10.667 -10.667 -10.667h-362.666c-6.40039 0 -10.667 4.2666 -10.667 10.667v490.666c0 6.40039 4.2666 10.667 10.667 10.667h234.666
c3.2002 0 5.33398 -1.06641 7.4668 -3.2002zM231.467 77.8662c4.2666 4.26758 4.2666 10.667 0 14.9336s-10.667 4.2666 -14.9336 0l-45.8662 -45.8662l-24.5332 24.5332c-4.26758 4.2666 -10.667 4.2666 -14.9336 0s-4.2666 -10.667 0 -14.9336l32 -32
c2.13281 -2.13281 4.2666 -3.2002 7.4668 -3.2002c3.19922 0 5.33301 1.06738 7.4668 3.2002zM231.467 173.866c4.2666 4.26758 4.2666 10.667 0 14.9336s-10.667 4.2666 -14.9336 0l-45.8662 -45.8662l-24.5332 24.5332c-4.26758 4.2666 -10.667 4.2666 -14.9336 0
s-4.2666 -10.667 0 -14.9336l32 -32c2.13281 -2.13281 4.2666 -3.2002 7.4668 -3.2002c3.19922 0 5.33301 1.06738 7.4668 3.2002zM231.467 269.866c4.2666 4.26758 4.2666 10.667 0 14.9336s-10.667 4.2666 -14.9336 0l-45.8662 -45.8662l-24.5332 24.5332
c-4.26758 4.2666 -10.667 4.2666 -14.9336 0s-4.2666 -10.667 0 -14.9336l32 -32c2.13281 -2.13281 4.2666 -3.2002 7.4668 -3.2002c3.19922 0 5.33301 1.06738 7.4668 3.2002zM352 42.667c6.40039 0 10.667 4.2666 10.667 10.666c0 6.40039 -4.2666 10.667 -10.667 10.667
h-85.333c-6.40039 0 -10.667 -4.2666 -10.667 -10.667c0 -6.39941 4.2666 -10.666 10.667 -10.666h85.333zM352 128c6.40039 0 10.667 4.2666 10.667 10.667c0 6.39941 -4.2666 10.666 -10.667 10.666h-85.333c-6.40039 0 -10.667 -4.2666 -10.667 -10.666
c0 -6.40039 4.2666 -10.667 10.667 -10.667h85.333zM352 213.333c6.40039 0 10.667 4.2666 10.667 10.667s-4.2666 10.667 -10.667 10.667h-85.333c-6.40039 0 -10.667 -4.2666 -10.667 -10.667s4.2666 -10.667 10.667 -10.667h85.333zM298.667 298.667h128l-128 128v-128z
" />
    <glyph glyph-name="document-clock" unicode="&#xf1b7;" 
d="M362.667 233.6c-83.2002 -5.33301 -149.334 -74.666 -149.334 -158.933c0 -36.2666 11.7334 -69.334 32 -96h-234.666c-6.40039 0 -10.667 4.2666 -10.667 10.666v448c0 6.40039 4.2666 10.667 10.667 10.667h234.666c3.2002 0 5.33398 -1.06641 7.4668 -3.2002
l106.667 -106.666c2.13281 -2.13379 3.2002 -4.26758 3.2002 -7.4668v-97.0674zM234.667 426.667v-106.667h106.666zM74.667 320c-6.40039 0 -10.667 -4.2666 -10.667 -10.667c0 -6.39941 4.2666 -10.666 10.667 -10.666h96c6.39941 0 10.666 4.2666 10.666 10.666
c0 6.40039 -4.2666 10.667 -10.666 10.667h-96zM74.667 256c-6.40039 0 -10.667 -4.2666 -10.667 -10.667c0 -6.39941 4.2666 -10.666 10.667 -10.666h170.666c6.40039 0 10.667 4.2666 10.667 10.666c0 6.40039 -4.2666 10.667 -10.667 10.667h-170.666zM181.333 106.667
c6.40039 0 10.667 4.2666 10.667 10.666c0 6.40039 -4.2666 10.667 -10.667 10.667h-106.666c-6.40039 0 -10.667 -4.2666 -10.667 -10.667c0 -6.39941 4.2666 -10.666 10.667 -10.666h106.666zM202.667 170.667c6.39941 0 10.666 4.2666 10.666 10.666
c0 6.40039 -4.2666 10.667 -10.666 10.667h-128c-6.40039 0 -10.667 -4.2666 -10.667 -10.667c0 -6.39941 4.2666 -10.666 10.667 -10.666h128zM373.333 213.333c76.8008 0 138.667 -61.8662 138.667 -138.666c0 -76.8008 -61.8662 -138.667 -138.667 -138.667
c-76.7998 0 -138.666 61.8662 -138.666 138.667c0 76.7998 61.8662 138.666 138.666 138.666zM416 64c6.40039 0 10.667 4.2666 10.667 10.667c0 6.39941 -4.2666 10.666 -10.667 10.666h-32v64c0 6.40039 -4.2666 10.667 -10.667 10.667
c-6.39941 0 -10.666 -4.2666 -10.666 -10.667v-74.666c0 -6.40039 4.2666 -10.667 10.666 -10.667h42.667z" />
    <glyph glyph-name="document-compress-zip" unicode="&#xf1e9;" 
d="M444.8 359.467c2.13379 -2.13379 3.2002 -4.2666 3.2002 -7.4668v-405.333c0 -6.40039 -4.2666 -10.667 -10.667 -10.667h-362.666c-6.40039 0 -10.667 4.2666 -10.667 10.667v490.666c0 6.40039 4.2666 10.667 10.667 10.667h160v-21.333v-32
c0 -6.40039 4.2666 -10.667 10.666 -10.667h10.667v-85.333h-42.667v21.333h21.334v21.333h-21.334v53.334c0 6.39941 -4.2666 10.666 -10.666 10.666c-6.40039 0 -10.667 -4.2666 -10.667 -10.666v-106.667c0 -6.40039 4.2666 -10.667 10.667 -10.667h64
c6.39941 0 10.666 4.2666 10.666 10.667v106.667c0 6.39941 -4.2666 10.666 -10.666 10.666h-10.667v21.334v21.333h96c3.2002 0 5.33301 -1.06641 7.4668 -3.2002zM256 202.667c0 6.39941 -4.2666 10.666 -10.667 10.666h21.334c6.39941 0 10.666 4.2666 10.666 10.667
s-4.2666 10.667 -10.666 10.667h-21.334c6.40039 0 10.667 4.2666 10.667 10.666c0 6.40039 -4.2666 10.667 -10.667 10.667h-21.333c-6.40039 0 -10.667 -4.2666 -10.667 -10.667c0 -6.39941 4.2666 -10.666 10.667 -10.666h21.333
c-6.39941 0 -10.666 -4.2666 -10.666 -10.667s4.2666 -10.667 10.666 -10.667h-21.333c-6.40039 0 -10.667 -4.2666 -10.667 -10.666c0 -6.40039 4.2666 -10.667 10.667 -10.667h21.333c-6.39941 0 -10.666 -4.2666 -10.666 -10.667
c0 -6.39941 4.2666 -10.666 10.666 -10.666h-21.333c-6.40039 0 -10.667 -4.2666 -10.667 -10.667s4.2666 -10.667 10.667 -10.667h21.333c-6.39941 0 -10.666 -4.2666 -10.666 -10.666c0 -6.40039 4.2666 -10.667 10.666 -10.667h-21.333
c-6.40039 0 -10.667 -4.2666 -10.667 -10.667c0 -6.39941 4.2666 -10.666 10.667 -10.666h21.333c-6.39941 0 -10.666 -4.2666 -10.666 -10.667s4.2666 -10.667 10.666 -10.667h-21.333c-6.40039 0 -10.667 -4.2666 -10.667 -10.666
c0 -6.40039 4.2666 -10.667 10.667 -10.667h21.333c-6.39941 0 -10.666 -4.2666 -10.666 -10.667c0 -6.39941 4.2666 -10.666 10.666 -10.666h-21.333c-6.40039 0 -10.667 -4.2666 -10.667 -10.667s4.2666 -10.667 10.667 -10.667h21.333
c-6.39941 0 -10.666 -4.2666 -10.666 -10.666c0 -6.40039 4.2666 -10.667 10.666 -10.667h-21.333c-6.40039 0 -10.667 -4.2666 -10.667 -10.667c0 -6.39941 4.2666 -10.666 10.667 -10.666h21.333c6.40039 0 10.667 4.2666 10.667 10.666
c0 6.40039 -4.2666 10.667 -10.667 10.667h21.334c6.39941 0 10.666 4.2666 10.666 10.667c0 6.39941 -4.2666 10.666 -10.666 10.666h-21.334c6.40039 0 10.667 4.2666 10.667 10.667s-4.2666 10.667 -10.667 10.667h21.334c6.39941 0 10.666 4.2666 10.666 10.666
c0 6.40039 -4.2666 10.667 -10.666 10.667h-21.334c6.40039 0 10.667 4.2666 10.667 10.667c0 6.39941 -4.2666 10.666 -10.667 10.666h21.334c6.39941 0 10.666 4.2666 10.666 10.667s-4.2666 10.667 -10.666 10.667h-21.334c6.40039 0 10.667 4.2666 10.667 10.666
c0 6.40039 -4.2666 10.667 -10.667 10.667h21.334c6.39941 0 10.666 4.2666 10.666 10.667c0 6.39941 -4.2666 10.666 -10.666 10.666h-21.334c6.40039 0 10.667 4.2666 10.667 10.667s-4.2666 10.667 -10.667 10.667h21.334c6.39941 0 10.666 4.2666 10.666 10.666
c0 6.40039 -4.2666 10.667 -10.666 10.667h-21.334c6.40039 0 10.667 4.2666 10.667 10.667z" />
    <glyph glyph-name="document-font" unicode="&#xf1ea;" 
d="M466.134 316.8c2.13281 -2.13281 3.19922 -4.2666 3.19922 -7.4668v-362.666c0 -6.40039 -4.2666 -10.667 -10.666 -10.667h-405.334c-6.39941 0 -10.666 4.2666 -10.666 10.667v490.666c0 6.40039 4.2666 10.667 10.666 10.667h277.334
c3.19922 0 5.33301 -1.06641 7.4668 -3.2002zM362.667 160v64c0 6.40039 -4.2666 10.667 -10.667 10.667h-213.333c-6.40039 0 -10.667 -4.2666 -10.667 -10.667v-64c0 -6.40039 4.2666 -10.667 10.667 -10.667c6.39941 0 10.666 4.2666 10.666 10.667v53.333h85.334v-192
h-53.334c-6.39941 0 -10.666 -4.2666 -10.666 -10.666c0 -6.40039 4.2666 -10.667 10.666 -10.667h128c6.40039 0 10.667 4.2666 10.667 10.667c0 6.39941 -4.2666 10.666 -10.667 10.666h-53.333v192h85.333v-53.333c0 -6.40039 4.2666 -10.667 10.667 -10.667
s10.667 4.2666 10.667 10.667zM320 298.667h128l-128 128v-128z" />
    <glyph glyph-name="document-money" unicode="&#xf17e;" 
d="M362.667 233.6c-85.334 -5.33301 -149.334 -74.666 -149.334 -158.933c0 -36.2666 11.7334 -64 32 -96h-234.666c-6.40039 0 -10.667 4.2666 -10.667 10.666v448c0 6.40039 4.2666 10.667 10.667 10.667h234.666c3.2002 0 5.33398 -1.06641 7.4668 -3.2002
l106.667 -106.666c2.13281 -2.13379 3.2002 -4.26758 3.2002 -7.4668v-97.0674zM234.667 426.667v-106.667h106.666zM74.667 320c-6.40039 0 -10.667 -4.2666 -10.667 -10.667c0 -6.39941 4.2666 -10.666 10.667 -10.666h96c6.39941 0 10.666 4.2666 10.666 10.666
c0 6.40039 -4.2666 10.667 -10.666 10.667h-96zM74.667 256c-6.40039 0 -10.667 -4.2666 -10.667 -10.667c0 -6.39941 4.2666 -10.666 10.667 -10.666h170.666c6.40039 0 10.667 4.2666 10.667 10.666c0 6.40039 -4.2666 10.667 -10.667 10.667h-170.666zM181.333 106.667
c6.40039 0 10.667 4.2666 10.667 10.666c0 6.40039 -4.2666 10.667 -10.667 10.667h-106.666c-6.40039 0 -10.667 -4.2666 -10.667 -10.667c0 -6.39941 4.2666 -10.666 10.667 -10.666h106.666zM202.667 170.667c6.39941 0 10.666 4.2666 10.666 10.666
c0 6.40039 -4.2666 10.667 -10.666 10.667h-128c-6.40039 0 -10.667 -4.2666 -10.667 -10.667c0 -6.39941 4.2666 -10.666 10.667 -10.666h128zM373.333 213.333c76.8008 0 138.667 -61.8662 138.667 -138.666c0 -76.8008 -61.8662 -138.667 -138.667 -138.667
c-76.7998 0 -138.666 61.8662 -138.666 138.667c0 76.7998 61.8662 138.666 138.666 138.666zM373.333 86.4004c-10.666 0 -19.1992 8.5332 -19.1992 19.1992c0 10.667 8.5332 19.2002 19.1992 19.2002c10.667 0 19.2002 -8.5332 19.2002 -19.2002
c0 -6.39941 4.2666 -10.666 10.667 -10.666c6.39941 0 10.666 4.2666 10.666 10.666c0 18.1338 -8.5332 34.1338 -29.8662 38.4004v10.667c0 6.39941 -4.2666 10.666 -10.667 10.666c-6.39941 0 -10.666 -4.2666 -10.666 -10.666v-10.667
c-21.334 -4.2666 -29.8672 -20.2666 -29.8672 -38.4004c0 -22.3994 18.1338 -40.5332 40.5332 -40.5332c10.667 0 19.2002 -8.5332 19.2002 -19.2002c0 -10.666 -8.5332 -19.1992 -19.2002 -19.1992c-10.666 0 -19.1992 8.5332 -19.1992 19.1992
c0 6.40039 -4.26758 10.667 -10.667 10.667c-6.40039 0 -10.667 -4.2666 -10.667 -10.667c0 -18.1328 8.5332 -34.1328 29.8672 -38.3994v-10.667c0 -6.39941 4.2666 -10.666 10.666 -10.666c6.40039 0 10.667 4.2666 10.667 10.666v10.667
c21.333 4.2666 29.8662 20.2666 29.8662 38.3994c0 22.4004 -18.1328 40.5342 -40.5332 40.5342z" />
    <glyph glyph-name="document" unicode="&#xf12c;" 
d="M444.8 316.8c2.13379 -2.13281 3.2002 -4.2666 3.2002 -7.4668v-362.666c0 -6.40039 -4.2666 -10.667 -10.667 -10.667h-362.666c-6.40039 0 -10.667 4.2666 -10.667 10.667v490.666c0 6.40039 4.2666 10.667 10.667 10.667h234.666
c3.2002 0 5.33398 -1.06641 7.4668 -3.2002zM160 298.667c-6.40039 0 -10.667 -4.2666 -10.667 -10.667s4.2666 -10.667 10.667 -10.667h96c6.40039 0 10.667 4.2666 10.667 10.667s-4.2666 10.667 -10.667 10.667h-96zM352 21.333c6.40039 0 10.667 4.2666 10.667 10.667
s-4.2666 10.667 -10.667 10.667h-192c-6.40039 0 -10.667 -4.2666 -10.667 -10.667s4.2666 -10.667 10.667 -10.667h192zM352 85.333c6.40039 0 10.667 4.2666 10.667 10.667s-4.2666 10.667 -10.667 10.667h-192c-6.40039 0 -10.667 -4.2666 -10.667 -10.667
s4.2666 -10.667 10.667 -10.667h192zM352 149.333c6.40039 0 10.667 4.2666 10.667 10.667s-4.2666 10.667 -10.667 10.667h-192c-6.40039 0 -10.667 -4.2666 -10.667 -10.667s4.2666 -10.667 10.667 -10.667h192zM352 213.333c6.40039 0 10.667 4.2666 10.667 10.667
s-4.2666 10.667 -10.667 10.667h-192c-6.40039 0 -10.667 -4.2666 -10.667 -10.667s4.2666 -10.667 10.667 -10.667h192zM298.667 298.667h128l-128 128v-128z" />
    <glyph glyph-name="documents-empty" unicode="&#xf17f;" 
d="M117.333 -21.333h266.667v-32c0 -6.40039 -4.2666 -10.667 -10.667 -10.667h-298.666c-6.40039 0 -10.667 4.2666 -10.667 10.667v426.666c0 6.40039 4.2666 10.667 10.667 10.667h32v-394.667c0 -6.39941 4.2666 -10.666 10.666 -10.666zM448 309.333v-298.666
c0 -6.40039 -4.2666 -10.667 -10.667 -10.667h-298.666h-10.667v10.667v426.666c0 6.40039 4.2666 10.667 10.667 10.667h170.666c3.2002 0 5.33398 -1.06641 7.4668 -3.2002l128 -128c2.13379 -2.13281 3.2002 -4.2666 3.2002 -7.4668zM426.667 298.667l-128 128v-128h128z
" />
    <glyph glyph-name="documents" unicode="&#xf12d;" 
d="M117.333 -21.333h266.667v-32c0 -6.40039 -4.2666 -10.667 -10.667 -10.667h-298.666c-6.40039 0 -10.667 4.2666 -10.667 10.667v426.666c0 6.40039 4.2666 10.667 10.667 10.667h32v-394.667c0 -6.39941 4.2666 -10.666 10.666 -10.666zM448 309.333v-298.666
c0 -6.40039 -4.2666 -10.667 -10.667 -10.667h-298.666h-10.667v10.667v426.666c0 6.40039 4.2666 10.667 10.667 10.667h170.666c3.2002 0 5.33398 -1.06641 7.4668 -3.2002l128 -128c2.13379 -2.13281 3.2002 -4.2666 3.2002 -7.4668zM192 288
c0 -6.40039 4.2666 -10.667 10.667 -10.667h53.333c6.40039 0 10.667 4.2666 10.667 10.667s-4.2666 10.667 -10.667 10.667h-53.333c-6.40039 0 -10.667 -4.2666 -10.667 -10.667zM384 96c0 6.40039 -4.2666 10.667 -10.667 10.667h-170.666
c-6.40039 0 -10.667 -4.2666 -10.667 -10.667s4.2666 -10.667 10.667 -10.667h170.666c6.40039 0 10.667 4.2666 10.667 10.667zM384 160c0 6.40039 -4.2666 10.667 -10.667 10.667h-170.666c-6.40039 0 -10.667 -4.2666 -10.667 -10.667s4.2666 -10.667 10.667 -10.667
h170.666c6.40039 0 10.667 4.2666 10.667 10.667zM384 224c0 6.40039 -4.2666 10.667 -10.667 10.667h-170.666c-6.40039 0 -10.667 -4.2666 -10.667 -10.667s4.2666 -10.667 10.667 -10.667h170.666c6.40039 0 10.667 4.2666 10.667 10.667zM426.667 298.667l-128 128v-128
h128z" />
    <glyph glyph-name="email-search" unicode="&#xf1a1;" 
d="M256 100.267c0 -5.33301 0 -9.59961 1.06641 -13.8662h-214.399c-23.4668 0 -42.667 19.1992 -42.667 42.666v233.601c0 8.5332 2.13379 16 6.40039 22.3994l222.933 -137.6c2.13379 -1.06641 3.2002 -2.13379 5.33398 -2.13379
c2.13281 0 4.2666 1.06738 5.33301 2.13379l222.934 137.6c4.2666 -6.39941 6.39941 -13.8662 6.39941 -22.3994v-210.134c-19.1992 36.2666 -56.5332 60.7998 -100.267 60.7998c-61.8662 0 -113.066 -51.1992 -113.066 -113.066zM446.934 400l-212.267 -131.2
l-212.267 131.2c6.39941 3.2002 12.7998 5.33301 20.2666 5.33301h384c7.4668 0 13.8662 -2.13281 20.2666 -5.33301zM508.8 -39.4668c-4.2666 -4.2666 -10.666 -4.2666 -14.9336 0l-52.2666 52.2666l-14.9326 14.9336c-16 -12.7998 -35.2002 -20.2666 -56.5332 -20.2666
c-50.1338 0 -91.7334 41.5996 -91.7334 91.7334c0 50.1328 41.5996 91.7334 91.7334 91.7334c50.1328 0 91.7324 -41.6006 91.7324 -91.7334c0 -21.334 -7.46582 -41.6006 -20.2666 -56.5332l14.9336 -14.9336l52.2666 -52.2666c4.2666 -4.2666 4.2666 -10.667 0 -14.9336z
M439.467 100.267c0 38.4004 -32 70.4004 -70.4004 70.4004c-38.3994 0 -70.3994 -32 -70.3994 -70.4004s32 -70.4004 70.3994 -70.4004c39.4668 0 70.4004 30.9336 70.4004 70.4004z" />
    <glyph glyph-name="email" unicode="&#xf12e;" 
d="M256 168.533l-232.533 187.733c6.39941 4.2666 14.9336 6.40039 23.4668 6.40039h419.2c8.5332 0 16 -2.13379 23.4658 -6.40039zM505.6 340.267c4.2666 -7.4668 6.40039 -14.9336 7.4668 -24.5332v-247.467c0 -25.5996 -21.333 -46.9336 -46.9326 -46.9336h-419.2
c-25.6006 0 -46.9336 21.334 -46.9336 45.8672v248.533c0 9.59961 2.13379 17.0664 6.40039 24.5332l176 -141.866l-114.134 -83.2002c-4.2666 -3.2002 -5.33301 -10.667 -2.13281 -14.9336c2.13281 -3.2002 5.33301 -4.2666 8.5332 -4.2666
c2.13281 0 4.2666 1.06641 6.39941 2.13379l117.334 85.333c1.06641 0 1.06641 1.06641 1.06641 1.06641l49.0664 -40.5332c2.13379 -1.06641 4.2666 -2.13379 7.4668 -2.13379s5.33301 0 7.4668 2.13379l49.0664 40.5332c1.06641 0 1.06641 -1.06641 1.06641 -1.06641
l117.334 -85.333c2.13281 -1.06738 4.2666 -2.13379 6.39941 -2.13379c3.2002 0 6.40039 1.06641 8.5332 4.2666c3.2002 5.33301 2.13379 11.7334 -2.13281 14.9336l-114.134 83.2002z" />
    <glyph glyph-name="ethernet" unicode="&#xf12f;" 
d="M501.333 448c6.40039 0 10.667 -4.2666 10.667 -10.667v-490.666c0 -6.40039 -4.2666 -10.667 -10.667 -10.667h-490.666c-6.40039 0 -10.667 4.2666 -10.667 10.667v490.666c0 6.40039 4.2666 10.667 10.667 10.667h490.666zM448 96v256
c0 6.40039 -4.2666 10.667 -10.667 10.667h-74.666v-96c0 -6.40039 -4.2666 -10.667 -10.667 -10.667s-10.667 4.2666 -10.667 10.667v96h-42.666v-96c0 -6.40039 -4.2666 -10.667 -10.667 -10.667s-10.667 4.2666 -10.667 10.667v96h-42.666v-96
c0 -6.40039 -4.2666 -10.667 -10.667 -10.667s-10.667 4.2666 -10.667 10.667v96h-42.666v-96c0 -6.40039 -4.2666 -10.667 -10.667 -10.667s-10.667 4.2666 -10.667 10.667v96h-74.666c-6.40039 0 -10.667 -4.2666 -10.667 -10.667v-256
c0 -6.40039 4.2666 -10.667 10.667 -10.667h117.333v-32c0 -6.39941 4.2666 -10.666 10.667 -10.666h106.666c6.40039 0 10.667 4.2666 10.667 10.666v32h117.333c6.40039 0 10.667 4.2666 10.667 10.667z" />
    <glyph glyph-name="file-download" unicode="&#xf130;" 
d="M512 70.4004v-40.5342c0 -43.7324 -35.2002 -92.7998 -82.1338 -92.7998h-347.732c-46.9336 -1.06641 -82.1338 48 -82.1338 91.7334v40.5332c0 11.7334 9.59961 21.334 21.333 21.334s21.334 -9.60059 21.334 -21.334v-40.5332
c0 -21.333 19.1992 -50.1328 39.4668 -50.1328h346.666c21.334 0 39.4668 28.7998 39.4668 50.1328v40.5332c0 11.7334 9.59961 21.334 21.333 21.334c12.8008 1.06641 22.4004 -8.5332 22.4004 -20.2666zM241.066 57.5996l-149.333 149.334
c-8.5332 8.5332 -8.5332 21.333 0 29.8662s21.333 8.5332 29.8662 0l113.067 -113.066v302.934c0 11.7334 9.59961 21.333 21.333 21.333s21.333 -9.59961 21.333 -21.333v-302.934l113.067 113.066c8.5332 8.5332 21.333 8.5332 29.8662 0s8.5332 -21.333 0 -29.8662
l-149.333 -149.334c-8.5332 -8.5332 -22.4004 -7.46582 -29.8672 0z" />
    <glyph glyph-name="file-upload" unicode="&#xf131;" 
d="M512 70.4004v-40.5342c0 -43.7324 -35.2002 -92.7998 -82.1338 -92.7998h-347.732c-46.9336 -1.06641 -82.1338 48 -82.1338 91.7334v40.5332c0 11.7334 9.59961 21.334 21.333 21.334s21.334 -9.60059 21.334 -21.334v-40.5332
c0 -21.333 19.1992 -50.1328 39.4668 -50.1328h346.666c21.334 0 39.4668 28.7998 39.4668 50.1328v40.5332c0 11.7334 9.59961 21.334 21.333 21.334c12.8008 1.06641 22.4004 -8.5332 22.4004 -20.2666zM121.6 262.4c-8.5332 -8.53418 -21.333 -8.53418 -29.8662 0
c-8.5332 8.5332 -8.5332 21.333 0 29.8662l149.333 149.333c7.4668 7.4668 21.334 8.53418 29.8672 0l149.333 -149.333c8.5332 -8.5332 8.5332 -21.333 0 -29.8662c-4.2666 -4.2666 -9.59961 -6.40039 -14.9336 -6.40039c-5.33301 0 -10.666 2.13379 -14.9326 6.40039
l-113.067 113.066v-302.934c0 -11.7334 -9.59961 -21.333 -21.333 -21.333s-21.333 9.59961 -21.333 21.333v302.934z" />
    <glyph glyph-name="flag" unicode="&#xf132;" 
d="M469.333 379.733v-321.066c0 -4.2666 -2.13281 -7.4668 -6.39941 -9.60059c-29.8672 -14.9326 -57.6006 -22.3994 -86.4004 -22.3994c-43.7334 0 -81.0664 17.0664 -117.333 34.1328s-74.667 34.1338 -118.4 34.1338c-25.5996 0 -51.2002 -5.33398 -77.8662 -17.0674
v-120.533c0 -11.7334 -9.60059 -21.333 -21.334 -21.333s-21.333 9.59961 -21.333 21.333v469.334c0 11.7334 9.59961 21.333 21.333 21.333s21.334 -9.59961 21.334 -21.333v-5.33398c27.7334 10.667 54.3994 14.9336 80 14.9336
c49.0664 0 86.3994 -20.2666 123.733 -38.4004c35.1992 -17.0664 68.2666 -35.1992 106.666 -35.1992v0c25.6006 0 52.2666 9.59961 81.0674 24.5332c3.19922 2.13281 7.46582 4.2666 10.666 2.13281c2.13379 -2.13281 4.2666 -5.33301 4.2666 -9.59961z" />
    <glyph glyph-name="folder" unicode="&#xf133;" 
d="M512 352v-362.667c0 -6.39941 -4.2666 -10.666 -10.667 -10.666h-490.666c-6.40039 0 -10.667 4.2666 -10.667 10.666v405.334c0 6.39941 4.2666 10.666 10.667 10.666h149.333c3.2002 0 5.33301 -1.06641 7.4668 -3.19922l39.4668 -39.4668h294.399
c6.40039 0 10.667 -4.2666 10.667 -10.667z" />
    <glyph glyph-name="food-service" unicode="&#xf180;" 
d="M422.4 151.467c3.19922 -8.5332 2.13281 -16 -3.2002 -22.4004l-173.867 -172.8l-117.333 72.5332c2.13379 26.667 1.06641 81.0664 -27.7334 114.134c-6.40039 6.39941 -6.40039 17.0664 0 23.4668c5.33301 6.39941 12.7998 9.59961 21.333 9.59961
c26.667 0 58.667 -29.8662 87.4668 -83.2002c6.40039 -11.7334 20.2666 -11.7334 35.2002 -3.2002c13.8672 7.4668 29.8672 21.334 45.8672 34.1338c25.5996 21.333 49.0664 40.5332 70.3994 45.8662c7.4668 2.13379 14.9336 3.2002 21.333 3.2002
c23.4668 0 36.2676 -10.666 40.5342 -21.333zM54.4004 -64l65.0664 71.4668l109.866 -67.2002l-4.2666 -4.2666h-170.666zM512 202.667c0 -6.40039 -4.2666 -10.667 -10.667 -10.667h-43.7334h-404.267h-41.5996c-6.40039 0 -10.667 4.2666 -10.667 10.667
c0 6.39941 4.2666 10.666 10.667 10.666h30.9336c0 106.667 85.333 201.601 192 212.267v11.7334c0 6.40039 4.2666 10.667 10.666 10.667c6.40039 0 10.667 -4.2666 10.667 -10.667v-10.666c117.333 0 213.333 -96 213.333 -213.334h32
c5.33398 0 10.667 -4.2666 10.667 -10.666zM266.667 362.667c0 6.39941 -4.2666 10.666 -10.667 10.666c-71.4668 0 -133.333 -45.8662 -154.667 -113.066c-2.13281 -5.33301 1.06738 -11.7334 6.40039 -13.8662h3.2002c4.2666 0 8.5332 3.19922 10.666 7.46582
c18.1338 58.667 72.5342 98.1338 134.4 98.1338c5.33301 0 10.667 5.33301 10.667 10.667z" />
    <glyph glyph-name="food" unicode="&#xf134;" 
d="M405.333 115.2c0 -5.33398 -4.2666 -8.5332 -10.666 -8.5332h-32v-149.334c0 -11.7334 -9.60059 -21.333 -21.334 -21.333s-21.333 9.59961 -21.333 21.333v469.334c0 11.7334 9.59961 21.333 21.333 21.333c6.40039 0 11.7334 -3.2002 16 -7.4668
c35.2002 -34.1328 48 -188.8 48 -323.2v-2.13281zM234.667 448c11.7334 0 21.333 -9.59961 21.333 -21.333v-96c0 -39.4668 -32 -72.5332 -64 -82.1338v-291.2c0 -11.7334 -9.59961 -21.333 -21.333 -21.333s-21.334 9.59961 -21.334 21.333v291.2
c-32 9.60059 -64 42.667 -64 82.1338v96c0 11.7334 9.60059 21.333 21.334 21.333s21.333 -9.59961 21.333 -21.333v-96c0 -14.9336 10.667 -28.8008 21.333 -36.2666v132.267c0 11.7334 9.60059 21.333 21.334 21.333s21.333 -9.59961 21.333 -21.333v-132.267
c10.667 7.46582 21.333 20.2666 21.333 36.2666v96c0 11.7334 9.60059 21.333 21.334 21.333z" />
    </font>
</defs>
</svg>
