<?xml version="1.0" encoding="utf-8"?>
<!-- Generator: Adobe Illustrator 17.0.0, SVG Export Plug-In . SVG Version: 6.00 Build 0)  -->
<!DOCTYPE svg PUBLIC "-//W3C//DTD SVG 1.1//EN" "http://www.w3.org/Graphics/SVG/1.1/DTD/svg11.dtd">
<svg version="1.1" id="Layer_1" xmlns="http://www.w3.org/2000/svg" xmlns:xlink="http://www.w3.org/1999/xlink" x="0px" y="0px"
	 width="48px" height="48px" viewBox="0 0 48 48" enable-background="new 0 0 48 48" xml:space="preserve">
<path d="M45.8,46.4L23.9,2.6c-0.3-0.7-1.5-0.7-1.8,0l-22,44c-0.2,0.3-0.1,0.7,0,1C0.3,47.8,0.7,48,1,48h44c0,0,0,0,0,0
	c0.6,0,1-0.4,1-1C46,46.8,45.9,46.6,45.8,46.4z M22,18.3c0-0.6,0.4-1,1-1c0.6,0,1,0.4,1,1v15.3c0,0.6-0.4,1-1,1c-0.6,0-1-0.4-1-1
	V18.3z M23,42.2c-1.1,0-1.9-0.9-1.9-1.9c0-1.1,0.9-1.9,1.9-1.9c1.1,0,1.9,0.9,1.9,1.9C24.9,41.4,24.1,42.2,23,42.2z"/>
</svg>
