<?xml version="1.0" encoding="utf-8"?>
<!-- Generator: Adobe Illustrator 17.0.0, SVG Export Plug-In . SVG Version: 6.00 Build 0)  -->
<!DOCTYPE svg PUBLIC "-//W3C//DTD SVG 1.1//EN" "http://www.w3.org/Graphics/SVG/1.1/DTD/svg11.dtd">
<svg version="1.1" id="Layer_1" xmlns="http://www.w3.org/2000/svg" xmlns:xlink="http://www.w3.org/1999/xlink" x="0px" y="0px"
	 width="48px" height="48px" viewBox="0 0 48 48" enable-background="new 0 0 48 48" xml:space="preserve">
<path d="M48,46c0,1.1-0.9,2-2,2H2c-1.1,0-2-0.9-2-2c0-1.1,0.9-2,2-2h44C47.1,44,48,44.9,48,46z M6,6h36c1.1,0,2-0.9,2-2
	c0-1.1-0.9-2-2-2H6C4.9,2,4,2.9,4,4C4,5.1,4.9,6,6,6z M35,12c1.1,0,2-0.9,2-2c0-1.1-0.9-2-2-2H13c-1.1,0-2,0.9-2,2c0,1.1,0.9,2,2,2
	H35z M6,16c0,1.1,0.9,2,2,2h32c1.1,0,2-0.9,2-2c0-1.1-0.9-2-2-2H8C6.9,14,6,14.9,6,16z M2,24h44c1.1,0,2-0.9,2-2c0-1.1-0.9-2-2-2H2
	c-1.1,0-2,0.9-2,2C0,23.1,0.9,24,2,24z M38,26H10c-1.1,0-2,0.9-2,2c0,1.1,0.9,2,2,2h28c1.1,0,2-0.9,2-2C40,26.9,39.1,26,38,26z
	 M33,36c1.1,0,2-0.9,2-2c0-1.1-0.9-2-2-2H15c-1.1,0-2,0.9-2,2c0,1.1,0.9,2,2,2H33z M8,40c0,1.1,0.9,2,2,2h28c1.1,0,2-0.9,2-2
	c0-1.1-0.9-2-2-2H10C8.9,38,8,38.9,8,40z"/>
</svg>
