<?xml version="1.0" encoding="utf-8"?>
<!-- Generator: Adobe Illustrator 17.0.0, SVG Export Plug-In . SVG Version: 6.00 Build 0)  -->
<!DOCTYPE svg PUBLIC "-//W3C//DTD SVG 1.1//EN" "http://www.w3.org/Graphics/SVG/1.1/DTD/svg11.dtd">
<svg version="1.1" id="Layer_1" xmlns="http://www.w3.org/2000/svg" xmlns:xlink="http://www.w3.org/1999/xlink" x="0px" y="0px"
	 width="48px" height="48px" viewBox="0 0 48 48" enable-background="new 0 0 48 48" xml:space="preserve">
<path d="M48,46c0,1.1-0.9,2-2,2H2c-1.1,0-2-0.9-2-2c0-1.1,0.9-2,2-2h44C47.1,44,48,44.9,48,46z M2,6h38c1.1,0,2-0.9,2-2
	c0-1.1-0.9-2-2-2H2C0.9,2,0,2.9,0,4C0,5.1,0.9,6,2,6z M2,12h30c1.1,0,2-0.9,2-2c0-1.1-0.9-2-2-2H2c-1.1,0-2,0.9-2,2
	C0,11.1,0.9,12,2,12z M2,18h34c1.1,0,2-0.9,2-2c0-1.1-0.9-2-2-2H2c-1.1,0-2,0.9-2,2C0,17.1,0.9,18,2,18z M2,24h44c1.1,0,2-0.9,2-2
	c0-1.1-0.9-2-2-2H2c-1.1,0-2,0.9-2,2C0,23.1,0.9,24,2,24z M2,30h36c1.1,0,2-0.9,2-2c0-1.1-0.9-2-2-2H2c-1.1,0-2,0.9-2,2
	C0,29.1,0.9,30,2,30z M2,36h30c1.1,0,2-0.9,2-2c0-1.1-0.9-2-2-2H2c-1.1,0-2,0.9-2,2C0,35.1,0.9,36,2,36z M2,42h36c1.1,0,2-0.9,2-2
	c0-1.1-0.9-2-2-2H2c-1.1,0-2,0.9-2,2C0,41.1,0.9,42,2,42z"/>
</svg>
