<?xml version="1.0" encoding="utf-8"?>
<!-- Generator: Adobe Illustrator 17.0.0, SVG Export Plug-In . SVG Version: 6.00 Build 0)  -->
<!DOCTYPE svg PUBLIC "-//W3C//DTD SVG 1.1//EN" "http://www.w3.org/Graphics/SVG/1.1/DTD/svg11.dtd">
<svg version="1.1" id="Layer_1" xmlns="http://www.w3.org/2000/svg" xmlns:xlink="http://www.w3.org/1999/xlink" x="0px" y="0px"
	 width="48px" height="48px" viewBox="0 0 48 48" enable-background="new 0 0 48 48" xml:space="preserve">
<path d="M37,46c0,1.1-0.9,2-2,2H2c-1.1,0-2-0.9-2-2c0-1.1,0.9-2,2-2h33C36.1,44,37,44.9,37,46z M2,6h44c1.1,0,2-0.9,2-2
	c0-1.1-0.9-2-2-2H2C0.9,2,0,2.9,0,4C0,5.1,0.9,6,2,6z M46,8H2c-1.1,0-2,0.9-2,2c0,1.1,0.9,2,2,2h44c1.1,0,2-0.9,2-2
	C48,8.9,47.1,8,46,8z M46,14H2c-1.1,0-2,0.9-2,2c0,1.1,0.9,2,2,2h44c1.1,0,2-0.9,2-2C48,14.9,47.1,14,46,14z M46,20H2
	c-1.1,0-2,0.9-2,2c0,1.1,0.9,2,2,2h44c1.1,0,2-0.9,2-2C48,20.9,47.1,20,46,20z M46,26H2c-1.1,0-2,0.9-2,2c0,1.1,0.9,2,2,2h44
	c1.1,0,2-0.9,2-2C48,26.9,47.1,26,46,26z M46,32H2c-1.1,0-2,0.9-2,2c0,1.1,0.9,2,2,2h44c1.1,0,2-0.9,2-2C48,32.9,47.1,32,46,32z
	 M46,38H2c-1.1,0-2,0.9-2,2c0,1.1,0.9,2,2,2h44c1.1,0,2-0.9,2-2C48,38.9,47.1,38,46,38z"/>
</svg>
