<?xml version="1.0" encoding="utf-8"?>
<!-- Generator: Adobe Illustrator 17.0.0, SVG Export Plug-In . SVG Version: 6.00 Build 0)  -->
<!DOCTYPE svg PUBLIC "-//W3C//DTD SVG 1.1//EN" "http://www.w3.org/Graphics/SVG/1.1/DTD/svg11.dtd">
<svg version="1.1" id="Layer_1" xmlns="http://www.w3.org/2000/svg" xmlns:xlink="http://www.w3.org/1999/xlink" x="0px" y="0px"
	 width="48px" height="48px" viewBox="0 0 48 48" enable-background="new 0 0 48 48" xml:space="preserve">
<path d="M24,0c0.1,0,0.3,0,0.4,0c0,0,0,0,0.1,0c0.1,0,0.2,0.1,0.3,0.1c0,0,0.1,0,0.1,0.1c0.1,0,0.2,0.1,0.2,0.1c0,0,0.1,0.1,0.1,0.1
	c0.1,0.1,0.1,0.1,0.2,0.2c0,0,0,0,0,0l22,24C47.8,25,48,25.5,48,26c0,0.5-0.2,1.1-0.6,1.5c-0.8,0.7-2.1,0.7-2.8-0.1L26,7.1V46
	c0,1.1-0.9,2-2,2c-1.1,0-2-0.9-2-2V7.1L3.5,27.4c-0.7,0.8-2,0.9-2.8,0.1c-0.8-0.7-0.9-2-0.1-2.8l22-24c0,0,0,0,0,0
	c0.1-0.1,0.1-0.1,0.2-0.2c0,0,0.1-0.1,0.1-0.1c0.1-0.1,0.2-0.1,0.2-0.1c0,0,0.1,0,0.1-0.1c0.1,0,0.2-0.1,0.3-0.1c0,0,0,0,0.1,0
	C23.7,0,23.9,0,24,0z"/>
</svg>
