<?xml version="1.0" encoding="utf-8"?>
<!-- Generator: Adobe Illustrator 17.0.0, SVG Export Plug-In . SVG Version: 6.00 Build 0)  -->
<!DOCTYPE svg PUBLIC "-//W3C//DTD SVG 1.1//EN" "http://www.w3.org/Graphics/SVG/1.1/DTD/svg11.dtd">
<svg version="1.1" id="Layer_1" xmlns="http://www.w3.org/2000/svg" xmlns:xlink="http://www.w3.org/1999/xlink" x="0px" y="0px"
	 width="48px" height="48px" viewBox="0 0 48 48" enable-background="new 0 0 48 48" xml:space="preserve">
<path d="M42.4,34.4l-8,8c-0.1,0.1-0.2,0.2-0.3,0.3c0,0-0.1,0.1-0.1,0.1c-0.1,0-0.1,0.1-0.2,0.1c-0.1,0-0.1,0-0.2,0.1
	c-0.1,0-0.1,0-0.2,0.1c-0.1,0-0.3,0-0.4,0s-0.3,0-0.4,0c-0.1,0-0.1,0-0.2-0.1c-0.1,0-0.1,0-0.2-0.1c-0.1,0-0.1-0.1-0.2-0.1
	c0,0-0.1,0-0.1-0.1c-0.1-0.1-0.2-0.2-0.3-0.3l-8-8c-0.8-0.8-0.8-2,0-2.8c0.8-0.8,2-0.8,2.8,0l4.6,4.6V7c0-1.1,0.9-2,2-2s2,0.9,2,2
	v29.2l4.6-4.6c0.8-0.8,2-0.8,2.8,0S43.2,33.6,42.4,34.4z M23,17c0.5,0,1-0.2,1.4-0.6c0.8-0.8,0.8-2,0-2.8l-8-8
	c-0.1-0.1-0.2-0.2-0.3-0.3c-0.1,0-0.1-0.1-0.2-0.1c-0.1,0-0.1-0.1-0.2-0.1c-0.1,0-0.1,0-0.2-0.1c-0.1,0-0.1,0-0.2,0
	C15.1,5,14.9,5,14.6,5c-0.1,0-0.1,0-0.2,0c-0.1,0-0.1,0-0.2,0.1c-0.1,0-0.1,0.1-0.2,0.1c-0.1,0-0.1,0.1-0.2,0.1
	c-0.1,0.1-0.2,0.2-0.3,0.3l-8,8c-0.8,0.8-0.8,2,0,2.8c0.8,0.8,2,0.8,2.8,0l4.6-4.6V41c0,1.1,0.9,2,2,2s2-0.9,2-2V11.8l4.6,4.6
	C22,16.8,22.5,17,23,17z"/>
</svg>
