<?xml version="1.0" encoding="utf-8"?>
<!-- Generator: Adobe Illustrator 17.0.0, SVG Export Plug-In . SVG Version: 6.00 Build 0)  -->
<!DOCTYPE svg PUBLIC "-//W3C//DTD SVG 1.1//EN" "http://www.w3.org/Graphics/SVG/1.1/DTD/svg11.dtd">
<svg version="1.1" id="Layer_1" xmlns="http://www.w3.org/2000/svg" xmlns:xlink="http://www.w3.org/1999/xlink" x="0px" y="0px"
	 width="48px" height="48px" viewBox="0 0 48 48" enable-background="new 0 0 48 48" xml:space="preserve">
<path d="M48,24c0,0.1,0,0.3,0,0.4c0,0,0,0,0,0.1c0,0.1-0.1,0.2-0.1,0.3c0,0,0,0.1-0.1,0.1c0,0.1-0.1,0.2-0.1,0.2
	c0,0-0.1,0.1-0.1,0.1c-0.1,0.1-0.1,0.1-0.2,0.2c0,0,0,0,0,0l-24,22C23,47.8,22.5,48,22,48c-0.5,0-1.1-0.2-1.5-0.6
	c-0.7-0.8-0.7-2.1,0.1-2.8L40.9,26H2c-1.1,0-2-0.9-2-2c0-1.1,0.9-2,2-2h38.9L20.6,3.5c-0.8-0.7-0.9-2-0.1-2.8c0.7-0.8,2-0.9,2.8-0.1
	l24,22c0,0,0,0,0,0c0.1,0.1,0.1,0.1,0.2,0.2c0,0,0.1,0.1,0.1,0.1c0.1,0.1,0.1,0.2,0.1,0.2c0,0,0,0.1,0.1,0.1c0,0.1,0.1,0.2,0.1,0.3
	c0,0,0,0,0,0.1C48,23.7,48,23.9,48,24z"/>
</svg>
