<?xml version="1.0" encoding="utf-8"?>
<!-- Generator: Adobe Illustrator 17.0.0, SVG Export Plug-In . SVG Version: 6.00 Build 0)  -->
<!DOCTYPE svg PUBLIC "-//W3C//DTD SVG 1.1//EN" "http://www.w3.org/Graphics/SVG/1.1/DTD/svg11.dtd">
<svg version="1.1" id="Layer_1" xmlns="http://www.w3.org/2000/svg" xmlns:xlink="http://www.w3.org/1999/xlink" x="0px" y="0px"
	 width="48px" height="48px" viewBox="0 0 48 48" enable-background="new 0 0 48 48" xml:space="preserve">
<path d="M24,48c-0.1,0-0.3,0-0.4,0c0,0,0,0-0.1,0c-0.1,0-0.2-0.1-0.3-0.1c0,0-0.1,0-0.1-0.1c-0.1,0-0.2-0.1-0.2-0.1
	c0,0-0.1-0.1-0.1-0.1c-0.1-0.1-0.1-0.1-0.2-0.2c0,0,0,0,0,0l-22-24C0.2,23,0,22.5,0,22c0-0.5,0.2-1.1,0.6-1.5
	c0.8-0.7,2.1-0.7,2.8,0.1L22,40.9V2c0-1.1,0.9-2,2-2c1.1,0,2,0.9,2,2v38.9l18.5-20.2c0.7-0.8,2-0.9,2.8-0.1c0.8,0.7,0.9,2,0.1,2.8
	l-22,24c0,0,0,0,0,0c-0.1,0.1-0.1,0.1-0.2,0.2c0,0-0.1,0.1-0.1,0.1c-0.1,0.1-0.2,0.1-0.2,0.1c0,0-0.1,0-0.1,0.1
	c-0.1,0-0.2,0.1-0.3,0.1c0,0,0,0-0.1,0C24.3,48,24.1,48,24,48z"/>
</svg>
