<?xml version="1.0" encoding="utf-8"?>
<!-- Generator: Adobe Illustrator 17.0.0, SVG Export Plug-In . SVG Version: 6.00 Build 0)  -->
<!DOCTYPE svg PUBLIC "-//W3C//DTD SVG 1.1//EN" "http://www.w3.org/Graphics/SVG/1.1/DTD/svg11.dtd">
<svg version="1.1" id="Layer_1" xmlns="http://www.w3.org/2000/svg" xmlns:xlink="http://www.w3.org/1999/xlink" x="0px" y="0px"
	 width="48px" height="48px" viewBox="0 0 48 48" enable-background="new 0 0 48 48" xml:space="preserve">
<path d="M46,23c0,0.3-0.2,0.6-0.4,0.8l-17.1,14c-0.3,0.2-0.6,0.3-1,0.1C27.3,37.7,27,37.4,27,37v-7.2c-1-0.2-3-0.6-5.5-0.6
	C16,29.2,8.6,31,4,39.5c-0.2,0.3-0.6,0.5-1,0.5c-0.1,0-0.2,0-0.3,0C2.3,39.9,2,39.5,2,39c0-21.4,18.1-23.1,23.6-23.1
	c0.6,0,1.4,0,1.4,0V9c0-0.4,0.3-0.7,0.6-0.9C28,7.9,28.5,8,28.8,8.2l16.9,14C46,22.4,46,22.7,46,23z"/>
</svg>
