<?xml version="1.0" encoding="utf-8"?>
<!-- Generator: Adobe Illustrator 17.0.0, SVG Export Plug-In . SVG Version: 6.00 Build 0)  -->
<!DOCTYPE svg PUBLIC "-//W3C//DTD SVG 1.1//EN" "http://www.w3.org/Graphics/SVG/1.1/DTD/svg11.dtd">
<svg version="1.1" id="Layer_1" xmlns="http://www.w3.org/2000/svg" xmlns:xlink="http://www.w3.org/1999/xlink" x="0px" y="0px"
	 width="48px" height="48px" viewBox="0 0 48 48" enable-background="new 0 0 48 48" xml:space="preserve">
<path d="M47.8,24.8c-0.1,0.2-0.2,0.5-0.4,0.7l-6,6C41,31.8,40.5,32,40,32s-1-0.2-1.4-0.6c-0.8-0.8-0.8-2,0-2.8l2.6-2.6H6.8l2.6,2.6
	c0.8,0.8,0.8,2,0,2.8C9,31.8,8.5,32,8,32s-1-0.2-1.4-0.6l-6-6c-0.2-0.2-0.3-0.4-0.4-0.7c-0.2-0.5-0.2-1,0-1.5
	c0.1-0.2,0.2-0.5,0.4-0.7l6-6c0.8-0.8,2-0.8,2.8,0c0.8,0.8,0.8,2,0,2.8L6.8,22h34.3l-2.6-2.6c-0.8-0.8-0.8-2,0-2.8
	c0.8-0.8,2-0.8,2.8,0l6,6c0.2,0.2,0.3,0.4,0.4,0.7C48.1,23.7,48.1,24.3,47.8,24.8z"/>
</svg>
