<?xml version="1.0" encoding="utf-8"?>
<!-- Generator: Adobe Illustrator 17.0.0, SVG Export Plug-In . SVG Version: 6.00 Build 0)  -->
<!DOCTYPE svg PUBLIC "-//W3C//DTD SVG 1.1//EN" "http://www.w3.org/Graphics/SVG/1.1/DTD/svg11.dtd">
<svg version="1.1" id="Layer_1" xmlns="http://www.w3.org/2000/svg" xmlns:xlink="http://www.w3.org/1999/xlink" x="0px" y="0px"
	 width="48px" height="48px" viewBox="0 0 48 48" enable-background="new 0 0 48 48" xml:space="preserve">
<path d="M32,38h-8v-6h8V38z M22,32h-8v6h8V32z M32,24h-8v6h8V24z M22,24h-8v6h8V24z M0,16h48v31c0,0.6-0.4,1-1,1H1c-0.6,0-1-0.4-1-1
	V16z M12,32v6H5c-0.6,0-1,0.4-1,1s0.4,1,1,1h7v3c0,0.6,0.4,1,1,1s1-0.4,1-1v-3h8v3c0,0.6,0.4,1,1,1s1-0.4,1-1v-3h8v3
	c0,0.6,0.4,1,1,1s1-0.4,1-1v-3h9c0.6,0,1-0.4,1-1s-0.4-1-1-1h-9v-6h9c0.6,0,1-0.4,1-1s-0.4-1-1-1h-9v-6h9c0.6,0,1-0.4,1-1
	s-0.4-1-1-1h-9v-3c0-0.6-0.4-1-1-1s-1,0.4-1,1v3h-8v-3c0-0.6-0.4-1-1-1s-1,0.4-1,1v3h-8v-3c0-0.6-0.4-1-1-1s-1,0.4-1,1v3H5
	c-0.6,0-1,0.4-1,1s0.4,1,1,1h7v6H5c-0.6,0-1,0.4-1,1s0.4,1,1,1H12z M48,5v9H0V5c0-0.6,0.4-1,1-1h7V1c0-0.6,0.4-1,1-1h6
	c0.6,0,1,0.4,1,1v3h16V1c0-0.6,0.4-1,1-1h6c0.6,0,1,0.4,1,1v3h7C47.6,4,48,4.4,48,5z M14,2h-4v6h4V2z M38,2h-4v6h4V2z"/>
</svg>
