<?xml version="1.0" encoding="utf-8"?>
<!-- Generator: Adobe Illustrator 17.0.0, SVG Export Plug-In . SVG Version: 6.00 Build 0)  -->
<!DOCTYPE svg PUBLIC "-//W3C//DTD SVG 1.1//EN" "http://www.w3.org/Graphics/SVG/1.1/DTD/svg11.dtd">
<svg version="1.1" id="Layer_1" xmlns="http://www.w3.org/2000/svg" xmlns:xlink="http://www.w3.org/1999/xlink" x="0px" y="0px"
	 width="48px" height="48px" viewBox="0 0 48 48" enable-background="new 0 0 48 48" xml:space="preserve">
<path d="M44,6H17.5C16.3,2.4,12.9,0,9,0C4,0,0,4,0,9c0,5,4,9,9,9c3.8,0,7.2-2,8.5-6H27v3c0,0.6,0.4,1,1,1h4c0.6,0,1-0.5,1-1v-3h2v3
	c0,0.6,0.4,1,1,1h4c0.6,0,1-0.5,1-1v-3h3c1.7,0,3-1.4,3-3C47,7.3,45.7,6,44,6z M9,13c-2.2,0-4-1.8-4-4c0-2.2,1.8-4,4-4
	c2.2,0,4,1.8,4,4C13,11.2,11.2,13,9,13z M42.7,34.3c0.2,0.2,0.3,0.4,0.3,0.7v3H33c-0.6,0-1,0.4-1,1s0.4,1,1,1h10v3c0,0.6-0.4,1-1,1
	h-1v3c0,0.6-0.4,1-1,1h-6c-0.6,0-1-0.4-1-1v-3H13v3c0,0.6-0.4,1-1,1H6c-0.6,0-1-0.4-1-1v-3H4c-0.6,0-1-0.4-1-1v-3h10
	c0.6,0,1-0.4,1-1s-0.4-1-1-1H3v-3c0-0.3,0.1-0.5,0.3-0.7L5.6,32h34.8L42.7,34.3z M34.9,20.6l3.7,9.4H7.3l3.7-9.4
	c0.2-0.4,0.5-0.6,0.9-0.6h22C34.4,20,34.8,20.2,34.9,20.6z"/>
</svg>
