<?xml version="1.0" encoding="utf-8"?>
<!-- Generator: Adobe Illustrator 20.1.0, SVG Export Plug-In . SVG Version: 6.00 Build 0)  -->
<svg version="1.1" id="Layer_1" xmlns="http://www.w3.org/2000/svg" xmlns:xlink="http://www.w3.org/1999/xlink" x="0px" y="0px"
	 viewBox="0 0 48 48" style="enable-background:new 0 0 48 48;" xml:space="preserve">
<path d="M23,2C10.3,2,0,12.3,0,25c0,6.1,2.4,11.9,6.7,16.3C11,45.6,16.8,48,23,48h0c12.7,0,23-10.3,23-23C46,12.4,35.7,2,23,2z
	 M32.2,32.8c0.4,0.4,0.4,1,0,1.4c-0.2,0.2-0.4,0.3-0.7,0.3s-0.5-0.1-0.7-0.3L23,26.4l-7.8,7.8c-0.2,0.2-0.5,0.3-0.7,0.3
	c-0.3,0-0.5-0.1-0.7-0.3c-0.4-0.4-0.4-1,0-1.4l7.8-7.8l-7.8-7.8c-0.4-0.4-0.4-1,0-1.4c0.4-0.4,1-0.4,1.4,0l7.8,7.8l7.8-7.8
	c0.4-0.4,1-0.4,1.4,0c0.4,0.4,0.4,1,0,1.4L24.4,25L32.2,32.8z"/>
</svg>
