<?xml version="1.0" encoding="utf-8"?>
<!-- Generator: Adobe Illustrator 17.0.0, SVG Export Plug-In . SVG Version: 6.00 Build 0)  -->
<!DOCTYPE svg PUBLIC "-//W3C//DTD SVG 1.1//EN" "http://www.w3.org/Graphics/SVG/1.1/DTD/svg11.dtd">
<svg version="1.1" id="Layer_1" xmlns="http://www.w3.org/2000/svg" xmlns:xlink="http://www.w3.org/1999/xlink" x="0px" y="0px"
	 width="48px" height="48px" viewBox="0 0 48 48" enable-background="new 0 0 48 48" xml:space="preserve">
<path d="M47.4,44.6c0.8,0.8,0.8,2,0,2.8C47,47.8,46.5,48,46,48c-0.5,0-1-0.2-1.4-0.6L24,26.8L3.4,47.4C3,47.8,2.5,48,2,48
	c-0.5,0-1-0.2-1.4-0.6c-0.8-0.8-0.8-2,0-2.8L21.2,24L0.6,3.4c-0.8-0.8-0.8-2,0-2.8c0.8-0.8,2-0.8,2.8,0L24,21.2L44.6,0.6
	c0.8-0.8,2-0.8,2.8,0c0.8,0.8,0.8,2,0,2.8L26.8,24L47.4,44.6z"/>
</svg>
