<?xml version="1.0" encoding="utf-8"?>
<!-- Generator: Adobe Illustrator 17.0.0, SVG Export Plug-In . SVG Version: 6.00 Build 0)  -->
<!DOCTYPE svg PUBLIC "-//W3C//DTD SVG 1.1//EN" "http://www.w3.org/Graphics/SVG/1.1/DTD/svg11.dtd">
<svg version="1.1" id="Layer_1" xmlns="http://www.w3.org/2000/svg" xmlns:xlink="http://www.w3.org/1999/xlink" x="0px" y="0px"
	 width="48px" height="48px" viewBox="0 0 48 48" enable-background="new 0 0 48 48" xml:space="preserve">
<path d="M47,20h-5.7c-0.4-1.6-0.9-3.3-1.6-4.7l4.1-4.1c0.2-0.2,0.3-0.4,0.3-0.7c0-0.3-0.1-0.5-0.3-0.7l-5.7-5.7
	c-0.4-0.4-1-0.4-1.4,0l-4.1,4.1c-1.3-0.6-3.1-1.2-4.7-1.6V1c0-0.6-0.4-1-1-1h-6c-0.6,0-1,0.4-1,1v5.7c-1.6,0.4-3.3,0.9-4.7,1.6
	l-4.1-4.1c-0.4-0.4-1-0.4-1.4,0L4.2,9.9c-0.4,0.4-0.4,1,0,1.4l4.1,4.1c-0.6,1.3-1.2,3.1-1.6,4.7H1c-0.6,0-1,0.4-1,1v6
	c0,0.6,0.4,1,1,1h5.7c0.4,1.6,0.9,3.3,1.6,4.7l-4.1,4.1c-0.2,0.2-0.3,0.4-0.3,0.7c0,0.3,0.1,0.5,0.3,0.7l5.7,5.7
	c0.4,0.4,1,0.4,1.4,0l4.1-4.1c1.3,0.6,3.1,1.2,4.7,1.6V47c0,0.6,0.4,1,1,1h6c0.6,0,1-0.4,1-1v-5.7c1.6-0.4,3.3-0.9,4.7-1.6l4.1,4.1
	c0.4,0.4,1,0.4,1.4,0l5.7-5.7c0.4-0.4,0.4-1,0-1.4l-4.1-4.1c0.6-1.3,1.2-3.1,1.6-4.7H47c0.6,0,1-0.4,1-1v-6C48,20.4,47.6,20,47,20z
	 M24,32c-4.4,0-8-3.6-8-8c0-4.4,3.6-8,8-8s8,3.6,8,8C32,28.4,28.4,32,24,32z"/>
</svg>
