<?xml version="1.0" encoding="utf-8"?>
<!-- Generator: Adobe Illustrator 20.1.0, SVG Export Plug-In . SVG Version: 6.00 Build 0)  -->
<svg version="1.1" id="Layer_1" xmlns="http://www.w3.org/2000/svg" xmlns:xlink="http://www.w3.org/1999/xlink" x="0px" y="0px"
	 viewBox="0 0 48 48" style="enable-background:new 0 0 48 48;" xml:space="preserve">
<path d="M36,6H0V5c0-2.8,2.2-5,5-5h0h26h0c2.8,0,5,2.2,5,5V6z M23,26H13H5c-2.8,0-5-2.2-5-5V8h36v12c-0.3,0-0.6,0-1,0
	C30.1,20,25.8,22.4,23,26L23,26z M26,11c0,0.6,0.4,1,1,1h4c0.6,0,1-0.4,1-1s-0.4-1-1-1h-4C26.4,10,26,10.4,26,11z M14,15
	c0-0.6-0.4-1-1-1H7c-0.6,0-1,0.4-1,1s0.4,1,1,1h6C13.5,16,14,15.6,14,15z M18,11c0-0.6-0.4-1-1-1H7c-0.6,0-1,0.4-1,1s0.4,1,1,1h10
	C17.5,12,18,11.6,18,11z M48,35c0,7.2-5.8,13-13,13s-13-5.8-13-13c0-7.2,5.8-13,13-13S48,27.8,48,35z M42.3,37.1
	c-0.5-0.2-1.1,0.1-1.3,0.6c-0.8,2.4-3.1,4-5.7,4c-2.1,0-4.1-1.1-5.3-2.7h2.2c0.6,0,1-0.4,1-1c0-0.6-0.4-1-1-1h-3.9c-0.6,0-1,0.4-1,1
	v3.9c0,0.6,0.4,1,1,1c0.6,0,1-0.4,1-1v-0.7c1.6,1.5,3.7,2.5,6,2.5c3.4,0,6.4-2.1,7.5-5.3C43.1,37.8,42.9,37.2,42.3,37.1z M43,29.1
	c0-0.6-0.4-1-1-1s-1,0.4-1,1v0.7c-1.6-1.5-3.7-2.5-6-2.5c-3.4,0-6.4,2.1-7.5,5.3c-0.2,0.5,0.1,1.1,0.6,1.3c0.1,0,0.2,0.1,0.3,0.1
	c0.4,0,0.8-0.3,0.9-0.7c0.8-2.4,3.1-4,5.7-4c2.1,0,4.1,1.1,5.3,2.7h-2.2c-0.6,0-1,0.4-1,1s0.4,1,1,1H42c0.6,0,1-0.4,1-1V29.1z"/>
</svg>
