<?xml version="1.0" encoding="utf-8"?>
<!-- Generator: Adobe Illustrator 17.0.0, SVG Export Plug-In . SVG Version: 6.00 Build 0)  -->
<!DOCTYPE svg PUBLIC "-//W3C//DTD SVG 1.1//EN" "http://www.w3.org/Graphics/SVG/1.1/DTD/svg11.dtd">
<svg version="1.1" id="Layer_1" xmlns="http://www.w3.org/2000/svg" xmlns:xlink="http://www.w3.org/1999/xlink" x="0px" y="0px"
	 width="48px" height="48px" viewBox="0 0 48 48" enable-background="new 0 0 48 48" xml:space="preserve">
<path d="M31.9,34c-1,7.9-7.7,14-15.9,14C7.2,48,0,40.8,0,32c0-8.1,6.1-14.9,14-15.9c0,3.1,0.9,6.1,2.3,8.6c-2.6,0.6-4.7,2.4-5.7,4.8
	H9c-0.6,0-1,0.4-1,1s0.4,1,1,1h1.1c0,0.3-0.1,0.7-0.1,1s0.1,0.7,0.1,1H9c-0.6,0-1,0.4-1,1s0.4,1,1,1h1.6c1.2,2.9,4.1,5,7.4,5
	c0.6,0,1-0.4,1-1s-0.4-1-1-1c-2.2,0-4.1-1.2-5.2-3H17c0.6,0,1-0.4,1-1s-0.4-1-1-1h-4.9c-0.1-0.3-0.1-0.7-0.1-1s0-0.7,0.1-1H17
	c0.6,0,1-0.4,1-1s-0.4-1-1-1h-4.2c1-1.6,2.7-2.8,4.7-2.9C20.8,31,26,33.9,31.9,34z M5.2,14.7c0.4,0.4,1,0.4,1.4,0l4-4
	c0.4-0.4,0.4-1,0-1.4c-0.4-0.4-1-0.4-1.4,0L7,11.6C7.2,6.8,11.1,3,15.9,3c0.6,0,1-0.5,1-1c0-0.6-0.4-1-1-1c0,0,0,0,0,0
	C13,1,10.2,2.2,8.2,4.3c-2,2-3.1,4.6-3.2,7.4L2.7,9.4C2.3,9,1.6,9,1.3,9.4c-0.4,0.4-0.4,1,0,1.4L5.2,14.7z M42.7,33.2L42.7,33.2
	C42.7,33.2,42.7,33.2,42.7,33.2c-0.4-0.4-1-0.4-1.4,0l-4,4c-0.4,0.4-0.4,1,0,1.4c0.2,0.2,0.4,0.3,0.7,0.3c0.3,0,0.5-0.1,0.7-0.3
	l2.2-2.3c-0.2,4.7-4.1,8.6-8.9,8.6c-0.6,0-1,0.5-1,1c0,0.6,0.4,1,1,1c0,0,0,0,0,0C38,47,42.8,42.2,43,36.3l2.3,2.3
	c0.4,0.4,1,0.4,1.4,0c0.4-0.4,0.4-1,0-1.4L42.7,33.2z M16,16c0-8.8,7.2-16,16-16s16,7.2,16,16s-7.2,16-16,16S16,24.8,16,16z M34,19
	c0,1.1-0.9,2-2,2c-1.1,0-2-0.9-2-2c0-0.6-0.4-1-1-1s-1,0.4-1,1c0,1.9,1.3,3.4,3,3.9V24c0,0.6,0.4,1,1,1s1-0.4,1-1v-1.1
	c1.7-0.4,3-2,3-3.9c0-2.2-1.8-4-4-4c-1.1,0-2-0.9-2-2c0-1.1,0.9-2,2-2c1.1,0,2,0.9,2,2c0,0.6,0.4,1,1,1s1-0.4,1-1
	c0-1.9-1.3-3.4-3-3.9V8c0-0.6-0.4-1-1-1s-1,0.4-1,1v1.1c-1.7,0.4-3,2-3,3.9c0,2.2,1.8,4,4,4C33.1,17,34,17.9,34,19z"/>
</svg>
