<?xml version="1.0" encoding="utf-8"?>
<!-- Generator: Adobe Illustrator 17.0.0, SVG Export Plug-In . SVG Version: 6.00 Build 0)  -->
<!DOCTYPE svg PUBLIC "-//W3C//DTD SVG 1.1//EN" "http://www.w3.org/Graphics/SVG/1.1/DTD/svg11.dtd">
<svg version="1.1" id="Layer_1" xmlns="http://www.w3.org/2000/svg" xmlns:xlink="http://www.w3.org/1999/xlink" x="0px" y="0px"
	 width="48px" height="48px" viewBox="0 0 48 48" enable-background="new 0 0 48 48" xml:space="preserve">
<path d="M26,21V1c0-0.6,0.4-1,1-1c11.6,0,21,9.4,21,21c0,0.6-0.4,1-1,1H27C26.4,22,26,21.6,26,21z M47,24H27c-0.4,0-0.8,0.2-0.9,0.6
	c-0.2,0.4-0.1,0.8,0.2,1.1l14.1,14.1c0.2,0.2,0.5,0.3,0.7,0.3s0.5-0.1,0.7-0.3c4-4,6.2-9.2,6.2-14.8C48,24.4,47.6,24,47,24z
	 M22,26.6V7c0-0.6-0.4-1-1-1C9.4,6,0,15.4,0,27c0,11.6,9.4,21,21,21c5.6,0,10.9-2.2,14.8-6.2c0.4-0.4,0.4-1,0-1.4L22,26.6z"/>
</svg>
