<?xml version="1.0" encoding="utf-8"?>
<!-- Generator: Adobe Illustrator 17.0.0, SVG Export Plug-In . SVG Version: 6.00 Build 0)  -->
<!DOCTYPE svg PUBLIC "-//W3C//DTD SVG 1.1//EN" "http://www.w3.org/Graphics/SVG/1.1/DTD/svg11.dtd">
<svg version="1.1" id="Layer_1" xmlns="http://www.w3.org/2000/svg" xmlns:xlink="http://www.w3.org/1999/xlink" x="0px" y="0px"
	 width="48px" height="48px" viewBox="0 0 48 48" enable-background="new 0 0 48 48" xml:space="preserve">
<path d="M41.2,27.8l-7.1,4.1c0.1,0.3,0.2,0.7,0.2,1.1c0,2.2-1.8,4-4,4c-1.9,0-3.4-1.3-3.9-3h-7.1c-0.4,1.7-2,3-3.9,3
	c-1.1,0-2.1-0.4-2.8-1.1L2,42.9V46h44c0.6,0,1,0.4,1,1s-0.4,1-1,1H1c-0.6,0-1-0.4-1-1V2c0-0.6,0.4-1,1-1s1,0.4,1,1v20.2l11.2-6.8
	C13.1,15,13,14.6,13,14.2c0-2.2,1.8-4,4-4s4,1.8,4,4c0,0.1,0,0.2,0,0.2l7.8,2.5c0.7-1.2,2-2,3.4-2c0.6,0,1.1,0.1,1.6,0.3l6.9-8.7
	C40.3,6,40,5.2,40,4.4c0-2.2,1.8-4,4-4s4,1.8,4,4s-1.8,4-4,4c-0.6,0-1.3-0.2-1.8-0.4l-6.8,8.6c0.5,0.7,0.8,1.5,0.8,2.4
	c0,2.2-1.8,4-4,4s-4-1.8-4-4c0,0,0-0.1,0-0.1l-7.9-2.5c-0.7,1.1-2,1.9-3.4,1.9c-1.1,0-2.1-0.4-2.8-1.1L2,24.5v16l9.6-6.3
	c-0.1-0.4-0.2-0.7-0.2-1.1c0-2.2,1.8-4,4-4c1.9,0,3.4,1.3,3.9,3h7.1c0.4-1.7,2-3,3.9-3c1.1,0,2.1,0.5,2.8,1.2l7.1-4.1
	C40.1,25.7,40,25.4,40,25c0-2.2,1.8-4,4-4s4,1.8,4,4c0,2.2-1.8,4-4,4C42.9,29,41.9,28.5,41.2,27.8z"/>
</svg>
