<?xml version="1.0" encoding="utf-8"?>
<!-- Generator: Adobe Illustrator 20.1.0, SVG Export Plug-In . SVG Version: 6.00 Build 0)  -->
<svg version="1.1" id="Layer_1" xmlns="http://www.w3.org/2000/svg" xmlns:xlink="http://www.w3.org/1999/xlink" x="0px" y="0px"
	 viewBox="0 0 48 48" style="enable-background:new 0 0 48 48;" xml:space="preserve">
<path d="M41,8.5c-4.5-4.5-10.6-7-17-7c-6.4,0-12.4,2.5-17,7c-9.4,9.4-9.4,24.6,0,34c0.9,0.9,2.2,1.5,3.5,1.5c1.3,0,2.6-0.5,3.5-1.5
	c1.9-2,1.9-5.1,0-7.1c-0.4-0.4-0.4-1,0-1.4c0.4-0.4,1-0.4,1.4,0l8.5,8.5c2.3,2.3,5.3,3.5,8.5,3.5c3.2,0,6.2-1.2,8.5-3.5
	C50.3,33.1,50.3,17.9,41,8.5z M22.6,15.6c-1.2,1.2-3.1,1.2-4.2,0c-1.2-1.2-1.2-3.1,0-4.2c1.2-1.2,3.1-1.2,4.2,0
	C23.8,12.5,23.8,14.4,22.6,15.6z M30.4,13.5c1.2-1.2,3.1-1.2,4.2,0c1.2,1.2,1.2,3.1,0,4.2c-1.2,1.2-3.1,1.2-4.2,0
	C29.2,16.6,29.2,14.6,30.4,13.5z M35.3,38.2c-1.6,1.6-4.1,1.6-5.7,0c-1.6-1.6-1.6-4.1,0-5.7c1.6-1.6,4.1-1.6,5.7,0
	C36.9,34.1,36.9,36.7,35.3,38.2z M39.4,26.9c-0.8,0.8-2,0.8-2.8,0c-0.8-0.8-0.8-2,0-2.8c0.8-0.8,2-0.8,2.8,0
	C40.2,24.9,40.2,26.1,39.4,26.9z"/>
</svg>
