<?xml version="1.0" encoding="utf-8"?>
<!-- Generator: Adobe Illustrator 20.1.0, SVG Export Plug-In . SVG Version: 6.00 Build 0)  -->
<svg version="1.1" id="Layer_1" xmlns="http://www.w3.org/2000/svg" xmlns:xlink="http://www.w3.org/1999/xlink" x="0px" y="0px"
	 viewBox="0 0 48 48" style="enable-background:new 0 0 48 48;" xml:space="preserve">
<path d="M0,12h10v4H5c-0.6,0-1,0.4-1,1c0,0.6,0.4,1,1,1h5v6l-3,0c-0.6,0-1,0.4-1,1c0,0.6,0.4,1,1,1l3,0v6H7c-0.6,0-1,0.4-1,1
	s0.4,1,1,1h3v6H5c-0.6,0-1,0.4-1,1s0.4,1,1,1h5v6H1c-0.6,0-1-0.4-1-1V12z M47,0H12v10h4V5c0-0.6,0.4-1,1-1s1,0.4,1,1v5h6V7
	c0-0.6,0.4-1,1-1s1,0.4,1,1v3h6V7c0-0.6,0.4-1,1-1s1,0.4,1,1v3h6V5c0-0.6,0.4-1,1-1s1,0.4,1,1v5h6V1C48,0.4,47.6,0,47,0z M0,1v9h10
	V0H1C0.4,0,0,0.4,0,1z M12,48h35c0.6,0,1-0.4,1-1V12H12V48z"/>
</svg>
