<?xml version="1.0" encoding="utf-8"?>
<!-- Generator: Adobe Illustrator 20.1.0, SVG Export Plug-In . SVG Version: 6.00 Build 0)  -->
<svg version="1.1" id="Layer_1" xmlns="http://www.w3.org/2000/svg" xmlns:xlink="http://www.w3.org/1999/xlink" x="0px" y="0px"
	 viewBox="0 0 48 48" style="enable-background:new 0 0 48 48;" xml:space="preserve">
<path d="M41.7,8.3l-8-8C33.5,0.1,33.3,0,33,0h-9v2v2h1c0.6,0,1,0.4,1,1v10c0,0.6-0.4,1-1,1h-6c-0.6,0-1-0.4-1-1V5c0-0.6,0.4-1,1-1
	c0.6,0,1,0.4,1,1v5h2v2h-2v2h4V6h-1c-0.6,0-1-0.4-1-1V2V0H7C6.4,0,6,0.4,6,1v46c0,0.6,0.4,1,1,1h34c0.6,0,1-0.4,1-1V9
	C42,8.7,41.9,8.5,41.7,8.3z M24,23c0,0.6-0.4,1-1,1h2c0.6,0,1,0.4,1,1s-0.4,1-1,1h-2c0.6,0,1,0.4,1,1s-0.4,1-1,1h2c0.6,0,1,0.4,1,1
	s-0.4,1-1,1h-2c0.6,0,1,0.4,1,1s-0.4,1-1,1h2c0.6,0,1,0.4,1,1s-0.4,1-1,1h-2c0.6,0,1,0.4,1,1s-0.4,1-1,1h2c0.6,0,1,0.4,1,1
	s-0.4,1-1,1h-2c0.6,0,1,0.4,1,1s-0.4,1-1,1h2c0.6,0,1,0.4,1,1s-0.4,1-1,1h-2c0.6,0,1,0.4,1,1s-0.4,1-1,1h-2c-0.6,0-1-0.4-1-1
	s0.4-1,1-1h2c-0.6,0-1-0.4-1-1s0.4-1,1-1h-2c-0.6,0-1-0.4-1-1s0.4-1,1-1h2c-0.6,0-1-0.4-1-1s0.4-1,1-1h-2c-0.6,0-1-0.4-1-1
	s0.4-1,1-1h2c-0.6,0-1-0.4-1-1s0.4-1,1-1h-2c-0.6,0-1-0.4-1-1s0.4-1,1-1h2c-0.6,0-1-0.4-1-1s0.4-1,1-1h-2c-0.6,0-1-0.4-1-1
	s0.4-1,1-1h2c-0.6,0-1-0.4-1-1s0.4-1,1-1h-2c-0.6,0-1-0.4-1-1s0.4-1,1-1h2c-0.6,0-1-0.4-1-1s0.4-1,1-1h-2c-0.6,0-1-0.4-1-1
	s0.4-1,1-1h2c0.6,0,1,0.4,1,1s-0.4,1-1,1h2c0.6,0,1,0.4,1,1s-0.4,1-1,1h-2C23.6,22,24,22.4,24,23z"/>
</svg>
