<?xml version="1.0" encoding="utf-8"?>
<!-- Generator: Adobe Illustrator 17.0.0, SVG Export Plug-In . SVG Version: 6.00 Build 0)  -->
<!DOCTYPE svg PUBLIC "-//W3C//DTD SVG 1.1//EN" "http://www.w3.org/Graphics/SVG/1.1/DTD/svg11.dtd">
<svg version="1.1" id="Layer_1" xmlns="http://www.w3.org/2000/svg" xmlns:xlink="http://www.w3.org/1999/xlink" x="0px" y="0px"
	 width="48px" height="48px" viewBox="0 0 48 48" enable-background="new 0 0 48 48" xml:space="preserve">
<path d="M24,26.2L2.2,8.6C2.8,8.2,3.6,8,4.4,8h39.3c0.8,0,1.5,0.2,2.2,0.6L24,26.2z M47.4,10.1L30.9,23.4l10.7,7.8
	c0.4,0.3,0.5,0.9,0.2,1.4C41.6,32.9,41.3,33,41,33c-0.2,0-0.4-0.1-0.6-0.2l-11-8c0,0,0-0.1-0.1-0.1l-4.6,3.8
	c-0.2,0.2-0.4,0.2-0.7,0.2s-0.5-0.1-0.7-0.2l-4.6-3.8c0,0,0,0.1-0.1,0.1l-11,8C7.4,32.9,7.2,33,7,33c-0.3,0-0.6-0.1-0.8-0.4
	c-0.3-0.4-0.2-1.1,0.2-1.4l10.7-7.8L0.6,10.1C0.2,10.8,0,11.5,0,12.4v23.3C0,38,2,40,4.4,40h39.3c2.4,0,4.4-2,4.4-4.4V12.4
	C48,11.5,47.8,10.8,47.4,10.1z"/>
</svg>
