<?xml version="1.0" encoding="utf-8"?>
<!-- Generator: Adobe Illustrator 17.0.0, SVG Export Plug-In . SVG Version: 6.00 Build 0)  -->
<!DOCTYPE svg PUBLIC "-//W3C//DTD SVG 1.1//EN" "http://www.w3.org/Graphics/SVG/1.1/DTD/svg11.dtd">
<svg version="1.1" id="Layer_1" xmlns="http://www.w3.org/2000/svg" xmlns:xlink="http://www.w3.org/1999/xlink" x="0px" y="0px"
	 width="48px" height="48px" viewBox="0 0 48 48" enable-background="new 0 0 48 48" xml:space="preserve">
<path d="M44,6.4v30.1c0,0.4-0.2,0.7-0.6,0.9c-2.8,1.4-5.4,2.1-8.1,2.1c-4.1,0-7.6-1.6-11-3.2c-3.4-1.6-7-3.2-11.1-3.2
	c-2.4,0-4.8,0.5-7.3,1.6V46c0,1.1-0.9,2-2,2c-1.1,0-2-0.9-2-2V2c0-1.1,0.9-2,2-2c1.1,0,2,0.9,2,2v0.5c2.6-1,5.1-1.4,7.5-1.4
	c4.6,0,8.1,1.9,11.6,3.6C28.3,6.3,31.4,8,35,8h0c2.4,0,4.9-0.9,7.6-2.3c0.3-0.2,0.7-0.4,1-0.2C43.8,5.7,44,6,44,6.4z"/>
</svg>
