<?xml version="1.0" encoding="utf-8"?>
<!-- Generator: Adobe Illustrator 17.0.0, SVG Export Plug-In . SVG Version: 6.00 Build 0)  -->
<!DOCTYPE svg PUBLIC "-//W3C//DTD SVG 1.1//EN" "http://www.w3.org/Graphics/SVG/1.1/DTD/svg11.dtd">
<svg version="1.1" id="Layer_1" xmlns="http://www.w3.org/2000/svg" xmlns:xlink="http://www.w3.org/1999/xlink" x="0px" y="0px"
	 width="48px" height="48px" viewBox="0 0 48 48" enable-background="new 0 0 48 48" xml:space="preserve">
<path d="M39.6,27.8c0.3,0.8,0.2,1.5-0.3,2.1L23,46.1l-11-6.8c0.2-2.5,0.1-7.6-2.6-10.7c-0.6-0.6-0.6-1.6,0-2.2
	c0.5-0.6,1.2-0.9,2-0.9c2.5,0,5.5,2.8,8.2,7.8c0.6,1.1,1.9,1.1,3.3,0.3c1.3-0.7,2.8-2,4.3-3.2c2.4-2,4.6-3.8,6.6-4.3
	c0.7-0.2,1.4-0.3,2-0.3C38,25.8,39.2,26.8,39.6,27.8z M5.1,48h16l0.4-0.4l-10.3-6.3L5.1,48z M48,23c0,0.6-0.4,1-1,1h-4.1H5H1.1
	c-0.6,0-1-0.4-1-1c0-0.6,0.4-1,1-1H4C4,12,12,3.1,22,2.1V1c0-0.6,0.4-1,1-1s1,0.4,1,1v1c11,0,20,9,20,20h3C47.5,22,48,22.4,48,23z
	 M25,8c0-0.6-0.4-1-1-1c-6.7,0-12.5,4.3-14.5,10.6c-0.2,0.5,0.1,1.1,0.6,1.3c0.1,0,0.2,0,0.3,0c0.4,0,0.8-0.3,1-0.7
	C13.1,12.7,18.2,9,24,9C24.5,9,25,8.5,25,8z"/>
</svg>
