<?xml version="1.0" encoding="utf-8"?>
<!-- Generator: Adobe Illustrator 17.0.0, SVG Export Plug-In . SVG Version: 6.00 Build 0)  -->
<!DOCTYPE svg PUBLIC "-//W3C//DTD SVG 1.1//EN" "http://www.w3.org/Graphics/SVG/1.1/DTD/svg11.dtd">
<svg version="1.1" id="Layer_1" xmlns="http://www.w3.org/2000/svg" xmlns:xlink="http://www.w3.org/1999/xlink" x="0px" y="0px"
	 width="48px" height="48px" viewBox="0 0 48 48" enable-background="new 0 0 48 48" xml:space="preserve">
<path d="M38,31.2c0,0.5-0.4,0.8-1,0.8c0,0-3,0-3,0v14c0,1.1-0.9,2-2,2c-1.1,0-2-0.9-2-2V2c0-1.1,0.9-2,2-2c0.6,0,1.1,0.3,1.5,0.7
	C36.8,3.9,38,18.4,38,31C38,31.1,38,31.1,38,31.2z M22,0c-1.1,0-2,0.9-2,2v9c0,1.5-1,2.7-2,3.4V2c0-1.1-0.9-2-2-2c-1.1,0-2,0.9-2,2
	v12.4c-1-0.7-2-2-2-3.4V2c0-1.1-0.9-2-2-2C8.9,0,8,0.9,8,2v9c0,3.7,3,6.8,6,7.7V46c0,1.1,0.9,2,2,2c1.1,0,2-0.9,2-2V18.7
	c3-0.9,6-4,6-7.7V2C24,0.9,23.1,0,22,0z"/>
</svg>
