<?xml version="1.0" encoding="utf-8"?>
<!-- Generator: Adobe Illustrator 17.0.0, SVG Export Plug-In . SVG Version: 6.00 Build 0)  -->
<!DOCTYPE svg PUBLIC "-//W3C//DTD SVG 1.1//EN" "http://www.w3.org/Graphics/SVG/1.1/DTD/svg11.dtd">
<svg version="1.1" id="Layer_1" xmlns="http://www.w3.org/2000/svg" xmlns:xlink="http://www.w3.org/1999/xlink" x="0px" y="0px"
	 width="48px" height="48px" viewBox="0 0 48 48" enable-background="new 0 0 48 48" xml:space="preserve">
<path d="M45,2H21c-1.7,0-3,1.3-3,3v9h9c2.8,0,5,2.2,5,5v13h13c1.7,0,3-1.3,3-3V5C48,3.3,46.7,2,45,2z M28,12c-1.1,0-2-0.9-2-2
	c0-1.1,0.9-2,2-2c1.1,0,2,0.9,2,2C30,11.1,29.1,12,28,12z M38,26c-1.1,0-2-0.9-2-2c0-1.1,0.9-2,2-2c1.1,0,2,0.9,2,2
	C40,25.1,39.1,26,38,26z M38,12c-1.1,0-2-0.9-2-2c0-1.1,0.9-2,2-2c1.1,0,2,0.9,2,2C40,11.1,39.1,12,38,12z M27,16H3
	c-1.7,0-3,1.3-3,3v24c0,1.7,1.3,3,3,3h24c1.7,0,3-1.3,3-3V19C30,17.3,28.7,16,27,16z M8,38c-1.1,0-2-0.9-2-2c0-1.1,0.9-2,2-2
	s2,0.9,2,2C10,37.1,9.1,38,8,38z M8,28c-1.1,0-2-0.9-2-2c0-1.1,0.9-2,2-2s2,0.9,2,2C10,27.1,9.1,28,8,28z M15,38c-1.1,0-2-0.9-2-2
	c0-1.1,0.9-2,2-2s2,0.9,2,2C17,37.1,16.1,38,15,38z M15,28c-1.1,0-2-0.9-2-2c0-1.1,0.9-2,2-2s2,0.9,2,2C17,27.1,16.1,28,15,28z
	 M22,38c-1.1,0-2-0.9-2-2c0-1.1,0.9-2,2-2s2,0.9,2,2C24,37.1,23.1,38,22,38z M22,28c-1.1,0-2-0.9-2-2c0-1.1,0.9-2,2-2s2,0.9,2,2
	C24,27.1,23.1,28,22,28z"/>
</svg>
