<?xml version="1.0" encoding="utf-8"?>
<!-- Generator: Adobe Illustrator 17.0.0, SVG Export Plug-In . SVG Version: 6.00 Build 0)  -->
<!DOCTYPE svg PUBLIC "-//W3C//DTD SVG 1.1//EN" "http://www.w3.org/Graphics/SVG/1.1/DTD/svg11.dtd">
<svg version="1.1" id="Layer_1" xmlns="http://www.w3.org/2000/svg" xmlns:xlink="http://www.w3.org/1999/xlink" x="0px" y="0px"
	 width="48px" height="48px" viewBox="0 0 48 48" enable-background="new 0 0 48 48" xml:space="preserve">
<path d="M24,8C10.8,8,0,18.8,0,32v9c0,0.6,0.4,1,1,1h46c0.6,0,1-0.4,1-1v-9C48,18.8,37.2,8,24,8z M28.8,17.8l1.5-3.7
	c0.2-0.5,0.8-0.8,1.3-0.5c0.5,0.2,0.8,0.8,0.5,1.3l-1.5,3.7c-0.2,0.4-0.5,0.6-0.9,0.6c-0.1,0-0.3,0-0.4-0.1
	C28.8,18.9,28.6,18.3,28.8,17.8z M23,13c0-0.6,0.4-1,1-1s1,0.4,1,1v4c0,0.6-0.4,1-1,1s-1-0.4-1-1V13z M9,34H5c-0.6,0-1-0.4-1-1
	c0-0.6,0.4-1,1-1h4c0.6,0,1,0.4,1,1C10,33.6,9.6,34,9,34z M11.1,26.6c-0.2,0.4-0.5,0.6-0.9,0.6c-0.1,0-0.3,0-0.4-0.1l-3.7-1.5
	c-0.5-0.2-0.8-0.8-0.5-1.3c0.2-0.5,0.8-0.8,1.3-0.5l3.7,1.5C11,25.5,11.3,26.1,11.1,26.6z M14.1,22.1c-0.2,0.2-0.5,0.3-0.7,0.3
	s-0.5-0.1-0.7-0.3l-2.8-2.8c-0.4-0.4-0.4-1,0-1.4c0.4-0.4,1-0.4,1.4,0l2.8,2.8C14.5,21.1,14.5,21.7,14.1,22.1z M18.6,19.1
	c-0.1,0.1-0.3,0.1-0.4,0.1c-0.4,0-0.8-0.2-0.9-0.6l-1.5-3.7c-0.2-0.5,0-1.1,0.5-1.3c0.5-0.2,1.1,0,1.3,0.5l1.5,3.7
	C19.4,18.3,19.2,18.9,18.6,19.1z M28,32c0,2.2-1.8,4-4,4c-2.2,0-4-1.8-4-4c0-2.2,1.8-4,4-4c0.7,0,1.4,0.2,2,0.6l9.3-9.3
	c0.4-0.4,1-0.4,1.4,0c0.4,0.4,0.4,1,0,1.4L27.4,30C27.8,30.6,28,31.3,28,32z M36.9,26.6c-0.2-0.5,0-1.1,0.5-1.3l3.7-1.5
	c0.5-0.2,1.1,0,1.3,0.5c0.2,0.5,0,1.1-0.5,1.3l-3.7,1.5c-0.1,0.1-0.3,0.1-0.4,0.1C37.5,27.3,37.1,27,36.9,26.6z M43,34L43,34l-4,0
	c-0.6,0-1-0.4-1-1c0-0.6,0.4-1,1-1h0l4,0c0.6,0,1,0.4,1,1C44,33.6,43.6,34,43,34z"/>
</svg>
