<?xml version="1.0" encoding="utf-8"?>
<!-- Generator: Adobe Illustrator 20.1.0, SVG Export Plug-In . SVG Version: 6.00 Build 0)  -->
<svg version="1.1" id="Layer_1" xmlns="http://www.w3.org/2000/svg" xmlns:xlink="http://www.w3.org/1999/xlink" x="0px" y="0px"
	 viewBox="0 0 48 48" style="enable-background:new 0 0 48 48;" xml:space="preserve">
<path d="M0,14h16v2v4v2H1H0V14z M36,11.2c-0.9,0.9-3.2,1.9-5.5,2.8c-0.2,0.1-0.4,0.1-0.5,0.2V16v4v2H18v-2v-4v-1.8
	c-0.2-0.1-0.4-0.1-0.5-0.2c-2.3-0.8-4.6-1.8-5.5-2.8c-2.3-2.3-2.3-6.1,0-8.5C13.1,1.6,14.6,1,16.2,1c1.6,0,3.1,0.6,4.2,1.8
	c1.3,1.3,2.7,5.3,3.5,8.3c0.9-3,2.2-7,3.5-8.3C28.7,1.6,30.2,1,31.8,1c1.6,0,3.1,0.6,4.2,1.8C38.4,5.1,38.4,8.9,36,11.2z M22.6,13.6
	c-0.9-3.6-2.5-8.3-3.6-9.4C18.3,3.4,17.3,3,16.2,3c-1.1,0-2.1,0.4-2.8,1.2c-1.6,1.6-1.6,4.1,0,5.7C14.5,10.9,19.1,12.5,22.6,13.6z
	 M34.6,4.2C33.9,3.4,32.8,3,31.8,3s-2.1,0.4-2.8,1.2c-1.1,1.1-2.6,5.8-3.6,9.4c3.5-1,8.1-2.6,9.2-3.7C36.2,8.3,36.2,5.7,34.6,4.2z
	 M32,14v2v4v2h15h1v-8H32z M32,48h14V24H32V48z M2,48h14V24H2V48z M18,48h12V24H18V48z"/>
</svg>
