<?xml version="1.0" encoding="utf-8"?>
<!-- Generator: Adobe Illustrator 20.1.0, SVG Export Plug-In . SVG Version: 6.00 Build 0)  -->
<svg version="1.1" id="Layer_1" xmlns="http://www.w3.org/2000/svg" xmlns:xlink="http://www.w3.org/1999/xlink" x="0px" y="0px"
	 viewBox="0 0 48 48" style="enable-background:new 0 0 48 48;" xml:space="preserve">
<path d="M47,0H1C0.4,0,0,0.4,0,1v46c0,0.6,0.4,1,1,1h46c0.6,0,1-0.4,1-1V1C48,0.4,47.6,0,47,0z M40,39c0,0.6-0.4,1-1,1H29
	c-0.6,0-1-0.4-1-1v-9h-8v9c0,0.6-0.4,1-1,1H9c-0.6,0-1-0.4-1-1V9c0-0.6,0.4-1,1-1h10c0.6,0,1,0.4,1,1v9h8V9c0-0.6,0.4-1,1-1h10
	c0.6,0,1,0.4,1,1V39z"/>
</svg>
