<?xml version="1.0" encoding="utf-8"?>
<!-- Generator: Adobe Illustrator 17.0.0, SVG Export Plug-In . SVG Version: 6.00 Build 0)  -->
<!DOCTYPE svg PUBLIC "-//W3C//DTD SVG 1.1//EN" "http://www.w3.org/Graphics/SVG/1.1/DTD/svg11.dtd">
<svg version="1.1" id="Layer_1" xmlns="http://www.w3.org/2000/svg" xmlns:xlink="http://www.w3.org/1999/xlink" x="0px" y="0px"
	 width="48px" height="48px" viewBox="0 0 48 48" enable-background="new 0 0 48 48" xml:space="preserve">
<path d="M47,43.9c0,0.6-0.4,1-1,1s-1-0.4-1-1c0-0.9-0.3-1.4-0.5-1.6c-0.7-0.8-2-0.4-2,1.6c0,4.1-4.1,4.9-6,3c-0.5-0.5-1-1.4-1-3
	c0-0.7-0.2-1.2-0.5-1.6c-0.8-0.8-2.5-0.5-2.5,1.6c0,1.6-0.7,2.9-1.8,3.6c-1,0.6-2.3,0.6-3.3,0c-1.2-0.7-1.8-2-1.8-3.6
	c0-1.4-0.8-2-1.5-2h0c-0.7,0-1.5,0.6-1.5,2c0,4.1-4.1,4.9-6,3c-0.5-0.5-1-1.4-1-3c0-0.7-0.2-1.2-0.5-1.6c-0.8-0.8-2.5-0.5-2.5,1.6
	c0,2.7-1.8,4.1-3.5,4.1c-0.9,0-1.8-0.4-2.5-1.1c-0.7-0.7-1-1.8-1-3c0-0.9-0.3-1.3-0.5-1.6C4.4,41.6,3,41.9,3,43.9c0,0.6-0.4,1-1,1
	s-1-0.4-1-1c0-5.3,6.5-5.3,6.5,0c0,2.8,3,2.8,3,0c0-5.3,7-5.3,7,0c0,2.8,3,2.8,3,0c0-2.6,1.8-4,3.5-4h0c1.7,0,3.5,1.4,3.5,4
	c0,0.9,0.3,1.5,0.8,1.8c0.4,0.2,0.9,0.2,1.3,0c0.5-0.3,0.8-1,0.8-1.8c0-5.3,7-5.3,7,0c0,2.8,3,2.8,3,0C40.5,38.7,47,38.7,47,43.9z
	 M48,6.9v2c0,0.6-0.4,1-1,1s-1-0.4-1-1v-2c0-2.2-1.8-4-4-4c-2.2,0-4,1.8-4,4v28.6c0.8,1.1,2.5,0.6,2.5-1.6c0-5.3,6.5-5.3,6.5,0
	c0,0.6-0.4,1-1,1s-1-0.4-1-1c0-0.9-0.3-1.4-0.5-1.6c-0.7-0.8-2-0.4-2,1.6c0,4.1-4.1,4.9-6,3c-0.2-0.2-0.3-0.4-0.5-0.6
	c0,0,0-0.1-0.1-0.1c-0.3-0.5-0.5-1.2-0.5-2.2c0-0.7-0.2-1.2-0.5-1.6c-0.8-0.8-2.5-0.5-2.5,1.6c0,1.6-0.7,2.9-1.8,3.6
	c-1,0.6-2.3,0.6-3.3,0c-1.2-0.7-1.8-2-1.8-3.6c0-1.4-0.8-2-1.5-2h0c-0.7,0-1.5,0.6-1.5,2c0,4.1-4.1,4.9-6,3c-0.5-0.5-1-1.4-1-3
	c0-0.7-0.2-1.2-0.5-1.6c-0.8-0.8-2.5-0.5-2.5,1.6c0,2.7-1.8,4.1-3.5,4.1c-0.9,0-1.8-0.4-2.5-1.1c-0.7-0.7-1-1.8-1-3
	c0-0.9-0.3-1.3-0.5-1.6C4.4,31.6,3,31.9,3,33.9c0,0.6-0.4,1-1,1s-1-0.4-1-1c0-5.3,6.5-5.3,6.5,0c0,2.8,3,2.8,3,0c0-5.3,7-5.3,7,0
	c0,2.8,3,2.8,3,0c0-1.5,0.6-2.6,1.5-3.3V6.9c0-3.3,2.7-6,6-6s6,2.7,6,6v2c0,0.6-0.4,1-1,1s-1-0.4-1-1v-2c0-2.2-1.8-4-4-4
	c-2.2,0-4,1.8-4,4v6h12v-6c0-3.3,2.7-6,6-6S48,3.6,48,6.9z M36,26.9H24v3c0,0,0,0,0,0h0c1.7,0,3.5,1.4,3.5,4c0,0.9,0.3,1.5,0.8,1.8
	c0.4,0.2,0.9,0.2,1.3,0c0.5-0.3,0.8-1,0.8-1.8c0-3.7,3.4-4.8,5.5-3.3V26.9z M36,20.9H24v4h12V20.9z M36,14.9H24v4h12V14.9z"/>
</svg>
