<?xml version="1.0" encoding="utf-8"?>
<!-- Generator: Adobe Illustrator 17.0.0, SVG Export Plug-In . SVG Version: 6.00 Build 0)  -->
<!DOCTYPE svg PUBLIC "-//W3C//DTD SVG 1.1//EN" "http://www.w3.org/Graphics/SVG/1.1/DTD/svg11.dtd">
<svg version="1.1" id="Layer_1" xmlns="http://www.w3.org/2000/svg" xmlns:xlink="http://www.w3.org/1999/xlink" x="0px" y="0px"
	 width="48px" height="48px" viewBox="0 0 48 48" enable-background="new 0 0 48 48" xml:space="preserve">
<path d="M34.5,17.5c0,0.8-0.7,1.5-1.5,1.5c-0.8,0-1.5-0.7-1.5-1.5c0-0.8,0.7-1.5,1.5-1.5C33.8,16,34.5,16.7,34.5,17.5z M48,5v36
	c0,1.7-1.3,3-3,3h-2v1c0,0.6-0.4,1-1,1h-3c-0.6,0-1-0.4-1-1v-1H10v1c0,0.6-0.4,1-1,1H6c-0.6,0-1-0.4-1-1v-1H3c-1.7,0-3-1.3-3-3V5
	c0-1.7,1.3-3,3-3h42C46.7,2,48,3.3,48,5z M44,11c0-1.7-1.3-3-3-3H9c-1.7,0-3,1.3-3,3v3H5c-0.6,0-1,0.4-1,1v2c0,0.6,0.4,1,1,1h1v10H5
	c-0.6,0-1,0.4-1,1v2c0,0.6,0.4,1,1,1h1v3c0,1.7,1.3,3,3,3h32c1.7,0,3-1.3,3-3V11z M42,11v24c0,0.6-0.4,1-1,1H9c-0.6,0-1-0.4-1-1v-3
	h1c0.6,0,1-0.4,1-1v-2c0-0.6-0.4-1-1-1H8V18h1c0.6,0,1-0.4,1-1v-2c0-0.6-0.4-1-1-1H8v-3c0-0.6,0.4-1,1-1h32C41.6,10,42,10.4,42,11z
	 M30,32h-2v2h2V32z M30,28h-2v2h2V28z M30,24h-2v2h2V24z M34,32h-2v2h2V32z M34,28h-2v2h2V28z M34,24h-2v2h2V24z M38,32h-2v2h2V32z
	 M38,28h-2v2h2V28z M38,24h-2v2h2V24z M38.4,17.5c0-3-2.4-5.5-5.4-5.5c-3,0-5.4,2.5-5.4,5.5c0,3,2.4,5.5,5.4,5.5
	C35.9,23,38.4,20.5,38.4,17.5z"/>
</svg>
