<?xml version="1.0" encoding="utf-8"?>
<!-- Generator: Adobe Illustrator 20.1.0, SVG Export Plug-In . SVG Version: 6.00 Build 0)  -->
<svg version="1.1" id="Layer_1" xmlns="http://www.w3.org/2000/svg" xmlns:xlink="http://www.w3.org/1999/xlink" x="0px" y="0px"
	 viewBox="0 0 48 48" style="enable-background:new 0 0 48 48;" xml:space="preserve">
<path d="M27.6,47c-0.1,0.4-0.4,0.8-0.9,0.8C12.5,49.5,0,38.3,0,24C0,9.7,12.6-1.5,26.8,0.2c0.4,0.1,0.8,0.4,0.9,0.8
	c0.1,0.4-0.2,0.9-0.6,1.1C19.1,5.9,14,14.5,14,24c0,9.5,5.1,18.1,13.1,21.9C27.5,46.1,27.7,46.6,27.6,47z M45,36c-4.8-0.1-7-2.3-7-7
	v0c0-0.6-0.4-1-1-1c0,0,0,0,0,0c-0.6,0-1,0.4-1,1c0,4.7-2.2,6.9-7,7c-0.5,0-1,0.5-1,1c0,0.5,0.5,1,1,1c4.8,0,6.9,2.2,7,7
	c0,0.5,0.4,1,1,1c0,0,0,0,0,0c0.5,0,1-0.4,1-0.9c0.2-4.8,2.4-7.1,7-7.1h0c0.5,0,1-0.4,1-1C46,36.5,45.6,36,45,36z M32,22L32,22
	c0.6,0,1-0.4,1-1c0-0.5-0.4-1-1-1c-2.8-0.1-4-1.3-4-4c0-0.6-0.4-1-1-1c0,0,0,0,0,0c-0.6,0-1,0.4-1,1c0,0,0,0,0,0c0,2.7-1.2,4-4,4
	c-0.5,0-1,0.5-1,1c0,0.5,0.5,1,1,1c2.8,0,4,1.2,4,4c0,0.5,0.4,1,1,1c0,0,0,0,0,0c0.5,0,1-0.4,1-0.9C28.1,23.2,29.4,22,32,22z M47,8
	c-3.5-0.1-5-1.6-5-5v0c0-0.6-0.4-1-1-1c0,0,0,0,0,0c-0.6,0-1,0.4-1,1c0,3.4-1.6,5-5,5c-0.5,0-1,0.5-1,1c0,0.5,0.5,1,1,1
	c3.4,0,5,1.5,5,5c0,0.5,0.4,1,1,1c0,0,0,0,0,0c0.5,0,1-0.4,1-0.9c0.2-3.5,1.7-5.1,5-5.1c0,0,0,0,0,0c0.5,0,1-0.4,1-1
	C48,8.5,47.6,8,47,8z"/>
</svg>
