<?xml version="1.0" encoding="utf-8"?>
<!-- Generator: Adobe Illustrator 17.0.0, SVG Export Plug-In . SVG Version: 6.00 Build 0)  -->
<!DOCTYPE svg PUBLIC "-//W3C//DTD SVG 1.1//EN" "http://www.w3.org/Graphics/SVG/1.1/DTD/svg11.dtd">
<svg version="1.1" id="Layer_1" xmlns="http://www.w3.org/2000/svg" xmlns:xlink="http://www.w3.org/1999/xlink" x="0px" y="0px"
	 width="48px" height="48px" viewBox="0 0 48 48" enable-background="new 0 0 48 48" xml:space="preserve">
<path d="M24,0C13.2,0,4,8.6,4,20c0,14.3,18.7,27.3,19.4,27.8c0.2,0.1,0.4,0.2,0.6,0.2s0.4-0.1,0.6-0.2C25.3,47.3,44,34.3,44,20
	C44,8.6,34.8,0,24,0z M23,7c1.1,0,2,0.9,2,2s-0.9,2-2,2s-2-0.9-2-2S21.9,7,23,7z M28,28h-8c-0.6,0-1-0.4-1-1s0.4-1,1-1h3V16h-3
	c-0.6,0-1-0.4-1-1s0.4-1,1-1h4c0.6,0,1,0.4,1,1v11h3c0.6,0,1,0.4,1,1S28.6,28,28,28z"/>
</svg>
