<?xml version="1.0" encoding="utf-8"?>
<!-- Generator: Adobe Illustrator 20.1.0, SVG Export Plug-In . SVG Version: 6.00 Build 0)  -->
<svg version="1.1" id="Layer_1" xmlns="http://www.w3.org/2000/svg" xmlns:xlink="http://www.w3.org/1999/xlink" x="0px" y="0px"
	 viewBox="0 0 48 48" style="enable-background:new 0 0 48 48;" xml:space="preserve">
<path d="M21.3,22c0.3,0,0.6-0.1,0.8-0.4c0.8-0.9,7.5-9.1,7.5-13.4c0-4.6-3.7-8.3-8.3-8.3c-4.6,0-8.3,3.7-8.3,8.3
	c0,4.3,6.7,12.4,7.5,13.4C20.8,21.9,21,22,21.3,22z M17.6,8.3c0-2.1,1.7-3.7,3.7-3.7c2.1,0,3.7,1.7,3.7,3.7c0,2.1-1.7,3.7-3.7,3.7
	C19.3,12,17.6,10.3,17.6,8.3z M39.3,14c-4.2,0-7.5,3.4-7.5,7.5c0,3.9,6.1,11.3,6.8,12.1c0.2,0.2,0.5,0.4,0.8,0.4
	c0.3,0,0.6-0.1,0.8-0.4c0.7-0.8,6.8-8.2,6.8-12.1C46.9,17.4,43.5,14,39.3,14z M39.3,25c-1.9,0-3.5-1.5-3.5-3.5
	c0-1.9,1.5-3.5,3.5-3.5c1.9,0,3.5,1.5,3.5,3.5C42.8,23.5,41.2,25,39.3,25z M18.5,30.8c0.5-3-0.2-5.7-1.9-7.7c-1.7-2-4.3-3.1-7.3-3.1
	c-3,0-5.6,1.1-7.3,3.2c-1.7,2-2.3,4.8-1.8,7.7c0.5,2.6,2.4,5.6,4.3,8.4C6.4,42.1,8.3,45,8.3,47c0,0.6,0.4,1,1,1c0.6,0,1-0.4,1-1
	c0-2.1,2.1-5.3,4.1-8.3C16.3,35.8,18.1,33,18.5,30.8z M9.3,33.6c-2.6,0-4.7-2.1-4.7-4.7c0-2.6,2.1-4.7,4.7-4.7s4.7,2.1,4.7,4.7
	C14.1,31.4,12,33.6,9.3,33.6z M23.7,23.2l9.8,6.5c0.5,0.3,0.6,0.9,0.3,1.4c-0.2,0.3-0.5,0.4-0.8,0.4c-0.2,0-0.4-0.1-0.6-0.2
	l-9.8-6.5c-0.5-0.3-0.6-0.9-0.3-1.4C22.7,23,23.3,22.9,23.7,23.2z M35.2,34.9c0.2,0.5,0,1.1-0.5,1.3l-19.9,9.3
	c-0.1,0.1-0.3,0.1-0.4,0.1c-0.4,0-0.7-0.2-0.9-0.6c-0.2-0.5,0-1.1,0.5-1.3l19.9-9.3C34.4,34.2,35,34.4,35.2,34.9z"/>
</svg>
