<?xml version="1.0" encoding="utf-8"?>
<!-- Generator: Adobe Illustrator 17.0.0, SVG Export Plug-In . SVG Version: 6.00 Build 0)  -->
<!DOCTYPE svg PUBLIC "-//W3C//DTD SVG 1.1//EN" "http://www.w3.org/Graphics/SVG/1.1/DTD/svg11.dtd">
<svg version="1.1" id="Layer_1" xmlns="http://www.w3.org/2000/svg" xmlns:xlink="http://www.w3.org/1999/xlink" x="0px" y="0px"
	 width="48px" height="48px" viewBox="0 0 48 48" enable-background="new 0 0 48 48" xml:space="preserve">
<path d="M24,0C15.2,0,8,7.2,8,16c0,8.5,14.5,30.6,15.2,31.6c0.2,0.3,0.5,0.4,0.8,0.4s0.6-0.2,0.8-0.4C25.5,46.6,40,24.5,40,16
	C40,7.2,32.8,0,24,0z M24,23c-3.9,0-7-3.1-7-7c0-3.9,3.1-7,7-7s7,3.1,7,7C31,19.9,27.9,23,24,23z"/>
</svg>
