<?xml version="1.0" encoding="utf-8"?>
<!-- Generator: Adobe Illustrator 17.0.0, SVG Export Plug-In . SVG Version: 6.00 Build 0)  -->
<!DOCTYPE svg PUBLIC "-//W3C//DTD SVG 1.1//EN" "http://www.w3.org/Graphics/SVG/1.1/DTD/svg11.dtd">
<svg version="1.1" id="Layer_1" xmlns="http://www.w3.org/2000/svg" xmlns:xlink="http://www.w3.org/1999/xlink" x="0px" y="0px"
	 width="48px" height="48px" viewBox="0 0 48 48" enable-background="new 0 0 48 48" xml:space="preserve">
<path d="M36,18v-6c0-6.6-5.4-12-12-12c-6.6,0-12,5.4-12,12h2c0-5.5,4.5-10,10-10c5.5,0,10,4.5,10,10v6H6v30h36V18H36z M25,31.7V37
	c0,0.6-0.4,1-1,1c-0.6,0-1-0.4-1-1v-5.3c-0.6-0.3-1-1-1-1.7c0-1.1,0.9-2,2-2c1.1,0,2,0.9,2,2C26,30.7,25.6,31.4,25,31.7z"/>
</svg>
