<?xml version="1.0" encoding="utf-8"?>
<!-- Generator: Adobe Illustrator 17.0.0, SVG Export Plug-In . SVG Version: 6.00 Build 0)  -->
<!DOCTYPE svg PUBLIC "-//W3C//DTD SVG 1.1//EN" "http://www.w3.org/Graphics/SVG/1.1/DTD/svg11.dtd">
<svg version="1.1" id="Layer_1" xmlns="http://www.w3.org/2000/svg" xmlns:xlink="http://www.w3.org/1999/xlink" x="0px" y="0px"
	 width="48px" height="48px" viewBox="0 0 48 48" enable-background="new 0 0 48 48" xml:space="preserve">
<path d="M42,7v36c0,2.8-2.2,5-5,5H17c-2.8,0-5-2.2-5-5v-9c0-1.1,0.9-2,2-2s2,0.9,2,2v9c0,0.5,0.5,1,1,1h20c0.5,0,1-0.5,1-1V7
	c0-0.5-0.5-1-1-1H17c-0.5,0-1,0.5-1,1v11c0,1.1-0.9,2-2,2s-2-0.9-2-2V7c0-2.8,2.2-5,5-5h20C39.8,2,42,4.2,42,7z M22.6,32.6
	c-0.8,0.8-0.8,2,0,2.8C23,35.8,23.5,36,24,36s1-0.2,1.4-0.6l8-8c0.1-0.1,0.2-0.2,0.3-0.3c0,0,0.1-0.1,0.1-0.1c0-0.1,0.1-0.1,0.1-0.2
	c0-0.1,0-0.1,0.1-0.2c0-0.1,0-0.1,0.1-0.2c0.1-0.3,0.1-0.5,0-0.8c0-0.1,0-0.1-0.1-0.2c0-0.1,0-0.1-0.1-0.2c0-0.1-0.1-0.1-0.1-0.2
	c0,0,0-0.1-0.1-0.1c-0.1-0.1-0.2-0.2-0.3-0.3l-8-8c-0.8-0.8-2-0.8-2.8,0c-0.8,0.8-0.8,2,0,2.8l4.6,4.6H2c-1.1,0-2,0.9-2,2s0.9,2,2,2
	h25.2L22.6,32.6z"/>
</svg>
