<?xml version="1.0" encoding="utf-8"?>
<!-- Generator: Adobe Illustrator 20.1.0, SVG Export Plug-In . SVG Version: 6.00 Build 0)  -->
<svg version="1.1" id="Layer_1" xmlns="http://www.w3.org/2000/svg" xmlns:xlink="http://www.w3.org/1999/xlink" x="0px" y="0px"
	 viewBox="0 0 48 48" style="enable-background:new 0 0 48 48;" xml:space="preserve">
<path d="M30.9,40h-1.9l4.8,6.4c0.3,0.4,0.2,1.1-0.2,1.4c-0.2,0.1-0.4,0.2-0.6,0.2c-0.3,0-0.6-0.1-0.8-0.4L26.4,40H15.5l-5.7,7.6
	C9.6,47.9,9.3,48,9,48c-0.2,0-0.4-0.1-0.6-0.2c-0.4-0.3-0.5-1-0.2-1.4L13,40H5c-2.8,0-5-2.2-5-5c0-2.8,2.2-5,5-5h22.4
	c0.3,0,0.5-0.1,0.7-0.3l11.1-9.8c0.9-1,2.2-1.5,3.6-1.5c1.4,0,2.6,0.5,3.6,1.5c1.9,2,2,5.1,0.1,7.1L33,39.1
	C32.5,39.7,31.7,40,30.9,40z M13,5c0.6,0,1-0.4,1-1V2c0-0.6-0.4-1-1-1c-0.6,0-1,0.4-1,1v2C12,4.6,12.5,5,13,5z M19.3,7.6
	c0.3,0,0.5-0.1,0.7-0.3l1.4-1.4c0.4-0.4,0.4-1,0-1.4c-0.4-0.4-1-0.4-1.4,0l-1.4,1.4c-0.4,0.4-0.4,1,0,1.4
	C18.8,7.5,19.1,7.6,19.3,7.6z M21,13c0,0.6,0.4,1,1,1h2c0.6,0,1-0.4,1-1s-0.4-1-1-1h-2C21.5,12,21,12.4,21,13z M18.6,18.7
	c-0.4,0.4-0.4,1,0,1.4l1.4,1.4c0.2,0.2,0.5,0.3,0.7,0.3c0.3,0,0.5-0.1,0.7-0.3c0.4-0.4,0.4-1,0-1.4L20,18.7
	C19.6,18.3,19,18.3,18.6,18.7z M12,22v2c0,0.6,0.4,1,1,1c0.6,0,1-0.4,1-1v-2c0-0.6-0.4-1-1-1C12.5,21,12,21.4,12,22z M5.9,18.7
	l-1.4,1.4c-0.4,0.4-0.4,1,0,1.4c0.2,0.2,0.5,0.3,0.7,0.3s0.5-0.1,0.7-0.3l1.4-1.4c0.4-0.4,0.4-1,0-1.4C6.9,18.3,6.3,18.3,5.9,18.7z
	 M2,14h2c0.6,0,1-0.4,1-1s-0.4-1-1-1H2c-0.6,0-1,0.4-1,1S1.5,14,2,14z M5.9,7.3c0.2,0.2,0.5,0.3,0.7,0.3c0.3,0,0.5-0.1,0.7-0.3
	c0.4-0.4,0.4-1,0-1.4L5.9,4.5c-0.4-0.4-1-0.4-1.4,0c-0.4,0.4-0.4,1,0,1.4L5.9,7.3z M13,19c3.3,0,6-2.7,6-6c0-3.3-2.7-6-6-6
	c-3.3,0-6,2.7-6,6C7,16.3,9.7,19,13,19z"/>
</svg>
