<?xml version="1.0" encoding="utf-8"?>
<!-- Generator: Adobe Illustrator 17.0.0, SVG Export Plug-In . SVG Version: 6.00 Build 0)  -->
<!DOCTYPE svg PUBLIC "-//W3C//DTD SVG 1.1//EN" "http://www.w3.org/Graphics/SVG/1.1/DTD/svg11.dtd">
<svg version="1.1" id="Layer_1" xmlns="http://www.w3.org/2000/svg" xmlns:xlink="http://www.w3.org/1999/xlink" x="0px" y="0px"
	 width="48px" height="48px" viewBox="0 0 48 48" enable-background="new 0 0 48 48" xml:space="preserve">
<path d="M8,14c0-1.1,0.9-2,2-2h28c1.1,0,2,0.9,2,2c0,1.1-0.9,2-2,2H10C8.9,16,8,15.1,8,14z M38,22H10c-1.1,0-2,0.9-2,2
	c0,1.1,0.9,2,2,2h28c1.1,0,2-0.9,2-2C40,22.9,39.1,22,38,22z M38,32H10c-1.1,0-2,0.9-2,2c0,1.1,0.9,2,2,2h28c1.1,0,2-0.9,2-2
	C40,32.9,39.1,32,38,32z"/>
</svg>
