<?xml version="1.0" encoding="utf-8"?>
<!-- Generator: Adobe Illustrator 20.1.0, SVG Export Plug-In . SVG Version: 6.00 Build 0)  -->
<svg version="1.1" id="Layer_1" xmlns="http://www.w3.org/2000/svg" xmlns:xlink="http://www.w3.org/1999/xlink" x="0px" y="0px"
	 viewBox="0 0 48 48" style="enable-background:new 0 0 48 48;" xml:space="preserve">
<path d="M36,24H10V13c0-7.2,5.8-13,13-13s13,5.8,13,13V24z M23,38c6.8,0,12.4-5.3,12.9-12H10.1C10.6,32.7,16.2,38,23,38z M8,21
	c0-0.6-0.4-1-1-1s-1,0.4-1,1v3h2V21z M39,20c-0.6,0-1,0.4-1,1v3h2v-3C40,20.4,39.6,20,39,20z M23,40c-8.1,0-14.5-6.1-15-14H6
	c0.5,8.7,7.2,15.5,16,16v5c0,0.6,0.4,1,1,1s1-0.4,1-1v-5c8.7-0.5,15.5-7.2,16-16h-2C37.5,33.9,31.1,40,23,40z"/>
</svg>
