<?xml version="1.0" encoding="utf-8"?>
<!-- Generator: Adobe Illustrator 20.1.0, SVG Export Plug-In . SVG Version: 6.00 Build 0)  -->
<svg version="1.1" id="Layer_1" xmlns="http://www.w3.org/2000/svg" xmlns:xlink="http://www.w3.org/1999/xlink" x="0px" y="0px"
	 viewBox="0 0 48 48" style="enable-background:new 0 0 48 48;" xml:space="preserve">
<path d="M47.4,25.4l-6,6C41,31.8,40.5,32,40,32s-1-0.2-1.4-0.6c-0.8-0.8-0.8-2,0-2.8l2.6-2.6H32v20c0,1.1-0.9,2-2,2
	c-1.1,0-2-0.9-2-2V2c0-1.1,0.9-2,2-2c1.1,0,2,0.9,2,2v20h9.2l-2.6-2.6c-0.8-0.8-0.8-2,0-2.8c0.8-0.8,2-0.8,2.8,0l6,6
	C48.2,23.4,48.2,24.6,47.4,25.4z M20,0c-1.1,0-2,0.9-2,2v20H6.8l2.6-2.6c0.8-0.8,0.8-2,0-2.8c-0.8-0.8-2-0.8-2.8,0l-6,6
	c-0.8,0.8-0.8,2.1,0,2.8l6,6C7,31.8,7.5,32,8,32s1-0.2,1.4-0.6c0.8-0.8,0.8-2,0-2.8L6.8,26H18v20c0,1.1,0.9,2,2,2c1.1,0,2-0.9,2-2V2
	C22,0.9,21.1,0,20,0z"/>
</svg>
