<?xml version="1.0" encoding="utf-8"?>
<!-- Generator: Adobe Illustrator 17.0.0, SVG Export Plug-In . SVG Version: 6.00 Build 0)  -->
<!DOCTYPE svg PUBLIC "-//W3C//DTD SVG 1.1//EN" "http://www.w3.org/Graphics/SVG/1.1/DTD/svg11.dtd">
<svg version="1.1" id="Layer_1" xmlns="http://www.w3.org/2000/svg" xmlns:xlink="http://www.w3.org/1999/xlink" x="0px" y="0px"
	 width="48px" height="48px" viewBox="0 0 48 48" enable-background="new 0 0 48 48" xml:space="preserve">
<path d="M24,15.8c0.7,0,1.3,0.1,1.9,0.3l-8.6,8.6C17.1,24,17,23.4,17,22.8C17,18.9,20.1,15.8,24,15.8z M9.9,32l5.8-5.8
	C15.3,25.2,15,24,15,22.8c0-5,4-9,9-9c1.2,0,2.4,0.3,3.5,0.7l4.2-4.2c-2.4-0.9-5-1.5-7.7-1.5C11,8.8,0.7,21.6,0.2,22.1
	c-0.3,0.4-0.3,0.9,0,1.2C0.5,23.7,4.2,28.3,9.9,32z M47.8,23.4C47.4,23.9,37,36.8,24,36.8c-3,0-5.8-0.7-8.4-1.7l-9.2,9.2
	c0,0,0,0,0,0c-0.8,0.7-2.1,0.7-2.8,0c0,0,0,0,0,0c-0.9-0.8-0.7-2.3,0-2.8l39-39c0,0,0,0,0,0c0.8-0.8,2.1-0.7,2.8,0
	c0.8,0.8,0.8,2,0,2.8l-7.9,7.9c6,3.8,10,8.7,10.3,9C48.1,22.5,48.1,23,47.8,23.4z M33,22.8c0-1.5-0.4-2.9-1.1-4.1l-1.5,1.5
	c0.3,0.8,0.5,1.7,0.5,2.6c0,3.9-3.1,7-7,7c-0.9,0-1.8-0.2-2.6-0.5l-1.5,1.5c1.2,0.7,2.6,1.1,4.1,1.1C29,31.8,33,27.7,33,22.8z"/>
</svg>
