<?xml version="1.0" encoding="utf-8"?>
<!-- Generator: Adobe Illustrator 17.0.0, SVG Export Plug-In . SVG Version: 6.00 Build 0)  -->
<!DOCTYPE svg PUBLIC "-//W3C//DTD SVG 1.1//EN" "http://www.w3.org/Graphics/SVG/1.1/DTD/svg11.dtd">
<svg version="1.1" id="Layer_1" xmlns="http://www.w3.org/2000/svg" xmlns:xlink="http://www.w3.org/1999/xlink" x="0px" y="0px"
	 width="48px" height="48px" viewBox="0 0 48 48" enable-background="new 0 0 48 48" xml:space="preserve">
<path d="M6.1,29.2c-3.4,0-6.1-4-6.1-9.1s2.7-9.1,6.1-9.1c3.4,0,6.1,4,6.1,9.1S9.5,29.2,6.1,29.2z M17.5,16.9c1.9,0,3.2-1.2,4.2-2.8
	c0.9-1.6,1.4-3.6,1.3-5.8c-0.2-4.5-2.7-8.1-5.9-8.1c0,0,0,0,0,0c-1.6,0.1-3,1-4,2.8c-0.9,1.6-1.4,3.6-1.3,5.8
	C11.9,13.4,14.4,16.9,17.5,16.9z M41.9,11.1c-3.4,0-6.1,4-6.1,9.1s2.7,9.1,6.1,9.1c3.4,0,6.1-4,6.1-9.1S45.3,11.1,41.9,11.1z
	 M30.4,16.9c3.7,0,5.8-4.2,5.9-8.1c0.1-2.1-0.4-4.2-1.3-5.8c-1-1.7-2.4-2.7-4.2-2.8c-3.1,0-5.6,3.6-5.8,8.1
	c-0.1,2.1,0.4,4.2,1.3,5.8C27.4,15.9,28.8,16.9,30.4,16.9z M31.9,27.1c-0.8-4.1-3.3-8.4-7.9-8.4c-4.6,0-7.1,4.3-7.9,8.4
	c-0.3,1.3-1.4,2.5-2.7,3.9c-2,2.1-4.2,4.5-4.2,8.1c0,6.2,7.7,9,14.8,9c7.1,0,14.8-2.8,14.8-9c0-3.6-2.2-6-4.2-8.1
	C33.3,29.6,32.2,28.4,31.9,27.1z"/>
</svg>
