<?xml version="1.0" encoding="utf-8"?>
<!-- Generator: Adobe Illustrator 17.0.0, SVG Export Plug-In . SVG Version: 6.00 Build 0)  -->
<!DOCTYPE svg PUBLIC "-//W3C//DTD SVG 1.1//EN" "http://www.w3.org/Graphics/SVG/1.1/DTD/svg11.dtd">
<svg version="1.1" id="Layer_1" xmlns="http://www.w3.org/2000/svg" xmlns:xlink="http://www.w3.org/1999/xlink" x="0px" y="0px"
	 width="48px" height="48px" viewBox="0 0 48 48" enable-background="new 0 0 48 48" xml:space="preserve">
<path d="M10,10h28v28H10V10z M38,5v3H10V5c0-2.8,2.2-5,5-5h18C35.8,0,38,2.2,38,5z M26,5c0-1.1-0.9-2-2-2s-2,0.9-2,2
	c0,1.1,0.9,2,2,2S26,6.1,26,5z M10,40h28v3c0,2.8-2.2,5-5,5H15c-2.8,0-5-2.2-5-5V40z M18,43c0,0.6,0.4,1,1,1h10c0.6,0,1-0.4,1-1
	s-0.4-1-1-1H19C18.4,42,18,42.4,18,43z"/>
</svg>
