<?xml version="1.0" encoding="utf-8"?>
<!-- Generator: Adobe Illustrator 17.0.0, SVG Export Plug-In . SVG Version: 6.00 Build 0)  -->
<!DOCTYPE svg PUBLIC "-//W3C//DTD SVG 1.1//EN" "http://www.w3.org/Graphics/SVG/1.1/DTD/svg11.dtd">
<svg version="1.1" id="Layer_1" xmlns="http://www.w3.org/2000/svg" xmlns:xlink="http://www.w3.org/1999/xlink" x="0px" y="0px"
	 width="48px" height="48px" viewBox="0 0 48 48" enable-background="new 0 0 48 48" xml:space="preserve">
<path d="M38.6,36.6c1.9,2,1.9,5.1,0,7.1L36.3,46c-1.3,1.3-3.1,2-4.9,2c-1.4,0-2.7-0.4-3.9-1.2C17.1,40,8,30.9,1.2,20.6
	c-1.8-2.8-1.5-6.5,0.9-8.8l2.3-2.3C5.3,8.5,6.6,8,7.9,8c1.3,0,2.6,0.5,3.5,1.5l4.2,4.2c1.9,2,1.9,5.1,0,7.1l-0.8,0.8
	c3.5,4.1,7.4,8.1,11.6,11.6l0.8-0.8c0.9-0.9,2.2-1.5,3.5-1.5c1.3,0,2.6,0.5,3.5,1.5L38.6,36.6z M47.7,0.3c-0.4-0.4-1-0.4-1.4,0
	L28,18.6V8c0-0.6-0.4-1-1-1s-1,0.4-1,1v13c0,0.3,0.1,0.5,0.3,0.7c0.2,0.2,0.4,0.3,0.7,0.3c0,0,13,0,13,0c0.6,0,1-0.4,1-1s-0.4-1-1-1
	H29.4L47.7,1.7C48.1,1.3,48.1,0.7,47.7,0.3z"/>
</svg>
