<?xml version="1.0" encoding="utf-8"?>
<!-- Generator: Adobe Illustrator 17.0.0, SVG Export Plug-In . SVG Version: 6.00 Build 0)  -->
<!DOCTYPE svg PUBLIC "-//W3C//DTD SVG 1.1//EN" "http://www.w3.org/Graphics/SVG/1.1/DTD/svg11.dtd">
<svg version="1.1" id="Layer_1" xmlns="http://www.w3.org/2000/svg" xmlns:xlink="http://www.w3.org/1999/xlink" x="0px" y="0px"
	 width="48px" height="48px" viewBox="0 0 48 48" enable-background="new 0 0 48 48" xml:space="preserve">
<path d="M46.1,14.2l-2.9,31.9l-31.9-2.9l0.5-3.2H40V13.6l1.1,0.1L46.1,14.2z M38,32h-7H9H2v6h36V32z M8.4,30H2V2h36v28h-6.4
	l-5.7-14.4C25.7,15.2,25.4,15,25,15c-0.4,0-0.8,0.2-0.9,0.6l-4.3,9.6l-4-4.8c-0.2-0.2-0.5-0.4-0.8-0.4c-0.3,0-0.6,0.2-0.8,0.5
	L8.4,30z M8,12c0,2.2,1.8,4,4,4c2.2,0,4-1.8,4-4c0-2.2-1.8-4-4-4C9.8,8,8,9.8,8,12z"/>
</svg>
