<?xml version="1.0" encoding="utf-8"?>
<!-- Generator: Adobe Illustrator 17.0.0, SVG Export Plug-In . SVG Version: 6.00 Build 0)  -->
<!DOCTYPE svg PUBLIC "-//W3C//DTD SVG 1.1//EN" "http://www.w3.org/Graphics/SVG/1.1/DTD/svg11.dtd">
<svg version="1.1" id="Layer_1" xmlns="http://www.w3.org/2000/svg" xmlns:xlink="http://www.w3.org/1999/xlink" x="0px" y="0px"
	 width="48px" height="48px" viewBox="0 0 48 48" enable-background="new 0 0 48 48" xml:space="preserve">
<path d="M38,25c0,4-1.6,7.8-4.4,10.6C30.8,38.4,27,40,23,40c0,0,0,0,0,0c-4,0-7.8-1.6-10.6-4.4C9.5,32.7,8,29,8,25
	c0-5.3,2.7-10.1,7.2-12.8c0.9-0.6,2.2-0.3,2.7,0.7c0.6,0.9,0.3,2.2-0.7,2.7C14,17.6,12,21.1,12,25c0,6.1,4.9,11,11,11c0,0,0,0,0,0
	c2.9,0,5.7-1.1,7.8-3.2C32.8,30.7,34,28,34,25c0-3.9-2-7.4-5.3-9.4c-0.9-0.6-1.2-1.8-0.7-2.7c0.6-0.9,1.8-1.3,2.7-0.7
	C35.2,14.9,38,19.8,38,25z M23,24L23,24c1.1,0,2-0.9,2-2l0-13c0-1.1-0.9-2-2-2c-1.1,0-2,0.9-2,2l0,13C21,23.1,21.9,24,23,24z"/>
</svg>
