<?xml version="1.0" encoding="utf-8"?>
<!-- Generator: Adobe Illustrator 17.0.0, SVG Export Plug-In . SVG Version: 6.00 Build 0)  -->
<!DOCTYPE svg PUBLIC "-//W3C//DTD SVG 1.1//EN" "http://www.w3.org/Graphics/SVG/1.1/DTD/svg11.dtd">
<svg version="1.1" id="Layer_1" xmlns="http://www.w3.org/2000/svg" xmlns:xlink="http://www.w3.org/1999/xlink" x="0px" y="0px"
	 width="48px" height="48px" viewBox="0 0 48 48" enable-background="new 0 0 48 48" xml:space="preserve">
<path d="M36.6,14.5c0,6.2-4.6,11.4-10.6,12.3V36c0,1.1-0.9,2-2,2s-2-0.9-2-2V25c0-1.1,1-2,2.1-2c4.7,0,8.6-3.8,8.6-8.5
	S28.8,6,24.1,6c-4.7,0-8.5,3.8-8.5,8.5c0,1.1-0.9,2-2,2s-2-0.9-2-2C11.6,7.6,17.3,2,24.2,2S36.6,7.6,36.6,14.5z M24.1,42
	c-1.7,0-3,1.3-3,3s1.3,3,3,3s3-1.3,3-3S25.8,42,24.1,42z"/>
</svg>
