<?xml version="1.0" encoding="utf-8"?>
<!-- Generator: Adobe Illustrator 17.0.0, SVG Export Plug-In . SVG Version: 6.00 Build 0)  -->
<!DOCTYPE svg PUBLIC "-//W3C//DTD SVG 1.1//EN" "http://www.w3.org/Graphics/SVG/1.1/DTD/svg11.dtd">
<svg version="1.1" id="Layer_1" xmlns="http://www.w3.org/2000/svg" xmlns:xlink="http://www.w3.org/1999/xlink" x="0px" y="0px"
	 width="48px" height="48px" viewBox="0 0 48 48" enable-background="new 0 0 48 48" xml:space="preserve">
<path d="M24,0C10.8,0,0,10.8,0,24s10.8,24,24,24c13.2,0,24-10.8,24-24S37.2,0,24,0z M24,38c-1.1,0-2-0.9-2-2c0-1.1,0.9-2,2-2
	c1.1,0,2,0.9,2,2C26,37.1,25.1,38,24,38z M25,25.9V31c0,0.6-0.4,1-1,1c-0.6,0-1-0.4-1-1v-6c0-0.6,0.4-1,1-1c2.8,0,5-2.2,5-5
	s-2.2-5-5-5c-2.8,0-5,2.2-5,5c0,0.6-0.4,1-1,1c-0.6,0-1-0.4-1-1c0-3.9,3.1-7,7-7c3.9,0,7,3.1,7,7C31,22.5,28.4,25.4,25,25.9z"/>
</svg>
