<?xml version="1.0" encoding="utf-8"?>
<!-- Generator: Adobe Illustrator 17.0.0, SVG Export Plug-In . SVG Version: 6.00 Build 0)  -->
<!DOCTYPE svg PUBLIC "-//W3C//DTD SVG 1.1//EN" "http://www.w3.org/Graphics/SVG/1.1/DTD/svg11.dtd">
<svg version="1.1" id="Layer_1" xmlns="http://www.w3.org/2000/svg" xmlns:xlink="http://www.w3.org/1999/xlink" x="0px" y="0px"
	 width="48px" height="48px" viewBox="0 0 48 48" enable-background="new 0 0 48 48" xml:space="preserve">
<path d="M28.6,19.4c-0.8-0.8-0.8-2,0-2.8L41.2,4L36,4c-1.1,0-2-0.9-2-2c0-1.1,0.9-2,2-2h0l10,0c1.1,0,2,0.9,2,2l-0.1,10
	c0.1,1.1-0.8,2-1.9,2h0c-1.1,0-2-0.9-2-2l0-5.2L31.4,19.4C31,19.8,30.5,20,30,20C29.5,20,29,19.8,28.6,19.4z M16.6,28.6L4,41.2L4,36
	c0-1.1-0.9-2-2-2c-1.1,0-2,0.9-2,2l0,9.8C-0.1,47,0.8,48,2,48h10c1.1,0,2-0.9,2-2c0-1.1-0.9-2-2-2H6.8l12.6-12.6
	c0.8-0.8,0.8-2,0-2.8C18.7,27.8,17.4,27.8,16.6,28.6z M2,14L2,14c1.1,0,2-0.9,2-2l0-5.2l12.6,12.6C17,19.8,17.5,20,18,20
	c0.5,0,1-0.2,1.4-0.6c0.8-0.8,0.8-2,0-2.8L6.9,4L12,4c1.1,0,2-0.9,2-2c0-1.1-0.9-2-2-2L2.2,0C1-0.1,0,0.9,0,2l0,10
	C0,13.1,0.9,14,2,14z M46,34L46,34c-1.1,0-2,0.9-2,2l0,5.2L31.4,28.6c-0.8-0.8-2-0.8-2.8,0c-0.8,0.8-0.8,2,0,2.8L41.2,44L36,44
	c0,0,0,0,0,0c-1.1,0-2,0.9-2,2c0,1.1,0.9,2,2,2l10,0c0,0,2-0.9,2-1.9c0,0,0-10,0-10C48,34.9,47.1,34,46,34z"/>
</svg>
