<?xml version="1.0" encoding="utf-8"?>
<!-- Generator: Adobe Illustrator 17.0.0, SVG Export Plug-In . SVG Version: 6.00 Build 0)  -->
<!DOCTYPE svg PUBLIC "-//W3C//DTD SVG 1.1//EN" "http://www.w3.org/Graphics/SVG/1.1/DTD/svg11.dtd">
<svg version="1.1" id="Layer_1" xmlns="http://www.w3.org/2000/svg" xmlns:xlink="http://www.w3.org/1999/xlink" x="0px" y="0px"
	 width="48px" height="48px" viewBox="0 0 48 48" enable-background="new 0 0 48 48" xml:space="preserve">
<path d="M28,18V8c0-1.1,0.9-2,2-2c1.1,0,2,0.9,2,2v5.2L44.6,0.6c0.8-0.8,2-0.8,2.8,0c0.8,0.8,0.8,2,0,2.8L34.8,16H40
	c1.1,0,2,0.9,2,2c0,1.1-0.9,2-2,2H30C28.9,20,28,19.1,28,18z M18,28L8,28h0c-1.1,0-2,0.9-2,2c0,1.1,0.9,2,2,2l5.2,0L0.6,44.6
	c-0.8,0.8-0.8,2,0,2.8C1,47.8,1.5,48,2,48c0.5,0,1-0.2,1.4-0.6L16,34.8l0,5.2c0,1.1,0.9,2,2,2h0c1.1,0,2-0.9,2-2l0-10
	C20,30,19.1,28,18,28z M18,6c-1.1,0-2,0.9-2,2v5.2L3.4,0.6c-0.8-0.8-2-0.8-2.8,0c-0.8,0.8-0.8,2,0,2.8L13.1,16H8c-1.1,0-2,0.9-2,2
	c0,1.1,0.9,2,2,2c0,0,9.9,0,10,0c1,0,2-0.8,2-2V8C20,6.9,19.1,6,18,6z M34.8,32l5.2,0h0c1.1,0,2-0.9,2-2c0-1.1-0.9-2-2-2l-10,0h0
	c-1,0-2,0.8-2,2c0,0,0,0,0,0l0,10c0,1.1,0.9,2,2,2c0,0,0,0,0,0c1.1,0,2-0.9,2-2l0-5.2l12.6,12.6c0.4,0.4,0.9,0.6,1.4,0.6
	c0.5,0,1-0.2,1.4-0.6c0.8-0.8,0.8-2,0-2.8L34.8,32z"/>
</svg>
