<?xml version="1.0" encoding="utf-8"?>
<!-- Generator: Adobe Illustrator 17.0.0, SVG Export Plug-In . SVG Version: 6.00 Build 0)  -->
<!DOCTYPE svg PUBLIC "-//W3C//DTD SVG 1.1//EN" "http://www.w3.org/Graphics/SVG/1.1/DTD/svg11.dtd">
<svg version="1.1" id="Layer_1" xmlns="http://www.w3.org/2000/svg" xmlns:xlink="http://www.w3.org/1999/xlink" x="0px" y="0px"
	 width="48px" height="48px" viewBox="0 0 48 48" enable-background="new 0 0 48 48" xml:space="preserve">
<path d="M43.4,40.6l-9.4-9.4c2.5-3.1,3.9-7,3.9-11.2c0-9.9-8.1-18-18-18C10.1,2,2,10.1,2,20c0,9.9,8.1,18,18,18
	c4.2,0,8.1-1.5,11.2-3.9l9.4,9.4C41,43.8,41.5,44,42,44s1-0.2,1.4-0.6C44.2,42.6,44.2,41.4,43.4,40.6z M6,20c0-7.7,6.3-14,14-14
	c7.7,0,14,6.3,14,14c0,7.7-6.3,14-14,14C12.3,34,6,27.7,6,20z"/>
</svg>
