<?xml version="1.0" encoding="utf-8"?>
<!-- Generator: Adobe Illustrator 17.0.0, SVG Export Plug-In . SVG Version: 6.00 Build 0)  -->
<!DOCTYPE svg PUBLIC "-//W3C//DTD SVG 1.1//EN" "http://www.w3.org/Graphics/SVG/1.1/DTD/svg11.dtd">
<svg version="1.1" id="Layer_1" xmlns="http://www.w3.org/2000/svg" xmlns:xlink="http://www.w3.org/1999/xlink" x="0px" y="0px"
	 width="48px" height="48px" viewBox="0 0 48 48" enable-background="new 0 0 48 48" xml:space="preserve">
<path d="M43,0H5C4.4,0,4,0.4,4,1v14.5c0,13.6,7.5,26,19.5,32.4C23.7,48,23.8,48,24,48s0.3,0,0.5-0.1C36.5,41.5,44,29.1,44,15.5V1
	C44,0.4,43.6,0,43,0z M35.7,14.7l-15,14C20.5,28.9,20.2,29,20,29c-0.3,0-0.5-0.1-0.7-0.3l-5-5c-0.4-0.4-0.4-1,0-1.4
	c0.4-0.4,1-0.4,1.4,0l4.3,4.3l14.3-13.3c0.4-0.4,1-0.4,1.4,0C36.1,13.7,36.1,14.4,35.7,14.7z"/>
</svg>
