<?xml version="1.0" encoding="utf-8"?>
<!-- Generator: Adobe Illustrator 17.0.0, SVG Export Plug-In . SVG Version: 6.00 Build 0)  -->
<!DOCTYPE svg PUBLIC "-//W3C//DTD SVG 1.1//EN" "http://www.w3.org/Graphics/SVG/1.1/DTD/svg11.dtd">
<svg version="1.1" id="Layer_1" xmlns="http://www.w3.org/2000/svg" xmlns:xlink="http://www.w3.org/1999/xlink" x="0px" y="0px"
	 width="48px" height="48px" viewBox="0 0 48 48" enable-background="new 0 0 48 48" xml:space="preserve">
<path d="M30,34v9c0,2.8-2.2,5-5,5H5c-2.8,0-5-2.2-5-5V7c0-2.8,2.2-5,5-5h20c2.8,0,5,2.2,5,5v11c0,1.1-0.9,2-2,2s-2-0.9-2-2V7
	c0-0.5-0.5-1-1-1H5C4.5,6,4,6.5,4,7v36c0,0.5,0.5,1,1,1h20c0.5,0,1-0.5,1-1v-9c0-1.1,0.9-2,2-2S30,32.9,30,34z M45.7,27.1
	c0,0,0.1-0.1,0.1-0.1c0-0.1,0.1-0.1,0.1-0.2c0-0.1,0-0.1,0.1-0.2c0-0.1,0-0.1,0.1-0.2c0.1-0.3,0.1-0.5,0-0.8c0-0.1,0-0.1-0.1-0.2
	c0-0.1,0-0.1-0.1-0.2c0-0.1-0.1-0.1-0.1-0.2c0,0,0-0.1-0.1-0.1c-0.1-0.1-0.2-0.2-0.3-0.3l-8-8c-0.8-0.8-2-0.8-2.8,0
	c-0.8,0.8-0.8,2,0,2.8l4.6,4.6H14c-1.1,0-2,0.9-2,2s0.9,2,2,2h25.2l-4.6,4.6c-0.8,0.8-0.8,2,0,2.8C35,35.8,35.5,36,36,36
	s1-0.2,1.4-0.6l8-8C45.5,27.3,45.6,27.2,45.7,27.1z"/>
</svg>
