<?xml version="1.0" encoding="utf-8"?>
<!-- Generator: Adobe Illustrator 17.0.0, SVG Export Plug-In . SVG Version: 6.00 Build 0)  -->
<!DOCTYPE svg PUBLIC "-//W3C//DTD SVG 1.1//EN" "http://www.w3.org/Graphics/SVG/1.1/DTD/svg11.dtd">
<svg version="1.1" id="Layer_1" xmlns="http://www.w3.org/2000/svg" xmlns:xlink="http://www.w3.org/1999/xlink" x="0px" y="0px"
	 width="48px" height="48px" viewBox="0 0 48 48" enable-background="new 0 0 48 48" xml:space="preserve">
<path d="M48,31v8c0,0.6-0.4,1-1,1h-9V30h9C47.6,30,48,30.4,48,31z M6,31v8c0,0.6,0.4,1,1,1h29V30H7C6.4,30,6,30.4,6,31z M3,30
	c-0.6,0-1,0.4-1,1v8c0,0.6,0.4,1,1,1s1-0.4,1-1v-8C4,30.4,3.6,30,3,30z M2,21c0-2.8,2.2-5,5-5c3.9,0,7-3.1,7-7c0-0.6-0.4-1-1-1
	s-1,0.4-1,1c0,2.8-2.2,5-5,5c-3.9,0-7,3.1-7,7v4c0,0.6,0.4,1,1,1s1-0.4,1-1V21z M11,20c3.9,0,7-3.1,7-7c0-0.6-0.4-1-1-1s-1,0.4-1,1
	c0,2.8-2.2,5-5,5c-3.9,0-7,3.1-7,7c0,0.6,0.4,1,1,1s1-0.4,1-1C6,22.2,8.2,20,11,20z"/>
</svg>
