<?xml version="1.0" encoding="utf-8"?>
<!-- Generator: Adobe Illustrator 17.0.0, SVG Export Plug-In . SVG Version: 6.00 Build 0)  -->
<!DOCTYPE svg PUBLIC "-//W3C//DTD SVG 1.1//EN" "http://www.w3.org/Graphics/SVG/1.1/DTD/svg11.dtd">
<svg version="1.1" id="Layer_1" xmlns="http://www.w3.org/2000/svg" xmlns:xlink="http://www.w3.org/1999/xlink" x="0px" y="0px"
	 width="48px" height="48px" viewBox="0 0 48 48" enable-background="new 0 0 48 48" xml:space="preserve">
<path d="M12,24c0-6.6,5.4-12,12-12s12,5.4,12,12c0,6.6-5.4,12-12,12S12,30.6,12,24z M8,2.1C7.3,2.2,6.6,2.4,6,2.7V17h2V2.1z
	 M12,16.8V2h-2v15h1.9C11.9,16.9,12,16.9,12,16.8z M46,9v1.3V17v20.7c0,4.6-3.7,8.3-8.3,8.3H10.3C5.7,46,2,42.3,2,37.7V17v-6.7V9
	c0-1.9,0.8-3.6,2-4.9v6.2V17v20.7c0,3.5,2.8,6.3,6.3,6.3h27.4c3.5,0,6.3-2.8,6.3-6.3V17h-7.9c-2.4-4.2-6.9-7-12.1-7
	c-3.9,0-7.5,1.6-10,4.2V2h25C42.9,2,46,5.1,46,9z M44,7c0-0.6-0.4-1-1-1h-6c-0.6,0-1,0.4-1,1v6c0,0.6,0.4,1,1,1h6c0.6,0,1-0.4,1-1
	v-2.7V7z"/>
</svg>
