<?xml version="1.0" encoding="utf-8"?>
<!-- Generator: Adobe Illustrator 20.1.0, SVG Export Plug-In . SVG Version: 6.00 Build 0)  -->
<svg version="1.1" id="Layer_1" xmlns="http://www.w3.org/2000/svg" xmlns:xlink="http://www.w3.org/1999/xlink" x="0px" y="0px"
	 viewBox="0 0 48 48" style="enable-background:new 0 0 48 48;" xml:space="preserve">
<path d="M17.1,26.7c0.4-2.6,1.9-5,3.8-6.8c3.3-3.1,8-4.4,12.4-4.1c-0.8-4.1-3.7-7.5-7.3-9.5c-4.8-2.7-10.7-3.1-15.8-1.2
	c-3.4,1.2-6.4,3.5-8.3,6.5c-1.7,2.8-2.3,6.2-1.5,9.4c0.8,3.5,3.3,6.5,6.2,8.4C6,31.1,5.5,32.7,5,34.4c1.9-1,3.7-2,5.6-3
	c2.3,0.7,4.6,1.1,7,1C16.9,30.6,16.8,28.6,17.1,26.7z M22.1,12.2c0.7-0.3,1.5,0.3,1.5,1.1c0,0.9-1.1,1.4-1.8,0.8
	C21.1,13.6,21.3,12.4,22.1,12.2z M12,13.5c-0.2,0.7-1.1,1.1-1.7,0.6c-0.7-0.5-0.5-1.6,0.3-1.9C11.4,11.9,12.3,12.7,12,13.5z
	 M47.1,26.6c-1.2-2.6-3.4-4.7-5.9-6c-4.5-2.3-10.1-2.3-14.6,0.1c-3.1,1.6-5.7,4.5-6.5,7.9c-0.6,2.6-0.1,5.3,1.3,7.6
	c2,3.4,5.7,5.5,9.5,6.2c2.8,0.6,5.6,0.2,8.3-0.5c1.6,0.6,3,1.6,4.6,2.4c-0.4-1.3-0.8-2.7-1.3-4c1.7-1.2,3.3-2.8,4.3-4.7
	C48.3,32.8,48.4,29.4,47.1,26.6z M30.8,27.3c-0.2,0.7-1.3,0.9-1.8,0.4c-0.6-0.5-0.3-1.6,0.4-1.8C30.2,25.6,31.1,26.5,30.8,27.3z
	 M39.9,27.4c-0.3,0.6-1.2,0.8-1.7,0.3c-0.2-0.2-0.3-0.5-0.4-0.8c0.1-0.5,0.5-1,1-1C39.6,25.8,40.3,26.7,39.9,27.4z"/>
</svg>
