<?xml version="1.0" encoding="utf-8"?>
<!-- Generator: Adobe Illustrator 17.0.0, SVG Export Plug-In . SVG Version: 6.00 Build 0)  -->
<!DOCTYPE svg PUBLIC "-//W3C//DTD SVG 1.1//EN" "http://www.w3.org/Graphics/SVG/1.1/DTD/svg11.dtd">
<svg version="1.1" id="Layer_1" xmlns="http://www.w3.org/2000/svg" xmlns:xlink="http://www.w3.org/1999/xlink" x="0px" y="0px"
	 width="48px" height="48px" viewBox="0 0 48 48" enable-background="new 0 0 48 48" xml:space="preserve">
<path d="M26.4,4H14.2c-1.3,0-2.7,0.2-4,0.7C5.7,6.2,2.6,10,2.6,13.9c0,5.5,4.3,9.7,10,9.8c-0.1,0.4-0.2,0.6-0.2,1.1
	c0,0.8,0.2,2.2,0.7,2.2c-0.1,0-0.1,0-0.2,0c-5.4,0-10.3,2.9-12.2,6.9c-0.5,1-0.7,2.2-0.7,3.2c0,1,0.3,2,0.8,2.9
	c1.2,2.1,3.7,3.7,7.1,4.6c1.8,0.4,3.6,0.7,5.6,0.7c1.8,0,3.4-0.2,5-0.7c4.8-1.4,8-5,8-9.1c0-3.9-1.3-6.3-4.7-8.7
	c-1.5-1-2.8-2.5-2.8-3c0-0.9,0.1-1.3,2-2.7c2.5-1.9,3.8-4.4,3.8-7.1c0-2.4-0.7-5-2-6h1c0.2,0,0.4-0.1,0.6-0.2l2.7-2
	c0.3-0.2,0.5-0.7,0.4-1.1C27.2,4.3,26.8,4,26.4,4z M8.9,14c-0.3-2,0.2-3.9,1.2-5.1c0.6-0.7,1.5-1.2,2.5-1.2l0.1,0
	c2.7,0.1,5.3,3.1,5.8,6.7c0.3,2-0.2,4.1-1.2,5.3c-0.7,0.7-1.5,1.3-2.5,1.3h0h0C12,20,9.4,17.6,8.9,14z M21.2,35
	c0.1,0.3,0.1,0.7,0.1,1c0,3.6-2.7,5.4-7.9,5.4c-4,0-7.1-2.7-7.1-5.8c0-2.9,3.6-5.6,7.8-5.6h0.1c0.9,1,1.8,0.4,2.6,0.6
	c0.3,0.2,0.6,0.5,0.8,0.7C19.6,32.6,20.9,33.6,21.2,35z M46,20v4h-6v6h-4v-6h-6v-4h6v-6h4v6H46z"/>
</svg>
