<?xml version="1.0" encoding="utf-8"?>
<!-- Generator: Adobe Illustrator 20.1.0, SVG Export Plug-In . SVG Version: 6.00 Build 0)  -->
<svg version="1.1" id="Layer_1" xmlns="http://www.w3.org/2000/svg" xmlns:xlink="http://www.w3.org/1999/xlink" x="0px" y="0px"
	 viewBox="0 0 48 48" style="enable-background:new 0 0 48 48;" xml:space="preserve">
<path d="M48,12L48,12L48,12c0,0.2,0,0.4-0.1,0.5c0,0,0,0.1,0,0.1c-0.1,0.2-0.1,0.3-0.2,0.5c0,0,0,0,0,0l0,0l0,0l-4,6
	c-0.4,0.6-1,0.9-1.7,0.9c-0.4,0-0.8-0.1-1.1-0.3c-0.9-0.6-1.2-1.9-0.6-2.8l1.9-2.9c0,0-6.3,0-6.3,0c-3.9,0-5.4,2.3-7.3,5.1
	c-1.1,1.6-2.3,3.5-4.2,4.9c1.8,1.4,3.1,3.2,4.2,4.9c1.9,2.9,3.4,5.1,7.3,5.1l6.2,0l-1.9-2.9c-0.6-0.9-0.4-2.2,0.6-2.8
	c0.9-0.6,2.2-0.4,2.8,0.6l4,6c0,0,0,0,0,0c0.1,0.1,0.2,0.3,0.2,0.5c0,0,0,0.1,0,0.1c0,0.2,0.1,0.3,0.1,0.5v0c0,0.2,0,0.3-0.1,0.5
	c0,0,0,0.1,0,0.1c-0.1,0.2-0.1,0.3-0.2,0.5c0,0,0,0,0,0l0,0l0,0l-4,6c-0.4,0.6-1,0.9-1.7,0.9c-0.4,0-0.8-0.1-1.1-0.3
	c-0.9-0.6-1.2-1.9-0.5-2.8l1.9-2.9H36c-6.1,0-8.6-3.8-10.7-6.9c-1.8-2.7-3.2-4.8-6.7-5.1C18.4,26,2,26,2,26c-1.1,0-2-0.9-2-2
	c0-1.1,0.9-2,2-2c0,0,16.3,0,16.4,0c3.6-0.2,5.1-2.4,6.9-5.1c2-3.1,4.6-6.9,10.6-6.9c0,0,6.3,0,6.3,0l-1.9-2.9
	c-0.6-0.9-0.4-2.2,0.6-2.8c0.9-0.6,2.2-0.4,2.8,0.6l4,6l0,0c0,0,0,0,0,0c0.1,0.1,0.2,0.3,0.2,0.5c0,0,0,0.1,0,0.1
	C48,11.7,48,11.8,48,12z"/>
</svg>
