<?xml version="1.0" encoding="utf-8"?>
<!-- Generator: Adobe Illustrator 20.1.0, SVG Export Plug-In . SVG Version: 6.00 Build 0)  -->
<svg version="1.1" id="Layer_1" xmlns="http://www.w3.org/2000/svg" xmlns:xlink="http://www.w3.org/1999/xlink" x="0px" y="0px"
	 viewBox="0 0 48 48" style="enable-background:new 0 0 48 48;" xml:space="preserve">
<path d="M16,37c0,2.8-2.2,5-5,5c-2.8,0-5-2.2-5-5c0-2.8,2.2-5,5-5C13.8,32,16,34.2,16,37z M33,32c-2.8,0-5,2.2-5,5c0,2.8,2.2,5,5,5
	c2.8,0,5-2.2,5-5C38,34.2,35.8,32,33,32z M24.9,10.6C24.7,10.2,24.4,10,24,10h-4c-0.4,0-0.8,0.3-1,0.7c-0.2,0.8-0.4,2.6-0.6,3.3H26
	L24.9,10.6z M48,37c0,0.6-0.4,1-1,1h-7.1c0-0.3,0.1-0.7,0.1-1c0-3.9-3.1-7-7-7s-7,3.1-7,7c0,0.3,0.1,0.7,0.1,1h-8.2
	c0-0.3,0.1-0.7,0.1-1c0-3.9-3.1-7-7-7s-7,3.1-7,7c0,0.3,0.1,0.7,0.1,1H1c-0.6,0-1-0.4-1-1s0.4-1,1-1h1V25c0-0.6,0.4-1,1-1h8.4
	l3.7-7.4c0.2-0.3,0.5-0.6,0.9-0.6h14.8c5.1,0,9.5,3.3,11,8H45c0.6,0,1,0.4,1,1v11h1C47.6,36,48,36.4,48,37z M10,26H8v2h2V26z M14,26
	h-2v2h2V26z M18,26h-2v2h2V26z M22,26h-2v2h2V26z M22,19c0-0.3-0.1-0.5-0.3-0.7C21.5,18.1,21.3,18,21,18h-2c-0.4,0-0.7,0.2-0.9,0.6
	l-2,4c-0.2,0.3-0.1,0.7,0,1c0.2,0.3,0.5,0.5,0.9,0.5h4c0.6,0,1-0.4,1-1V19z M26,26h-2v2h2V26z M30,26h-2v2h2V26z M34,26h-2v2h2V26z
	 M38,26h-2v2h2V26z M42,26h-2v2h2V26z"/>
</svg>
