<?xml version="1.0" encoding="utf-8"?>
<!-- Generator: Adobe Illustrator 19.2.1, SVG Export Plug-In . SVG Version: 6.00 Build 0)  -->
<!DOCTYPE svg PUBLIC "-//W3C//DTD SVG 1.1//EN" "http://www.w3.org/Graphics/SVG/1.1/DTD/svg11.dtd">
<svg version="1.1" id="Layer_1" xmlns="http://www.w3.org/2000/svg" xmlns:xlink="http://www.w3.org/1999/xlink" x="0px" y="0px"
	 viewBox="0 0 48 48" enable-background="new 0 0 48 48" xml:space="preserve">
<path d="M0,39c0,2.8,2.2,5,5,5h38c2.8,0,5-2.2,5-5V18H0V39z M22,30h8c0.6,0,1,0.4,1,1s-0.4,1-1,1h-8c-0.6,0-1-0.4-1-1S21.4,30,22,30
	z M10.3,25.7c-0.4-0.4-0.4-1,0-1.4c0.4-0.4,1-0.4,1.4,0l5,5c0.4,0.4,0.4,1,0,1.4l-5,5C11.5,35.9,11.3,36,11,36s-0.5-0.1-0.7-0.3
	c-0.4-0.4-0.4-1,0-1.4l4.3-4.3L10.3,25.7z M43,6H5c-2.8,0-5,2.2-5,5v5h48v-5C48,8.2,45.8,6,43,6z M8,14c-1.1,0-2-0.9-2-2
	c0-1.1,0.9-2,2-2c1.1,0,2,0.9,2,2C10,13.1,9.1,14,8,14z M14,14c-1.1,0-2-0.9-2-2c0-1.1,0.9-2,2-2c1.1,0,2,0.9,2,2
	C16,13.1,15.1,14,14,14z M20,14c-1.1,0-2-0.9-2-2c0-1.1,0.9-2,2-2c1.1,0,2,0.9,2,2C22,13.1,21.1,14,20,14z"/>
</svg>
