<?xml version="1.0" encoding="utf-8"?>
<!-- Generator: Adobe Illustrator 17.0.0, SVG Export Plug-In . SVG Version: 6.00 Build 0)  -->
<!DOCTYPE svg PUBLIC "-//W3C//DTD SVG 1.1//EN" "http://www.w3.org/Graphics/SVG/1.1/DTD/svg11.dtd">
<svg version="1.1" id="Layer_1" xmlns="http://www.w3.org/2000/svg" xmlns:xlink="http://www.w3.org/1999/xlink" x="0px" y="0px"
	 width="48px" height="48px" viewBox="0 0 48 48" enable-background="new 0 0 48 48" xml:space="preserve">
<path d="M47.4,47.9c-0.5,0.2-1.1,0-1.3-0.6L44.7,44H3.3l-1.3,3.4c-0.2,0.5-0.8,0.8-1.3,0.6c-0.5-0.2-0.8-0.8-0.6-1.3l7.1-17.8
	c0.4,0.8,0.8,1.6,1.2,2.3L7.2,34h3c0.5,1,1.1,1,1.7,2H6.5l-2.4,6h39.8l-2.4-6h-5.4c0.6-1,1.1-1,1.7-2h2.9l-1.1-2.7
	c0.4-0.8,0.8-1.5,1.2-2.3l7.1,17.7C48.1,47.1,47.9,47.7,47.4,47.9z M6.2,16.3c0-4.6,1.4-8.6,4.1-11.4C13.4,1.7,18,0,24,0
	c6,0,10.6,1.7,13.7,4.9c2.7,2.8,4.1,6.8,4.1,11.4C41.8,27.1,33.9,40,24,40C14.1,40,6.2,27.1,6.2,16.3z M31,33c0-3.3-3.1-6-7-6
	s-7,2.7-7,6c0,1.1,0.3,2.1,1,3c4,2.6,8,2.6,12,0C30.7,35.1,31,34.1,31,33z M10.1,11.4l4,8c0.2,0.3,0.5,0.6,0.9,0.6h18
	c0.4,0,0.7-0.2,0.9-0.6l4-8c0.2-0.3,0.1-0.7,0-1C37.7,10.2,37.3,10,37,10H11c-0.3,0-0.7,0.2-0.9,0.5C10,10.8,10,11.1,10.1,11.4z"/>
</svg>
