<?xml version="1.0" encoding="utf-8"?>
<!-- Generator: Adobe Illustrator 17.0.0, SVG Export Plug-In . SVG Version: 6.00 Build 0)  -->
<!DOCTYPE svg PUBLIC "-//W3C//DTD SVG 1.1//EN" "http://www.w3.org/Graphics/SVG/1.1/DTD/svg11.dtd">
<svg version="1.1" id="Layer_1" xmlns="http://www.w3.org/2000/svg" xmlns:xlink="http://www.w3.org/1999/xlink" x="0px" y="0px"
	 width="48px" height="48px" viewBox="0 0 48 48" enable-background="new 0 0 48 48" xml:space="preserve">
<path d="M46,6h-7h-7V1c0-0.6-0.4-1-1-1H15c-0.6,0-1,0.4-1,1v5H7H2C1.4,6,1,6.4,1,7c0,0.6,0.4,1,1,1h4v39c0,0.6,0.4,1,1,1h32
	c0.6,0,1-0.4,1-1V8h6c0.6,0,1-0.4,1-1C47,6.4,46.6,6,46,6z M16,37c0,0.6-0.4,1-1,1s-1-0.4-1-1V15c0-0.6,0.4-1,1-1s1,0.4,1,1V37z
	 M16,2h14v4H16V2z M24,37c0,0.6-0.4,1-1,1s-1-0.4-1-1V15c0-0.6,0.4-1,1-1s1,0.4,1,1V37z M32,37c0,0.6-0.4,1-1,1s-1-0.4-1-1V15
	c0-0.6,0.4-1,1-1s1,0.4,1,1V37z"/>
</svg>
