<?xml version="1.0" encoding="utf-8"?>
<!-- Generator: Adobe Illustrator 17.0.0, SVG Export Plug-In . SVG Version: 6.00 Build 0)  -->
<!DOCTYPE svg PUBLIC "-//W3C//DTD SVG 1.1//EN" "http://www.w3.org/Graphics/SVG/1.1/DTD/svg11.dtd">
<svg version="1.1" id="Layer_1" xmlns="http://www.w3.org/2000/svg" xmlns:xlink="http://www.w3.org/1999/xlink" x="0px" y="0px"
	 width="48px" height="48px" viewBox="0 0 48 48" enable-background="new 0 0 48 48" xml:space="preserve">
<path d="M48,47c0,0.6-0.4,1-1,1H1c-0.6,0-1-0.4-1-1c0-0.2,0-4.4,2.1-8.6c1.5-2.9,6.5-4.8,13.4-7.3c0.8-0.3,1.6-0.6,2.5-0.9v-4.8
	c-0.9-0.7-2.8-2.7-3-5.9c-0.5-0.4-0.8-1-1-1.9c-0.3-1.4-0.2-3.1,0.9-4.1c0-0.1-0.1-0.2-0.1-0.3c-0.7-2.2-1.9-6.4-0.2-8.7
	c0.6-0.8,1.6-1.3,2.7-1.5c1.2-2.1,5-2.9,8.1-2.9c4,0,8.9,1.2,9.6,4.7c0.6,2.8-0.9,6.4-1.6,8.4c-0.1,0.2-0.1,0.3-0.2,0.5
	c1,1,1.2,2.7,0.8,4.1c-0.2,0.9-0.6,1.5-1,1.9c-0.2,3.2-2.1,5.1-3,5.9v4.8c0.8,0.3,1.7,0.6,2.5,0.9c6.9,2.6,12,4.4,13.4,7.3
	C48,42.6,48,46.8,48,47z"/>
</svg>
