<?xml version="1.0" encoding="utf-8"?>
<!-- Generator: Adobe Illustrator 20.1.0, SVG Export Plug-In . SVG Version: 6.00 Build 0)  -->
<svg version="1.1" id="Layer_1" xmlns="http://www.w3.org/2000/svg" xmlns:xlink="http://www.w3.org/1999/xlink" x="0px" y="0px"
	 viewBox="0 0 48 48" style="enable-background:new 0 0 48 48;" xml:space="preserve">
<path d="M26,36c0,1.4,0.3,2.8,0.8,4H1c-0.3,0-0.5-0.1-0.7-0.3C0.1,39.5,0,39.3,0,39c0-0.2,0.1-5.5,1.1-8.4c0.8-2.3,4.5-3.5,9.2-5.1
	c1.2-0.4,2.5-0.8,3.8-1.3v-3.7c-1-0.7-2.8-2.3-3-5.9c-0.7-0.5-1.2-1.5-1.2-2.7c0-0.7,0.1-1.3,0.4-1.8c0.2-0.3,0.4-0.5,0.6-0.7
	C10.4,7.8,9.6,5.1,11,3.6c0.6-0.6,1.4-0.9,2.4-0.8c1.2-2,4.4-2.8,7.1-2.8h0c3,0,6.8,0.9,7.5,3.6c0.5,2.2-0.2,4.3-0.7,5.6
	c0.6,0.5,0.9,1.5,0.9,2.6c0,1.3-0.5,2.3-1.2,2.8c-0.2,3.5-2,5.2-3,5.9v3.7c1.2,0.5,2.5,0.9,3.8,1.3c1.5,0.5,2.9,1,4.1,1.4
	C28.4,28.5,26,31.9,26,36z M47.7,47.7C47.5,47.9,47.3,48,47,48s-0.5-0.1-0.7-0.3l-4-4l-1.4-1.4C39.5,43.4,37.8,44,36,44
	c-4.4,0-8-3.6-8-8c0-4.4,3.6-8,8-8s8,3.6,8,8c0,1.8-0.6,3.5-1.7,4.9l1.4,1.4l4,4C48.1,46.7,48.1,47.3,47.7,47.7z M42,36
	c0-3.3-2.7-6-6-6s-6,2.7-6,6s2.7,6,6,6S42,39.3,42,36z"/>
</svg>
