<?xml version="1.0" encoding="utf-8"?>
<!-- Generator: Adobe Illustrator 17.0.0, SVG Export Plug-In . SVG Version: 6.00 Build 0)  -->
<!DOCTYPE svg PUBLIC "-//W3C//DTD SVG 1.1//EN" "http://www.w3.org/Graphics/SVG/1.1/DTD/svg11.dtd">
<svg version="1.1" id="Layer_1" xmlns="http://www.w3.org/2000/svg" xmlns:xlink="http://www.w3.org/1999/xlink" x="0px" y="0px"
	 width="48px" height="48px" viewBox="0 0 48 48" enable-background="new 0 0 48 48" xml:space="preserve">
<path d="M20,1v46c0,0.6-0.4,1-0.9,1h-10C8.5,48,8,47.6,8,47V1c0-0.6,0.5-1,1.1-1h10C19.6,0,20,0.4,20,1z M39.1,0h-10
	C28.5,0,28,0.4,28,1v46c0,0.6,0.5,1,1.1,1h10c0.6,0,0.9-0.4,0.9-1V1C40,0.4,39.6,0,39.1,0z"/>
</svg>
