<?xml version="1.0" encoding="utf-8"?>
<!-- Generator: Adobe Illustrator 17.0.0, SVG Export Plug-In . SVG Version: 6.00 Build 0)  -->
<!DOCTYPE svg PUBLIC "-//W3C//DTD SVG 1.1//EN" "http://www.w3.org/Graphics/SVG/1.1/DTD/svg11.dtd">
<svg version="1.1" id="Layer_1" xmlns="http://www.w3.org/2000/svg" xmlns:xlink="http://www.w3.org/1999/xlink" x="0px" y="0px"
	 width="48px" height="48px" viewBox="0 0 48 48" enable-background="new 0 0 48 48" xml:space="preserve">
<path d="M32,13v22c0,1.7-1.3,3-3,3H3c-1.7,0-3-1.3-3-3V13c0-1.7,1.3-3,3-3h26C30.7,10,32,11.3,32,13z M47.5,12.1
	c-0.3-0.2-0.7-0.2-1,0l-12,6C34.2,18.3,34,18.6,34,19v10c0,0.4,0.2,0.7,0.6,0.9l12,6C46.7,36,46.8,36,47,36c0.2,0,0.4-0.1,0.5-0.2
	c0.3-0.2,0.5-0.5,0.5-0.8V13C48,12.7,47.8,12.3,47.5,12.1z"/>
</svg>
