<?xml version="1.0" encoding="utf-8"?>
<!-- Generator: Adobe Illustrator 17.0.0, SVG Export Plug-In . SVG Version: 6.00 Build 0)  -->
<!DOCTYPE svg PUBLIC "-//W3C//DTD SVG 1.1//EN" "http://www.w3.org/Graphics/SVG/1.1/DTD/svg11.dtd">
<svg version="1.1" id="Layer_1" xmlns="http://www.w3.org/2000/svg" xmlns:xlink="http://www.w3.org/1999/xlink" x="0px" y="0px"
	 width="48px" height="48px" viewBox="0 0 48 48" enable-background="new 0 0 48 48" xml:space="preserve">
<path d="M0,24c0-0.3,0.1-0.6,0.4-0.8l28-21c0.3-0.2,0.7-0.3,1-0.1C29.8,2.3,30,2.6,30,3v11.8L46.3,0.3C46.5,0.1,46.8,0,47,0
	c0.1,0,0.3,0,0.4,0.1C47.8,0.2,48,0.6,48,1v46c0,0.4-0.2,0.8-0.6,0.9c-0.4,0.2-0.8,0.1-1.1-0.2L30,33.2V45c0,0.4-0.2,0.7-0.6,0.9
	c-0.3,0.2-0.7,0.1-1-0.1l-28-21C0.1,24.6,0,24.3,0,24z"/>
</svg>
