<?xml version="1.0" encoding="utf-8"?>
<!-- Generator: Adobe Illustrator 20.1.0, SVG Export Plug-In . SVG Version: 6.00 Build 0)  -->
<svg version="1.1" id="Layer_1" xmlns="http://www.w3.org/2000/svg" xmlns:xlink="http://www.w3.org/1999/xlink" x="0px" y="0px"
	 viewBox="0 0 48 48" style="enable-background:new 0 0 48 48;" xml:space="preserve">
<path d="M22,1v20c0,0.6-0.4,1-1,1H1c-0.6,0-1-0.4-1-1V1c0-0.6,0.4-1,1-1h20C21.6,0,22,0.4,22,1z M47,0H27c-0.6,0-1,0.4-1,1v20
	c0,0.6,0.4,1,1,1h20c0.6,0,1-0.4,1-1V1C48,0.4,47.6,0,47,0z M21,26H1c-0.6,0-1,0.4-1,1v20c0,0.6,0.4,1,1,1h20c0.6,0,1-0.4,1-1V27
	C22,26.4,21.6,26,21,26z M47,26H27c-0.6,0-1,0.4-1,1v20c0,0.6,0.4,1,1,1h20c0.6,0,1-0.4,1-1V27C48,26.4,47.6,26,47,26z"/>
</svg>
