<?xml version="1.0" encoding="utf-8"?>
<!-- Generator: Adobe Illustrator 20.1.0, SVG Export Plug-In . SVG Version: 6.00 Build 0)  -->
<svg version="1.1" id="Layer_1" xmlns="http://www.w3.org/2000/svg" xmlns:xlink="http://www.w3.org/1999/xlink" x="0px" y="0px"
	 viewBox="0 0 48 48" style="enable-background:new 0 0 48 48;" xml:space="preserve">
<path d="M30,3v12c0,0.6-0.4,1-1,1H17c-0.6,0-1-0.4-1-1V3c0-0.6,0.4-1,1-1h12C29.6,2,30,2.4,30,3z M13,2H1C0.4,2,0,2.4,0,3v12
	c0,0.6,0.4,1,1,1h12c0.6,0,1-0.4,1-1V3C14,2.4,13.6,2,13,2z M45,2H33c-0.6,0-1,0.4-1,1v12c0,0.6,0.4,1,1,1h12c0.6,0,1-0.4,1-1V3
	C46,2.4,45.6,2,45,2z M29,18H17c-0.6,0-1,0.4-1,1v12c0,0.6,0.4,1,1,1h12c0.6,0,1-0.4,1-1V19C30,18.4,29.6,18,29,18z M13,18H1
	c-0.6,0-1,0.4-1,1v12c0,0.6,0.4,1,1,1h12c0.6,0,1-0.4,1-1V19C14,18.4,13.6,18,13,18z M45,18H33c-0.6,0-1,0.4-1,1v12c0,0.6,0.4,1,1,1
	h12c0.6,0,1-0.4,1-1V19C46,18.4,45.6,18,45,18z M29,34H17c-0.6,0-1,0.4-1,1v12c0,0.6,0.4,1,1,1h12c0.6,0,1-0.4,1-1V35
	C30,34.4,29.6,34,29,34z M13,34H1c-0.6,0-1,0.4-1,1v12c0,0.6,0.4,1,1,1h12c0.6,0,1-0.4,1-1V35C14,34.4,13.6,34,13,34z M45,34H33
	c-0.6,0-1,0.4-1,1v12c0,0.6,0.4,1,1,1h12c0.6,0,1-0.4,1-1V35C46,34.4,45.6,34,45,34z"/>
</svg>
