<?xml version="1.0" encoding="utf-8"?>
<!-- Generator: Adobe Illustrator 20.1.0, SVG Export Plug-In . SVG Version: 6.00 Build 0)  -->
<svg version="1.1" id="Layer_1" xmlns="http://www.w3.org/2000/svg" xmlns:xlink="http://www.w3.org/1999/xlink" x="0px" y="0px"
	 viewBox="0 0 48 48" style="enable-background:new 0 0 48 48;" xml:space="preserve">
<path d="M48,27.6c0,0.4-0.2,0.7-0.6,0.9c-1.9,0.9-4.2,1.4-6.4,1.6c0-1.8-0.5-3.5-1.5-5.1c-1.5-2.2-3.8-3.7-6.4-4
	c-1.6-2.9-4.3-5-7.3-6.2c0.2-1.8,0.5-3.1,0.5-3.2C27.9,4.8,33.9,0,41,0c2.2,0,4.4,0.5,6.4,1.5C47.8,1.6,48,2,48,2.4
	c0,0.4-0.2,0.7-0.6,0.9C42.9,5.4,40,10,40,15c0,5,2.9,9.6,7.4,11.7C47.8,26.9,48,27.2,48,27.6z M38.7,32c0.5-1.7,0.4-3.9-0.8-5.9
	c-1.2-1.9-3.2-3-5.4-3.2c-0.3,0-0.7-0.2-0.8-0.5c-2.1-4-6.3-6.5-10.6-6.5c-5.8,0-10.9,4.3-11.9,10.2C3.9,27,0,31.5,0,37
	c0,6.1,4.9,11,11,11h22c5,0,9-4,9-9C42,36.3,40.7,33.7,38.7,32z"/>
</svg>
