<?xml version="1.0" encoding="utf-8"?>
<!-- Generator: Adobe Illustrator 20.1.0, SVG Export Plug-In . SVG Version: 6.00 Build 0)  -->
<svg version="1.1" id="Layer_1" xmlns="http://www.w3.org/2000/svg" xmlns:xlink="http://www.w3.org/1999/xlink" x="0px" y="0px"
	 viewBox="0 0 48 48" style="enable-background:new 0 0 48 48;" xml:space="preserve">
<path d="M48,23.1c0,0.4-0.2,0.7-0.6,0.9c-0.8,0.4-1.7,0.6-2.5,0.9c-0.7,0.2-1.5,0.3-2.3,0.3c-0.4,0-1,0-1.7-0.1
	c0.2-2.1-0.2-4.2-1.4-6c-1.5-2.2-3.8-3.7-6.4-4c-0.9-1.6-2.1-3-3.6-4.1c0-0.4,0.1-0.7,0.1-1.1C30.9,4.2,36.1,0,42,0
	c1.9,0,3.7,0.4,5.4,1.2C47.8,1.4,48,1.8,48,2.1c0,0.4-0.2,0.7-0.6,0.9c-3.7,1.8-6.1,5.5-6.1,9.6c0,4.1,2.4,7.8,6.1,9.6
	C47.8,22.4,48,22.7,48,23.1z M35,46c-0.6,0-1,0.4-1,1s0.4,1,1,1c0.6,0,1-0.4,1-1S35.6,46,35,46z M23,43c-0.6,0-1,0.4-1,1s0.4,1,1,1
	c0.6,0,1-0.4,1-1S23.6,43,23,43z M31,43c-0.6,0-1,0.4-1,1s0.4,1,1,1c0.6,0,1-0.4,1-1S31.6,43,31,43z M27,46c-0.6,0-1,0.4-1,1
	s0.4,1,1,1c0.6,0,1-0.4,1-1S27.6,46,27,46z M19,46c-0.6,0-1,0.4-1,1s0.4,1,1,1c0.6,0,1-0.4,1-1S19.6,46,19,46z M15,43
	c-0.6,0-1,0.4-1,1s0.4,1,1,1c0.6,0,1-0.4,1-1S15.6,43,15,43z M11,46c-0.6,0-1,0.4-1,1s0.4,1,1,1c0.6,0,1-0.4,1-1S11.6,46,11,46z
	 M42,33c0,4.9-4,9-9,9H11C4.9,41.9,0,37,0,31c0-5.4,3.9-9.9,9.1-10.8C10,14.4,15.1,10,21,10c4.7,0,9,2.8,10.9,7c2.4,0,4.6,1.1,6,3.2
	c1.1,1.8,1.4,3.9,0.8,5.9C40.8,27.7,42,30.3,42,33z M12,40c0-0.6-0.4-1-1-1c-0.6,0-1,0.4-1,1s0.4,1,1,1C11.6,41,12,40.6,12,40z
	 M16,37c0-0.6-0.4-1-1-1c-0.6,0-1,0.4-1,1s0.4,1,1,1C15.6,38,16,37.6,16,37z M20,40c0-0.6-0.4-1-1-1c-0.6,0-1,0.4-1,1s0.4,1,1,1
	C19.6,41,20,40.6,20,40z M24,37c0-0.6-0.4-1-1-1c-0.6,0-1,0.4-1,1s0.4,1,1,1C23.6,38,24,37.6,24,37z M28,40c0-0.6-0.4-1-1-1
	c-0.6,0-1,0.4-1,1s0.4,1,1,1C27.6,41,28,40.6,28,40z M32,37c0-0.6-0.4-1-1-1c-0.6,0-1,0.4-1,1s0.4,1,1,1C31.6,38,32,37.6,32,37z
	 M36,40c0-0.6-0.4-1-1-1c-0.6,0-1,0.4-1,1s0.4,1,1,1C35.6,41,36,40.6,36,40z"/>
</svg>
