<?xml version="1.0" encoding="utf-8"?>
<!-- Generator: Adobe Illustrator 20.1.0, SVG Export Plug-In . SVG Version: 6.00 Build 0)  -->
<svg version="1.1" id="Layer_1" xmlns="http://www.w3.org/2000/svg" xmlns:xlink="http://www.w3.org/1999/xlink" x="0px" y="0px"
	 viewBox="0 0 48 48" style="enable-background:new 0 0 48 48;" xml:space="preserve">
<path d="M38,23c0,8.3-6.7,15-15,15S8,31.3,8,23c0-8.3,6.7-15,15-15S38,14.7,38,23z M23,40c-0.6,0-1,0.4-1,1v4c0,0.6,0.4,1,1,1
	s1-0.4,1-1v-4C24,40.4,23.6,40,23,40z M36.7,35.3c-0.4-0.4-1-0.4-1.4,0c-0.4,0.4-0.4,1,0,1.4l3,3c0.2,0.2,0.5,0.3,0.7,0.3
	s0.5-0.1,0.7-0.3c0.4-0.4,0.4-1,0-1.4L36.7,35.3z M45,22h-4c-0.6,0-1,0.4-1,1s0.4,1,1,1h4c0.6,0,1-0.4,1-1S45.6,22,45,22z M38.3,6.3
	l-3,3c-0.4,0.4-0.4,1,0,1.4c0.2,0.2,0.5,0.3,0.7,0.3s0.5-0.1,0.7-0.3l3-3c0.4-0.4,0.4-1,0-1.4C39.3,5.9,38.7,5.9,38.3,6.3z M23,6
	c0.6,0,1-0.4,1-1V1c0-0.6-0.4-1-1-1s-1,0.4-1,1v4C22,5.6,22.4,6,23,6z M9.3,10.7C9.5,10.9,9.7,11,10,11s0.5-0.1,0.7-0.3
	c0.4-0.4,0.4-1,0-1.4l-3-3c-0.4-0.4-1-0.4-1.4,0c-0.4,0.4-0.4,1,0,1.4L9.3,10.7z M5,22H1c-0.6,0-1,0.4-1,1s0.4,1,1,1h4
	c0.6,0,1-0.4,1-1S5.6,22,5,22z M9.3,35.3l-3,3c-0.4,0.4-0.4,1,0,1.4C6.5,39.9,6.7,40,7,40s0.5-0.1,0.7-0.3l3-3c0.4-0.4,0.4-1,0-1.4
	C10.3,34.9,9.7,34.9,9.3,35.3z"/>
</svg>
