<?xml version="1.0" encoding="utf-8"?>
<!-- Generator: Adobe Illustrator 17.0.0, SVG Export Plug-In . SVG Version: 6.00 Build 0)  -->
<!DOCTYPE svg PUBLIC "-//W3C//DTD SVG 1.1//EN" "http://www.w3.org/Graphics/SVG/1.1/DTD/svg11.dtd">
<svg version="1.1" id="Layer_1" xmlns="http://www.w3.org/2000/svg" xmlns:xlink="http://www.w3.org/1999/xlink" x="0px" y="0px"
	 width="48px" height="48px" viewBox="0 0 48 48" enable-background="new 0 0 48 48" xml:space="preserve">
<path d="M48,24c0,13.2-10.8,24-24,24C10.8,48,0,37.2,0,24C0,10.8,10.8,0,24,0c2.1,0,4.1,0.3,6.1,0.8C26.3,2,20.7,4.2,21,7.1
	c0.1,1.3,0.7,2.4,1.7,2.9c1,0.5,2.2,0.5,3.4,0c0.2,0.7,0.2,2.3,0,4c-0.5,0.1-1,0.2-1.6,0.3c-1.7,0.4-3.6,0.8-4.6,0.1
	c-0.1-0.3-0.3-0.7-0.7-1c-1-0.8-2.8-1-5.4-0.5C8.1,14.2,8,21.7,8,22c0,1.7,0.8,5,4,5c0.5,0,1.1,0,1.6-0.1c1.3-0.1,2.5-0.1,3,0.3
	c0.3,0.3,0.5,0.9,0.5,1.7c0,0.3,0.1,0.5,0.3,0.7c0.8,0.8,1.7,2,1.7,2.3c0,0.3-0.2,0.7-0.4,1.1C18.3,33.6,18,34.3,18,35c0,1,2,6,4,6
	c4.2,0,6.7-1.9,7-5.3c0.7-0.3,1.7-0.9,2.7-2c0.5-0.5,0.8-1.1,0.8-1.7c0-0.9-0.7-1.4-1.1-1.8c-0.1-0.1-0.2-0.1-0.2-0.2
	c0.2-0.3,0.7-0.7,1-1.1c1.9-2,5-5.2,2.6-7.6c-0.3-0.3-0.8-0.4-1.2-0.2c-0.4,0.2-1.2,0.4-1.7,0.3c-0.5-1.9-1-2.9-1.5-3.5
	c1.1-0.6,3.2-1.4,5.3-0.9c0.2,0.1,0.5,0,0.7-0.1c3-1.5,4.9-5.8,5.8-8.4C45.8,12.7,48,18.1,48,24z"/>
</svg>
