<?xml version="1.0" encoding="utf-8"?>
<!-- Generator: Adobe Illustrator 17.0.0, SVG Export Plug-In . SVG Version: 6.00 Build 0)  -->
<!DOCTYPE svg PUBLIC "-//W3C//DTD SVG 1.1//EN" "http://www.w3.org/Graphics/SVG/1.1/DTD/svg11.dtd">
<svg version="1.1" id="Layer_1" xmlns="http://www.w3.org/2000/svg" xmlns:xlink="http://www.w3.org/1999/xlink" x="0px" y="0px"
	 width="48px" height="48px" viewBox="0 0 48 48" enable-background="new 0 0 48 48" xml:space="preserve">
<path d="M43,18h-9.6l-9.7-9.7C23.5,8.1,23.3,8,23,8h-8c-0.4,0-0.8,0.2-0.9,0.6C13.9,9,14,9.4,14.3,9.7l8.3,8.3h-9.2l-3.7-3.7
	C9.5,14.1,9.3,14,9,14H1c-0.3,0-0.7,0.2-0.9,0.5c-0.2,0.3-0.2,0.7,0,1l6,12C6.3,27.8,6.6,28,7,28h13.6L10.3,38.3
	c-0.3,0.3-0.4,0.7-0.2,1.1S10.6,40,11,40h10c0.3,0,0.5-0.1,0.7-0.3L33.4,28H43c2.8,0,5-2.2,5-5S45.8,18,43,18z M17.4,10h5.2l8,8
	h-5.2L17.4,10z M43,26H33c-0.3,0-0.5,0.1-0.7,0.3L20.6,38h-7.2l10.3-10.3c0.3-0.3,0.4-0.7,0.2-1.1S23.4,26,23,26H7.6l-5-10h6
	l3.7,3.7c0.2,0.2,0.4,0.3,0.7,0.3h30c1.7,0,3,1.3,3,3S44.7,26,43,26z"/>
</svg>
