<?xml version="1.0" encoding="utf-8"?>
<!-- Generator: Adobe Illustrator 17.0.0, SVG Export Plug-In . SVG Version: 6.00 Build 0)  -->
<!DOCTYPE svg PUBLIC "-//W3C//DTD SVG 1.1//EN" "http://www.w3.org/Graphics/SVG/1.1/DTD/svg11.dtd">
<svg version="1.1" id="Layer_1" xmlns="http://www.w3.org/2000/svg" xmlns:xlink="http://www.w3.org/1999/xlink" x="0px" y="0px"
	 width="48px" height="48px" viewBox="0 0 48 48" enable-background="new 0 0 48 48" xml:space="preserve">
<path d="M12,12c-0.6,0-1-0.4-1-1s0.4-1,1-1h24c0.6,0,1,0.4,1,1s-0.4,1-1,1H12z M6,17c0,0.6,0.4,1,1,1h34c0.6,0,1-0.4,1-1s-0.4-1-1-1
	H7C6.4,16,6,16.4,6,17z M1,24h46c0.6,0,1-0.4,1-1s-0.4-1-1-1H1c-0.6,0-1,0.4-1,1S0.4,24,1,24z M5,6h38c0.6,0,1-0.4,1-1s-0.4-1-1-1H5
	C4.4,4,4,4.4,4,5S4.4,6,5,6z M8,41c0,0.6,0.4,1,1,1h30c0.6,0,1-0.4,1-1s-0.4-1-1-1H9C8.4,40,8,40.4,8,41z M39,28H9c-0.6,0-1,0.4-1,1
	s0.4,1,1,1h30c0.6,0,1-0.4,1-1S39.6,28,39,28z M47,46H1c-0.6,0-1,0.4-1,1s0.4,1,1,1h46c0.6,0,1-0.4,1-1S47.6,46,47,46z M34,36
	c0.6,0,1-0.4,1-1s-0.4-1-1-1H14c-0.6,0-1,0.4-1,1s0.4,1,1,1H34z"/>
</svg>
