<?xml version="1.0" encoding="utf-8"?>
<!-- Generator: Adobe Illustrator 17.0.0, SVG Export Plug-In . SVG Version: 6.00 Build 0)  -->
<!DOCTYPE svg PUBLIC "-//W3C//DTD SVG 1.1//EN" "http://www.w3.org/Graphics/SVG/1.1/DTD/svg11.dtd">
<svg version="1.1" id="Layer_1" xmlns="http://www.w3.org/2000/svg" xmlns:xlink="http://www.w3.org/1999/xlink" x="0px" y="0px"
	 width="48px" height="48px" viewBox="0 0 48 48" enable-background="new 0 0 48 48" xml:space="preserve">
<path d="M41.7,33.7l-8,8c-0.1,0.1-0.2,0.2-0.3,0.2C33.3,42,33.1,42,33,42s-0.3,0-0.4-0.1c-0.1-0.1-0.2-0.1-0.3-0.2l-8-8
	c-0.4-0.4-0.4-1,0-1.4s1-0.4,1.4,0l6.3,6.3V7c0-0.6,0.4-1,1-1s1,0.4,1,1v31.6l6.3-6.3c0.4-0.4,1-0.4,1.4,0S42.1,33.3,41.7,33.7z
	 M23.7,14.3l-8-8c-0.1-0.1-0.2-0.2-0.3-0.2c-0.2-0.1-0.5-0.1-0.8,0c-0.1,0.1-0.2,0.1-0.3,0.2l-8,8c-0.4,0.4-0.4,1,0,1.4s1,0.4,1.4,0
	L14,9.4V41c0,0.6,0.4,1,1,1s1-0.4,1-1V9.4l6.3,6.3c0.2,0.2,0.5,0.3,0.7,0.3s0.5-0.1,0.7-0.3C24.1,15.3,24.1,14.7,23.7,14.3z"/>
</svg>
