<?xml version="1.0" encoding="utf-8"?>
<!-- Generator: Adobe Illustrator 20.1.0, SVG Export Plug-In . SVG Version: 6.00 Build 0)  -->
<svg version="1.1" id="Layer_1" xmlns="http://www.w3.org/2000/svg" xmlns:xlink="http://www.w3.org/1999/xlink" x="0px" y="0px"
	 viewBox="0 0 48 48" style="enable-background:new 0 0 48 48;" xml:space="preserve">
<path d="M44,5v12c0,0.6-0.4,1-1,1s-1-0.4-1-1V7.4L4.9,44.6c-0.2,0.2-0.5,0.3-0.7,0.3s-0.5-0.1-0.7-0.3c-0.4-0.4-0.4-1,0-1.4L40.6,6
	h-9.5c-0.6,0-1-0.4-1-1s0.4-1,1-1H43c0.1,0,0.3,0,0.4,0.1c0.2,0.1,0.4,0.3,0.5,0.5C44,4.7,44,4.9,44,5z M43,32.1c-0.6,0-1,0.4-1,1
	v9.5L27.7,28.3c-0.4-0.4-1-0.4-1.4,0s-0.4,1,0,1.4L40.6,44H31c-0.6,0-1,0.4-1,1s0.4,1,1,1h11.9c0,0,0.1,0,0.1,0
	c0.3,0,0.5-0.1,0.7-0.3c0.2-0.2,0.3-0.5,0.3-0.7c0,0,0,0,0,0V33.1C44,32.5,43.6,32.1,43,32.1z M18.3,21.7c0.2,0.2,0.5,0.3,0.7,0.3
	s0.5-0.1,0.7-0.3c0.4-0.4,0.4-1,0-1.4L4.9,5.4C4.5,5,3.8,5,3.4,5.4s-0.4,1,0,1.4L18.3,21.7z"/>
</svg>
