<?xml version="1.0" encoding="utf-8"?>
<!-- Generator: Adobe Illustrator 20.1.0, SVG Export Plug-In . SVG Version: 6.00 Build 0)  -->
<svg version="1.1" id="Layer_1" xmlns="http://www.w3.org/2000/svg" xmlns:xlink="http://www.w3.org/1999/xlink" x="0px" y="0px"
	 viewBox="0 0 48 48" style="enable-background:new 0 0 48 48;" xml:space="preserve">
<path d="M30.3,11.7c-0.3,0-0.5,0.1-0.7,0.3l-13,13.3c-0.1,0.1-0.1,0.2-0.2,0.3c0,0,0,0.1,0,0.1c0,0,0,0.1,0,0.1l-1.3,7
	c-0.1,0.3,0,0.7,0.3,0.9c0.2,0.2,0.4,0.3,0.7,0.3c0.1,0,0.1,0,0.2,0l7-1.3c0,0,0.1,0,0.1,0c0,0,0.1,0,0.1,0c0.1,0,0.2-0.1,0.3-0.2
	c0,0,0,0,0,0c0,0,0,0,0,0c0,0,0,0,0,0l13-13.3c0.4-0.4,0.4-1,0-1.4L31.1,12C30.9,11.8,30.6,11.7,30.3,11.7z M23,30.2L18.8,26
	l8.3-8.5l4.2,4.2L23,30.2z M18,28l3,3l-3.7,0.7L18,28z M32.7,20.3l-4.2-4.2l1.9-1.9l4.2,4.2L32.7,20.3z M14.6,22l-6.4,7.7
	C8,29.9,7.7,30,7.4,30c0,0,0,0-0.1,0c-0.3,0-0.6-0.2-0.8-0.4L1,21.3c-0.3-0.5-0.2-1.1,0.3-1.4c0.5-0.3,1.1-0.2,1.4,0.3l3.2,4.8
	c-0.1-3.3,0.8-6.7,2.6-9.7c2.6-4.4,6.9-7.6,11.8-8.8c6.5-1.5,13.2,0.6,17.6,5.6c0.4,0.4,0.3,1-0.1,1.4c-0.4,0.4-1,0.3-1.4-0.1
	c-3.9-4.4-9.9-6.3-15.7-5c-4.4,1-8.2,3.9-10.6,7.8C8.3,19.5,7.5,23.1,8,26.7l5-6c0.4-0.4,1-0.5,1.4-0.1C14.9,20.9,15,21.6,14.6,22z
	 M47.6,30.1c-0.2,0.1-0.4,0.2-0.6,0.2c-0.3,0-0.6-0.2-0.8-0.4l-3.6-5.3c-0.3,7.8-6,15-14,16.9c-1.4,0.3-2.8,0.5-4.2,0.5
	c-4.7,0-9.2-1.8-12.6-5.2c-0.4-0.4-0.4-1,0-1.4c0.4-0.4,1-0.4,1.4,0c4,3.9,9.5,5.5,14.9,4.2c7.4-1.7,12.7-8.8,12.5-16l-4.8,5.8
	c-0.4,0.4-1,0.5-1.4,0.1c-0.4-0.4-0.5-1-0.1-1.4l6.3-7.5c0,0,0,0,0,0l0.1-0.1c0,0,0.1,0,0.1-0.1c0,0,0,0,0.1-0.1
	c0.2-0.1,0.4-0.2,0.6-0.2c0.3,0,0.6,0.2,0.8,0.4l5.6,8.3C48.1,29.2,48,29.8,47.6,30.1z"/>
</svg>
