<?xml version="1.0" encoding="utf-8"?>
<!-- Generator: Adobe Illustrator 17.0.0, SVG Export Plug-In . SVG Version: 6.00 Build 0)  -->
<!DOCTYPE svg PUBLIC "-//W3C//DTD SVG 1.1//EN" "http://www.w3.org/Graphics/SVG/1.1/DTD/svg11.dtd">
<svg version="1.1" id="Layer_1" xmlns="http://www.w3.org/2000/svg" xmlns:xlink="http://www.w3.org/1999/xlink" x="0px" y="0px"
	 width="48px" height="48px" viewBox="0 0 48 48" enable-background="new 0 0 48 48" xml:space="preserve">
<path d="M47.7,26.8C47.5,26.9,47.2,27,47,27c-0.3,0-0.6-0.1-0.8-0.3L26,3.7V47c0,0.6-0.4,1-1,1c-0.6,0-1-0.4-1-1V3.7l-20.2,23
	c-0.4,0.4-1,0.5-1.4,0.1c-0.4-0.4-0.5-1-0.1-1.4l22-25c0,0,0,0,0,0C24.5,0.1,24.7,0,25,0c0.3,0,0.5,0.1,0.7,0.3c0,0,0,0,0,0l22,25
	C48.1,25.8,48.1,26.4,47.7,26.8z"/>
</svg>
