<?xml version="1.0" encoding="utf-8"?>
<!-- Generator: Adobe Illustrator 20.1.0, SVG Export Plug-In . SVG Version: 6.00 Build 0)  -->
<svg version="1.1" id="Layer_1" xmlns="http://www.w3.org/2000/svg" xmlns:xlink="http://www.w3.org/1999/xlink" x="0px" y="0px"
	 viewBox="0 0 48 48" style="enable-background:new 0 0 48 48;" xml:space="preserve">
<path d="M14.3,41.7l-8-8c-0.1-0.1-0.2-0.2-0.2-0.3C6,33.3,6,33.1,6,33s0-0.3,0.1-0.4c0.1-0.1,0.1-0.2,0.2-0.3l8-8
	c0.4-0.4,1-0.4,1.4,0s0.4,1,0,1.4L9.4,32H41c0.6,0,1,0.4,1,1s-0.4,1-1,1H9.4l6.3,6.3c0.4,0.4,0.4,1,0,1.4
	C15.3,42.1,14.7,42.1,14.3,41.7z M33.7,23.7l8-8c0.1-0.1,0.2-0.2,0.2-0.3c0.1-0.2,0.1-0.5,0-0.8c-0.1-0.1-0.1-0.2-0.2-0.3l-8-8
	c-0.4-0.4-1-0.4-1.4,0c-0.4,0.4-0.4,1,0,1.4l6.3,6.3H7c-0.6,0-1,0.4-1,1s0.4,1,1,1h31.6l-6.3,6.3C32.1,22.5,32,22.8,32,23
	s0.1,0.5,0.3,0.7C32.7,24.1,33.3,24.1,33.7,23.7z"/>
</svg>
