<?xml version="1.0" encoding="utf-8"?>
<!-- Generator: Adobe Illustrator 17.0.0, SVG Export Plug-In . SVG Version: 6.00 Build 0)  -->
<!DOCTYPE svg PUBLIC "-//W3C//DTD SVG 1.1//EN" "http://www.w3.org/Graphics/SVG/1.1/DTD/svg11.dtd">
<svg version="1.1" id="Layer_1" xmlns="http://www.w3.org/2000/svg" xmlns:xlink="http://www.w3.org/1999/xlink" x="0px" y="0px"
	 width="48px" height="48px" viewBox="0 0 48 48" enable-background="new 0 0 48 48" xml:space="preserve">
<path d="M36.2,36.3c0.4,0.4,0.4,1,0,1.4l-10,10c-0.1,0.1-0.2,0.2-0.3,0.2C25.8,48,25.6,48,25.5,48c-0.1,0-0.3,0-0.4-0.1
	c-0.1-0.1-0.2-0.1-0.3-0.2l-10-10c-0.4-0.4-0.4-1,0-1.4s1-0.4,1.4,0l8.3,8.3V3.4l-8.3,8.3c-0.4,0.4-1,0.4-1.4,0s-0.4-1,0-1.4l10-10
	c0.1-0.1,0.2-0.2,0.3-0.2c0.2-0.1,0.5-0.1,0.8,0c0.1,0.1,0.2,0.1,0.3,0.2l10,10c0.4,0.4,0.4,1,0,1.4C36,11.9,35.8,12,35.5,12
	s-0.5-0.1-0.7-0.3l-8.3-8.3v41.2l8.3-8.3C35.2,35.9,35.8,35.9,36.2,36.3z"/>
</svg>
