<?xml version="1.0" encoding="utf-8"?>
<!-- Generator: Adobe Illustrator 19.2.1, SVG Export Plug-In . SVG Version: 6.00 Build 0)  -->
<!DOCTYPE svg PUBLIC "-//W3C//DTD SVG 1.1//EN" "http://www.w3.org/Graphics/SVG/1.1/DTD/svg11.dtd">
<svg version="1.1" id="Layer_1" xmlns="http://www.w3.org/2000/svg" xmlns:xlink="http://www.w3.org/1999/xlink" x="0px" y="0px"
	 viewBox="0 0 48 48" enable-background="new 0 0 48 48" xml:space="preserve">
<path d="M36,24h-1v-3c0-0.6-0.4-1-1-1h-0.6l2.6-6.8c0.7-0.1,1.4-0.4,1.9-0.9c1.6-1.4,2.3-4,1.7-6.6c-0.7-2.9-2.7-4.9-5.6-5.6
	c-0.4-0.1-0.8,0.1-1.1,0.4c-0.2,0.3-0.2,0.8,0,1.1c1.1,1.6,0.4,2.6-0.7,4c-0.4,0.5-0.8,1.1-1.1,1.6c-0.5,1.1-0.5,2.3-0.1,3.3
	c0.2,0.5,0.5,0.9,0.9,1.3L27.4,20H27V1c0-0.6-0.4-1-1-1h-8c-0.6,0-1,0.4-1,1v19h-0.4l-4.7-8.5c0,0,0,0-0.1-0.1c0,0,0,0,0,0
	c0,0,0,0,0,0c-0.1-0.1-0.2-0.2-0.3-0.2l-5-3C6.2,7.9,5.8,8,5.4,8.2C5.1,8.4,4.9,8.8,5,9.2l1,6c0,0,0,0,0,0c0,0,0,0.1,0,0.1
	c0,0,0,0.1,0,0.1L8.4,20H8c-0.6,0-1,0.4-1,1v22c0,2.8,2.2,5,5,5h18c2.8,0,5-2.2,5-5v-5h1c3.9,0,7-3.1,7-7S39.9,24,36,24z M33,8.1
	c0.1-0.3,0.5-0.7,0.8-1.2c0.8-1,1.8-2.3,1.7-4c1.1,0.8,1.9,1.9,2.2,3.3c0.4,1.8,0,3.7-1,4.6c-0.6,0.5-1.5,0.6-2.4,0.2
	c-0.6-0.3-1.1-0.7-1.3-1.2C32.7,9.3,32.7,8.7,33,8.1z M33.6,12.9c0.1,0,0.2,0.1,0.3,0.1l-2.6,7h-1.6L33.6,12.9z M19,2h6v2h-3
	c-0.6,0-1,0.4-1,1s0.4,1,1,1h3v2h-1c-0.6,0-1,0.4-1,1s0.4,1,1,1h1v2h-3c-0.6,0-1,0.4-1,1s0.4,1,1,1h3v2h-1c-0.6,0-1,0.4-1,1
	s0.4,1,1,1h1v2h-6V2z M9.2,12.1l-1.5,1.1L7.3,11L9.2,12.1z M8.3,15.3l2.4-1.8l3.6,6.5h-3.7L8.3,15.3z M33,43c0,1.7-1.3,3-3,3H12
	c-1.7,0-3-1.3-3-3V22h1h6h2h8h6c0,0,0,0,0,0c0,0,0,0,0,0h1V43z M36,36h-1V26h1c2.8,0,5,2.2,5,5S38.8,36,36,36z"/>
</svg>
