<?xml version="1.0" encoding="utf-8"?>
<!-- Generator: Adobe Illustrator 17.0.0, SVG Export Plug-In . SVG Version: 6.00 Build 0)  -->
<!DOCTYPE svg PUBLIC "-//W3C//DTD SVG 1.1//EN" "http://www.w3.org/Graphics/SVG/1.1/DTD/svg11.dtd">
<svg version="1.1" id="Layer_1" xmlns="http://www.w3.org/2000/svg" xmlns:xlink="http://www.w3.org/1999/xlink" x="0px" y="0px"
	 width="48px" height="48px" viewBox="0 0 48 48" enable-background="new 0 0 48 48" xml:space="preserve">
<path d="M0,24c0,13.2,10.8,24,24,24s24-10.8,24-24S37.2,0,24,0C10.8,0,0,10.8,0,24z M40.2,38.8l-31-31C13.1,4.2,18.3,2,24,2
	c12.1,0,22,9.9,22,22C46,29.7,43.8,34.9,40.2,38.8z M2,24c0-5.7,2.2-10.9,5.8-14.8l31,31C34.9,43.8,29.7,46,24,46
	C11.9,46,2,36.1,2,24z"/>
</svg>
