<?xml version="1.0" encoding="utf-8"?>
<!-- Generator: Adobe Illustrator 17.0.0, SVG Export Plug-In . SVG Version: 6.00 Build 0)  -->
<!DOCTYPE svg PUBLIC "-//W3C//DTD SVG 1.1//EN" "http://www.w3.org/Graphics/SVG/1.1/DTD/svg11.dtd">
<svg version="1.1" id="Layer_1" xmlns="http://www.w3.org/2000/svg" xmlns:xlink="http://www.w3.org/1999/xlink" x="0px" y="0px"
	 width="48px" height="48px" viewBox="0 0 48 48" enable-background="new 0 0 48 48" xml:space="preserve">
<path d="M39.4,30.4l-3.9-9.8c-0.2-0.4-0.5-0.6-0.9-0.6h-22c-0.4,0-0.8,0.2-0.9,0.6l-3.9,9.8l-3.9,3.9c-0.2,0.2-0.3,0.4-0.3,0.7v8
	c0,0.6,0.4,1,1,1h1v3c0,0.6,0.4,1,1,1h6c0.6,0,1-0.4,1-1v-3h20v3c0,0.6,0.4,1,1,1h6c0.6,0,1-0.4,1-1v-3h1c0.6,0,1-0.4,1-1v-8
	c0-0.3-0.1-0.5-0.3-0.7L39.4,30.4z M13.2,22h20.6l3.2,8H10L13.2,22z M11.5,46h-4v-2h4V46z M39.5,46h-4v-2h4V46z M40.5,42h-6h-22h-6
	h-1v-2h8c0.6,0,1-0.4,1-1s-0.4-1-1-1h-8v-2.6L8.9,32h29.2l3.4,3.4V38h-8c-0.6,0-1,0.4-1,1s0.4,1,1,1h8v2H40.5z M9.5,5
	c-2.2,0-4,1.8-4,4s1.8,4,4,4s4-1.8,4-4S11.7,5,9.5,5z M9.5,11c-1.1,0-2-0.9-2-2s0.9-2,2-2s2,0.9,2,2S10.6,11,9.5,11z M44.5,6H18
	c-1.2-3.6-4.6-6-8.5-6c-5,0-9,4-9,9s4,9,9,9c3.8,0,7.2-2.4,8.5-6h9.5v3c0,0.6,0.4,1,1,1h4c0.6,0,1-0.4,1-1v-3h2v3c0,0.6,0.4,1,1,1h4
	c0.6,0,1-0.4,1-1v-3h3c1.7,0,3-1.3,3-3S46.2,6,44.5,6z M44.5,10h-4c-0.6,0-1,0.4-1,1v3h-2v-3c0-0.6-0.4-1-1-1h-4c-0.6,0-1,0.4-1,1v3
	h-2v-3c0-0.6-0.4-1-1-1H17.2c-0.5,0-0.9,0.3-1,0.8c-0.8,3.1-3.6,5.3-6.8,5.3c-3.9,0-7-3.1-7-7s3.1-7,7-7c3.2,0,6,2.1,6.8,5.2
	c0.1,0.4,0.5,0.8,1,0.8h27.2c0.6,0,1,0.4,1,1S45.1,10,44.5,10z"/>
</svg>
