<?xml version="1.0" encoding="utf-8"?>
<!-- Generator: Adobe Illustrator 17.0.0, SVG Export Plug-In . SVG Version: 6.00 Build 0)  -->
<!DOCTYPE svg PUBLIC "-//W3C//DTD SVG 1.1//EN" "http://www.w3.org/Graphics/SVG/1.1/DTD/svg11.dtd">
<svg version="1.1" id="Layer_1" xmlns="http://www.w3.org/2000/svg" xmlns:xlink="http://www.w3.org/1999/xlink" x="0px" y="0px"
	 width="48px" height="48px" viewBox="0 0 48 48" enable-background="new 0 0 48 48" xml:space="preserve">
<path d="M33.3,17.6c0.4,0.4,0.4,1,0,1.4L18.9,32.4c-0.2,0.2-0.4,0.3-0.7,0.3c-0.3,0-0.5-0.1-0.7-0.3l-4.8-4.8c-0.4-0.4-0.4-1,0-1.4
	s1-0.4,1.4,0l4.1,4.1l13.6-12.7C32.3,17.2,32.9,17.2,33.3,17.6z M46,25c0,12.7-10.3,23-23,23C10.3,48,0,37.7,0,25
	C0,12.3,10.3,2,23,2C35.7,2,46,12.3,46,25z M44,25c0-11.6-9.4-21-21-21C11.4,4,2,13.4,2,25c0,11.6,9.4,21,21,21
	C34.6,46,44,36.6,44,25z"/>
</svg>
