<?xml version="1.0" encoding="utf-8"?>
<!-- Generator: Adobe Illustrator 20.1.0, SVG Export Plug-In . SVG Version: 6.00 Build 0)  -->
<svg version="1.1" id="Layer_1" xmlns="http://www.w3.org/2000/svg" xmlns:xlink="http://www.w3.org/1999/xlink" x="0px" y="0px"
	 viewBox="0 0 48 48" style="enable-background:new 0 0 48 48;" xml:space="preserve">
<path d="M34.9,4.8C32.1,1.7,28.1,0,24,0c-4.1,0-8.1,1.7-10.9,4.8c-2.8,3-4.2,7.1-3.8,11.2c0,0,0,0,0,0l1.7,20.1
	C11.6,42.9,17.2,48,24,48c6.8,0,12.4-5.1,12.9-11.9l1-11.7c0-0.1,0-0.2,0-0.2l0.7-8.2C39.1,11.9,37.7,7.8,34.9,4.8z M35,36
	c0,0.3-0.1,0.6-0.1,0.9l-13.7-4.7l14.7-6.3L35,36z M14.6,6.1C17,3.5,20.4,2,24,2c3.6,0,7,1.5,9.4,4.1c2.4,2.6,3.6,6.2,3.3,9.7
	L36,23.6l-17.7,7.6l-5.9-2l-1.2-13.3v0C11,12.3,12.2,8.8,14.6,6.1z M24,46c-5.7,0-10.5-4.3-11-10l-0.4-4.6l5.4,1.8c0,0,0.1,0,0.1,0
	l16.2,5.5C32.8,43,28.8,46,24,46z M24.1,26c6.3,0,11-4.6,11-10.7C35.1,9,30.1,4,24.1,4s-11,5-11,11.3C13.1,21.4,17.8,26,24.1,26z
	 M24.1,6c5,0,9,4.2,9,9.3c0,5-3.9,8.7-9,8.7s-9-3.8-9-8.7C15.1,10.2,19.1,6,24.1,6z M24,17c1.1,0,2,0.9,2,2c0,1.1-0.9,2-2,2
	c-1.1,0-2-0.9-2-2C22,17.9,22.9,17,24,17z M18,14.1c-0.6,0-1-0.4-1-1c0-1.7,1.3-3.1,3-3.1s3,1.4,3,3.1c0,0.6-0.4,1-1,1s-1-0.4-1-1
	c0-0.6-0.4-1.1-1-1.1s-1,0.5-1,1.1C19,13.6,18.6,14.1,18,14.1z M25,13.1c0-1.7,1.3-3.1,3-3.1s3,1.4,3,3.1c0,0.6-0.4,1-1,1
	s-1-0.4-1-1c0-0.6-0.4-1.1-1-1.1s-1,0.5-1,1.1c0,0.6-0.4,1-1,1S25,13.6,25,13.1z"/>
</svg>
