<?xml version="1.0" encoding="utf-8"?>
<!-- Generator: Adobe Illustrator 20.1.0, SVG Export Plug-In . SVG Version: 6.00 Build 0)  -->
<svg version="1.1" id="Layer_1" xmlns="http://www.w3.org/2000/svg" xmlns:xlink="http://www.w3.org/1999/xlink" x="0px" y="0px"
	 viewBox="0 0 48 48" style="enable-background:new 0 0 48 48;" xml:space="preserve">
<path d="M23,2C10.3,2,0,12.3,0,25c0,12.7,10.3,23,23,23c12.7,0,23-10.3,23-23C46,12.3,35.7,2,23,2z M23,46C11.4,46,2,36.6,2,25
	C2,13.4,11.4,4,23,4c11.6,0,21,9.4,21,21C44,36.6,34.6,46,23,46z M32.2,17.2L24.4,25l7.8,7.8c0.4,0.4,0.4,1,0,1.4
	c-0.2,0.2-0.5,0.3-0.7,0.3s-0.5-0.1-0.7-0.3L23,26.4l-7.8,7.8c-0.2,0.2-0.5,0.3-0.7,0.3s-0.5-0.1-0.7-0.3c-0.4-0.4-0.4-1,0-1.4
	l7.8-7.8l-7.8-7.8c-0.4-0.4-0.4-1,0-1.4s1-0.4,1.4,0l7.8,7.8l7.8-7.8c0.4-0.4,1-0.4,1.4,0S32.6,16.8,32.2,17.2z"/>
</svg>
