<?xml version="1.0" encoding="utf-8"?>
<!-- Generator: Adobe Illustrator 17.0.0, SVG Export Plug-In . SVG Version: 6.00 Build 0)  -->
<!DOCTYPE svg PUBLIC "-//W3C//DTD SVG 1.1//EN" "http://www.w3.org/Graphics/SVG/1.1/DTD/svg11.dtd">
<svg version="1.1" id="Layer_1" xmlns="http://www.w3.org/2000/svg" xmlns:xlink="http://www.w3.org/1999/xlink" x="0px" y="0px"
	 width="48px" height="48px" viewBox="0 0 48 48" enable-background="new 0 0 48 48" xml:space="preserve">
<path d="M47,40H27.7c4.9-2.7,8.3-8,8.3-14h4c4,0,7-3.4,7-8s-3-8-7-8h-4V9c0-0.6-0.4-1-1-1H5C4.4,8,4,8.4,4,9v17c0,6,3.3,11.3,8.3,14
	H1c-0.6,0-1,0.4-1,1s0.4,1,1,1h46c0.6,0,1-0.4,1-1S47.6,40,47,40z M40,12c3.2,0,5,3.1,5,6s-1.8,6-5,6h-4V12H40z M6,26V10h28v16
	c0,7.7-6.3,14-14,14S6,33.7,6,26z"/>
</svg>
