<?xml version="1.0" encoding="utf-8"?>
<!-- Generator: Adobe Illustrator 17.0.0, SVG Export Plug-In . SVG Version: 6.00 Build 0)  -->
<!DOCTYPE svg PUBLIC "-//W3C//DTD SVG 1.1//EN" "http://www.w3.org/Graphics/SVG/1.1/DTD/svg11.dtd">
<svg version="1.1" id="Layer_1" xmlns="http://www.w3.org/2000/svg" xmlns:xlink="http://www.w3.org/1999/xlink" x="0px" y="0px"
	 width="48px" height="48px" viewBox="0 0 48 48" enable-background="new 0 0 48 48" xml:space="preserve">
<path d="M47,20h-5.7c-0.4-1.6-0.9-3.3-1.6-4.7l4.1-4.1c0.2-0.2,0.3-0.4,0.3-0.7S44,10,43.8,9.9l-5.7-5.7c-0.4-0.4-1-0.4-1.4,0
	l-4.1,4.1c-1.3-0.6-3.1-1.2-4.7-1.6V1c0-0.6-0.4-1-1-1h-6c-0.6,0-1,0.4-1,1v5.7c-1.6,0.4-3.3,0.9-4.7,1.6l-4.1-4.1
	c-0.4-0.4-1-0.4-1.4,0L4.2,9.9C4,10,3.9,10.3,3.9,10.6s0.1,0.5,0.3,0.7l4.1,4.1c-0.6,1.3-1.2,3.1-1.6,4.7H1c-0.6,0-1,0.4-1,1v6
	c0,0.6,0.4,1,1,1h5.7c0.4,1.6,0.9,3.3,1.6,4.7l-4.1,4.1c-0.2,0.2-0.3,0.4-0.3,0.7S4,38,4.2,38.1l5.7,5.7c0.4,0.4,1,0.4,1.4,0
	l4.1-4.1c1.3,0.6,3.1,1.2,4.7,1.6V47c0,0.6,0.4,1,1,1h6c0.6,0,1-0.4,1-1v-5.7c1.6-0.4,3.3-0.9,4.7-1.6l4.1,4.1c0.4,0.4,1,0.4,1.4,0
	l5.7-5.7c0.4-0.4,0.4-1,0-1.4l-4.1-4.1c0.6-1.3,1.2-3.1,1.6-4.7H47c0.6,0,1-0.4,1-1v-6C48,20.4,47.6,20,47,20z M46,26h-5.5
	c-0.5,0-0.9,0.3-1,0.8c-0.3,1.1-1,4.1-1.9,5.6c-0.2,0.4-0.2,0.9,0.1,1.2l3.9,3.9l-4.2,4.2l-3.9-3.9c-0.3-0.3-0.8-0.4-1.2-0.1
	c-1.5,0.9-4.4,1.6-5.6,1.9c-0.4,0.1-0.8,0.5-0.8,1V46h-4v-5.5c0-0.5-0.3-0.9-0.8-1c-1.1-0.3-4.1-1-5.6-1.9c-0.4-0.2-0.9-0.2-1.2,0.1
	l-3.9,3.9l-4.2-4.2l3.9-3.9c0.3-0.3,0.4-0.8,0.1-1.2c-0.9-1.5-1.6-4.4-1.9-5.6C8.4,26.3,8,26,7.5,26H2v-4h5.5c0.5,0,0.9-0.3,1-0.8
	c0.3-1.1,1-4.1,1.9-5.6c0.2-0.4,0.2-0.9-0.1-1.2l-3.9-3.9l4.2-4.2l3.9,3.9c0.3,0.3,0.8,0.4,1.2,0.1c1.5-0.9,4.4-1.6,5.6-1.9
	C21.7,8.4,22,8,22,7.5V2h4v5.5c0,0.5,0.3,0.9,0.8,1c1.7,0.4,4.2,1.1,5.6,1.9c0.4,0.2,0.9,0.2,1.2-0.1l3.9-3.9l4.2,4.2l-3.9,3.9
	c-0.3,0.3-0.4,0.8-0.1,1.2c0.9,1.5,1.6,4.4,1.9,5.6c0.1,0.4,0.5,0.8,1,0.8H46V26z M24,14c-5.5,0-10,4.5-10,10c0,5.5,4.5,10,10,10
	c5.5,0,10-4.5,10-10C34,18.5,29.5,14,24,14z M24,32c-4.4,0-8-3.6-8-8s3.6-8,8-8s8,3.6,8,8S28.4,32,24,32z"/>
</svg>
