<?xml version="1.0" encoding="utf-8"?>
<!-- Generator: Adobe Illustrator 17.0.0, SVG Export Plug-In . SVG Version: 6.00 Build 0)  -->
<!DOCTYPE svg PUBLIC "-//W3C//DTD SVG 1.1//EN" "http://www.w3.org/Graphics/SVG/1.1/DTD/svg11.dtd">
<svg version="1.1" id="Layer_1" xmlns="http://www.w3.org/2000/svg" xmlns:xlink="http://www.w3.org/1999/xlink" x="0px" y="0px"
	 width="48px" height="48px" viewBox="0 0 48 48" enable-background="new 0 0 48 48" xml:space="preserve">
<path d="M41.8,45.9c-0.3-0.5-0.9-0.6-1.4-0.3c-0.5,0.3-1.4,0.4-1.9,0C38,45.3,38,44.9,38,44.8c0-1.8-1.3-2.9-2.8-3.2l4.5-18.1l1,0.2
	c0.5,0.1,1.1-0.2,1.2-0.7c0.1-0.5-0.2-1.1-0.7-1.2l-4.2-1V15c0-2.8-2.2-5-5-5h-3V1c0-0.6-0.4-1-1-1h-8c-0.6,0-1,0.4-1,1v9h-3
	c-2.8,0-5,2.2-5,5v5.8l-4.2,1C6.2,21.9,5.9,22.5,6,23c0.1,0.5,0.5,0.8,1,0.8c0.1,0,0.2,0,0.2,0l1-0.2L9.7,29c0,0.1,0,0.1,0,0.2
	c0,0,0,0.1,0,0.1l3.1,12.6c-1.1,0.5-1.9,1.4-1.9,2.9c0,0.4-0.2,0.7-0.6,0.9C9.8,46,9,46,8.5,45.7c-0.5-0.3-1.1-0.2-1.4,0.3
	c-0.3,0.5-0.2,1.1,0.3,1.4c1.1,0.7,2.7,0.7,3.9,0.1c1-0.6,1.6-1.5,1.6-2.7c0-1.2,1.3-1.2,1.5-1.2c0.4,0,0.8,0.1,1.1,0.3
	s0.4,0.5,0.4,0.9c0,1,0.4,1.9,1.2,2.5c0.6,0.5,1.5,0.8,2.3,0.8c1.7,0,3.5-1.1,3.5-3.2c0-1.2,1.3-1.2,1.5-1.2c0.4,0,0.8,0.1,1.1,0.3
	s0.4,0.5,0.4,0.9c0,1,0.4,1.9,1.2,2.5c0.6,0.5,1.5,0.8,2.3,0.8c1.7,0,3.5-1.1,3.5-3.2c0-1.2,1.3-1.2,1.5-1.2c0.4,0,0.8,0.1,1.1,0.3
	s0.4,0.5,0.4,0.9c0,1.1,0.6,2.1,1.6,2.7c1.2,0.7,2.8,0.6,4-0.1C42,47,42.1,46.4,41.8,45.9z M36.6,27.6L25,24v-4l12.8,3L36.6,27.6z
	 M27,2v4h-6V2H27z M21,8h6v2h-6V8z M13,15c0-1.7,1.3-3,3-3h16c1.7,0,3,1.3,3,3v5.3l-10.8-2.5c0,0-0.1,0-0.1,0c0,0-0.1,0-0.1,0
	s-0.1,0-0.1,0c0,0-0.1,0-0.1,0L13,20.3V15z M23,20v4l-11.6,3.6L10.2,23L23,20z M21,44.8c0,1.2-1.3,1.2-1.5,1.2S18,46,18,44.8
	c0-2-1.5-3.1-3.1-3.2l-3-12L23,26.1v15.7C21.9,42.3,21,43.3,21,44.8z M31,44.8c0,1.2-1.3,1.2-1.5,1.2S28,46,28,44.8
	c0-1.9-1.4-3-3-3.2V26.1l11.1,3.4l-3,12.2C31.9,42.2,31,43.2,31,44.8z M29,16H19c-0.6,0-1-0.4-1-1s0.4-1,1-1h10c0.6,0,1,0.4,1,1
	S29.5,16,29,16z"/>
</svg>
