<?xml version="1.0" encoding="utf-8"?>
<!-- Generator: Adobe Illustrator 17.0.0, SVG Export Plug-In . SVG Version: 6.00 Build 0)  -->
<!DOCTYPE svg PUBLIC "-//W3C//DTD SVG 1.1//EN" "http://www.w3.org/Graphics/SVG/1.1/DTD/svg11.dtd">
<svg version="1.1" id="Layer_1" xmlns="http://www.w3.org/2000/svg" xmlns:xlink="http://www.w3.org/1999/xlink" x="0px" y="0px"
	 width="48px" height="48px" viewBox="0 0 48 48" enable-background="new 0 0 48 48" xml:space="preserve">
<path d="M48,16c0-8.8-7.2-16-16-16S16,7.2,16,16C7.2,16,0,23.2,0,32s7.2,16,16,16s16-7.2,16-16C40.8,32,48,24.8,48,16z M32,2
	c7.7,0,14,6.3,14,14s-6.3,14-14,14s-14-6.3-14-14S24.3,2,32,2z M30,32c0,7.7-6.3,14-14,14S2,39.7,2,32s6.3-14,14-14c0,0,0.1,0,0.1,0
	c0.3,2.5,1.2,4.8,2.5,6.8c-0.2-0.2-0.4-0.3-0.7-0.3c-3.3,0-6.2,2.1-7.4,5H9c-0.6,0-1,0.4-1,1s0.4,1,1,1h1.1c0,0.3-0.1,0.7-0.1,1
	s0,0.7,0.1,1H9c-0.6,0-1,0.4-1,1s0.4,1,1,1h1.6c1.2,2.9,4.1,5,7.4,5c0.6,0,1-0.4,1-1s-0.4-1-1-1c-2.2,0-4.1-1.2-5.2-3H17
	c0.6,0,1-0.4,1-1s-0.4-1-1-1h-4.9c-0.1-0.3-0.1-0.7-0.1-1s0-0.7,0.1-1H17c0.6,0,1-0.4,1-1s-0.4-1-1-1h-4.2c1-1.8,3-3,5.2-3
	c0.6,0,1-0.4,1-1c0-0.1,0-0.3-0.1-0.4c2.5,3.6,6.5,6.1,11.1,6.7C30,31.9,30,32,30,32z M34,19c0-1.1-0.9-2-2-2c-2.2,0-4-1.8-4-4
	c0-1.9,1.3-3.4,3-3.9V8c0-0.6,0.4-1,1-1s1,0.4,1,1v1.1c1.7,0.4,3,2,3,3.9c0,0.6-0.4,1-1,1s-1-0.4-1-1c0-1.1-0.9-2-2-2s-2,0.9-2,2
	s0.9,2,2,2c2.2,0,4,1.8,4,4c0,1.9-1.3,3.4-3,3.9V24c0,0.6-0.4,1-1,1s-1-0.4-1-1v-1.1c-1.7-0.4-3-2-3-3.9c0-0.6,0.4-1,1-1s1,0.4,1,1
	c0,1.1,0.9,2,2,2S34,20.1,34,19z M1.3,10.8c-0.4-0.4-0.4-1,0-1.4c0.4-0.4,1-0.4,1.4,0L5,11.7C5.2,5.8,10,1,15.9,1c0,0,0,0,0,0
	c0.6,0,1,0.4,1,1c0,0.6-0.4,1-1,1c-4.8,0-8.7,3.8-9,8.6l2.3-2.3c0.4-0.4,1-0.4,1.4,0c0.4,0.4,0.4,1,0,1.4l-4,4
	C6.5,15,6.2,15.1,6,15.1c0,0,0,0,0,0s0,0,0,0c0,0-0.1,0-0.1,0c-0.1,0-0.2,0-0.2,0c-0.1-0.1-0.2-0.1-0.3-0.2L1.3,10.8z M46.7,37.2
	c0.4,0.4,0.4,1,0,1.4c-0.4,0.4-1,0.4-1.4,0L43,36.3C42.8,42.2,38,47,32.1,47c0,0,0,0,0,0c-0.6,0-1-0.4-1-1c0-0.6,0.4-1,1-1
	c4.8,0,8.7-3.8,9-8.6l-2.3,2.3C38.6,38.9,38.3,39,38,39c-0.3,0-0.5-0.1-0.7-0.3c-0.4-0.4-0.4-1,0-1.4l4-4c0.1-0.1,0.2-0.2,0.3-0.2
	c0.1,0,0.2-0.1,0.3-0.1c0,0,0,0,0.1,0c0,0,0,0,0,0c0,0,0.1,0,0.1,0c0.1,0,0.2,0,0.3,0.1c0.1,0,0.2,0.1,0.3,0.2c0,0,0,0,0.1,0
	L46.7,37.2z"/>
</svg>
