<?xml version="1.0" encoding="utf-8"?>
<!-- Generator: Adobe Illustrator 17.0.0, SVG Export Plug-In . SVG Version: 6.00 Build 0)  -->
<!DOCTYPE svg PUBLIC "-//W3C//DTD SVG 1.1//EN" "http://www.w3.org/Graphics/SVG/1.1/DTD/svg11.dtd">
<svg version="1.1" id="Layer_1" xmlns="http://www.w3.org/2000/svg" xmlns:xlink="http://www.w3.org/1999/xlink" x="0px" y="0px"
	 width="48px" height="48px" viewBox="0 0 48 48" enable-background="new 0 0 48 48" xml:space="preserve">
<path d="M27,22h20c0.6,0,1-0.4,1-1C48,9.4,38.6,0,27,0c-0.6,0-1,0.4-1,1v20C26,21.6,26.4,22,27,22z M28,2c9.7,0.5,17.5,8.3,18,18H28
	V2z M47,24H27c-0.4,0-0.8,0.2-0.9,0.6c-0.2,0.4-0.1,0.8,0.2,1.1l14.1,14.1c0.2,0.2,0.5,0.3,0.7,0.3s0.5-0.1,0.7-0.3
	c4-4,6.2-9.2,6.2-14.8C48,24.4,47.6,24,47,24z M41.1,37.7L29.4,26H46C45.7,30.4,44.1,34.5,41.1,37.7z M22,26.6V7c0-0.6-0.4-1-1-1
	C9.4,6,0,15.4,0,27c0,11.6,9.4,21,21,21c5.6,0,10.9-2.2,14.8-6.2c0.4-0.4,0.4-1,0-1.4L22,26.6z M21,46C10.5,46,2,37.5,2,27
	C2,16.9,10,8.5,20,8v19c0,0.3,0.1,0.5,0.3,0.7l13.4,13.4C30.2,44.3,25.7,46,21,46z"/>
</svg>
