<?xml version="1.0" encoding="utf-8"?>
<!-- Generator: Adobe Illustrator 20.1.0, SVG Export Plug-In . SVG Version: 6.00 Build 0)  -->
<svg version="1.1" id="Layer_1" xmlns="http://www.w3.org/2000/svg" xmlns:xlink="http://www.w3.org/1999/xlink" x="0px" y="0px"
	 viewBox="0 0 48 48" style="enable-background:new 0 0 48 48;" xml:space="preserve">
<path d="M41,8.8C31.6-0.6,16.4-0.6,7,8.8c-4.5,4.5-7,10.6-7,17s2.5,12.4,7,17c0.9,0.9,2.2,1.5,3.5,1.5c1.3,0,2.6-0.5,3.5-1.5
	c1.9-2,1.9-5.1,0-7.1c-0.2-0.2-0.3-0.4-0.3-0.7c0-0.3,0.1-0.5,0.3-0.7c0.2-0.2,0.4-0.3,0.7-0.3c0,0,0,0,0,0c0.3,0,0.5,0.1,0.7,0.3
	l8.5,8.5c2.3,2.3,5.3,3.5,8.5,3.5c3.2,0,6.2-1.2,8.5-3.5C50.3,33.4,50.3,18.1,41,8.8z M39.6,41.3c-1.9,1.9-4.4,2.9-7.1,2.9
	s-5.2-1-7.1-2.9l-8.5-8.5c-0.6-0.6-1.3-0.9-2.1-0.9c0,0,0,0,0,0c-0.8,0-1.6,0.3-2.1,0.9c-0.6,0.6-0.9,1.3-0.9,2.1s0.3,1.6,0.9,2.1
	c1.2,1.2,1.2,3.1,0,4.2c-1.1,1.1-3.1,1.1-4.2,0C4.3,37.2,2,31.6,2,25.8s2.3-11.4,6.4-15.6c8.6-8.6,22.5-8.6,31.1,0
	C48.1,18.8,48.1,32.7,39.6,41.3z M32.5,19.9c1.1,0,2.1-0.4,2.8-1.2c0.8-0.8,1.2-1.8,1.2-2.8c0-1.1-0.4-2.1-1.2-2.8
	c-0.8-0.8-1.8-1.2-2.8-1.2h0c-1.1,0-2.1,0.4-2.8,1.2c-0.8,0.8-1.2,1.8-1.2,2.8c0,1.1,0.4,2.1,1.2,2.8C30.4,19.4,31.4,19.9,32.5,19.9
	z M31.1,14.4c0.4-0.4,0.9-0.6,1.4-0.6c0,0,0,0,0,0c0.5,0,1,0.2,1.4,0.6c0.4,0.4,0.6,0.9,0.6,1.4s-0.2,1-0.6,1.4c0,0,0,0,0,0
	c-0.8,0.8-2.1,0.8-2.8,0c-0.4-0.4-0.6-0.9-0.6-1.4S30.7,14.8,31.1,14.4z M40.1,23.6c-1.2-1.2-3.1-1.2-4.2,0c-1.2,1.2-1.2,3.1,0,4.2
	c0.6,0.6,1.4,0.9,2.1,0.9s1.5-0.3,2.1-0.9C41.3,26.7,41.3,24.8,40.1,23.6z M38.7,26.5c-0.4,0.4-1,0.4-1.4,0c-0.4-0.4-0.4-1,0-1.4
	c0.2-0.2,0.5-0.3,0.7-0.3s0.5,0.1,0.7,0.3C39.1,25.4,39.1,26.1,38.7,26.5z M28.9,32.1c-1.9,1.9-1.9,5.1,0,7.1c0,0,0,0,0,0
	c1,1,2.3,1.5,3.5,1.5s2.6-0.5,3.5-1.5c0.9-0.9,1.5-2.2,1.5-3.5c0-1.3-0.5-2.6-1.5-3.5C34.1,30.2,30.9,30.2,28.9,32.1z M34.6,37.8
	c-1.2,1.2-3.1,1.2-4.2,0c-1.2-1.2-1.2-3.1,0-4.2c1.2-1.2,3.1-1.2,4.2,0c0.6,0.6,0.9,1.3,0.9,2.1S35.2,37.2,34.6,37.8z M20.5,9.7
	c-1.1,0-2.1,0.4-2.8,1.2c-0.8,0.8-1.2,1.8-1.2,2.8c0,1.1,0.4,2.1,1.2,2.8c0.8,0.8,1.8,1.2,2.8,1.2s2.1-0.4,2.8-1.2
	c0.8-0.8,1.2-1.8,1.2-2.8c0-1.1-0.4-2.1-1.2-2.8C22.5,10.2,21.5,9.7,20.5,9.7z M21.9,15.1c-0.8,0.8-2.1,0.8-2.8,0
	c-0.4-0.4-0.6-0.9-0.6-1.4c0-0.5,0.2-1,0.6-1.4c0.4-0.4,0.9-0.6,1.4-0.6s1,0.2,1.4,0.6l0,0c0.4,0.4,0.6,0.9,0.6,1.4
	C22.5,14.3,22.3,14.8,21.9,15.1z"/>
</svg>
