<?xml version="1.0" encoding="utf-8"?>
<!-- Generator: Adobe Illustrator 20.1.0, SVG Export Plug-In . SVG Version: 6.00 Build 0)  -->
<svg version="1.1" id="Layer_1" xmlns="http://www.w3.org/2000/svg" xmlns:xlink="http://www.w3.org/1999/xlink" x="0px" y="0px"
	 viewBox="0 0 48 48" style="enable-background:new 0 0 48 48;" xml:space="preserve">
<path d="M47.9,15.4c0-0.1,0.1-0.2,0.1-0.4c0,0,0,0,0,0c0,0,0,0,0,0c0-0.1,0-0.2-0.1-0.3c0,0,0-0.1-0.1-0.1c0,0,0-0.1-0.1-0.1l-10-14
	c-0.1-0.1-0.1-0.1-0.2-0.2c0,0,0,0,0,0c-0.1-0.1-0.2-0.1-0.3-0.2c0,0,0,0,0,0c0,0,0,0,0,0c-0.1,0-0.2,0-0.3,0H11c-0.1,0-0.2,0-0.3,0
	c0,0,0,0,0,0c0,0,0,0,0,0c-0.1,0-0.2,0.1-0.3,0.2c0,0,0,0,0,0c-0.1,0.1-0.1,0.1-0.2,0.2l-10,14c0,0,0,0.1-0.1,0.1c0,0,0,0.1-0.1,0.1
	C0,14.8,0,14.9,0,15c0,0,0,0,0,0c0,0,0,0,0,0c0,0.1,0,0.2,0.1,0.4c0,0,0,0.1,0.1,0.1c0,0,0,0.1,0.1,0.1l23,32
	c0.1,0.1,0.1,0.1,0.2,0.2c0,0,0,0,0.1,0c0.1,0,0.1,0.1,0.2,0.1c0,0,0.1,0,0.1,0c0.1,0,0.2,0,0.3,0s0.2,0,0.3,0c0,0,0.1,0,0.1,0
	c0.1,0,0.1-0.1,0.2-0.1c0,0,0,0,0.1,0c0.1-0.1,0.1-0.1,0.2-0.2l23-32C47.8,15.5,47.9,15.5,47.9,15.4C47.9,15.4,47.9,15.4,47.9,15.4z
	 M10.6,3.3L13.7,14H2.9L10.6,3.3z M31.7,16L24,43.3L16.3,16H31.7z M16.8,14L24,2.8L31.2,14H16.8z M25.8,2h9.8l-3,10.6L25.8,2z
	 M15.4,12.6L12.3,2h9.8L15.4,12.6z M14.2,16l7.3,25.8L2.9,16H14.2z M33.8,16h11.3L26.5,41.8L33.8,16z M34.3,14l3.1-10.7L45.1,14
	H34.3z"/>
</svg>
