<?xml version="1.0" encoding="utf-8"?>
<!-- Generator: Adobe Illustrator 20.1.0, SVG Export Plug-In . SVG Version: 6.00 Build 0)  -->
<svg version="1.1" id="Layer_1" xmlns="http://www.w3.org/2000/svg" xmlns:xlink="http://www.w3.org/1999/xlink" x="0px" y="0px"
	 viewBox="0 0 48 48" style="enable-background:new 0 0 48 48;" xml:space="preserve">
<path d="M6,13c0-0.6,0.4-1,1-1h9c0.6,0,1,0.4,1,1s-0.4,1-1,1H7C6.4,14,6,13.6,6,13z M24,19c0-0.6-0.4-1-1-1H7c-0.6,0-1,0.4-1,1
	s0.4,1,1,1h16C23.5,20,24,19.6,24,19z M20,25c0-0.6-0.4-1-1-1H7c-0.6,0-1,0.4-1,1c0,0.6,0.4,1,1,1h12C19.5,26,20,25.6,20,25z M7,30
	c-0.6,0-1,0.4-1,1s0.4,1,1,1h10c0.6,0,1-0.4,1-1s-0.4-1-1-1H7z M48,35c0,7.2-5.8,13-13,13s-13-5.8-13-13s5.8-13,13-13S48,27.8,48,35
	z M46,35c0-6.1-4.9-11-11-11s-11,4.9-11,11s4.9,11,11,11S46,41.1,46,35z M39,34h-3v-6c0-0.6-0.4-1-1-1s-1,0.4-1,1v7c0,0.6,0.4,1,1,1
	h4c0.6,0,1-0.4,1-1S39.6,34,39,34z M2,42h20v2H1c-0.6,0-1-0.4-1-1V1c0-0.6,0.4-1,1-1h22c0.1,0,0.3,0,0.4,0.1
	c0.1,0.1,0.2,0.1,0.3,0.2l10,10c0.1,0.1,0.2,0.2,0.2,0.3C34,10.7,34,10.9,34,11v9h-2v-8h-9c-0.6,0-1-0.4-1-1V2H2V42z M24,10h6.6
	L24,3.4V10z"/>
</svg>
