<?xml version="1.0" encoding="utf-8"?>
<!-- Generator: Adobe Illustrator 17.0.0, SVG Export Plug-In . SVG Version: 6.00 Build 0)  -->
<!DOCTYPE svg PUBLIC "-//W3C//DTD SVG 1.1//EN" "http://www.w3.org/Graphics/SVG/1.1/DTD/svg11.dtd">
<svg version="1.1" id="Layer_1" xmlns="http://www.w3.org/2000/svg" xmlns:xlink="http://www.w3.org/1999/xlink" x="0px" y="0px"
	 width="48px" height="48px" viewBox="0 0 48 48" enable-background="new 0 0 48 48" xml:space="preserve">
<path d="M6,13c0-0.6,0.4-1,1-1h9c0.6,0,1,0.4,1,1s-0.4,1-1,1H7C6.4,14,6,13.6,6,13z M24,19c0-0.6-0.4-1-1-1H7c-0.6,0-1,0.4-1,1
	s0.4,1,1,1h16C23.5,20,24,19.6,24,19z M20,25c0-0.6-0.4-1-1-1H7c-0.6,0-1,0.4-1,1c0,0.6,0.4,1,1,1h12C19.5,26,20,25.6,20,25z M7,30
	c-0.6,0-1,0.4-1,1s0.4,1,1,1h10c0.6,0,1-0.4,1-1s-0.4-1-1-1H7z M48,35c0,7.2-5.8,13-13,13s-13-5.8-13-13c0-7.2,5.8-13,13-13
	S48,27.8,48,35z M46,35c0-6.1-4.9-11-11-11s-11,4.9-11,11s4.9,11,11,11S46,41,46,35z M40.8,31l-6.9,7.6l-4.7-4.7
	c-0.4-0.4-1-0.4-1.4,0s-0.4,1,0,1.4l5.5,5.4c0.2,0.2,0.4,0.3,0.7,0.3c0,0,0,0,0,0c0.3,0,0.5-0.1,0.7-0.3l7.6-8.3
	c0.4-0.4,0.3-1-0.1-1.4C41.8,30.6,41.2,30.6,40.8,31z M2,42h20v2H1c-0.6,0-1-0.4-1-1V1c0-0.6,0.4-1,1-1h22c0.1,0,0.3,0.1,0.4,0.1
	c0.1,0.1,0.2,0.1,0.3,0.2l10,10c0.1,0.1,0.2,0.2,0.2,0.3C34,10.8,34,10.9,34,11v9h-2v-8h-9c-0.6,0-1-0.4-1-1V2H2V42z M24,10h6.6
	L24,3.5V10z"/>
</svg>
