<?xml version="1.0" encoding="utf-8"?>
<!-- Generator: Adobe Illustrator 20.1.0, SVG Export Plug-In . SVG Version: 6.00 Build 0)  -->
<svg version="1.1" id="Layer_1" xmlns="http://www.w3.org/2000/svg" xmlns:xlink="http://www.w3.org/1999/xlink" x="0px" y="0px"
	 viewBox="0 0 48 48" style="enable-background:new 0 0 48 48;" xml:space="preserve">
<path d="M34,21v6c0,0.6-0.4,1-1,1s-1-0.4-1-1v-5h-8v18h5c0.6,0,1,0.4,1,1s-0.4,1-1,1H17c-0.6,0-1-0.4-1-1s0.4-1,1-1h5V22h-8v5
	c0,0.6-0.4,1-1,1s-1-0.4-1-1v-6c0-0.6,0.4-1,1-1h20C33.6,20,34,20.4,34,21z M44,13v34c0,0.6-0.4,1-1,1H5c-0.6,0-1-0.4-1-1V1
	c0-0.6,0.4-1,1-1h26c0.1,0,0.3,0,0.4,0.1c0.1,0.1,0.2,0.1,0.3,0.2l12,12c0.1,0.1,0.2,0.2,0.2,0.3C44,12.7,44,12.9,44,13z M32,12h8.6
	L32,3.4V12z M42,46V14H31c-0.6,0-1-0.4-1-1V2H6v44H42z"/>
</svg>
