<?xml version="1.0" encoding="utf-8"?>
<!-- Generator: Adobe Illustrator 20.1.0, SVG Export Plug-In . SVG Version: 6.00 Build 0)  -->
<svg version="1.1" id="Layer_1" xmlns="http://www.w3.org/2000/svg" xmlns:xlink="http://www.w3.org/1999/xlink" x="0px" y="0px"
	 viewBox="0 0 48 48" style="enable-background:new 0 0 48 48;" xml:space="preserve">
<path d="M41.9,12.6c-0.1-0.1-0.1-0.2-0.2-0.3l-12-12c-0.1-0.1-0.2-0.2-0.3-0.2C29.3,0,29.1,0,29,0H7C6.4,0,6,0.4,6,1v46
	c0,0.6,0.4,1,1,1h34c0.6,0,1-0.4,1-1V13C42,12.9,42,12.7,41.9,12.6z M30,3.4l8.6,8.6H30V3.4z M8,46V2h20v11c0,0.6,0.4,1,1,1h11v32H8
	z M34,21c0,0.6-0.4,1-1,1h-8c-0.6,0-1-0.4-1-1s0.4-1,1-1h8C33.6,20,34,20.4,34,21z M34,29c0,0.6-0.4,1-1,1h-8c-0.6,0-1-0.4-1-1
	s0.4-1,1-1h8C33.6,28,34,28.4,34,29z M34,37c0,0.6-0.4,1-1,1h-8c-0.6,0-1-0.4-1-1s0.4-1,1-1h8C33.6,36,34,36.4,34,37z M21.7,16.3
	c0.4,0.4,0.4,1,0,1.4l-5,5C16.5,22.9,16.3,23,16,23s-0.5-0.1-0.7-0.3l-3-3c-0.4-0.4-0.4-1,0-1.4s1-0.4,1.4,0l2.3,2.3l4.3-4.3
	C20.7,15.9,21.3,15.9,21.7,16.3z M21.7,24.3c0.4,0.4,0.4,1,0,1.4l-5,5C16.5,30.9,16.3,31,16,31s-0.5-0.1-0.7-0.3l-3-3
	c-0.4-0.4-0.4-1,0-1.4s1-0.4,1.4,0l2.3,2.3l4.3-4.3C20.7,23.9,21.3,23.9,21.7,24.3z M21.7,32.3c0.4,0.4,0.4,1,0,1.4l-5,5
	C16.5,38.9,16.3,39,16,39s-0.5-0.1-0.7-0.3l-3-3c-0.4-0.4-0.4-1,0-1.4s1-0.4,1.4,0l2.3,2.3l4.3-4.3C20.7,31.9,21.3,31.9,21.7,32.3z"
	/>
</svg>
