<?xml version="1.0" encoding="utf-8"?>
<!-- Generator: Adobe Illustrator 17.0.0, SVG Export Plug-In . SVG Version: 6.00 Build 0)  -->
<!DOCTYPE svg PUBLIC "-//W3C//DTD SVG 1.1//EN" "http://www.w3.org/Graphics/SVG/1.1/DTD/svg11.dtd">
<svg version="1.1" id="Layer_1" xmlns="http://www.w3.org/2000/svg" xmlns:xlink="http://www.w3.org/1999/xlink" x="0px" y="0px"
	 width="48px" height="48px" viewBox="0 0 48 48" enable-background="new 0 0 48 48" xml:space="preserve">
<path d="M41.9,12.6c-0.1-0.1-0.1-0.2-0.2-0.3l-12-12c-0.1-0.1-0.2-0.2-0.3-0.2C29.3,0,29.1,0,29,0H13c-0.6,0-1,0.4-1,1v5H7
	C6.4,6,6,6.4,6,7v40c0,0.6,0.4,1,1,1h28c0.6,0,1-0.4,1-1v-5h5c0.6,0,1-0.4,1-1V13C42,12.9,42,12.7,41.9,12.6z M30,3.4l8.6,8.6H30
	V3.4z M34,46H8V8h4v33c0,0.6,0.4,1,1,1h21V46z M14,40V2h14v11c0,0.6,0.4,1,1,1h11v26H14z"/>
</svg>
