<?xml version="1.0" encoding="utf-8"?>
<!-- Generator: Adobe Illustrator 17.0.0, SVG Export Plug-In . SVG Version: 6.00 Build 0)  -->
<!DOCTYPE svg PUBLIC "-//W3C//DTD SVG 1.1//EN" "http://www.w3.org/Graphics/SVG/1.1/DTD/svg11.dtd">
<svg version="1.1" id="Layer_1" xmlns="http://www.w3.org/2000/svg" xmlns:xlink="http://www.w3.org/1999/xlink" x="0px" y="0px"
	 width="48px" height="48px" viewBox="0 0 48 48" enable-background="new 0 0 48 48" xml:space="preserve">
<path d="M44,8H4c-2.2,0-4,1.8-4,4v24c0,2.2,1.8,4,4,4h40c2.2,0,4-1.8,4-4V12C48,9.8,46.2,8,44,8z M44,10c0.2,0,0.4,0,0.6,0.1
	c-0.1,0-0.2,0.1-0.2,0.1L24,26.7L3.6,10.2c-0.1-0.1-0.2-0.1-0.2-0.1C3.6,10,3.8,10,4,10H44z M46,36c0,1.1-0.9,2-2,2H4
	c-1.1,0-2-0.9-2-2V12c0-0.2,0-0.4,0.1-0.6c0.1,0.1,0.1,0.3,0.3,0.4l14.5,11.8L6.4,31.2c-0.4,0.3-0.5,1-0.2,1.4C6.4,32.9,6.7,33,7,33
	c0.2,0,0.4-0.1,0.6-0.2l10.9-8l4.8,3.9c0.2,0.1,0.4,0.2,0.6,0.2s0.4-0.1,0.6-0.2l4.8-3.9l10.9,8c0.2,0.1,0.4,0.2,0.6,0.2
	c0.3,0,0.6-0.1,0.8-0.4c0.3-0.4,0.2-1.1-0.2-1.4l-10.5-7.6l14.5-11.8c0.1-0.1,0.2-0.2,0.3-0.4C46,11.6,46,11.8,46,12V36z"/>
</svg>
