<?xml version="1.0" encoding="utf-8"?>
<!-- Generator: Adobe Illustrator 17.0.0, SVG Export Plug-In . SVG Version: 6.00 Build 0)  -->
<!DOCTYPE svg PUBLIC "-//W3C//DTD SVG 1.1//EN" "http://www.w3.org/Graphics/SVG/1.1/DTD/svg11.dtd">
<svg version="1.1" id="Layer_1" xmlns="http://www.w3.org/2000/svg" xmlns:xlink="http://www.w3.org/1999/xlink" x="0px" y="0px"
	 width="48px" height="48px" viewBox="0 0 48 48" enable-background="new 0 0 48 48" xml:space="preserve">
<path d="M47,0H1C0.4,0,0,0.4,0,1v46c0,0.6,0.4,1,1,1h46c0.6,0,1-0.4,1-1V1C48,0.4,47.6,0,47,0z M46,46H2V2h44V46z M7,34h11v3
	c0,0.6,0.4,1,1,1h10c0.6,0,1-0.4,1-1v-3h11c0.6,0,1-0.4,1-1V9c0-0.6-0.4-1-1-1H7C6.4,8,6,8.4,6,9v24C6,33.6,6.4,34,7,34z M8,10h6v7
	c0,0.6,0.4,1,1,1s1-0.4,1-1v-7h4v7c0,0.6,0.4,1,1,1s1-0.4,1-1v-7h4v7c0,0.6,0.4,1,1,1s1-0.4,1-1v-7h4v7c0,0.6,0.4,1,1,1s1-0.4,1-1
	v-7h6v22H29c-0.6,0-1,0.4-1,1v3h-8v-3c0-0.6-0.4-1-1-1H8V10z"/>
</svg>
