<?xml version="1.0" encoding="utf-8"?>
<!-- Generator: Adobe Illustrator 17.0.0, SVG Export Plug-In . SVG Version: 6.00 Build 0)  -->
<!DOCTYPE svg PUBLIC "-//W3C//DTD SVG 1.1//EN" "http://www.w3.org/Graphics/SVG/1.1/DTD/svg11.dtd">
<svg version="1.1" id="Layer_1" xmlns="http://www.w3.org/2000/svg" xmlns:xlink="http://www.w3.org/1999/xlink" x="0px" y="0px"
	 width="48px" height="48px" viewBox="0 0 48 48" enable-background="new 0 0 48 48" xml:space="preserve">
<path d="M31,0c-0.6,0-1,0.4-1,1c0,0,0,0.1,0,0.1V47c0,0.6,0.4,1,1,1s1-0.4,1-1V32h5c0.6,0,1-0.4,1-1C38,18.3,35.5,0,31,0z M32,30
	V3.4c1.6,3.5,3.9,13.3,4,26.6H32z M24,1v10c0,3.5-2.6,6.4-6,6.9V47c0,0.6-0.4,1-1,1s-1-0.4-1-1V17.9c-3.4-0.5-6-3.4-6-6.9V1
	c0-0.6,0.4-1,1-1s1,0.4,1,1v10c0,2.4,1.7,4.4,4,4.9V1c0-0.6,0.4-1,1-1s1,0.4,1,1v14.9c2.3-0.5,4-2.5,4-4.9V1c0-0.6,0.4-1,1-1
	S24,0.4,24,1z"/>
</svg>
