<?xml version="1.0" encoding="utf-8"?>
<!-- Generator: Adobe Illustrator 20.1.0, SVG Export Plug-In . SVG Version: 6.00 Build 0)  -->
<svg version="1.1" id="Layer_1" xmlns="http://www.w3.org/2000/svg" xmlns:xlink="http://www.w3.org/1999/xlink" x="0px" y="0px"
	 viewBox="0 0 48 48" style="enable-background:new 0 0 48 48;" xml:space="preserve">
<path d="M48,26c0-2.4-1.7-4.4-4-4.9V20c0-2.8-2.2-5-5-5h-0.1C38.4,7.2,31.9,1,24,1C16.1,1,9.6,7.2,9.1,15H9c-2.8,0-5,2.2-5,5v1.1
	c-2.3,0.5-4,2.5-4,4.9s1.7,4.4,4,4.9V32c0,2.8,2.2,5,5,5h4c0.6,0,1-0.4,1-1V16c0-0.6-0.4-1-1-1h-1.9C11.6,8.3,17.2,3,24,3
	c6.8,0,12.4,5.3,12.9,12H35c-0.6,0-1,0.4-1,1v20c0,0.6,0.4,1,1,1h4v1c0,3.7-3.2,5-6,5h-3.1c-0.4-1.7-2-3-3.9-3c-2.2,0-4,1.8-4,4
	s1.8,4,4,4c1.9,0,3.4-1.3,3.9-3H33c4.8,0,8-2.8,8-7v-1.4c1.8-0.8,3-2.5,3-4.6v-1.1C46.3,30.4,48,28.4,48,26z M2,26
	c0-1.3,0.8-2.4,2-2.8v5.6C2.8,28.4,2,27.3,2,26z M12,35H9c-1.7,0-3-1.3-3-3V20c0-1.7,1.3-3,3-3h3V35z M26,46c-1.1,0-2-0.9-2-2
	s0.9-2,2-2c1.1,0,2,0.9,2,2S27.1,46,26,46z M42,32c0,1.7-1.3,3-3,3h-3V17h3c1.7,0,3,1.3,3,3V32z M44,28.8v-5.6c1.2,0.4,2,1.5,2,2.8
	S45.2,28.4,44,28.8z"/>
</svg>
