<?xml version="1.0" encoding="utf-8"?>
<!-- Generator: Adobe Illustrator 20.1.0, SVG Export Plug-In . SVG Version: 6.00 Build 0)  -->
<svg version="1.1" id="Layer_1" xmlns="http://www.w3.org/2000/svg" xmlns:xlink="http://www.w3.org/1999/xlink" x="0px" y="0px"
	 viewBox="0 0 48 48" style="enable-background:new 0 0 48 48;" xml:space="preserve">
<path d="M46,23.3c0.2,5.3-1.7,10.4-5.3,14.3s-8.6,6.2-13.9,6.4c0,0,0,0,0,0c-0.5,0-1-0.4-1-1c0-0.6,0.4-1,1-1
	c4.8-0.2,9.3-2.2,12.5-5.7c3.3-3.5,5-8.1,4.8-12.9c-0.2-4.8-2.2-9.3-5.7-12.5s-8.1-5-12.9-4.8c-5,0.2-9.8,2.5-13.1,6.5
	c-2.9,3.4-4.4,7.6-4.4,12l5.4-6.1c0.4-0.4,1-0.5,1.4-0.1c0.4,0.4,0.5,1,0.1,1.4l-6.9,7.9c0,0,0,0-0.1,0.1l0,0c0,0,0,0,0,0
	c-0.1,0.1-0.2,0.2-0.3,0.2c0,0-0.1,0-0.1,0C7.3,28,7.2,28,7.1,28c0,0,0,0-0.1,0c0,0,0,0-0.1,0c0,0,0,0-0.1,0c0,0-0.1,0-0.1,0
	c-0.1,0-0.2,0-0.2-0.1c-0.1,0-0.1,0-0.2-0.1c-0.1,0-0.1-0.1-0.1-0.1c0,0-0.1-0.1-0.1-0.1l-6-9c-0.3-0.5-0.2-1.1,0.3-1.4
	c0.5-0.3,1.1-0.2,1.4,0.3l4.1,6.1c0.2-4.6,1.8-8.9,4.8-12.4c3.7-4.3,9-7,14.6-7.2c5.4-0.2,10.4,1.7,14.3,5.3
	C43.5,13,45.8,17.9,46,23.3z M36,26c0.6,0,1-0.4,1-1c0-0.6-0.4-1-1-1h-9V14c0-0.6-0.4-1-1-1s-1,0.4-1,1v11c0,0.6,0.4,1,1,1H36z"/>
</svg>
