<?xml version="1.0" encoding="utf-8"?>
<!-- Generator: Adobe Illustrator 17.0.0, SVG Export Plug-In . SVG Version: 6.00 Build 0)  -->
<!DOCTYPE svg PUBLIC "-//W3C//DTD SVG 1.1//EN" "http://www.w3.org/Graphics/SVG/1.1/DTD/svg11.dtd">
<svg version="1.1" id="Layer_1" xmlns="http://www.w3.org/2000/svg" xmlns:xlink="http://www.w3.org/1999/xlink" x="0px" y="0px"
	 width="48px" height="48px" viewBox="0 0 48 48" enable-background="new 0 0 48 48" xml:space="preserve">
<path d="M47,43.9c0,0.6-0.4,1-1,1s-1-0.4-1-1c0-0.9-0.3-1.4-0.5-1.6c-0.7-0.8-2-0.4-2,1.6c0,2.6-1.8,4-3.5,4c-0.9,0-1.8-0.4-2.5-1.1
	c-0.5-0.5-1-1.4-1-3c0-0.7-0.2-1.2-0.5-1.6c-0.8-0.8-2.5-0.5-2.5,1.6c0,1.6-0.7,2.9-1.8,3.6c-1,0.6-2.3,0.6-3.3,0
	c-1.2-0.7-1.8-2-1.8-3.6c0-1.4-0.8-2-1.5-2c0,0,0,0,0,0c-0.7,0-1.5,0.6-1.5,2c0,2.6-1.8,4-3.5,4c-0.9,0-1.8-0.4-2.5-1.1
	c-0.5-0.5-1-1.4-1-3c0-0.7-0.2-1.2-0.5-1.6c-0.8-0.8-2.5-0.5-2.5,1.6c0,2.7-1.8,4.1-3.5,4.1c-0.9,0-1.8-0.4-2.5-1.1
	c-0.7-0.7-1-1.8-1-3c0-0.9-0.3-1.3-0.5-1.6C4.4,41.5,3,41.9,3,43.9c0,0.6-0.4,1-1,1s-1-0.4-1-1c0-2.6,1.6-4,3.3-4s3.3,1.4,3.3,4
	C7.5,45.4,8.3,46,9,46s1.5-0.6,1.5-2.1c0-2.6,1.8-4,3.5-4s3.5,1.4,3.5,4c0,1.4,0.8,2,1.5,2s1.5-0.6,1.5-2c0-2.6,1.8-4,3.5-4
	c0,0,0,0,0,0c1.7,0,3.5,1.3,3.5,4c0,0.9,0.3,1.5,0.8,1.8c0.4,0.2,0.9,0.2,1.3,0c0.5-0.3,0.8-1,0.8-1.8c0-2.6,1.8-4,3.5-4
	s3.5,1.4,3.5,4c0,1.4,0.8,2,1.5,2s1.5-0.6,1.5-2c0-2.6,1.6-4,3.2-4S47,41.3,47,43.9z M48,6.9v2c0,0.6-0.4,1-1,1s-1-0.4-1-1v-2
	c0-2.2-1.8-4-4-4s-4,1.8-4,4v28.5c0.3,0.3,0.7,0.5,1,0.5c0.7,0,1.5-0.6,1.5-2c0-2.6,1.6-4,3.2-4s3.2,1.4,3.2,4c0,0.6-0.4,1-1,1
	s-1-0.4-1-1c0-0.9-0.3-1.4-0.5-1.6c-0.7-0.8-2-0.4-2,1.6c0,2.6-1.8,4-3.5,4c-0.9,0-1.8-0.4-2.5-1.1c-0.2-0.2-0.3-0.4-0.5-0.6
	c0,0,0-0.1-0.1-0.1c-0.3-0.5-0.5-1.2-0.5-2.2c0-0.7-0.2-1.2-0.5-1.6c-0.8-0.8-2.5-0.5-2.5,1.6c0,1.6-0.7,2.9-1.8,3.6
	c-1,0.6-2.3,0.6-3.3,0c-1.2-0.7-1.8-2-1.8-3.6c0-1.4-0.8-2-1.5-2c0,0,0,0,0,0c-0.7,0-1.5,0.6-1.5,2c0,2.6-1.8,4-3.5,4
	c-0.9,0-1.8-0.4-2.5-1.1c-0.5-0.5-1-1.4-1-3c0-0.7-0.2-1.2-0.5-1.6c-0.8-0.8-2.5-0.5-2.5,1.6c0,2.7-1.8,4.1-3.5,4.1
	c-0.9,0-1.8-0.4-2.5-1.1c-0.7-0.7-1-1.8-1-3c0-0.9-0.3-1.3-0.5-1.6C4.4,31.5,3,31.9,3,33.9c0,0.6-0.4,1-1,1s-1-0.4-1-1
	c0-2.6,1.6-4,3.3-4s3.3,1.4,3.3,4C7.5,35.4,8.3,36,9,36s1.5-0.6,1.5-2.1c0-2.6,1.8-4,3.5-4s3.5,1.4,3.5,4c0,1.4,0.8,2,1.5,2
	s1.5-0.6,1.5-2c0-1.5,0.6-2.6,1.5-3.3V6.9c0-3.3,2.7-6,6-6s6,2.7,6,6v2c0,0.6-0.4,1-1,1s-1-0.4-1-1v-2c0-2.2-1.8-4-4-4s-4,1.8-4,4
	V13h12V6.9c0-3.3,2.7-6,6-6S48,3.6,48,6.9z M24,25h12v-4H24V25z M24,15v4h12v-4H24z M36,30.6V27H24v2.9c0,0,0,0.1,0,0.1c0,0,0,0,0,0
	c1.7,0,3.5,1.3,3.5,4c0,0.9,0.3,1.5,0.8,1.8c0.4,0.2,0.9,0.2,1.3,0c0.5-0.3,0.8-1,0.8-1.8c0-2.6,1.8-4,3.5-4
	C34.7,29.9,35.4,30.2,36,30.6z"/>
</svg>
