<?xml version="1.0" encoding="utf-8"?>
<!-- Generator: Adobe Illustrator 17.0.0, SVG Export Plug-In . SVG Version: 6.00 Build 0)  -->
<!DOCTYPE svg PUBLIC "-//W3C//DTD SVG 1.1//EN" "http://www.w3.org/Graphics/SVG/1.1/DTD/svg11.dtd">
<svg version="1.1" id="Layer_1" xmlns="http://www.w3.org/2000/svg" xmlns:xlink="http://www.w3.org/1999/xlink" x="0px" y="0px"
	 width="48px" height="48px" viewBox="0 0 48 48" enable-background="new 0 0 48 48" xml:space="preserve">
<path d="M46.8,8.3l-7.1-7.1C38.9,0.4,37.9,0,36.8,0c-1.1,0-2.1,0.4-2.8,1.2c-0.5,0.5-0.9,1.1-1,1.8l-0.4-0.4c-1.5-1.5-4.2-1.5-5.7,0
	c-0.5,0.5-0.9,1.2-1,1.8L25.4,4c-0.8-0.8-1.8-1.2-2.8-1.2c-1.1,0-2.1,0.4-2.8,1.2c-1.6,1.6-1.6,4.1,0,5.7l6.4,6.4l-10,10l-6.4-6.4
	c-1.5-1.5-4.2-1.5-5.7,0c-1.6,1.6-1.6,4.1,0,5.7l0.4,0.4c-0.7,0.2-1.3,0.5-1.8,1C1,28.4,1,31,2.6,32.6L3,33c-0.7,0.2-1.3,0.5-1.8,1
	C0.4,34.8,0,35.8,0,36.8c0,1.1,0.4,2.1,1.2,2.8l7.1,7.1c0.8,0.8,1.8,1.2,2.8,1.2c1.1,0,2.1-0.4,2.9-1.2c0.5-0.5,0.9-1.2,1-1.8
	l0.4,0.4c0.8,0.8,1.8,1.2,2.8,1.2c1.1,0,2.1-0.4,2.8-1.2c0.5-0.5,0.9-1.2,1-1.8l0.4,0.4c0.8,0.8,1.8,1.2,2.8,1.2
	c1.1,0,2.1-0.4,2.8-1.2c1.6-1.6,1.6-4.1,0-5.7l-6.4-6.4l10-10l6.4,6.4c0.8,0.8,1.8,1.2,2.8,1.2c1.1,0,2.1-0.4,2.8-1.2
	c0.8-0.8,1.2-1.8,1.2-2.8c0-1.1-0.4-2.1-1.2-2.8l-0.4-0.4c0.7-0.2,1.3-0.5,1.8-1c1.6-1.6,1.6-4.1,0-5.7L45,15c0.7-0.2,1.3-0.5,1.8-1
	C48.4,12.4,48.4,9.9,46.8,8.3z M12.6,45.4c-0.8,0.8-2.1,0.8-2.9,0l-7.1-7.1C2.2,37.9,2,37.4,2,36.8c0-0.5,0.2-1.1,0.6-1.4
	C3,35,3.5,34.8,4,34.8c0.5,0,1,0.2,1.4,0.6l1.3,1.3l5.9,5.9C13.4,43.3,13.4,44.6,12.6,45.4z M19.7,44c-0.8,0.8-2.1,0.8-2.9,0
	L14,41.1c0,0,0,0,0,0l-5.6-5.6L4,31.1c-0.8-0.8-0.8-2.1,0-2.9c0.4-0.4,0.9-0.6,1.4-0.6c0.5,0,1,0.2,1.4,0.6l12.8,12.8
	C20.5,41.9,20.5,43.2,19.7,44z M26.9,42.6c-0.8,0.8-2.1,0.8-2.9,0l-2.8-2.8c0,0,0,0,0,0L8.3,26.9c0,0,0,0,0,0L5.4,24
	c-0.8-0.8-0.8-2.1,0-2.9c0.4-0.4,0.9-0.6,1.4-0.6c0.5,0,1,0.2,1.4,0.6l18.5,18.5C27.7,40.5,27.7,41.8,26.9,42.6z M20.4,30.4
	l-2.9-2.9l10-10l2.9,2.9L20.4,30.4z M42.6,26.9c-0.8,0.8-2.1,0.8-2.9,0L21.1,8.3c-0.8-0.8-0.8-2.1,0-2.9c0.4-0.4,0.9-0.6,1.4-0.6
	c0.5,0,1,0.2,1.4,0.6l11.3,11.3l4.4,4.4c0,0,0,0,0,0l2.8,2.8c0.4,0.4,0.6,0.9,0.6,1.4C43.1,26,42.9,26.5,42.6,26.9z M44,19.7
	c-0.8,0.8-2.1,0.8-2.9,0l-3.9-3.9l-8.9-8.9c-0.8-0.8-0.8-2.1,0-2.9c0.4-0.4,0.9-0.6,1.4-0.6s1.1,0.2,1.4,0.6l4.4,4.4l5.6,5.6
	c0,0,0,0,0,0l2.8,2.8C44.8,17.7,44.8,18.9,44,19.7z M45.4,12.6c-0.8,0.8-2.1,0.8-2.9,0l-7.1-7.1l0,0C35,5.1,34.8,4.6,34.8,4
	s0.2-1,0.6-1.4C35.8,2.2,36.3,2,36.8,2c0.5,0,1,0.2,1.4,0.6l7.1,7.1C46.2,10.5,46.2,11.8,45.4,12.6z"/>
</svg>
