<?xml version="1.0" encoding="utf-8"?>
<!-- Generator: Adobe Illustrator 17.0.0, SVG Export Plug-In . SVG Version: 6.00 Build 0)  -->
<!DOCTYPE svg PUBLIC "-//W3C//DTD SVG 1.1//EN" "http://www.w3.org/Graphics/SVG/1.1/DTD/svg11.dtd">
<svg version="1.1" id="Layer_1" xmlns="http://www.w3.org/2000/svg" xmlns:xlink="http://www.w3.org/1999/xlink" x="0px" y="0px"
	 width="48px" height="48px" viewBox="0 0 48 48" enable-background="new 0 0 48 48" xml:space="preserve">
<path d="M46,15c0-6.1-4.9-11-11-11c-0.1,0-0.1,0-0.2,0L13,8L3.2,6C2.9,6,2.6,6,2.4,6.2C2.1,6.4,2,6.7,2,7v16c0,0.3,0.1,0.6,0.4,0.8
	C2.5,23.9,2.8,24,3,24c0.1,0,0.1,0,0.2,0l9.8-2l14.9,2.7L27,29.8c0,0.3,0,0.6,0.2,0.8c0.2,0.2,0.5,0.4,0.8,0.4h2.5l-1.7,7.9
	c-0.3,1.3,0,2.6,0.8,3.6c0.8,1,2,1.5,3.4,1.5h4.5c2.5,0,4.6-1.8,4.9-4.3L46,16.1l0,0C46,15.8,46,15.4,46,15z M4,8.2l8,1.6v10.4
	l-8,1.6V8.2z M14,9.8L35.1,6C40,6,44,10.1,44,15s-4,9-8.9,9L14,20.2V9.8z M29.2,29l0.7-3.9l1.8,0.3L30.9,29H29.2z M40.5,39.4
	c-0.2,1.5-1.5,2.6-3,2.6H33c-0.8,0-1.4-0.3-1.8-0.8s-0.5-1.2-0.4-1.9l0.3-1.3H36c0.6,0,1-0.4,1-1s-0.4-1-1-1h-4.5l0.4-2H37
	c0.6,0,1-0.4,1-1s-0.4-1-1-1h-4.7l1.3-6.2l1.2,0.2c0.1,0,0.1,0,0.2,0c3.2,0,6-1.4,8-3.5L40.5,39.4z M42,15c0-3.3-2.7-6-6-6
	s-6,2.7-6,6s2.7,6,6,6S42,18.3,42,15z M32,15c0-2.2,1.8-4,4-4s4,1.8,4,4s-1.8,4-4,4S32,17.2,32,15z"/>
</svg>
