<?xml version="1.0" encoding="utf-8"?>
<!-- Generator: Adobe Illustrator 17.0.0, SVG Export Plug-In . SVG Version: 6.00 Build 0)  -->
<!DOCTYPE svg PUBLIC "-//W3C//DTD SVG 1.1//EN" "http://www.w3.org/Graphics/SVG/1.1/DTD/svg11.dtd">
<svg version="1.1" id="Layer_1" xmlns="http://www.w3.org/2000/svg" xmlns:xlink="http://www.w3.org/1999/xlink" x="0px" y="0px"
	 width="48px" height="48px" viewBox="0 0 48 48" enable-background="new 0 0 48 48" xml:space="preserve">
<path d="M45,46h-5V25c0-10.1-8-18.4-18-18.9V6c0-3.3-2.7-6-6-6s-6,2.7-6,6v4.4C5.1,12.7,2,17.6,2,23v4c0,0.6,0.4,1,1,1h26
	c0.6,0,1-0.4,1-1v-4c0-5.4-3.1-10.3-8-12.6V8.1C30.9,8.6,38,16,38,25v21h-9c-0.6,0-1,0.4-1,1s0.4,1,1,1h16c0.6,0,1-0.4,1-1
	S45.6,46,45,46z M28,23v3H4v-3c0-4.9,2.9-9.2,7.4-11.1c0.4-0.2,0.6-0.5,0.6-0.9V6c0-2.2,1.8-4,4-4s4,1.8,4,4v5
	c0,0.4,0.2,0.8,0.6,0.9C25.1,13.8,28,18.1,28,23z"/>
</svg>
