<?xml version="1.0" encoding="utf-8"?>
<!-- Generator: Adobe Illustrator 17.0.0, SVG Export Plug-In . SVG Version: 6.00 Build 0)  -->
<!DOCTYPE svg PUBLIC "-//W3C//DTD SVG 1.1//EN" "http://www.w3.org/Graphics/SVG/1.1/DTD/svg11.dtd">
<svg version="1.1" id="Layer_1" xmlns="http://www.w3.org/2000/svg" xmlns:xlink="http://www.w3.org/1999/xlink" x="0px" y="0px"
	 width="48px" height="48px" viewBox="0 0 48 48" enable-background="new 0 0 48 48" xml:space="preserve">
<path d="M48,22c0-9.7-7.7-17.6-17.3-18c-1.5-2.2-5-4-10.7-4C9,0,0,9,0,20c0,6.8,3.5,13,9.4,16.8C11.2,42.6,15.1,48,24,48
	c6.9,0,11.6-3.3,14-9.9C44.2,35,48,28.9,48,22z M2,20c0-9.9,8.1-18,18-18c6.1,0,9.2,2.3,9.5,4.4c0.3,2-1.9,4.1-5.6,5.3
	C14.1,11.7,8,16.7,8,24.9c0,2,0,5.4,0.7,8.9C4.5,30.4,2,25.4,2,20z M24,46c-12.5,0-14-12.1-14-21.1c0-7,5.2-11.2,14-11.2
	c0.1,0,0.2,0,0.3,0l0,0c0,0,0,0,0,0C32.9,13.7,38,17.9,38,24.9C38,33.9,36.5,46,24,46z M38.9,35.3c0.7-3,1.1-6.4,1.1-10.4
	c0-7-4.5-11.7-11.9-12.9c2.8-1.8,3.7-4.1,3.4-5.9c0,0,0,0,0,0C39.6,6.8,46,13.7,46,22C46,27.4,43.3,32.4,38.9,35.3z M23,27
	c0-3.3-2.7-6-6-6s-6,2.7-6,6s2.7,6,6,6S23,30.3,23,27z M18,30.9V29c0-0.6-0.4-1-1-1s-1,0.4-1,1v1.9c-1.4-0.4-2.5-1.5-2.9-2.9H15
	c0.6,0,1-0.4,1-1s-0.4-1-1-1h-1.9c0.4-1.4,1.5-2.5,2.9-2.9V25c0,0.6,0.4,1,1,1s1-0.4,1-1v-1.9c1.4,0.4,2.5,1.5,2.9,2.9H19
	c-0.6,0-1,0.4-1,1s0.4,1,1,1h1.9C20.5,29.4,19.4,30.5,18,30.9z M29,39c0,0.6-0.4,1-1,1h-8c-0.6,0-1-0.4-1-1s0.4-1,1-1h8
	C28.6,38,29,38.4,29,39z M31,21c-3.3,0-6,2.7-6,6s2.7,6,6,6s6-2.7,6-6S34.3,21,31,21z M32,30.9V29c0-0.6-0.4-1-1-1s-1,0.4-1,1v1.9
	c-1.4-0.4-2.5-1.5-2.9-2.9H29c0.6,0,1-0.4,1-1s-0.4-1-1-1h-1.9c0.4-1.4,1.5-2.5,2.9-2.9V25c0,0.6,0.4,1,1,1s1-0.4,1-1v-1.9
	c1.4,0.4,2.5,1.5,2.9,2.9H33c-0.6,0-1,0.4-1,1s0.4,1,1,1h1.9C34.5,29.4,33.4,30.5,32,30.9z"/>
</svg>
