<?xml version="1.0" encoding="utf-8"?>
<!-- Generator: Adobe Illustrator 17.0.0, SVG Export Plug-In . SVG Version: 6.00 Build 0)  -->
<!DOCTYPE svg PUBLIC "-//W3C//DTD SVG 1.1//EN" "http://www.w3.org/Graphics/SVG/1.1/DTD/svg11.dtd">
<svg version="1.1" id="Layer_1" xmlns="http://www.w3.org/2000/svg" xmlns:xlink="http://www.w3.org/1999/xlink" x="0px" y="0px"
	 width="48px" height="48px" viewBox="0 0 48 48" enable-background="new 0 0 48 48" xml:space="preserve">
<path d="M47,46h-3V10h3c0.6,0,1-0.4,1-1s-0.4-1-1-1h-4h-1V5c0-0.6-0.4-1-1-1H30V1c0-0.6-0.4-1-1-1H19c-0.6,0-1,0.4-1,1v3H7
	C6.4,4,6,4.4,6,5v3H5H1C0.4,8,0,8.4,0,9s0.4,1,1,1h3v36H1c-0.6,0-1,0.4-1,1s0.4,1,1,1h4h16h6h16h4c0.6,0,1-0.4,1-1S47.6,46,47,46z
	 M20,2h8v2h-8V2z M8,6h11h10h11v2H8V6z M22,46v-6h4v6H22z M28,46v-7c0-0.6-0.4-1-1-1h-6c-0.6,0-1,0.4-1,1v7H6V10h1h34h1v36H28z
	 M18,41c0,0.6-0.4,1-1,1h-6c-0.6,0-1-0.4-1-1s0.4-1,1-1h6C17.6,40,18,40.4,18,41z M38,41c0,0.6-0.4,1-1,1h-6c-0.6,0-1-0.4-1-1
	s0.4-1,1-1h6C37.6,40,38,40.4,38,41z M22,33c0,0.6-0.4,1-1,1H11c-0.6,0-1-0.4-1-1s0.4-1,1-1h10C21.6,32,22,32.4,22,33z M38,33
	c0,0.6-0.4,1-1,1H27c-0.6,0-1-0.4-1-1s0.4-1,1-1h10C37.6,32,38,32.4,38,33z M22,27c0,0.6-0.4,1-1,1H11c-0.6,0-1-0.4-1-1s0.4-1,1-1
	h10C21.6,26,22,26.4,22,27z M38,27c0,0.6-0.4,1-1,1H27c-0.6,0-1-0.4-1-1s0.4-1,1-1h10C37.6,26,38,26.4,38,27z M22,21
	c0,0.6-0.4,1-1,1H11c-0.6,0-1-0.4-1-1s0.4-1,1-1h10C21.6,20,22,20.4,22,21z M38,21c0,0.6-0.4,1-1,1H27c-0.6,0-1-0.4-1-1s0.4-1,1-1
	h10C37.6,20,38,20.4,38,21z M22,15c0,0.6-0.4,1-1,1H11c-0.6,0-1-0.4-1-1s0.4-1,1-1h10C21.6,14,22,14.4,22,15z M38,15
	c0,0.6-0.4,1-1,1H27c-0.6,0-1-0.4-1-1s0.4-1,1-1h10C37.6,14,38,14.4,38,15z"/>
</svg>
