<?xml version="1.0" encoding="utf-8"?>
<!-- Generator: Adobe Illustrator 17.0.0, SVG Export Plug-In . SVG Version: 6.00 Build 0)  -->
<!DOCTYPE svg PUBLIC "-//W3C//DTD SVG 1.1//EN" "http://www.w3.org/Graphics/SVG/1.1/DTD/svg11.dtd">
<svg version="1.1" id="Layer_1" xmlns="http://www.w3.org/2000/svg" xmlns:xlink="http://www.w3.org/1999/xlink" x="0px" y="0px"
	 width="48px" height="48px" viewBox="0 0 48 48" enable-background="new 0 0 48 48" xml:space="preserve">
<path d="M26,30c0,0.7-0.4,1.4-1,1.7V37c0,0.6-0.4,1-1,1s-1-0.4-1-1v-5.3c-0.6-0.3-1-1-1-1.7c0-1.1,0.9-2,2-2C25.1,28,26,28.9,26,30z
	 M42,19v28c0,0.6-0.4,1-1,1H7c-0.6,0-1-0.4-1-1V19c0-0.6,0.4-1,1-1h5v-6c0-6.6,5.4-12,12-12c6.6,0,12,5.4,12,12v6h5
	C41.6,18,42,18.4,42,19z M14,18h20v-6c0-5.5-4.5-10-10-10c-5.5,0-10,4.5-10,10V18z M40,20h-5H13H8v26h32V20z"/>
</svg>
