<?xml version="1.0" encoding="utf-8"?>
<!-- Generator: Adobe Illustrator 20.1.0, SVG Export Plug-In . SVG Version: 6.00 Build 0)  -->
<svg version="1.1" id="Layer_1" xmlns="http://www.w3.org/2000/svg" xmlns:xlink="http://www.w3.org/1999/xlink" x="0px" y="0px"
	 viewBox="0 0 48 48" style="enable-background:new 0 0 48 48;" xml:space="preserve">
<path d="M33,39.1l13.6-12.2c1.9-2,1.9-5.1-0.1-7.1c-1-1-2.3-1.5-3.7-1.5c-1.4,0-2.6,0.6-3.6,1.6l-11.1,9.7C28,29.9,27.7,30,27.4,30
	H5c-2.8,0-5,2.2-5,5s2.2,5,5,5h8l-4.8,6.4c-0.3,0.4-0.2,1.1,0.2,1.4C8.6,47.9,8.8,48,9,48c0.3,0,0.6-0.1,0.8-0.4l5.7-7.6h10.9
	l5.7,7.6c0.2,0.3,0.5,0.4,0.8,0.4c0.2,0,0.4-0.1,0.6-0.2c0.4-0.3,0.5-1,0.2-1.4L28.9,40h1.9C31.7,40,32.4,39.7,33,39.1z M5,38
	c-1.7,0-3-1.3-3-3s1.3-3,3-3h22.4c0.8,0,1.6-0.3,2.1-0.9l11-9.7c0,0,0,0,0.1-0.1c0.6-0.6,1.4-1,2.2-1c0.8,0,1.6,0.3,2.2,0.9
	c1.2,1.2,1.2,3.1,0.1,4.2L31.6,37.6c0,0,0,0-0.1,0.1c-0.2,0.2-0.5,0.3-0.7,0.3H5z M12,4V2c0-0.6,0.4-1,1-1s1,0.4,1,1v2
	c0,0.6-0.4,1-1,1S12,4.6,12,4z M18.6,7.3c-0.4-0.4-0.4-1,0-1.4L20,4.5c0.4-0.4,1-0.4,1.4,0c0.4,0.4,0.4,1,0,1.4L20,7.3
	c-0.2,0.2-0.5,0.3-0.7,0.3S18.8,7.5,18.6,7.3z M22,12h2c0.6,0,1,0.4,1,1s-0.4,1-1,1h-2c-0.6,0-1-0.4-1-1S21.5,12,22,12z M20,18.7
	l1.4,1.4c0.4,0.4,0.4,1,0,1.4c-0.2,0.2-0.5,0.3-0.7,0.3c-0.3,0-0.5-0.1-0.7-0.3l-1.4-1.4c-0.4-0.4-0.4-1,0-1.4
	C19,18.3,19.6,18.3,20,18.7z M13,21c0.6,0,1,0.4,1,1v2c0,0.6-0.4,1-1,1s-1-0.4-1-1v-2C12,21.4,12.5,21,13,21z M7.3,18.7
	c0.4,0.4,0.4,1,0,1.4l-1.4,1.4c-0.2,0.2-0.5,0.3-0.7,0.3s-0.5-0.1-0.7-0.3c-0.4-0.4-0.4-1,0-1.4l1.4-1.4C6.3,18.3,6.9,18.3,7.3,18.7
	z M1,13c0-0.6,0.4-1,1-1h2c0.6,0,1,0.4,1,1s-0.4,1-1,1H2C1.5,14,1,13.6,1,13z M4.5,5.9c-0.4-0.4-0.4-1,0-1.4c0.4-0.4,1-0.4,1.4,0
	l1.4,1.4c0.4,0.4,0.4,1,0,1.4C7.1,7.5,6.9,7.6,6.6,7.6c-0.3,0-0.5-0.1-0.7-0.3L4.5,5.9z M13,19c3.3,0,6-2.7,6-6s-2.7-6-6-6
	s-6,2.7-6,6S9.7,19,13,19z M13,9c2.2,0,4,1.8,4,4s-1.8,4-4,4s-4-1.8-4-4S10.8,9,13,9z"/>
</svg>
