<?xml version="1.0" encoding="utf-8"?>
<!-- Generator: Adobe Illustrator 20.1.0, SVG Export Plug-In . SVG Version: 6.00 Build 0)  -->
<svg version="1.1" id="Layer_1" xmlns="http://www.w3.org/2000/svg" xmlns:xlink="http://www.w3.org/1999/xlink" x="0px" y="0px"
	 viewBox="0 0 48 48" style="enable-background:new 0 0 48 48;" xml:space="preserve">
<path d="M23,2C10.3,2,0,12.3,0,25c0,12.7,10.3,23,23,23c12.7,0,23-10.3,23-23C46,12.3,35.7,2,23,2z M23,46C11.4,46,2,36.6,2,25
	C2,13.4,11.4,4,23,4c11.6,0,21,9.4,21,21C44,36.6,34.6,46,23,46z M36,25c0,0.6-0.4,1-1,1H24v11c0,0.6-0.4,1-1,1c-0.6,0-1-0.4-1-1V26
	H11c-0.6,0-1-0.4-1-1s0.4-1,1-1h11V13c0-0.6,0.4-1,1-1c0.6,0,1,0.4,1,1v11h11C35.6,24,36,24.4,36,25z"/>
</svg>
