<?xml version="1.0" encoding="utf-8"?>
<!-- Generator: Adobe Illustrator 17.0.0, SVG Export Plug-In . SVG Version: 6.00 Build 0)  -->
<!DOCTYPE svg PUBLIC "-//W3C//DTD SVG 1.1//EN" "http://www.w3.org/Graphics/SVG/1.1/DTD/svg11.dtd">
<svg version="1.1" id="Layer_1" xmlns="http://www.w3.org/2000/svg" xmlns:xlink="http://www.w3.org/1999/xlink" x="0px" y="0px"
	 width="48px" height="48px" viewBox="0 0 48 48" enable-background="new 0 0 48 48" xml:space="preserve">
<path d="M30,6c0-3.3-2.7-6-6-6s-6,2.7-6,6s2.7,6,6,6S30,9.3,30,6z M20,6c0-2.2,1.8-4,4-4c2.2,0,4,1.8,4,4s-1.8,4-4,4
	C21.8,10,20,8.2,20,6z M30,24c0-3.3-2.7-6-6-6s-6,2.7-6,6s2.7,6,6,6S30,27.3,30,24z M20,24c0-2.2,1.8-4,4-4c2.2,0,4,1.8,4,4
	c0,2.2-1.8,4-4,4C21.8,28,20,26.2,20,24z M30,42c0-3.3-2.7-6-6-6s-6,2.7-6,6s2.7,6,6,6S30,45.3,30,42z M20,42c0-2.2,1.8-4,4-4
	c2.2,0,4,1.8,4,4s-1.8,4-4,4C21.8,46,20,44.2,20,42z"/>
</svg>
