<?xml version="1.0" encoding="utf-8"?>
<!-- Generator: Adobe Illustrator 17.0.0, SVG Export Plug-In . SVG Version: 6.00 Build 0)  -->
<!DOCTYPE svg PUBLIC "-//W3C//DTD SVG 1.1//EN" "http://www.w3.org/Graphics/SVG/1.1/DTD/svg11.dtd">
<svg version="1.1" id="Layer_1" xmlns="http://www.w3.org/2000/svg" xmlns:xlink="http://www.w3.org/1999/xlink" x="0px" y="0px"
	 width="48px" height="48px" viewBox="0 0 48 48" enable-background="new 0 0 48 48" xml:space="preserve">
<path fill="#020202" d="M8,13c0-0.6,0.4-1,1-1h30c0.6,0,1,0.4,1,1c0,0.6-0.4,1-1,1H9C8.5,14,8,13.6,8,13z M39,22H9c-0.6,0-1,0.4-1,1
	c0,0.6,0.5,1,1,1h30c0.6,0,1-0.4,1-1C40,22.4,39.6,22,39,22z M39,32H9c-0.6,0-1,0.4-1,1c0,0.6,0.5,1,1,1h30c0.6,0,1-0.4,1-1
	C40,32.4,39.6,32,39,32z"/>
</svg>
