<?xml version="1.0" encoding="utf-8"?>
<!-- Generator: Adobe Illustrator 17.0.0, SVG Export Plug-In . SVG Version: 6.00 Build 0)  -->
<!DOCTYPE svg PUBLIC "-//W3C//DTD SVG 1.1//EN" "http://www.w3.org/Graphics/SVG/1.1/DTD/svg11.dtd">
<svg version="1.1" id="Layer_1" xmlns="http://www.w3.org/2000/svg" xmlns:xlink="http://www.w3.org/1999/xlink" x="0px" y="0px"
	 width="48px" height="48px" viewBox="0 0 48 48" enable-background="new 0 0 48 48" xml:space="preserve">
<path d="M16,12c0.6,0,1,0.4,1,1s-0.4,1-1,1H7c-0.6,0-1-0.4-1-1s0.4-1,1-1H16z M23,18H7c-0.6,0-1,0.4-1,1s0.4,1,1,1h16
	c0.6,0,1-0.4,1-1S23.5,18,23,18z M20,25c0-0.6-0.4-1-1-1H7c-0.6,0-1,0.4-1,1c0,0.6,0.4,1,1,1h12C19.5,26,20,25.6,20,25z M7,30
	c-0.6,0-1,0.4-1,1s0.4,1,1,1h10c0.6,0,1-0.4,1-1s-0.4-1-1-1H7z M47.7,29.7l-15,15c-0.1,0.1-0.2,0.1-0.3,0.2c0,0,0,0-0.1,0
	c0,0,0,0-0.1,0l-7,2c-0.1,0-0.2,0-0.3,0c-0.3,0-0.5-0.1-0.7-0.3c-0.3-0.3-0.4-0.6-0.3-1l2-7c0,0,0,0,0-0.1c0,0,0,0,0-0.1
	c0-0.1,0.1-0.2,0.2-0.3l15-15c0.4-0.4,1-0.4,1.4,0l5,5C48.1,28.7,48.1,29.3,47.7,29.7z M41.6,33L38,29.4L28.4,39l3.6,3.6L41.6,33z
	 M26.5,44.5l3.6-1l-2.6-2.6L26.5,44.5z M45.6,29L42,25.4L39.4,28l3.6,3.6L45.6,29z M2,42h20v2H1c-0.6,0-1-0.4-1-1V1c0-0.6,0.4-1,1-1
	h22c0.1,0,0.3,0,0.4,0.1c0.1,0.1,0.2,0.1,0.3,0.2l10,10c0.1,0.1,0.2,0.2,0.2,0.3c0,0.1,0,0.2,0.1,0.3c0,0,0,0.1,0,0.1c0,0,0,0,0,0
	s0,0,0,0l0,13.1l-2,0L32,12h-9c-0.6,0-1-0.4-1-1V2H2V42z M24,10h6.6L24,3.4V10z"/>
</svg>
