<?xml version="1.0" encoding="utf-8"?>
<!-- Generator: Adobe Illustrator 20.1.0, SVG Export Plug-In . SVG Version: 6.00 Build 0)  -->
<svg version="1.1" id="Layer_1" xmlns="http://www.w3.org/2000/svg" xmlns:xlink="http://www.w3.org/1999/xlink" x="0px" y="0px"
	 viewBox="0 0 48 48" style="enable-background:new 0 0 48 48;" xml:space="preserve">
<path d="M48,3c0-0.1,0-0.1,0-0.2c0,0,0-0.1,0-0.1c0-0.1,0-0.1-0.1-0.2c0,0,0,0,0-0.1c0,0,0,0,0-0.1c0-0.1-0.1-0.1-0.1-0.1
	c0,0-0.1-0.1-0.1-0.1c0,0,0,0-0.1,0c0,0-0.1,0-0.1,0c0,0-0.1,0-0.1-0.1c-0.1,0-0.1,0-0.2,0c0,0-0.1,0-0.1,0c-0.1,0-0.1,0-0.2,0
	c0,0-0.1,0-0.1,0l-46,19C0.2,21.2,0,21.6,0,22c0,0.4,0.3,0.8,0.6,0.9L18,29.7V45c0,0.5,0.3,0.8,0.7,1c0.1,0,0.2,0,0.3,0
	c0.3,0,0.7-0.2,0.9-0.5l6.6-11.3l12.1,6.6C38.7,41,38.8,41,39,41c0.1,0,0.3,0,0.4-0.1c0.3-0.1,0.5-0.4,0.6-0.7l8-37c0,0,0,0,0,0
	C48,3.1,48,3.1,48,3z M42.3,6L18.8,27.8L3.7,22L42.3,6z M20,41.3V30.7l4.7,2.6L20,41.3z M38.3,38.5l-17.6-9.7l9-8.3L45.4,5.9
	L38.3,38.5z"/>
</svg>
