<?xml version="1.0" encoding="utf-8"?>
<!-- Generator: Adobe Illustrator 20.1.0, SVG Export Plug-In . SVG Version: 6.00 Build 0)  -->
<svg version="1.1" id="Layer_1" xmlns="http://www.w3.org/2000/svg" xmlns:xlink="http://www.w3.org/1999/xlink" x="0px" y="0px"
	 viewBox="0 0 48 48" style="enable-background:new 0 0 48 48;" xml:space="preserve">
<path d="M14,13.1c0-0.6,0.4-1,1-1h18c0.6,0,1,0.4,1,1s-0.4,1-1,1H15C14.4,14.1,14,13.6,14,13.1z M13,28.8c0-5.9,4.5-10.5,10.5-10.8
	c0.2,0,0.3,0,0.5,0c6.1,0,11,4.9,11,11c0,6.1-4.9,11-11,11C17.9,40.1,13,35,13,28.8z M26.7,32.5c0.2-0.8,0.4-1.6,0.5-2.4h-6.5
	c0.1,0.8,0.3,1.6,0.5,2.4H26.7z M22,34.5c0.5,1.1,1.2,2.3,2,3.4c0.8-1.1,1.5-2.3,2-3.4H22z M21.4,24.5c-0.4,1.2-0.6,2.3-0.7,3.6h6.7
	c-0.1-1.2-0.3-2.4-0.7-3.6H21.4z M25.7,22.5c-0.5-0.8-1-1.6-1.7-2.4c-0.7,0.8-1.2,1.6-1.7,2.4H25.7z M28.8,32.5h3.5
	c0.3-0.8,0.5-1.6,0.6-2.4h-3.7C29.2,30.9,29,31.7,28.8,32.5z M32.9,28.1c-0.1-1.3-0.6-2.5-1.2-3.6h-3c0.3,1.2,0.5,2.3,0.6,3.6H32.9z
	 M30.2,22.5c-0.9-0.9-2.1-1.6-3.3-2c0.4,0.6,0.8,1.3,1.1,2H30.2z M21.2,20.5c-1.3,0.4-2.5,1.1-3.5,2H20
	C20.4,21.8,20.7,21.1,21.2,20.5z M16.1,24.5c-0.6,1.1-1,2.3-1.1,3.6h3.7c0-1.2,0.2-2.4,0.6-3.6H16.1z M15.1,30.1
	c0.1,0.9,0.3,1.7,0.7,2.4h3.5c-0.2-0.8-0.4-1.6-0.4-2.4H15.1z M21.5,37.7c-0.6-1.1-1.2-2.1-1.6-3.2h-3C18,36,19.6,37.1,21.5,37.7z
	 M31.1,34.5h-3c-0.4,1.1-0.9,2.1-1.6,3.2C28.4,37.1,30,36,31.1,34.5z M42,5.1v42c0,0.6-0.4,1-1,1H10c-2.2,0-4-1.8-4-4v-41
	c0,0,0,0,0,0c0-1.7,1.3-3,3-3h30c0.6,0,1,0.4,1,1v3h1c0.3,0,0.5,0.1,0.7,0.3S42,4.8,42,5.1z M8,3.1c0,0.6,0.4,1,1,1l29,0v-2H9
	C8.4,2.1,8,2.5,8,3.1z M40,6.1l-31,0C8.6,6.1,8.3,6,8,5.9v38.2c0,1.1,0.9,2,2,2h30V6.1z"/>
</svg>
