<?xml version="1.0" encoding="utf-8"?>
<!-- Generator: Adobe Illustrator 17.0.0, SVG Export Plug-In . SVG Version: 6.00 Build 0)  -->
<!DOCTYPE svg PUBLIC "-//W3C//DTD SVG 1.1//EN" "http://www.w3.org/Graphics/SVG/1.1/DTD/svg11.dtd">
<svg version="1.1" id="Layer_1" xmlns="http://www.w3.org/2000/svg" xmlns:xlink="http://www.w3.org/1999/xlink" x="0px" y="0px"
	 width="48px" height="48px" viewBox="0 0 48 48" enable-background="new 0 0 48 48" xml:space="preserve">
<path d="M12.1,20.1c0-5.1-2.7-9-6.1-9c-3.4,0-6.1,4-6.1,9c0,5.1,2.7,9,6.1,9C9.5,29.2,12.1,25.2,12.1,20.1z M6.1,27.2
	c-2.2,0-4.1-3.2-4.1-7c0-3.8,1.9-7,4.1-7c2.2,0,4.1,3.2,4.1,7C10.1,23.9,8.3,27.2,6.1,27.2z M17.5,16.9l0.2,0c1.6-0.1,3-1,4-2.8
	c0.9-1.6,1.4-3.6,1.3-5.8c-0.2-4.5-2.7-8.1-5.8-8.1l-0.2,0c-1.6,0.1-3,1-4,2.8c-0.9,1.6-1.4,3.6-1.3,5.8
	C11.9,13.4,14.4,16.9,17.5,16.9z M14.7,4.1c0.4-0.6,1.2-1.7,2.4-1.8c1.9,0,3.6,2.8,3.8,6.2c0.1,1.8-0.3,3.4-1,4.7
	c-0.4,0.6-1.2,1.7-2.3,1.8l-0.1,0c-1.9,0-3.6-2.8-3.8-6.2C13.6,7,14,5.3,14.7,4.1z M41.9,11.1c-3.4,0-6.1,4-6.1,9c0,5.1,2.7,9,6.1,9
	s6.1-4,6.1-9C48,15.1,45.3,11.1,41.9,11.1z M41.9,27.2c-2.2,0-4.1-3.2-4.1-7c0-3.8,1.9-7,4.1-7s4.1,3.2,4.1,7
	C46,23.9,44.1,27.2,41.9,27.2z M30.4,16.9l0.2,0c0,0,0,0,0,0c3.1,0,5.6-3.5,5.8-8.1c0.1-2.1-0.4-4.2-1.3-5.8c-1-1.7-2.4-2.7-4-2.8
	l-0.2,0c-3.1,0-5.6,3.5-5.8,8.1c-0.1,2.1,0.4,4.2,1.3,5.8C27.4,15.9,28.8,16.9,30.4,16.9z M31,2.3L31,2.3c1.2,0,2,1.1,2.3,1.8
	c0.7,1.3,1.1,2.9,1,4.7c-0.1,3.3-1.9,6.2-3.8,6.2l-0.1,0c-1.2,0-2-1.1-2.3-1.8c-0.7-1.3-1.1-2.9-1-4.7C27.2,5.1,29,2.3,31,2.3z
	 M31.9,27.1c-0.8-4.1-3.3-8.4-7.9-8.4s-7.1,4.3-7.9,8.4c-0.3,1.3-1.4,2.6-2.7,3.9c-2,2.1-4.2,4.5-4.2,8.1c0,6.2,7.7,9,14.8,9
	s14.8-2.8,14.8-9c0-3.6-2.2-6-4.2-8.1C33.3,29.6,32.1,28.4,31.9,27.1z M24,46c-6.4,0-12.8-2.4-12.8-7c0-2.8,1.9-4.8,3.7-6.7
	c1.5-1.5,2.8-3,3.2-4.9c0.3-1.6,1.7-6.8,5.9-6.8c4.2,0,5.6,5.2,5.9,6.8c0.4,1.9,1.8,3.3,3.2,4.9c1.8,1.9,3.7,3.9,3.7,6.7
	C36.8,43.6,30.4,46,24,46z"/>
</svg>
