<?xml version="1.0" encoding="utf-8"?>
<!-- Generator: Adobe Illustrator 17.0.0, SVG Export Plug-In . SVG Version: 6.00 Build 0)  -->
<!DOCTYPE svg PUBLIC "-//W3C//DTD SVG 1.1//EN" "http://www.w3.org/Graphics/SVG/1.1/DTD/svg11.dtd">
<svg version="1.1" id="Layer_1" xmlns="http://www.w3.org/2000/svg" xmlns:xlink="http://www.w3.org/1999/xlink" x="0px" y="0px"
	 width="48px" height="48px" viewBox="0 0 48 48" enable-background="new 0 0 48 48" xml:space="preserve">
<path d="M45.4,34l-4.9-4.9c-1.1-1.1-2.5-1.7-4-1.7s-2.9,0.6-4,1.6l-1,1c-4.9-4.1-9.5-8.7-13.6-13.6l1-1c2.2-2.2,2.2-5.8,0-8L14,2.6
	C12.9,1.6,11.5,1,10,1S7.1,1.6,6,2.6L3.3,5.3c-2.7,2.7-3.1,6.9-1,10c7.9,12,18.4,22.4,30.4,30.4c1.3,0.9,2.8,1.3,4.4,1.3
	c2.1,0,4.1-0.8,5.6-2.3l2.7-2.7c1.1-1.1,1.6-2.5,1.6-4S46.4,35.1,45.4,34z M43.9,40.6l-2.7,2.7c-1.1,1.1-2.6,1.7-4.2,1.7
	c-1.2,0-2.3-0.3-3.3-1C22,36.3,11.7,26,4,14.2c-1.5-2.3-1.2-5.5,0.8-7.5l2.7-2.7C8.1,3.4,9,3,10,3s1.9,0.4,2.6,1.1L17.5,9
	c1.4,1.4,1.4,3.7,0,5.1l-1.6,1.6c-0.4,0.4-0.4,0.9-0.1,1.3c4.5,5.5,9.7,10.7,15.2,15.2c0.4,0.3,1,0.3,1.3-0.1l1.6-1.6
	c1.4-1.4,3.8-1.4,5.1,0l4.9,4.9C44.6,36.1,45,37,45,38S44.6,39.9,43.9,40.6z"/>
</svg>
