<?xml version="1.0" encoding="utf-8"?>
<!-- Generator: Adobe Illustrator 17.0.0, SVG Export Plug-In . SVG Version: 6.00 Build 0)  -->
<!DOCTYPE svg PUBLIC "-//W3C//DTD SVG 1.1//EN" "http://www.w3.org/Graphics/SVG/1.1/DTD/svg11.dtd">
<svg version="1.1" id="Layer_1" xmlns="http://www.w3.org/2000/svg" xmlns:xlink="http://www.w3.org/1999/xlink" x="0px" y="0px"
	 width="48px" height="48px" viewBox="0 0 48 48" enable-background="new 0 0 48 48" xml:space="preserve">
<path d="M35.5,15.5c0,6-4.6,10.9-10.5,11.5v10c0,0.6-0.4,1-1,1s-1-0.4-1-1V26c0-0.6,0.4-1,1-1c5.2,0,9.5-4.3,9.5-9.5S29.2,6,24,6
	s-9.5,4.3-9.5,9.5c0,0.6-0.4,1-1,1s-1-0.4-1-1C12.5,9.2,17.7,4,24,4C30.3,4,35.5,9.2,35.5,15.5z M24,42c-1.1,0-2,0.9-2,2s0.9,2,2,2
	s2-0.9,2-2S25.1,42,24,42z"/>
</svg>
