<?xml version="1.0" encoding="utf-8"?>
<!-- Generator: Adobe Illustrator 17.0.0, SVG Export Plug-In . SVG Version: 6.00 Build 0)  -->
<!DOCTYPE svg PUBLIC "-//W3C//DTD SVG 1.1//EN" "http://www.w3.org/Graphics/SVG/1.1/DTD/svg11.dtd">
<svg version="1.1" id="Layer_1" xmlns="http://www.w3.org/2000/svg" xmlns:xlink="http://www.w3.org/1999/xlink" x="0px" y="0px"
	 width="48px" height="48px" viewBox="0 0 48 48" enable-background="new 0 0 48 48" xml:space="preserve">
<path d="M30.1,17.4C30,17.3,30,17.1,30,17V7c0-0.6,0.4-1,1-1s1,0.4,1,1v7.6L46.3,0.3c0.4-0.4,1-0.4,1.4,0s0.4,1,0,1.4L33.4,16H41
	c0.6,0,1,0.4,1,1s-0.4,1-1,1H31c-0.1,0-0.3,0-0.4-0.1C30.4,17.8,30.2,17.6,30.1,17.4z M17.4,30.1C17.3,30,17.1,30,17,30H7
	c-0.6,0-1,0.4-1,1s0.4,1,1,1h7.6L0.3,46.3c-0.4,0.4-0.4,1,0,1.4C0.5,47.9,0.7,48,1,48s0.5-0.1,0.7-0.3L16,33.4V41c0,0.6,0.4,1,1,1
	s1-0.4,1-1V31c0-0.1,0-0.3-0.1-0.4C17.8,30.4,17.6,30.2,17.4,30.1z M33.4,32H41c0.6,0,1-0.4,1-1s-0.4-1-1-1H31c-0.1,0-0.3,0-0.4,0.1
	c-0.2,0.1-0.4,0.3-0.5,0.5C30,30.7,30,30.9,30,31v10c0,0.6,0.4,1,1,1s1-0.4,1-1v-7.6l14.3,14.3c0.2,0.2,0.5,0.3,0.7,0.3
	s0.5-0.1,0.7-0.3c0.4-0.4,0.4-1,0-1.4L33.4,32z M17,6c-0.6,0-1,0.4-1,1v7.6L1.7,0.3c-0.4-0.4-1-0.4-1.4,0s-0.4,1,0,1.4L14.6,16H7
	c-0.6,0-1,0.4-1,1s0.4,1,1,1h10c0.1,0,0.3,0,0.4-0.1c0.2-0.1,0.4-0.3,0.5-0.5C18,17.3,18,17.1,18,17V7C18,6.4,17.6,6,17,6z"/>
</svg>
