<?xml version="1.0" encoding="utf-8"?>
<!-- Generator: Adobe Illustrator 17.0.0, SVG Export Plug-In . SVG Version: 6.00 Build 0)  -->
<!DOCTYPE svg PUBLIC "-//W3C//DTD SVG 1.1//EN" "http://www.w3.org/Graphics/SVG/1.1/DTD/svg11.dtd">
<svg version="1.1" id="Layer_1" xmlns="http://www.w3.org/2000/svg" xmlns:xlink="http://www.w3.org/1999/xlink" x="0px" y="0px"
	 width="48px" height="48px" viewBox="0 0 48 48" enable-background="new 0 0 48 48" xml:space="preserve">
<path d="M48,1v10c0,0.6-0.4,1-1,1s-1-0.4-1-1V3.4L31.7,17.7C31.5,17.9,31.3,18,31,18s-0.5-0.1-0.7-0.3c-0.4-0.4-0.4-1,0-1.4L44.6,2
	H37c-0.6,0-1-0.4-1-1s0.4-1,1-1h10c0.1,0,0.3,0,0.4,0.1c0.2,0.1,0.4,0.3,0.5,0.5C48,0.7,48,0.9,48,1z M16.3,30.3L2,44.6V37
	c0-0.6-0.4-1-1-1s-1,0.4-1,1v10c0,0.1,0,0.3,0.1,0.4c0.1,0.2,0.3,0.4,0.5,0.5C0.7,48,0.9,48,1,48h10c0.6,0,1-0.4,1-1s-0.4-1-1-1H3.4
	l14.3-14.3c0.4-0.4,0.4-1,0-1.4S16.7,29.9,16.3,30.3z M3.4,2H11c0.6,0,1-0.4,1-1s-0.4-1-1-1H1C0.9,0,0.7,0,0.6,0.1
	C0.4,0.2,0.2,0.4,0.1,0.6C0,0.7,0,0.9,0,1v10c0,0.6,0.4,1,1,1s1-0.4,1-1V3.4l14.3,14.3c0.2,0.2,0.5,0.3,0.7,0.3s0.5-0.1,0.7-0.3
	c0.4-0.4,0.4-1,0-1.4L3.4,2z M47,36c-0.6,0-1,0.4-1,1v7.6L31.7,30.3c-0.4-0.4-1-0.4-1.4,0s-0.4,1,0,1.4L44.6,46H37c-0.6,0-1,0.4-1,1
	s0.4,1,1,1h10c0.1,0,0.3,0,0.4-0.1c0.2-0.1,0.4-0.3,0.5-0.5C48,47.3,48,47.1,48,47V37C48,36.4,47.6,36,47,36z"/>
</svg>
