<?xml version="1.0" encoding="utf-8"?>
<!-- Generator: Adobe Illustrator 17.0.0, SVG Export Plug-In . SVG Version: 6.00 Build 0)  -->
<!DOCTYPE svg PUBLIC "-//W3C//DTD SVG 1.1//EN" "http://www.w3.org/Graphics/SVG/1.1/DTD/svg11.dtd">
<svg version="1.1" id="Layer_1" xmlns="http://www.w3.org/2000/svg" xmlns:xlink="http://www.w3.org/1999/xlink" x="0px" y="0px"
	 width="48px" height="48px" viewBox="0 0 48 48" enable-background="new 0 0 48 48" xml:space="preserve">
<path d="M47.7,46.3l-5.4-5.4c1.1-1.4,1.7-3.1,1.7-4.9c0-4.4-3.6-8-8-8s-8,3.6-8,8s3.6,8,8,8c1.8,0,3.5-0.6,4.9-1.7l5.4,5.4
	c0.2,0.2,0.5,0.3,0.7,0.3s0.5-0.1,0.7-0.3C48.1,47.3,48.1,46.7,47.7,46.3z M36,42c-3.3,0-6-2.7-6-6s2.7-6,6-6s6,2.7,6,6
	S39.3,42,36,42z M35.3,21.3c0.7-0.3,1.3-0.9,1.6-1.7c0.3-0.7,0.3-1.6-0.1-2.3c-0.6-1.4-2.4-2.1-3.8-1.5l-4.1,1.7
	c-0.1-0.3-0.2-0.5-0.4-0.6l-7-4.4c-0.3-0.2-0.7-0.2-1,0l-3.5,1.8c-0.3,0.2-0.5,0.5-0.5,0.8c0,0.4,0.1,0.7,0.4,0.9l6,4l-4.9,2
	l-3.7-1.7c-0.3-0.1-0.6-0.1-0.9,0L10.1,22c-0.3,0.2-0.5,0.5-0.5,0.8c0,0.3,0.2,0.7,0.5,0.9l7.1,4.6c0.3,0.2,0.6,0.2,0.9,0.1l4.9-1.9
	L20.8,32c-0.1,0.4,0,0.8,0.3,1.1c0.2,0.2,0.4,0.3,0.7,0.3c0.2,0,0.3,0,0.5-0.1l3.5-1.8c0.2-0.1,0.3-0.2,0.4-0.4l4.1-7.6L35.3,21.3z
	 M24.3,18.4l-5-3.3l1.5-0.8l6.1,3.8l-2.2,0.9C24.6,18.8,24.5,18.6,24.3,18.4z M28.7,22.2l-4.2,7.6l-0.9,0.5l2-5.3
	c0.1-0.4,0.1-0.8-0.2-1.1c-0.2-0.2-0.4-0.3-0.7-0.3c-0.1,0-0.2,0-0.4,0.1l-6.6,2.6l-5.3-3.4l1.2-0.7l3.7,1.6c0.2,0.1,0.5,0.1,0.8,0
	l15.6-6.2c0.5-0.2,1.1,0,1.3,0.5c0.1,0.2,0.1,0.5,0,0.8s-0.3,0.4-0.5,0.5l-5.4,2.4C28.9,21.9,28.8,22,28.7,22.2z M21.9,40.8
	c0,0.6-0.4,1-1,1C9.4,41.8,0,32.4,0,20.9C0,9.4,9.4,0,20.9,0c5.2,0,9.9,1.9,13.6,5.1c0,0,0.1,0,0.1,0.1c0,0,0.1,0.1,0.1,0.1
	c4.4,3.8,7.1,9.4,7.1,15.7c0,0.6-0.4,1-1,1s-1-0.4-1-1c0-5.3-2.2-10.2-5.8-13.6l-4.3,4.8c-0.2,0.2-0.5,0.3-0.7,0.3
	c-0.2,0-0.5-0.1-0.7-0.3c-0.4-0.4-0.5-1-0.1-1.4L32.5,6c-2.6-2-5.8-3.4-9.3-3.8c0,0.3-0.2,0.6-0.5,0.7l-6.8,4l1,1.9
	c0.2,0.3,0.2,0.7,0,1l-3.2,5.7c-0.1,0.2-0.3,0.4-0.6,0.5L6,18.2l2.8,9.6l8.4,3.2c0.4,0.1,0.7,0.5,0.7,0.9v4.2c0,0.6-0.4,1-1,1
	s-1-0.4-1-1v-3.5l-8.3-3.1c-0.3-0.1-0.6-0.4-0.6-0.7l-3.2-11c-0.2-0.5,0.1-1.1,0.7-1.2l7.7-2.4L15,9.3L13.8,7
	c-0.3-0.5-0.1-1.1,0.4-1.3L20.3,2C10.1,2.4,2,10.7,2,20.9c0,10.4,8.5,18.9,18.9,18.9C21.4,39.8,21.9,40.2,21.9,40.8z"/>
</svg>
