<?xml version="1.0" encoding="utf-8"?>
<!-- Generator: Adobe Illustrator 17.0.0, SVG Export Plug-In . SVG Version: 6.00 Build 0)  -->
<!DOCTYPE svg PUBLIC "-//W3C//DTD SVG 1.1//EN" "http://www.w3.org/Graphics/SVG/1.1/DTD/svg11.dtd">
<svg version="1.1" id="Layer_1" xmlns="http://www.w3.org/2000/svg" xmlns:xlink="http://www.w3.org/1999/xlink" x="0px" y="0px"
	 width="48px" height="48px" viewBox="0 0 48 48" enable-background="new 0 0 48 48" xml:space="preserve">
<path d="M43.7,42.3l-10-10c2.7-3,4.3-6.9,4.3-11.3c0-9.4-7.6-17-17-17S4,11.6,4,21s7.6,17,17,17c4.3,0,8.3-1.6,11.3-4.3l10,10
	c0.2,0.2,0.5,0.3,0.7,0.3s0.5-0.1,0.7-0.3C44.1,43.3,44.1,42.7,43.7,42.3z M6,21c0-8.3,6.7-15,15-15c8.3,0,15,6.7,15,15
	c0,8.3-6.7,15-15,15C12.7,36,6,29.3,6,21z"/>
</svg>
