<?xml version="1.0" encoding="utf-8"?>
<!-- Generator: Adobe Illustrator 17.0.0, SVG Export Plug-In . SVG Version: 6.00 Build 0)  -->
<!DOCTYPE svg PUBLIC "-//W3C//DTD SVG 1.1//EN" "http://www.w3.org/Graphics/SVG/1.1/DTD/svg11.dtd">
<svg version="1.1" id="Layer_1" xmlns="http://www.w3.org/2000/svg" xmlns:xlink="http://www.w3.org/1999/xlink" x="0px" y="0px"
	 width="48px" height="48px" viewBox="0 0 48 48" enable-background="new 0 0 48 48" xml:space="preserve">
<path d="M44,6v36c0,2.2-1.8,4-4,4H20c-2.2,0-4-1.8-4-4v-9c0-0.6,0.4-1,1-1s1,0.4,1,1v9c0,1.1,0.9,2,2,2h20c1.1,0,2-0.9,2-2V6
	c0-1.1-0.9-2-2-2H20c-1.1,0-2,0.9-2,2v11c0,0.6-0.4,1-1,1s-1-0.4-1-1V6c0-2.2,1.8-4,4-4h20C42.2,2,44,3.8,44,6z M26.3,32.3
	c-0.4,0.4-0.4,1,0,1.4c0.2,0.2,0.5,0.3,0.7,0.3s0.5-0.1,0.7-0.3l8-8c0.1-0.1,0.2-0.2,0.2-0.3c0.1-0.2,0.1-0.5,0-0.8
	c-0.1-0.1-0.1-0.2-0.2-0.3l-8-8c-0.4-0.4-1-0.4-1.4,0s-0.4,1,0,1.4l6.3,6.3H5c-0.6,0-1,0.4-1,1c0,0.6,0.4,1,1,1h27.6L26.3,32.3z"/>
</svg>
