<?xml version="1.0" encoding="utf-8"?>
<!-- Generator: Adobe Illustrator 17.0.0, SVG Export Plug-In . SVG Version: 6.00 Build 0)  -->
<!DOCTYPE svg PUBLIC "-//W3C//DTD SVG 1.1//EN" "http://www.w3.org/Graphics/SVG/1.1/DTD/svg11.dtd">
<svg version="1.1" id="Layer_1" xmlns="http://www.w3.org/2000/svg" xmlns:xlink="http://www.w3.org/1999/xlink" x="0px" y="0px"
	 width="48px" height="48px" viewBox="0 0 48 48" enable-background="new 0 0 48 48" xml:space="preserve">
<path d="M47,30H7c-0.6,0-1,0.4-1,1v8c0,0.6,0.4,1,1,1h40c0.6,0,1-0.4,1-1v-8C48,30.4,47.6,30,47,30z M8,32h28v6H8V32z M46,38h-8v-6
	h8V38z M4,31v8c0,0.6-0.4,1-1,1s-1-0.4-1-1v-8c0-0.6,0.4-1,1-1S4,30.4,4,31z M2,25c0,0.6-0.4,1-1,1s-1-0.4-1-1v-4c0-3.9,3.1-7,7-7
	c2.8,0,5-2.2,5-5c0-0.6,0.4-1,1-1s1,0.4,1,1c0,3.9-3.1,7-7,7c-2.8,0-5,2.2-5,5V25z M6,25c0,0.6-0.4,1-1,1s-1-0.4-1-1
	c0-3.9,3.1-7,7-7c2.8,0,5-2.2,5-5c0-0.6,0.4-1,1-1s1,0.4,1,1c0,3.9-3.1,7-7,7C8.2,20,6,22.2,6,25z"/>
</svg>
