<?xml version="1.0" encoding="utf-8"?>
<!-- Generator: Adobe Illustrator 17.0.0, SVG Export Plug-In . SVG Version: 6.00 Build 0)  -->
<!DOCTYPE svg PUBLIC "-//W3C//DTD SVG 1.1//EN" "http://www.w3.org/Graphics/SVG/1.1/DTD/svg11.dtd">
<svg version="1.1" id="Layer_1" xmlns="http://www.w3.org/2000/svg" xmlns:xlink="http://www.w3.org/1999/xlink" x="0px" y="0px"
	 width="48px" height="48px" viewBox="0 0 48 48" enable-background="new 0 0 48 48" xml:space="preserve">
<path d="M14,19c0-0.6-0.4-1-1-1H3c-0.6,0-1,0.4-1,1v26c0,0.6,0.4,1,1,1h10c0.6,0,1-0.4,1-1V19z M12,44H4V20h8V44z M34.9,17.9
	c-3,0-5.9,1-6.9,1.9v-1c0-0.6-0.4-0.8-1-0.8H17c-0.3,0-0.5,0-0.7,0.2S16,18.6,16,18.9c0.1,1.9,0,25.7,0,25.9c0,0.3,0.1,0.6,0.3,0.8
	c0.2,0.2,0.4,0.4,0.7,0.4h10c0.6,0,1-0.7,1-1.2v-14c0-1.7,1.3-3,3-3s3,1.3,3,3v14c0,0.6,0.5,1.2,1,1.2h10c0.6,0,1-0.7,1-1.2V31.5
	C46,23.1,41.7,17.9,34.9,17.9z M44,44h-8V30.8c0-2.8-2.2-5-5-5s-5,2.2-5,5V44h-8c0-4,0.1-19,0-24h8v1.8c0,0.4,0.2,0.8,0.6,0.9
	c0.4,0.2,0.8,0.1,1.1-0.2c0,0,2.9-2.6,7.2-2.6c5.7,0,9.1,4.3,9.1,11.6V44z M8.1,4C4.6,4,2,6.6,2,9.9c0,3.3,2.6,6.1,6,6.1H8
	c3.5,0,6.1-2.6,6.1-6C14,6.6,11.5,4,8.1,4z M8,14L8,14c-2.6,0-4-2.1-4-4.1c0-2.3,1.7-3.9,4.1-3.9c2.7,0,4,2.1,4,4
	C12.1,12,10.7,14,8,14z"/>
</svg>
