<?xml version="1.0" encoding="utf-8"?>
<!-- Generator: Adobe Illustrator 17.0.0, SVG Export Plug-In . SVG Version: 6.00 Build 0)  -->
<!DOCTYPE svg PUBLIC "-//W3C//DTD SVG 1.1//EN" "http://www.w3.org/Graphics/SVG/1.1/DTD/svg11.dtd">
<svg version="1.1" id="Layer_1" xmlns="http://www.w3.org/2000/svg" xmlns:xlink="http://www.w3.org/1999/xlink" x="0px" y="0px"
	 width="48px" height="48px" viewBox="0 0 48 48" enable-background="new 0 0 48 48" xml:space="preserve">
<path d="M33.1,21.4l-13.5-8.7c-0.3-0.2-0.7-0.2-1,0S18,13.2,18,13.6v17.3c0,0.4,0.2,0.7,0.5,0.9c0.1,0.1,0.3,0.1,0.5,0.1
	c0.2,0,0.4-0.1,0.5-0.2l13.5-8.7c0.3-0.2,0.5-0.5,0.5-0.8S33.4,21.6,33.1,21.4z M20,29.1V15.4l10.7,6.8L20,29.1z M40.1,6H7.9
	C3.5,6,0,9.5,0,13.9v18.2C0,36.5,3.5,40,7.9,40h32.3c4.3,0,7.9-3.5,7.9-7.9V13.9C48,9.5,44.5,6,40.1,6z M46,32.1
	c0,3.2-2.6,5.9-5.9,5.9H7.9C4.6,38,2,35.4,2,32.1V13.9C2,10.6,4.6,8,7.9,8h32.3c3.2,0,5.9,2.6,5.9,5.9V32.1z"/>
</svg>
