<?xml version="1.0" encoding="utf-8"?>
<!-- Generator: Adobe Illustrator 17.0.0, SVG Export Plug-In . SVG Version: 6.00 Build 0)  -->
<!DOCTYPE svg PUBLIC "-//W3C//DTD SVG 1.1//EN" "http://www.w3.org/Graphics/SVG/1.1/DTD/svg11.dtd">
<svg version="1.1" id="Layer_1" xmlns="http://www.w3.org/2000/svg" xmlns:xlink="http://www.w3.org/1999/xlink" x="0px" y="0px"
	 width="48px" height="48px" viewBox="0 0 48 48" enable-background="new 0 0 48 48" xml:space="preserve">
<path d="M47.9,16.7C47.8,16.3,47.4,16,47,16H30.7L24.9,0.6C24.8,0.3,24.4,0,24,0s-0.8,0.3-0.9,0.6L17.3,16H1c-0.4,0-0.8,0.3-0.9,0.7
	c-0.1,0.4,0,0.8,0.3,1.1l13.5,11.6L8.1,46.7c-0.1,0.4,0,0.9,0.4,1.1c0.4,0.3,0.8,0.3,1.2,0L24,37.2l14.4,10.6
	c0.2,0.1,0.4,0.2,0.6,0.2c0.2,0,0.4-0.1,0.6-0.2c0.4-0.3,0.5-0.7,0.4-1.1l-5.8-17.4l13.5-11.6C48,17.5,48.1,17,47.9,16.7z
	 M32.3,28.2c-0.3,0.3-0.4,0.7-0.3,1.1l5,15l-12.5-9.1C24.4,35.1,24.2,35,24,35s-0.4,0.1-0.6,0.2l-12.5,9.1l5-15
	c0.1-0.4,0-0.8-0.3-1.1L3.7,18H18c0.4,0,0.8-0.3,0.9-0.6L24,3.8l5.1,13.5c0.1,0.4,0.5,0.6,0.9,0.6h14.3L32.3,28.2z"/>
</svg>
