<?xml version="1.0" encoding="utf-8"?>
<!-- Generator: Adobe Illustrator 20.1.0, SVG Export Plug-In . SVG Version: 6.00 Build 0)  -->
<svg version="1.1" id="Layer_1" xmlns="http://www.w3.org/2000/svg" xmlns:xlink="http://www.w3.org/1999/xlink" x="0px" y="0px"
	 viewBox="0 0 48 48" style="enable-background:new 0 0 48 48;" xml:space="preserve">
<path d="M46,29h-3v-1c0-0.6-0.4-1-1-1h-2c-0.6,0-1,0.4-1,1v1h-4v-1c0-0.6-0.4-1-1-1h-2c-0.6,0-1,0.4-1,1v1h-3c-0.6,0-1,0.4-1,1v17
	c0,0.6,0.4,1,1,1h18c0.6,0,1-0.4,1-1V30C47,29.4,46.6,29,46,29z M31,31v1c0,0.6,0.4,1,1,1h2c0.6,0,1-0.4,1-1v-1h4v1c0,0.6,0.4,1,1,1
	h2c0.6,0,1-0.4,1-1v-1h2v4H29v-4H31z M29,46v-9h16v9H29z M39,13V1c0-0.6-0.4-1-1-1H25.5c-0.3,0-0.5,0.1-0.7,0.3L0.3,24.8
	c-0.4,0.4-0.4,1,0,1.4l12.5,12.5c0.2,0.2,0.4,0.3,0.7,0.3c0.3,0,0.5-0.1,0.7-0.3l24.5-25C38.9,13.5,39,13.3,39,13z M37,12.6
	l-23.5,24L2.4,25.5L25.9,2H37V12.6z M31,12c2.2,0,4-1.8,4-4s-1.8-4-4-4s-4,1.8-4,4S28.8,12,31,12z M31,6c1.1,0,2,0.9,2,2s-0.9,2-2,2
	s-2-0.9-2-2S29.9,6,31,6z"/>
</svg>
