<?xml version="1.0" encoding="utf-8"?>
<!-- Generator: Adobe Illustrator 20.1.0, SVG Export Plug-In . SVG Version: 6.00 Build 0)  -->
<svg version="1.1" id="Layer_1" xmlns="http://www.w3.org/2000/svg" xmlns:xlink="http://www.w3.org/1999/xlink" x="0px" y="0px"
	 viewBox="0 0 48 48" style="enable-background:new 0 0 48 48;" xml:space="preserve">
<path d="M46.8,35.9c-0.2-0.3-5.5-6.9-12.3-6.9s-12.1,6.6-12.3,6.9c-0.3,0.4-0.3,0.9,0,1.2c0.2,0.3,5.5,6.9,12.3,6.9
	s12.1-6.6,12.3-6.9C47.1,36.8,47.1,36.2,46.8,35.9z M34.5,42c-4.7,0-8.7-3.9-10.2-5.5c1.4-1.6,5.5-5.5,10.2-5.5s8.7,3.9,10.2,5.5
	C43.2,38.1,39.2,42,34.5,42z M34.5,33c-1.9,0-3.5,1.6-3.5,3.5s1.6,3.5,3.5,3.5s3.5-1.6,3.5-3.5S36.4,33,34.5,33z M34.5,38
	c-0.8,0-1.5-0.7-1.5-1.5s0.7-1.5,1.5-1.5s1.5,0.7,1.5,1.5S35.3,38,34.5,38z M39,13V1c0-0.6-0.4-1-1-1H25.5c-0.3,0-0.5,0.1-0.7,0.3
	L0.3,24.8c-0.4,0.4-0.4,1,0,1.4l12.5,12.5c0.2,0.2,0.4,0.3,0.7,0.3c0.2,0,0.5-0.1,0.7-0.3l24.5-25C38.9,13.5,39,13.3,39,13z
	 M37,12.6l-23.5,24L2.4,25.5L25.9,2H37V12.6z M31,12c2.2,0,4-1.8,4-4s-1.8-4-4-4s-4,1.8-4,4S28.8,12,31,12z M31,6c1.1,0,2,0.9,2,2
	s-0.9,2-2,2s-2-0.9-2-2S29.9,6,31,6z"/>
</svg>
