<?xml version="1.0" encoding="utf-8"?>
<!-- Generator: Adobe Illustrator 20.1.0, SVG Export Plug-In . SVG Version: 6.00 Build 0)  -->
<svg version="1.1" id="Layer_1" xmlns="http://www.w3.org/2000/svg" xmlns:xlink="http://www.w3.org/1999/xlink" x="0px" y="0px"
	 viewBox="0 0 48 48" style="enable-background:new 0 0 48 48;" xml:space="preserve">
<path d="M47,36h-1V25c0-0.6-0.4-1-1-1h-3.2c-1.5-4.7-5.9-8-11-8h-4.3l-1.6-3.4C24.7,12.2,24.4,12,24,12h-4c-0.4,0-0.8,0.3-1,0.7
	c-0.3,1.2-0.7,2.5-0.9,3.3H16c-0.4,0-0.7,0.2-0.9,0.6L11.4,24H3c-0.6,0-1,0.4-1,1v11H1c-0.6,0-1,0.4-1,1s0.4,1,1,1h5.1
	c0.5,2.3,2.5,4,4.9,4s4.4-1.7,4.9-4h12.2c0.5,2.3,2.5,4,4.9,4s4.4-1.7,4.9-4H47c0.6,0,1-0.4,1-1S47.6,36,47,36z M20.8,14h2.6l0.9,2
	h-4.1C20.3,15.5,20.5,14.8,20.8,14z M4,26h8c0.4,0,0.7-0.2,0.9-0.6l3.7-7.4h14.1c4.4,0,8.2,3,9.3,7.2c0.1,0.4,0.5,0.8,1,0.8h3v10
	h-6.1c-0.5-2.3-2.5-4-4.9-4s-4.4,1.7-4.9,4H15.9c-0.5-2.3-2.5-4-4.9-4s-4.4,1.7-4.9,4H4V26z M11,40c-1.7,0-3-1.3-3-3s1.3-3,3-3
	s3,1.3,3,3S12.7,40,11,40z M33,40c-1.7,0-3-1.3-3-3s1.3-3,3-3s3,1.3,3,3S34.7,40,33,40z M16.1,24.6l2-4c0.2-0.3,0.5-0.6,0.9-0.6h2
	c0.6,0,1,0.4,1,1s-0.4,1-1,1h-1.4l-1.7,3.4C17.7,25.8,17.4,26,17,26c-0.1,0-0.3,0-0.4-0.1C16.1,25.6,15.9,25,16.1,24.6z M18,30h-2
	v-2h2V30z M14,30h-2v-2h2V30z M10,30H8v-2h2V30z M20,28h2v2h-2V28z M26,30h-2v-2h2V30z M30,30h-2v-2h2V30z M34,30h-2v-2h2V30z
	 M38,30h-2v-2h2V30z M42,30h-2v-2h2V30z"/>
</svg>
