<?xml version="1.0" encoding="utf-8"?>
<!-- Generator: Adobe Illustrator 17.0.0, SVG Export Plug-In . SVG Version: 6.00 Build 0)  -->
<!DOCTYPE svg PUBLIC "-//W3C//DTD SVG 1.1//EN" "http://www.w3.org/Graphics/SVG/1.1/DTD/svg11.dtd">
<svg version="1.1" id="Layer_1" xmlns="http://www.w3.org/2000/svg" xmlns:xlink="http://www.w3.org/1999/xlink" x="0px" y="0px"
	 width="48px" height="48px" viewBox="0 0 48 48" enable-background="new 0 0 48 48" xml:space="preserve">
<path d="M47,19c0.6,0,1-0.4,1-1V9c0-0.6-0.4-1-1-1H1C0.4,8,0,8.4,0,9v9c0,0.6,0.4,1,1,1c2.8,0,5,2.2,5,5s-2.2,5-5,5
	c-0.6,0-1,0.4-1,1v9c0,0.6,0.4,1,1,1h46c0.6,0,1-0.4,1-1v-9c0-0.6-0.4-1-1-1c-2.8,0-5-2.2-5-5S44.2,19,47,19z M40,24
	c0,3.5,2.6,6.4,6,6.9V38h-8v-2h-2v2H2v-7.1c3.4-0.5,6-3.4,6-6.9s-2.6-6.4-6-6.9V10h44v7.1C42.6,17.6,40,20.5,40,24z M36,12h2v2h-2
	V12z M36,16h2v2h-2V16z M36,20h2v2h-2V20z M36,24h2v2h-2V24z M36,28h2v2h-2V28z M36,32h2v2h-2V32z M31,14H13c-0.6,0-1,0.4-1,1v18
	c0,0.6,0.4,1,1,1h18c0.6,0,1-0.4,1-1V15C32,14.4,31.6,14,31,14z M30,32H14V16h16V32z M18,21c0-0.6,0.4-1,1-1h6c0.6,0,1,0.4,1,1
	s-0.4,1-1,1h-6C18.4,22,18,21.6,18,21z M18,27c0-0.6,0.4-1,1-1h6c0.6,0,1,0.4,1,1s-0.4,1-1,1h-6C18.4,28,18,27.6,18,27z"/>
</svg>
