<?xml version="1.0" encoding="utf-8"?>
<!-- Generator: Adobe Illustrator 17.0.0, SVG Export Plug-In . SVG Version: 6.00 Build 0)  -->
<!DOCTYPE svg PUBLIC "-//W3C//DTD SVG 1.1//EN" "http://www.w3.org/Graphics/SVG/1.1/DTD/svg11.dtd">
<svg version="1.1" id="Layer_1" xmlns="http://www.w3.org/2000/svg" xmlns:xlink="http://www.w3.org/1999/xlink" x="0px" y="0px"
	 width="48px" height="48px" viewBox="0 0 48 48" enable-background="new 0 0 48 48" xml:space="preserve">
<path d="M47.7,3.3l-3-3c-0.3-0.3-0.9-0.4-1.3-0.1l-7.1,4.9c-0.2,0.2-0.4,0.4-0.4,0.7s0.1,0.6,0.3,0.8l1.9,1.9L18.2,28.4l-3.5-3.5
	c-0.4-0.4-1-0.4-1.4,0c-0.4,0.4-0.4,1,0,1.4l1.4,1.4L2.2,40.1c-0.8,0.8-1.2,1.8-1.2,2.8s0.4,2.1,1.2,2.8C3,46.5,4,46.9,5,46.9
	c1.1,0,2.1-0.4,2.8-1.2l12.4-12.4l1.4,1.4c0.2,0.2,0.5,0.3,0.7,0.3s0.5-0.1,0.7-0.3c0.4-0.4,0.4-1,0-1.4l-3.5-3.5L39.5,9.9l1.7,1.7
	c0.2,0.2,0.4,0.3,0.7,0.3c0,0,0,0,0.1,0c0.3,0,0.6-0.2,0.7-0.4l5.1-6.9C48.1,4.2,48,3.6,47.7,3.3z M6.5,44.3c-0.8,0.8-2.1,0.8-2.8,0
	c-0.4-0.4-0.6-0.9-0.6-1.4c0-0.5,0.2-1,0.6-1.4L16,29.1l2.8,2.8L6.5,44.3z M41.7,9.3l-3.3-3.3l5.4-3.8l1.8,1.8L41.7,9.3z M2.6,15.4
	C0,12.8-0.7,9,0.7,5.6c0.1-0.3,0.4-0.5,0.7-0.6c0.3-0.1,0.7,0,0.9,0.2l3.8,3.6h2.6V6.2L5.3,2.3C5,2.1,5,1.7,5,1.4s0.3-0.6,0.6-0.7
	C9-0.7,12.7,0,15.3,2.6c2.4,2.4,3.3,6,2.2,9.2l7,7l-1.4,1.4l-7.5-7.5c-0.3-0.3-0.4-0.7-0.2-1.1c1.1-2.6,0.5-5.6-1.5-7.7
	C12.2,2.4,10,1.7,7.8,2.1l2.7,3.1c0.2,0.2,0.3,0.4,0.3,0.7v4c0,0.6-0.4,1-1,1h-4c-0.3,0-0.5-0.1-0.7-0.3l-3-2.7
	C1.7,10.1,2.4,12.4,4,14c2,2,5,2.6,7.7,1.5c0.4-0.2,0.8-0.1,1.1,0.2l7.5,7.5l-1.4,1.4l-7-7C8.6,18.7,5,17.9,2.6,15.4z M45,32.3
	c2.6,2.6,3.4,6.5,1.9,9.9c-0.1,0.3-0.4,0.5-0.7,0.6c-0.3,0.1-0.6,0-0.9-0.2l-4-3.7h-2.6v2.6l3.8,3.9c0.2,0.2,0.3,0.6,0.3,0.9
	c-0.1,0.3-0.3,0.6-0.6,0.7c-1.1,0.5-2.3,0.7-3.5,0.7c-2.3,0-4.6-0.9-6.3-2.6c-2.4-2.4-3.3-6-2.2-9.2l-7-7l1.4-1.4l7.5,7.5
	c0.3,0.3,0.4,0.7,0.2,1.1c-1.1,2.6-0.5,5.6,1.5,7.7c1.7,1.7,4,2.3,6.2,1.9l-2.9-3c-0.2-0.2-0.3-0.4-0.3-0.7v-4c0-0.6,0.4-1,1-1h4
	c0.3,0,0.5,0.1,0.7,0.3l3.1,2.9c0.4-2.2-0.3-4.6-1.9-6.2c-2-2-5-2.6-7.7-1.5c-0.4,0.2-0.8,0.1-1.1-0.2l-7.5-7.5l1.4-1.4l7,7
	C39,29.1,42.5,29.9,45,32.3z"/>
</svg>
