<?xml version="1.0" encoding="utf-8"?>
<!-- Generator: Adobe Illustrator 17.0.0, SVG Export Plug-In . SVG Version: 6.00 Build 0)  -->
<!DOCTYPE svg PUBLIC "-//W3C//DTD SVG 1.1//EN" "http://www.w3.org/Graphics/SVG/1.1/DTD/svg11.dtd">
<svg version="1.1" id="Layer_1" xmlns="http://www.w3.org/2000/svg" xmlns:xlink="http://www.w3.org/1999/xlink" x="0px" y="0px"
	 width="48px" height="48px" viewBox="0 0 48 48" enable-background="new 0 0 48 48" xml:space="preserve">
<path d="M45.9,38.4c-1.5-2.9-6.5-4.8-13.4-7.3c-0.8-0.3-1.6-0.6-2.5-0.9v-4.8c0.9-0.7,2.8-2.7,3-5.9c0.5-0.4,0.8-1,1-1.9
	c0.3-1.4,0.2-3.1-0.8-4.1c0.1-0.1,0.1-0.3,0.2-0.5c0.8-1.9,2.2-5.5,1.6-8.4C34.3,1.2,29.4,0,25.4,0c-3.1,0-6.9,0.8-8.1,2.9
	c-1.2,0.1-2.1,0.6-2.7,1.5c-1.7,2.3-0.5,6.5,0.2,8.7c0,0.1,0.1,0.2,0.1,0.3c-1,1-1.2,2.7-0.9,4.1c0.2,0.9,0.6,1.5,1,1.9
	c0.2,3.2,2.1,5.1,3,5.9v4.8c-0.8,0.3-1.7,0.6-2.5,0.9c-6.9,2.6-12,4.4-13.4,7.3C0,42.6,0,46.8,0,47c0,0.6,0.4,1,1,1h46
	c0.6,0,1-0.4,1-1C48,46.8,48,42.6,45.9,38.4z M2.1,46c0.1-1.4,0.5-4.1,1.8-6.7c1.1-2.2,6.3-4.1,12.3-6.4c1-0.4,2.1-0.8,3.1-1.2
	c0.4-0.1,0.6-0.5,0.6-0.9v-6c0-0.3-0.2-0.6-0.4-0.8c0,0-2.6-1.7-2.6-5.2c0-0.5-0.3-0.9-0.7-1c-0.2-0.3-0.5-1.2-0.4-2.1
	c0.1-0.5,0.3-0.9,0.6-1c0.3-0.2,0.6-0.5,0.6-0.9c0-0.3-0.1-0.6-0.3-1.3c-0.5-1.6-1.6-5.4-0.5-7c0.4-0.5,0.9-0.7,1.8-0.7
	c0.5,0,0.9-0.3,1-0.8c0.3-1,2.7-2.1,6.4-2.1c3.5,0,7.2,1.1,7.6,3.1c0.4,2.2-0.8,5.5-1.5,7.2c-0.3,0.9-0.5,1.2-0.5,1.6
	c0,0.4,0.2,0.7,0.6,0.9c0.3,0.2,0.5,0.5,0.6,1c0.1,0.9-0.2,1.8-0.4,2.1c-0.4,0.1-0.7,0.5-0.7,1c0,3.4-2.5,5.1-2.6,5.2
	c-0.3,0.2-0.4,0.5-0.4,0.8v6c0,0.4,0.3,0.8,0.6,0.9c1.1,0.4,2.1,0.8,3.1,1.2c6,2.2,11.2,4.1,12.3,6.4c1.3,2.6,1.7,5.3,1.8,6.7H2.1z"
	/>
</svg>
