<?xml version="1.0" encoding="utf-8"?>
<!-- Generator: Adobe Illustrator 20.1.0, SVG Export Plug-In . SVG Version: 6.00 Build 0)  -->
<svg version="1.1" id="Layer_1" xmlns="http://www.w3.org/2000/svg" xmlns:xlink="http://www.w3.org/1999/xlink" x="0px" y="0px"
	 viewBox="0 0 48 48" style="enable-background:new 0 0 48 48;" xml:space="preserve">
<path d="M34,31c0-0.6,0.4-1,1-1h8c0.6,0,1,0.4,1,1s-0.4,1-1,1h-8C34.4,32,34,31.6,34,31z M31,36h12c0.6,0,1-0.4,1-1s-0.4-1-1-1H31
	c-0.6,0-1,0.4-1,1S30.4,36,31,36z M31,40h12c0.6,0,1-0.4,1-1s-0.4-1-1-1H31c-0.6,0-1,0.4-1,1S30.4,40,31,40z M31,44h12
	c0.6,0,1-0.4,1-1s-0.4-1-1-1H31c-0.6,0-1,0.4-1,1S30.4,44,31,44z M48,27v20c0,0.6-0.4,1-1,1H27c-0.6,0-1-0.4-1-1V27c0-0.6,0.4-1,1-1
	h20C47.6,26,48,26.4,48,27z M46,28H28v18h18V28z M28.2,11.8c0-1.1-0.4-2.1-0.9-2.6C27.7,8,28.5,5.8,28,3.6C27.3,0.9,23.5,0,20.5,0
	c-2.7,0-6,0.7-7.1,2.8c-1-0.1-1.8,0.2-2.4,0.8c-1.3,1.5-0.6,4.2-0.2,5.7c-0.2,0.2-0.4,0.4-0.6,0.7c-0.3,0.5-0.4,1.2-0.4,1.8
	c0,1.3,0.5,2.3,1.2,2.7c0.2,3.5,2,5.2,3,5.9v3.7c-1.2,0.5-2.5,0.9-3.8,1.3c-4.7,1.6-8.4,2.8-9.2,5.1c-1,3-1,8.2-1.1,8.4
	c0,0.3,0.1,0.5,0.3,0.7C0.5,39.9,0.7,40,1,40h21v-2H2c0.1-1.6,0.3-4.9,0.9-6.8c0.5-1.4,4.4-2.7,7.9-3.8c1.5-0.5,3-1,4.5-1.6
	c0.4-0.1,0.6-0.5,0.6-0.9v-5c0-0.4-0.2-0.8-0.6-0.9c-0.1,0-2.4-1.1-2.4-5.1c0-0.6-0.4-1-0.9-1c-0.1-0.1-0.3-0.4-0.3-1s0.2-1,0.2-1
	c0.6,0,1-0.4,1-1c0-0.2-0.1-0.5-0.2-1C12.5,8,11.8,5.6,12.4,5c0.2-0.2,0.7-0.2,1.4-0.1c0.5,0.1,1-0.2,1.2-0.7
	C15.3,2.9,17.6,2,20.5,2s5.2,0.9,5.5,2.1c0.4,1.7-0.3,3.5-0.7,4.5C25.1,9.1,25,9.4,25,9.7c0,0.5,0.4,1,0.9,1
	c0.1,0.1,0.2,0.5,0.2,1.1s-0.2,1-0.2,1.1c-0.5,0-0.9,0.5-0.9,1c0,4-2.3,5-2.4,5.1c-0.4,0.2-0.6,0.5-0.6,0.9v5h2v-4.4
	c1-0.7,2.8-2.3,3-5.9C27.7,14.1,28.2,13.1,28.2,11.8z"/>
</svg>
