<?xml version="1.0" encoding="utf-8"?>
<!-- Generator: Adobe Illustrator 17.0.0, SVG Export Plug-In . SVG Version: 6.00 Build 0)  -->
<!DOCTYPE svg PUBLIC "-//W3C//DTD SVG 1.1//EN" "http://www.w3.org/Graphics/SVG/1.1/DTD/svg11.dtd">
<svg version="1.1" id="Layer_1" xmlns="http://www.w3.org/2000/svg" xmlns:xlink="http://www.w3.org/1999/xlink" x="0px" y="0px"
	 width="48px" height="48px" viewBox="0 0 48 48" enable-background="new 0 0 48 48" xml:space="preserve">
<path d="M45.5,12.1c-0.3-0.2-0.7-0.2-1,0L34,17.4V13c0-1.7-1.3-3-3-3H5c-1.7,0-3,1.3-3,3v22c0,1.7,1.3,3,3,3h26c1.7,0,3-1.3,3-3
	v-4.4l10.6,5.3C44.7,36,44.8,36,45,36c0.2,0,0.4,0,0.5-0.1c0.3-0.2,0.5-0.5,0.5-0.9V13C46,12.7,45.8,12.3,45.5,12.1z M32,35
	c0,0.6-0.4,1-1,1H5c-0.6,0-1-0.4-1-1V13c0-0.6,0.4-1,1-1h26c0.6,0,1,0.4,1,1V35z M44,33.4l-10-5v-8.8l10-5V33.4z"/>
</svg>
