<?xml version="1.0" encoding="utf-8"?>
<!-- Generator: Adobe Illustrator 17.0.0, SVG Export Plug-In . SVG Version: 6.00 Build 0)  -->
<!DOCTYPE svg PUBLIC "-//W3C//DTD SVG 1.1//EN" "http://www.w3.org/Graphics/SVG/1.1/DTD/svg11.dtd">
<svg version="1.1" id="Layer_1" xmlns="http://www.w3.org/2000/svg" xmlns:xlink="http://www.w3.org/1999/xlink" x="0px" y="0px"
	 width="48px" height="48px" viewBox="0 0 48 48" enable-background="new 0 0 48 48" xml:space="preserve">
<path d="M28,24c0-0.3-0.1-0.6-0.3-0.7l-26-23C1.4,0,0.9-0.1,0.6,0.1C0.2,0.3,0,0.6,0,1v46c0,0.4,0.2,0.8,0.6,0.9C0.7,48,0.9,48,1,48
	c0.2,0,0.5-0.1,0.7-0.3l26-23C27.9,24.6,28,24.3,28,24z M2,44.8V3.2L25.5,24L2,44.8z M48,24c0,0.3-0.1,0.6-0.3,0.7l-26,23
	C21.5,47.9,21.2,48,21,48c-0.1,0-0.3,0-0.4-0.1C20.2,47.8,20,47.4,20,47v-9c0-0.6,0.4-1,1-1s1,0.4,1,1v6.8L45.5,24L22,3.2V10
	c0,0.6-0.4,1-1,1s-1-0.4-1-1V1c0-0.4,0.2-0.8,0.6-0.9c0.4-0.2,0.8-0.1,1.1,0.2l26,23C47.9,23.4,48,23.7,48,24z"/>
</svg>
