<?xml version="1.0" encoding="utf-8"?>
<!-- Generator: Adobe Illustrator 20.1.0, SVG Export Plug-In . SVG Version: 6.00 Build 0)  -->
<svg version="1.1" id="Layer_1" xmlns="http://www.w3.org/2000/svg" xmlns:xlink="http://www.w3.org/1999/xlink" x="0px" y="0px"
	 viewBox="0 0 48 48" style="enable-background:new 0 0 48 48;" xml:space="preserve">
<path d="M6.4,6.3C6.2,6.5,5.9,6.6,5.7,6.6S5.2,6.5,5,6.3L3.4,4.8C3,4.4,3,3.8,3.4,3.4s1-0.4,1.4,0l1.6,1.6C6.8,5.3,6.8,5.9,6.4,6.3z
	 M24.3,6.6c0.3,0,0.5-0.1,0.7-0.3l1.6-1.6c0.4-0.4,0.4-1,0-1.4s-1-0.4-1.4,0l-1.6,1.6c-0.4,0.4-0.4,1,0,1.4
	C23.8,6.5,24.1,6.6,24.3,6.6z M44.7,26c0.7-2.1,0.3-4.4-1.1-6.2C42.2,18,40.2,17,37.9,17c-1.9-4.2-6.2-7-10.9-7
	c-5.9,0-11,4.4-11.9,10.2C9.9,21,6,25.6,6,31c0,3.9,2.1,7.5,5.4,9.5c0.2,0.1,0.3,0.1,0.5,0.1c0.3,0,0.7-0.2,0.9-0.5
	c0.3-0.5,0.1-1.1-0.3-1.4C9.7,37.1,8,34.2,8,31c0-4.7,3.5-8.5,8.1-9c0.5,0,0.9-0.4,0.9-0.9C17.5,16,21.9,12,27,12
	c4.2,0,7.8,2.5,9.3,6.4c0.2,0.4,0.6,0.7,1.1,0.6c1.8-0.2,3.5,0.5,4.6,2c1.1,1.5,1.3,3.3,0.6,5c-0.2,0.4,0,1,0.4,1.2
	c1.9,1.3,3.1,3.5,3.1,5.8c0,2.1-1,4.1-2.6,5.5c-0.4,0.3-0.5,1-0.2,1.4c0.3,0.4,1,0.5,1.4,0.2c2.2-1.7,3.4-4.3,3.4-7
	C48,30.3,46.8,27.7,44.7,26z M20.7,36.3c-0.4-0.4-1-0.4-1.4,0l-10,10c-0.4,0.4-0.4,1,0,1.4C9.5,47.9,9.7,48,10,48s0.5-0.1,0.7-0.3
	l10-10C21.1,37.3,21.1,36.7,20.7,36.3z M30.7,36.3c-0.4-0.4-1-0.4-1.4,0l-10,10c-0.4,0.4-0.4,1,0,1.4c0.2,0.2,0.5,0.3,0.7,0.3
	s0.5-0.1,0.7-0.3l10-10C31.1,37.3,31.1,36.7,30.7,36.3z M39.3,36.3l-10,10c-0.4,0.4-0.4,1,0,1.4c0.2,0.2,0.5,0.3,0.7,0.3
	s0.5-0.1,0.7-0.3l10-10c0.4-0.4,0.4-1,0-1.4S39.7,35.9,39.3,36.3z M7.5,20c0.2,0.3,0.5,0.4,0.8,0.4c0.2,0,0.4-0.1,0.6-0.2
	c0.5-0.3,0.6-0.9,0.3-1.4C8.4,17.7,8,16.4,8,15c0-3.9,3.1-7,7-7c1.6,0,3.2,0.6,4.4,1.6c0.4,0.3,1.1,0.3,1.4-0.1
	C21.2,9,21.1,8.4,20.7,8c-1.6-1.3-3.6-2-5.7-2c-5,0-9,4-9,9C6,16.8,6.5,18.5,7.5,20z M3,12H1c-0.6,0-1,0.4-1,1s0.4,1,1,1h2
	c0.6,0,1-0.4,1-1S3.6,12,3,12z M15,4c0.6,0,1-0.4,1-1V1c0-0.6-0.4-1-1-1s-1,0.4-1,1v2C14,3.6,14.4,4,15,4z"/>
</svg>
