<?xml version="1.0" encoding="utf-8"?>
<!-- Generator: Adobe Illustrator 20.1.0, SVG Export Plug-In . SVG Version: 6.00 Build 0)  -->
<svg version="1.1" id="Layer_1" xmlns="http://www.w3.org/2000/svg" xmlns:xlink="http://www.w3.org/1999/xlink" x="0px" y="0px"
	 viewBox="0 0 48 48" style="enable-background:new 0 0 48 48;" xml:space="preserve">
<path d="M42.7,16c0.7-2.1,0.3-4.4-1.1-6.2C40.2,8,38.1,7,35.9,7C34,2.8,29.7,0,25,0c-5.9,0-11,4.4-11.9,10.2C7.9,11,4,15.6,4,21
	c0,6.1,4.9,11,11,11h22c5,0,9-4,9-9C46,20.3,44.8,17.7,42.7,16z M37,30H15c-5,0-9-4-9-9c0-4.7,3.5-8.5,8.1-9c0.5,0,0.9-0.4,0.9-0.9
	C15.5,6,19.9,2,25,2c4.2,0,7.8,2.5,9.3,6.4c0.2,0.4,0.6,0.7,1.1,0.6c1.8-0.2,3.5,0.5,4.6,2c1.1,1.5,1.3,3.3,0.6,5
	c-0.2,0.4,0,1,0.4,1.2c1.9,1.3,3.1,3.5,3.1,5.8C44,26.9,40.9,30,37,30z M33.7,36.3c0.4,0.4,0.4,1,0,1.4l-7.8,7.8
	c0,0.2,0.1,0.3,0.1,0.5c0,1.1-0.9,2-2,2c-1.1,0-2-0.9-2-2s0.9-2,2-2c0.2,0,0.3,0,0.5,0.1l7.8-7.8C32.7,35.9,33.3,35.9,33.7,36.3z
	 M17.9,43.5c0,0.2,0.1,0.3,0.1,0.5c0,1.1-0.9,2-2,2s-2-0.9-2-2s0.9-2,2-2c0.2,0,0.3,0,0.5,0.1l5.8-5.8c0.4-0.4,1-0.4,1.4,0
	s0.4,1,0,1.4L17.9,43.5z M13.7,37.7l-7.8,7.8C6,45.7,6,45.8,6,46c0,1.1-0.9,2-2,2s-2-0.9-2-2s0.9-2,2-2c0.2,0,0.3,0,0.5,0.1l7.8-7.8
	c0.4-0.4,1-0.4,1.4,0S14.1,37.3,13.7,37.7z"/>
</svg>
