<?xml version="1.0" encoding="utf-8"?>
<!-- Generator: Adobe Illustrator 20.1.0, SVG Export Plug-In . SVG Version: 6.00 Build 0)  -->
<svg version="1.1" id="Layer_1" xmlns="http://www.w3.org/2000/svg" xmlns:xlink="http://www.w3.org/1999/xlink" x="0px" y="0px"
	 viewBox="0 0 48 48" style="enable-background:new 0 0 48 48;" xml:space="preserve">
<path d="M37.3,45.9c-8-3.9-13.1-12.5-13.1-21.9c0-9.5,5.1-18.1,13.1-21.9c0.4-0.2,0.6-0.6,0.6-1.1s-0.4-0.8-0.9-0.8
	C36,0.1,35.1,0,34.2,0c-13.2,0-24,10.8-24,24s10.8,24,24,24c0.9,0,1.8-0.1,2.8-0.2c0.4,0,0.8-0.4,0.9-0.8
	C37.9,46.6,37.7,46.1,37.3,45.9z M12.2,24c0-11.9,9.4-21.6,21.2-22c-6.9,4.7-11.2,13-11.2,22c0,9,4.3,17.3,11.2,22
	C21.6,45.6,12.2,35.9,12.2,24z"/>
</svg>
