<?xml version="1.0" encoding="utf-8"?>
<!-- Generator: Adobe Illustrator 20.1.0, SVG Export Plug-In . SVG Version: 6.00 Build 0)  -->
<svg version="1.1" id="Layer_1" xmlns="http://www.w3.org/2000/svg" xmlns:xlink="http://www.w3.org/1999/xlink" x="0px" y="0px"
	 viewBox="0 0 48 48" style="enable-background:new 0 0 48 48;" xml:space="preserve">
<path d="M35.7,36.3c0.4,0.4,0.4,1,0,1.4l-7.8,7.8c0,0.2,0.1,0.3,0.1,0.5c0,1.1-0.9,2-2,2c-1.1,0-2-0.9-2-2s0.9-2,2-2
	c0.2,0,0.3,0,0.5,0.1l7.8-7.8C34.7,35.9,35.3,35.9,35.7,36.3z M25.7,37.7c0.4-0.4,0.4-1,0-1.4s-1-0.4-1.4,0l-5.8,5.8
	C18.3,42,18.2,42,18,42c-1.1,0-2,0.9-2,2s0.9,2,2,2s2-0.9,2-2c0-0.2,0-0.3-0.1-0.5L25.7,37.7z M15.7,36.3c-0.4-0.4-1-0.4-1.4,0
	l-7.8,7.8C6.3,44,6.2,44,6,44c-1.1,0-2,0.9-2,2s0.9,2,2,2s2-0.9,2-2c0-0.2,0-0.3-0.1-0.5l7.8-7.8C16.1,37.3,16.1,36.7,15.7,36.3z
	 M38.7,26c0.7-2.1,0.3-4.4-1.1-6.2C36.2,18,34.2,17,31.9,17c-1.9-4.2-6.2-7-10.9-7c-5.9,0-11,4.4-11.9,10.2C3.9,21,0,25.6,0,31
	c0,3.9,2.1,7.5,5.4,9.5c0.2,0.1,0.3,0.1,0.5,0.1c0.3,0,0.7-0.2,0.9-0.5C7,39.6,6.9,39,6.4,38.7C3.7,37.1,2,34.2,2,31
	c0-4.7,3.5-8.5,8.1-9c0.5,0,0.9-0.4,0.9-0.9C11.5,16,15.9,12,21,12c4.2,0,7.8,2.5,9.3,6.4c0.2,0.4,0.6,0.7,1.1,0.6
	c1.8-0.2,3.5,0.5,4.6,2c1.1,1.5,1.3,3.3,0.6,5c-0.2,0.4,0,1,0.4,1.2c1.9,1.3,3.1,3.5,3.1,5.8c0,2.1-1,4.1-2.6,5.5
	c-0.4,0.3-0.5,1-0.2,1.4c0.3,0.4,1,0.5,1.4,0.2c2.2-1.7,3.4-4.3,3.4-7C42,30.3,40.8,27.7,38.7,26z M47.4,22.2
	c-3.7-1.8-6.1-5.5-6.1-9.6c0-4.1,2.4-7.8,6.1-9.6C47.8,2.9,48,2.5,48,2.1c0-0.4-0.2-0.7-0.6-0.9C45.7,0.4,43.9,0,42,0
	c-6,0-11,4.1-12.3,9.9c-0.1,0.5,0.2,1.1,0.8,1.2c0.5,0.1,1.1-0.2,1.2-0.8C32.8,5.4,37,2,42,2c0.9,0,1.8,0.1,2.7,0.3
	c-3.3,2.3-5.3,6.2-5.3,10.3c0,4.1,2,7.9,5.3,10.3c-0.1,0-0.2,0.1-0.4,0.1c-0.5,0.1-0.9,0.7-0.8,1.2c0.1,0.5,0.5,0.8,1,0.8
	c0.1,0,0.1,0,0.2,0c0.9-0.2,1.8-0.5,2.7-0.9c0.3-0.2,0.6-0.5,0.6-0.9C48,22.7,47.8,22.4,47.4,22.2z"/>
</svg>
