<?xml version="1.0" encoding="utf-8"?>
<!-- Generator: Adobe Illustrator 17.0.0, SVG Export Plug-In . SVG Version: 6.00 Build 0)  -->
<!DOCTYPE svg PUBLIC "-//W3C//DTD SVG 1.1//EN" "http://www.w3.org/Graphics/SVG/1.1/DTD/svg11.dtd">
<svg version="1.1" id="Layer_1" xmlns="http://www.w3.org/2000/svg" xmlns:xlink="http://www.w3.org/1999/xlink" x="0px" y="0px"
	 width="48px" height="48px" viewBox="0 0 48 48" enable-background="new 0 0 48 48" xml:space="preserve">
<path d="M35.9,20.9c0,0.3-0.1,0.5-0.3,0.7c-0.2,0.2-0.5,0.3-0.7,0.3s-0.5-0.1-0.7-0.3c-1.8-1.8-3.9-3.2-6.2-4.1
	c-2.1-0.9-4.4-1.3-6.7-1.4c-0.2,0-0.4,0-0.6,0c0,0,0,0,0,0c-0.2,0-0.4,0-0.6,0c-4.9,0.1-9.4,2.1-12.9,5.5C7,22,6.3,22,6,21.6
	c-0.4-0.4-0.4-1,0-1.4c3.4-3.4,7.9-5.5,12.6-6c0,0,0.1,0,0.1,0c0.4,0,0.9,0,1.3-0.1c0.3,0,0.5,0,0.8,0c0,0,0,0,0,0c0,0,0,0,0,0
	c0,0,0,0,0,0c0.3,0,0.5,0,0.8,0c0.4,0,0.9,0,1.3,0.1c0.1,0,0.2,0,0.4,0.1c0.6,0.1,1.1,0.1,1.7,0.2c0,0,0.1,0,0.1,0
	c0.6,0.1,1.3,0.3,1.9,0.5c0.2,0,0.3,0.1,0.5,0.2c0.5,0.2,1,0.3,1.4,0.5c0.4,0.2,0.8,0.4,1.2,0.5c0.2,0.1,0.5,0.2,0.7,0.3
	c1.8,1,3.5,2.2,5,3.7C35.8,20.3,35.9,20.6,35.9,20.9z M41.3,12.5C30,1.2,11.6,1.2,0.3,12.5c-0.4,0.4-0.4,1,0,1.4
	c0.2,0.2,0.5,0.3,0.7,0.3s0.5-0.1,0.7-0.3c10.5-10.5,27.7-10.5,38.2,0c0.4,0.4,1,0.4,1.4,0S41.7,12.9,41.3,12.5z M30,27.8
	c-5.1-5.1-13.3-5.1-18.4,0c-0.4,0.4-0.4,1,0,1.4c0.2,0.2,0.5,0.3,0.7,0.3c0,0,0,0,0,0c0.3,0,0.5-0.1,0.7-0.3
	c0.3-0.3,0.5-0.5,0.8-0.8c0.1-0.1,0.2-0.1,0.3-0.2c0.2-0.2,0.4-0.3,0.6-0.4c4.3-2.8,10.1-2.3,13.8,1.4c0.2,0.2,0.5,0.3,0.7,0.3
	s0.5-0.1,0.7-0.3c0.2-0.2,0.3-0.5,0.3-0.7C30.3,28.3,30.2,28,30,27.8z M25.8,39c0,2.8-2.2,5-5,5s-5-2.2-5-5s2.2-5,5-5
	S25.8,36.2,25.8,39z M23.8,39c0-1.7-1.3-3-3-3s-3,1.3-3,3s1.3,3,3,3S23.8,40.7,23.8,39z"/>
</svg>
