<?xml version="1.0" encoding="utf-8"?>
<!-- Generator: Adobe Illustrator 17.0.0, SVG Export Plug-In . SVG Version: 6.00 Build 0)  -->
<!DOCTYPE svg PUBLIC "-//W3C//DTD SVG 1.1//EN" "http://www.w3.org/Graphics/SVG/1.1/DTD/svg11.dtd">
<svg version="1.1" id="Layer_1" xmlns="http://www.w3.org/2000/svg" xmlns:xlink="http://www.w3.org/1999/xlink" x="0px" y="0px"
	 width="48px" height="48px" viewBox="0 0 48 48" enable-background="new 0 0 48 48" xml:space="preserve">
<path d="M41.8,8C41.8,7.9,41.8,7.9,41.8,8C38.9,4.7,35.2,2.3,31,1c0,0,0,0,0,0c-2.2-0.7-4.5-1-6.9-1C10.8,0,0,10.8,0,24
	c0,13.2,10.8,24,24,24s24-10.8,24-24C48,17.8,45.7,12.2,41.8,8z M39.9,8.8c-0.3,1.3-1.4,4.6-4,6.1c-3.5-0.7-7,1.2-7.7,2.1
	c-0.5,0.6-0.3,1.1-0.2,1.3c0.2,0.3,0.5,0.5,0.8,0.6c0.3,0.4,0.9,1.9,1.3,3.3c0,0.2,0.1,0.3,0.3,0.5c1,1,2.4,0.8,3.3,0.5
	c0.1,1.1-1.4,2.8-2.9,4.3C29.6,28.7,29,29.3,29,30c0,0.8,0.6,1.4,1.1,1.7c0.1,0.1,0.3,0.3,0.4,0.4c0,0-0.1,0.1-0.2,0.2
	c-1.3,1.3-2.6,1.8-2.6,1.8C27.3,34.2,27,34.6,27,35c0,2.6-1.6,4-4.9,4c-0.7-0.5-2.1-3.3-2.1-4c0-0.3,0.2-0.7,0.4-1.1
	c0.3-0.6,0.6-1.2,0.6-1.9c0-1.1-1.2-2.6-2-3.4c-0.1-1.2-0.4-2.1-1.1-2.8c-1.1-1.1-2.8-1-4.4-0.9C13,25,12.5,25,12,25c-2,0-2-2.9-2-3
	c0-0.1,0-6.2,4.2-7c2.8-0.6,3.7-0.1,3.8,0.1c0,0.2,0.1,0.4,0.3,0.6c1.8,1.8,4.5,1.2,6.7,0.7c0.8-0.2,1.5-0.4,2-0.4
	c0.5,0,0.9-0.4,1-0.9c0.4-2.7,0.6-6-0.7-7c-0.5-0.3-1.1-0.4-1.7-0.1c-0.7,0.4-1.4,0.4-1.9,0.2C23.2,8,23,7.4,23,6.9
	c-0.1-1.3,3.9-3,7.7-3.9C34.2,4.2,37.4,6.2,39.9,8.8z M24,46C11.9,46,2,36.1,2,24C2,11.9,11.9,2,24,2c0.9,0,1.7,0.1,2.5,0.1
	c-2.7,1-5.7,2.6-5.5,4.9c0.1,1.3,0.7,2.4,1.7,2.9c1,0.5,2.2,0.5,3.4,0c0.2,0.7,0.2,2.3,0,4c-0.5,0.1-1,0.2-1.6,0.3
	c-1.7,0.4-3.6,0.8-4.6,0.1c-0.1-0.3-0.3-0.7-0.7-1c-1-0.8-2.8-1-5.4-0.5C8.1,14.2,8,21.7,8,22c0,1.7,0.8,5,4,5c0.5,0,1.1,0,1.6-0.1
	c1.3-0.1,2.5-0.1,3,0.3c0.3,0.3,0.5,0.9,0.5,1.7c0,0.3,0.1,0.5,0.3,0.7c0.8,0.8,1.7,2,1.7,2.3c0,0.3-0.2,0.7-0.4,1.1
	C18.3,33.6,18,34.3,18,35c0,1,2,6,4,6c4.2,0,6.7-1.9,7-5.3c0.7-0.3,1.7-0.9,2.7-2c0.5-0.5,0.8-1.1,0.8-1.7c0-0.9-0.7-1.4-1.1-1.8
	c-0.1-0.1-0.2-0.1-0.2-0.2c0.2-0.3,0.7-0.7,1-1.1c1.9-2,5-5.2,2.6-7.6c-0.3-0.3-0.8-0.4-1.2-0.2c-0.4,0.2-1.2,0.4-1.7,0.3
	c-0.5-1.9-1-2.9-1.5-3.5c1.1-0.6,3.2-1.4,5.3-0.9c0.2,0.1,0.5,0,0.7-0.1c2.8-1.4,4.3-4.3,5-6.3C44.3,14.3,46,19,46,24
	C46,36.1,36.1,46,24,46z"/>
</svg>
