<?xml version="1.0" encoding="utf-8"?>
<!-- Generator: Adobe Illustrator 17.0.0, SVG Export Plug-In . SVG Version: 6.00 Build 0)  -->
<!DOCTYPE svg PUBLIC "-//W3C//DTD SVG 1.1//EN" "http://www.w3.org/Graphics/SVG/1.1/DTD/svg11.dtd">
<svg version="1.1" id="Layer_1" xmlns="http://www.w3.org/2000/svg" xmlns:xlink="http://www.w3.org/1999/xlink" x="0px" y="0px"
	 width="48px" height="48px" viewBox="0 0 48 48" enable-background="new 0 0 48 48" xml:space="preserve">
<path d="M10.7,12.1c0-0.4,0.2-0.8,0.6-0.9l7.4-3.1C19,8,19.2,8,19.5,8.1l10.4,4.3l-9.8,4.3L11.3,13C10.9,12.8,10.7,12.5,10.7,12.1z
	 M47.6,12.4c-1-2.5-4-3.8-6.5-2.7L14.1,21.4l-5.6-2.8c-0.3-0.1-0.6-0.1-0.8,0l-7,3c-0.3,0.1-0.5,0.4-0.6,0.7c-0.1,0.3,0,0.7,0.3,0.9
	l9,9c0.3,0.3,0.7,0.4,1.1,0.2l12.9-5.2l-5.2,13.9c-0.1,0.4,0,0.8,0.3,1.1c0.2,0.2,0.4,0.3,0.7,0.3c0.2,0,0.3,0,0.4-0.1l8-4
	c0.2-0.1,0.4-0.3,0.4-0.4l7.8-15.6l9.1-3.4C47.4,17.8,48.6,14.9,47.6,12.4z"/>
</svg>
