<?xml version="1.0" encoding="utf-8"?>
<!-- Generator: Adobe Illustrator 17.0.0, SVG Export Plug-In . SVG Version: 6.00 Build 0)  -->
<!DOCTYPE svg PUBLIC "-//W3C//DTD SVG 1.1//EN" "http://www.w3.org/Graphics/SVG/1.1/DTD/svg11.dtd">
<svg version="1.1" id="Layer_1" xmlns="http://www.w3.org/2000/svg" xmlns:xlink="http://www.w3.org/1999/xlink" x="0px" y="0px"
	 width="48px" height="48px" viewBox="0 0 48 48" enable-background="new 0 0 48 48" xml:space="preserve">
<path d="M30.5,10.3c-0.6-0.6-1.3-0.9-2.2-0.9c-0.8,0-1.6,0.3-2.2,0.9L10.4,26.1c-1.2,1.2-1.2,3.1,0,4.3l7.2,7.2
	c1.1,1.1,3.2,1.1,4.3,0l15.8-15.8c1.2-1.2,1.2-3.1,0-4.3L30.5,10.3z M16.1,29c-0.2,0.2-0.5,0.3-0.7,0.3c-0.3,0-0.5-0.1-0.7-0.3
	c-0.4-0.4-0.4-1,0-1.4l12.9-12.9c0.4-0.4,1-0.4,1.4,0c0.4,0.4,0.4,1,0,1.4L16.1,29z M29.7,24L24,29.7c-0.2,0.2-0.5,0.3-0.7,0.3
	c-0.3,0-0.5-0.1-0.7-0.3c-0.4-0.4-0.4-1,0-1.4l5.7-5.7c0.4-0.4,1-0.4,1.4,0C30.1,23,30.1,23.6,29.7,24z M47.7,14.7
	c0.4-0.4,0.4-1,0-1.4L34.8,0.3c-0.4-0.4-1.1-0.4-1.4,0c-1,1-2.2,1.5-3.6,1.5c-1.4,0-2.6-0.5-3.6-1.5c-0.4-0.4-1.1-0.4-1.4,0
	L0.3,24.7C0.1,24.9,0,25.2,0,25.4c0,0.3,0.1,0.5,0.3,0.7c1,1,1.5,2.2,1.5,3.6c0,1.4-0.5,2.6-1.5,3.6C0.1,33.5,0,33.8,0,34.1
	s0.1,0.5,0.3,0.7l12.9,12.9c0.4,0.4,1,0.4,1.4,0c1-1,2.2-1.5,3.6-1.5c1.4,0,2.6,0.5,3.6,1.5c0.2,0.2,0.4,0.3,0.7,0.3
	c0.3,0,0.5-0.1,0.7-0.3l24.4-24.4c0.4-0.4,0.4-1,0-1.4C45.7,19.9,45.7,16.6,47.7,14.7z M39.1,23.3L23.3,39.1c-1,1-2.2,1.5-3.6,1.5
	c-1.4,0-2.6-0.5-3.6-1.5l-7.2-7.2c-2-2-2-5.2,0-7.2L24.7,8.9c1-1,2.2-1.5,3.6-1.5c1.4,0,2.6,0.5,3.6,1.5l7.2,7.2
	C41.1,18.1,41.1,21.3,39.1,23.3z"/>
</svg>
