<?xml version="1.0" encoding="utf-8"?>
<!-- Generator: Adobe Illustrator 17.0.0, SVG Export Plug-In . SVG Version: 6.00 Build 0)  -->
<!DOCTYPE svg PUBLIC "-//W3C//DTD SVG 1.1//EN" "http://www.w3.org/Graphics/SVG/1.1/DTD/svg11.dtd">
<svg version="1.1" id="Layer_1" xmlns="http://www.w3.org/2000/svg" xmlns:xlink="http://www.w3.org/1999/xlink" x="0px" y="0px"
	 width="48px" height="48px" viewBox="0 0 48 48" enable-background="new 0 0 48 48" xml:space="preserve">
<path d="M48,15v3H0v-3c0-2.8,2.2-5,5-5h38C45.8,10,48,12.2,48,15z M0,20h48v15c0,2.8-2.2,5-5,5H5c-2.8,0-5-2.2-5-5V20z M34,25
	c0,0.6,0.4,1,1,1h6c0.6,0,1-0.4,1-1c0-0.6-0.4-1-1-1h-6C34.4,24,34,24.4,34,25z M6,25c0,0.6,0.4,1,1,1h16c0.6,0,1-0.4,1-1
	c0-0.6-0.4-1-1-1H7C6.4,24,6,24.4,6,25z M6,29c0,0.6,0.4,1,1,1h6c0.6,0,1-0.4,1-1c0-0.6-0.4-1-1-1H7C6.4,28,6,28.4,6,29z"/>
</svg>
