<?xml version="1.0" encoding="utf-8"?>
<!-- Generator: Adobe Illustrator 17.0.0, SVG Export Plug-In . SVG Version: 6.00 Build 0)  -->
<!DOCTYPE svg PUBLIC "-//W3C//DTD SVG 1.1//EN" "http://www.w3.org/Graphics/SVG/1.1/DTD/svg11.dtd">
<svg version="1.1" id="Layer_1" xmlns="http://www.w3.org/2000/svg" xmlns:xlink="http://www.w3.org/1999/xlink" x="0px" y="0px"
	 width="48px" height="48px" viewBox="0 0 48 48" enable-background="new 0 0 48 48" xml:space="preserve">
<path d="M47,46h-3V10h3c0.6,0,1-0.4,1-1c0-0.6-0.4-1-1-1h-5V5c0-0.6-0.4-1-1-1H30V1c0-0.6-0.4-1-1-1H19c-0.6,0-1,0.4-1,1v3H7
	C6.4,4,6,4.4,6,5v3H1C0.4,8,0,8.4,0,9c0,0.6,0.4,1,1,1h3v36H1c-0.6,0-1,0.4-1,1c0,0.6,0.4,1,1,1h19v-9c0-0.6,0.4-1,1-1h6
	c0.6,0,1,0.4,1,1v9h19c0.6,0,1-0.4,1-1C48,46.4,47.6,46,47,46z M17,42h-6c-0.6,0-1-0.4-1-1c0-0.6,0.4-1,1-1h6c0.6,0,1,0.4,1,1
	C18,41.6,17.6,42,17,42z M21,34H11c-0.6,0-1-0.4-1-1c0-0.6,0.4-1,1-1h10c0.6,0,1,0.4,1,1C22,33.6,21.6,34,21,34z M21,28H11
	c-0.6,0-1-0.4-1-1c0-0.6,0.4-1,1-1h10c0.6,0,1,0.4,1,1C22,27.6,21.6,28,21,28z M21,22H11c-0.6,0-1-0.4-1-1c0-0.6,0.4-1,1-1h10
	c0.6,0,1,0.4,1,1C22,21.6,21.6,22,21,22z M21,16H11c-0.6,0-1-0.4-1-1c0-0.6,0.4-1,1-1h10c0.6,0,1,0.4,1,1C22,15.6,21.6,16,21,16z
	 M37,42h-6c-0.6,0-1-0.4-1-1c0-0.6,0.4-1,1-1h6c0.6,0,1,0.4,1,1C38,41.6,37.6,42,37,42z M37,34H27c-0.6,0-1-0.4-1-1c0-0.6,0.4-1,1-1
	h10c0.6,0,1,0.4,1,1C38,33.6,37.6,34,37,34z M37,28H27c-0.6,0-1-0.4-1-1c0-0.6,0.4-1,1-1h10c0.6,0,1,0.4,1,1C38,27.6,37.6,28,37,28z
	 M37,22H27c-0.6,0-1-0.4-1-1c0-0.6,0.4-1,1-1h10c0.6,0,1,0.4,1,1C38,21.6,37.6,22,37,22z M37,16H27c-0.6,0-1-0.4-1-1
	c0-0.6,0.4-1,1-1h10c0.6,0,1,0.4,1,1C38,15.6,37.6,16,37,16z"/>
</svg>
