<?xml version="1.0" encoding="utf-8"?>
<!-- Generator: Adobe Illustrator 17.0.0, SVG Export Plug-In . SVG Version: 6.00 Build 0)  -->
<!DOCTYPE svg PUBLIC "-//W3C//DTD SVG 1.1//EN" "http://www.w3.org/Graphics/SVG/1.1/DTD/svg11.dtd">
<svg version="1.1" id="Layer_1" xmlns="http://www.w3.org/2000/svg" xmlns:xlink="http://www.w3.org/1999/xlink" x="0px" y="0px"
	 width="48px" height="48px" viewBox="0 0 48 48" enable-background="new 0 0 48 48" xml:space="preserve">
<path d="M43,18.2l4.4-4.4l-5-5l2.3-2.3c1.5-1.5,1.5-3.9,0-5.4c-1.4-1.4-4-1.4-5.4,0l-22,22c-1.7-0.8-3.5-1.3-5.3-1.3
	c-6.6,0-12,5.4-12,12c0,6.6,5.4,12,12,12s12-5.4,12-12c0-1.8-0.4-3.7-1.3-5.3l9.3-9.3l4,4l3.4-3.4l-4-4l2.6-2.6L43,18.2z M12,39.8
	c-3.3,0-6-2.7-6-6s2.7-6,6-6s6,2.7,6,6S15.3,39.8,12,39.8z"/>
</svg>
