<?xml version="1.0" encoding="utf-8"?>
<!-- Generator: Adobe Illustrator 17.0.0, SVG Export Plug-In . SVG Version: 6.00 Build 0)  -->
<!DOCTYPE svg PUBLIC "-//W3C//DTD SVG 1.1//EN" "http://www.w3.org/Graphics/SVG/1.1/DTD/svg11.dtd">
<svg version="1.1" id="Layer_1" xmlns="http://www.w3.org/2000/svg" xmlns:xlink="http://www.w3.org/1999/xlink" x="0px" y="0px"
	 width="48px" height="48px" viewBox="0 0 48 48" enable-background="new 0 0 48 48" xml:space="preserve">
<path d="M48,39c0,5-4,9-9,9c-5,0-9-4-9-9c0-1.1,0.2-2.1,0.6-3.1l-14-7C14.9,31.4,12.1,33,9,33c-5,0-9-4-9-9c0-5,4-9,9-9
	c3.1,0,5.9,1.6,7.5,4.1l14-7c-0.4-1-0.6-2-0.6-3.1c0-5,4-9,9-9c5,0,9,4,9,9c0,5-4,9-9,9c-3.2,0-5.9-1.6-7.5-4.1l-14,7
	c0.4,1,0.6,2,0.6,3.1c0,1.1-0.2,2.1-0.6,3.1l14,7c1.6-2.5,4.4-4.1,7.5-4.1C44,30,48,34,48,39z"/>
</svg>
