<?xml version="1.0" encoding="utf-8"?>
<!-- Generator: Adobe Illustrator 17.0.0, SVG Export Plug-In . SVG Version: 6.00 Build 0)  -->
<!DOCTYPE svg PUBLIC "-//W3C//DTD SVG 1.1//EN" "http://www.w3.org/Graphics/SVG/1.1/DTD/svg11.dtd">
<svg version="1.1" id="Layer_1" xmlns="http://www.w3.org/2000/svg" xmlns:xlink="http://www.w3.org/1999/xlink" x="0px" y="0px"
	 width="48px" height="48px" viewBox="0 0 48 48" enable-background="new 0 0 48 48" xml:space="preserve">
<path d="M37,0H11C8.2,0,6,2.2,6,5v38c0,2.8,2.2,5,5,5h26c2.8,0,5-2.2,5-5V5C42,2.2,39.8,0,37,0z M24,3c0.6,0,1,0.4,1,1s-0.4,1-1,1
	s-1-0.4-1-1S23.4,3,24,3z M24,45c-1.1,0-2-0.9-2-2c0-1.1,0.9-2,2-2c1.1,0,2,0.9,2,2C26,44.1,25.1,45,24,45z M38,39c0,0.6-0.4,1-1,1
	H11c-0.6,0-1-0.4-1-1V7c0-0.6,0.4-1,1-1h26c0.6,0,1,0.4,1,1V39z"/>
</svg>
