<?xml version="1.0" encoding="utf-8"?>
<!-- Generator: Adobe Illustrator 17.0.0, SVG Export Plug-In . SVG Version: 6.00 Build 0)  -->
<!DOCTYPE svg PUBLIC "-//W3C//DTD SVG 1.1//EN" "http://www.w3.org/Graphics/SVG/1.1/DTD/svg11.dtd">
<svg version="1.1" id="Layer_1" xmlns="http://www.w3.org/2000/svg" xmlns:xlink="http://www.w3.org/1999/xlink" x="0px" y="0px"
	 width="48px" height="48px" viewBox="0 0 48 48" enable-background="new 0 0 48 48" xml:space="preserve">
<path d="M14,32h16V16H14V32z M19,20h6c0.6,0,1,0.4,1,1s-0.4,1-1,1h-6c-0.6,0-1-0.4-1-1S18.4,20,19,20z M19,26h6c0.6,0,1,0.4,1,1
	s-0.4,1-1,1h-6c-0.6,0-1-0.4-1-1S18.4,26,19,26z M47,19c0.6,0,1-0.4,1-1V9c0-0.6-0.4-1-1-1H1C0.4,8,0,8.4,0,9v9c0,0.6,0.4,1,1,1
	c2.8,0,5,2.2,5,5c0,2.8-2.2,5-5,5c-0.6,0-1,0.4-1,1v9c0,0.6,0.4,1,1,1h46c0.6,0,1-0.4,1-1v-9c0-0.6-0.4-1-1-1c-2.8,0-5-2.2-5-5
	C42,21.2,44.2,19,47,19z M32,33c0,0.6-0.4,1-1,1H13c-0.6,0-1-0.4-1-1V15c0-0.6,0.4-1,1-1h18c0.6,0,1,0.4,1,1V33z M38,38h-2v-2h2V38z
	 M38,34h-2v-2h2V34z M38,30h-2v-2h2V30z M38,26h-2v-2h2V26z M38,22h-2v-2h2V22z M38,18h-2v-2h2V18z M38,14h-2v-2h2V14z"/>
</svg>
