<?xml version="1.0" encoding="utf-8"?>
<!-- Generator: Adobe Illustrator 20.1.0, SVG Export Plug-In . SVG Version: 6.00 Build 0)  -->
<svg version="1.1" id="Layer_1" xmlns="http://www.w3.org/2000/svg" xmlns:xlink="http://www.w3.org/1999/xlink" x="0px" y="0px"
	 viewBox="0 0 48 48" style="enable-background:new 0 0 48 48;" xml:space="preserve">
<path d="M48,23.1c0,0.4-0.2,0.7-0.6,0.9c-0.8,0.4-1.7,0.6-2.5,0.9c-0.7,0.2-1.5,0.3-2.3,0.3c-0.4,0-1,0-1.7-0.1
	c0.2-2.1-0.2-4.2-1.4-6c-1.5-2.2-3.8-3.7-6.4-4c-0.9-1.6-2.1-3-3.6-4.1c0-0.4,0.1-0.7,0.1-1.1C30.9,4.2,36.1,0,42,0
	c1.9,0,3.7,0.4,5.4,1.2C47.8,1.4,48,1.8,48,2.1c0,0.4-0.2,0.7-0.6,0.9c-3.7,1.8-6.1,5.5-6.1,9.6c0,4.1,2.4,7.8,6.1,9.6
	C47.8,22.4,48,22.7,48,23.1z M38.7,26c0.6-2,0.3-4.1-0.8-5.9c-1.3-2-3.5-3.2-6-3.2c-1.9-4.2-6.2-7-10.9-7c-5.9,0-11,4.4-11.9,10.2
	C3.9,21,0,25.6,0,31c0,4.3,2.5,8,6,9.8l5.9-5.9c1.2-1.2,3.1-1.2,4.2,0c1.2,1.2,1.2,3.1,0,4.2l-2.8,2.8h1.5l7.1-7.1
	c1.2-1.2,3.1-1.2,4.2,0c1.2,1.2,1.2,3.1,0,4.2l-2.8,2.8h1.5l7.1-7.1c1.2-1.2,3.1-1.2,4.2,0c1.2,1.2,1.2,3.1,0,4.2l-2.8,2.8
	c4.8-0.2,8.7-4.1,8.7-8.9C42,30.3,40.8,27.7,38.7,26z M14.7,36.3c-0.4-0.4-1-0.4-1.4,0l-10,10c-0.4,0.4-0.4,1,0,1.4
	C3.5,47.9,3.7,48,4,48s0.5-0.1,0.7-0.3l10-10C15.1,37.3,15.1,36.7,14.7,36.3z M24.7,36.3c-0.4-0.4-1-0.4-1.4,0l-10,10
	c-0.4,0.4-0.4,1,0,1.4c0.2,0.2,0.5,0.3,0.7,0.3s0.5-0.1,0.7-0.3l10-10C25.1,37.3,25.1,36.7,24.7,36.3z M34.7,36.3
	c-0.4-0.4-1-0.4-1.4,0l-10,10c-0.4,0.4-0.4,1,0,1.4c0.2,0.2,0.5,0.3,0.7,0.3s0.5-0.1,0.7-0.3l10-10C35.1,37.3,35.1,36.7,34.7,36.3z"
	/>
</svg>
