<?xml version="1.0" encoding="utf-8"?>
<!-- Generator: Adobe Illustrator 17.0.0, SVG Export Plug-In . SVG Version: 6.00 Build 0)  -->
<!DOCTYPE svg PUBLIC "-//W3C//DTD SVG 1.1//EN" "http://www.w3.org/Graphics/SVG/1.1/DTD/svg11.dtd">
<svg version="1.1" id="Layer_1" xmlns="http://www.w3.org/2000/svg" xmlns:xlink="http://www.w3.org/1999/xlink" x="0px" y="0px"
	 width="48px" height="48px" viewBox="0 0 48 48" enable-background="new 0 0 48 48" xml:space="preserve">
<path d="M47.7,46.3c0.4,0.4,0.4,1,0,1.4C47.5,47.9,47.3,48,47,48s-0.5-0.1-0.7-0.3L24,25.4L1.7,47.7C1.5,47.9,1.3,48,1,48
	s-0.5-0.1-0.7-0.3c-0.4-0.4-0.4-1,0-1.4L22.6,24L0.3,1.7c-0.4-0.4-0.4-1,0-1.4s1-0.4,1.4,0L24,22.6L46.3,0.3c0.4-0.4,1-0.4,1.4,0
	s0.4,1,0,1.4L25.4,24L47.7,46.3z"/>
</svg>
