<?xml version="1.0" encoding="utf-8"?>
<!-- Generator: Adobe Illustrator 17.0.0, SVG Export Plug-In . SVG Version: 6.00 Build 0)  -->
<!DOCTYPE svg PUBLIC "-//W3C//DTD SVG 1.1//EN" "http://www.w3.org/Graphics/SVG/1.1/DTD/svg11.dtd">
<svg version="1.1" id="Layer_1" xmlns="http://www.w3.org/2000/svg" xmlns:xlink="http://www.w3.org/1999/xlink" x="0px" y="0px"
	 width="48px" height="48px" viewBox="0 0 48 48" enable-background="new 0 0 48 48" xml:space="preserve">
<path fill="#010101" d="M43.5,5.5c-0.3-0.2-0.7-0.2-1,0C35,9.4,30.2,7,25.1,4.4C19.8,1.8,13.7-1.2,4,3.4V1c0-0.6-0.4-1-1-1
	S2,0.4,2,1v46c0,0.6,0.4,1,1,1s1-0.4,1-1V35.6c8.9-4.6,14.5-2,20.4,0.7c3.4,1.6,6.9,3.2,11,3.2c2.4,0,5.1-0.6,8.1-2.1
	c0.3-0.2,0.6-0.5,0.6-0.9V6.4C44,6,43.8,5.7,43.5,5.5z M42,35.8c-6.8,3.2-11.6,1-16.8-1.4c-5.6-2.6-12-5.4-21.2-1.1V5.6
	c9.3-4.8,14.6-2.2,20.2,0.6c5,2.5,10.1,5,17.8,1.7V35.8z"/>
</svg>
