<?xml version="1.0" encoding="utf-8"?>
<!-- Generator: Adobe Illustrator 20.1.0, SVG Export Plug-In . SVG Version: 6.00 Build 0)  -->
<svg version="1.1" id="Layer_1" xmlns="http://www.w3.org/2000/svg" xmlns:xlink="http://www.w3.org/1999/xlink" x="0px" y="0px"
	 viewBox="0 0 48 48" style="enable-background:new 0 0 48 48;" xml:space="preserve">
<path d="M34.2,13c0.4,0.4,0.4,1,0,1.4L20.7,28.7C20.5,28.9,20.3,29,20,29c0,0,0,0,0,0c-0.3,0-0.5-0.1-0.7-0.3l-5-5
	c-0.4-0.4-0.4-1,0-1.4s1-0.4,1.4,0l4.3,4.3l12.8-13.5C33.2,12.7,33.8,12.7,34.2,13z M44,20c0,14.4-18.6,27.3-19.4,27.8
	C24.4,47.9,24.2,48,24,48s-0.4-0.1-0.6-0.2C22.6,47.3,4,34.4,4,20C4,9,13,0,24,0C35,0,44,9,44,20z M42,20c0-9.9-8.1-18-18-18
	C14.1,2,6,10.1,6,20c0,12,14.9,23.5,18,25.8C27.1,43.5,42,32,42,20z"/>
</svg>
