<?xml version="1.0" encoding="utf-8"?>
<!-- Generator: Adobe Illustrator 17.0.0, SVG Export Plug-In . SVG Version: 6.00 Build 0)  -->
<!DOCTYPE svg PUBLIC "-//W3C//DTD SVG 1.1//EN" "http://www.w3.org/Graphics/SVG/1.1/DTD/svg11.dtd">
<svg version="1.1" id="Layer_1" xmlns="http://www.w3.org/2000/svg" xmlns:xlink="http://www.w3.org/1999/xlink" x="0px" y="0px"
	 width="48px" height="48px" viewBox="0 0 48 48" enable-background="new 0 0 48 48" xml:space="preserve">
<path fill="#010101" d="M47,10H1c-0.6,0-1,0.4-1,1v28c0,0.6,0.4,1,1,1h46c0.6,0,1-0.4,1-1V11C48,10.4,47.6,10,47,10z M46,38H2V12h44
	V38z M24,32c3.9,0,7-3.1,7-7s-3.1-7-7-7s-7,3.1-7,7S20.1,32,24,32z M24,20c2.8,0,5,2.2,5,5s-2.2,5-5,5s-5-2.2-5-5S21.2,20,24,20z
	 M8,20c0-1.1,0.9-2,2-2s2,0.9,2,2s-0.9,2-2,2S8,21.1,8,20z M36,30c0-1.1,0.9-2,2-2s2,0.9,2,2s-0.9,2-2,2S36,31.1,36,30z M9,36h30
	c2.8,0,5-2.2,5-5V19c0-2.8-2.2-5-5-5H9c-2.8,0-5,2.2-5,5v12C4,33.8,6.2,36,9,36z M6,19c0-1.7,1.3-3,3-3h30c1.7,0,3,1.3,3,3v12
	c0,1.7-1.3,3-3,3H9c-1.7,0-3-1.3-3-3V19z"/>
</svg>
