<?xml version="1.0" encoding="utf-8"?>
<!-- Generator: Adobe Illustrator 17.0.0, SVG Export Plug-In . SVG Version: 6.00 Build 0)  -->
<!DOCTYPE svg PUBLIC "-//W3C//DTD SVG 1.1//EN" "http://www.w3.org/Graphics/SVG/1.1/DTD/svg11.dtd">
<svg version="1.1" id="Layer_1" xmlns="http://www.w3.org/2000/svg" xmlns:xlink="http://www.w3.org/1999/xlink" x="0px" y="0px"
	 width="48px" height="48px" viewBox="0 0 48 48" enable-background="new 0 0 48 48" xml:space="preserve">
<path d="M41.9,35.3l6-18c0.1-0.3,0.1-0.6-0.1-0.9C47.6,16.2,47.3,16,47,16H11.6L9,4.8C8.9,4.3,8.5,4,8,4H1C0.4,4,0,4.4,0,5
	s0.4,1,1,1h6.2l7.6,32.2c-1.6,0.5-2.8,2-2.8,3.8c0,2.2,1.8,4,4,4s4-1.8,4-4c0-0.7-0.2-1.4-0.6-2h15.1c-0.3,0.6-0.6,1.3-0.6,2
	c0,2.2,1.8,4,4,4s4-1.8,4-4s-1.8-4-4-4H16.8l-0.5-2H41C41.4,36,41.8,35.7,41.9,35.3z M18,42c0,1.1-0.9,2-2,2s-2-0.9-2-2s0.9-2,2-2
	S18,40.9,18,42z M40,42c0,1.1-0.9,2-2,2s-2-0.9-2-2s0.9-2,2-2S40,40.9,40,42z M15.9,34l-3.8-16h33.5l-5.3,16H15.9z"/>
</svg>
