<?xml version="1.0" encoding="utf-8"?>
<!-- Generator: Adobe Illustrator 20.1.0, SVG Export Plug-In . SVG Version: 6.00 Build 0)  -->
<svg version="1.1" id="Layer_1" xmlns="http://www.w3.org/2000/svg" xmlns:xlink="http://www.w3.org/1999/xlink" x="0px" y="0px"
	 viewBox="0 0 48 48" style="enable-background:new 0 0 48 48;" xml:space="preserve">
<path d="M47.4,9.1C47,8.9,46.6,9,46.3,9.3c-2.1,2.1-8.6,3.5-16.3,3.5c0,0,0,0,0,0c-7.7,0-14.2-1.4-16.3-3.5C13.4,9,13,8.9,12.6,9.1
	C12.2,9.2,12,9.6,12,10v17c0,11.6,13.6,21,18,21s18-9.4,18-21V10C48,9.6,47.8,9.2,47.4,9.1z M46,27c0,10.7-12.8,19-16,19
	s-16-8.3-16-19V11.9c3.7,2,10.4,2.8,16,2.8c0,0,0,0,0,0c5.6,0,12.3-0.8,16-2.8V27z M7.6,30.3c0.4,0.4,0.4,1-0.1,1.4
	C7.4,31.9,7.1,32,6.9,32c-0.3,0-0.5-0.1-0.7-0.3C3.4,28.7,0,23.8,0,18V1c0-0.4,0.2-0.8,0.6-0.9C1-0.1,1.4,0,1.7,0.3
	C3.8,2.4,10.3,3.8,18,3.8c0,0,0,0,0,0c7.7,0,14.2-1.4,16.3-3.5C34.6,0,35-0.1,35.4,0.1C35.8,0.2,36,0.6,36,1v7c0,0.6-0.4,1-1,1
	s-1-0.4-1-1V2.9c-3.7,2-10.4,2.8-16,2.8c0,0,0,0,0,0C12.4,5.8,5.7,5,2,2.9V18C2,23.2,5.1,27.6,7.6,30.3z M37,33c0,3.9-3.1,7-7,7
	s-7-3.1-7-7c0-0.6,0.4-1,1-1c0.6,0,1,0.4,1,1c0,2.8,2.2,5,5,5s5-2.2,5-5c0-0.6,0.4-1,1-1S37,32.4,37,33z M33,24c0-2.2,1.8-4,4-4
	s4,1.8,4,4c0,0.6-0.4,1-1,1s-1-0.4-1-1c0-1.1-0.9-2-2-2s-2,0.9-2,2c0,0.6-0.4,1-1,1S33,24.5,33,24z M23,22c-1.1,0-2,0.9-2,2
	c0,0.6-0.4,1-1,1s-1-0.4-1-1c0-2.2,1.8-4,4-4c2.2,0,4,1.8,4,4c0,0.6-0.4,1-1,1s-1-0.4-1-1C25,22.9,24.1,22,23,22z"/>
</svg>
