<?xml version="1.0" encoding="utf-8"?>
<!-- Generator: Adobe Illustrator 17.0.0, SVG Export Plug-In . SVG Version: 6.00 Build 0)  -->
<!DOCTYPE svg PUBLIC "-//W3C//DTD SVG 1.1//EN" "http://www.w3.org/Graphics/SVG/1.1/DTD/svg11.dtd">
<svg version="1.1" id="Layer_1" xmlns="http://www.w3.org/2000/svg" xmlns:xlink="http://www.w3.org/1999/xlink" x="0px" y="0px"
	 width="48px" height="48px" viewBox="0 0 48 48" enable-background="new 0 0 48 48" xml:space="preserve">
<path d="M19,0H9C8.4,0,8,0.4,8,1v46c0,0.6,0.4,1,1,1h10c0.6,0,1-0.4,1-1V1C20,0.4,19.6,0,19,0z M18,46h-8V2h8V46z M39,0H29
	c-0.6,0-1,0.4-1,1v46c0,0.6,0.4,1,1,1h10c0.6,0,1-0.4,1-1V1C40,0.4,39.6,0,39,0z M38,46h-8V2h8V46z"/>
</svg>
