<?xml version="1.0" encoding="utf-8"?>
<!-- Generator: Adobe Illustrator 20.1.0, SVG Export Plug-In . SVG Version: 6.00 Build 0)  -->
<svg version="1.1" id="Layer_1" xmlns="http://www.w3.org/2000/svg" xmlns:xlink="http://www.w3.org/1999/xlink" x="0px" y="0px"
	 viewBox="0 0 48 48" style="enable-background:new 0 0 48 48;" xml:space="preserve">
<path d="M38.7,32c0.7-2.1,0.3-4.4-1.1-6.2C36.3,24,34.2,23,32,23c0,0-0.1,0-0.1,0c-1.9-4.2-6.2-7-10.9-7c-5.9,0-11,4.4-11.9,10.2
	C3.9,27,0,31.6,0,37c0,6.1,4.9,11,11,11h22c5,0,9-4,9-9C42,36.3,40.8,33.7,38.7,32z M33,46H11c-5,0-9-4-9-9c0-4.7,3.5-8.5,8.1-9
	c0.5,0,0.9-0.4,0.9-0.9C11.5,22,15.9,18,21,18c4.1,0,7.8,2.6,9.3,6.4c0.2,0.4,0.6,0.7,1.1,0.6c1.8-0.2,3.5,0.5,4.6,2
	c1.1,1.5,1.3,3.3,0.6,5c-0.2,0.4,0,1,0.4,1.2c1.9,1.3,3.1,3.5,3.1,5.8C40,42.9,36.9,46,33,46z M48,27.6c0,0.4-0.2,0.7-0.6,0.9
	c-1,0.5-2.1,0.9-3.2,1.1c-0.1,0-0.1,0-0.2,0c-0.5,0-0.9-0.3-1-0.8c-0.1-0.5,0.2-1.1,0.8-1.2c0.3-0.1,0.6-0.1,0.9-0.2
	C40.6,24.7,38,20,38,15c0-5,2.6-9.7,6.7-12.5C43.5,2.2,42.3,2,41,2c-6.1,0-11.3,4.2-12.7,10.2c-0.1,0.5-0.7,0.9-1.2,0.8
	c-0.5-0.1-0.9-0.7-0.8-1.2C27.9,4.8,33.9,0,41,0c2.2,0,4.4,0.5,6.4,1.5C47.8,1.6,48,2,48,2.4c0,0.4-0.2,0.7-0.6,0.9
	C42.9,5.4,40,10,40,15c0,5,2.9,9.6,7.4,11.7C47.8,26.9,48,27.3,48,27.6z"/>
</svg>
