<?xml version="1.0" encoding="utf-8"?>
<!-- Generator: Adobe Illustrator 17.0.0, SVG Export Plug-In . SVG Version: 6.00 Build 0)  -->
<!DOCTYPE svg PUBLIC "-//W3C//DTD SVG 1.1//EN" "http://www.w3.org/Graphics/SVG/1.1/DTD/svg11.dtd">
<svg version="1.1" id="Layer_1" xmlns="http://www.w3.org/2000/svg" xmlns:xlink="http://www.w3.org/1999/xlink" x="0px" y="0px"
	 width="48px" height="48px" viewBox="0 0 48 48" enable-background="new 0 0 48 48" xml:space="preserve">
<path fill="#010101" d="M43.6,30.9c-0.5-1.2-1.5-2.2-2.7-2.7l-8.7-3.4l-5.4-13.2c-0.1-0.2-0.3-0.4-0.5-0.5l-7-3
	c-0.4-0.2-0.9-0.1-1.1,0.2c-0.3,0.3-0.4,0.7-0.3,1.1L22.3,21l-9.7-3.8l-1.9-5.6c-0.1-0.3-0.3-0.5-0.6-0.6l-7-3
	C2.9,7.9,2.6,8,2.3,8.2S1.8,8.7,1.8,9v13c0,0.4,0.2,0.8,0.6,0.9L15.3,28L2.4,34c-0.4,0.2-0.6,0.5-0.6,0.9s0.3,0.8,0.6,0.9l8,3
	c0.1,0,0.2,0.1,0.4,0.1c0.1,0,0.2,0,0.3,0L27.8,34l9.2,3.4c0.6,0.3,1.3,0.4,1.9,0.4c2,0,3.8-1.2,4.6-3.1
	C44.1,33.5,44.1,32.1,43.6,30.9z M20.6,10.8l4.5,1.9l4.5,11.1L24.8,22L20.6,10.8z M41.7,34c-0.6,1.5-2.3,2.3-4,1.6l-9.6-3.5
	c-0.2-0.1-0.4-0.1-0.6,0l-16.6,4.8l-5.5-2l12.8-6c0.4-0.2,0.6-0.5,0.6-0.9s-0.3-0.8-0.6-0.9L3.8,21.3V10.5L9,12.7l1.9,5.6
	c0.1,0.3,0.3,0.5,0.6,0.6L40.1,30c0.7,0.3,1.3,0.9,1.6,1.6C42,32.4,42,33.2,41.7,34z"/>
</svg>
