<?xml version="1.0" encoding="utf-8"?>
<!-- Generator: Adobe Illustrator 20.1.0, SVG Export Plug-In . SVG Version: 6.00 Build 0)  -->
<svg version="1.1" id="Layer_1" xmlns="http://www.w3.org/2000/svg" xmlns:xlink="http://www.w3.org/1999/xlink" x="0px" y="0px"
	 viewBox="0 0 48 48" style="enable-background:new 0 0 48 48;" xml:space="preserve">
<path d="M42,28v19c0,0.6-0.4,1-1,1H29c-0.6,0-1-0.4-1-1V34h-8v13c0,0.6-0.4,1-1,1H7c-0.6,0-1-0.4-1-1V27c0-0.6,0.4-1,1-1s1,0.4,1,1
	v19h10V33c0-0.6,0.4-1,1-1h10c0.6,0,1,0.4,1,1v13h10V28c0-0.6,0.4-1,1-1S42,27.4,42,28z M47.7,25.3l-23-23c-0.4-0.4-1-0.4-1.4,0
	l-23,23c-0.4,0.4-0.4,1,0,1.4c0.4,0.4,1,0.4,1.4,0L24,4.4l22.3,22.3c0.2,0.2,0.5,0.3,0.7,0.3s0.5-0.1,0.7-0.3
	C48.1,26.3,48.1,25.7,47.7,25.3z M32,6h6v6c0,0.6,0.4,1,1,1s1-0.4,1-1V5c0-0.6-0.4-1-1-1h-7c-0.6,0-1,0.4-1,1S31.4,6,32,6z"/>
</svg>
