<?xml version="1.0" encoding="utf-8"?>
<!-- Generator: Adobe Illustrator 17.0.0, SVG Export Plug-In . SVG Version: 6.00 Build 0)  -->
<!DOCTYPE svg PUBLIC "-//W3C//DTD SVG 1.1//EN" "http://www.w3.org/Graphics/SVG/1.1/DTD/svg11.dtd">
<svg version="1.1" id="Layer_1" xmlns="http://www.w3.org/2000/svg" xmlns:xlink="http://www.w3.org/1999/xlink" x="0px" y="0px"
	 width="48px" height="48px" viewBox="0 0 48 48" enable-background="new 0 0 48 48" xml:space="preserve">
<path d="M47.8,23.4C47.4,22.8,37,10,24,10C11,10,0.6,22.8,0.2,23.4c-0.3,0.4-0.3,0.9,0,1.2C0.6,25.2,11,38,24,38
	c13,0,23.4-12.8,23.8-13.4C48.1,24.3,48.1,23.7,47.8,23.4z M24,36C13.5,36,4.5,26.5,2.3,24C4.5,21.5,13.5,12,24,12
	c10.5,0,19.5,9.5,21.7,12C43.5,26.5,34.5,36,24,36z M24,15c-5,0-9,4-9,9c0,5,4,9,9,9c5,0,9-4,9-9C33,19,29,15,24,15z M24,31
	c-3.9,0-7-3.1-7-7c0-3.9,3.1-7,7-7c3.9,0,7,3.1,7,7C31,27.9,27.9,31,24,31z"/>
</svg>
