<?xml version="1.0" encoding="utf-8"?>
<!-- Generator: Adobe Illustrator 20.1.0, SVG Export Plug-In . SVG Version: 6.00 Build 0)  -->
<svg version="1.1" id="Layer_1" xmlns="http://www.w3.org/2000/svg" xmlns:xlink="http://www.w3.org/1999/xlink" x="0px" y="0px"
	 viewBox="0 0 48 48" style="enable-background:new 0 0 48 48;" xml:space="preserve">
<path d="M37,22h-3V7c0-2.8-2.2-5-5-5H17c-2.8,0-5,2.2-5,5v15H9c-0.6,0-1,0.4-1,1v11v1v2c0,1.7,1.3,3,3,3h1l0,7c0,0.6,0.4,1,1,1
	c0,0,0,0,0,0c0.6,0,1-0.4,1-1l0-7h18l0,7c0,0.6,0.4,1,1,1c0,0,0,0,0,0c0.6,0,1-0.4,1-1l0-7h1c1.7,0,3-1.3,3-3v-2v-1V23
	C38,22.4,37.6,22,37,22z M36,24v7.2c-0.3-0.1-0.6-0.2-0.9-0.2c-0.4-0.1-0.7-0.1-1.1-0.2V24H36z M32,30.5c-5.4-0.7-12.4-0.7-18,0V10
	h18V30.5z M17,4h12c1.7,0,3,1.3,3,3v1H14V7C14,5.3,15.3,4,17,4z M12,24v6.8c-0.4,0.1-0.7,0.1-1.1,0.2c-0.3,0-0.6,0.1-0.9,0.2V24H12z
	 M36,37c0,0.6-0.4,1-1,1h-2c0,0,0,0,0,0H13c0,0,0,0,0,0h-2c-0.6,0-1-0.4-1-1v-2v-1c0-0.6,0.4-1,1-1c0.1,0,0.1,0,0.2,0
	c3.4-0.7,7.7-1,12-1c4.3,0,8.5,0.3,11.6,1c0.1,0,0.1,0,0.2,0c0.6,0,1,0.4,1,1v1V37z"/>
</svg>
