<?xml version="1.0" encoding="utf-8"?>
<!-- Generator: Adobe Illustrator 20.1.0, SVG Export Plug-In . SVG Version: 6.00 Build 0)  -->
<svg version="1.1" id="Layer_1" xmlns="http://www.w3.org/2000/svg" xmlns:xlink="http://www.w3.org/1999/xlink" x="0px" y="0px"
	 viewBox="0 0 48 48" style="enable-background:new 0 0 48 48;" xml:space="preserve">
<path d="M39,13V1c0-0.3-0.1-0.5-0.3-0.7S38.3,0,38,0h0L25.5,0c-0.3,0-0.5,0.1-0.7,0.3L0.3,24.8c-0.4,0.4-0.4,1,0,1.4l12.5,12.5
	c0.2,0.2,0.4,0.3,0.7,0.3c0,0,0,0,0,0c0.3,0,0.5-0.1,0.7-0.3l24.5-25C38.9,13.5,39,13.3,39,13z M37,12.6l-23.5,24L2.4,25.5L25.9,2
	L37,2V12.6z M31,12c2.2,0,4-1.8,4-4s-1.8-4-4-4s-4,1.8-4,4S28.8,12,31,12z M31,6c1.1,0,2,0.9,2,2s-0.9,2-2,2s-2-0.9-2-2S29.9,6,31,6
	z M46.7,31.3l-5-5c-0.4-0.4-1-0.4-1.4,0l-13,13c-0.1,0.1-0.1,0.2-0.2,0.3c0,0,0,0,0,0.1c0,0,0,0,0,0.1l-2,7c-0.1,0.3,0,0.7,0.3,1
	c0.2,0.2,0.4,0.3,0.7,0.3c0.1,0,0.2,0,0.3,0l7-2c0,0,0,0,0.1,0c0,0,0,0,0.1,0c0.1,0,0.2-0.1,0.3-0.2l13-13
	C47.1,32.3,47.1,31.7,46.7,31.3z M33,43.6L29.4,40l7.6-7.6l3.6,3.6L33,43.6z M28.5,41.9l2.6,2.6l-3.6,1L28.5,41.9z M42,34.6L38.4,31
	l2.6-2.6l3.6,3.6L42,34.6z"/>
</svg>
