<?xml version="1.0" encoding="utf-8"?>
<!-- Generator: Adobe Illustrator 20.1.0, SVG Export Plug-In . SVG Version: 6.00 Build 0)  -->
<svg version="1.1" id="Layer_1" xmlns="http://www.w3.org/2000/svg" xmlns:xlink="http://www.w3.org/1999/xlink" x="0px" y="0px"
	 viewBox="0 0 48 48" style="enable-background:new 0 0 48 48;" xml:space="preserve">
<path d="M45,6H3C2.4,6,2,6.4,2,7v33c0,0.6,0.4,1,1,1h42c0.6,0,1-0.4,1-1V7C46,6.4,45.6,6,45,6z M44,39H4V8h40V39z M28,29
	c0-0.6,0.4-1,1-1h5c0.6,0,1,0.4,1,1s-0.4,1-1,1h-5C28.4,30,28,29.6,28,29z M28,25c0-0.6,0.4-1,1-1h10c0.6,0,1,0.4,1,1s-0.4,1-1,1H29
	C28.4,26,28,25.6,28,25z M28,21c0-0.6,0.4-1,1-1h10c0.6,0,1,0.4,1,1s-0.4,1-1,1H29C28.4,22,28,21.6,28,21z M28,17c0-0.6,0.4-1,1-1
	h10c0.6,0,1,0.4,1,1s-0.4,1-1,1H29C28.4,18,28,17.6,28,17z M9,33h14c0.6,0,1-0.4,1-1v-4c0-0.1,0-0.2-0.1-0.3c0-0.1-1.1-3.2-4.9-3.6
	v-0.5c0.8-0.6,2-2,2-4.5c0-2,0-5-5-5s-5,3-5,5c0,2.6,1.2,3.9,2,4.5v0.5c-3.8,0.5-4.9,3.5-4.9,3.6C8,27.8,8,27.9,8,28v4
	C8,32.6,8.4,33,9,33z M10,28.2c0.2-0.5,1.2-2.2,4-2.2c0.6,0,1-0.4,1-1v-2c0-0.4-0.2-0.7-0.5-0.9c-0.1,0-1.5-0.8-1.5-3.1c0-2,0-3,3-3
	s3,1,3,3c0,2.3-1.4,3.1-1.4,3.1C17.2,22.3,17,22.6,17,23v2c0,0.6,0.4,1,1,1c2.8,0,3.8,1.7,4,2.2V31H10V28.2z"/>
</svg>
