<?xml version="1.0" encoding="utf-8"?>
<!-- Generator: Adobe Illustrator 17.0.0, SVG Export Plug-In . SVG Version: 6.00 Build 0)  -->
<!DOCTYPE svg PUBLIC "-//W3C//DTD SVG 1.1//EN" "http://www.w3.org/Graphics/SVG/1.1/DTD/svg11.dtd">
<svg version="1.1" id="Layer_1" xmlns="http://www.w3.org/2000/svg" xmlns:xlink="http://www.w3.org/1999/xlink" x="0px" y="0px"
	 width="48px" height="48px" viewBox="0 0 48 48" enable-background="new 0 0 48 48" xml:space="preserve">
<path d="M18,9.4c-0.1-0.4,0-0.8,0.2-1.1c0.3-0.3,0.7-0.4,1.1-0.2l7,3c0.2,0.1,0.4,0.3,0.5,0.5l4.3,10.6l-9.7-3.8L18,9.4z M43.6,30.9
	c-0.5-1.2-1.5-2.2-2.7-2.7l-28.2-11l-1.9-5.6c-0.1-0.3-0.3-0.5-0.6-0.6l-7-3C3,7.9,2.7,8,2.4,8.2C2.1,8.4,2,8.7,2,9v13
	c0,0.4,0.2,0.8,0.6,0.9l12.8,5.1l-12.9,6c-0.4,0.2-0.6,0.5-0.6,0.9c0,0.4,0.3,0.8,0.6,0.9l8,3c0.1,0,0.2,0.1,0.4,0.1
	c0.1,0,0.2,0,0.3,0l16.7-4.9l9.2,3.4c2.6,1.1,5.5-0.2,6.5-2.7C44.1,33.5,44.1,32.1,43.6,30.9z"/>
</svg>
