<?xml version="1.0" encoding="utf-8"?>
<!-- Generator: Adobe Illustrator 17.0.0, SVG Export Plug-In . SVG Version: 6.00 Build 0)  -->
<!DOCTYPE svg PUBLIC "-//W3C//DTD SVG 1.1//EN" "http://www.w3.org/Graphics/SVG/1.1/DTD/svg11.dtd">
<svg version="1.1" id="Layer_1" xmlns="http://www.w3.org/2000/svg" xmlns:xlink="http://www.w3.org/1999/xlink" x="0px" y="0px"
	 width="48px" height="48px" viewBox="0 0 48 48" enable-background="new 0 0 48 48" xml:space="preserve">
<path d="M44,16V5c0-0.3-0.2-0.7-0.4-0.8c-0.3-0.2-0.7-0.2-1-0.1l-1.8,0.8C34.5,7.8,28,10.6,18,11.6v18.8c10,1,16.5,3.8,22.7,6.7
	c0.4,0.2,1.9,0.9,2.3,0.9c0.2,0,0.4-0.1,0.5-0.2c0.3-0.2,0.4-0.5,0.4-0.8V26c2,0,4-1.8,4-4v-2C48,17.8,46,16,44,16z M46,22
	c0,1.1-0.9,2-2,2v-6c1.1,0,2,0.9,2,2V22z M9,12c1,0,2,0,3,0V30c-1,0-2,0-3,0H7c-3.9,0-7-3.1-7-7v-4c0-3.9,3.1-7,7-7H9z M23.7,43.7
	C23.7,43.8,23.6,43.8,23.7,43.7c-0.3,0.3-0.8,0.3-1.1,0.2c-1.6-0.8-3.1-1.9-4.3-3.2c-0.7-0.8-1.4-1.6-1.9-2.5
	c-0.2-0.4-0.5-0.8-0.7-1.2c-1-2.1-1.6-4.5-1.6-6.9V11c0-0.6,0.5-1,1-1c0.6,0,1,0.4,1,1c0,0,0,18.9,0,19c0,0.3,0,0.8,0.1,1
	c0.3,4.1,2.4,7.7,5.7,10.1c0.5,0.4,1.1,0.7,1.7,1C24.1,42.4,24.2,43.3,23.7,43.7z"/>
</svg>
