<?xml version="1.0" encoding="utf-8"?>
<!-- Generator: Adobe Illustrator 17.0.0, SVG Export Plug-In . SVG Version: 6.00 Build 0)  -->
<!DOCTYPE svg PUBLIC "-//W3C//DTD SVG 1.1//EN" "http://www.w3.org/Graphics/SVG/1.1/DTD/svg11.dtd">
<svg version="1.1" id="Layer_1" xmlns="http://www.w3.org/2000/svg" xmlns:xlink="http://www.w3.org/1999/xlink" x="0px" y="0px"
	 width="48px" height="48px" viewBox="0 0 48 48" enable-background="new 0 0 48 48" xml:space="preserve">
<path d="M44,27c0,7.9-6.1,21-13,21c-3.6,0-4.7-0.7-5.6-1.5C25,46.2,24.9,46,24,46s-1,0.2-1.4,0.5c-0.9,0.8-2,1.5-5.6,1.5
	C10.1,48,4,34.9,4,27c0-8.4,5.3-15,12-15c3.8,0,5.1,0.6,7,1.7V11c0-1.7-1.3-3-3-3h-4c-0.6,0-1-0.4-1-1c0-0.6,0.4-1,1-1h4
	c2.8,0,5,2.2,5,5v2.7c1.9-1.1,3.2-1.7,7-1.7C38.7,12,44,18.6,44,27z M28,11c5.5,0,10-4.5,10-10c0-0.6-0.4-1-1-1c-5.5,0-10,4.5-10,10
	C27,10.6,27.4,11,28,11z"/>
</svg>
