<?xml version="1.0" encoding="utf-8"?>
<!-- Generator: Adobe Illustrator 20.1.0, SVG Export Plug-In . SVG Version: 6.00 Build 0)  -->
<svg version="1.1" id="Layer_1" xmlns="http://www.w3.org/2000/svg" xmlns:xlink="http://www.w3.org/1999/xlink" x="0px" y="0px"
	 viewBox="0 0 48 48" style="enable-background:new 0 0 48 48;" xml:space="preserve">
<path d="M13.6,42.5l-8-8c-0.1-0.1-0.2-0.2-0.3-0.3l-0.1-0.1c0-0.1-0.1-0.1-0.1-0.2c0-0.1,0-0.1-0.1-0.2c0-0.1,0-0.1-0.1-0.2
	c0-0.1,0-0.3,0-0.4s0-0.3,0-0.4c0-0.1,0-0.1,0.1-0.2c0-0.1,0-0.1,0.1-0.2c0-0.1,0.1-0.1,0.1-0.2c0,0,0-0.1,0.1-0.1
	c0.1-0.1,0.2-0.2,0.3-0.3l8-8c0.8-0.8,2-0.8,2.8,0s0.8,2,0,2.8l-4.6,4.6H41c1.1,0,2,0.9,2,2c0,1.1-0.9,2-2,2H11.8l4.6,4.6
	c0.8,0.8,0.8,2,0,2.8C15.6,43.3,14.4,43.3,13.6,42.5z M31,23.1c0,0.5,0.2,1,0.6,1.4c0.8,0.8,2,0.8,2.8,0l8-8
	c0.1-0.1,0.2-0.2,0.3-0.3c0-0.1,0.1-0.1,0.1-0.2c0-0.1,0.1-0.1,0.1-0.2c0-0.1,0-0.1,0.1-0.2c0-0.1,0-0.1,0-0.2c0-0.2,0-0.4,0-0.7
	c0-0.1,0-0.1,0-0.2c0-0.1,0-0.1-0.1-0.2c0-0.1-0.1-0.1-0.1-0.2c0-0.1-0.1-0.1-0.1-0.2c-0.1-0.1-0.2-0.2-0.3-0.3l-8-8
	c-0.8-0.8-2-0.8-2.8,0c-0.8,0.8-0.8,2,0,2.8l4.6,4.6H7c-1.1,0-2,0.9-2,2s0.9,2,2,2h29.2l-4.6,4.6C31.2,22.1,31,22.6,31,23.1z"/>
</svg>
