<?xml version="1.0" encoding="utf-8"?>
<!-- Generator: Adobe Illustrator 20.1.0, SVG Export Plug-In . SVG Version: 6.00 Build 0)  -->
<svg version="1.1" id="Layer_1" xmlns="http://www.w3.org/2000/svg" xmlns:xlink="http://www.w3.org/1999/xlink" x="0px" y="0px"
	 viewBox="0 0 48 48" style="enable-background:new 0 0 48 48;" xml:space="preserve">
<path d="M39.9,10.8L5.5,45.3c-0.4,0.4-0.9,0.6-1.4,0.6s-1-0.2-1.4-0.6c-0.8-0.8-0.8-2,0-2.8L37.1,8H30c-1.1,0-2-0.9-2-2s0.9-2,2-2
	h11.9c0,0,0,0,0.1,0c0.2,0,0.5,0,0.7,0.1c0.5,0.2,0.9,0.6,1.1,1.1c0.1,0.2,0.2,0.5,0.2,0.8v12c0,1.1-0.9,2-2,2c-1.1,0-2-0.9-2-2
	V10.8z M42,30.1c-1.1,0-2,0.9-2,2v7.1L28.4,27.6c-0.8-0.8-2-0.8-2.8,0c-0.8,0.8-0.8,2,0,2.8L37.1,42H30c-1.1,0-2,0.9-2,2
	c0,1.1,0.9,2,2,2h11.9c0,0,0.1,0,0.1,0c0.5,0,1-0.2,1.4-0.6C43.8,45,44,44.5,44,44c0,0,0,0,0,0V32.1C44,31,43.1,30.1,42,30.1z
	 M17.6,22.5C18,22.8,18.5,23,19,23c0.5,0,1-0.2,1.4-0.6c0.8-0.8,0.8-2,0-2.8L5.5,4.7c-0.8-0.8-2-0.8-2.8,0c-0.8,0.8-0.8,2,0,2.8
	L17.6,22.5z"/>
</svg>
