<?xml version="1.0" encoding="utf-8"?>
<!-- Generator: Adobe Illustrator 19.2.1, SVG Export Plug-In . SVG Version: 6.00 Build 0)  -->
<!DOCTYPE svg PUBLIC "-//W3C//DTD SVG 1.1//EN" "http://www.w3.org/Graphics/SVG/1.1/DTD/svg11.dtd">
<svg version="1.1" id="Layer_1" xmlns="http://www.w3.org/2000/svg" xmlns:xlink="http://www.w3.org/1999/xlink" x="0px" y="0px"
	 viewBox="0 0 48 48" enable-background="new 0 0 48 48" xml:space="preserve">
<path d="M36,24h-1v-1c0-0.6-0.4-1-1-1H8c-0.6,0-1,0.4-1,1v20c0,2.8,2.2,5,5,5h18c2.8,0,5-2.2,5-5v-5h1c3.9,0,7-3.1,7-7
	C43,27.1,39.9,24,36,24z M36,36h-1V26h1c2.8,0,5,2.2,5,5S38.8,36,36,36z M28,20h4c0.4,0,0.7-0.2,0.9-0.6l3-6.2
	c2-0.3,3.5-2.1,3.8-4.7c0.4-3.3-1.3-7.3-5.8-8.4c-0.4-0.1-0.8,0.1-1.1,0.4c-0.2,0.3-0.2,0.8,0,1.1c1.1,1.6,0.4,2.6-0.7,4
	c-0.4,0.5-0.8,1.1-1.1,1.6c-0.5,1.1-0.5,2.3-0.1,3.3c0.2,0.4,0.5,0.8,0.8,1.2l-4,5.6c-0.1,0.1-0.1,0.3-0.2,0.4l-0.5,0.7
	c-0.2,0.3-0.2,0.7-0.1,1C27.3,19.8,27.6,20,28,20z M33,8.1c0.1-0.3,0.5-0.7,0.8-1.2c0.8-1,1.8-2.3,1.7-4c1.9,1.3,2.6,3.5,2.3,5.4
	c-0.2,1.4-0.9,3-2.4,3h0l-1.7-0.6c-0.3-0.2-0.6-0.5-0.8-0.9C32.7,9.3,32.7,8.7,33,8.1z M10.8,10.7l-4.8,4L5,9.2
	c-0.1-0.4,0.1-0.8,0.4-1c0.3-0.2,0.7-0.2,1.1,0L10.8,10.7z M9.2,19.6l-2.3-3.1l5.4-4.5l4.4,6.2c0.2,0.2,0.3,0.4,0.3,0.6V1
	c0-0.6,0.4-1,1-1h8c0.6,0,1,0.4,1,1v3h-5c-0.6,0-1,0.4-1,1c0,0.6,0.4,1,1,1h5v2h-2.5c-0.6,0-1,0.4-1,1c0,0.6,0.4,1,1,1H27v2h-5
	c-0.6,0-1,0.4-1,1c0,0.6,0.4,1,1,1h5v2h-2.5c-0.6,0-1,0.4-1,1c0,0.6,0.4,1,1,1H27v1c0,0.6-0.4,1-1,1h-8c-0.5,0-1-0.4-1-1
	c0,0.5-0.5,1-1,1c0,0,0,0,0,0h-6C9.7,20,9.4,19.9,9.2,19.6z"/>
</svg>
