<?xml version="1.0" encoding="utf-8"?>
<!-- Generator: Adobe Illustrator 17.0.0, SVG Export Plug-In . SVG Version: 6.00 Build 0)  -->
<!DOCTYPE svg PUBLIC "-//W3C//DTD SVG 1.1//EN" "http://www.w3.org/Graphics/SVG/1.1/DTD/svg11.dtd">
<svg version="1.1" id="Layer_1" xmlns="http://www.w3.org/2000/svg" xmlns:xlink="http://www.w3.org/1999/xlink" x="0px" y="0px"
	 width="48px" height="48px" viewBox="0 0 48 48" enable-background="new 0 0 48 48" xml:space="preserve">
<path d="M45,14H32.9c-0.5-4.5-4.3-8-8.9-8s-8.4,3.5-8.9,8H3c-0.6,0-1,0.4-1,1v9h18v-2c0-0.6,0.4-1,1-1h6c0.6,0,1,0.4,1,1v2h18v-9
	C46,14.4,45.6,14,45,14z M17.1,14c0.5-3.4,3.4-6,6.9-6s6.4,2.6,6.9,6H17.1z M28,26h18v17c0,0.6-0.4,1-1,1H3c-0.6,0-1-0.4-1-1V26h18
	v4c0,0.6,0.4,1,1,1h6c0.6,0,1-0.4,1-1V26z"/>
</svg>
