<?xml version="1.0" encoding="utf-8"?>
<!-- Generator: Adobe Illustrator 17.0.0, SVG Export Plug-In . SVG Version: 6.00 Build 0)  -->
<!DOCTYPE svg PUBLIC "-//W3C//DTD SVG 1.1//EN" "http://www.w3.org/Graphics/SVG/1.1/DTD/svg11.dtd">
<svg version="1.1" id="Layer_1" xmlns="http://www.w3.org/2000/svg" xmlns:xlink="http://www.w3.org/1999/xlink" x="0px" y="0px"
	 width="48px" height="48px" viewBox="0 0 48 48" enable-background="new 0 0 48 48" xml:space="preserve">
<path d="M47,14h-4h-3v-1V8c0-4.4-3.6-8-8-8H16c-4.4,0-8,3.6-8,8v5v1H5H1c-0.6,0-1,0.4-1,1v14c0,0.6,0.4,1,1,1h4c0.6,0,1-0.4,1-1V16
	h2v15v12c0,1.3,0.8,2.4,2,2.8V47c0,0.6,0.4,1,1,1h4c0.6,0,1-0.4,1-1v-1h16v1c0,0.6,0.4,1,1,1h4c0.6,0,1-0.4,1-1v-1.2
	c1.2-0.4,2-1.5,2-2.8V31V16h2v13c0,0.6,0.4,1,1,1h4c0.6,0,1-0.4,1-1V15C48,14.4,47.6,14,47,14z M17,5c0-0.6,0.4-1,1-1h12
	c0.6,0,1,0.4,1,1v4c0,0.6-0.4,1-1,1H18c-0.6,0-1-0.4-1-1V5z M19,40h-6c-0.6,0-1-0.4-1-1s0.4-1,1-1h6c0.6,0,1,0.4,1,1S19.6,40,19,40z
	 M35,40h-6c-0.6,0-1-0.4-1-1s0.4-1,1-1h6c0.6,0,1,0.4,1,1S35.6,40,35,40z M38,30H10V14h28V30z"/>
</svg>
