<?xml version="1.0" encoding="utf-8"?>
<!-- Generator: Adobe Illustrator 17.0.0, SVG Export Plug-In . SVG Version: 6.00 Build 0)  -->
<!DOCTYPE svg PUBLIC "-//W3C//DTD SVG 1.1//EN" "http://www.w3.org/Graphics/SVG/1.1/DTD/svg11.dtd">
<svg version="1.1" id="Layer_1" xmlns="http://www.w3.org/2000/svg" xmlns:xlink="http://www.w3.org/1999/xlink" x="0px" y="0px"
	 width="48px" height="48px" viewBox="0 0 48 48" enable-background="new 0 0 48 48" xml:space="preserve">
<path d="M0,16h48v31c0,0.6-0.4,1-1,1H1c-0.6,0-1-0.4-1-1V16z M48,5v9H0V5c0-0.6,0.4-1,1-1h7V1c0-0.6,0.4-1,1-1h6c0.6,0,1,0.4,1,1v3
	h16V1c0-0.6,0.4-1,1-1h6c0.6,0,1,0.4,1,1v3h7C47.6,4,48,4.4,48,5z M14,2h-4v6h4V2z M38,2h-4v6h4V2z"/>
</svg>
