<?xml version="1.0" encoding="utf-8"?>
<!-- Generator: Adobe Illustrator 17.0.0, SVG Export Plug-In . SVG Version: 6.00 Build 0)  -->
<!DOCTYPE svg PUBLIC "-//W3C//DTD SVG 1.1//EN" "http://www.w3.org/Graphics/SVG/1.1/DTD/svg11.dtd">
<svg version="1.1" id="Layer_1" xmlns="http://www.w3.org/2000/svg" xmlns:xlink="http://www.w3.org/1999/xlink" x="0px" y="0px"
	 width="48px" height="48px" viewBox="0 0 48 48" enable-background="new 0 0 48 48" xml:space="preserve">
<path d="M10,20c0,1.1-0.9,2-2,2s-2-0.9-2-2c0-1.1,0.9-2,2-2S10,18.9,10,20z M39,26c0,5.5-4.5,10-10,10s-10-4.5-10-10s4.5-10,10-10
	S39,20.5,39,26z M36,26c0-3.9-3.1-7-7-7s-7,3.1-7,7c0,3.9,3.1,7,7,7S36,29.9,36,26z M48,16.4v20.8c0,3-1.9,4.8-5.1,4.8H5.1
	C1.9,42,0,40.3,0,37.2V16.4c0-1.9,0.7-4,4-4.4l0-1.1c0-1.6,1.4-3,2.9-3h1.9c1.7,0,3.1,1.4,3.1,3v1h5.5l2.7-3.6C21.2,6.9,22.6,6,24,6
	h10c1.4,0,2.8,0.9,3.8,2.4l0.1,0.1l1.7,3.4h3.3C47.1,12,48,14.4,48,16.4z M12,20c0-2.2-1.8-4-4-4c-2.2,0-4,1.8-4,4c0,2.2,1.8,4,4,4
	C10.2,24,12,22.2,12,20z M41,26c0-6.6-5.4-12-12-12c-6.6,0-12,5.4-12,12c0,6.6,5.4,12,12,12C35.6,38,41,32.6,41,26z"/>
</svg>
