<?xml version="1.0" encoding="utf-8"?>
<!-- Generator: Adobe Illustrator 17.0.0, SVG Export Plug-In . SVG Version: 6.00 Build 0)  -->
<!DOCTYPE svg PUBLIC "-//W3C//DTD SVG 1.1//EN" "http://www.w3.org/Graphics/SVG/1.1/DTD/svg11.dtd">
<svg version="1.1" id="Layer_1" xmlns="http://www.w3.org/2000/svg" xmlns:xlink="http://www.w3.org/1999/xlink" x="0px" y="0px"
	 width="48px" height="48px" viewBox="0 0 48 48" enable-background="new 0 0 48 48" xml:space="preserve">
<path d="M39.7,34.3c0.2,0.2,0.3,0.4,0.3,0.7v3H30c-0.6,0-1,0.4-1,1s0.4,1,1,1h10v3c0,0.6-0.4,1-1,1h-1v3c0,0.6-0.4,1-1,1h-6
	c-0.6,0-1-0.4-1-1v-3H10v3c0,0.6-0.4,1-1,1H3c-0.6,0-1-0.4-1-1v-3H1c-0.6,0-1-0.4-1-1v-3h10c0.6,0,1-0.4,1-1s-0.4-1-1-1H0v-3
	c0-0.3,0.1-0.5,0.3-0.7l3.9-3.9l3.9-9.8C8.2,20.2,8.6,20,9,20h10.2c0.3,0.7,0.6,1.4,1,2H9.7l-3.2,8h27c0,0,1.2-0.1,2.3,0.4
	L39.7,34.3z M35,8h-3v6h3c1.7,0,3-1.3,3-3C38,9.3,36.7,8,35,8z M48,14c0,7.7-6.3,14-14,14c-7.7,0-14-6.3-14-14S26.3,0,34,0
	C41.7,0,48,6.3,48,14z M40,11c0-2.8-2.2-5-5-5h-4c-0.6,0-1,0.4-1,1v14c0,0.6,0.4,1,1,1s1-0.4,1-1v-5h3C37.8,16,40,13.8,40,11z"/>
</svg>
