<?xml version="1.0" encoding="utf-8"?>
<!-- Generator: Adobe Illustrator 17.0.0, SVG Export Plug-In . SVG Version: 6.00 Build 0)  -->
<!DOCTYPE svg PUBLIC "-//W3C//DTD SVG 1.1//EN" "http://www.w3.org/Graphics/SVG/1.1/DTD/svg11.dtd">
<svg version="1.1" id="Layer_1" xmlns="http://www.w3.org/2000/svg" xmlns:xlink="http://www.w3.org/1999/xlink" x="0px" y="0px"
	 width="48px" height="48px" viewBox="0 0 48 48" enable-background="new 0 0 48 48" xml:space="preserve">
<path d="M23,2C10.3,2,0,12.3,0,25c0,12.7,10.3,23,23,23c12.7,0,23-10.3,23-23C46,12.3,35.7,2,23,2z M33.2,19L18.9,32.4
	c-0.2,0.2-0.4,0.3-0.7,0.3c-0.2,0-0.5-0.1-0.7-0.3l-4.8-4.8c-0.4-0.4-0.4-1,0-1.4c0.4-0.4,1-0.4,1.4,0l4.1,4.1l13.7-12.8
	c0.4-0.4,1-0.3,1.4,0C33.6,18,33.6,18.6,33.2,19z"/>
</svg>
