<?xml version="1.0" encoding="utf-8"?>
<!-- Generator: Adobe Illustrator 20.1.0, SVG Export Plug-In . SVG Version: 6.00 Build 0)  -->
<svg version="1.1" id="Layer_1" xmlns="http://www.w3.org/2000/svg" xmlns:xlink="http://www.w3.org/1999/xlink" x="0px" y="0px"
	 viewBox="0 0 48 48" style="enable-background:new 0 0 48 48;" xml:space="preserve">
<path d="M39.8,47.6C39.6,47.8,39.3,48,39,48H9c-0.3,0-0.6-0.2-0.8-0.4s-0.2-0.6-0.1-0.9c0.1-0.2,1.5-3.8,3.1-6.2
	c2-3.1,4.2-4.2,7.8-6.1v-0.7c-1-0.5-2.9-1.9-3.8-4.8c-1-0.4-1.7-1.6-2-3.3c-0.3-1.9,0.1-4.1,1.7-5.1c0-0.1,0-0.2-0.1-0.3
	c-0.2-1.1-0.6-2.8,0.3-4.6c0.7-1.4,2-1.6,3-1.6c0.4-1.6,1.9-1.8,2.9-2c0.2,0,0.4-0.1,0.6-0.1c0.1-0.1,0.3-0.3,0.5-0.5
	C23,10.4,24.2,9,26,9c0.6,0,1,0.3,1.2,0.5c0.6,0.6,0.5,1.5,0.4,2.3c0,0.1,0,0.2,0,0.3c3.3,0.3,4.8,2.5,5.3,3.5
	c0.9,1.8,0.5,3.5,0.3,4.6c0,0.1,0,0.2-0.1,0.3c1.6,1,2,3.2,1.7,5.1c-0.3,1.7-1,2.9-2,3.3c-0.9,2.9-2.8,4.3-3.8,4.8v0.7
	c3.7,1.8,5.8,3,7.8,6.1c1.6,2.4,3,6,3.1,6.2C40.1,46.9,40,47.3,39.8,47.6z"/>
</svg>
