<?xml version="1.0" encoding="utf-8"?>
<!-- Generator: Adobe Illustrator 20.1.0, SVG Export Plug-In . SVG Version: 6.00 Build 0)  -->
<svg version="1.1" id="Layer_1" xmlns="http://www.w3.org/2000/svg" xmlns:xlink="http://www.w3.org/1999/xlink" x="0px" y="0px"
	 viewBox="0 0 48 48" style="enable-background:new 0 0 48 48;" xml:space="preserve">
<path d="M26,19c0,1.1-0.9,2-2,2c-1.1,0-2-0.9-2-2c0-1.1,0.9-2,2-2C25.1,17,26,17.9,26,19z M23,13.1c0-1.7-1.3-3.1-3-3.1
	c-1.7,0-3,1.4-3,3.1c0,0.6,0.4,1,1,1s1-0.4,1-1c0-0.6,0.4-1.1,1-1.1c0.6,0,1,0.5,1,1.1c0,0.6,0.4,1,1,1S23,13.6,23,13.1z M28,10
	c-1.7,0-3,1.4-3,3.1c0,0.6,0.4,1,1,1s1-0.4,1-1c0-0.6,0.4-1.1,1-1.1c0.6,0,1,0.5,1,1.1c0,0.6,0.4,1,1,1s1-0.4,1-1
	C31,11.4,29.7,10,28,10z M38.7,16l-0.6,6.7l-19.8,8.5l-8-2.7L9.3,16c-0.4-4.1,1-8.2,3.8-11.2C15.9,1.8,19.9,0,24,0
	c4.1,0,8.1,1.7,10.9,4.8C37.7,7.8,39.1,11.9,38.7,16z M35.1,15.3c0-6.2-4.9-11.3-11-11.3c-6.1,0-11,5-11,11.3
	c0,6.1,4.7,10.7,11,10.7C30.4,26,35.1,21.4,35.1,15.3z M36.8,37.5c0.1-0.4,0.2-0.9,0.2-1.4l1-11.2l-16.8,7.2L36.8,37.5z M11.1,36.1
	C11.6,42.9,17.2,48,24,48c5.6,0,10.4-3.5,12.2-8.6l-25.7-8.8L11.1,36.1z"/>
</svg>
