<?xml version="1.0" encoding="utf-8"?>
<!-- Generator: Adobe Illustrator 17.0.0, SVG Export Plug-In . SVG Version: 6.00 Build 0)  -->
<!DOCTYPE svg PUBLIC "-//W3C//DTD SVG 1.1//EN" "http://www.w3.org/Graphics/SVG/1.1/DTD/svg11.dtd">
<svg version="1.1" id="Layer_1" xmlns="http://www.w3.org/2000/svg" xmlns:xlink="http://www.w3.org/1999/xlink" x="0px" y="0px"
	 width="48px" height="48px" viewBox="0 0 48 48" enable-background="new 0 0 48 48" xml:space="preserve">
<path d="M41,2c-3.9,0-7,3.1-7,7c0,0.3,0,0.7,0.1,1H15.5l-7-8H0v2h7.5l5.3,6H9c-0.4,0-0.8,0.2-0.9,0.6C7.9,11,8,11.4,8.3,11.7
	L24,27.4V44h-7c-0.6,0-1,0.4-1,1c0,0.6,0.4,1,1,1h16c0.6,0,1-0.4,1-1c0-0.6-0.4-1-1-1h-7V27.4l12.1-12.1C39,15.8,40,16,41,16
	c3.9,0,7-3.1,7-7C48,5.1,44.9,2,41,2z M41,14c-0.5,0-0.9-0.1-1.4-0.2l2.1-2.1c0.3-0.3,0.4-0.7,0.2-1.1C41.8,10.2,41.4,10,41,10h-4.9
	C36,9.7,36,9.3,36,9c0-2.8,2.2-5,5-5c2.8,0,5,2.2,5,5C46,11.8,43.8,14,41,14z"/>
</svg>
