<?xml version="1.0" encoding="utf-8"?>
<!-- Generator: Adobe Illustrator 20.1.0, SVG Export Plug-In . SVG Version: 6.00 Build 0)  -->
<svg version="1.1" id="Layer_1" xmlns="http://www.w3.org/2000/svg" xmlns:xlink="http://www.w3.org/1999/xlink" x="0px" y="0px"
	 viewBox="0 0 48 48" style="enable-background:new 0 0 48 48;" xml:space="preserve">
<path d="M34,19c0,0.6-0.4,1-1,1h-3v14c0,2.4-1.3,4.2-2,5v4c0,0.6-0.4,1-1,1h-6c-0.6,0-1-0.4-1-1v-4c-0.7-0.8-2-2.6-2-5V20h-3
	c-0.6,0-1-0.4-1-1c0-0.6,0.4-1,1-1h18C33.6,18,34,18.4,34,19z M30,12c0-3.3-2.7-6-6-6s-6,2.7-6,6v4h12V12z"/>
</svg>
