<?xml version="1.0" encoding="utf-8"?>
<!-- Generator: Adobe Illustrator 17.0.0, SVG Export Plug-In . SVG Version: 6.00 Build 0)  -->
<!DOCTYPE svg PUBLIC "-//W3C//DTD SVG 1.1//EN" "http://www.w3.org/Graphics/SVG/1.1/DTD/svg11.dtd">
<svg version="1.1" id="Layer_1" xmlns="http://www.w3.org/2000/svg" xmlns:xlink="http://www.w3.org/1999/xlink" x="0px" y="0px"
	 width="48px" height="48px" viewBox="0 0 48 48" enable-background="new 0 0 48 48" xml:space="preserve">
<path d="M34,20.1V11c0-0.3-0.1-0.5-0.3-0.7l-10-10C23.5,0.1,23.3,0,23,0H1C0.4,0,0,0.4,0,1v42c0,0.6,0.4,1,1,1h22
	c-1.9-2.5-3-5.6-3-9C20,27.1,26.2,20.6,34,20.1z M22,2l10,10H22V2z M7,12h9c0.6,0,1,0.4,1,1s-0.4,1-1,1H7c-0.6,0-1-0.4-1-1
	S6.4,12,7,12z M7,18h16c0.6,0,1,0.4,1,1s-0.4,1-1,1H7c-0.6,0-1-0.4-1-1S6.4,18,7,18z M17,32H7c-0.6,0-1-0.4-1-1s0.4-1,1-1h10
	c0.6,0,1,0.4,1,1S17.6,32,17,32z M19,26H7c-0.6,0-1-0.4-1-1s0.4-1,1-1h12c0.6,0,1,0.4,1,1S19.6,26,19,26z M35,22
	c-7.2,0-13,5.8-13,13c0,7.2,5.8,13,13,13s13-5.8,13-13C48,27.8,42.2,22,35,22z M41.1,39.7c0.4,0.4,0.4,1,0,1.4
	c-0.2,0.2-0.5,0.3-0.7,0.3c-0.3,0-0.5-0.1-0.7-0.3L35,36.4l-4.7,4.7c-0.2,0.2-0.5,0.3-0.7,0.3s-0.5-0.1-0.7-0.3
	c-0.4-0.4-0.4-1,0-1.4l4.7-4.7l-4.7-4.7c-0.4-0.4-0.4-1,0-1.4c0.4-0.4,1-0.4,1.4,0l4.7,4.7l4.7-4.7c0.4-0.4,1-0.4,1.4,0
	c0.4,0.4,0.4,1,0,1.4L36.4,35L41.1,39.7z"/>
</svg>
