<?xml version="1.0" encoding="utf-8"?>
<!-- Generator: Adobe Illustrator 20.1.0, SVG Export Plug-In . SVG Version: 6.00 Build 0)  -->
<svg version="1.1" id="Layer_1" xmlns="http://www.w3.org/2000/svg" xmlns:xlink="http://www.w3.org/1999/xlink" x="0px" y="0px"
	 viewBox="0 0 48 48" style="enable-background:new 0 0 48 48;" xml:space="preserve">
<path d="M41.7,12.3l-12-12C29.5,0.1,29.3,0,29,0H7C6.4,0,6,0.4,6,1v46c0,0.6,0.4,1,1,1h34c0.6,0,1-0.4,1-1V13
	C42,12.7,41.9,12.5,41.7,12.3z M21.7,34.7l-5,5C16.5,39.9,16.3,40,16,40s-0.5-0.1-0.7-0.3l-3-3c-0.4-0.4-0.4-1,0-1.4
	c0.4-0.4,1-0.4,1.4,0l2.3,2.3l4.3-4.3c0.4-0.4,1-0.4,1.4,0C22.1,33.7,22.1,34.3,21.7,34.7z M21.7,25.7l-5,5C16.5,30.9,16.3,31,16,31
	s-0.5-0.1-0.7-0.3l-3-3c-0.4-0.4-0.4-1,0-1.4c0.4-0.4,1-0.4,1.4,0l2.3,2.3l4.3-4.3c0.4-0.4,1-0.4,1.4,0
	C22.1,24.7,22.1,25.3,21.7,25.7z M21.7,16.7l-5,5C16.5,21.9,16.3,22,16,22s-0.5-0.1-0.7-0.3l-3-3c-0.4-0.4-0.4-1,0-1.4
	c0.4-0.4,1-0.4,1.4,0l2.3,2.3l4.3-4.3c0.4-0.4,1-0.4,1.4,0C22.1,15.7,22.1,16.3,21.7,16.7z M33,38h-8c-0.6,0-1-0.4-1-1s0.4-1,1-1h8
	c0.6,0,1,0.4,1,1S33.6,38,33,38z M33,30h-8c-0.6,0-1-0.4-1-1s0.4-1,1-1h8c0.6,0,1,0.4,1,1S33.6,30,33,30z M33,22h-8
	c-0.6,0-1-0.4-1-1s0.4-1,1-1h8c0.6,0,1,0.4,1,1S33.6,22,33,22z M28,14V2l12,12H28z"/>
</svg>
