<?xml version="1.0" encoding="utf-8"?>
<!-- Generator: Adobe Illustrator 20.1.0, SVG Export Plug-In . SVG Version: 6.00 Build 0)  -->
<svg version="1.1" id="Layer_1" xmlns="http://www.w3.org/2000/svg" xmlns:xlink="http://www.w3.org/1999/xlink" x="0px" y="0px"
	 viewBox="0 0 48 48" style="enable-background:new 0 0 48 48;" xml:space="preserve">
<path d="M43.7,12.3l-12-12C31.5,0.1,31.3,0,31,0H5C4.4,0,4,0.4,4,1v46c0,0.6,0.4,1,1,1h38c0.6,0,1-0.4,1-1V13
	C44,12.7,43.9,12.5,43.7,12.3z M34,27c0,0.6-0.4,1-1,1s-1-0.4-1-1v-5h-8v18h5c0.6,0,1,0.4,1,1s-0.4,1-1,1H17c-0.6,0-1-0.4-1-1
	s0.4-1,1-1h5V22h-8v5c0,0.6-0.4,1-1,1s-1-0.4-1-1v-6c0-0.6,0.4-1,1-1h20c0.6,0,1,0.4,1,1V27z M30,14V2l12,12H30z"/>
</svg>
