<?xml version="1.0" encoding="utf-8"?>
<!-- Generator: Adobe Illustrator 17.0.0, SVG Export Plug-In . SVG Version: 6.00 Build 0)  -->
<!DOCTYPE svg PUBLIC "-//W3C//DTD SVG 1.1//EN" "http://www.w3.org/Graphics/SVG/1.1/DTD/svg11.dtd">
<svg version="1.1" id="Layer_1" xmlns="http://www.w3.org/2000/svg" xmlns:xlink="http://www.w3.org/1999/xlink" x="0px" y="0px"
	 width="48px" height="48px" viewBox="0 0 48 48" enable-background="new 0 0 48 48" xml:space="preserve">
<path d="M34,20.1V11c0-0.3-0.1-0.5-0.3-0.7l-10-10C23.5,0.1,23.3,0,23,0H1C0.4,0,0,0.4,0,1v42c0,0.6,0.4,1,1,1h22c-1.9-3-3-5.6-3-9
	C20,27.1,26,20.6,34,20.1z M22,2l10,10H22V2z M7,12h9c0.6,0,1,0.4,1,1c0,0.6-0.4,1-1,1H7c-0.6,0-1-0.4-1-1C6,12.4,6.4,12,7,12z
	 M7,18h16c0.6,0,1,0.4,1,1c0,0.6-0.4,1-1,1H7c-0.6,0-1-0.4-1-1C6,18.4,6.4,18,7,18z M17,32H7c-0.6,0-1-0.4-1-1c0-0.6,0.4-1,1-1h10
	c0.6,0,1,0.4,1,1C18,31.6,17.6,32,17,32z M19,26H7c-0.6,0-1-0.4-1-1c0-0.6,0.4-1,1-1h12c0.6,0,1,0.4,1,1C20,25.6,19.6,26,19,26z
	 M35,22c-7.2,0-13,5.8-13,13c0,7.2,5.8,13,13,13s13-5.8,13-13C48,27.8,42.2,22,35,22z M35,33.9c2.1,0,3.8,1.7,3.8,3.8
	c0,1.7-0.8,3.2-2.8,3.6v1c0,0.6-0.4,1-1,1s-1-0.4-1-1v-1c-2-0.4-2.8-1.9-2.8-3.6c0-0.6,0.4-1,1-1c0.6,0,1,0.4,1,1
	c0,1,0.8,1.8,1.8,1.8c1,0,1.8-0.8,1.8-1.8S36,35.9,35,35.9c-2.1,0-3.8-1.7-3.8-3.8c0-1.7,0.8-3.2,2.8-3.6v-1c0-0.6,0.4-1,1-1
	s1,0.4,1,1v1c2,0.4,2.8,1.9,2.8,3.6c0,0.6-0.4,1-1,1c-0.6,0-1-0.4-1-1c0-1-0.8-1.8-1.8-1.8c-1,0-1.8,0.8-1.8,1.8
	C33.2,33.1,34,33.9,35,33.9z"/>
</svg>
