<?xml version="1.0" encoding="utf-8"?>
<!-- Generator: Adobe Illustrator 20.1.0, SVG Export Plug-In . SVG Version: 6.00 Build 0)  -->
<svg version="1.1" id="Layer_1" xmlns="http://www.w3.org/2000/svg" xmlns:xlink="http://www.w3.org/1999/xlink" x="0px" y="0px"
	 viewBox="0 0 48 48" style="enable-background:new 0 0 48 48;" xml:space="preserve">
<path d="M24,32.6c0,0.5,0,0.9,0.1,1.3H4c-2.2,0-4-1.8-4-4V8c0-0.8,0.2-1.5,0.6-2.1l20.9,12.9c0.2,0.1,0.3,0.2,0.5,0.2
	c0.2,0,0.4-0.1,0.5-0.2L43.4,5.9C43.8,6.5,44,7.2,44,8v19.7c-1.8-3.4-5.3-5.7-9.4-5.7C28.8,22,24,26.8,24,32.6z M41.9,4.5
	C41.3,4.2,40.7,4,40,4H4C3.3,4,2.7,4.2,2.1,4.5L22,16.8L41.9,4.5z M47.7,45.7c-0.4,0.4-1,0.4-1.4,0l-4.9-4.9l-1.4-1.4
	c-1.5,1.2-3.3,1.9-5.3,1.9c-4.7,0-8.6-3.9-8.6-8.6c0-4.7,3.9-8.6,8.6-8.6c4.7,0,8.6,3.9,8.6,8.6c0,2-0.7,3.9-1.9,5.3l1.4,1.4
	l4.9,4.9C48.1,44.7,48.1,45.3,47.7,45.7z M41.2,32.6c0-3.6-3-6.6-6.6-6.6C31,26,28,29,28,32.6c0,3.6,3,6.6,6.6,6.6
	C38.3,39.2,41.2,36.3,41.2,32.6z"/>
</svg>
