<?xml version="1.0" encoding="utf-8"?>
<!-- Generator: Adobe Illustrator 17.0.0, SVG Export Plug-In . SVG Version: 6.00 Build 0)  -->
<!DOCTYPE svg PUBLIC "-//W3C//DTD SVG 1.1//EN" "http://www.w3.org/Graphics/SVG/1.1/DTD/svg11.dtd">
<svg version="1.1" id="Layer_1" xmlns="http://www.w3.org/2000/svg" xmlns:xlink="http://www.w3.org/1999/xlink" x="0px" y="0px"
	 width="48px" height="48px" viewBox="0 0 48 48" enable-background="new 0 0 48 48" xml:space="preserve">
<path d="M47,0H1C0.4,0,0,0.4,0,1v46c0,0.6,0.4,1,1,1h46c0.6,0,1-0.4,1-1V1C48,0.4,47.6,0,47,0z M42,33c0,0.6-0.4,1-1,1H30v3
	c0,0.6-0.4,1-1,1H19c-0.6,0-1-0.4-1-1v-3H7c-0.6,0-1-0.4-1-1V9c0-0.6,0.4-1,1-1h7v9c0,0.6,0.4,1,1,1s1-0.4,1-1V8h4v9
	c0,0.6,0.4,1,1,1s1-0.4,1-1V8h4v9c0,0.6,0.4,1,1,1s1-0.4,1-1V8h4v9c0,0.6,0.4,1,1,1s1-0.4,1-1V8h7c0.6,0,1,0.4,1,1V33z"/>
</svg>
