<?xml version="1.0" encoding="utf-8"?>
<!-- Generator: Adobe Illustrator 17.0.0, SVG Export Plug-In . SVG Version: 6.00 Build 0)  -->
<!DOCTYPE svg PUBLIC "-//W3C//DTD SVG 1.1//EN" "http://www.w3.org/Graphics/SVG/1.1/DTD/svg11.dtd">
<svg version="1.1" id="Layer_1" xmlns="http://www.w3.org/2000/svg" xmlns:xlink="http://www.w3.org/1999/xlink" x="0px" y="0px"
	 width="48px" height="48px" viewBox="0 0 48 48" enable-background="new 0 0 48 48" xml:space="preserve">
<path d="M43.9,40.4c-0.3-1-1.5-1.6-2.5-1.3c-0.8,0.3-1.6,0.5-2.2,0.7c-0.2-0.7-0.4-1.6-0.5-2.3c-1-4.7-1.9-8.5-4.6-8.5
	c-1.7,0-10.8,1.7-15.3,2.6l-0.9-6.3l9.7-2.4c1.1-0.3,1.7-1.4,1.5-2.4c-0.3-1.1-1.4-1.7-2.4-1.5l-9.3,2.3l-1-7
	c2.7-1.1,4.7-3.8,4.7-6.9c0-4.1-3.3-7.5-7.5-7.5C9.3,0,6,3.3,6,7.5c0,3.7,2.7,6.8,6.2,7.3l1.1,7.5C8.1,23.9,4,29.3,4,35
	c0,7.2,5.7,13,12.8,13C24,48,30,42,30,35v-1.4c1-0.3,2.6-0.4,3.3-0.5c0.5,1.1,1.1,3.8,1.4,5.3C35.6,42.1,36,44,38,44
	c1.2,0,3.6-0.8,4.6-1.1C43.7,42.5,44.2,41.4,43.9,40.4z M10,7.5C10,5.6,11.5,4,13.5,4c1.9,0,3.5,1.6,3.5,3.5c0,1.9-1.6,3.5-3.5,3.5
	C11.5,10.9,10,9.4,10,7.5z M26,35c0,4.8-4.3,9-9.2,9C12,44,8,39.9,8,35c0-4.1,2.8-7.4,5.9-8.6l1.1,7.9c0.1,0.5,0.4,1,0.8,1.3
	c0.4,0.3,1,0.4,1.5,0.3c2.9-0.6,5.6-1.2,8.6-1.7V35z"/>
</svg>
