<?xml version="1.0" encoding="utf-8"?>
<!-- Generator: Adobe Illustrator 20.1.0, SVG Export Plug-In . SVG Version: 6.00 Build 0)  -->
<svg version="1.1" id="Layer_1" xmlns="http://www.w3.org/2000/svg" xmlns:xlink="http://www.w3.org/1999/xlink" x="0px" y="0px"
	 viewBox="0 0 48 48" style="enable-background:new 0 0 48 48;" xml:space="preserve">
<path d="M48,25.1v16c0,0.6-0.4,1-1,1h-6c-0.6,0-1-0.4-1-1v-16c0-0.6,0.4-1,1-1h6C47.6,24.1,48,24.5,48,25.1z M36,5.1v19h-3
	c-4.2,0-7.4,2.4-9.2,3.6c-0.2,0.1-0.3,0.3-0.5,0.4H17c-1.5,0-2.8,0.8-3.6,2l-5.5-1.8C7.2,28.1,6.6,28,6,28V5.1c0-0.6,0.4-1,1-1h28
	C35.6,4.1,36,4.5,36,5.1z M26,6.1H16v15l5-4.9l5,4.9V6.1z M25,29.3c-0.4,0.3-1,0.7-1,0.8h-1h-6c-0.3,0-0.6,0.1-0.9,0.2c0,0,0,0,0,0
	c-0.2,0.1-0.4,0.2-0.5,0.4c-0.4,0.4-0.6,1-0.6,1.5c0,0.9,0.5,2,2,2h11c0.6,0,1,0.4,1,1c0,0.6-0.4,1-1,1H17c-2.6,0-4-2-4-4
	c0,0,0,0,0,0l-5.7-1.8c-2.6-0.7-4.6-0.1-7,2.3C0.1,32.7,0,33,0,33.3c0.1,0.3,0.3,0.6,0.5,0.7c4.1,2,7.3,3.7,9.8,5.1
	c6.2,3.3,9,4.8,12.3,4.8c2.7,0,5.6-1,10.8-2.8c1.3-0.5,2.8-1,4.5-1.6V26.1h-5C29.5,26.1,26.7,28.1,25,29.3z"/>
</svg>
