<?xml version="1.0" encoding="utf-8"?>
<!-- Generator: Adobe Illustrator 20.1.0, SVG Export Plug-In . SVG Version: 6.00 Build 0)  -->
<svg version="1.1" id="Layer_1" xmlns="http://www.w3.org/2000/svg" xmlns:xlink="http://www.w3.org/1999/xlink" x="0px" y="0px"
	 viewBox="0 0 48 48" style="enable-background:new 0 0 48 48;" xml:space="preserve">
<path d="M48,25c0,2.4-1.7,4.4-4,4.9V31c0,2-1.2,3.8-3,4.6V36c0,4.4-3.6,8-8,8h-2.1c-0.5,2.3-2.5,4-4.9,4c-2.8,0-5-2.2-5-5
	c0-2.8,2.2-5,5-5c2.4,0,4.4,1.7,4.9,4H33c3.3,0,6-2.7,6-6h-4c-0.6,0-1-0.4-1-1V15c0-0.6,0.4-1,1-1h1.9C36.4,7.3,30.8,2,24,2
	S11.6,7.3,11.1,14H13c0.6,0,1,0.4,1,1v20c0,0.6-0.4,1-1,1H9c-2.8,0-5-2.2-5-5v-1.1c-2.3-0.5-4-2.5-4-4.9c0-2.4,1.7-4.4,4-4.9V19
	c0-2.8,2.2-5,5-5h0.1C9.6,6.2,16.1,0,24,0s14.4,6.2,14.9,14H39c2.8,0,5,2.2,5,5v1.1C46.3,20.6,48,22.6,48,25z"/>
</svg>
