<?xml version="1.0" encoding="utf-8"?>
<!-- Generator: Adobe Illustrator 20.1.0, SVG Export Plug-In . SVG Version: 6.00 Build 0)  -->
<svg version="1.1" id="Layer_1" xmlns="http://www.w3.org/2000/svg" xmlns:xlink="http://www.w3.org/1999/xlink" x="0px" y="0px"
	 viewBox="0 0 48 48" style="enable-background:new 0 0 48 48;" xml:space="preserve">
<path d="M48,24.3c0.2,5.6-1.8,11-5.6,15.1c-3.8,4.1-9,6.5-14.6,6.7c0,0,0,0-0.1,0c-1.1,0-2-0.8-2-1.9c0-1.1,0.8-2,1.9-2.1
	c4.5-0.2,8.7-2.1,11.8-5.4c3.1-3.3,4.7-7.7,4.6-12.2c-0.2-4.5-2.1-8.7-5.4-11.8C35.3,9.5,30.9,7.8,26.4,8c-4.7,0.2-9.2,2.4-12.4,6.1
	c-2.1,2.4-3.4,5.3-3.9,8.5l3.4-3.9c0.7-0.8,2-0.9,2.8-0.2c0.8,0.7,0.9,2,0.2,2.8l-6.9,7.9c-0.8,1.1-2.6,1-3.3-0.1l-6-9
	c-0.6-0.9-0.4-2.2,0.6-2.8c0.9-0.6,2.2-0.4,2.8,0.6l2.5,3.8c0.7-3.7,2.3-7.2,4.8-10.1c3.9-4.5,9.5-7.3,15.3-7.5
	c5.6-0.2,11,1.8,15.1,5.6C45.4,13.5,47.8,18.7,48,24.3z M26,13c-1.1,0-2,0.9-1.9,2v13H37c1.1,0,2-0.9,2-2c0-1.1-0.9-2-2-2h-9v-9
	C28,13.9,27.1,13,26,13z"/>
</svg>
