<?xml version="1.0" encoding="utf-8"?>
<!-- Generator: Adobe Illustrator 17.0.0, SVG Export Plug-In . SVG Version: 6.00 Build 0)  -->
<!DOCTYPE svg PUBLIC "-//W3C//DTD SVG 1.1//EN" "http://www.w3.org/Graphics/SVG/1.1/DTD/svg11.dtd">
<svg version="1.1" id="Layer_1" xmlns="http://www.w3.org/2000/svg" xmlns:xlink="http://www.w3.org/1999/xlink" x="0px" y="0px"
	 width="48px" height="48px" viewBox="0 0 48 48" enable-background="new 0 0 48 48" xml:space="preserve">
<path d="M37,24c4.2,0,8,2,10.4,5.2L44,8.9V4c0-2.2-1.8-4-4-4H8C5.8,0,4,1.8,4,4v4.9L0.2,32H25C27,27.3,31.6,24,37,24z M28,8h9.8
	l0.6,4H28V8z M10.7,8H20v4h-9.9L10.7,8z M5.8,10h2.6L8,12.9c0,0.3,0,0.6,0.2,0.8C8.4,13.9,8.7,14,9,14h12.1c0.5,0,0.9-0.4,0.9-1v-3
	h4l0,3c0,0.5,0.5,1,1,1h12.5c0.3,0,0.6-0.1,0.8-0.3c0.2-0.2,0.3-0.5,0.2-0.8L40.1,10h2.1l1,6H4.8L5.8,10z M24,37
	c0,3.5,1.4,6.7,3.6,9H8v1c0,0.6-0.4,1-1,1s-1-0.4-1-1v-1H4c-2.2,0-4-1.8-4-4v-8h24.4C24.1,35,24,36,24,37z M37,26
	c-6.1,0-11,4.9-11,11c0,6.1,4.9,11,11,11s11-4.9,11-11C48,30.9,43.1,26,37,26z M41.4,36.3c-0.2,0.2-0.5,0.3-0.7,0.3
	c-0.3,0-0.5-0.1-0.7-0.3L38,34.4l0,7.6c0,0.6-0.4,1-1,1h0c-0.6,0-1-0.4-1-1l0-7.6l-1.9,1.9c-0.4,0.4-1,0.4-1.4,0
	c-0.4-0.4-0.4-1,0-1.4l3.6-3.6c0.1-0.1,0.2-0.2,0.3-0.2C36.8,31,36.9,31,37,31h0c0,0,0,0,0.1,0c0.1,0,0.2,0,0.3,0.1
	c0.1,0,0.2,0.1,0.3,0.2c0,0,0,0,0.1,0l3.6,3.6C41.8,35.3,41.8,35.9,41.4,36.3z"/>
</svg>
