<?xml version="1.0" encoding="utf-8"?>
<!-- Generator: Adobe Illustrator 17.0.0, SVG Export Plug-In . SVG Version: 6.00 Build 0)  -->
<!DOCTYPE svg PUBLIC "-//W3C//DTD SVG 1.1//EN" "http://www.w3.org/Graphics/SVG/1.1/DTD/svg11.dtd">
<svg version="1.1" id="Layer_1" xmlns="http://www.w3.org/2000/svg" xmlns:xlink="http://www.w3.org/1999/xlink" x="0px" y="0px"
	 width="48px" height="48px" viewBox="0 0 48 48" enable-background="new 0 0 48 48" xml:space="preserve">
<path d="M3.2,6L12,7.8v14.4L3.2,24c-0.1,0-0.1,0-0.2,0c-0.2,0-0.5-0.1-0.6-0.2C2.1,23.6,2,23.3,2,23V7c0-0.3,0.1-0.6,0.4-0.8
	C2.6,6,2.9,6,3.2,6z M44.9,23.4l-2.4,16.3C42.1,42.2,40,44,37.5,44H33c-1.4,0-2.6-0.5-3.4-1.5c-0.8-1-1.1-2.3-0.8-3.6L29,38h7
	c0.6,0,1-0.4,1-1c0-0.6-0.4-1-1-1h-6.5l0.4-2H37c0.6,0,1-0.4,1-1c0-0.6-0.4-1-1-1h-6.7l0.2-1H28c-0.3,0-0.6-0.1-0.8-0.4
	C27,30.4,27,30.1,27,29.8l0.9-5.1L14,22.2V7.8L34.8,4c0,0,0,0,0,0C41.1,4,46,8.9,46,15c0,6.1-4.9,11-11,11c-0.1,0-0.1,0-0.2,0
	l-5-0.9L29.2,29h1.7l0.3-1.6l3.2,0.6c0.2,0,0.4,0,0.5,0C39,28,42.5,26.2,44.9,23.4z M30,15c0,3.3,2.7,6,6,6s6-2.7,6-6
	c0-3.3-2.7-6-6-6S30,11.7,30,15z"/>
</svg>
