<?xml version="1.0" encoding="utf-8"?>
<!-- Generator: Adobe Illustrator 17.0.0, SVG Export Plug-In . SVG Version: 6.00 Build 0)  -->
<!DOCTYPE svg PUBLIC "-//W3C//DTD SVG 1.1//EN" "http://www.w3.org/Graphics/SVG/1.1/DTD/svg11.dtd">
<svg version="1.1" id="Layer_1" xmlns="http://www.w3.org/2000/svg" xmlns:xlink="http://www.w3.org/1999/xlink" x="0px" y="0px"
	 width="48px" height="48px" viewBox="0 0 48 48" enable-background="new 0 0 48 48" xml:space="preserve">
<path d="M40,12v36h-2V12c0-5.5-4.5-10-10-10S18,6.5,18,12v0.1c4.5,0.5,8,4.3,8,8.9v2c0,0.6-0.4,1-1,1H9c-0.6,0-1-0.5-1-1v-2
	c0-4.6,3.5-8.4,8-8.9V12c0-6.6,5.4-12,12-12S40,5.4,40,12z M17,29c-0.6,0-1,0.4-1,1v4c0,0.6,0.4,1,1,1s1-0.4,1-1v-4
	C18,29.4,17.6,29,17,29z M17,41c-0.6,0-1,0.4-1,1v4c0,0.6,0.4,1,1,1s1-0.4,1-1v-4C18,41.4,17.6,41,17,41z M25.4,33.9l-0.6-4
	c-0.1-0.5-0.6-0.9-1.1-0.8c-0.5,0.1-0.9,0.6-0.8,1.1l0.6,4c0.1,0.5,0.5,0.8,1,0.8c0.1,0,0.1,0,0.2,0C25.1,34.9,25.4,34.4,25.4,33.9z
	 M25.5,41c-0.5,0.1-0.9,0.6-0.8,1.1l0.6,4c0.1,0.5,0.5,0.8,1,0.8c0.1,0,0.1,0,0.2,0c0.5-0.1,0.9-0.6,0.8-1.1l-0.6-4
	C26.5,41.2,26,40.9,25.5,41z M10.3,29.1c-0.5-0.1-1.1,0.3-1.1,0.8l-0.6,4c-0.1,0.5,0.3,1.1,0.8,1.1c0.1,0,0.1,0,0.2,0
	c0.5,0,0.9-0.3,1-0.8l0.6-4C11.2,29.7,10.8,29.2,10.3,29.1z M8.4,41c-0.5-0.1-1.1,0.3-1.1,0.8l-0.6,4c-0.1,0.5,0.3,1.1,0.8,1.1
	c0.1,0,0.1,0,0.2,0c0.5,0,0.9-0.3,1-0.8l0.6-4C9.3,41.6,8.9,41,8.4,41z"/>
</svg>
