<?xml version="1.0" encoding="utf-8"?>
<!-- Generator: Adobe Illustrator 17.0.0, SVG Export Plug-In . SVG Version: 6.00 Build 0)  -->
<!DOCTYPE svg PUBLIC "-//W3C//DTD SVG 1.1//EN" "http://www.w3.org/Graphics/SVG/1.1/DTD/svg11.dtd">
<svg version="1.1" id="Layer_1" xmlns="http://www.w3.org/2000/svg" xmlns:xlink="http://www.w3.org/1999/xlink" x="0px" y="0px"
	 width="48px" height="48px" viewBox="0 0 48 48" enable-background="new 0 0 48 48" xml:space="preserve">
<path d="M46,47c0,0.6-0.4,1-1,1H29c-0.6,0-1-0.4-1-1c0-0.6,0.4-1,1-1h9V25c0-9-7.1-16.4-16-16.9v2.3c4.9,2.3,8,7.2,8,12.6v4
	c0,0.6-0.4,1-1,1H3c-0.6,0-1-0.4-1-1v-4c0-5.4,3.1-10.3,8-12.6V6c0-3.3,2.7-6,6-6s6,2.7,6,6v0.1C32,6.6,40,14.9,40,25v21h5
	C45.6,46,46,46.4,46,47z"/>
</svg>
