<?xml version="1.0" encoding="utf-8"?>
<!-- Generator: Adobe Illustrator 17.0.0, SVG Export Plug-In . SVG Version: 6.00 Build 0)  -->
<!DOCTYPE svg PUBLIC "-//W3C//DTD SVG 1.1//EN" "http://www.w3.org/Graphics/SVG/1.1/DTD/svg11.dtd">
<svg version="1.1" id="Layer_1" xmlns="http://www.w3.org/2000/svg" xmlns:xlink="http://www.w3.org/1999/xlink" x="0px" y="0px"
	 width="48px" height="48px" viewBox="0 0 48 48" enable-background="new 0 0 48 48" xml:space="preserve">
<path d="M44,8.9V4c0-2.2-1.8-4-4-4H8C5.8,0,4,1.8,4,4v4.9L0.2,32h47.7L44,8.9z M28,8h9.8l0.6,4H28V8z M10.7,8H20v4h-9.9L10.7,8z
	 M4.8,16l1-6h2.6L8,12.9c0,0.3,0,0.6,0.2,0.8C8.4,13.9,8.7,14,9,14h12.1c0.5,0,0.9-0.4,0.9-1v-3h4l0,3c0,0.5,0.5,1,1,1h12.5
	c0.3,0,0.6-0.1,0.8-0.3c0.2-0.2,0.3-0.5,0.2-0.8L40.1,10h2.1l1,6H4.8z M48,34v8c0,2.2-1.8,4-4,4h-2v1c0,0.6-0.4,1-1,1s-1-0.4-1-1v-1
	H8v1c0,0.6-0.4,1-1,1s-1-0.4-1-1v-1H4c-2.2,0-4-1.8-4-4v-8H48z"/>
</svg>
