<?xml version="1.0" encoding="utf-8"?>
<!-- Generator: Adobe Illustrator 17.0.0, SVG Export Plug-In . SVG Version: 6.00 Build 0)  -->
<!DOCTYPE svg PUBLIC "-//W3C//DTD SVG 1.1//EN" "http://www.w3.org/Graphics/SVG/1.1/DTD/svg11.dtd">
<svg version="1.1" id="Layer_1" xmlns="http://www.w3.org/2000/svg" xmlns:xlink="http://www.w3.org/1999/xlink" x="0px" y="0px"
	 width="48px" height="48px" viewBox="0 0 48 48" enable-background="new 0 0 48 48" xml:space="preserve">
<g>
	<path fill="#010101" d="M29.5,39.9l-2.2,6c0,0,0,0,0,0.1H8v1c0,0.6-0.4,1-1,1s-1-0.4-1-1v-1H4c-2.2,0-4-1.8-4-4v-8h24
		c0,0.9,0.4,1.7,1.1,2.3L29.5,39.9z M24.8,32H0.2L4,8.9V4c0-2.2,1.8-4,4-4h32c2.2,0,4,1.8,4,4v4.9l3.7,22.2C47.5,31.1,47.2,31,47,31
		h-5l-2.2-5.2C39.3,24.7,38.2,24,37,24c-1.2,0-2.3,0.7-2.8,1.8L32,31h-5C26.1,31,25.4,31.4,24.8,32z M28,12h10.4l-0.6-4H28V12z
		 M10.1,12H20V8h-9.3L10.1,12z M4.8,16h38.3l-1-6h-2.1l0.4,2.9c0,0.3,0,0.6-0.2,0.8c-0.2,0.2-0.5,0.3-0.8,0.3H27c-0.5,0-1-0.4-1-1
		l0-3h-4v3c0,0.5-0.4,1-0.9,1H9c-0.3,0-0.6-0.1-0.8-0.3C8.1,13.4,8,13.2,8,12.9L8.4,10H5.8L4.8,16z M47.9,33.7
		C47.8,33.3,47.4,33,47,33h-6.3L38,26.6C37.8,26.2,37.4,26,37,26h0c-0.4,0-0.8,0.2-0.9,0.6L33.3,33H27c-0.4,0-0.8,0.3-0.9,0.7
		c-0.1,0.4,0,0.8,0.3,1.1l5.5,4.5l-2.8,7.3c-0.2,0.4,0,0.9,0.3,1.1c0.3,0.3,0.8,0.3,1.2,0l6.4-4.6l6.4,4.6c0.2,0.1,0.4,0.2,0.6,0.2
		c0.2,0,0.4-0.1,0.6-0.2c0.3-0.3,0.5-0.7,0.3-1.1l-2.8-7.3l5.4-4.5C48,34.5,48.1,34.1,47.9,33.7z"/>
</g>
</svg>
