<?xml version="1.0" encoding="utf-8"?>
<!-- Generator: Adobe Illustrator 17.0.0, SVG Export Plug-In . SVG Version: 6.00 Build 0)  -->
<!DOCTYPE svg PUBLIC "-//W3C//DTD SVG 1.1//EN" "http://www.w3.org/Graphics/SVG/1.1/DTD/svg11.dtd">
<svg version="1.1" id="Layer_1" xmlns="http://www.w3.org/2000/svg" xmlns:xlink="http://www.w3.org/1999/xlink" x="0px" y="0px"
	 width="48px" height="48px" viewBox="0 0 48 48" enable-background="new 0 0 48 48" xml:space="preserve">
<path d="M46.8,14L46.8,14L34,1.2c1.5-1.5,4.2-1.5,5.7,0l7.1,7.1C48.4,9.9,48.4,12,46.8,14z M1.2,34L1.2,34C0.4,34.7,0,35.7,0,36.8
	c0,1.1,0.4,2.1,1.2,2.8l7.1,7.1c0.8,0.8,1.8,1.2,2.9,1.2c1.1,0,2.1-0.4,2.9-1.2l0,0L1.2,34z M2.6,32.5l12.8,12.8
	c0.8,0.8,1.8,1.2,2.9,1.2c1.1,0,2.1-0.4,2.9-1.2L2.6,26.8C1,28.4,1,31,2.6,32.5z M32.6,2.6c-1.5-1.5-4.2-1.5-5.7,0c0,0,0,0,0,0
	l18.5,18.5c0.8-0.8,1.2-1.8,1.2-2.9c0-1.1-0.4-2.1-1.2-2.9L32.6,2.6z M17.6,24.7l5.7,5.7l7.1-7.1l-5.7-5.7L17.6,24.7z M9.7,19.7
	c-1.5-1.5-4.2-1.5-5.7,0c-1.6,1.6-1.6,4.1,0,5.7L22.6,44c0.8,0.8,1.8,1.2,2.9,1.2c1.1,0,2.1-0.4,2.9-1.2c0.8-0.8,1.2-1.8,1.2-2.9
	c0-1.1-0.4-2.1-1.2-2.9L9.7,19.7z M25.4,4c-1.5-1.5-4.2-1.5-5.7,0c-1.6,1.6-1.6,4.1,0,5.7l18.5,18.5c0.8,0.8,1.8,1.2,2.9,1.2
	c1.1,0,2.1-0.4,2.8-1.2c0.8-0.8,1.2-1.8,1.2-2.9c0-1.1-0.4-2.1-1.2-2.9L25.4,4z"/>
</svg>
