<?xml version="1.0" encoding="utf-8"?>
<!-- Generator: Adobe Illustrator 17.0.0, SVG Export Plug-In . SVG Version: 6.00 Build 0)  -->
<!DOCTYPE svg PUBLIC "-//W3C//DTD SVG 1.1//EN" "http://www.w3.org/Graphics/SVG/1.1/DTD/svg11.dtd">
<svg version="1.1" id="Layer_1" xmlns="http://www.w3.org/2000/svg" xmlns:xlink="http://www.w3.org/1999/xlink" x="0px" y="0px"
	 width="48px" height="48px" viewBox="0 0 48 48" enable-background="new 0 0 48 48" xml:space="preserve">
<path d="M24,11.7c-9.8,0-16,5.1-16,13.2C8,30.6,8,48,24,48c10.6,0,16-7.8,16-23.1C40,16.7,33.9,11.7,24,11.7z M11,27
	c0-3.3,2.7-6,6-6s6,2.7,6,6s-2.7,6-6,6S11,30.3,11,27z M28,40h-8c-0.6,0-1-0.4-1-1s0.4-1,1-1h8c0.6,0,1,0.4,1,1S28.6,40,28,40z
	 M31,33c-3.3,0-6-2.7-6-6s2.7-6,6-6s6,2.7,6,6S34.3,33,31,33z M6,24.9C6,28.7,6.4,32,7,35c-4.4-3.8-7-9.2-7-15C0,9,9,0,20,0
	c7.3,0,11,3.1,11.5,6.1c0.2,1.3-0.2,2.8-1.5,4.2c-1.8-0.4-3.8-0.7-6-0.7C12.9,9.7,6,15.5,6,24.9z M18,27c0,0.6,0.4,1,1,1h1.9
	c-0.4,1.4-1.5,2.5-2.9,2.9V29c0-0.6-0.4-1-1-1s-1,0.4-1,1v1.9c-1.4-0.4-2.5-1.5-2.9-2.9H15c0.6,0,1-0.4,1-1s-0.4-1-1-1h-1.9
	c0.4-1.4,1.5-2.5,2.9-2.9V25c0,0.6,0.4,1,1,1s1-0.4,1-1v-1.9c1.4,0.4,2.5,1.5,2.9,2.9H19C18.4,26,18,26.4,18,27z M32,27
	c0,0.6,0.4,1,1,1h1.9c-0.4,1.4-1.5,2.5-2.9,2.9V29c0-0.6-0.4-1-1-1s-1,0.4-1,1v1.9c-1.4-0.4-2.5-1.5-2.9-2.9H29c0.6,0,1-0.4,1-1
	s-0.4-1-1-1h-1.9c0.4-1.4,1.5-2.5,2.9-2.9V25c0,0.6,0.4,1,1,1s1-0.4,1-1v-1.9c1.4,0.4,2.5,1.5,2.9,2.9H33C32.4,26,32,26.4,32,27z
	 M48,22c0,5.8-2.8,11.1-7.3,14.4c0.9-3.3,1.3-7.1,1.3-11.6c0-6.8-3.6-11.7-9.9-13.9c1.2-1.7,1.6-3.6,1.3-5.2c-0.1-0.5-0.2-1-0.4-1.5
	C41.5,5.7,48,13.1,48,22z"/>
</svg>
