<?xml version="1.0" encoding="utf-8"?>
<!-- Generator: Adobe Illustrator 17.0.0, SVG Export Plug-In . SVG Version: 6.00 Build 0)  -->
<!DOCTYPE svg PUBLIC "-//W3C//DTD SVG 1.1//EN" "http://www.w3.org/Graphics/SVG/1.1/DTD/svg11.dtd">
<svg version="1.1" id="Layer_1" xmlns="http://www.w3.org/2000/svg" xmlns:xlink="http://www.w3.org/1999/xlink" x="0px" y="0px"
	 width="48px" height="48px" viewBox="0 0 48 48" enable-background="new 0 0 48 48" xml:space="preserve">
<path d="M9.2,30.4c-1.6,1.6-1.6,4.1,0,5.7l1.4,1.4c1.5,1.5,4.1,1.5,5.7,0l4.3-4.3c0.8-0.8,2-0.8,2.8,0c0.8,0.8,0.8,2,0,2.8l-4.3,4.3
	c-1.5,1.5-3.5,2.3-5.7,2.3c-2.1,0-4.1-0.8-5.7-2.3l-1.4-1.4c-3.1-3.1-3.1-8.2,0-11.3l9.2-9.2c1.5-1.5,3.5-2.3,5.7-2.3
	c2.1,0,4.1,0.8,5.7,2.3l1.4,1.4c0.8,0.8,0.8,2,0,2.8c-0.8,0.8-2,0.8-2.8,0L24,21.2c-1.5-1.5-4.1-1.5-5.7,0L9.2,30.4z M31.1,28.3
	l9.2-9.2c1.5-1.5,2.3-3.5,2.3-5.7c0-2.1-0.8-4.1-2.3-5.7l-1.4-1.4C37.4,4.8,35.3,4,33.2,4c-2.1,0-4.1,0.8-5.7,2.3l-4,4
	c-0.8,0.8-0.8,2,0,2.8c0.8,0.8,2,0.8,2.8,0l4-4C31.1,8.4,32.1,8,33.2,8s2.1,0.4,2.8,1.2l1.4,1.4c0.8,0.8,1.2,1.8,1.2,2.8
	c0,1.1-0.4,2.1-1.2,2.8l-9.2,9.2c-1.5,1.5-4.1,1.5-5.7,0c-0.8-0.8-2-0.8-2.8,0c-0.8,0.8-0.8,2,0,2.8c1.5,1.5,3.5,2.3,5.7,2.3
	C27.6,30.6,29.6,29.8,31.1,28.3z"/>
</svg>
