<?xml version="1.0" encoding="utf-8"?>
<!-- Generator: Adobe Illustrator 20.1.0, SVG Export Plug-In . SVG Version: 6.00 Build 0)  -->
<svg version="1.1" id="Layer_1" xmlns="http://www.w3.org/2000/svg" xmlns:xlink="http://www.w3.org/1999/xlink" x="0px" y="0px"
	 viewBox="0 0 48 48" style="enable-background:new 0 0 48 48;" xml:space="preserve">
<path d="M24,0C13.2,0,4,8.6,4,20c0,14.3,18.7,27.3,19.4,27.8c0.2,0.1,0.4,0.2,0.6,0.2s0.4-0.1,0.6-0.2C25.3,47.3,44,34.3,44,20
	C44,8.6,34.8,0,24,0z M34.6,16.8l-5.5,4.6l1.8,7.4c0.1,0.4-0.1,0.9-0.4,1.1c-0.4,0.2-0.8,0.2-1.2-0.1L24,25.3l-5.4,4.5
	c-0.3,0.3-0.8,0.3-1.2,0.1c-0.4-0.2-0.5-0.7-0.4-1.1l1.8-7.4l-5.5-4.6c-0.3-0.3-0.4-0.7-0.3-1.1c0.1-0.4,0.5-0.7,0.9-0.7h6.8
	l2.3-6.3C23.2,8.3,23.6,8,24,8c0.4,0,0.8,0.3,0.9,0.7l2.3,6.3H34c0.4,0,0.8,0.3,0.9,0.7C35.1,16.1,35,16.5,34.6,16.8z"/>
</svg>
