<?xml version="1.0" encoding="utf-8"?>
<!-- Generator: Adobe Illustrator 20.1.0, SVG Export Plug-In . SVG Version: 6.00 Build 0)  -->
<svg version="1.1" id="Layer_1" xmlns="http://www.w3.org/2000/svg" xmlns:xlink="http://www.w3.org/1999/xlink" x="0px" y="0px"
	 viewBox="0 0 48 48" style="enable-background:new 0 0 48 48;" xml:space="preserve">
<path d="M34,20c0,2.4-0.9,4.6-2.3,6.3l-14-14c1.7-1.4,3.9-2.3,6.3-2.3C29.5,10,34,14.5,34,20z M44,20c0,14.3-18.7,27.3-19.4,27.8
	C24.4,47.9,24.2,48,24,48s-0.4-0.1-0.6-0.2C22.7,47.3,4,34.3,4,20C4,8.6,13.2,0,24,0S44,8.6,44,20z M36,20c0-6.6-5.4-12-12-12
	s-12,5.4-12,12s5.4,12,12,12S36,26.6,36,20z M14,20c0,5.5,4.5,10,10,10c2.4,0,4.6-0.9,6.3-2.3l-14-14C14.9,15.4,14,17.6,14,20z"/>
</svg>
