<?xml version="1.0" encoding="utf-8"?>
<!-- Generator: Adobe Illustrator 20.1.0, SVG Export Plug-In . SVG Version: 6.00 Build 0)  -->
<svg version="1.1" id="Layer_1" xmlns="http://www.w3.org/2000/svg" xmlns:xlink="http://www.w3.org/1999/xlink" x="0px" y="0px"
	 viewBox="0 0 48 48" style="enable-background:new 0 0 48 48;" xml:space="preserve">
<path d="M24,0C13.2,0,4,8.6,4,20c0,14.3,18.7,27.3,19.4,27.8c0.2,0.1,0.4,0.2,0.6,0.2s0.4-0.1,0.6-0.2C25.3,47.3,44,34.3,44,20
	C44,8.6,34.8,0,24,0z M34.3,14.5L20.7,28.7C20.5,28.9,20.3,29,20,29c0,0,0,0,0,0c-0.3,0-0.5-0.1-0.7-0.3l-5-5c-0.4-0.4-0.4-1,0-1.4
	c0.4-0.4,1-0.4,1.4,0l4.3,4.3l12.8-13.5c0.4-0.4,1-0.4,1.4,0C34.6,13.4,34.7,14.1,34.3,14.5z"/>
</svg>
