<?xml version="1.0" encoding="utf-8"?>
<!-- Generator: Adobe Illustrator 17.0.0, SVG Export Plug-In . SVG Version: 6.00 Build 0)  -->
<!DOCTYPE svg PUBLIC "-//W3C//DTD SVG 1.1//EN" "http://www.w3.org/Graphics/SVG/1.1/DTD/svg11.dtd">
<svg version="1.1" id="Layer_1" xmlns="http://www.w3.org/2000/svg" xmlns:xlink="http://www.w3.org/1999/xlink" x="0px" y="0px"
	 width="48px" height="48px" viewBox="0 0 48 48" enable-background="new 0 0 48 48" xml:space="preserve">
<path d="M5.6,22h9l-0.8,12H4.4L5.6,22z M42.4,22h-8.6l0.8,12h9.1L42.4,22z M15.7,36l-0.8,12h18.4l-0.8-12H15.7z M24.2,32
	c-0.9,0-1.7-0.4-2.3-1.1c-0.8-1-3.1-3.8-5.4-7.2L15.8,34h16.6l-0.6-10.2c-2.3,3.4-4.5,6.2-5.4,7.1C25.9,31.6,25.1,32,24.2,32z
	 M3,46.9c0,0.3,0.1,0.6,0.3,0.8C3.4,47.9,3.7,48,4,48h8.9l0.8-12H4.2L3,46.9z M34.2,20h8L41,8.9C40.9,8.4,40.5,8,40,8h-3
	c0.3,1,0.4,2.1,0.4,3.2C37.4,13.7,36,16.9,34.2,20z M43.8,36h-9.2l0.8,12H44c0.3,0,0.6-0.1,0.7-0.3c0.2-0.2,0.3-0.5,0.3-0.8L43.8,36
	z M11,11.2c0-1.1,0.1-2.2,0.4-3.2H8C7.5,8,7.1,8.4,7,8.9L5.8,20h8.3C12.4,16.9,11,13.7,11,11.2z M23.4,29.6C23,29.1,13,17.1,13,11.2
	C13,5,18,0,24.2,0c6.2,0,11.2,5,11.2,11.2c0,5.9-10,17.9-10.4,18.5c-0.2,0.2-0.5,0.4-0.8,0.4C23.9,30,23.6,29.9,23.4,29.6z M24.2,16
	c2.7,0,4.8-2.2,4.8-4.8c0-2.7-2.2-4.8-4.8-4.8c-2.7,0-4.8,2.2-4.8,4.8C19.4,13.8,21.5,16,24.2,16z"/>
</svg>
