<?xml version="1.0" encoding="utf-8"?>
<!-- Generator: Adobe Illustrator 20.1.0, SVG Export Plug-In . SVG Version: 6.00 Build 0)  -->
<svg version="1.1" id="Layer_1" xmlns="http://www.w3.org/2000/svg" xmlns:xlink="http://www.w3.org/1999/xlink" x="0px" y="0px"
	 viewBox="0 0 48 48" style="enable-background:new 0 0 48 48;" xml:space="preserve">
<style type="text/css">
	.st0{fill:#010101;}
</style>
<path class="st0" d="M39.3,8.8C35,4.4,29.2,2,23,2C10.3,2,0,12.3,0,25c0,6.1,2.4,11.9,6.7,16.3C11,45.6,16.8,48,23,48h0
	c12.7,0,23-10.3,23-23C46,18.9,43.6,13.1,39.3,8.8z M35,26L35,26l-11,0v11c0,0.6-0.4,1-1,1c-0.6,0-1-0.4-1-1V26l-11,0
	c-0.6,0-1-0.4-1-1c0-0.6,0.4-1,1-1v0l11,0V13c0-0.6,0.4-1,1-1c0.6,0,1,0.4,1,1v11l11,0c0.6,0,1,0.5,1,1C36,25.6,35.6,26,35,26z"/>
</svg>
