<?xml version="1.0" encoding="utf-8"?>
<!-- Generator: Adobe Illustrator 17.0.0, SVG Export Plug-In . SVG Version: 6.00 Build 0)  -->
<!DOCTYPE svg PUBLIC "-//W3C//DTD SVG 1.1//EN" "http://www.w3.org/Graphics/SVG/1.1/DTD/svg11.dtd">
<svg version="1.1" id="Layer_1" xmlns="http://www.w3.org/2000/svg" xmlns:xlink="http://www.w3.org/1999/xlink" x="0px" y="0px"
	 width="48px" height="48px" viewBox="0 0 48 48" enable-background="new 0 0 48 48" xml:space="preserve">
<path d="M24,12c-3.3,0-6-2.7-6-6s2.7-6,6-6s6,2.7,6,6S27.3,12,24,12z M30,24c0-3.3-2.7-6-6-6s-6,2.7-6,6s2.7,6,6,6S30,27.3,30,24z
	 M30,42c0-3.3-2.7-6-6-6s-6,2.7-6,6s2.7,6,6,6S30,45.3,30,42z"/>
</svg>
