<?xml version="1.0" encoding="utf-8"?>
<!-- Generator: Adobe Illustrator 20.1.0, SVG Export Plug-In . SVG Version: 6.00 Build 0)  -->
<svg version="1.1" id="Layer_1" xmlns="http://www.w3.org/2000/svg" xmlns:xlink="http://www.w3.org/1999/xlink" x="0px" y="0px"
	 viewBox="0 0 48 48" style="enable-background:new 0 0 48 48;" xml:space="preserve">
<path d="M47.7,25.1C47.7,25.1,47.7,25.1,47.7,25.1c0.1-0.2,0.2-0.3,0.2-0.5c0,0,0-0.1,0-0.1c0-0.2,0.1-0.3,0.1-0.5c0,0,0,0,0,0
	c0-0.2,0-0.3-0.1-0.5c0,0,0-0.1,0-0.1c-0.1-0.2-0.1-0.3-0.2-0.5c0,0,0,0,0,0l0,0c0,0,0,0,0,0l-4-6c-0.6-0.9-1.9-1.2-2.8-0.6
	c-0.9,0.6-1.2,1.9-0.6,2.8l1.9,2.9H24c-3.9,0-5.4-2.3-7.3-5.1C14.6,13.8,12.1,10,6,10H2c-1.1,0-2,0.9-2,2s0.9,2,2,2h4
	c3.9,0,5.4,2.3,7.3,5.1c1.1,1.7,2.4,3.5,4.2,4.9c-1.9,1.4-3.1,3.2-4.2,4.9C11.4,31.7,9.9,34,6,34H2c-1.1,0-2,0.9-2,2s0.9,2,2,2h4
	c6.1,0,8.6-3.8,10.7-6.9c1.9-2.9,3.4-5.1,7.3-5.1h18.3l-1.9,2.9c-0.6,0.9-0.4,2.2,0.6,2.8c0.3,0.2,0.7,0.3,1.1,0.3
	c0.6,0,1.3-0.3,1.7-0.9L47.7,25.1C47.7,25.1,47.7,25.1,47.7,25.1L47.7,25.1z"/>
</svg>
