<?xml version="1.0" encoding="utf-8"?>
<!-- Generator: Adobe Illustrator 20.1.0, SVG Export Plug-In . SVG Version: 6.00 Build 0)  -->
<svg version="1.1" id="Layer_1" xmlns="http://www.w3.org/2000/svg" xmlns:xlink="http://www.w3.org/1999/xlink" x="0px" y="0px"
	 viewBox="0 0 48 48" style="enable-background:new 0 0 48 48;" xml:space="preserve">
<path d="M47,2H1C0.4,2,0,2.4,0,3v32c0,0.6,0.4,1,1,1h13l0,7c0,0.4,0.2,0.8,0.6,0.9C14.7,44,14.9,44,15,44c0.3,0,0.5-0.1,0.7-0.3
	l7.7-7.7H47c0.6,0,1-0.4,1-1V3C48,2.4,47.6,2,47,2z M24,8c1.1,0,2,0.9,2,2c0,1.1-0.9,2-2,2s-2-0.9-2-2C22,8.9,22.9,8,24,8z M29,28
	h-8c-0.6,0-1-0.4-1-1s0.4-1,1-1h3V16h-3c-0.6,0-1-0.4-1-1s0.4-1,1-1h4c0.6,0,1,0.4,1,1v11h3c0.6,0,1,0.4,1,1S29.6,28,29,28z"/>
</svg>
