<?xml version="1.0" encoding="utf-8"?>
<!-- Generator: Adobe Illustrator 17.0.0, SVG Export Plug-In . SVG Version: 6.00 Build 0)  -->
<!DOCTYPE svg PUBLIC "-//W3C//DTD SVG 1.1//EN" "http://www.w3.org/Graphics/SVG/1.1/DTD/svg11.dtd">
<svg version="1.1" id="Layer_1" xmlns="http://www.w3.org/2000/svg" xmlns:xlink="http://www.w3.org/1999/xlink" x="0px" y="0px"
	 width="48px" height="48px" viewBox="0 0 48 48" enable-background="new 0 0 48 48" xml:space="preserve">
<path d="M0,10v30h48V10H0z M46,38H2V12h44V38z M9,36h30c2.8,0,5-2.2,5-5V19c0-2.8-2.2-5-5-5H9c-2.8,0-5,2.2-5,5v12
	C4,33.8,6.2,36,9,36z M38,28c1.1,0,2,0.9,2,2c0,1.1-0.9,2-2,2c-1.1,0-2-0.9-2-2C36,28.9,36.9,28,38,28z M24,18c3.9,0,7,3.1,7,7
	c0,3.9-3.1,7-7,7s-7-3.1-7-7C17,21.1,20.1,18,24,18z M10,18c1.1,0,2,0.9,2,2c0,1.1-0.9,2-2,2c-1.1,0-2-0.9-2-2C8,18.9,8.9,18,10,18z
	"/>
</svg>
