<?xml version="1.0" encoding="utf-8"?>
<!-- Generator: Adobe Illustrator 20.1.0, SVG Export Plug-In . SVG Version: 6.00 Build 0)  -->
<svg version="1.1" id="Layer_1" xmlns="http://www.w3.org/2000/svg" xmlns:xlink="http://www.w3.org/1999/xlink" x="0px" y="0px"
	 viewBox="0 0 48 48" style="enable-background:new 0 0 48 48;" xml:space="preserve">
<path d="M48,28c0,1.1-0.9,2-2,2H26v11.2l2.6-2.6c0.8-0.8,2-0.8,2.8,0c0.8,0.8,0.8,2,0,2.8l-6,6c-0.8,0.8-2.1,0.8-2.8,0l-6-6
	c-0.8-0.8-0.8-2,0-2.8c0.8-0.8,2-0.8,2.8,0l2.6,2.6V30H2c-1.1,0-2-0.9-2-2s0.9-2,2-2h44C47.1,26,48,26.9,48,28z M2,22h44
	c1.1,0,2-0.9,2-2s-0.9-2-2-2H26V6.8l2.6,2.6C29,9.8,29.5,10,30,10s1-0.2,1.4-0.6c0.8-0.8,0.8-2,0-2.8l-6-6c-0.8-0.8-2.1-0.7-2.8,0
	l-6,6c-0.8,0.8-0.8,2,0,2.8c0.8,0.8,2,0.8,2.8,0L22,6.8V18H2c-1.1,0-2,0.9-2,2S0.9,22,2,22z"/>
</svg>
