<?xml version="1.0" encoding="utf-8"?>
<!-- Generator: Adobe Illustrator 20.1.0, SVG Export Plug-In . SVG Version: 6.00 Build 0)  -->
<svg version="1.1" id="Layer_1" xmlns="http://www.w3.org/2000/svg" xmlns:xlink="http://www.w3.org/1999/xlink" x="0px" y="0px"
	 viewBox="0 0 48 48" style="enable-background:new 0 0 48 48;" xml:space="preserve">
<path d="M22,19v28c0,0.6-0.4,1-1,1h-6c-0.6,0-1-0.4-1-1V19c0-0.6,0.4-1,1-1h6C21.6,18,22,18.4,22,19z M33,18h-6c-0.6,0-1,0.4-1,1v28
	c0,0.6,0.4,1,1,1h6c0.6,0,1-0.4,1-1V19C34,18.4,33.6,18,33,18z M31.8,16c-1.1-1.5-1.8-3.2-1.8-5c0-0.3,0-0.7,0.1-1H17.9
	c0.1,0.3,0.1,0.7,0.1,1c0,1.8-0.7,3.5-1.8,5H31.8z M39,0H9C4,0,0,4,0,9c0,5.1,4.3,9,9,9c3.5,0,7-3.5,7-7c0-1.8-1.7-5-5-5
	C8.6,6,8,8.6,8,9c0,0.6-0.4,1-1,1c-0.6,0-1-0.4-1-1c0-1.7,1.5-5,5-5c3.1,0,5.2,2,6.3,4h13.4c1-2,3.2-4,6.3-4c3.5,0,5,3.3,5,5
	c0,0.6-0.4,1-1,1c-0.6,0-1-0.4-1-1c0-0.4-0.6-3-3-3c-3.3,0-5,3.2-5,5c0,3.5,3.5,7,7,7c4.7,0,9-3.9,9-9C48,4,44,0,39,0z"/>
</svg>
