<?xml version="1.0" encoding="utf-8"?>
<!-- Generator: Adobe Illustrator 17.0.0, SVG Export Plug-In . SVG Version: 6.00 Build 0)  -->
<!DOCTYPE svg PUBLIC "-//W3C//DTD SVG 1.1//EN" "http://www.w3.org/Graphics/SVG/1.1/DTD/svg11.dtd">
<svg version="1.1" id="Layer_1" xmlns="http://www.w3.org/2000/svg" xmlns:xlink="http://www.w3.org/1999/xlink" x="0px" y="0px"
	 width="48px" height="48px" viewBox="0 0 48 48" enable-background="new 0 0 48 48" xml:space="preserve">
<path d="M24.2,38c0-0.1,0.1-0.1,0.1-0.2c0.1-0.3,0.3-0.6,0.6-0.9l9.1-9.1V11c0-0.3-0.1-0.5-0.3-0.7l-10-10C23.5,0.1,23.3,0,23,0H1
	C0.4,0,0,0.4,0,1v42c0,0.6,0.4,1,1,1h21.4l1.7-5.8C24.1,38.1,24.2,38.1,24.2,38z M22,2l10,10H22V2z M7,12h9c0.6,0,1,0.4,1,1
	s-0.4,1-1,1H7c-0.6,0-1-0.4-1-1S6.4,12,7,12z M17,32H7c-0.6,0-1-0.4-1-1s0.4-1,1-1h10c0.6,0,1,0.4,1,1S17.6,32,17,32z M19,26H7
	c-0.6,0-1-0.4-1-1s0.4-1,1-1h12c0.6,0,1,0.4,1,1S19.6,26,19,26z M23,20H7c-0.6,0-1-0.4-1-1s0.4-1,1-1h16c0.6,0,1,0.4,1,1
	S23.6,20,23,20z M36.6,28l6.4,6.4L33.4,44L27,37.6L36.6,28z M25.9,39.3l5.8,5.8L25.3,47c-0.1,0-0.2,0-0.3,0c-0.3,0-0.5-0.1-0.7-0.3
	c-0.3-0.3-0.4-0.6-0.3-1L25.9,39.3z M47.7,29.7L44.4,33L38,26.6l3.3-3.3c0.4-0.4,1-0.4,1.4,0l5,5C48.1,28.7,48.1,29.3,47.7,29.7z"/>
</svg>
