<?xml version="1.0" encoding="utf-8"?>
<!-- Generator: Adobe Illustrator 17.0.0, SVG Export Plug-In . SVG Version: 6.00 Build 0)  -->
<!DOCTYPE svg PUBLIC "-//W3C//DTD SVG 1.1//EN" "http://www.w3.org/Graphics/SVG/1.1/DTD/svg11.dtd">
<svg version="1.1" id="Layer_1" xmlns="http://www.w3.org/2000/svg" xmlns:xlink="http://www.w3.org/1999/xlink" x="0px" y="0px"
	 width="48px" height="48px" viewBox="0 0 48 48" enable-background="new 0 0 48 48" xml:space="preserve">
<path d="M36,27v13c0,1.1-0.9,2-2,2H8c-1.1,0-2-0.9-2-2V14c0-1.1,0.9-2,2-2h13c1.1,0,2,0.9,2,2s-0.9,2-2,2H10v22h22V27
	c0-1.1,0.9-2,2-2S36,25.9,36,27z M41.8,7.2c-0.2-0.5-0.6-0.9-1.1-1.1C40.5,6.1,40.3,6,40,6H28c-1.1,0-2,0.9-2,2s0.9,2,2,2h7.2
	L13.6,31.6c-0.8,0.8-0.8,2,0,2.8C14,34.8,14.5,35,15,35c0.5,0,1-0.2,1.4-0.6L38,12.8V20c0,1.1,0.9,2,2,2s2-0.9,2-2V8
	C42,7.7,41.9,7.5,41.8,7.2z"/>
</svg>
