<?xml version="1.0" encoding="utf-8"?>
<!-- Generator: Adobe Illustrator 17.0.0, SVG Export Plug-In . SVG Version: 6.00 Build 0)  -->
<!DOCTYPE svg PUBLIC "-//W3C//DTD SVG 1.1//EN" "http://www.w3.org/Graphics/SVG/1.1/DTD/svg11.dtd">
<svg version="1.1" id="Layer_1" xmlns="http://www.w3.org/2000/svg" xmlns:xlink="http://www.w3.org/1999/xlink" x="0px" y="0px"
	 width="48px" height="48px" viewBox="0 0 48 48" enable-background="new 0 0 48 48" xml:space="preserve">
<path d="M47.8,23.4C47.4,22.8,37,10,24,10C11,10,0.7,22.8,0.2,23.4c-0.3,0.4-0.3,0.9,0,1.2C0.7,25.2,11,38,24,38
	c13,0,23.3-12.8,23.8-13.4C48.1,24.3,48.1,23.7,47.8,23.4z M24,33c-5,0-9-4-9-9s4-9,9-9c5,0,9,4,9,9S29,33,24,33z M31,24
	c0,3.9-3.1,7-7,7c-3.9,0-7-3.1-7-7c0-3.9,3.1-7,7-7C27.9,17,31,20.1,31,24z"/>
</svg>
