<?xml version="1.0" encoding="utf-8"?>
<!-- Generator: Adobe Illustrator 20.1.0, SVG Export Plug-In . SVG Version: 6.00 Build 0)  -->
<svg version="1.1" id="Layer_1" xmlns="http://www.w3.org/2000/svg" xmlns:xlink="http://www.w3.org/1999/xlink" x="0px" y="0px"
	 viewBox="0 0 48 48" style="enable-background:new 0 0 48 48;" xml:space="preserve">
<path d="M41,4h-1V1c0-0.6-0.4-1-1-1H9C7.3,0,6,1.3,6,3v42c0,1.7,1.3,3,3,3h32c0.6,0,1-0.4,1-1V5C42,4.4,41.6,4,41,4z M20,28.4
	c0-1.6,0.3-3.1,0.9-4.6h6.2c0.6,1.5,0.9,3,0.9,4.6H20z M27.9,29.6c-0.1,1.1-0.3,2.3-0.7,3.5h-6.4c-0.4-1.2-0.6-2.3-0.7-3.5H27.9z
	 M23.1,18.2c-1.3,1.4-2.3,2.9-3,4.4h-5.3c1.8-2.6,4.8-4.4,8.4-4.6L23.1,18.2z M23.8,19.1h0.4c1,1.1,1.8,2.3,2.4,3.5h-5.2
	C22,21.4,22.8,20.2,23.8,19.1z M27.8,22.6c-0.7-1.6-1.7-3.1-3-4.4L24.7,18c3.4,0.2,6.4,2,8.3,4.6H27.8z M15,14c-0.6,0-1-0.4-1-1
	s0.4-1,1-1h18c0.6,0,1,0.4,1,1s-0.4,1-1,1H15z M14.2,23.8h5.5c-0.5,1.5-0.8,3.1-0.8,4.6H13C13,26.7,13.5,25.2,14.2,23.8z M13,29.6
	h5.9c0.1,1.2,0.3,2.3,0.7,3.5h-5.8C13.4,32,13.1,30.8,13,29.6z M14.4,34.2H20c0.7,1.9,1.7,3.7,3.1,5.6l0.2,0.2
	C19.4,39.7,16.1,37.5,14.4,34.2z M23.8,38.9c-1.1-1.5-2-3.1-2.6-4.6h5.6c-0.6,1.5-1.5,3.1-2.6,4.6L23.8,38.9z M24.7,40l0.2-0.2
	c1.4-1.8,2.4-3.7,3.1-5.6h5.7C31.9,37.5,28.6,39.7,24.7,40z M34.2,33.1h-5.9c0.3-1.2,0.6-2.3,0.7-3.5h6C34.9,30.8,34.7,32,34.2,33.1
	z M29.1,28.4c0-1.6-0.3-3.1-0.8-4.6h5.4c0.8,1.4,1.2,3,1.3,4.6H29.1z M38,4H9C8.4,4,8,3.6,8,3s0.4-1,1-1h29V4z"/>
</svg>
