<?xml version="1.0" encoding="utf-8"?>
<!-- Generator: Adobe Illustrator 17.0.0, SVG Export Plug-In . SVG Version: 6.00 Build 0)  -->
<!DOCTYPE svg PUBLIC "-//W3C//DTD SVG 1.1//EN" "http://www.w3.org/Graphics/SVG/1.1/DTD/svg11.dtd">
<svg version="1.1" id="Layer_1" xmlns="http://www.w3.org/2000/svg" xmlns:xlink="http://www.w3.org/1999/xlink" x="0px" y="0px"
	 width="48px" height="48px" viewBox="0 0 48 48" enable-background="new 0 0 48 48" xml:space="preserve">
<path d="M46,37.5c0,1.4-0.5,2.7-1.5,3.6l-2.7,2.7c-1.4,1.4-3.3,2.2-5.3,2.2c-1.5,0-2.9-0.4-4.1-1.2C20.6,36.9,10.1,26.4,2.2,14.6
	c-1.9-2.9-1.5-6.9,0.9-9.4l2.7-2.7c1-1,2.3-1.5,3.6-1.5c1.4,0,2.7,0.5,3.6,1.5L18,7.4c2,2,2,5.2,0,7.2L16.7,16
	C21,21.1,25.9,26,31,30.3l1.3-1.3c1-1,2.3-1.5,3.6-1.5s2.7,0.5,3.6,1.5l4.9,4.9C45.5,34.9,46,36.1,46,37.5z"/>
</svg>
