<?xml version="1.0" encoding="utf-8"?>
<!-- Generator: Adobe Illustrator 17.0.0, SVG Export Plug-In . SVG Version: 6.00 Build 0)  -->
<!DOCTYPE svg PUBLIC "-//W3C//DTD SVG 1.1//EN" "http://www.w3.org/Graphics/SVG/1.1/DTD/svg11.dtd">
<svg version="1.1" id="Layer_1" xmlns="http://www.w3.org/2000/svg" xmlns:xlink="http://www.w3.org/1999/xlink" x="0px" y="0px"
	 width="48px" height="48px" viewBox="0 0 48 48" enable-background="new 0 0 48 48" xml:space="preserve">
<path d="M44,36h4v12H0V36h7H44z M48,0v34h-3.4l-6.8-13.6c-0.7-1.5-2.2-2.4-3.9-2.4c-1.5,0-3,0.8-3.8,2.2l-5.3,9
	C23.3,27.3,20,24,16,24c-4.9,0-8.6,7.6-9.7,10H0V0H48z M25,12c0-3.3-2.7-6-6-6c-2.6,0-4.8,1.6-5.6,4C11,9.8,9,11.7,9,14
	c0,2.2,1.8,4,4,4h6C22.3,18,25,15.3,25,12z"/>
</svg>
