<?xml version="1.0" encoding="utf-8"?>
<!-- Generator: Adobe Illustrator 17.0.0, SVG Export Plug-In . SVG Version: 6.00 Build 0)  -->
<!DOCTYPE svg PUBLIC "-//W3C//DTD SVG 1.1//EN" "http://www.w3.org/Graphics/SVG/1.1/DTD/svg11.dtd">
<svg version="1.1" id="Layer_1" xmlns="http://www.w3.org/2000/svg" xmlns:xlink="http://www.w3.org/1999/xlink" x="0px" y="0px"
	 width="48px" height="48px" viewBox="0 0 48 48" enable-background="new 0 0 48 48" xml:space="preserve">
<path d="M8,21c0,0.6-0.4,1-1,1c-0.6,0-1-0.4-1-1c0-0.5,0.4-1,1-1C7.6,20,8,20.5,8,21z M48,19v12c0,2.8-2.2,5-5,5h-5v9
	c0,0.6-0.4,1-1,1H11c-0.6,0-1-0.4-1-1v-9H5c-2.8,0-5-2.2-5-5V19c0-2.8,2.2-5,5-5h38C45.8,14,48,16.2,48,19z M10,21c0-1.7-1.3-3-3-3
	c-1.7,0-3,1.3-3,3c0,1.7,1.3,3,3,3C8.7,24,10,22.7,10,21z M36,30H12v14h24V30z M10,11V3c0-0.6,0.4-1,1-1h20c0.3,0,0.5,0.1,0.7,0.3
	l6,6C37.9,8.5,38,8.7,38,9v2c0,0.6-0.4,1-1,1H11C10.4,12,10,11.6,10,11z M31,9h6l-6-6V9z M15,34h18c0.6,0,1-0.4,1-1c0-0.6-0.4-1-1-1
	H15c-0.6,0-1,0.4-1,1C14,33.6,14.4,34,15,34z M15,38h18c0.6,0,1-0.4,1-1c0-0.6-0.4-1-1-1H15c-0.6,0-1,0.4-1,1C14,37.6,14.4,38,15,38
	z M15,42h18c0.6,0,1-0.4,1-1c0-0.6-0.4-1-1-1H15c-0.6,0-1,0.4-1,1C14,41.6,14.4,42,15,42z"/>
</svg>
