<?xml version="1.0" encoding="utf-8"?>
<!-- Generator: Adobe Illustrator 17.0.0, SVG Export Plug-In . SVG Version: 6.00 Build 0)  -->
<!DOCTYPE svg PUBLIC "-//W3C//DTD SVG 1.1//EN" "http://www.w3.org/Graphics/SVG/1.1/DTD/svg11.dtd">
<svg version="1.1" id="Layer_1" xmlns="http://www.w3.org/2000/svg" xmlns:xlink="http://www.w3.org/1999/xlink" x="0px" y="0px"
	 width="48px" height="48px" viewBox="0 0 48 48" enable-background="new 0 0 48 48" xml:space="preserve">
<path d="M41,36H16.3l0.5,2H38c2.2,0,4,1.8,4,4c0,2.2-1.8,3.9-4,3.9c-2.2,0-4-1.8-4-4c0-0.7,0.2-1.9,0.6-1.9H19.4
	c0.3,0,0.6,1.2,0.6,2c0,2.2-1.8,3.9-4,3.9c-2.2,0-4-1.7-4-3.9c0-1.8,1.2-3.3,2.8-3.8L7.2,6H1C0.4,6,0,5.6,0,5s0.4-1,1-1h7
	c0.5,0,0.9,0.3,1,0.8L11.6,16H47c0.3,0,0.6,0.2,0.8,0.4c0.2,0.3,0.2,0.5,0.1,0.8l-6,18C41.8,35.6,41.4,36,41,36z"/>
</svg>
