<?xml version="1.0" encoding="utf-8"?>
<!-- Generator: Adobe Illustrator 17.0.0, SVG Export Plug-In . SVG Version: 6.00 Build 0)  -->
<!DOCTYPE svg PUBLIC "-//W3C//DTD SVG 1.1//EN" "http://www.w3.org/Graphics/SVG/1.1/DTD/svg11.dtd">
<svg version="1.1" id="Layer_1" xmlns="http://www.w3.org/2000/svg" xmlns:xlink="http://www.w3.org/1999/xlink" x="0px" y="0px"
	 width="48px" height="48px" viewBox="0 0 48 48" enable-background="new 0 0 48 48" xml:space="preserve">
<path d="M40.1,6H7.9C3.5,6,0,9.5,0,13.9v18.2C0,36.5,3.5,40,7.9,40h32.3c4.3,0,7.9-3.5,7.9-7.9V13.9C48,9.5,44.5,6,40.1,6z
	 M33.1,23.1l-13.5,8.7c-0.2,0.1-0.4,0.2-0.5,0.2c-0.2,0-0.3,0-0.5-0.1c-0.3-0.2-0.5-0.5-0.5-0.9V13.6c0-0.4,0.2-0.7,0.5-0.9
	c0.3-0.2,0.7-0.2,1,0l13.5,8.7c0.3,0.2,0.5,0.5,0.5,0.8S33.4,22.9,33.1,23.1z"/>
</svg>
