<?xml version="1.0" encoding="utf-8"?>
<!-- Generator: Adobe Illustrator 17.0.0, SVG Export Plug-In . SVG Version: 6.00 Build 0)  -->
<!DOCTYPE svg PUBLIC "-//W3C//DTD SVG 1.1//EN" "http://www.w3.org/Graphics/SVG/1.1/DTD/svg11.dtd">
<svg version="1.1" id="Layer_1" xmlns="http://www.w3.org/2000/svg" xmlns:xlink="http://www.w3.org/1999/xlink" x="0px" y="0px"
	 width="48px" height="48px" viewBox="0 0 48 48" enable-background="new 0 0 48 48" xml:space="preserve">
<path d="M2,20h10v26H2V20z M33.9,19.9c-4.8,0-7.9,2.9-7.9,2.9V20H16c0.1,2,0,26,0,26h10V31.8c0-2.2,1.8-4,4-4c2.2,0,4,1.8,4,4V46h10
	V32.5C44,24.2,39.8,19.9,33.9,19.9z M7.1,6C4,6,2,8.3,2,10.9c0,2.6,2,5.1,5,5.1H7c3.1,0,5.1-2.4,5.1-5C12,8.3,10.1,6,7.1,6z"/>
</svg>
