<?xml version="1.0" encoding="utf-8"?>
<!-- Generator: Adobe Illustrator 17.0.0, SVG Export Plug-In . SVG Version: 6.00 Build 0)  -->
<!DOCTYPE svg PUBLIC "-//W3C//DTD SVG 1.1//EN" "http://www.w3.org/Graphics/SVG/1.1/DTD/svg11.dtd">
<svg version="1.1" id="Layer_1" xmlns="http://www.w3.org/2000/svg" xmlns:xlink="http://www.w3.org/1999/xlink" x="0px" y="0px"
	 width="48px" height="48px" viewBox="0 0 48 48" enable-background="new 0 0 48 48" xml:space="preserve">
<path d="M47.6,17.8L34.2,29.4l5.8,17.3c0.1,0.4,0,0.9-0.4,1.1C39.4,47.9,39.2,48,39,48c-0.2,0-0.4-0.1-0.6-0.2L24,37.2L9.6,47.8
	c-0.4,0.3-0.8,0.3-1.2,0c-0.4-0.3-0.5-0.7-0.4-1.1l5.8-17.3L0.4,17.8c-0.3-0.3-0.5-0.7-0.3-1.1C0.2,16.3,0.6,16,1,16h16.3l5.8-15.3
	C23.2,0.3,23.6,0,24,0c0.4,0,0.8,0.3,0.9,0.7L30.7,16H47c0.4,0,0.8,0.3,0.9,0.7C48.1,17.1,48,17.5,47.6,17.8z"/>
</svg>
