<?xml version="1.0" encoding="utf-8"?>
<!-- Generator: Adobe Illustrator 17.0.0, SVG Export Plug-In . SVG Version: 6.00 Build 0)  -->
<!DOCTYPE svg PUBLIC "-//W3C//DTD SVG 1.1//EN" "http://www.w3.org/Graphics/SVG/1.1/DTD/svg11.dtd">
<svg version="1.1" id="Layer_1" xmlns="http://www.w3.org/2000/svg" xmlns:xlink="http://www.w3.org/1999/xlink" x="0px" y="0px"
	 width="48px" height="48px" viewBox="0 0 48 48" enable-background="new 0 0 48 48" xml:space="preserve">
<path d="M32,11c0-2.8-2.2-5-5-5h-6c-2.8,0-5,2.2-5,5v3h-2v34h20V14h-2V11z M30,14H18v-3c0-1.7,1.3-3,3-3h6c1.7,0,3,1.3,3,3V14z
	 M6,14.1v33.8c-3.4-0.5-6-3.4-6-6.9V21C0,17.5,2.6,14.6,6,14.1z M48,21v20c0,3.5-2.6,6.4-6,6.9V14.1C45.4,14.6,48,17.5,48,21z M7,14
	h6v34H7V14z M35,14h6v34h-6V14z"/>
</svg>
