<?xml version="1.0" encoding="utf-8"?>
<!-- Generator: Adobe Illustrator 20.1.0, SVG Export Plug-In . SVG Version: 6.00 Build 0)  -->
<svg version="1.1" id="Layer_1" xmlns="http://www.w3.org/2000/svg" xmlns:xlink="http://www.w3.org/1999/xlink" x="0px" y="0px"
	 viewBox="0 0 48 48" style="enable-background:new 0 0 48 48;" xml:space="preserve">
<path d="M39,13.1V1C39,0.4,38.6,0,38,0H25.5c-0.3,0-0.5,0.1-0.7,0.3L0.3,24.9c-0.4,0.4-0.4,1,0,1.4l12.5,12.6
	c0.2,0.2,0.4,0.3,0.7,0.3c0,0,0,0,0,0c0.3,0,0.5-0.1,0.7-0.3l24.5-25C38.9,13.7,39,13.4,39,13.1z M31,11.1c-1.7,0-3-1.3-3-3
	c0-1.7,1.3-3,3-3c1.7,0,3,1.3,3,3C34,9.8,32.6,11.1,31,11.1z M35.6,31l6.4,6.4L34.4,45L28,38.6L35.6,31z M26.8,40.3l5.8,5.8L26.2,48
	c-0.1,0-0.2,0-0.3,0c-0.3,0-0.5-0.1-0.7-0.3c-0.3-0.3-0.4-0.6-0.3-1L26.8,40.3z M46.7,32.7L43.4,36L37,29.6l3.3-3.3
	c0.4-0.4,1-0.4,1.4,0l5,5C47.1,31.7,47.1,32.3,46.7,32.7z"/>
</svg>
