<?xml version="1.0" encoding="utf-8"?>
<!-- Generator: Adobe Illustrator 20.1.0, SVG Export Plug-In . SVG Version: 6.00 Build 0)  -->
<svg version="1.1" id="Layer_1" xmlns="http://www.w3.org/2000/svg" xmlns:xlink="http://www.w3.org/1999/xlink" x="0px" y="0px"
	 viewBox="0 0 48 48" style="enable-background:new 0 0 48 48;" xml:space="preserve">
<path d="M46.9,36.7C46.7,36.4,41.5,30,35,30c-6.5,0-11.7,6.4-11.9,6.7c-0.1,0.2-0.1,0.4,0,0.6C23.3,37.6,28.5,44,35,44
	c6.5,0,11.7-6.4,11.9-6.7C47,37.1,47,36.9,46.9,36.7z M35,42c-2.8,0-5-2.2-5-5s2.2-5,5-5c2.8,0,5,2.2,5,5S37.8,42,35,42z M38,37
	c0,1.7-1.3,3-3,3s-3-1.3-3-3s1.3-3,3-3S38,35.3,38,37z M39,13.1V1C39,0.4,38.6,0,38,0H25.5c-0.3,0-0.5,0.1-0.7,0.3L0.3,24.9
	c-0.4,0.4-0.4,1,0,1.4l12.5,12.6c0.2,0.2,0.4,0.3,0.7,0.3c0,0,0,0,0,0c0.3,0,0.5-0.1,0.7-0.3l24.5-25C38.9,13.7,39,13.4,39,13.1z
	 M31,11.1c-1.7,0-3-1.3-3-3c0-1.7,1.3-3,3-3c1.7,0,3,1.3,3,3C34,9.8,32.6,11.1,31,11.1z"/>
</svg>
