<?xml version="1.0" encoding="utf-8"?>
<!-- Generator: Adobe Illustrator 20.1.0, SVG Export Plug-In . SVG Version: 6.00 Build 0)  -->
<svg version="1.1" id="Layer_1" xmlns="http://www.w3.org/2000/svg" xmlns:xlink="http://www.w3.org/1999/xlink" x="0px" y="0px"
	 viewBox="0 0 48 48" style="enable-background:new 0 0 48 48;" xml:space="preserve">
<path d="M39,13.1V1c0-0.6-0.4-1-1-1H25.5c-0.3,0-0.5,0.1-0.7,0.3L0.3,24.9c-0.4,0.4-0.4,1,0,1.4l12.5,12.6c0.2,0.2,0.4,0.3,0.7,0.3
	c0,0,0,0,0,0c0.3,0,0.5-0.1,0.7-0.3l24.5-25C38.9,13.7,39,13.4,39,13.1z M31,11.1c-1.7,0-3-1.3-3-3c0-1.7,1.3-3,3-3c1.7,0,3,1.3,3,3
	C34,9.8,32.6,11.1,31,11.1z M46,32h-1v-1c0-3.9-3.1-7-7-7c-3.9,0-7,3.1-7,7v1h-1c-0.6,0-1,0.4-1,1v14c0,0.6,0.4,1,1,1h16
	c0.6,0,1-0.4,1-1V33C47,32.4,46.6,32,46,32z M39,39.7l0,3.3c0,0.6-0.4,1-1,1c-0.6,0-1-0.4-1-1l0-3.3c-0.6-0.3-1-1-1-1.7
	c0-1.1,0.9-2,2-2c1.1,0,2,0.9,2,2C40,38.7,39.6,39.3,39,39.7z M43,32H33v-1c0-2.8,2.2-5,5-5c2.8,0,5,2.2,5,5V32z"/>
</svg>
