<?xml version="1.0" encoding="utf-8"?>
<!-- Generator: Adobe Illustrator 20.1.0, SVG Export Plug-In . SVG Version: 6.00 Build 0)  -->
<svg version="1.1" id="Layer_1" xmlns="http://www.w3.org/2000/svg" xmlns:xlink="http://www.w3.org/1999/xlink" x="0px" y="0px"
	 viewBox="0 0 48 48" style="enable-background:new 0 0 48 48;" xml:space="preserve">
<path d="M39,13.1V1C39,0.4,38.6,0,38,0H25.5c-0.3,0-0.5,0.1-0.7,0.3L0.3,24.9c-0.4,0.4-0.4,1,0,1.4l12.5,12.6
	c0.2,0.2,0.4,0.3,0.7,0.3c0,0,0,0,0,0c0.3,0,0.5-0.1,0.7-0.3l24.5-25C38.9,13.7,39,13.4,39,13.1z M31,11.1c-1.7,0-3-1.3-3-3
	c0-1.7,1.3-3,3-3c1.7,0,3,1.3,3,3C34,9.8,32.6,11.1,31,11.1z M46.7,46.3l-9.9-19.8c-0.3-0.7-1.4-0.7-1.8,0l-10,20
	c-0.2,0.3-0.1,0.7,0,1c0.2,0.3,0.5,0.5,0.9,0.5h20c0,0,0,0,0,0c0.6,0,1-0.4,1-1C47,46.7,46.9,46.5,46.7,46.3z M36,44.3
	c-0.5,0-0.9-0.4-0.9-0.9c0-0.5,0.4-0.9,0.9-0.9c0.5,0,0.9,0.4,0.9,0.9C36.9,43.9,36.5,44.3,36,44.3z M37,40.6c0,0.6-0.4,1-1,1
	s-1-0.4-1-1v-5.5c0-0.6,0.4-1,1-1s1,0.4,1,1V40.6z"/>
</svg>
