<?xml version="1.0" encoding="utf-8"?>
<!-- Generator: Adobe Illustrator 20.1.0, SVG Export Plug-In . SVG Version: 6.00 Build 0)  -->
<svg version="1.1" id="Layer_1" xmlns="http://www.w3.org/2000/svg" xmlns:xlink="http://www.w3.org/1999/xlink" x="0px" y="0px"
	 viewBox="0 0 48 48" style="enable-background:new 0 0 48 48;" xml:space="preserve">
<path d="M47,30v5H27v-5c0-0.6,0.4-1,1-1h3v-1c0-0.6,0.4-1,1-1h2c0.6,0,1,0.4,1,1v1h4v-1c0-0.6,0.4-1,1-1h2c0.6,0,1,0.4,1,1v1h3
	C46.6,29,47,29.4,47,30z M27,47c0,0.6,0.4,1,1,1h18c0.6,0,1-0.4,1-1V37H27V47z M38.7,13.8l-24.5,25c-0.2,0.2-0.4,0.3-0.7,0.3
	c0,0,0,0,0,0c-0.3,0-0.5-0.1-0.7-0.3L0.3,26.3c-0.4-0.4-0.4-1,0-1.4L24.8,0.3C25,0.1,25.2,0,25.5,0H38c0.6,0,1,0.4,0.9,1v12.1
	C39,13.4,38.9,13.7,38.7,13.8z M34,8.1c0-1.7-1.3-3-3-3c-1.7,0-3,1.3-3,3c0,1.7,1.3,3,3,3C32.6,11.1,34,9.8,34,8.1z"/>
</svg>
