<?xml version="1.0" encoding="utf-8"?>
<!-- Generator: Adobe Illustrator 20.1.0, SVG Export Plug-In . SVG Version: 6.00 Build 0)  -->
<svg version="1.1" id="Layer_1" xmlns="http://www.w3.org/2000/svg" xmlns:xlink="http://www.w3.org/1999/xlink" x="0px" y="0px"
	 viewBox="0 0 48 48" style="enable-background:new 0 0 48 48;" xml:space="preserve">
<path d="M39,13.1V1c0-0.6-0.4-1-1-1H25.5c-0.3,0-0.5,0.1-0.7,0.3L0.3,24.9c-0.4,0.4-0.4,1,0,1.4l12.5,12.6c0.2,0.2,0.4,0.3,0.7,0.3
	c0,0,0,0,0,0c0.3,0,0.5-0.1,0.7-0.3l24.5-25C38.9,13.7,39,13.4,39,13.1z M31,11.1c-1.7,0-3-1.3-3-3c0-1.7,1.3-3,3-3c1.7,0,3,1.3,3,3
	C34,9.8,32.6,11.1,31,11.1z M36,26c-6.1,0-11,4.9-11,11c0,6.1,4.9,11,11,11s11-4.9,11-11C47,30.9,42.1,26,36,26z M29.8,34.9
	c0.9-2.5,3.2-4.1,5.9-4.1c1.6,0,3.1,0.6,4.2,1.5c0-0.5,0.5-1,1-1c0.6,0,1,0.4,1,1v2.9c0,0.6-0.4,1-1,1H38c-0.6,0-1-0.4-1-1
	c0-0.6,0.4-1,1-1h1.1c-0.8-0.9-2.1-1.5-3.4-1.5c-1.8,0-3.4,1.1-4,2.8c-0.1,0.4-0.5,0.7-0.9,0.7c-0.1,0-0.2,0-0.3-0.1
	C29.9,36,29.7,35.5,29.8,34.9z M42.2,39.1c-0.9,2.5-3.2,4.1-5.9,4.1c-1.6,0-3.1-0.6-4.2-1.5c0,0.5-0.5,1-1,1c-0.6,0-1-0.4-1-1v-2.9
	c0-0.6,0.4-1,1-1H34c0.6,0,1,0.4,1,1c0,0.6-0.4,1-1,1h-1.1c0.8,0.9,2.1,1.5,3.4,1.5c1.8,0,3.4-1.1,4-2.8c0.2-0.5,0.8-0.8,1.3-0.6
	C42.1,38,42.3,38.5,42.2,39.1z"/>
</svg>
