<?xml version="1.0" encoding="utf-8"?>
<!-- Generator: Adobe Illustrator 17.0.0, SVG Export Plug-In . SVG Version: 6.00 Build 0)  -->
<!DOCTYPE svg PUBLIC "-//W3C//DTD SVG 1.1//EN" "http://www.w3.org/Graphics/SVG/1.1/DTD/svg11.dtd">
<svg version="1.1" id="Layer_1" xmlns="http://www.w3.org/2000/svg" xmlns:xlink="http://www.w3.org/1999/xlink" x="0px" y="0px"
	 width="48px" height="48px" viewBox="0 0 48 48" enable-background="new 0 0 48 48" xml:space="preserve">
<path fill="#010101" d="M47,4H33c-0.3,0-0.5,0.1-0.7,0.3l-28,28c-0.4,0.4-0.4,1,0,1.4l14,14c0.2,0.2,0.5,0.3,0.7,0.3
	c0.3,0,0.5-0.1,0.7-0.3l28-28c0.2-0.2,0.3-0.4,0.3-0.7V5C48,4.4,47.6,4,47,4z M38,18c-2.2,0-4-1.8-4-4c0-2.2,1.8-4,4-4
	c2.2,0,4,1.8,4,4C42,16.2,40.2,18,38,18z M3.7,28.3c0.4,0.4,0.4,1,0,1.4C3.5,29.9,3.3,30,3,30c-0.3,0-0.5-0.1-0.7-0.3l-2-2
	c-0.4-0.4-0.4-1,0-1.4l26-26C26.5,0.1,26.7,0,27,0h14c0.6,0,1,0.5,1,1c0,0.6-0.4,1-1,1H27.4l-25,25L3.7,28.3z"/>
</svg>
