<?xml version="1.0" encoding="utf-8"?>
<!-- Generator: Adobe Illustrator 20.1.0, SVG Export Plug-In . SVG Version: 6.00 Build 0)  -->
<svg version="1.1" id="Layer_1" xmlns="http://www.w3.org/2000/svg" xmlns:xlink="http://www.w3.org/1999/xlink" x="0px" y="0px"
	 viewBox="0 0 48 48" style="enable-background:new 0 0 48 48;" xml:space="preserve">
<path d="M10,27c0,3.6,1.1,6.9,2.9,10l-6.6-5.2C4.3,30.2,0,24.2,0,18V1c0-0.4,0.2-0.8,0.6-0.9C1-0.1,1.4,0,1.7,0.3
	C3.8,2.4,10.3,3.8,18,3.8c7.7,0,14.2-1.4,16.3-3.5C34.6,0,35-0.1,35.4,0.1C35.8,0.2,36,0.6,36,1v7l0,2.4c-1.8,0.2-3.8,0.3-6,0.3
	c-7.8,0-13.5-1.5-14.9-2.9l-3.4-3.4c-0.3-0.3-0.7-0.4-1.1-0.2C10.2,4.4,10,4.8,10,5.2V27z M48,10v17c0,11.6-13.6,21-18,21
	s-18-9.4-18-21V10V7.6c4.2,4.2,9.3,5.2,18,5.2c3.3,0,6-0.3,6-0.3c2.8-0.3,7.5-1.1,9.8-2.8c0.2-0.1,0.3-0.3,0.5-0.4
	C46.6,9,47,8.9,47.4,9.1C47.8,9.2,48,9.6,48,10z M23,22c1.1,0,2,0.9,2,2c0,0.6,0.4,1,1,1c0.6,0,1-0.4,1-1c0-2.2-1.8-4-4-4
	c-2.2,0-4,1.8-4,4c0,0.6,0.4,1,1,1c0.6,0,1-0.4,1-1C21,22.9,21.9,22,23,22z M37,33c0-0.6-0.4-1-1-1c-0.6,0-1,0.4-1,1
	c0,2.8-2.2,5-5,5c-2.8,0-5-2.2-5-5c0-0.6-0.4-1-1-1s-1,0.4-1,1c0,3.9,3.1,7,7,7S37,36.9,37,33z M41,24c0-2.2-1.8-4-4-4
	c-2.2,0-4,1.8-4,4c0,0.6,0.4,1,1,1c0.6,0,1-0.4,1-1c0-1.1,0.9-2,2-2c1.1,0,2,0.9,2,2c0,0.6,0.4,1,1,1C40.6,25,41,24.5,41,24z"/>
</svg>
