<?xml version="1.0" encoding="utf-8"?>
<!-- Generator: Adobe Illustrator 17.0.0, SVG Export Plug-In . SVG Version: 6.00 Build 0)  -->
<!DOCTYPE svg PUBLIC "-//W3C//DTD SVG 1.1//EN" "http://www.w3.org/Graphics/SVG/1.1/DTD/svg11.dtd">
<svg version="1.1" id="Layer_1" xmlns="http://www.w3.org/2000/svg" xmlns:xlink="http://www.w3.org/1999/xlink" x="0px" y="0px"
	 width="48px" height="48px" viewBox="0 0 48 48" enable-background="new 0 0 48 48" xml:space="preserve">
<path d="M2.6,15.6C0,13-0.7,9.2,0.7,5.8c0.1-0.3,0.4-0.5,0.7-0.6c0.3-0.1,0.6,0,0.9,0.2L6.1,9H9V6.4L5.4,2.5C5.2,2.2,5,1.9,5,1.6
	C5.1,1.3,5.3,1,5.6,0.9c3.3-1.4,7.2-0.6,9.7,1.9c2.4,2.4,3.3,6,2.2,9.2l7.2,7.2L19,24.9l-7.2-7.2C8.7,18.8,5,18,2.6,15.6z M47.7,3.5
	l-3-3c-0.3-0.3-0.9-0.4-1.3-0.1l-7.1,4.9C36.1,5.4,36,5.7,35.9,6c0,0.3,0.1,0.6,0.3,0.8l1.9,1.9L18.2,28.6L14.7,25
	c-0.4-0.4-1-0.4-1.4,0c-0.4,0.4-0.4,1,0,1.4l1.4,1.4L2.2,40.3C1.5,41,1.1,42,1.1,43.1c0,1.1,0.4,2.1,1.2,2.8C3,46.7,4,47.1,5.1,47.1
	c1.1,0,2.1-0.4,2.8-1.2l12.4-12.4l1.4,1.4c0.2,0.2,0.5,0.3,0.7,0.3s0.5-0.1,0.7-0.3c0.4-0.4,0.4-1,0-1.4L19.6,30l19.9-19.9l1.7,1.7
	c0.2,0.2,0.4,0.3,0.7,0.3c0,0,0,0,0.1,0c0.3,0,0.6-0.2,0.7-0.4l5.1-6.9C48.1,4.4,48.1,3.8,47.7,3.5z M35.8,30.3l-6.9-6.9l-5.7,5.7
	l6.9,6.8c-1.1,3.2-0.3,6.8,2.2,9.2c1.7,1.7,3.9,2.6,6.3,2.6c1.2,0,2.4-0.2,3.5-0.7c0.3-0.1,0.5-0.4,0.6-0.7c0.1-0.3,0.1-0.7-0.1-0.9
	L39,41.6V39h2.3l4,3.7c0.2,0.2,0.6,0.3,0.9,0.2c0.3-0.1,0.6-0.3,0.7-0.6c1.4-3.4,0.7-7.3-1.9-9.9C42.6,30.1,39,29.3,35.8,30.3z"/>
</svg>
