<?xml version="1.0" encoding="utf-8"?>
<!-- Generator: Adobe Illustrator 20.1.0, SVG Export Plug-In . SVG Version: 6.00 Build 0)  -->
<svg version="1.1" id="Layer_1" xmlns="http://www.w3.org/2000/svg" xmlns:xlink="http://www.w3.org/1999/xlink" x="0px" y="0px"
	 viewBox="0 0 48 48" style="enable-background:new 0 0 48 48;" xml:space="preserve">
<path d="M24,24.2c0.4,0.1,0.8,0.3,1.2,0.4C24.5,25.1,24,26,24,27v13H1c-0.3,0-0.5-0.1-0.7-0.3C0.1,39.5,0,39.3,0,39
	c0-0.2,0.1-5.5,1.1-8.4c0.8-2.3,4.5-3.5,9.2-5.1c1.2-0.4,2.5-0.8,3.8-1.3v-3.7c-1-0.7-2.8-2.3-3-5.9c-0.7-0.5-1.2-1.5-1.2-2.7
	c0-0.7,0.1-1.3,0.4-1.8c0.2-0.3,0.4-0.5,0.6-0.7C10.4,7.8,9.6,5.1,11,3.6c0.6-0.6,1.4-0.9,2.4-0.8c1.2-2,4.4-2.8,7.1-2.8h0
	c3,0,6.8,0.9,7.5,3.6c0.5,2.2-0.2,4.3-0.7,5.6c0.6,0.5,0.9,1.5,0.9,2.6c0,1.3-0.5,2.3-1.2,2.8c-0.2,3.5-2,5.2-3,5.9V24.2z M48,27v20
	c0,0.6-0.4,1-1,1H27c-0.6,0-1-0.4-1-1V27c0-0.6,0.4-1,1-1h20C47.6,26,48,26.4,48,27z M44,43c0-0.6-0.4-1-1-1H31c-0.6,0-1,0.4-1,1
	s0.4,1,1,1h12C43.6,44,44,43.6,44,43z M44,39c0-0.6-0.4-1-1-1H31c-0.6,0-1,0.4-1,1s0.4,1,1,1h12C43.6,40,44,39.6,44,39z M44,35
	c0-0.6-0.4-1-1-1H31c-0.6,0-1,0.4-1,1s0.4,1,1,1h12C43.6,36,44,35.6,44,35z M44,31c0-0.6-0.4-1-1-1h-8c-0.6,0-1,0.4-1,1s0.4,1,1,1h8
	C43.6,32,44,31.6,44,31z"/>
</svg>
