<?xml version="1.0" encoding="utf-8"?>
<!-- Generator: Adobe Illustrator 20.1.0, SVG Export Plug-In . SVG Version: 6.00 Build 0)  -->
<svg version="1.1" id="Layer_1" xmlns="http://www.w3.org/2000/svg" xmlns:xlink="http://www.w3.org/1999/xlink" x="0px" y="0px"
	 viewBox="0 0 48 48" style="enable-background:new 0 0 48 48;" xml:space="preserve">
<path d="M24,37c0,1,0.1,2,0.4,3H1c-0.3,0-0.5-0.1-0.7-0.3C0.1,39.5,0,39.3,0,39c0-0.2,0.1-5.5,1.1-8.4c0.8-2.3,4.5-3.5,9.2-5.1
	c1.2-0.4,2.5-0.8,3.8-1.3v-3.7c-1-0.7-2.8-2.3-3-5.9c-0.7-0.5-1.2-1.5-1.2-2.7c0-0.7,0.1-1.3,0.4-1.8c0.2-0.3,0.4-0.5,0.6-0.7
	C10.4,7.8,9.6,5.1,11,3.6c0.6-0.6,1.4-0.9,2.4-0.8c1.2-2,4.4-2.8,7.1-2.8c3,0,6.8,0.9,7.5,3.6c0.5,2.2-0.2,4.3-0.7,5.6
	c0.6,0.5,0.9,1.5,0.9,2.6c0,1.3-0.5,2.3-1.2,2.8c-0.2,3.5-2,5.2-3,5.9v3.7c1.2,0.5,2.5,0.9,3.8,1.3c0.7,0.2,1.4,0.5,2.1,0.7
	C26.3,28.5,24,32.5,24,37z M48,37c0,6.1-4.9,11-11,11s-11-4.9-11-11s4.9-11,11-11S48,30.9,48,37z M42.6,44L30,31.4
	c-1.2,1.5-2,3.5-2,5.6c0,5,4,9,9,9C39.1,46,41,45.2,42.6,44z M46,37c0-5-4-9-9-9c-2.1,0-4,0.8-5.6,2L44,42.6C45.2,41,46,39.1,46,37z
	"/>
</svg>
