<?xml version="1.0" encoding="utf-8"?>
<!-- Generator: Adobe Illustrator 20.1.0, SVG Export Plug-In . SVG Version: 6.00 Build 0)  -->
<svg version="1.1" id="Layer_1" xmlns="http://www.w3.org/2000/svg" xmlns:xlink="http://www.w3.org/1999/xlink" x="0px" y="0px"
	 viewBox="0 0 48 48" style="enable-background:new 0 0 48 48;" xml:space="preserve">
<path d="M45,6H3C2.4,6,2,6.4,2,7v33c0,0.6,0.4,1,1,1h42c0.6,0,1-0.4,1-1V7C46,6.4,45.6,6,45,6z M24,32c0,0.6-0.4,1-1,1H9
	c-0.6,0-1-0.4-1-1v-4c0-0.1,0-0.2,0.1-0.3c0-0.1,1.1-3.2,4.9-3.6v-0.5c-0.8-0.6-2-2-2-4.5c0-2,0-5,5-5s5,3,5,5c0,2.6-1.2,3.9-2,4.5
	v0.5c3.8,0.5,4.9,3.5,4.9,3.6c0,0.1,0.1,0.2,0.1,0.3V32z M33,30h-4c-0.6,0-1-0.4-1-1s0.4-1,1-1h4c0.6,0,1,0.4,1,1S33.6,30,33,30z
	 M39,26H29c-0.6,0-1-0.4-1-1s0.4-1,1-1h10c0.6,0,1,0.4,1,1S39.6,26,39,26z M39,22H29c-0.6,0-1-0.4-1-1s0.4-1,1-1h10c0.6,0,1,0.4,1,1
	S39.6,22,39,22z M39,18H29c-0.6,0-1-0.4-1-1s0.4-1,1-1h10c0.6,0,1,0.4,1,1S39.6,18,39,18z"/>
</svg>
