<?xml version="1.0" encoding="utf-8"?>
<!-- Generator: Adobe Illustrator 20.1.0, SVG Export Plug-In . SVG Version: 6.00 Build 0)  -->
<svg version="1.1" id="Layer_1" xmlns="http://www.w3.org/2000/svg" xmlns:xlink="http://www.w3.org/1999/xlink" x="0px" y="0px"
	 viewBox="0 0 48 48" style="enable-background:new 0 0 48 48;" xml:space="preserve">
<path d="M37,24c3.5,0,6.7,1.4,9,3.6V7c0-0.6-0.4-1-1-1H3C2.4,6,2,6.4,2,7v33c0,0.6,0.4,1,1,1h21.6c-0.4-1.3-0.6-2.6-0.6-4
	C24,29.8,29.8,24,37,24z M29,16h10c0.6,0,1,0.4,1,1s-0.4,1-1,1H29c-0.6,0-1-0.4-1-1S28.4,16,29,16z M29,20h10c0.6,0,1,0.4,1,1
	s-0.4,1-1,1H29c-0.6,0-1-0.4-1-1S28.4,20,29,20z M23,33H9c-0.6,0-1-0.4-1-1v-4c0-0.1,0-0.2,0.1-0.3c0-0.1,1.1-3.2,4.9-3.6v-0.5
	c-0.8-0.6-2-2-2-4.5c0-2,0-5,5-5s5,3,5,5c0,2.6-1.2,3.9-2,4.5v0.5c3.8,0.5,4.9,3.5,4.9,3.6c0,0.1,0.1,0.2,0.1,0.3v4
	C24,32.6,23.6,33,23,33z M37,26c-6.1,0-11,4.9-11,11c0,6.1,4.9,11,11,11s11-4.9,11-11C48,30.9,43.1,26,37,26z M42.7,34.7l-6.8,6.7
	l-4.7-4.7c-0.4-0.4-0.4-1,0-1.4c0.4-0.4,1-0.4,1.4,0l3.2,3.3l5.3-5.3c0.4-0.4,1-0.4,1.4,0C43.1,33.7,43.1,34.3,42.7,34.7z"/>
</svg>
