<?xml version="1.0" encoding="utf-8"?>
<!-- Generator: Adobe Illustrator 17.0.0, SVG Export Plug-In . SVG Version: 6.00 Build 0)  -->
<!DOCTYPE svg PUBLIC "-//W3C//DTD SVG 1.1//EN" "http://www.w3.org/Graphics/SVG/1.1/DTD/svg11.dtd">
<svg version="1.1" id="Layer_1" xmlns="http://www.w3.org/2000/svg" xmlns:xlink="http://www.w3.org/1999/xlink" x="0px" y="0px"
	 width="48px" height="48px" viewBox="0 0 48 48" enable-background="new 0 0 48 48" xml:space="preserve">
<path d="M48,24c0,0.3-0.1,0.6-0.4,0.8l-28,21c-0.3,0.2-0.7,0.3-1,0.1C18.2,45.7,18,45.4,18,45V33.2L1.7,47.7C1.5,47.9,1.2,48,1,48
	c-0.1,0-0.3,0-0.4-0.1C0.2,47.8,0,47.4,0,47V1c0-0.4,0.2-0.8,0.6-0.9C0.9-0.1,1.4,0,1.7,0.3L18,14.8V3c0-0.4,0.2-0.7,0.6-0.9
	c0.3-0.2,0.7-0.1,1,0.1l28,21C47.9,23.4,48,23.7,48,24z"/>
</svg>
