<?xml version="1.0" encoding="utf-8"?>
<!-- Generator: Adobe Illustrator 20.1.0, SVG Export Plug-In . SVG Version: 6.00 Build 0)  -->
<svg version="1.1" id="Layer_1" xmlns="http://www.w3.org/2000/svg" xmlns:xlink="http://www.w3.org/1999/xlink" x="0px" y="0px"
	 viewBox="0 0 48 48" style="enable-background:new 0 0 48 48;" xml:space="preserve">
<path d="M15.7,37.7l-10,10C5.5,47.9,5.2,48,5,48c-0.3,0-0.5-0.1-0.7-0.3c-0.4-0.4-0.4-1,0-1.4l10-10c0.4-0.4,1-0.4,1.4,0
	C16.1,36.7,16.1,37.3,15.7,37.7z M25.7,36.3c-0.4-0.4-1-0.4-1.4,0l-10,10c-0.4,0.4-0.4,1,0,1.4c0.2,0.2,0.5,0.3,0.7,0.3
	s0.5-0.1,0.7-0.3l10-10C26.1,37.3,26.1,36.7,25.7,36.3z M34.3,36.3l-10,10c-0.4,0.4-0.4,1,0,1.4c0.2,0.2,0.5,0.3,0.7,0.3
	s0.5-0.1,0.7-0.3l10-10c0.4-0.4,0.4-1,0-1.4C35.3,35.9,34.7,35.9,34.3,36.3z M42.7,16.1c0.6-2,0.3-4.1-0.8-5.9c-1.3-2-3.5-3.2-6-3.2
	C34,2.8,29.7,0,25,0c-5.9,0-11,4.4-11.9,10.2C7.9,11.1,4,15.6,4,21c0,6.1,4.9,11,11,11h22c5,0,9-4,9-9C46,20.3,44.8,17.8,42.7,16.1z
	"/>
</svg>
