<?xml version="1.0" encoding="utf-8"?>
<!-- Generator: Adobe Illustrator 20.1.0, SVG Export Plug-In . SVG Version: 6.00 Build 0)  -->
<svg version="1.1" id="Layer_1" xmlns="http://www.w3.org/2000/svg" xmlns:xlink="http://www.w3.org/1999/xlink" x="0px" y="0px"
	 viewBox="0 0 48 48" style="enable-background:new 0 0 48 48;" xml:space="preserve">
<path d="M46,23c0,5-4,9-9,9H15C8.9,32,4,27.1,4,21c0-5.4,3.9-10,9.1-10.8C14,4.4,19.1,0,25,0c4.7,0,9,2.8,10.9,7c0,0,0.1,0,0.1,0
	c2.3,0,4.5,1.2,5.8,3.2c1.2,1.8,1.4,3.9,0.8,5.9C44.8,17.7,46,20.3,46,23z M32.3,36.3l-7.8,7.8C24.3,44,24.2,44,24,44
	c-1.1,0-2,0.9-2,2c0,1.1,0.9,2,2,2c1.1,0,2-0.9,2-2c0-0.2,0-0.3-0.1-0.5l7.8-7.8c0.4-0.4,0.4-1,0-1.4C33.3,35.9,32.7,35.9,32.3,36.3
	z M23.7,37.7c0.4-0.4,0.4-1,0-1.4c-0.4-0.4-1-0.4-1.4,0l-5.8,5.8C16.3,42,16.2,42,16,42c-1.1,0-2,0.9-2,2c0,1.1,0.9,2,2,2
	c1.1,0,2-0.9,2-2c0-0.2,0-0.3-0.1-0.5L23.7,37.7z M12.3,36.3l-7.8,7.8C4.3,44,4.2,44,4,44c-1.1,0-2,0.9-2,2c0,1.1,0.9,2,2,2
	c1.1,0,2-0.9,2-2c0-0.2,0-0.3-0.1-0.5l7.8-7.8c0.4-0.4,0.4-1,0-1.4C13.3,35.9,12.7,35.9,12.3,36.3z"/>
</svg>
