<?xml version="1.0" encoding="utf-8"?>
<!-- Generator: Adobe Illustrator 20.1.0, SVG Export Plug-In . SVG Version: 6.00 Build 0)  -->
<svg version="1.1" id="Layer_1" xmlns="http://www.w3.org/2000/svg" xmlns:xlink="http://www.w3.org/1999/xlink" x="0px" y="0px"
	 viewBox="0 0 48 48" style="enable-background:new 0 0 48 48;" xml:space="preserve">
<path d="M48,23.1c0,0.4-0.2,0.7-0.6,0.9c-2.6,1.2-4.5,1.3-6.5,1c0.2-2.1-0.2-4.2-1.4-6c-1.5-2.2-3.8-3.7-6.4-4
	c-0.9-1.6-2.1-3-3.6-4.1c0-0.4,0.1-0.7,0.1-1.1C30.9,4.2,36.1,0,42,0c1.9,0,3.7,0.4,5.4,1.2C47.8,1.4,48,1.8,48,2.1
	c0,0.4-0.2,0.7-0.6,0.9c-3.7,1.8-6.1,5.5-6.1,9.6s2.4,7.8,6.1,9.6C47.8,22.4,48,22.7,48,23.1z M38.7,26c0.6-2,0.3-4.1-0.8-5.9
	c-1.3-2-3.5-3.2-6-3.2c-1.9-4.2-6.2-7-10.9-7c-5.9,0-11,4.4-11.9,10.2C3.9,21.1,0,25.6,0,31c0,4.2,2.4,7.9,6,9.7l5.9-5.9
	c1.2-1.2,3.1-1.2,4.2,0c0.8,0.8,1.1,2.1,0.7,3.1l3.1-3.1c1.2-1.2,3.1-1.2,4.2,0c1.2,1.2,1.2,3.1,0,4.2l-0.4,0.4
	c0.5,0.3,0.8,0.8,1.1,1.3c0.1,0.3,0.2,0.6,0.2,0.9l6.9-6.9c1.2-1.2,3.1-1.2,4.2,0c1.2,1.2,1.2,3.1,0,4.2l-2.8,2.8
	c4.8-0.2,8.7-4.1,8.7-8.9C42,30.3,40.8,27.8,38.7,26z M22.7,36.3c-0.4-0.4-1-0.4-1.4,0l-5,5c-0.3,0.3-0.4,0.7-0.2,1.1
	c0.2,0.4,0.5,0.6,0.9,0.6h2.6l-3.3,3.3c-0.4,0.4-0.4,1,0,1.4c0.2,0.2,0.5,0.3,0.7,0.3c0.3,0,0.5-0.1,0.7-0.3l5-5
	c0.3-0.3,0.4-0.7,0.2-1.1C22.8,41.3,22.4,41,22,41h-2.6l3.3-3.3C23.1,37.3,23.1,36.7,22.7,36.3z M34.7,36.2c-0.4-0.4-1-0.4-1.4,0
	l-10,10c-0.4,0.4-0.4,1,0,1.4c0.2,0.2,0.5,0.3,0.7,0.3c0.3,0,0.5-0.1,0.7-0.3l10-10C35.1,37.3,35.1,36.6,34.7,36.2z M13.3,36.2
	l-10,10c-0.4,0.4-0.4,1,0,1.4C3.5,47.9,3.7,48,4,48s0.5-0.1,0.7-0.3l10-10c0.4-0.4,0.4-1,0-1.4S13.7,35.9,13.3,36.2z"/>
</svg>
