<?xml version="1.0" encoding="utf-8"?>
<!-- Generator: Adobe Illustrator 20.1.0, SVG Export Plug-In . SVG Version: 6.00 Build 0)  -->
<svg version="1.1" id="Layer_1" xmlns="http://www.w3.org/2000/svg" xmlns:xlink="http://www.w3.org/1999/xlink" x="0px" y="0px"
	 viewBox="0 0 48 48" style="enable-background:new 0 0 48 48;" xml:space="preserve">
<path d="M18,3V1c0-0.6,0.4-1,1-1s1,0.4,1,1v2c0,0.6-0.4,1-1,1S18,3.6,18,3z M7,7.9c0.3,0,0.5-0.1,0.7-0.3c0.4-0.4,0.4-1,0-1.4l-2-2
	c-0.4-0.4-1-0.4-1.4,0c-0.4,0.4-0.4,1,0,1.4l2,2C6.5,7.8,6.7,7.9,7,7.9z M31,7.9c0.3,0,0.5-0.1,0.7-0.3l2-2c0.4-0.4,0.4-1,0-1.4
	c-0.4-0.4-1-0.4-1.4,0l-2,2c-0.4,0.4-0.4,1,0,1.4C30.5,7.8,30.7,7.9,31,7.9z M3,18H1c-0.6,0-1,0.4-1,1s0.4,1,1,1h2c0.6,0,1-0.4,1-1
	S3.6,18,3,18z M8.7,26.9c1.4-1.1,3-2,4.8-2.5C15,18.3,20.6,13.9,27,13.9c1.4,0,2.9,0.2,4.2,0.7C29.4,9.6,24.6,6,19,6
	C11.8,6,6,11.8,6,19C6,22,7,24.7,8.7,26.9z M44.7,32c1.4-4.6-2.3-9.2-6.8-9c-1.9-4.2-6.3-7-10.9-7c-5.6,0-10.6,4-11.7,9.5
	c-0.1,0.4-0.4,0.7-0.8,0.8C9.5,27.4,6,31.8,6,37c0,6.1,4.9,11,11,11h22c5,0,9-4.1,9-9C48,36.3,46.7,33.7,44.7,32z"/>
</svg>
