<?xml version="1.0" encoding="utf-8"?>
<!-- Generator: Adobe Illustrator 20.1.0, SVG Export Plug-In . SVG Version: 6.00 Build 0)  -->
<svg version="1.1" id="Layer_1" xmlns="http://www.w3.org/2000/svg" xmlns:xlink="http://www.w3.org/1999/xlink" x="0px" y="0px"
	 viewBox="0 0 48 48" style="enable-background:new 0 0 48 48;" xml:space="preserve">
<path d="M48,23.1c0,0.4-0.2,0.7-0.6,0.9c-0.8,0.4-1.7,0.6-2.5,0.9c-0.7,0.2-1.5,0.3-2.3,0.3c-0.4,0-1,0-1.7-0.1
	c0.2-2.1-0.2-4.2-1.4-6c-1.5-2.2-3.8-3.7-6.4-4c-0.9-1.6-2.1-3-3.6-4.1c0-0.4,0.1-0.7,0.1-1.1C30.9,4.2,36.1,0,42,0
	c1.9,0,3.7,0.4,5.4,1.2C47.8,1.4,48,1.8,48,2.1c0,0.4-0.2,0.7-0.6,0.9c-3.7,1.8-6.1,5.5-6.1,9.6c0,4.1,2.4,7.8,6.1,9.6
	C47.8,22.4,48,22.7,48,23.1z M35.7,37.7c0.4-0.4,0.4-1,0-1.4c-0.4-0.4-1-0.4-1.4,0l-7.8,7.8c-0.2,0-0.3-0.1-0.5-0.1
	c-1.1,0-2,0.9-2,2c0,1.1,0.9,2,2,2c1.1,0,2-0.9,2-2c0-0.2-0.1-0.3-0.1-0.5L35.7,37.7z M25.7,37.7c0.4-0.4,0.4-1,0-1.4
	c-0.4-0.4-1-0.4-1.4,0l-5.8,5.8c-0.2,0-0.3-0.1-0.5-0.1c-1.1,0-2,0.9-2,2c0,1.1,0.9,2,2,2c1.1,0,2-0.9,2-2c0-0.2-0.1-0.3-0.1-0.5
	L25.7,37.7z M15.7,36.3c-0.4-0.4-1-0.4-1.4,0l-7.8,7.8C6.3,44.1,6.2,44,6,44c-1.1,0-2,0.9-2,2c0,1.1,0.9,2,2,2c1.1,0,2-0.9,2-2
	c0-0.2-0.1-0.3-0.1-0.5l7.8-7.8C16.1,37.3,16.1,36.7,15.7,36.3z M38.7,26c0.6-2,0.3-4.1-0.8-5.9c-1.3-2-3.5-3.2-6-3.2
	c-1.9-4.2-6.2-7-10.9-7c-5.9,0-11,4.4-11.9,10.2C3.9,21,0,25.6,0,31c0,4.5,2.8,8.4,6.7,10.1l6.2-6.2c1.2-1.2,3.1-1.2,4.2,0
	c1.1,1.1,1.1,2.9,0.1,4.1c0.2,0.3,0.4,0.6,0.9,0.7l4.8-4.8c1.2-1.2,3.1-1.2,4.2,0c1.2,1.2,1.2,3.1,0,4.2l-2.8,2.8h1.5l7-7
	c1.2-1.2,3.1-1.2,4.2,0c1.2,1.2,1.2,3.1,0,4.2l-2.7,2.7c4.3-0.7,7.6-4.4,7.6-8.8C42,30.3,40.8,27.7,38.7,26z"/>
</svg>
