<?xml version="1.0" encoding="utf-8"?>
<!-- Generator: Adobe Illustrator 20.1.0, SVG Export Plug-In . SVG Version: 6.00 Build 0)  -->
<svg version="1.1" id="Layer_1" xmlns="http://www.w3.org/2000/svg" xmlns:xlink="http://www.w3.org/1999/xlink" x="0px" y="0px"
	 viewBox="0 0 48 48" style="enable-background:new 0 0 48 48;" xml:space="preserve">
<path d="M8.5,21.2C7,19.6,6,17.4,6,15c0-5,4-9,9-9c2.7,0,5.1,1.2,6.7,3.1c-4,1.7-7.2,5.1-8.3,9.4C11.6,19,9.9,20,8.5,21.2z M44.7,26
	c0.6-2,0.3-4.1-0.8-5.9c-1.3-2-3.6-3.2-5.9-3.2c-1.9-4.2-6.2-7-10.9-7c-5.9,0-11,4.4-11.9,10.2C9.9,21.1,6,25.6,6,31
	c0,4.2,2.4,7.9,6,9.7l5.9-5.9c1.2-1.2,3.1-1.2,4.2,0c0.8,0.8,1.1,2.1,0.7,3.1l3.1-3.1c1.2-1.2,3.1-1.2,4.2,0c1.2,1.2,1.2,3.1,0,4.2
	l-0.4,0.4c0.5,0.3,0.8,0.8,1.1,1.3c0.1,0.3,0.2,0.6,0.2,0.9l6.9-6.9c1.2-1.2,3.1-1.2,4.2,0c1.2,1.2,1.2,3.1,0,4.2l-2.8,2.8
	c4.8-0.2,8.7-4.1,8.7-8.9C48,30.3,46.8,27.8,44.7,26z M28.7,36.3c-0.4-0.4-1-0.4-1.4,0l-5,5c-0.3,0.3-0.4,0.7-0.2,1.1
	c0.2,0.4,0.5,0.6,0.9,0.6h2.6l-3.3,3.3c-0.4,0.4-0.4,1,0,1.4c0.2,0.2,0.5,0.3,0.7,0.3c0.3,0,0.5-0.1,0.7-0.3l5-5
	c0.3-0.3,0.4-0.7,0.2-1.1C28.8,41.3,28.4,41,28,41h-2.6l3.3-3.3C29.1,37.3,29.1,36.7,28.7,36.3z M40.7,36.2c-0.4-0.4-1-0.4-1.4,0
	l-10,10c-0.4,0.4-0.4,1,0,1.4c0.2,0.2,0.5,0.3,0.7,0.3c0.3,0,0.5-0.1,0.7-0.3l10-10C41.1,37.3,41.1,36.6,40.7,36.2z M19.3,36.2
	l-10,10c-0.4,0.4-0.4,1,0,1.4C9.5,47.9,9.7,48,10,48s0.5-0.1,0.7-0.3l10-10c0.4-0.4,0.4-1,0-1.4C20.3,35.9,19.7,35.9,19.3,36.2z
	 M6.4,4.9L4.8,3.4C4.4,3,3.8,3,3.4,3.4C3,3.8,3,4.4,3.4,4.8L5,6.3c0.2,0.2,0.5,0.3,0.7,0.3c0.3,0,0.5-0.1,0.7-0.3
	C6.8,6,6.8,5.3,6.4,4.9z M24.3,6.6c0.3,0,0.5-0.1,0.7-0.3l1.6-1.6c0.4-0.4,0.4-1,0-1.4c-0.4-0.4-1-0.4-1.4,0l-1.6,1.6
	c-0.4,0.4-0.4,1,0,1.4C23.8,6.5,24.1,6.6,24.3,6.6z M3,12H1c-0.6,0-1,0.4-1,1c0,0.6,0.4,1,1,1h2c0.6,0,1-0.4,1-1C4,12.5,3.6,12,3,12
	z M15,4c0.6,0,1-0.4,1-1V1c0-0.6-0.4-1-1-1c-0.6,0-1,0.4-1,1v2C14,3.6,14.4,4,15,4z"/>
</svg>
