<?xml version="1.0" encoding="utf-8"?>
<!-- Generator: Adobe Illustrator 20.1.0, SVG Export Plug-In . SVG Version: 6.00 Build 0)  -->
<svg version="1.1" id="Layer_1" xmlns="http://www.w3.org/2000/svg" xmlns:xlink="http://www.w3.org/1999/xlink" x="0px" y="0px"
	 viewBox="0 0 48 48" style="enable-background:new 0 0 48 48;" xml:space="preserve">
<path d="M48,23c0,4.2-2.9,7.7-6.8,8.7c-0.1-0.1-0.2-0.2-0.3-0.4c0.3-2.2-0.1-4.4-1.4-6.3c-1.5-2.2-3.8-3.7-6.4-4
	C30.7,16.8,26,14,21,14c-6.4,0-12,4.4-13.5,10.5c-0.3,0.1-0.5,0.2-0.8,0.3C6.2,23.6,6,22.3,6,21c0-5.4,3.9-10,9.1-10.8
	C16,4.4,21.1,0,27,0c4.7,0,9,2.8,10.9,7c0,0,0.1,0,0.1,0c2.3,0,4.5,1.2,5.8,3.2c1.2,1.8,1.4,3.9,0.8,5.9C46.8,17.7,48,20.3,48,23z
	 M38.7,32C38.7,32,38.7,32,38.7,32c0.3,0,0.8-3.3-0.8-5.9c-1.2-1.9-3.2-3-5.4-3.2c-0.3,0-0.7-0.2-0.8-0.5C29.6,18.5,25.4,16,21,16
	c-5.6,0-10.6,4-11.7,9.5c-0.1,0.4-0.4,0.7-0.8,0.8C3.6,27.4,0,31.8,0,37c0,6.1,4.9,11,11,11h22c5,0,9-4,9-9
	C42,36.3,40.7,33.7,38.7,32z"/>
</svg>
