<?xml version="1.0" encoding="utf-8"?>
<!-- Generator: Adobe Illustrator 17.0.0, SVG Export Plug-In . SVG Version: 6.00 Build 0)  -->
<!DOCTYPE svg PUBLIC "-//W3C//DTD SVG 1.1//EN" "http://www.w3.org/Graphics/SVG/1.1/DTD/svg11.dtd">
<svg version="1.1" id="Layer_1" xmlns="http://www.w3.org/2000/svg" xmlns:xlink="http://www.w3.org/1999/xlink" x="0px" y="0px"
	 width="48px" height="48px" viewBox="0 0 48 48" enable-background="new 0 0 48 48" xml:space="preserve">
<path d="M29.6,15.7c2.6,1.1,5.1,2.7,7.1,4.8l-2.8,2.8c-1.7-1.7-3.7-3-5.8-3.9c-0.2-0.1-0.3-0.1-0.5-0.2c-0.4-0.1-0.8-0.3-1.2-0.4
	c-1.5-0.5-3.1-0.7-4.7-0.7c-0.2,0-0.4,0-0.5,0c-0.2,0-0.4,0-0.7,0c-3.4,0.1-6.6,1.1-9.3,3c-0.1,0.1-0.2,0.1-0.2,0.2
	c-0.4,0.3-0.8,0.6-1.2,0.9c-0.5,0.4-0.9,0.8-1.3,1.2l-2.8-2.8c1.6-1.6,3.3-2.9,5.2-3.9c0.1,0,0.2-0.1,0.3-0.1
	c0.6-0.3,1.1-0.6,1.7-0.8c0.4-0.2,0.8-0.3,1.2-0.4c0.3-0.1,0.6-0.2,0.8-0.3c0.5-0.2,1-0.3,1.5-0.4c0.2,0,0.4-0.1,0.6-0.1
	c0.6-0.1,1.1-0.2,1.7-0.3c0.2,0,0.3-0.1,0.4-0.1c0.4,0,0.9,0,1.3-0.1c0.3,0,0.6,0,0.8,0c0,0,0,0,0,0h0h0c0.3,0,0.6,0,0.9,0
	c0.4,0,0.9,0,1.3,0.1c0.2,0,0.5,0.1,0.7,0.1c0.5,0.1,0.9,0.1,1.4,0.2c0.4,0.1,0.7,0.2,1,0.3c0.3,0.1,0.7,0.2,1,0.3
	c0.5,0.2,1.1,0.4,1.6,0.6C29.4,15.6,29.5,15.6,29.6,15.7z M0,12.8l2.8,2.8C13,5.5,29.5,5.5,39.6,15.6l2.8-2.8
	C30.7,1.1,11.7,1.1,0,12.8z M11.3,28.1l2.8,2.8c3.9-3.9,10.2-3.9,14.1,0l2.8-2.8C25.7,22.6,16.8,22.6,11.3,28.1z M21.2,35
	c-2.8,0-5,2.2-5,5s2.2,5,5,5c2.8,0,5-2.2,5-5S24,35,21.2,35z"/>
</svg>
