<?xml version="1.0" encoding="utf-8"?>
<!-- Generator: Adobe Illustrator 17.0.0, SVG Export Plug-In . SVG Version: 6.00 Build 0)  -->
<!DOCTYPE svg PUBLIC "-//W3C//DTD SVG 1.1//EN" "http://www.w3.org/Graphics/SVG/1.1/DTD/svg11.dtd">
<svg version="1.1" id="Layer_1" xmlns="http://www.w3.org/2000/svg" xmlns:xlink="http://www.w3.org/1999/xlink" x="0px" y="0px"
	 width="48px" height="48px" viewBox="0 0 48 48" enable-background="new 0 0 48 48" xml:space="preserve">
<path d="M45,14H32.9c-0.5-4.5-4.3-8-8.9-8c-4.6,0-8.4,3.5-8.9,8H3c-0.6,0-1,0.4-1,1v28c0,0.6,0.4,1,1,1h42c0.6,0,1-0.4,1-1V15
	C46,14.4,45.6,14,45,14z M24,8c3.5,0,6.4,2.6,6.9,6H17.1C17.6,10.6,20.5,8,24,8z M44,16v8H28v-1c0-0.6-0.4-1-1-1h-6
	c-0.6,0-1,0.4-1,1v1H4v-8H44z M22,24h4v6h-4V24z M4,42V26h16v5c0,0.6,0.4,1,1,1h6c0.6,0,1-0.4,1-1v-5h16v16H4z"/>
</svg>
