<?xml version="1.0" encoding="utf-8"?>
<!-- Generator: Adobe Illustrator 20.1.0, SVG Export Plug-In . SVG Version: 6.00 Build 0)  -->
<svg version="1.1" id="Layer_1" xmlns="http://www.w3.org/2000/svg" xmlns:xlink="http://www.w3.org/1999/xlink" x="0px" y="0px"
	 viewBox="0 0 48 48" style="enable-background:new 0 0 48 48;" xml:space="preserve">
<path d="M33,18h-3v-6c0-3.3-2.7-6-6-6s-6,2.7-6,6v6h-3c-0.6,0-1,0.4-1,1s0.4,1,1,1h3v14c0,2.4,1.3,4.2,2,5v4c0,0.6,0.4,1,1,1h6
	c0.6,0,1-0.4,1-1v-4c0.7-0.8,2-2.6,2-5V20h3c0.6,0,1-0.4,1-1S33.6,18,33,18z M20,12c0-2.2,1.8-4,4-4c2.2,0,4,1.8,4,4v6h-8V12z
	 M28,34c0,2.1-1.5,3.7-1.7,3.9c-0.2,0.2-0.3,0.4-0.3,0.7V42h-4v-3.4c0-0.3-0.1-0.5-0.3-0.7C21.5,37.7,20,36.1,20,34V20h8V34z"/>
</svg>
