<?xml version="1.0" encoding="utf-8"?>
<!-- Generator: Adobe Illustrator 17.0.0, SVG Export Plug-In . SVG Version: 6.00 Build 0)  -->
<!DOCTYPE svg PUBLIC "-//W3C//DTD SVG 1.1//EN" "http://www.w3.org/Graphics/SVG/1.1/DTD/svg11.dtd">
<svg version="1.1" id="Layer_1" xmlns="http://www.w3.org/2000/svg" xmlns:xlink="http://www.w3.org/1999/xlink" x="0px" y="0px"
	 width="48px" height="48px" viewBox="0 0 48 48" enable-background="new 0 0 48 48" xml:space="preserve">
<path d="M36.7,19.3c-0.4-0.4-1-0.4-1.4,0L26,28.6c-0.6-0.4-1.3-0.6-2-0.6c-2.2,0-4,1.8-4,4s1.8,4,4,4c2.2,0,4-1.8,4-4
	c0-0.7-0.2-1.4-0.6-2l9.3-9.3C37.1,20.3,37.1,19.7,36.7,19.3z M24,34c-1.1,0-2-0.9-2-2s0.9-2,2-2c1.1,0,2,0.9,2,2S25.1,34,24,34z
	 M10,33c0,0.6-0.4,1-1,1H5c-0.6,0-1-0.4-1-1s0.4-1,1-1h4C9.6,32,10,32.4,10,33z M39,32h4c0.6,0,1,0.4,1,1s-0.4,1-1,1h-4
	c-0.6,0-1-0.4-1-1S38.4,32,39,32z M37.5,25.3l3.7-1.5c0.5-0.2,1.1,0,1.3,0.5s0,1.1-0.5,1.3l-3.7,1.5c-0.1,0.1-0.3,0.1-0.4,0.1
	c-0.4,0-0.8-0.2-0.9-0.6C36.7,26.1,37,25.5,37.5,25.3z M28.8,17.8l1.5-3.7c0.2-0.5,0.8-0.8,1.3-0.5c0.5,0.2,0.8,0.8,0.5,1.3
	l-1.5,3.7c-0.2,0.4-0.5,0.6-0.9,0.6c-0.1,0-0.3,0-0.4-0.1C28.8,18.9,28.6,18.3,28.8,17.8z M23,17v-4c0-0.6,0.4-1,1-1s1,0.4,1,1v4
	c0,0.6-0.4,1-1,1S23,17.6,23,17z M19.2,17.8c0.2,0.5,0,1.1-0.5,1.3c-0.1,0.1-0.3,0.1-0.4,0.1c-0.4,0-0.8-0.2-0.9-0.6l-1.5-3.7
	c-0.2-0.5,0-1.1,0.5-1.3c0.5-0.2,1.1,0,1.3,0.5L19.2,17.8z M14.1,20.7c0.4,0.4,0.4,1,0,1.4c-0.2,0.2-0.5,0.3-0.7,0.3
	c-0.3,0-0.5-0.1-0.7-0.3l-2.8-2.8c-0.4-0.4-0.4-1,0-1.4c0.4-0.4,1-0.4,1.4,0L14.1,20.7z M11.1,26.6c-0.2,0.4-0.5,0.6-0.9,0.6
	c-0.1,0-0.3,0-0.4-0.1l-3.7-1.5c-0.5-0.2-0.8-0.8-0.5-1.3c0.2-0.5,0.8-0.8,1.3-0.5l3.7,1.5C11,25.5,11.3,26.1,11.1,26.6z M24,8
	C10.8,8,0,18.8,0,32v9c0,0.6,0.4,1,1,1h46c0.6,0,1-0.4,1-1v-9C48,18.8,37.2,8,24,8z M46,40H2v-8c0-12.1,9.9-22,22-22s22,9.9,22,22
	V40z"/>
</svg>
