<?xml version="1.0" encoding="utf-8"?>
<!-- Generator: Adobe Illustrator 17.0.0, SVG Export Plug-In . SVG Version: 6.00 Build 0)  -->
<!DOCTYPE svg PUBLIC "-//W3C//DTD SVG 1.1//EN" "http://www.w3.org/Graphics/SVG/1.1/DTD/svg11.dtd">
<svg version="1.1" id="Layer_1" xmlns="http://www.w3.org/2000/svg" xmlns:xlink="http://www.w3.org/1999/xlink" x="0px" y="0px"
	 width="48px" height="48px" viewBox="0 0 48 48" enable-background="new 0 0 48 48" xml:space="preserve">
<path d="M48,32.9C48,32.9,48,32.9,48,32.9l-4-24V4c0-2.2-1.8-4-4-4H8C5.8,0,4,1.8,4,4v4.9L0,32.8c0,0,0,0.1,0,0.1c0,0,0,0.1,0,0.1v9
	c0,2.2,1.8,4,4,4h2v1c0,0.6,0.4,1,1,1s1-0.4,1-1v-1h32v1c0,0.6,0.4,1,1,1s1-0.4,1-1v-1h2c2.2,0,4-1.8,4-4L48,32.9
	C48,33,48,32.9,48,32.9z M5.8,10h2.6L8,12.9c0,0.3,0,0.6,0.2,0.8S8.7,14,9,14h12.1c0.5,0,1-0.4,1-1l0.1-2.8h4.2l0.1,2.8
	c0,0.5,0.5,1,1,1h12.1c0.3,0,0.6-0.1,0.8-0.3c0.2-0.2,0.3-0.5,0.2-0.8L40.1,10h2.1l1,6H4.8L5.8,10z M10.1,12l0.6-4h9.5l-0.1,4H10.1z
	 M28.3,8h9.5l0.6,4h-10L28.3,8z M8,2h32c1.1,0,2,0.9,2,2v4h-2.2l-0.2-1.1c-0.1-0.5-0.5-0.9-1-0.9H27.3c-0.3,0-0.5,0.1-0.7,0.3
	c-0.2,0.2-0.3,0.5-0.3,0.7l0,1.2h-4.1l0-1.2c0-0.3-0.1-0.5-0.3-0.7S21.5,6,21.2,6H9.8c-0.5,0-0.9,0.4-1,0.9L8.7,8H6V4
	C6,2.9,6.9,2,8,2z M4.5,18h39l2.3,14H2.2L4.5,18z M46,42c0,1.1-0.9,2-2,2H4c-1.1,0-2-0.9-2-2v-8h44V42z"/>
</svg>
