<?xml version="1.0" encoding="utf-8"?>
<!-- Generator: Adobe Illustrator 17.0.0, SVG Export Plug-In . SVG Version: 6.00 Build 0)  -->
<!DOCTYPE svg PUBLIC "-//W3C//DTD SVG 1.1//EN" "http://www.w3.org/Graphics/SVG/1.1/DTD/svg11.dtd">
<svg version="1.1" id="Layer_1" xmlns="http://www.w3.org/2000/svg" xmlns:xlink="http://www.w3.org/1999/xlink" x="0px" y="0px"
	 width="48px" height="48px" viewBox="0 0 48 48" enable-background="new 0 0 48 48" xml:space="preserve">
<path d="M33,0H15c-2.8,0-5,2.2-5,5v38c0,2.8,2.2,5,5,5h18c2.8,0,5-2.2,5-5V5C38,2.2,35.8,0,33,0z M12,10h24v28H12V10z M15,2h18
	c1.7,0,3,1.3,3,3v3H12V5C12,3.3,13.3,2,15,2z M33,46H15c-1.7,0-3-1.3-3-3v-3h24v3C36,44.7,34.7,46,33,46z M30,43c0,0.6-0.4,1-1,1H19
	c-0.6,0-1-0.4-1-1s0.4-1,1-1h10C29.6,42,30,42.4,30,43z M22,5c0-1.1,0.9-2,2-2c1.1,0,2,0.9,2,2s-0.9,2-2,2C22.9,7,22,6.1,22,5z"/>
</svg>
