<?xml version="1.0" encoding="utf-8"?>
<!-- Generator: Adobe Illustrator 20.1.0, SVG Export Plug-In . SVG Version: 6.00 Build 0)  -->
<svg version="1.1" id="Layer_1" xmlns="http://www.w3.org/2000/svg" xmlns:xlink="http://www.w3.org/1999/xlink" x="0px" y="0px"
	 viewBox="0 0 48 48" style="enable-background:new 0 0 48 48;" xml:space="preserve">
<path d="M40.4,0.1C40-0.1,39.6,0,39.3,0.3L36,3.6l-3.3-3.3c-0.4-0.4-1-0.4-1.4,0L28,3.6l-3.3-3.3c-0.4-0.4-1-0.4-1.4,0L20,3.6
	l-3.3-3.3c-0.4-0.4-1-0.4-1.4,0L12,3.6L8.7,0.3C8.4,0,8-0.1,7.6,0.1C7.2,0.2,7,0.6,7,1v46c0,0.4,0.2,0.8,0.6,0.9
	C8,48.1,8.4,48,8.7,47.7l3.3-3.3l3.3,3.3c0.4,0.4,1,0.4,1.4,0l3.3-3.3l3.3,3.3c0.4,0.4,1,0.4,1.4,0l3.3-3.3l3.3,3.3
	c0.4,0.4,1,0.4,1.4,0l3.3-3.3l3.3,3.3c0.2,0.2,0.4,0.3,0.7,0.3c0.1,0,0.3,0,0.4-0.1c0.4-0.2,0.6-0.5,0.6-0.9V1
	C41,0.6,40.8,0.2,40.4,0.1z M39,44.6l-2.3-2.3c-0.4-0.4-1-0.4-1.4,0L32,45.6l-3.3-3.3C28.5,42.1,28.3,42,28,42s-0.5,0.1-0.7,0.3
	L24,45.6l-3.3-3.3c-0.4-0.4-1-0.4-1.4,0L16,45.6l-3.3-3.3c-0.4-0.4-1-0.4-1.4,0L9,44.6V3.4l2.3,2.3c0.4,0.4,1,0.4,1.4,0L16,2.4
	l3.3,3.3c0.4,0.4,1,0.4,1.4,0L24,2.4l3.3,3.3c0.4,0.4,1,0.4,1.4,0L32,2.4l3.3,3.3c0.4,0.4,1,0.4,1.4,0L39,3.4V44.6z M27,13
	c0,0.6-0.4,1-1,1H14c-0.6,0-1-0.4-1-1s0.4-1,1-1h12C26.6,12,27,12.4,27,13z M13,19c0-0.6,0.4-1,1-1h8c0.6,0,1,0.4,1,1s-0.4,1-1,1h-8
	C13.4,20,13,19.6,13,19z M25,25c0,0.6-0.4,1-1,1H14c-0.6,0-1-0.4-1-1c0-0.6,0.4-1,1-1h10C24.6,24,25,24.4,25,25z M21,31
	c0,0.6-0.4,1-1,1h-6c-0.6,0-1-0.4-1-1s0.4-1,1-1h6C20.6,30,21,30.4,21,31z M35,13c0,0.6-0.4,1-1,1h-2c-0.6,0-1-0.4-1-1s0.4-1,1-1h2
	C34.6,12,35,12.4,35,13z M35,19c0,0.6-0.4,1-1,1h-2c-0.6,0-1-0.4-1-1s0.4-1,1-1h2C34.6,18,35,18.4,35,19z M35,25c0,0.6-0.4,1-1,1h-2
	c-0.6,0-1-0.4-1-1c0-0.6,0.4-1,1-1h2C34.6,24,35,24.4,35,25z M35,31c0,0.6-0.4,1-1,1h-2c-0.6,0-1-0.4-1-1s0.4-1,1-1h2
	C34.6,30,35,30.4,35,31z"/>
</svg>
