<?xml version="1.0" encoding="utf-8"?>
<!-- Generator: Adobe Illustrator 17.0.0, SVG Export Plug-In . SVG Version: 6.00 Build 0)  -->
<!DOCTYPE svg PUBLIC "-//W3C//DTD SVG 1.1//EN" "http://www.w3.org/Graphics/SVG/1.1/DTD/svg11.dtd">
<svg version="1.1" id="Layer_1" xmlns="http://www.w3.org/2000/svg" xmlns:xlink="http://www.w3.org/1999/xlink" x="0px" y="0px"
	 width="48px" height="48px" viewBox="0 0 48 48" enable-background="new 0 0 48 48" xml:space="preserve">
<path d="M14.3,23.7c-0.4-0.4-0.4-1,0-1.4s1-0.4,1.4,0l4.3,4.3l14.3-13.3c0.4-0.4,1-0.4,1.4,0c0.4,0.4,0.4,1,0,1.4l-15,14
	C20.5,28.9,20.2,29,20,29c-0.3,0-0.5-0.1-0.7-0.3L14.3,23.7z M44,1v14.5c0,13.6-7.5,26-19.5,32.4C24.3,48,24.2,48,24,48
	s-0.3,0-0.5-0.1C11.5,41.5,4,29.1,4,15.5V1c0-0.6,0.4-1,1-1h38C43.6,0,44,0.4,44,1z M42,2H6v13.5c0,12.7,6.9,24.3,18,30.3
	c11.1-6.1,18-17.6,18-30.3V2z"/>
</svg>
