<?xml version="1.0" encoding="utf-8"?>
<!-- Generator: Adobe Illustrator 20.1.0, SVG Export Plug-In . SVG Version: 6.00 Build 0)  -->
<svg version="1.1" id="Layer_1" xmlns="http://www.w3.org/2000/svg" xmlns:xlink="http://www.w3.org/1999/xlink" x="0px" y="0px"
	 viewBox="0 0 48 48" style="enable-background:new 0 0 48 48;" xml:space="preserve">
<path d="M39,13.1V1c0-0.6-0.4-1-1-1H25.5c-0.3,0-0.5,0.1-0.7,0.3L0.3,24.9c-0.4,0.4-0.4,1,0,1.4l12.5,12.6c0.2,0.2,0.4,0.3,0.7,0.3
	c0,0,0,0,0,0c0.3,0,0.5-0.1,0.7-0.3l24.5-25C38.9,13.7,39,13.4,39,13.1z M37,12.7l-23.5,24L2.4,25.6L25.9,2H37V12.7z M31,12.1
	c2.2,0,4-1.8,4-4s-1.8-4-4-4s-4,1.8-4,4S28.8,12.1,31,12.1z M31,6.1c1.1,0,2,0.9,2,2s-0.9,2-2,2s-2-0.9-2-2S29.9,6.1,31,6.1z
	 M26.7,36c-0.5-0.2-0.8-0.8-0.6-1.3c1.4-4,5.2-6.7,9.4-6.7c3.1,0,6,1.4,8,3.6v-1.6c0-0.6,0.4-1,1-1s1,0.4,1,1v5c0,0.6-0.4,1-1,1h-5
	c-0.6,0-1-0.4-1-1s0.4-1,1-1h3.3c-1.5-2.4-4.3-4-7.3-4c-3.4,0-6.4,2.1-7.5,5.3c-0.1,0.4-0.5,0.7-0.9,0.7C26.9,36.1,26.8,36,26.7,36z
	 M46,41.3c-1.4,4-5.2,6.7-9.4,6.7c-3.1,0-6-1.4-8-3.6V46c0,0.6-0.4,1-1,1s-1-0.4-1-1v-5c0-0.6,0.4-1,1-1h5c0.6,0,1,0.4,1,1
	s-0.4,1-1,1h-3.3c1.5,2.4,4.3,4,7.3,4c3.4,0,6.4-2.1,7.5-5.3c0.2-0.5,0.8-0.8,1.3-0.6C45.9,40.2,46.2,40.8,46,41.3z"/>
</svg>
