<?xml version="1.0" encoding="utf-8"?>
<!-- Generator: Adobe Illustrator 17.0.0, SVG Export Plug-In . SVG Version: 6.00 Build 0)  -->
<!DOCTYPE svg PUBLIC "-//W3C//DTD SVG 1.1//EN" "http://www.w3.org/Graphics/SVG/1.1/DTD/svg11.dtd">
<svg version="1.1" id="Layer_1" xmlns="http://www.w3.org/2000/svg" xmlns:xlink="http://www.w3.org/1999/xlink" x="0px" y="0px"
	 width="48px" height="48px" viewBox="0 0 48 48" enable-background="new 0 0 48 48" xml:space="preserve">
<path d="M18,48c-0.3,0-0.5-0.1-0.7-0.3l-17-17c-0.4-0.4-0.4-1,0-1.4l29-29C29.5,0.1,29.8,0,30,0h17c0.3,0,0.5,0.1,0.7,0.3
	C47.9,0.5,48,0.7,48,1l0,17c0,0.3-0.1,0.5-0.3,0.7l-29,29C18.5,47.9,18.2,48,18,48z M2.4,30L18,45.6l28-28L46,2H30.4L2.4,30z M37,16
	c-2.8,0-5-2.2-5-5s2.2-5,5-5s5,2.2,5,5S39.8,16,37,16z M37,8c-1.7,0-3,1.3-3,3s1.3,3,3,3s3-1.3,3-3S38.7,8,37,8z"/>
</svg>
