<?xml version="1.0" encoding="utf-8"?>
<!-- Generator: Adobe Illustrator 20.1.0, SVG Export Plug-In . SVG Version: 6.00 Build 0)  -->
<svg version="1.1" id="Layer_1" xmlns="http://www.w3.org/2000/svg" xmlns:xlink="http://www.w3.org/1999/xlink" x="0px" y="0px"
	 viewBox="0 0 48 48" style="enable-background:new 0 0 48 48;" xml:space="preserve">
<path d="M4,39h18v2H3c-0.6,0-1-0.4-1-1V7c0-0.6,0.4-1,1-1h42c0.6,0,1,0.4,1,1v17h-2V8H4V39z M39,20H29c-0.6,0-1,0.4-1,1s0.4,1,1,1
	h10c0.6,0,1-0.4,1-1S39.6,20,39,20z M39,16H29c-0.6,0-1,0.4-1,1s0.4,1,1,1h10c0.6,0,1-0.4,1-1S39.6,16,39,16z M23.9,27.7
	c0,0.1,0.1,0.2,0.1,0.3v4c0,0.6-0.4,1-1,1H9c-0.6,0-1-0.4-1-1v-4c0-0.1,0-0.2,0.1-0.3c0-0.1,1.1-3.2,4.9-3.6v-0.5
	c-0.8-0.6-2-2-2-4.5c0-2,0-5,5-5s5,3,5,5c0,2.6-1.2,3.9-2,4.5v0.5C22.8,24.5,23.9,27.5,23.9,27.7z M22,28.2c-0.2-0.5-1.2-2.2-4-2.2
	c-0.6,0-1-0.4-1-1v-2c0-0.4,0.2-0.7,0.6-0.9c0,0,1.4-0.8,1.4-3.1c0-2,0-3-3-3s-3,1-3,3c0,2.3,1.4,3.1,1.5,3.1
	c0.3,0.2,0.5,0.5,0.5,0.9v2c0,0.6-0.4,1-1,1c-2.8,0-3.8,1.7-4,2.2V31h12V28.2z M41.3,34.3L36,39.6l-3.2-3.3c-0.4-0.4-1-0.4-1.4,0
	c-0.4,0.4-0.4,1,0,1.4l3.9,4c0.2,0.2,0.4,0.3,0.7,0.3c0,0,0,0,0,0c0.3,0,0.5-0.1,0.7-0.3l6.1-6c0.4-0.4,0.4-1,0-1.4
	C42.3,33.9,41.7,33.9,41.3,34.3z M48,37c0,6.1-4.9,11-11,11s-11-4.9-11-11s4.9-11,11-11S48,30.9,48,37z M46,37c0-5-4-9-9-9s-9,4-9,9
	s4,9,9,9S46,42,46,37z"/>
</svg>
