<?xml version="1.0" encoding="utf-8"?>
<!-- Generator: Adobe Illustrator 20.1.0, SVG Export Plug-In . SVG Version: 6.00 Build 0)  -->
<svg version="1.1" id="Layer_1" xmlns="http://www.w3.org/2000/svg" xmlns:xlink="http://www.w3.org/1999/xlink" x="0px" y="0px"
	 viewBox="0 0 48 48" style="enable-background:new 0 0 48 48;" xml:space="preserve">
<path d="M31.3,5.7C31,5.4,30.9,5,31.1,4.6C31.2,4.2,31.6,4,32,4h9c0.6,0,1,0.4,1,1v9c0,0.6-0.4,1-1,1c-0.3,0-0.5-0.1-0.7-0.3
	L31.3,5.7z M6,25.2V48h14V34h8v14h14V25.2l-18-18L6,25.2z M47.7,25.3C47.7,25.3,47.7,25.3,47.7,25.3l-23-23c-0.4-0.4-1-0.4-1.4,0
	l-23,23c-0.4,0.4-0.4,1,0,1.4c0.5,0.5,1.1,0.4,1.4,0c0,0,0,0,0,0L24,4.4l22.3,22.3c0,0,0,0,0,0c0.4,0.4,1,0.4,1.4,0c0,0,0,0,0,0
	C48.1,26.3,48.1,25.7,47.7,25.3z"/>
</svg>
