<?xml version="1.0" encoding="utf-8"?>
<!-- Generator: Adobe Illustrator 17.0.0, SVG Export Plug-In . SVG Version: 6.00 Build 0)  -->
<!DOCTYPE svg PUBLIC "-//W3C//DTD SVG 1.1//EN" "http://www.w3.org/Graphics/SVG/1.1/DTD/svg11.dtd">
<svg version="1.1" id="Layer_1" xmlns="http://www.w3.org/2000/svg" xmlns:xlink="http://www.w3.org/1999/xlink" x="0px" y="0px"
	 width="48px" height="48px" viewBox="0 0 48 48" enable-background="new 0 0 48 48" xml:space="preserve">
<path d="M47,2H1C0.4,2,0,2.4,0,3v32c0,0.6,0.4,1,1,1h13v7c0,0.4,0.2,0.8,0.6,0.9C14.7,44,14.9,44,15,44c0.3,0,0.5-0.1,0.7-0.3
	l7.7-7.7H47c0.6,0,1-0.4,1-1V3C48,2.4,47.6,2,47,2z M18.8,8.4C18.9,8.2,19.1,8,19.4,8h5c0.2,0,0.3,0.1,0.4,0.2l4.8,4.8h-6.8
	l-3.9-3.9C18.8,8.9,18.7,8.6,18.8,8.4z M36.9,20.5h-6l-7.3,7.3c-0.1,0.1-0.3,0.2-0.4,0.2h-6.3c-0.3,0-0.5-0.2-0.6-0.4
	c-0.1-0.2,0-0.5,0.1-0.7l6.4-6.4h-8.5c-0.2,0-0.5-0.1-0.6-0.3l-3.8-7.5c-0.1-0.2-0.1-0.4,0-0.6c0.1-0.2,0.3-0.3,0.5-0.3h5
	c0.2,0,0.3,0.1,0.4,0.2l2.3,2.3h18.5c1.7,0,3.1,1.4,3.1,3.1C40,19.1,38.6,20.5,36.9,20.5z"/>
</svg>
