<?xml version="1.0" encoding="utf-8"?>
<!-- Generator: Adobe Illustrator 20.1.0, SVG Export Plug-In . SVG Version: 6.00 Build 0)  -->
<svg version="1.1" id="Layer_1" xmlns="http://www.w3.org/2000/svg" xmlns:xlink="http://www.w3.org/1999/xlink" x="0px" y="0px"
	 viewBox="0 0 48 48" style="enable-background:new 0 0 48 48;" xml:space="preserve">
<path d="M40.4,0.1C40-0.1,39.6,0,39.3,0.3L36,3.6l-3.3-3.3c-0.4-0.4-1-0.4-1.4,0L28,3.6l-3.3-3.3c-0.4-0.4-1-0.4-1.4,0L20,3.6
	l-3.3-3.3c-0.4-0.4-1-0.4-1.4,0L12,3.6L8.7,0.3C8.4,0,8-0.1,7.6,0.1C7.2,0.2,7,0.6,7,1v46c0,0.4,0.2,0.8,0.6,0.9
	C8,48.1,8.4,48,8.7,47.7l3.3-3.3l3.3,3.3c0.4,0.4,1,0.4,1.4,0l3.3-3.3l3.3,3.3c0.4,0.4,1,0.4,1.4,0l3.3-3.3l3.3,3.3
	c0.4,0.4,1,0.4,1.4,0l3.3-3.3l3.3,3.3c0.2,0.2,0.4,0.3,0.7,0.3c0.1,0,0.3,0,0.4-0.1c0.4-0.2,0.6-0.5,0.6-0.9V1
	C41,0.6,40.8,0.2,40.4,0.1z M20,32h-6c-0.6,0-1-0.4-1-1s0.4-1,1-1h6c0.6,0,1,0.4,1,1S20.6,32,20,32z M24,26H14c-0.6,0-1-0.4-1-1
	s0.4-1,1-1h10c0.6,0,1,0.4,1,1S24.6,26,24,26z M13,19c0-0.6,0.4-1,1-1h8c0.6,0,1,0.4,1,1s-0.4,1-1,1h-8C13.4,20,13,19.6,13,19z
	 M26,14H14c-0.6,0-1-0.4-1-1s0.4-1,1-1h12c0.6,0,1,0.4,1,1S26.6,14,26,14z M34,32h-2c-0.6,0-1-0.4-1-1s0.4-1,1-1h2c0.6,0,1,0.4,1,1
	S34.6,32,34,32z M34,26h-2c-0.6,0-1-0.4-1-1s0.4-1,1-1h2c0.6,0,1,0.4,1,1S34.6,26,34,26z M34,20h-2c-0.6,0-1-0.4-1-1s0.4-1,1-1h2
	c0.6,0,1,0.4,1,1S34.6,20,34,20z M34,14h-2c-0.6,0-1-0.4-1-1s0.4-1,1-1h2c0.6,0,1,0.4,1,1S34.6,14,34,14z"/>
</svg>
