<?xml version="1.0" encoding="utf-8"?>
<!-- Generator: Adobe Illustrator 20.1.0, SVG Export Plug-In . SVG Version: 6.00 Build 0)  -->
<svg version="1.1" id="Layer_1" xmlns="http://www.w3.org/2000/svg" xmlns:xlink="http://www.w3.org/1999/xlink" x="0px" y="0px"
	 viewBox="0 0 48 48" style="enable-background:new 0 0 48 48;" xml:space="preserve">
<path d="M46,23c0,5-4,9-9,9H15C8.9,32,4,27.1,4,21c0-5.4,3.9-10,9.1-10.8C14,4.4,19.1,0,25,0c4.7,0,9,2.8,10.9,7H36
	c2.3,0,4.5,1.2,5.8,3.2c1.2,1.8,1.4,3.9,0.8,5.9C44.8,17.7,46,20.3,46,23z M25,36c-0.6,0-1,0.4-1,1s0.4,1,1,1s1-0.4,1-1
	S25.6,36,25,36z M37,39c-0.6,0-1,0.4-1,1s0.4,1,1,1s1-0.4,1-1S37.6,39,37,39z M37,45c-0.6,0-1,0.4-1,1s0.4,1,1,1s1-0.4,1-1
	S37.6,45,37,45z M25,42c-0.6,0-1,0.4-1,1s0.4,1,1,1s1-0.4,1-1S25.6,42,25,42z M33,42c-0.6,0-1,0.4-1,1s0.4,1,1,1s1-0.4,1-1
	S33.6,42,33,42z M29,45c-0.6,0-1,0.4-1,1s0.4,1,1,1s1-0.4,1-1S29.6,45,29,45z M33,36c-0.6,0-1,0.4-1,1s0.4,1,1,1s1-0.4,1-1
	S33.6,36,33,36z M29,39c-0.6,0-1,0.4-1,1s0.4,1,1,1s1-0.4,1-1S29.6,39,29,39z M21,39c-0.6,0-1,0.4-1,1s0.4,1,1,1s1-0.4,1-1
	S21.6,39,21,39z M21,45c-0.6,0-1,0.4-1,1s0.4,1,1,1s1-0.4,1-1S21.6,45,21,45z M17,42c-0.6,0-1,0.4-1,1s0.4,1,1,1s1-0.4,1-1
	S17.6,42,17,42z M13,45c-0.6,0-1,0.4-1,1s0.4,1,1,1s1-0.4,1-1S13.6,45,13,45z M17,36c-0.6,0-1,0.4-1,1s0.4,1,1,1s1-0.4,1-1
	S17.6,36,17,36z M13,39c-0.6,0-1,0.4-1,1s0.4,1,1,1s1-0.4,1-1S13.6,39,13,39z"/>
</svg>
