<?xml version="1.0" encoding="utf-8"?>
<!-- Generator: Adobe Illustrator 20.1.0, SVG Export Plug-In . SVG Version: 6.00 Build 0)  -->
<svg version="1.1" id="Layer_1" xmlns="http://www.w3.org/2000/svg" xmlns:xlink="http://www.w3.org/1999/xlink" x="0px" y="0px"
	 viewBox="0 0 48 48" style="enable-background:new 0 0 48 48;" xml:space="preserve">
<path d="M6,15c0-5,4-9,9-9c2.7,0,5.1,1.2,6.7,3.1c-4,1.7-7.2,5.1-8.3,9.4c-1.9,0.5-3.5,1.5-5,2.7C7,19.6,6,17.4,6,15z M41.7,37.7
	c0.4-0.4,0.4-1,0-1.4c-0.4-0.4-1-0.4-1.4,0l-7.8,7.8c-0.2,0-0.3-0.1-0.5-0.1c-1.1,0-2,0.9-2,2c0,1.1,0.9,2,2,2s2-0.9,2-2
	c0-0.2-0.1-0.3-0.1-0.5L41.7,37.7z M31.7,37.7c0.4-0.4,0.4-1,0-1.4c-0.4-0.4-1-0.4-1.4,0l-5.8,5.8c-0.2,0-0.3-0.1-0.5-0.1
	c-1.1,0-2,0.9-2,2c0,1.1,0.9,2,2,2s2-0.9,2-2c0-0.2-0.1-0.3-0.1-0.5L31.7,37.7z M20.3,36.3l-7.8,7.8c-0.2,0-0.3-0.1-0.5-0.1
	c-1.1,0-2,0.9-2,2c0,1.1,0.9,2,2,2s2-0.9,2-2c0-0.2-0.1-0.3-0.1-0.5l7.8-7.8c0.4-0.4,0.4-1,0-1.4C21.3,35.9,20.7,35.9,20.3,36.3z
	 M6.4,4.9L4.8,3.4C4.4,3,3.8,3,3.4,3.4C3,3.7,3,4.4,3.4,4.8L5,6.3c0.2,0.2,0.5,0.3,0.7,0.3c0.3,0,0.5-0.1,0.7-0.3
	C6.8,5.9,6.8,5.3,6.4,4.9z M24.3,6.6c0.3,0,0.5-0.1,0.7-0.3l1.6-1.6c0.4-0.4,0.4-1,0-1.4c-0.4-0.4-1-0.4-1.4,0l-1.6,1.6
	c-0.4,0.4-0.4,1,0,1.4C23.8,6.5,24.1,6.6,24.3,6.6z M3,12H1c-0.6,0-1,0.4-1,1s0.4,1,1,1h2c0.6,0,1-0.4,1-1S3.6,12,3,12z M15,4
	c0.6,0,1-0.4,1-1V1c0-0.6-0.4-1-1-1s-1,0.4-1,1v2C14,3.6,14.4,4,15,4z M44.7,26c0.6-2,0.3-4.1-0.8-5.9c-1.3-2-3.5-3.2-6-3.2
	c-1.9-4.2-6.2-7-10.9-7c-5.9,0-11,4.4-11.9,10.2C9.9,21,6,25.6,6,31c0,4.5,2.8,8.4,6.7,10.1l6.2-6.2c1.2-1.2,3.1-1.2,4.2,0
	c1.1,1.1,1.1,2.9,0.1,4.1c0.2,0.3,0.4,0.6,0.9,0.7l4.8-4.8c1.2-1.2,3.1-1.2,4.2,0c1.2,1.2,1.2,3.1,0,4.2l-2.8,2.8h1.5l7-7
	c1.2-1.2,3.1-1.2,4.2,0c1.2,1.2,1.2,3.1,0,4.2l-2.7,2.7c4.3-0.7,7.5-4.4,7.5-8.8C48,30.3,46.8,27.7,44.7,26z"/>
</svg>
